<svg xmlns="http://www.w3.org/2000/svg" xmlns:xlink="http://www.w3.org/1999/xlink" width="1080" zoomAndPan="magnify" viewBox="0 0 810 562.499983" height="750" preserveAspectRatio="xMidYMid meet" version="1.0"><defs><clipPath id="04fde4dc06"><path d="M 478 66.617188 L 587 66.617188 L 587 152 L 478 152 Z M 478 66.617188 " clip-rule="nonzero"/></clipPath><clipPath id="3bd776cb40"><path d="M 76.652344 343 L 465 343 L 465 495.234375 L 76.652344 495.234375 Z M 76.652344 343 " clip-rule="nonzero"/></clipPath></defs><path fill="#000000" d="M 212.976562 184.859375 C 211.332031 182.53125 209.4375 180.402344 207.355469 178.464844 C 211.777344 177.613281 215.550781 174.59375 217.863281 170.765625 C 220.601562 166.238281 220.96875 160.757812 219.324219 155.773438 C 217.601562 150.554688 213.984375 146.148438 209.382812 143.191406 C 204.476562 140.039062 198.675781 138.527344 192.898438 138.1875 C 192.121094 138.140625 191.347656 138.125 190.574219 138.117188 C 180.789062 136.019531 170.527344 136.300781 161.449219 140.777344 C 150.332031 146.257812 141.535156 158.574219 143.195312 171.351562 C 143.667969 174.992188 145.515625 178.695312 144.867188 182.410156 C 144.269531 185.851562 141.234375 187.535156 138.097656 188.246094 C 134.824219 188.988281 131.40625 189.015625 128.085938 189.417969 C 124.492188 189.851562 120.917969 190.445312 117.394531 191.265625 C 110.410156 192.894531 103.5625 195.445312 97.542969 199.394531 C 91.707031 203.226562 86.828125 208.339844 83.320312 214.386719 C 79.867188 220.34375 77.738281 227.082031 77.265625 233.960938 C 76.789062 240.875 78.039062 247.867188 80.734375 254.25 C 83.433594 260.636719 87.585938 266.410156 92.863281 270.921875 C 98.453125 275.703125 105.214844 279.011719 112.273438 281 C 127.972656 285.421875 144.761719 283.148438 160.207031 278.777344 C 174.59375 274.703125 188.535156 268.171875 199.734375 258.117188 C 210.074219 248.835938 218 236.480469 220.6875 222.734375 C 223.222656 209.773438 220.644531 195.703125 212.976562 184.859375 " fill-opacity="1" fill-rule="nonzero"/><path fill="#ffffff" d="M 219.953125 365.15625 L 221.617188 317.246094 L 123.238281 317.246094 L 101.542969 365.15625 L 219.953125 365.15625 " fill-opacity="1" fill-rule="nonzero"/><path fill="#000000" d="M 101.539062 365.671875 C 101.46875 365.671875 101.398438 365.65625 101.328125 365.625 C 101.070312 365.507812 100.953125 365.203125 101.070312 364.945312 L 122.769531 317.035156 C 122.851562 316.847656 123.035156 316.730469 123.238281 316.730469 L 221.617188 316.730469 C 221.757812 316.730469 221.890625 316.789062 221.988281 316.890625 C 222.085938 316.988281 222.136719 317.125 222.132812 317.261719 L 220.46875 365.175781 C 220.457031 365.457031 220.238281 365.683594 219.9375 365.671875 C 219.652344 365.660156 219.429688 365.421875 219.441406 365.140625 L 221.082031 317.761719 L 123.570312 317.761719 L 102.011719 365.367188 C 101.925781 365.558594 101.738281 365.671875 101.539062 365.671875 " fill-opacity="1" fill-rule="nonzero"/><path fill="#ffffff" d="M 226.777344 284.835938 C 226.777344 284.835938 253.769531 328.777344 282.683594 324.941406 C 308.542969 321.507812 304.421875 283.992188 302.285156 269.121094 C 301.964844 266.867188 303.492188 264.769531 305.734375 264.394531 C 311.5 263.421875 321.386719 260.644531 321.707031 253.042969 C 321.707031 253.042969 325.304688 243.847656 322.160156 242.289062 C 319.011719 240.730469 314.214844 252 295.816406 253.042969 C 277.417969 254.089844 271.28125 250.84375 267.695312 258.375 L 267.90625 270.203125 L 261.234375 259.570312 C 261.234375 259.570312 238.957031 262.441406 226.777344 284.835938 " fill-opacity="1" fill-rule="nonzero"/><path fill="#000000" d="M 227.375 284.816406 C 229.636719 288.378906 255.503906 328.023438 282.617188 324.429688 C 288.492188 323.648438 293.1875 320.988281 296.574219 316.515625 C 303.265625 307.675781 305.015625 291.753906 301.777344 269.191406 C 301.410156 266.644531 303.109375 264.3125 305.652344 263.882812 C 311.324219 262.925781 320.886719 260.242188 321.191406 253.019531 L 321.191406 252.933594 L 321.226562 252.855469 C 322.550781 249.46875 323.910156 243.730469 321.929688 242.75 C 321.113281 242.34375 319.871094 243.332031 318 244.828125 C 314.222656 247.835938 307.90625 252.871094 295.847656 253.554688 C 290.421875 253.867188 286.042969 253.800781 282.519531 253.75 C 274.117188 253.625 270.601562 253.574219 268.214844 258.488281 L 268.457031 272.046875 L 260.976562 260.132812 C 258.222656 260.601562 238.519531 264.609375 227.375 284.816406 Z M 279.152344 325.6875 C 268.078125 325.6875 255.84375 319.183594 243.519531 306.6875 C 233.234375 296.257812 226.40625 285.214844 226.339844 285.105469 L 226.179688 284.847656 L 226.324219 284.589844 C 238.492188 262.222656 260.941406 259.089844 261.167969 259.058594 L 261.496094 259.019531 L 267.359375 268.363281 L 267.179688 258.261719 L 267.230469 258.152344 C 269.90625 252.535156 274.125 252.597656 282.535156 252.71875 C 286.042969 252.769531 290.398438 252.835938 295.789062 252.527344 C 307.519531 251.863281 313.679688 246.953125 317.355469 244.019531 C 319.539062 242.277344 320.984375 241.132812 322.386719 241.828125 C 325.777344 243.507812 322.71875 251.847656 322.214844 253.152344 C 321.8125 261.03125 311.777344 263.894531 305.820312 264.902344 C 303.839844 265.234375 302.511719 267.054688 302.796875 269.042969 C 306.078125 291.890625 304.257812 308.070312 297.394531 317.136719 C 293.835938 321.835938 288.910156 324.632812 282.753906 325.449219 C 281.566406 325.605469 280.363281 325.6875 279.152344 325.6875 " fill-opacity="1" fill-rule="nonzero"/><path fill="#000000" d="M 305.007812 259.449219 C 304.789062 259.449219 304.585938 259.304688 304.515625 259.085938 C 304.429688 258.816406 304.582031 258.527344 304.851562 258.441406 C 312.554688 256.023438 318.246094 252.367188 322.253906 247.265625 C 322.429688 247.042969 322.753906 247.003906 322.976562 247.179688 C 323.203125 247.355469 323.242188 247.675781 323.066406 247.902344 C 318.925781 253.171875 313.066406 256.941406 305.160156 259.421875 C 305.109375 259.441406 305.058594 259.449219 305.007812 259.449219 " fill-opacity="1" fill-rule="nonzero"/><path fill="#000000" d="M 306.976562 262.289062 C 306.75 262.289062 306.542969 262.136719 306.480469 261.90625 C 306.40625 261.632812 306.566406 261.347656 306.84375 261.273438 C 311.917969 259.898438 316.566406 257.210938 320.292969 253.503906 C 320.496094 253.304688 320.820312 253.304688 321.023438 253.507812 C 321.222656 253.707031 321.222656 254.035156 321.019531 254.234375 C 317.167969 258.066406 312.355469 260.84375 307.113281 262.269531 C 307.066406 262.28125 307.023438 262.289062 306.976562 262.289062 " fill-opacity="1" fill-rule="nonzero"/><path fill="#000000" d="M 274.566406 305.21875 C 274.324219 305.21875 274.109375 305.046875 274.0625 304.796875 L 267.984375 272.160156 C 267.933594 271.878906 268.117188 271.613281 268.398438 271.558594 C 268.679688 271.507812 268.945312 271.691406 269 271.972656 L 275.074219 304.609375 C 275.125 304.886719 274.941406 305.15625 274.660156 305.210938 C 274.632812 305.214844 274.597656 305.21875 274.566406 305.21875 " fill-opacity="1" fill-rule="nonzero"/><path fill="#ffffff" d="M 226.003906 288.378906 C 226.003906 288.378906 241.453125 272.476562 262.457031 260.792969 C 262.457031 260.792969 238.183594 222.1875 209.578125 220.953125 L 226.003906 288.378906 " fill-opacity="1" fill-rule="nonzero"/><path fill="#000000" d="M 210.242188 221.503906 L 226.289062 287.367188 C 229.425781 284.269531 243.527344 270.828125 261.722656 260.613281 C 258.894531 256.3125 236.285156 223.1875 210.242188 221.503906 Z M 226.003906 288.894531 C 225.960938 288.894531 225.914062 288.886719 225.871094 288.875 C 225.6875 288.828125 225.546875 288.683594 225.503906 288.5 L 209.078125 221.074219 C 209.039062 220.917969 209.078125 220.75 209.179688 220.625 C 209.28125 220.5 209.441406 220.429688 209.601562 220.4375 C 224.542969 221.082031 238.246094 231.960938 247.113281 240.976562 C 256.683594 250.707031 262.828125 260.421875 262.890625 260.519531 C 262.964844 260.636719 262.988281 260.785156 262.953125 260.921875 C 262.917969 261.058594 262.828125 261.175781 262.703125 261.246094 C 242.007812 272.753906 226.527344 288.578125 226.375 288.738281 C 226.277344 288.839844 226.140625 288.894531 226.003906 288.894531 " fill-opacity="1" fill-rule="nonzero"/><path fill="#ffffff" d="M 134.855469 218.472656 C 135.613281 217.660156 194.21875 214.839844 209.578125 220.953125 L 218.996094 258.140625 L 142.597656 258.839844 L 134.855469 218.472656 " fill-opacity="1" fill-rule="nonzero"/><path fill="#000000" d="M 135.101562 218.921875 Z M 135.453125 218.84375 L 143.023438 258.316406 L 218.335938 257.632812 L 209.144531 221.335938 C 194.425781 215.742188 140.691406 217.988281 135.453125 218.84375 Z M 142.597656 259.351562 C 142.351562 259.351562 142.140625 259.175781 142.09375 258.933594 L 134.351562 218.570312 C 134.320312 218.40625 134.367188 218.242188 134.480469 218.121094 C 135.1875 217.359375 153.109375 216.636719 166.738281 216.601562 C 181.847656 216.566406 201.546875 217.203125 209.769531 220.472656 C 209.921875 220.53125 210.035156 220.664062 210.078125 220.824219 L 219.496094 258.019531 C 219.53125 258.171875 219.5 258.332031 219.402344 258.457031 C 219.304688 258.582031 219.15625 258.65625 219 258.65625 L 142.601562 259.351562 C 142.601562 259.351562 142.601562 259.351562 142.597656 259.351562 " fill-opacity="1" fill-rule="nonzero"/><path fill="#5479f7" d="M 108.925781 251.835938 C 108.925781 252.339844 103.691406 300.558594 101.75 318.398438 C 101.371094 321.882812 104.113281 324.921875 107.621094 324.902344 L 239.410156 324.136719 C 243.007812 324.113281 245.546875 320.597656 244.433594 317.175781 C 237.65625 296.390625 223.566406 239.96875 210.863281 220.601562 L 204.792969 219.296875 L 210.085938 240.390625 C 210.714844 242.890625 208.753906 245.292969 206.179688 245.175781 C 195.644531 244.699219 171.425781 243.867188 156.425781 245.445312 C 154.691406 245.625 153.160156 244.320312 153.0625 242.582031 C 152.675781 235.648438 151.507812 219.835938 148.851562 217.113281 L 144.691406 217.113281 C 144.691406 217.113281 157.34375 265.910156 129.726562 272.476562 C 110.710938 276.992188 108.925781 251.835938 108.925781 251.835938 " fill-opacity="1" fill-rule="nonzero"/><path fill="#ffffff" d="M 128.507812 301.523438 C 128.507812 301.523438 155.203125 335.203125 170.277344 341.90625 C 185.351562 348.605469 209.949219 320.546875 230.125 282.472656 C 230.125 282.472656 242.835938 279.734375 248.15625 278.859375 C 253.472656 277.988281 256.105469 275.332031 256.464844 273.480469 C 256.464844 273.480469 261.796875 270.953125 261.800781 268.328125 C 261.808594 265.703125 260.261719 266.050781 260.261719 266.050781 C 260.261719 266.050781 265.410156 264.402344 264.511719 258.996094 C 264.511719 258.996094 268.253906 257.398438 267.90625 254.851562 C 267.5625 252.300781 265.328125 251.957031 260.089844 254.449219 C 255.566406 256.597656 241.738281 256.835938 233.546875 254.820312 C 231.652344 254.351562 230.53125 252.402344 231.066406 250.53125 C 231.9375 247.484375 233.097656 243.019531 233.105469 240.875 C 233.113281 237.4375 232.351562 231.503906 225.132812 239.96875 C 217.910156 248.433594 183.035156 286.105469 176.675781 292.398438 L 166.078125 279.992188 C 166.078125 279.992188 133.855469 288.546875 128.507812 301.523438 " fill-opacity="1" fill-rule="nonzero"/><path fill="#000000" d="M 234.125 282.140625 C 233.882812 282.140625 233.671875 281.972656 233.621094 281.730469 C 233.5625 281.449219 233.738281 281.175781 234.019531 281.117188 C 238.589844 280.15625 244.742188 278.898438 248.070312 278.351562 C 253.316406 277.492188 255.660156 274.910156 255.957031 273.382812 C 255.988281 273.222656 256.097656 273.085938 256.246094 273.015625 C 257.644531 272.347656 261.28125 270.210938 261.285156 268.328125 C 261.285156 267.523438 261.125 266.941406 260.832031 266.691406 C 260.617188 266.511719 260.375 266.550781 260.363281 266.554688 C 260.097656 266.601562 259.832031 266.433594 259.765625 266.171875 C 259.703125 265.910156 259.847656 265.640625 260.105469 265.558594 C 260.296875 265.496094 264.816406 263.96875 264.003906 259.078125 C 263.964844 258.84375 264.089844 258.613281 264.308594 258.519531 C 264.34375 258.503906 267.683594 257.046875 267.398438 254.917969 C 267.296875 254.191406 267.035156 253.722656 266.59375 253.484375 C 265.578125 252.933594 263.464844 253.414062 260.308594 254.914062 C 255.667969 257.121094 241.59375 257.332031 233.421875 255.320312 C 232.371094 255.058594 231.496094 254.402344 230.953125 253.464844 C 230.40625 252.523438 230.273438 251.433594 230.570312 250.390625 C 231.867188 245.851562 232.585938 242.46875 232.589844 240.875 C 232.597656 238.191406 232.117188 236.535156 231.238281 236.210938 C 230.605469 235.976562 229.027344 236.199219 225.523438 240.304688 C 224.546875 241.453125 223.019531 243.179688 220.992188 245.441406 C 220.800781 245.652344 220.476562 245.671875 220.265625 245.480469 C 220.050781 245.292969 220.035156 244.964844 220.226562 244.753906 C 222.246094 242.496094 223.765625 240.773438 224.738281 239.632812 C 227.761719 236.089844 230.003906 234.65625 231.59375 235.242188 C 232.949219 235.746094 233.628906 237.640625 233.621094 240.875 C 233.613281 243.042969 232.496094 247.402344 231.5625 250.671875 C 231.339844 251.445312 231.441406 252.253906 231.84375 252.945312 C 232.246094 253.640625 232.894531 254.128906 233.667969 254.320312 C 241.671875 256.292969 255.382812 256.117188 259.867188 253.984375 C 263.433594 252.289062 265.726562 251.84375 267.082031 252.578125 C 267.824219 252.976562 268.273438 253.71875 268.417969 254.78125 C 268.746094 257.199219 266.074219 258.789062 265.074219 259.296875 C 265.535156 263.113281 263.117188 265.121094 261.589844 265.992188 C 262.074219 266.464844 262.316406 267.25 262.316406 268.328125 C 262.308594 270.964844 258.046875 273.269531 256.910156 273.835938 C 256.316406 275.957031 253.425781 278.519531 248.238281 279.367188 C 244.929688 279.914062 238.792969 281.167969 234.230469 282.128906 C 234.195312 282.132812 234.15625 282.140625 234.125 282.140625 " fill-opacity="1" fill-rule="nonzero"/><path fill="#000000" d="M 175.089844 343.421875 C 173.3125 343.421875 171.636719 343.074219 170.066406 342.375 C 164.878906 340.070312 157.808594 334.398438 149.050781 325.519531 C 148.851562 325.316406 148.851562 324.992188 149.054688 324.792969 C 149.257812 324.59375 149.585938 324.59375 149.785156 324.796875 C 158.453125 333.582031 165.417969 339.179688 170.488281 341.433594 C 180.421875 345.847656 193.253906 334.300781 202.269531 323.839844 C 202.453125 323.625 202.78125 323.601562 202.996094 323.785156 C 203.210938 323.972656 203.234375 324.296875 203.050781 324.511719 C 192.289062 337 182.75 343.421875 175.089844 343.421875 " fill-opacity="1" fill-rule="nonzero"/><path fill="#000000" d="M 248.800781 263.058594 C 247.203125 263.058594 245.609375 262.949219 244.03125 262.71875 C 243.75 262.675781 243.554688 262.417969 243.597656 262.132812 C 243.636719 261.851562 243.894531 261.65625 244.179688 261.695312 C 250.535156 262.625 257.230469 261.601562 263.023438 258.816406 C 263.277344 258.691406 263.585938 258.800781 263.710938 259.058594 C 263.832031 259.3125 263.722656 259.621094 263.46875 259.742188 C 258.929688 261.925781 253.855469 263.058594 248.800781 263.058594 " fill-opacity="1" fill-rule="nonzero"/><path fill="#000000" d="M 246.375 268.875 C 245.875 268.875 245.375 268.863281 244.875 268.847656 C 244.589844 268.832031 244.371094 268.59375 244.382812 268.308594 C 244.394531 268.023438 244.65625 267.800781 244.917969 267.816406 C 249.789062 268.015625 254.773438 267.203125 259.332031 265.464844 C 259.597656 265.363281 259.894531 265.492188 259.996094 265.761719 C 260.097656 266.023438 259.964844 266.324219 259.699219 266.425781 C 255.480469 268.039062 250.90625 268.875 246.375 268.875 " fill-opacity="1" fill-rule="nonzero"/><path fill="#000000" d="M 243.941406 275.628906 C 243.664062 275.628906 243.433594 275.410156 243.425781 275.128906 C 243.417969 274.847656 243.644531 274.605469 243.925781 274.601562 C 247.800781 274.488281 251.640625 273.828125 255.332031 272.640625 C 255.601562 272.554688 255.894531 272.699219 255.980469 272.972656 C 256.066406 273.242188 255.917969 273.53125 255.648438 273.621094 C 251.863281 274.839844 247.929688 275.515625 243.957031 275.628906 C 243.949219 275.628906 243.945312 275.628906 243.941406 275.628906 " fill-opacity="1" fill-rule="nonzero"/><path fill="#ffffff" d="M 143.648438 220.601562 L 142.597656 217.765625 C 142.597656 217.765625 115.019531 216.117188 107.792969 232.53125 C 100.566406 248.949219 101.71875 272.179688 128.507812 301.523438 C 128.507812 301.523438 156.9375 282.765625 166.078125 279.992188 L 143.648438 250.929688 L 143.648438 220.601562 " fill-opacity="1" fill-rule="nonzero"/><path fill="#000000" d="M 132.699219 303.339844 C 132.558594 303.339844 132.421875 303.285156 132.320312 303.175781 C 132.128906 302.96875 132.136719 302.640625 132.34375 302.449219 C 142.21875 293.226562 153.507812 285.820312 165.894531 280.4375 C 166.15625 280.324219 166.460938 280.445312 166.574219 280.703125 C 166.6875 280.964844 166.566406 281.269531 166.304688 281.382812 C 154.023438 286.71875 142.835938 294.058594 133.050781 303.199219 C 132.949219 303.292969 132.824219 303.339844 132.699219 303.339844 " fill-opacity="1" fill-rule="nonzero"/><path fill="#ffffff" d="M 176.339844 185.421875 L 164.214844 217.113281 C 164.214844 217.113281 181.929688 223.121094 188.824219 217.683594 L 195.472656 198.164062 L 176.339844 185.421875 " fill-opacity="1" fill-rule="nonzero"/><path fill="#000000" d="M 164.890625 216.789062 C 167.800781 217.699219 182.359375 221.921875 188.386719 217.371094 L 194.859375 198.375 L 176.59375 186.207031 Z M 180.050781 220.484375 C 172.675781 220.484375 164.546875 217.769531 164.046875 217.601562 C 163.914062 217.554688 163.808594 217.460938 163.746094 217.332031 C 163.6875 217.207031 163.683594 217.058594 163.734375 216.929688 L 175.859375 185.238281 C 175.917969 185.09375 176.035156 184.980469 176.183594 184.933594 C 176.335938 184.886719 176.496094 184.910156 176.628906 184.996094 L 195.757812 197.734375 C 195.953125 197.867188 196.035156 198.113281 195.960938 198.332031 L 189.3125 217.851562 C 189.28125 217.945312 189.222656 218.027344 189.144531 218.089844 C 186.878906 219.875 183.550781 220.484375 180.050781 220.484375 " fill-opacity="1" fill-rule="nonzero"/><path fill="#ffffff" d="M 158.5625 217.335938 L 164.214844 208.359375 C 164.214844 208.359375 173.0625 212.6875 182.28125 212.847656 L 184.929688 216.304688 L 186.679688 212.847656 L 191.722656 212.847656 L 193.71875 219.960938 L 190.199219 228.300781 L 184.929688 222.0625 L 180.183594 229.773438 C 180.183594 229.773438 164 225.488281 158.5625 217.335938 " fill-opacity="1" fill-rule="nonzero"/><path fill="#000000" d="M 159.179688 217.324219 C 164.160156 224.382812 177.554688 228.484375 179.949219 229.171875 L 184.492188 221.796875 C 184.578125 221.652344 184.726562 221.5625 184.890625 221.550781 C 185.058594 221.539062 185.21875 221.605469 185.324219 221.730469 L 190.050781 227.324219 L 193.175781 219.929688 L 191.332031 213.363281 L 186.996094 213.363281 L 185.390625 216.539062 C 185.3125 216.695312 185.15625 216.800781 184.976562 216.816406 C 184.796875 216.835938 184.628906 216.757812 184.523438 216.617188 L 182.023438 213.359375 C 174.019531 213.15625 166.269531 209.859375 164.40625 209.019531 Z M 180.183594 230.285156 C 180.140625 230.285156 180.09375 230.28125 180.050781 230.269531 C 179.382812 230.09375 163.617188 225.839844 158.136719 217.625 C 158.023438 217.453125 158.019531 217.234375 158.128906 217.0625 L 163.777344 208.085938 C 163.917969 207.863281 164.203125 207.78125 164.441406 207.898438 C 164.527344 207.9375 173.296875 212.179688 182.289062 212.332031 C 182.445312 212.335938 182.59375 212.410156 182.691406 212.535156 L 184.839844 215.34375 L 186.21875 212.617188 C 186.308594 212.441406 186.484375 212.332031 186.679688 212.332031 L 191.722656 212.332031 C 191.957031 212.332031 192.15625 212.488281 192.21875 212.710938 L 194.21875 219.824219 C 194.25 219.933594 194.242188 220.054688 194.195312 220.160156 L 190.675781 228.496094 C 190.605469 228.664062 190.453125 228.78125 190.277344 228.808594 C 190.101562 228.835938 189.921875 228.765625 189.808594 228.632812 L 184.996094 222.941406 L 180.621094 230.039062 C 180.527344 230.195312 180.359375 230.285156 180.183594 230.285156 " fill-opacity="1" fill-rule="nonzero"/><path fill="#ffffff" d="M 203.917969 179.664062 C 204.523438 183.527344 204.914062 187.511719 204.039062 191.320312 C 203.164062 195.132812 200.835938 198.789062 197.261719 200.382812 C 194.292969 201.707031 190.832031 201.46875 187.707031 200.574219 C 180.988281 198.644531 175.210938 193.671875 172.304688 187.3125 C 169.714844 187.789062 166.832031 186.765625 165.378906 184.570312 C 163.925781 182.378906 164.214844 179.105469 166.226562 177.410156 C 168.238281 175.71875 171.761719 176.160156 173.070312 178.441406 C 174.800781 177.597656 174.6875 175.175781 174.773438 173.257812 C 174.980469 168.453125 178.113281 164.109375 182.144531 161.480469 C 186.175781 158.851562 191.003906 157.726562 195.785156 157.1875 C 198.011719 156.933594 200.179688 163.707031 200.804688 165.828125 C 202.144531 170.367188 203.183594 174.992188 203.917969 179.664062 " fill-opacity="1" fill-rule="nonzero"/><path fill="#000000" d="M 172.304688 186.800781 C 172.503906 186.800781 172.6875 186.914062 172.769531 187.101562 C 175.625 193.335938 181.261719 198.1875 187.847656 200.078125 C 190.300781 200.78125 193.886719 201.324219 197.054688 199.910156 C 200.183594 198.515625 202.609375 195.257812 203.539062 191.207031 C 204.40625 187.410156 203.988281 183.453125 203.410156 179.742188 C 202.683594 175.113281 201.640625 170.480469 200.308594 165.976562 C 198.808594 160.890625 197.003906 157.5625 195.84375 157.699219 C 190.097656 158.351562 185.832031 159.6875 182.425781 161.910156 C 178.207031 164.660156 175.472656 169.019531 175.285156 173.28125 C 175.277344 173.472656 175.269531 173.667969 175.265625 173.863281 C 175.207031 175.710938 175.132812 178.011719 173.296875 178.902344 C 173.054688 179.019531 172.761719 178.929688 172.625 178.695312 C 172.113281 177.804688 171.152344 177.175781 169.992188 176.972656 C 168.726562 176.746094 167.445312 177.0625 166.558594 177.804688 C 164.800781 179.28125 164.457031 182.25 165.808594 184.285156 C 167.09375 186.226562 169.726562 187.261719 172.210938 186.808594 C 172.242188 186.800781 172.273438 186.800781 172.304688 186.800781 Z M 192.597656 201.824219 C 190.734375 201.824219 188.972656 201.46875 187.566406 201.066406 C 180.816406 199.128906 175.023438 194.214844 172 187.882812 C 169.238281 188.234375 166.386719 187.027344 164.949219 184.855469 C 163.296875 182.363281 163.722656 178.847656 165.894531 177.019531 C 167.011719 176.078125 168.609375 175.679688 170.171875 175.953125 C 171.4375 176.179688 172.519531 176.816406 173.21875 177.734375 C 174.132812 176.964844 174.183594 175.375 174.234375 173.832031 C 174.242188 173.628906 174.25 173.429688 174.257812 173.238281 C 174.460938 168.578125 177.300781 164.023438 181.863281 161.046875 C 185.410156 158.734375 189.816406 157.347656 195.726562 156.675781 C 198.050781 156.410156 200.042969 161.425781 201.296875 165.683594 C 202.640625 170.230469 203.691406 174.90625 204.425781 179.585938 C 205.023438 183.398438 205.449219 187.472656 204.542969 191.4375 C 203.539062 195.804688 200.898438 199.324219 197.472656 200.851562 C 195.878906 201.5625 194.199219 201.824219 192.597656 201.824219 " fill-opacity="1" fill-rule="nonzero"/><path fill="#000000" d="M 171.6875 184.25 C 170.910156 183.300781 169.625 182.785156 168.402344 182.933594 L 168.277344 181.914062 C 169.835938 181.71875 171.488281 182.382812 172.484375 183.601562 L 171.6875 184.25 " fill-opacity="1" fill-rule="nonzero"/><path fill="#ffffff" d="M 502.820312 67.136719 L 478.800781 91.160156 L 478.800781 151.191406 L 585.679688 151.191406 L 585.679688 67.136719 L 502.820312 67.136719 " fill-opacity="1" fill-rule="nonzero"/><g clip-path="url(#04fde4dc06)"><path fill="#000000" d="M 479.316406 150.675781 L 585.164062 150.675781 L 585.164062 67.652344 L 503.035156 67.652344 L 479.316406 91.371094 Z M 586.191406 151.703125 L 478.285156 151.703125 L 478.285156 90.945312 L 502.609375 66.621094 L 586.191406 66.621094 L 586.191406 151.703125 " fill-opacity="1" fill-rule="nonzero"/></g><path fill="#000000" d="M 503.335938 91.675781 L 478.800781 91.675781 L 478.800781 90.644531 L 502.304688 90.644531 L 502.304688 67.136719 L 503.335938 67.136719 L 503.335938 91.675781 " fill-opacity="1" fill-rule="nonzero"/><path fill="#ffffff" d="M 582.148438 128.828125 L 582.148438 123.734375 C 582.148438 121.136719 580.042969 119.03125 577.449219 119.03125 L 549.597656 119.03125 C 547 119.03125 544.894531 121.136719 544.894531 123.734375 L 544.894531 128.828125 L 469.214844 128.828125 L 469.214844 208.074219 C 469.214844 212.949219 473.171875 216.90625 478.050781 216.90625 L 595.265625 216.90625 L 595.265625 128.828125 L 582.148438 128.828125 " fill-opacity="1" fill-rule="nonzero"/><path fill="#000000" d="M 469.730469 129.34375 L 469.730469 208.074219 C 469.730469 212.65625 473.460938 216.390625 478.050781 216.390625 L 594.75 216.390625 L 594.75 129.34375 L 582.148438 129.34375 C 581.863281 129.34375 581.632812 129.113281 581.632812 128.828125 L 581.632812 123.734375 C 581.632812 121.425781 579.753906 119.546875 577.449219 119.546875 L 549.597656 119.546875 C 547.285156 119.546875 545.410156 121.425781 545.410156 123.734375 L 545.410156 128.828125 C 545.410156 129.113281 545.179688 129.34375 544.894531 129.34375 Z M 595.265625 217.421875 L 478.050781 217.421875 C 472.894531 217.421875 468.699219 213.226562 468.699219 208.074219 L 468.699219 128.828125 C 468.699219 128.542969 468.929688 128.3125 469.214844 128.3125 L 544.378906 128.3125 L 544.378906 123.734375 C 544.378906 120.855469 546.71875 118.515625 549.597656 118.515625 L 577.449219 118.515625 C 580.324219 118.515625 582.664062 120.855469 582.664062 123.734375 L 582.664062 128.3125 L 595.265625 128.3125 C 595.550781 128.3125 595.777344 128.542969 595.777344 128.828125 L 595.777344 216.90625 C 595.777344 217.191406 595.550781 217.421875 595.265625 217.421875 " fill-opacity="1" fill-rule="nonzero"/><path fill="#000000" d="M 603.585938 191.886719 L 597.960938 191.886719 L 597.960938 190.859375 L 602.554688 190.859375 L 602.554688 82.144531 L 587.882812 82.144531 L 587.882812 81.113281 L 603.585938 81.113281 L 603.585938 191.886719 " fill-opacity="1" fill-rule="nonzero"/><path fill="#ffffff" d="M 286.789062 201.25 C 276.007812 201.25 267.265625 192.507812 267.265625 181.726562 C 267.265625 170.941406 276.007812 162.199219 286.789062 162.199219 C 297.570312 162.199219 306.3125 170.941406 306.3125 181.726562 C 306.3125 192.507812 297.570312 201.25 286.789062 201.25 Z M 329.957031 171.210938 C 329.527344 171.210938 329.101562 171.246094 328.683594 171.296875 C 327.636719 167.074219 325.972656 163.097656 323.785156 159.472656 C 324.117188 159.214844 324.445312 158.9375 324.75 158.628906 C 328.855469 154.523438 328.855469 147.867188 324.75 143.761719 C 320.644531 139.65625 313.988281 139.65625 309.882812 143.761719 C 309.574219 144.066406 309.296875 144.394531 309.039062 144.726562 C 305.414062 142.539062 301.4375 140.875 297.214844 139.828125 C 297.269531 139.410156 297.300781 138.984375 297.300781 138.550781 C 297.300781 132.746094 292.597656 128.039062 286.789062 128.039062 C 280.984375 128.039062 276.273438 132.746094 276.273438 138.550781 C 276.273438 138.984375 276.3125 139.410156 276.363281 139.828125 C 272.140625 140.875 268.164062 142.539062 264.539062 144.726562 C 264.277344 144.394531 264 144.066406 263.695312 143.761719 C 259.589844 139.65625 252.933594 139.65625 248.828125 143.761719 C 244.722656 147.867188 244.722656 154.523438 248.828125 158.628906 C 249.136719 158.9375 249.457031 159.214844 249.789062 159.472656 C 247.605469 163.097656 245.941406 167.074219 244.894531 171.296875 C 244.472656 171.246094 244.050781 171.210938 243.621094 171.210938 C 237.8125 171.210938 233.105469 175.917969 233.105469 181.726562 C 233.105469 187.53125 237.8125 192.238281 243.621094 192.238281 C 244.050781 192.238281 244.472656 192.203125 244.894531 192.152344 C 245.941406 196.375 247.605469 200.351562 249.789062 203.980469 C 249.457031 204.238281 249.136719 204.511719 248.828125 204.820312 C 244.722656 208.925781 244.722656 215.582031 248.828125 219.6875 C 252.933594 223.796875 259.589844 223.796875 263.695312 219.6875 C 264 219.382812 264.277344 219.058594 264.539062 218.726562 C 268.164062 220.914062 272.140625 222.578125 276.363281 223.625 C 276.3125 224.042969 276.273438 224.46875 276.273438 224.898438 C 276.273438 230.707031 280.984375 235.414062 286.789062 235.414062 C 292.597656 235.414062 297.300781 230.707031 297.300781 224.898438 C 297.300781 224.46875 297.269531 224.042969 297.214844 223.625 C 301.4375 222.578125 305.414062 220.914062 309.039062 218.726562 C 309.296875 219.058594 309.574219 219.382812 309.882812 219.6875 C 313.988281 223.796875 320.644531 223.796875 324.75 219.6875 C 328.855469 215.582031 328.855469 208.925781 324.75 204.820312 C 324.445312 204.511719 324.117188 204.238281 323.785156 203.980469 C 325.972656 200.351562 327.636719 196.375 328.683594 192.152344 C 329.101562 192.203125 329.527344 192.238281 329.957031 192.238281 C 335.765625 192.238281 340.472656 187.53125 340.472656 181.726562 C 340.472656 175.917969 335.765625 171.210938 329.957031 171.210938 " fill-opacity="1" fill-rule="nonzero"/><path fill="#000000" d="M 286.789062 162.714844 C 276.308594 162.714844 267.78125 171.242188 267.78125 181.726562 C 267.78125 192.207031 276.308594 200.734375 286.789062 200.734375 C 297.269531 200.734375 305.796875 192.207031 305.796875 181.726562 C 305.796875 171.242188 297.269531 162.714844 286.789062 162.714844 Z M 286.789062 201.765625 C 275.738281 201.765625 266.75 192.777344 266.75 181.726562 C 266.75 170.675781 275.738281 161.683594 286.789062 161.683594 C 297.839844 161.683594 306.828125 170.675781 306.828125 181.726562 C 306.828125 192.777344 297.839844 201.765625 286.789062 201.765625 Z M 264.539062 218.210938 C 264.628906 218.210938 264.722656 218.234375 264.804688 218.285156 C 268.433594 220.472656 272.363281 222.101562 276.484375 223.121094 C 276.738281 223.1875 276.902344 223.425781 276.871094 223.683594 C 276.816406 224.140625 276.789062 224.527344 276.789062 224.898438 C 276.789062 230.410156 281.273438 234.894531 286.789062 234.894531 C 292.300781 234.894531 296.785156 230.410156 296.785156 224.898438 C 296.785156 224.527344 296.761719 224.140625 296.707031 223.683594 C 296.671875 223.425781 296.839844 223.1875 297.09375 223.121094 C 301.214844 222.101562 305.144531 220.472656 308.773438 218.285156 C 309 218.148438 309.285156 218.203125 309.445312 218.40625 C 309.722656 218.765625 309.984375 219.0625 310.246094 219.324219 C 314.144531 223.222656 320.484375 223.222656 324.386719 219.324219 C 328.28125 215.425781 328.28125 209.082031 324.386719 205.183594 C 324.125 204.925781 323.824219 204.660156 323.46875 204.382812 C 323.261719 204.222656 323.210938 203.933594 323.34375 203.710938 C 325.53125 200.082031 327.164062 196.152344 328.183594 192.027344 C 328.246094 191.777344 328.492188 191.613281 328.746094 191.640625 C 329.195312 191.695312 329.59375 191.722656 329.957031 191.722656 C 335.472656 191.722656 339.957031 187.238281 339.957031 181.726562 C 339.957031 176.210938 335.472656 171.726562 329.957031 171.726562 C 329.59375 171.726562 329.195312 171.753906 328.746094 171.808594 C 328.492188 171.839844 328.246094 171.675781 328.183594 171.421875 C 327.164062 167.300781 325.53125 163.371094 323.34375 159.738281 C 323.210938 159.515625 323.261719 159.226562 323.46875 159.070312 C 323.832031 158.78125 324.125 158.53125 324.386719 158.265625 C 328.28125 154.367188 328.28125 148.023438 324.386719 144.125 C 320.488281 140.226562 314.144531 140.226562 310.246094 144.125 C 309.984375 144.386719 309.722656 144.6875 309.445312 145.042969 C 309.285156 145.246094 308.996094 145.300781 308.773438 145.164062 C 305.144531 142.976562 301.214844 141.351562 297.09375 140.328125 C 296.839844 140.265625 296.671875 140.023438 296.707031 139.765625 C 296.761719 139.308594 296.785156 138.921875 296.785156 138.550781 C 296.785156 133.039062 292.300781 128.554688 286.789062 128.554688 C 281.273438 128.554688 276.789062 133.039062 276.789062 138.550781 C 276.789062 138.921875 276.816406 139.308594 276.871094 139.765625 C 276.902344 140.023438 276.738281 140.265625 276.484375 140.328125 C 272.363281 141.351562 268.433594 142.976562 264.804688 145.164062 C 264.578125 145.300781 264.292969 145.246094 264.132812 145.042969 C 263.855469 144.6875 263.59375 144.386719 263.332031 144.125 C 259.433594 140.226562 253.09375 140.226562 249.195312 144.125 C 245.292969 148.023438 245.292969 154.367188 249.195312 158.265625 C 249.453125 158.527344 249.753906 158.789062 250.109375 159.070312 C 250.3125 159.226562 250.367188 159.515625 250.234375 159.738281 C 248.042969 163.371094 246.414062 167.300781 245.394531 171.421875 C 245.332031 171.675781 245.089844 171.839844 244.832031 171.808594 C 244.382812 171.753906 243.984375 171.726562 243.617188 171.726562 C 238.105469 171.726562 233.621094 176.210938 233.621094 181.726562 C 233.621094 187.238281 238.105469 191.722656 243.617188 191.722656 C 243.984375 191.722656 244.382812 191.695312 244.832031 191.640625 C 245.089844 191.613281 245.332031 191.777344 245.394531 192.027344 C 246.417969 196.152344 248.046875 200.082031 250.234375 203.710938 C 250.367188 203.933594 250.3125 204.222656 250.109375 204.382812 C 249.753906 204.660156 249.457031 204.921875 249.195312 205.183594 C 245.292969 209.082031 245.292969 215.425781 249.195312 219.324219 C 253.09375 223.222656 259.433594 223.222656 263.332031 219.324219 C 263.59375 219.0625 263.855469 218.765625 264.132812 218.40625 C 264.234375 218.277344 264.386719 218.210938 264.539062 218.210938 Z M 286.789062 235.925781 C 280.710938 235.925781 275.761719 230.980469 275.761719 224.898438 C 275.761719 224.621094 275.773438 224.328125 275.800781 224.011719 C 271.882812 223 268.140625 221.445312 264.660156 219.394531 C 264.457031 219.636719 264.257812 219.851562 264.058594 220.050781 C 259.761719 224.351562 252.765625 224.351562 248.464844 220.050781 C 244.164062 215.753906 244.164062 208.757812 248.464844 204.457031 C 248.664062 204.257812 248.878906 204.058594 249.121094 203.859375 C 247.070312 200.378906 245.519531 196.632812 244.503906 192.710938 C 244.191406 192.742188 243.898438 192.753906 243.617188 192.753906 C 237.539062 192.753906 232.589844 187.804688 232.589844 181.726562 C 232.589844 175.644531 237.539062 170.695312 243.617188 170.695312 C 243.898438 170.695312 244.191406 170.707031 244.503906 170.738281 C 245.519531 166.820312 247.070312 163.074219 249.121094 159.59375 C 248.878906 159.390625 248.660156 159.191406 248.464844 158.996094 C 244.164062 154.695312 244.164062 147.699219 248.464844 143.398438 C 252.765625 139.097656 259.761719 139.097656 264.058594 143.398438 C 264.257812 143.597656 264.457031 143.8125 264.660156 144.054688 C 268.140625 142.003906 271.882812 140.453125 275.800781 139.4375 C 275.773438 139.125 275.761719 138.832031 275.761719 138.550781 C 275.761719 132.46875 280.710938 127.523438 286.789062 127.523438 C 292.871094 127.523438 297.816406 132.46875 297.816406 138.550781 C 297.816406 138.832031 297.804688 139.125 297.777344 139.4375 C 301.695312 140.453125 305.4375 142.003906 308.917969 144.054688 C 309.121094 143.8125 309.320312 143.597656 309.515625 143.398438 C 313.816406 139.097656 320.8125 139.097656 325.113281 143.398438 C 329.414062 147.699219 329.414062 154.695312 325.113281 158.996094 C 324.917969 159.191406 324.699219 159.390625 324.457031 159.59375 C 326.507812 163.074219 328.058594 166.820312 329.074219 170.738281 C 329.386719 170.707031 329.679688 170.695312 329.957031 170.695312 C 336.042969 170.695312 340.988281 175.644531 340.988281 181.726562 C 340.988281 187.804688 336.042969 192.753906 329.957031 192.753906 C 329.679688 192.753906 329.386719 192.742188 329.074219 192.710938 C 328.058594 196.632812 326.507812 200.375 324.457031 203.859375 C 324.699219 204.058594 324.914062 204.257812 325.113281 204.457031 C 329.414062 208.757812 329.414062 215.753906 325.113281 220.050781 C 320.8125 224.351562 313.816406 224.351562 309.515625 220.050781 C 309.320312 219.851562 309.121094 219.636719 308.917969 219.394531 C 305.4375 221.445312 301.691406 223 297.777344 224.011719 C 297.804688 224.328125 297.816406 224.621094 297.816406 224.898438 C 297.816406 230.980469 292.871094 235.925781 286.789062 235.925781 " fill-opacity="1" fill-rule="nonzero"/><path fill="#5479f7" d="M 463.527344 384.320312 C 475.09375 396.835938 485.296875 409.359375 485.296875 409.359375 C 485.296875 409.359375 513.910156 348.582031 519.414062 342.363281 C 531.5625 328.640625 538.050781 329.027344 594.128906 330.722656 C 650.203125 332.417969 681.515625 328.109375 696.597656 368.507812 C 711.675781 408.90625 733.078125 453.832031 704.199219 472.265625 C 704.199219 472.265625 693.535156 478.40625 682.058594 478.082031 L 553.808594 478.082031 L 544.132812 436.710938 C 544.132812 436.710938 522.941406 467.140625 494.03125 468.355469 C 469.519531 469.378906 444.867188 433.15625 432.113281 409.488281 C 450.808594 402.894531 459.519531 392.132812 463.527344 384.320312 " fill-opacity="1" fill-rule="nonzero"/><path fill="#ffffff" d="M 376.71875 365.601562 C 376.71875 365.601562 374.136719 362.855469 374.949219 360.335938 C 375.765625 357.816406 378.214844 357.453125 382.144531 359.308594 C 382.144531 359.308594 379.917969 355.828125 383.933594 354.925781 C 387.953125 354.019531 393.324219 359.457031 401.972656 361.246094 C 410.621094 363.039062 413.660156 363.617188 413.660156 363.617188 C 413.660156 363.617188 411.851562 360.039062 406.828125 356.929688 C 401.804688 353.820312 402.484375 349.523438 404.847656 347.917969 C 406.867188 346.554688 410.515625 348.0625 413.660156 350.496094 C 417.789062 353.6875 428.09375 356.316406 436.433594 360.082031 C 442.777344 362.941406 453.648438 373.625 463.527344 384.320312 C 459.519531 392.132812 450.808594 402.894531 432.113281 409.488281 C 429.824219 405.242188 427.917969 401.398438 426.46875 398.246094 C 426.46875 398.246094 422.507812 394.769531 412.65625 393.402344 C 402.808594 392.03125 389.839844 391.03125 382.328125 384.972656 C 374.8125 378.917969 374.0625 374.238281 376.382812 371.421875 C 376.382812 371.421875 373.675781 368.460938 376.71875 365.601562 " fill-opacity="1" fill-rule="nonzero"/><path fill="#000000" d="M 432.113281 410.003906 C 431.929688 410.003906 431.753906 409.902344 431.660156 409.730469 C 429.570312 405.855469 427.632812 402 426.046875 398.570312 C 425.449219 398.097656 421.402344 395.136719 412.585938 393.910156 C 411.421875 393.75 410.214844 393.589844 408.976562 393.433594 C 399.492188 392.199219 388.742188 390.804688 382.003906 385.378906 C 377.496094 381.742188 375.050781 378.347656 374.738281 375.289062 C 374.589844 373.871094 374.9375 372.539062 375.730469 371.421875 C 375.105469 370.527344 373.757812 368.039062 376.023438 365.578125 C 375.308594 364.691406 373.738281 362.402344 374.460938 360.175781 C 374.816406 359.082031 375.457031 358.324219 376.367188 357.933594 C 377.546875 357.421875 379.160156 357.554688 381.167969 358.324219 C 380.996094 357.71875 380.921875 356.96875 381.210938 356.261719 C 381.589844 355.347656 382.46875 354.726562 383.824219 354.421875 C 386.078125 353.914062 388.578125 355.171875 391.742188 356.765625 C 394.65625 358.230469 397.960938 359.890625 402.078125 360.742188 C 407.742188 361.917969 411.015625 362.574219 412.589844 362.882812 C 411.710938 361.636719 409.832031 359.394531 406.554688 357.367188 C 403.117188 355.238281 402.558594 352.789062 402.53125 351.515625 C 402.5 349.878906 403.257812 348.375 404.5625 347.492188 C 406.945312 345.878906 410.988281 347.773438 413.976562 350.085938 C 416.402344 351.964844 421.199219 353.707031 426.273438 355.550781 C 429.738281 356.8125 433.320312 358.113281 436.644531 359.609375 C 442.050781 362.046875 451.222656 370.242188 463.90625 383.96875 C 464.097656 384.179688 464.085938 384.503906 463.878906 384.695312 C 463.667969 384.886719 463.34375 384.875 463.148438 384.667969 C 450.738281 371.234375 441.429688 362.898438 436.222656 360.546875 C 432.9375 359.066406 429.367188 357.773438 425.921875 356.519531 C 420.769531 354.648438 415.902344 352.878906 413.34375 350.902344 C 409.949219 348.273438 406.730469 347.269531 405.136719 348.347656 C 404.125 349.03125 403.535156 350.210938 403.5625 351.496094 C 403.601562 353.332031 404.855469 355.101562 407.097656 356.492188 C 412.1875 359.640625 414.042969 363.234375 414.117188 363.386719 C 414.207031 363.5625 414.1875 363.769531 414.070312 363.925781 C 413.953125 364.082031 413.753906 364.160156 413.5625 364.121094 C 413.53125 364.117188 410.421875 363.523438 401.867188 361.753906 C 397.621094 360.871094 394.105469 359.101562 391.28125 357.683594 C 388.296875 356.183594 385.941406 355.003906 384.046875 355.425781 C 383.039062 355.652344 382.40625 356.066406 382.164062 356.652344 C 381.742188 357.675781 382.574219 359.015625 382.578125 359.027344 C 382.703125 359.222656 382.683594 359.472656 382.53125 359.648438 C 382.382812 359.820312 382.132812 359.867188 381.929688 359.773438 C 379.667969 358.707031 377.882812 358.398438 376.777344 358.878906 C 376.140625 359.152344 375.703125 359.683594 375.441406 360.496094 C 374.730469 362.691406 377.070312 365.222656 377.09375 365.25 C 377.289062 365.457031 377.28125 365.78125 377.074219 365.976562 C 374.429688 368.460938 376.664062 370.964844 376.757812 371.070312 C 376.933594 371.261719 376.941406 371.550781 376.777344 371.746094 C 375.972656 372.730469 375.628906 373.882812 375.761719 375.183594 C 376.042969 377.921875 378.421875 381.167969 382.648438 384.574219 C 389.160156 389.824219 399.761719 391.199219 409.109375 392.410156 C 410.351562 392.570312 411.5625 392.726562 412.726562 392.890625 C 422.617188 394.265625 426.640625 397.714844 426.808594 397.859375 C 426.859375 397.90625 426.90625 397.964844 426.933594 398.03125 C 428.519531 401.46875 430.46875 405.347656 432.566406 409.242188 C 432.703125 409.492188 432.609375 409.804688 432.355469 409.9375 C 432.28125 409.980469 432.195312 410.003906 432.113281 410.003906 " fill-opacity="1" fill-rule="nonzero"/><path fill="#000000" d="M 403.425781 380.175781 C 397.742188 380.175781 392.066406 378.640625 387.175781 375.746094 C 386.582031 375.390625 386 375.019531 385.414062 374.648438 C 384.433594 374.019531 383.414062 373.371094 382.371094 372.84375 C 380.492188 371.898438 378.761719 371.492188 377.21875 371.644531 C 376.929688 371.671875 376.683594 371.464844 376.65625 371.179688 C 376.628906 370.898438 376.835938 370.648438 377.117188 370.621094 C 378.859375 370.449219 380.777344 370.890625 382.832031 371.925781 C 383.925781 372.476562 384.964844 373.136719 385.96875 373.777344 C 386.542969 374.144531 387.117188 374.511719 387.703125 374.855469 C 393.214844 378.125 399.769531 379.605469 406.152344 379.023438 C 406.4375 378.996094 406.683594 379.207031 406.710938 379.488281 C 406.734375 379.773438 406.527344 380.023438 406.246094 380.046875 C 405.304688 380.132812 404.363281 380.175781 403.425781 380.175781 " fill-opacity="1" fill-rule="nonzero"/><path fill="#000000" d="M 406.976562 374.257812 C 406.960938 374.257812 406.945312 374.257812 406.929688 374.257812 C 401.183594 373.765625 395.644531 372.234375 390.460938 369.703125 C 389.792969 369.375 389.128906 369.03125 388.46875 368.6875 C 387.046875 367.949219 385.578125 367.1875 384.070312 366.621094 C 381.574219 365.679688 379.316406 365.4375 377.367188 365.898438 C 377.09375 365.964844 376.816406 365.792969 376.75 365.515625 C 376.683594 365.238281 376.855469 364.960938 377.132812 364.894531 C 379.28125 364.386719 381.738281 364.644531 384.433594 365.65625 C 386 366.246094 387.496094 367.023438 388.941406 367.773438 C 389.597656 368.109375 390.253906 368.453125 390.914062 368.777344 C 395.980469 371.253906 401.398438 372.75 407.019531 373.230469 C 407.300781 373.253906 407.511719 373.503906 407.488281 373.789062 C 407.464844 374.054688 407.242188 374.257812 406.976562 374.257812 " fill-opacity="1" fill-rule="nonzero"/><path fill="#000000" d="M 407.953125 370.175781 C 407.925781 370.175781 407.898438 370.171875 407.871094 370.167969 C 398.980469 368.71875 390.289062 365.367188 382.734375 360.464844 C 382.496094 360.3125 382.429688 359.992188 382.582031 359.75 C 382.738281 359.515625 383.058594 359.449219 383.296875 359.601562 C 390.730469 364.425781 399.285156 367.726562 408.035156 369.152344 C 408.316406 369.195312 408.507812 369.460938 408.460938 369.742188 C 408.421875 369.992188 408.203125 370.175781 407.953125 370.175781 " fill-opacity="1" fill-rule="nonzero"/><path fill="#000000" d="M 670.574219 476.226562 C 670.507812 476.226562 670.445312 476.214844 670.378906 476.1875 C 651.777344 468.609375 635.714844 455.140625 625.15625 438.269531 C 625.007812 438.03125 625.082031 437.710938 625.324219 437.5625 C 625.5625 437.410156 625.878906 437.484375 626.03125 437.726562 C 636.472656 454.414062 652.363281 467.734375 670.769531 475.234375 C 671.03125 475.34375 671.15625 475.640625 671.050781 475.902344 C 670.96875 476.105469 670.777344 476.226562 670.574219 476.226562 " fill-opacity="1" fill-rule="nonzero"/><path fill="#000000" d="M 688.972656 432.335938 C 688.816406 432.335938 688.660156 432.261719 688.558594 432.125 C 681.226562 422.074219 673.21875 412.359375 664.753906 403.242188 C 664.5625 403.035156 664.574219 402.707031 664.78125 402.515625 C 664.988281 402.320312 665.316406 402.332031 665.507812 402.539062 C 674 411.6875 682.035156 421.433594 689.390625 431.515625 C 689.558594 431.746094 689.507812 432.066406 689.277344 432.234375 C 689.1875 432.300781 689.078125 432.335938 688.972656 432.335938 " fill-opacity="1" fill-rule="nonzero"/><path fill="#000000" d="M 500.648438 428.742188 C 500.5 428.742188 500.347656 428.675781 500.246094 428.550781 L 485.695312 410.386719 C 485.519531 410.164062 485.554688 409.839844 485.777344 409.664062 C 486 409.484375 486.324219 409.523438 486.5 409.742188 L 501.050781 427.90625 C 501.226562 428.128906 501.195312 428.449219 500.972656 428.628906 C 500.875 428.707031 500.761719 428.742188 500.648438 428.742188 " fill-opacity="1" fill-rule="nonzero"/><path fill="#000000" d="M 543.84375 436.207031 C 543.621094 436.207031 543.414062 436.0625 543.347656 435.835938 L 528.464844 384.6875 C 528.386719 384.414062 528.542969 384.128906 528.8125 384.050781 C 529.085938 383.96875 529.375 384.125 529.453125 384.402344 L 544.335938 435.546875 C 544.414062 435.820312 544.257812 436.109375 543.988281 436.1875 C 543.9375 436.199219 543.886719 436.207031 543.84375 436.207031 " fill-opacity="1" fill-rule="nonzero"/><path fill="#ffffff" d="M 663.613281 401.527344 C 663.613281 401.527344 651.070312 432.867188 624.304688 435.609375 L 617.832031 427.527344 C 614.285156 423.105469 609.019531 420.417969 603.359375 420.121094 C 598.984375 419.886719 593.855469 419.277344 590.304688 417.792969 C 582.914062 414.703125 584.539062 410.691406 600.988281 412.351562 C 600.988281 412.351562 585.894531 406.785156 582.824219 405.453125 C 579.753906 404.125 576.582031 395.636719 590.265625 399.164062 C 590.265625 399.164062 581.554688 395.496094 580.15625 393.085938 C 578.753906 390.679688 580.230469 387.167969 591.976562 390.144531 C 591.976562 390.144531 581.941406 387.855469 581.570312 384.710938 C 581.199219 381.566406 585.726562 378.871094 605.570312 384.542969 C 620.351562 388.769531 622.398438 390.34375 621.664062 385.683594 C 620.863281 380.582031 605.476562 377.320312 612.652344 373.234375 C 617.285156 370.601562 650.0625 379.066406 663.613281 401.527344 " fill-opacity="1" fill-rule="nonzero"/><path fill="#000000" d="M 603.386719 403.558594 C 603.335938 403.558594 603.285156 403.550781 603.234375 403.539062 L 591.128906 399.832031 C 590.859375 399.75 590.703125 399.460938 590.789062 399.1875 C 590.871094 398.917969 591.15625 398.761719 591.433594 398.847656 L 603.535156 402.550781 C 603.808594 402.636719 603.964844 402.925781 603.878906 403.195312 C 603.8125 403.414062 603.609375 403.558594 603.386719 403.558594 " fill-opacity="1" fill-rule="nonzero"/><path fill="#000000" d="M 608.023438 395.273438 C 607.980469 395.273438 607.941406 395.269531 607.902344 395.257812 C 602.84375 394.011719 597.773438 392.523438 592.84375 390.832031 C 592.574219 390.742188 592.433594 390.449219 592.523438 390.179688 C 592.613281 389.910156 592.90625 389.765625 593.175781 389.859375 C 598.082031 391.539062 603.117188 393.019531 608.144531 394.257812 C 608.421875 394.324219 608.589844 394.605469 608.523438 394.878906 C 608.46875 395.117188 608.257812 395.273438 608.023438 395.273438 " fill-opacity="1" fill-rule="nonzero"/><path fill="#000000" d="M 611.152344 274.136719 C 610.292969 271.183594 608.953125 268.21875 606.523438 266.332031 C 604.09375 264.445312 600.351562 263.980469 598 265.96875 C 592.4375 262.148438 584.988281 260.933594 578.722656 263.441406 C 572.457031 265.949219 567.777344 272.371094 567.960938 279.117188 C 568.148438 285.863281 573.632812 292.257812 580.355469 292.867188 C 581.425781 298.722656 586.917969 303.152344 592.800781 304.0625 C 598.117188 304.886719 608.414062 303.109375 610.527344 297.339844 C 613.183594 290.089844 613.304688 281.515625 611.152344 274.136719 " fill-opacity="1" fill-rule="nonzero"/><path fill="#ffffff" d="M 583.121094 314.101562 L 585.238281 327.492188 C 585.574219 329.613281 584.769531 331.753906 583.121094 333.125 C 586.164062 342.644531 599.347656 342.226562 612.652344 331.882812 L 611.261719 330.679688 C 609.066406 328.78125 607.617188 326.160156 607.183594 323.289062 L 604.449219 305.269531 C 604.449219 305.269531 599.773438 297.441406 583.121094 314.101562 " fill-opacity="1" fill-rule="nonzero"/><path fill="#000000" d="M 583.121094 333.640625 C 582.972656 333.640625 582.824219 333.578125 582.726562 333.457031 C 582.542969 333.238281 582.574219 332.914062 582.789062 332.730469 C 584.292969 331.476562 585.035156 329.5 584.730469 327.570312 L 582.613281 314.179688 C 582.585938 314.015625 582.640625 313.851562 582.753906 313.734375 C 592.351562 304.132812 598.101562 302.582031 601.234375 302.96875 C 603.839844 303.292969 604.851562 304.933594 604.894531 305.003906 C 604.925781 305.0625 604.949219 305.125 604.957031 305.191406 L 607.691406 323.210938 C 608.109375 325.957031 609.496094 328.472656 611.601562 330.289062 L 612.992188 331.492188 C 613.203125 331.679688 613.230469 332.003906 613.042969 332.222656 C 612.859375 332.4375 612.53125 332.457031 612.316406 332.273438 L 610.925781 331.070312 C 608.636719 329.089844 607.128906 326.355469 606.675781 323.363281 L 603.957031 305.460938 C 603.753906 305.183594 602.914062 304.203125 601.0625 303.988281 C 598.175781 303.652344 592.820312 305.175781 583.671875 314.277344 L 585.746094 327.414062 C 586.109375 329.699219 585.226562 332.039062 583.449219 333.523438 C 583.355469 333.601562 583.238281 333.640625 583.121094 333.640625 " fill-opacity="1" fill-rule="nonzero"/><path fill="#ffffff" d="M 575.714844 289.074219 C 575.714844 289.074219 568.164062 308.96875 575.71875 315.375 C 580.199219 319.175781 594.355469 321.171875 603.410156 307.488281 C 603.410156 307.488281 609.679688 307.792969 611.109375 301.386719 C 612.539062 294.976562 609.339844 292.558594 604.15625 297.070312 C 604.15625 297.070312 597.890625 300.261719 599.949219 291.375 C 600.847656 287.503906 597.539062 283.976562 590.304688 281.886719 C 577.214844 278.109375 578.429688 281.414062 575.714844 289.074219 " fill-opacity="1" fill-rule="nonzero"/><path fill="#000000" d="M 575.714844 289.074219 L 575.71875 289.074219 Z M 582.257812 280.8125 C 578.851562 280.8125 578.253906 282.753906 577.140625 286.359375 C 576.875 287.21875 576.574219 288.195312 576.199219 289.242188 C 576.199219 289.246094 576.199219 289.25 576.199219 289.253906 C 576.121094 289.449219 568.863281 308.882812 576.050781 314.984375 C 578.144531 316.757812 582.589844 318.21875 587.808594 317.472656 C 592.027344 316.871094 598.085938 314.601562 602.980469 307.203125 C 603.082031 307.050781 603.253906 306.964844 603.433594 306.972656 C 603.671875 306.980469 609.292969 307.167969 610.609375 301.273438 C 611.253906 298.371094 610.9375 296.21875 609.757812 295.519531 C 608.613281 294.839844 606.695312 295.542969 604.496094 297.460938 C 604.460938 297.488281 604.425781 297.511719 604.390625 297.53125 C 604.285156 297.582031 601.773438 298.839844 600.175781 297.589844 C 598.941406 296.621094 598.695312 294.492188 599.449219 291.261719 C 600.304688 287.566406 596.917969 284.335938 590.164062 282.386719 C 586.488281 281.324219 584.003906 280.8125 582.257812 280.8125 Z M 585.054688 318.699219 C 580.789062 318.699219 577.246094 317.347656 575.386719 315.769531 C 567.660156 309.214844 574.890625 289.796875 575.234375 288.894531 C 575.597656 287.867188 575.894531 286.902344 576.15625 286.054688 C 578.046875 279.925781 579.179688 278.144531 590.449219 281.394531 C 597.800781 283.515625 601.445312 287.195312 600.449219 291.492188 C 599.640625 294.992188 600.199219 296.296875 600.8125 296.777344 C 601.679688 297.457031 603.261719 296.929688 603.871094 296.636719 C 606.445312 294.414062 608.71875 293.703125 610.285156 294.636719 C 611.886719 295.589844 612.375 298.089844 611.613281 301.496094 C 610.292969 307.421875 605.011719 307.960938 603.6875 308 C 598.605469 315.539062 592.335938 317.867188 587.953125 318.492188 C 586.957031 318.632812 585.988281 318.699219 585.054688 318.699219 " fill-opacity="1" fill-rule="nonzero"/><path fill="#000000" d="M 603.28125 303.789062 C 603.195312 303.789062 603.109375 303.769531 603.027344 303.722656 C 602.78125 303.578125 602.695312 303.265625 602.835938 303.019531 C 603.847656 301.253906 605.808594 300.121094 607.839844 300.121094 C 607.847656 300.121094 607.851562 300.121094 607.859375 300.121094 C 608.144531 300.121094 608.375 300.351562 608.375 300.636719 C 608.371094 300.921875 608.140625 301.152344 607.859375 301.152344 C 607.847656 301.152344 607.847656 301.152344 607.839844 301.152344 C 606.195312 301.152344 604.546875 302.105469 603.730469 303.53125 C 603.636719 303.695312 603.460938 303.789062 603.28125 303.789062 " fill-opacity="1" fill-rule="nonzero"/><path fill="#000000" d="M 394.457031 281.226562 C 394.34375 281.226562 394.234375 281.1875 394.136719 281.113281 C 393.914062 280.9375 393.875 280.613281 394.054688 280.390625 L 413.398438 256.011719 C 413.484375 255.898438 413.617188 255.828125 413.761719 255.820312 C 413.902344 255.808594 414.042969 255.855469 414.148438 255.953125 L 427.496094 268.238281 L 445.324219 239.078125 C 445.472656 238.839844 445.789062 238.761719 446.035156 238.910156 C 446.273438 239.058594 446.351562 239.375 446.203125 239.617188 L 428.046875 269.308594 C 427.96875 269.441406 427.832031 269.53125 427.679688 269.550781 C 427.527344 269.570312 427.375 269.523438 427.257812 269.417969 L 413.859375 257.085938 L 394.859375 281.03125 C 394.761719 281.15625 394.609375 281.226562 394.457031 281.226562 " fill-opacity="1" fill-rule="nonzero"/><path fill="#000000" d="M 447.578125 244.460938 L 446.566406 244.664062 L 445.558594 239.6875 L 440.667969 241.054688 L 440.390625 240.0625 L 446.347656 238.394531 L 447.578125 244.460938 " fill-opacity="1" fill-rule="nonzero"/><path fill="#000000" d="M 452.457031 288.941406 L 388.542969 288.941406 C 388.261719 288.941406 388.027344 288.710938 388.027344 288.425781 L 388.027344 231.953125 C 388.027344 231.667969 388.261719 231.4375 388.542969 231.4375 C 388.832031 231.4375 389.058594 231.667969 389.058594 231.953125 L 389.058594 287.910156 L 452.457031 287.910156 C 452.742188 287.910156 452.972656 288.140625 452.972656 288.425781 C 452.972656 288.710938 452.742188 288.941406 452.457031 288.941406 " fill-opacity="1" fill-rule="nonzero"/><path fill="#e2eaff" d="M 420.5 319.902344 C 387.527344 319.902344 360.789062 293.167969 360.789062 260.1875 C 360.789062 227.210938 387.527344 200.472656 420.5 200.472656 C 453.476562 200.472656 480.210938 227.210938 480.210938 260.1875 C 480.210938 293.167969 453.476562 319.902344 420.5 319.902344 Z M 503.285156 240.027344 C 502.457031 240.027344 501.640625 240.09375 500.839844 240.191406 C 498.832031 232.097656 495.640625 224.472656 491.449219 217.519531 C 492.085938 217.019531 492.707031 216.488281 493.292969 215.902344 C 501.167969 208.03125 501.167969 195.261719 493.292969 187.390625 C 485.421875 179.515625 472.65625 179.515625 464.785156 187.390625 C 464.199219 187.976562 463.667969 188.597656 463.171875 189.234375 C 456.214844 185.042969 448.589844 181.851562 440.496094 179.84375 C 440.597656 179.042969 440.660156 178.230469 440.660156 177.398438 C 440.660156 166.261719 431.636719 157.238281 420.5 157.238281 C 409.367188 157.238281 400.339844 166.261719 400.339844 177.398438 C 400.339844 178.230469 400.40625 179.042969 400.503906 179.84375 C 392.410156 181.851562 384.789062 185.042969 377.832031 189.234375 C 377.335938 188.597656 376.804688 187.976562 376.21875 187.390625 C 368.34375 179.515625 355.582031 179.515625 347.707031 187.390625 C 339.835938 195.261719 339.835938 208.03125 347.707031 215.902344 C 348.292969 216.488281 348.917969 217.019531 349.554688 217.519531 C 345.363281 224.472656 342.167969 232.097656 340.164062 240.191406 C 339.359375 240.09375 338.546875 240.027344 337.714844 240.027344 C 326.582031 240.027344 317.558594 249.054688 317.558594 260.1875 C 317.558594 271.324219 326.582031 280.351562 337.714844 280.351562 C 338.546875 280.351562 339.359375 280.285156 340.164062 280.1875 C 342.167969 288.28125 345.359375 295.902344 349.554688 302.859375 C 348.917969 303.359375 348.292969 303.886719 347.707031 304.476562 C 339.835938 312.347656 339.835938 325.113281 347.707031 332.988281 C 355.582031 340.859375 368.34375 340.859375 376.21875 332.988281 C 376.804688 332.402344 377.335938 331.78125 377.832031 331.144531 C 384.789062 335.335938 392.410156 338.527344 400.503906 340.53125 C 400.40625 341.335938 400.339844 342.152344 400.339844 342.980469 C 400.339844 354.113281 409.367188 363.140625 420.5 363.140625 C 431.636719 363.140625 440.660156 354.113281 440.660156 342.980469 C 440.660156 342.152344 440.597656 341.335938 440.496094 340.53125 C 448.589844 338.527344 456.214844 335.335938 463.171875 331.144531 C 463.667969 331.78125 464.199219 332.402344 464.785156 332.988281 C 472.65625 340.859375 485.421875 340.859375 493.292969 332.988281 C 501.167969 325.113281 501.167969 312.347656 493.292969 304.476562 C 492.707031 303.886719 492.085938 303.359375 491.449219 302.859375 C 495.644531 295.902344 498.832031 288.28125 500.839844 280.1875 C 501.640625 280.285156 502.457031 280.351562 503.285156 280.351562 C 514.421875 280.351562 523.445312 271.324219 523.445312 260.1875 C 523.445312 249.054688 514.421875 240.027344 503.285156 240.027344 " fill-opacity="1" fill-rule="nonzero"/><path fill="#000000" d="M 355.882812 84.414062 C 351.789062 84.414062 348.457031 87.742188 348.457031 91.839844 C 348.457031 95.933594 351.789062 99.261719 355.882812 99.261719 C 359.976562 99.261719 363.304688 95.933594 363.304688 91.839844 C 363.304688 87.742188 359.976562 84.414062 355.882812 84.414062 Z M 355.882812 100.292969 C 351.21875 100.292969 347.425781 96.5 347.425781 91.839844 C 347.425781 87.175781 351.21875 83.382812 355.882812 83.382812 C 360.542969 83.382812 364.335938 87.175781 364.335938 91.839844 C 364.335938 96.5 360.542969 100.292969 355.882812 100.292969 " fill-opacity="1" fill-rule="nonzero"/><path fill="#000000" d="M 379.050781 84.414062 C 374.957031 84.414062 371.625 87.742188 371.625 91.839844 C 371.625 95.933594 374.957031 99.261719 379.050781 99.261719 C 383.144531 99.261719 386.472656 95.933594 386.472656 91.839844 C 386.472656 87.742188 383.144531 84.414062 379.050781 84.414062 Z M 379.050781 100.292969 C 374.386719 100.292969 370.597656 96.5 370.597656 91.839844 C 370.597656 87.175781 374.386719 83.382812 379.050781 83.382812 C 383.710938 83.382812 387.503906 87.175781 387.503906 91.839844 C 387.503906 96.5 383.710938 100.292969 379.050781 100.292969 " fill-opacity="1" fill-rule="nonzero"/><path fill="#5479f7" d="M 410.160156 91.839844 C 410.160156 96.222656 406.601562 99.777344 402.21875 99.777344 C 397.832031 99.777344 394.28125 96.222656 394.28125 91.839844 C 394.28125 87.453125 397.832031 83.898438 402.21875 83.898438 C 406.601562 83.898438 410.160156 87.453125 410.160156 91.839844 " fill-opacity="1" fill-rule="nonzero"/><path fill="#000000" d="M 469.214844 92.351562 L 416.351562 92.351562 C 416.066406 92.351562 415.835938 92.121094 415.835938 91.839844 C 415.835938 91.550781 416.066406 91.324219 416.351562 91.324219 L 469.214844 91.324219 C 469.5 91.324219 469.730469 91.550781 469.730469 91.839844 C 469.730469 92.121094 469.5 92.351562 469.214844 92.351562 " fill-opacity="1" fill-rule="nonzero"/><path fill="#000000" d="M 287.089844 119.546875 C 286.804688 119.546875 286.574219 119.316406 286.574219 119.03125 L 286.574219 91.839844 C 286.574219 91.550781 286.804688 91.324219 287.089844 91.324219 L 340.597656 91.324219 C 340.878906 91.324219 341.109375 91.550781 341.109375 91.839844 C 341.109375 92.121094 340.878906 92.351562 340.597656 92.351562 L 287.605469 92.351562 L 287.605469 119.03125 C 287.605469 119.316406 287.375 119.546875 287.089844 119.546875 " fill-opacity="1" fill-rule="nonzero"/><path fill="#000000" d="M 718.480469 144.878906 L 664.246094 144.878906 C 663.964844 144.878906 663.730469 144.648438 663.730469 144.363281 C 663.730469 144.082031 663.964844 143.847656 664.246094 143.847656 L 718.480469 143.847656 C 718.765625 143.847656 718.992188 144.082031 718.992188 144.363281 C 718.992188 144.648438 718.765625 144.878906 718.480469 144.878906 " fill-opacity="1" fill-rule="nonzero"/><path fill="#000000" d="M 653.027344 144.878906 L 639.539062 144.878906 C 639.253906 144.878906 639.023438 144.648438 639.023438 144.363281 C 639.023438 144.082031 639.253906 143.847656 639.539062 143.847656 L 653.027344 143.847656 C 653.3125 143.847656 653.542969 144.082031 653.542969 144.363281 C 653.542969 144.648438 653.3125 144.878906 653.027344 144.878906 " fill-opacity="1" fill-rule="nonzero"/><path fill="#000000" d="M 718.480469 160.617188 L 699.273438 160.617188 C 698.988281 160.617188 698.761719 160.382812 698.761719 160.101562 C 698.761719 159.816406 698.988281 159.585938 699.273438 159.585938 L 718.480469 159.585938 C 718.765625 159.585938 718.992188 159.816406 718.992188 160.101562 C 718.992188 160.382812 718.765625 160.617188 718.480469 160.617188 " fill-opacity="1" fill-rule="nonzero"/><path fill="#000000" d="M 676.980469 160.617188 L 639.539062 160.617188 C 639.253906 160.617188 639.023438 160.382812 639.023438 160.101562 C 639.023438 159.816406 639.253906 159.585938 639.539062 159.585938 L 676.980469 159.585938 C 677.261719 159.585938 677.496094 159.816406 677.496094 160.101562 C 677.496094 160.382812 677.261719 160.617188 676.980469 160.617188 " fill-opacity="1" fill-rule="nonzero"/><path fill="#000000" d="M 718.480469 176.355469 L 678.816406 176.355469 C 678.53125 176.355469 678.300781 176.121094 678.300781 175.835938 C 678.300781 175.550781 678.53125 175.324219 678.816406 175.324219 L 718.480469 175.324219 C 718.765625 175.324219 718.992188 175.550781 718.992188 175.835938 C 718.992188 176.121094 718.765625 176.355469 718.480469 176.355469 " fill-opacity="1" fill-rule="nonzero"/><path fill="#000000" d="M 661.621094 176.355469 L 639.539062 176.355469 C 639.253906 176.355469 639.023438 176.121094 639.023438 175.835938 C 639.023438 175.550781 639.253906 175.324219 639.539062 175.324219 L 661.621094 175.324219 C 661.90625 175.324219 662.136719 175.550781 662.136719 175.835938 C 662.136719 176.121094 661.90625 176.355469 661.621094 176.355469 " fill-opacity="1" fill-rule="nonzero"/><path fill="#000000" d="M 718.480469 192.089844 L 691.363281 192.089844 C 691.078125 192.089844 690.847656 191.859375 690.847656 191.574219 C 690.847656 191.289062 691.078125 191.058594 691.363281 191.058594 L 718.480469 191.058594 C 718.765625 191.058594 718.992188 191.289062 718.992188 191.574219 C 718.992188 191.859375 718.765625 192.089844 718.480469 192.089844 " fill-opacity="1" fill-rule="nonzero"/><path fill="#000000" d="M 671.644531 192.089844 L 639.539062 192.089844 C 639.253906 192.089844 639.023438 191.859375 639.023438 191.574219 C 639.023438 191.289062 639.253906 191.058594 639.539062 191.058594 L 671.644531 191.058594 C 671.925781 191.058594 672.15625 191.289062 672.15625 191.574219 C 672.15625 191.859375 671.925781 192.089844 671.644531 192.089844 " fill-opacity="1" fill-rule="nonzero"/><path fill="#000000" d="M 639.539062 134.152344 C 639.253906 134.152344 639.023438 133.921875 639.023438 133.636719 L 639.023438 91.675781 L 611.449219 91.675781 C 611.167969 91.675781 610.933594 91.445312 610.933594 91.160156 C 610.933594 90.875 611.167969 90.644531 611.449219 90.644531 L 639.539062 90.644531 C 639.824219 90.644531 640.050781 90.875 640.050781 91.160156 L 640.050781 133.636719 C 640.050781 133.921875 639.824219 134.152344 639.539062 134.152344 " fill-opacity="1" fill-rule="nonzero"/><g clip-path="url(#3bd776cb40)"><path fill="#000000" d="M 463.527344 495.230469 L 77.167969 495.230469 C 76.882812 495.230469 76.652344 495 76.652344 494.714844 L 76.652344 365.300781 C 76.652344 365.015625 76.882812 364.785156 77.167969 364.785156 L 348.9375 364.785156 L 348.9375 344.421875 C 348.9375 344.136719 349.167969 343.90625 349.453125 343.90625 C 349.738281 343.90625 349.96875 344.136719 349.96875 344.421875 L 349.96875 365.300781 C 349.96875 365.585938 349.738281 365.816406 349.453125 365.816406 L 77.683594 365.816406 L 77.683594 494.199219 L 463.527344 494.199219 C 463.8125 494.199219 464.042969 494.429688 464.042969 494.714844 C 464.042969 495 463.8125 495.230469 463.527344 495.230469 " fill-opacity="1" fill-rule="nonzero"/></g><path fill="#000000" d="M 349.453125 397.167969 L 117.09375 397.167969 C 116.808594 397.167969 116.578125 396.9375 116.578125 396.652344 C 116.578125 396.367188 116.808594 396.136719 117.09375 396.136719 L 349.453125 396.136719 C 349.738281 396.136719 349.96875 396.367188 349.96875 396.652344 C 349.96875 396.9375 349.738281 397.167969 349.453125 397.167969 " fill-opacity="1" fill-rule="nonzero"/><path fill="#ffffff" d="M 239.222656 391.316406 C 242.253906 391.316406 244.703125 393.769531 244.703125 396.796875 C 244.703125 399.824219 242.253906 402.277344 239.222656 402.277344 C 236.199219 402.277344 233.746094 399.824219 233.746094 396.796875 C 233.746094 393.769531 236.199219 391.316406 239.222656 391.316406 " fill-opacity="1" fill-rule="nonzero"/><path fill="#000000" d="M 239.222656 391.832031 C 236.484375 391.832031 234.261719 394.058594 234.261719 396.796875 C 234.261719 399.53125 236.484375 401.761719 239.222656 401.761719 C 241.960938 401.761719 244.1875 399.53125 244.1875 396.796875 C 244.1875 394.058594 241.960938 391.832031 239.222656 391.832031 Z M 239.222656 402.789062 C 235.917969 402.789062 233.230469 400.101562 233.230469 396.796875 C 233.230469 393.492188 235.917969 390.800781 239.222656 390.800781 C 242.53125 390.800781 245.21875 393.492188 245.21875 396.796875 C 245.21875 400.101562 242.53125 402.789062 239.222656 402.789062 " fill-opacity="1" fill-rule="nonzero"/><path fill="#000000" d="M 349.453125 420.816406 L 117.09375 420.816406 C 116.808594 420.816406 116.578125 420.585938 116.578125 420.304688 C 116.578125 420.015625 116.808594 419.789062 117.09375 419.789062 L 349.453125 419.789062 C 349.738281 419.789062 349.96875 420.015625 349.96875 420.304688 C 349.96875 420.585938 349.738281 420.816406 349.453125 420.816406 " fill-opacity="1" fill-rule="nonzero"/><path fill="#ffffff" d="M 156.601562 414.824219 C 159.628906 414.824219 162.082031 417.273438 162.082031 420.304688 C 162.082031 423.328125 159.628906 425.78125 156.601562 425.78125 C 153.574219 425.78125 151.125 423.328125 151.125 420.304688 C 151.125 417.273438 153.574219 414.824219 156.601562 414.824219 " fill-opacity="1" fill-rule="nonzero"/><path fill="#000000" d="M 156.601562 415.335938 C 153.863281 415.335938 151.636719 417.566406 151.636719 420.304688 C 151.636719 423.039062 153.863281 425.265625 156.601562 425.265625 C 159.339844 425.265625 161.566406 423.039062 161.566406 420.304688 C 161.566406 417.566406 159.339844 415.335938 156.601562 415.335938 Z M 156.601562 426.296875 C 153.296875 426.296875 150.605469 423.605469 150.605469 420.304688 C 150.605469 416.996094 153.296875 414.308594 156.601562 414.308594 C 159.90625 414.308594 162.597656 416.996094 162.597656 420.304688 C 162.597656 423.605469 159.90625 426.296875 156.601562 426.296875 " fill-opacity="1" fill-rule="nonzero"/><path fill="#000000" d="M 349.453125 444.46875 L 117.09375 444.46875 C 116.808594 444.46875 116.578125 444.238281 116.578125 443.949219 C 116.578125 443.667969 116.808594 443.4375 117.09375 443.4375 L 349.453125 443.4375 C 349.738281 443.4375 349.96875 443.667969 349.96875 443.949219 C 349.96875 444.238281 349.738281 444.46875 349.453125 444.46875 " fill-opacity="1" fill-rule="nonzero"/><path fill="#ffffff" d="M 200.582031 438.617188 C 203.605469 438.617188 206.058594 441.066406 206.058594 444.097656 C 206.058594 447.121094 203.605469 449.574219 200.582031 449.574219 C 197.554688 449.574219 195.101562 447.121094 195.101562 444.097656 C 195.101562 441.066406 197.554688 438.617188 200.582031 438.617188 " fill-opacity="1" fill-rule="nonzero"/><path fill="#000000" d="M 200.582031 439.132812 C 197.84375 439.132812 195.617188 441.359375 195.617188 444.097656 C 195.617188 446.832031 197.84375 449.058594 200.582031 449.058594 C 203.316406 449.058594 205.546875 446.832031 205.546875 444.097656 C 205.546875 441.359375 203.316406 439.132812 200.582031 439.132812 Z M 200.582031 450.089844 C 197.273438 450.089844 194.585938 447.402344 194.585938 444.097656 C 194.585938 440.789062 197.273438 438.101562 200.582031 438.101562 C 203.886719 438.101562 206.574219 440.789062 206.574219 444.097656 C 206.574219 447.402344 203.886719 450.089844 200.582031 450.089844 " fill-opacity="1" fill-rule="nonzero"/><path fill="#000000" d="M 349.453125 468.117188 L 117.09375 468.117188 C 116.808594 468.117188 116.578125 467.886719 116.578125 467.601562 C 116.578125 467.316406 116.808594 467.085938 117.09375 467.085938 L 349.453125 467.085938 C 349.738281 467.085938 349.96875 467.316406 349.96875 467.601562 C 349.96875 467.886719 349.738281 468.117188 349.453125 468.117188 " fill-opacity="1" fill-rule="nonzero"/><path fill="#ffffff" d="M 145.789062 462.265625 C 148.8125 462.265625 151.265625 464.71875 151.265625 467.746094 C 151.265625 470.769531 148.8125 473.226562 145.789062 473.226562 C 142.761719 473.226562 140.308594 470.769531 140.308594 467.746094 C 140.308594 464.71875 142.761719 462.265625 145.789062 462.265625 " fill-opacity="1" fill-rule="nonzero"/><path fill="#000000" d="M 145.785156 462.78125 C 143.050781 462.78125 140.824219 465.007812 140.824219 467.746094 C 140.824219 470.484375 143.050781 472.710938 145.785156 472.710938 C 148.523438 472.710938 150.75 470.484375 150.75 467.746094 C 150.75 465.007812 148.523438 462.78125 145.785156 462.78125 Z M 145.785156 473.742188 C 142.480469 473.742188 139.792969 471.050781 139.792969 467.746094 C 139.792969 464.441406 142.480469 461.75 145.785156 461.75 C 149.09375 461.75 151.78125 464.441406 151.78125 467.746094 C 151.78125 471.050781 149.09375 473.742188 145.785156 473.742188 " fill-opacity="1" fill-rule="nonzero"/></svg>