<svg xmlns="http://www.w3.org/2000/svg" xmlns:xlink="http://www.w3.org/1999/xlink" width="1080" zoomAndPan="magnify" viewBox="0 0 810 562.499983" height="750" preserveAspectRatio="xMidYMid meet" version="1.0"><defs><clipPath id="33c287c839"><path d="M 167 35.363281 L 652 35.363281 L 652 521 L 167 521 Z M 167 35.363281 " clip-rule="nonzero"/></clipPath><clipPath id="09f70e18eb"><path d="M 453 35.363281 L 502 35.363281 L 502 96 L 453 96 Z M 453 35.363281 " clip-rule="nonzero"/></clipPath></defs><g clip-path="url(#33c287c839)"><path fill="#caddff" d="M 454.699219 35.582031 C 438.941406 35.554688 295.195312 37.75 216.648438 156.15625 C 174.835938 219.183594 146.78125 322.25 187.765625 378.402344 C 199.871094 394.988281 206.214844 391.339844 270.910156 430.589844 C 359.714844 484.472656 359.296875 498.347656 396.058594 510.675781 C 443.914062 526.722656 514.628906 526.691406 567.59375 487.28125 C 627.695312 442.5625 635.453125 370.363281 644.351562 295.9375 C 653.085938 222.890625 663.074219 146.773438 616.605469 92.269531 C 568.433594 35.761719 491.003906 35.640625 454.699219 35.582031 " fill-opacity="1" fill-rule="nonzero"/></g><path fill="#5479f7" d="M 364.828125 70.996094 L 348.472656 70.996094 C 348.472656 70.996094 342.730469 112.347656 327.148438 129.75 C 312.386719 146.242188 284.75 141.714844 284.75 141.714844 C 284.75 141.714844 284.742188 141.75 284.726562 141.800781 C 274.035156 138.886719 261.847656 139.527344 253.539062 141.722656 C 240.507812 145.160156 231.097656 151.152344 231.097656 151.152344 C 231.097656 151.152344 210.992188 163.871094 211.46875 188.140625 C 211.839844 206.972656 225.957031 229.390625 225.847656 230.992188 C 224.605469 248.96875 223.21875 248.355469 225.09375 254.757812 C 229.640625 270.304688 294.0625 263.890625 295.207031 256.765625 C 296.246094 250.300781 293.253906 239.492188 294.757812 224.960938 C 297.125 202.046875 301.832031 193.886719 307.1875 179.757812 C 336.769531 177.355469 355.886719 160.625 361.835938 133.757812 C 367.972656 106.042969 364.828125 70.996094 364.828125 70.996094 " fill-opacity="1" fill-rule="nonzero"/><path fill="#000000" d="M 269.21875 140.730469 C 263.1875 140.730469 257.6875 141.53125 253.761719 142.570312 C 241.027344 145.929688 231.660156 151.832031 231.566406 151.890625 C 231.371094 152.019531 211.882812 164.652344 212.347656 188.121094 C 212.625 202.214844 220.726562 218.378906 224.625 226.148438 C 226.320312 229.539062 226.765625 230.453125 226.722656 231.054688 C 226.277344 237.523438 225.820312 241.519531 225.484375 244.441406 C 224.902344 249.519531 224.78125 250.574219 225.933594 254.511719 C 228.304688 262.609375 248.96875 264.234375 265.945312 263.164062 C 283.734375 262.046875 294.027344 258.589844 294.34375 256.625 C 294.777344 253.933594 294.46875 250.289062 294.109375 246.066406 C 293.625 240.332031 293.023438 233.199219 293.886719 224.871094 C 295.855469 205.832031 299.460938 196.828125 303.640625 186.394531 C 304.523438 184.1875 305.4375 181.902344 306.371094 179.445312 C 306.492188 179.128906 306.78125 178.910156 307.117188 178.882812 C 335.898438 176.542969 355.027344 160.449219 360.980469 133.566406 C 366.507812 108.601562 364.433594 77.246094 364.023438 71.871094 L 349.230469 71.871094 C 348.351562 77.753906 342.410156 114.023438 327.804688 130.335938 C 313.660156 146.132812 288.519531 143.148438 284.988281 142.636719 C 284.832031 142.6875 284.664062 142.691406 284.496094 142.648438 C 279.429688 141.265625 274.144531 140.730469 269.21875 140.730469 Z M 256.730469 265.214844 C 241.195312 265.214844 226.464844 262.570312 224.25 255.003906 C 223 250.726562 223.15625 249.355469 223.742188 244.242188 C 224.074219 241.347656 224.527344 237.390625 224.96875 230.996094 C 224.859375 230.539062 223.984375 228.785156 223.054688 226.9375 C 219.101562 219.054688 210.878906 202.644531 210.59375 188.15625 C 210.113281 163.675781 230.421875 150.539062 230.628906 150.410156 C 230.722656 150.351562 240.300781 144.308594 253.316406 140.871094 C 260.929688 138.859375 273.101562 137.816406 284.582031 140.855469 C 284.683594 140.835938 284.789062 140.832031 284.894531 140.847656 C 285.164062 140.894531 312.234375 145.09375 326.496094 129.164062 C 341.726562 112.160156 347.546875 71.28125 347.605469 70.871094 C 347.664062 70.4375 348.035156 70.113281 348.472656 70.113281 L 364.828125 70.113281 C 365.28125 70.113281 365.664062 70.460938 365.703125 70.914062 C 365.734375 71.265625 368.789062 106.417969 362.691406 133.945312 C 356.597656 161.472656 337.117188 178.019531 307.8125 180.585938 C 306.945312 182.863281 306.09375 184.988281 305.269531 187.046875 C 301.140625 197.355469 297.574219 206.257812 295.628906 225.046875 C 294.785156 233.214844 295.378906 240.261719 295.859375 245.921875 C 296.238281 250.433594 296.542969 254 296.074219 256.902344 C 295.289062 261.796875 276.09375 264.285156 266.054688 264.917969 C 262.976562 265.109375 259.839844 265.214844 256.730469 265.214844 " fill-opacity="1" fill-rule="nonzero"/><path fill="#99b9ff" d="M 568.757812 489.15625 L 283.207031 489.15625 C 274.339844 489.15625 267.585938 481.035156 269.003906 472.082031 L 330.414062 84.527344 C 331.542969 77.398438 337.5625 72.15625 344.621094 72.15625 L 630.167969 72.15625 C 639.03125 72.15625 645.792969 80.285156 644.371094 89.234375 L 582.960938 476.792969 C 581.832031 483.917969 575.8125 489.15625 568.757812 489.15625 " fill-opacity="1" fill-rule="nonzero"/><path fill="#ffffff" d="M 559.683594 488.152344 L 274.132812 488.152344 C 265.265625 488.152344 258.511719 480.042969 259.929688 471.105469 L 321.339844 84.222656 C 322.46875 77.105469 328.488281 71.875 335.546875 71.875 L 621.09375 71.875 C 629.960938 71.875 636.71875 79.984375 635.300781 88.921875 L 573.886719 475.808594 C 572.757812 482.921875 566.738281 488.152344 559.683594 488.152344 " fill-opacity="1" fill-rule="nonzero"/><path fill="#000000" d="M 559.683594 489.027344 L 274.132812 489.027344 C 269.710938 489.027344 265.511719 487.078125 262.609375 483.675781 C 259.628906 480.183594 258.335938 475.558594 259.0625 470.988281 L 320.476562 84.566406 C 321.679688 76.996094 328.015625 71.5 335.546875 71.5 L 404.371094 71.5 C 404.855469 71.5 405.246094 71.894531 405.246094 72.375 C 405.246094 72.863281 404.855469 73.257812 404.371094 73.257812 L 335.546875 73.257812 C 328.882812 73.257812 323.273438 78.132812 322.207031 84.84375 L 260.796875 471.261719 C 260.148438 475.324219 261.296875 479.433594 263.945312 482.535156 C 266.511719 485.546875 270.226562 487.273438 274.132812 487.273438 L 559.683594 487.273438 C 566.34375 487.273438 571.957031 482.398438 573.023438 475.683594 L 634.433594 89.265625 C 635.078125 85.203125 633.929688 81.097656 631.28125 77.992188 C 628.71875 74.980469 625.003906 73.257812 621.097656 73.257812 L 612.164062 73.257812 C 611.679688 73.257812 611.285156 72.863281 611.285156 72.375 C 611.285156 71.894531 611.679688 71.5 612.164062 71.5 L 621.097656 71.5 C 625.515625 71.5 629.71875 73.453125 632.621094 76.855469 C 635.597656 80.347656 636.890625 84.972656 636.164062 89.539062 L 574.753906 475.960938 C 573.554688 483.535156 567.210938 489.027344 559.683594 489.027344 " fill-opacity="1" fill-rule="nonzero"/><path fill="#99b9ff" d="M 512.992188 107.804688 L 430.21875 107.804688 C 416.992188 107.804688 406.9375 95.675781 409.140625 82.371094 L 411.078125 70.714844 C 411.273438 69.527344 412.277344 68.660156 413.453125 68.660156 L 540.949219 68.660156 C 542.441406 68.660156 543.578125 70.03125 543.328125 71.53125 L 541.371094 83.34375 C 539.027344 97.46875 527.035156 107.804688 512.992188 107.804688 " fill-opacity="1" fill-rule="nonzero"/><path fill="#000000" d="M 413.453125 69.542969 C 412.703125 69.542969 412.066406 70.097656 411.941406 70.855469 L 410.007812 82.519531 C 408.984375 88.695312 410.699219 94.953125 414.710938 99.691406 C 418.609375 104.292969 424.261719 106.933594 430.21875 106.933594 L 512.992188 106.933594 C 526.652344 106.933594 538.222656 96.953125 540.507812 83.203125 L 542.460938 71.390625 C 542.539062 70.917969 542.410156 70.441406 542.105469 70.082031 C 541.808594 69.734375 541.402344 69.542969 540.945312 69.542969 Z M 512.992188 108.6875 L 430.21875 108.6875 C 423.742188 108.6875 417.605469 105.824219 413.375 100.828125 C 409.027344 95.695312 407.171875 88.917969 408.277344 82.230469 L 410.210938 70.570312 C 410.480469 68.957031 411.84375 67.785156 413.453125 67.785156 L 540.945312 67.785156 C 541.910156 67.785156 542.816406 68.210938 543.445312 68.949219 C 544.082031 69.703125 544.355469 70.695312 544.191406 71.675781 L 542.234375 83.492188 C 539.816406 98.09375 527.515625 108.6875 512.992188 108.6875 " fill-opacity="1" fill-rule="nonzero"/><path fill="#99b9ff" d="M 471.734375 55.933594 L 471.773438 55.695312 C 472.4375 51.628906 475.878906 48.652344 479.90625 48.652344 C 485.003906 48.652344 488.878906 53.34375 488.035156 58.492188 L 487.996094 58.730469 C 487.332031 62.796875 483.894531 65.773438 479.867188 65.773438 C 474.769531 65.773438 470.890625 61.082031 471.734375 55.933594 Z M 457.273438 94.183594 L 492.621094 94.183594 C 493.960938 94.183594 495.105469 93.296875 495.324219 91.941406 L 500.164062 60.421875 C 502.109375 47.875 492.640625 36.507812 480.230469 36.507812 C 470.308594 36.507812 461.859375 43.863281 460.300781 53.902344 L 454.574219 91.054688 C 454.304688 92.757812 455.589844 94.183594 457.273438 94.183594 " fill-opacity="1" fill-rule="nonzero"/><g clip-path="url(#09f70e18eb)"><path fill="#000000" d="M 472.597656 56.074219 C 472.234375 58.320312 472.855469 60.585938 474.308594 62.304688 C 475.707031 63.953125 477.730469 64.898438 479.863281 64.898438 C 483.476562 64.898438 486.53125 62.246094 487.128906 58.589844 L 487.167969 58.355469 C 487.539062 56.109375 486.910156 53.84375 485.457031 52.128906 C 484.058594 50.476562 482.035156 49.53125 479.902344 49.53125 C 476.289062 49.53125 473.238281 52.1875 472.636719 55.839844 Z M 479.863281 66.65625 C 477.21875 66.65625 474.707031 65.484375 472.96875 63.441406 C 471.179688 61.328125 470.414062 58.542969 470.867188 55.792969 L 470.90625 55.554688 C 471.644531 51.046875 475.429688 47.777344 479.902344 47.777344 C 482.550781 47.777344 485.058594 48.949219 486.796875 50.992188 C 488.585938 53.101562 489.351562 55.886719 488.898438 58.636719 L 488.863281 58.871094 C 488.125 63.378906 484.335938 66.65625 479.863281 66.65625 Z M 480.230469 37.390625 C 470.683594 37.390625 462.664062 44.390625 461.167969 54.035156 L 455.441406 91.191406 C 455.355469 91.742188 455.492188 92.261719 455.835938 92.667969 C 456.1875 93.074219 456.710938 93.308594 457.273438 93.308594 L 492.621094 93.308594 C 493.578125 93.308594 494.3125 92.707031 494.453125 91.804688 L 499.292969 60.289062 C 500.199219 54.457031 498.539062 48.566406 494.734375 44.125 C 491.070312 39.84375 485.785156 37.390625 480.230469 37.390625 Z M 492.621094 95.066406 L 457.273438 95.066406 C 456.195312 95.066406 455.183594 94.605469 454.503906 93.808594 C 453.832031 93.019531 453.539062 91.96875 453.707031 90.917969 L 459.433594 53.769531 C 461.0625 43.261719 469.8125 35.632812 480.230469 35.632812 C 486.296875 35.632812 492.066406 38.3125 496.066406 42.980469 C 500.203125 47.8125 502.007812 54.21875 501.027344 60.558594 L 496.183594 92.074219 C 495.90625 93.835938 494.441406 95.066406 492.621094 95.066406 " fill-opacity="1" fill-rule="nonzero"/></g><path fill="#caddff" d="M 492.394531 177.898438 L 467.648438 334.75 C 467.191406 337.660156 469.394531 340.292969 472.277344 340.292969 L 484.25 340.292969 C 486.550781 340.292969 488.511719 338.589844 488.878906 336.269531 L 513.628906 179.417969 C 514.085938 176.511719 511.886719 173.878906 509.003906 173.878906 L 497.023438 173.878906 C 494.722656 173.878906 492.761719 175.585938 492.394531 177.898438 " fill-opacity="1" fill-rule="nonzero"/><path fill="#99b9ff" d="M 450.734375 218.175781 L 432.773438 334.769531 C 432.324219 337.667969 434.523438 340.292969 437.402344 340.292969 L 449.382812 340.292969 C 451.6875 340.292969 453.652344 338.578125 454.011719 336.253906 L 471.980469 219.660156 C 472.429688 216.761719 470.230469 214.140625 467.351562 214.140625 L 455.367188 214.140625 C 453.058594 214.140625 451.09375 215.851562 450.734375 218.175781 " fill-opacity="1" fill-rule="nonzero"/><path fill="#5479f7" d="M 411.332031 248.367188 L 397.925781 334.761719 C 397.472656 337.664062 399.675781 340.292969 402.554688 340.292969 L 414.53125 340.292969 C 416.835938 340.292969 418.800781 338.578125 419.160156 336.257812 L 432.570312 249.863281 C 433.023438 246.960938 430.820312 244.335938 427.941406 244.335938 L 415.957031 244.335938 C 413.65625 244.335938 411.691406 246.046875 411.332031 248.367188 " fill-opacity="1" fill-rule="nonzero"/><path fill="#99b9ff" d="M 371.921875 278.554688 L 363.082031 334.753906 C 362.625 337.660156 364.828125 340.292969 367.710938 340.292969 L 379.683594 340.292969 C 381.988281 340.292969 383.949219 338.585938 384.3125 336.269531 L 393.15625 280.070312 C 393.613281 277.164062 391.414062 274.53125 388.527344 274.53125 L 376.550781 274.53125 C 374.246094 274.53125 372.285156 276.234375 371.921875 278.554688 " fill-opacity="1" fill-rule="nonzero"/><path fill="#caddff" d="M 332.574219 303.457031 L 328.128906 334.828125 C 327.722656 337.710938 329.914062 340.292969 332.769531 340.292969 L 344.765625 340.292969 C 347.097656 340.292969 349.070312 338.546875 349.40625 336.195312 L 353.851562 304.824219 C 354.261719 301.9375 352.070312 299.359375 349.214844 299.359375 L 337.214844 299.359375 C 334.882812 299.359375 332.90625 301.101562 332.574219 303.457031 " fill-opacity="1" fill-rule="nonzero"/><path fill="#99b9ff" d="M 334.984375 374.449219 C 334.984375 378.605469 331.683594 381.972656 327.609375 381.972656 C 323.53125 381.972656 320.230469 378.605469 320.230469 374.449219 C 320.230469 370.292969 323.53125 366.921875 327.609375 366.921875 C 331.683594 366.921875 334.984375 370.292969 334.984375 374.449219 " fill-opacity="1" fill-rule="nonzero"/><path fill="#000000" d="M 327.609375 367.800781 C 324.023438 367.800781 321.105469 370.78125 321.105469 374.449219 C 321.105469 378.113281 324.023438 381.09375 327.609375 381.09375 C 331.191406 381.09375 334.109375 378.113281 334.109375 374.449219 C 334.109375 370.78125 331.191406 367.800781 327.609375 367.800781 Z M 327.609375 382.851562 C 323.054688 382.851562 319.351562 379.082031 319.351562 374.449219 C 319.351562 369.8125 323.054688 366.042969 327.609375 366.042969 C 332.160156 366.042969 335.863281 369.8125 335.863281 374.449219 C 335.863281 379.082031 332.160156 382.851562 327.609375 382.851562 " fill-opacity="1" fill-rule="nonzero"/><path fill="#99b9ff" d="M 328.679688 405.460938 C 328.679688 409.617188 325.378906 412.984375 321.304688 412.984375 C 317.226562 412.984375 313.925781 409.617188 313.925781 405.460938 C 313.925781 401.304688 317.226562 397.9375 321.304688 397.9375 C 325.378906 397.9375 328.679688 401.304688 328.679688 405.460938 " fill-opacity="1" fill-rule="nonzero"/><path fill="#000000" d="M 321.304688 398.8125 C 317.71875 398.8125 314.800781 401.796875 314.800781 405.460938 C 314.800781 409.125 317.71875 412.105469 321.304688 412.105469 C 324.886719 412.105469 327.804688 409.125 327.804688 405.460938 C 327.804688 401.796875 324.886719 398.8125 321.304688 398.8125 Z M 321.304688 413.863281 C 316.75 413.863281 313.046875 410.09375 313.046875 405.460938 C 313.046875 400.828125 316.75 397.058594 321.304688 397.058594 C 325.855469 397.058594 329.558594 400.828125 329.558594 405.460938 C 329.558594 410.09375 325.855469 413.863281 321.304688 413.863281 " fill-opacity="1" fill-rule="nonzero"/><path fill="#99b9ff" d="M 323.121094 437.988281 C 323.121094 442.144531 319.816406 445.511719 315.742188 445.511719 C 311.667969 445.511719 308.363281 442.144531 308.363281 437.988281 C 308.363281 433.832031 311.667969 430.460938 315.742188 430.460938 C 319.816406 430.460938 323.121094 433.832031 323.121094 437.988281 " fill-opacity="1" fill-rule="nonzero"/><path fill="#000000" d="M 315.742188 431.339844 C 312.15625 431.339844 309.238281 434.324219 309.238281 437.988281 C 309.238281 441.652344 312.15625 444.632812 315.742188 444.632812 C 319.324219 444.632812 322.242188 441.652344 322.242188 437.988281 C 322.242188 434.324219 319.324219 431.339844 315.742188 431.339844 Z M 315.742188 446.390625 C 311.1875 446.390625 307.484375 442.621094 307.484375 437.988281 C 307.484375 433.355469 311.1875 429.585938 315.742188 429.585938 C 320.292969 429.585938 323.996094 433.355469 323.996094 437.988281 C 323.996094 442.621094 320.292969 446.390625 315.742188 446.390625 " fill-opacity="1" fill-rule="nonzero"/><path fill="#99b9ff" d="M 428.105469 375.910156 L 349.117188 375.910156 C 348.308594 375.910156 347.65625 375.253906 347.65625 374.449219 C 347.65625 373.640625 348.308594 372.984375 349.117188 372.984375 L 428.105469 372.984375 C 428.910156 372.984375 429.566406 373.640625 429.566406 374.449219 C 429.566406 375.253906 428.910156 375.910156 428.105469 375.910156 " fill-opacity="1" fill-rule="nonzero"/><path fill="#99b9ff" d="M 423.160156 406.671875 L 414.9375 406.671875 C 414.132812 406.671875 413.476562 406.015625 413.476562 405.207031 C 413.476562 404.402344 414.132812 403.746094 414.9375 403.746094 L 423.160156 403.746094 C 423.96875 403.746094 424.621094 404.402344 424.621094 405.207031 C 424.621094 406.015625 423.96875 406.671875 423.160156 406.671875 " fill-opacity="1" fill-rule="nonzero"/><path fill="#99b9ff" d="M 399.921875 406.671875 L 344.171875 406.671875 C 343.363281 406.671875 342.710938 406.015625 342.710938 405.207031 C 342.710938 404.402344 343.363281 403.746094 344.171875 403.746094 L 399.921875 403.746094 C 400.726562 403.746094 401.382812 404.402344 401.382812 405.207031 C 401.382812 406.015625 400.726562 406.671875 399.921875 406.671875 " fill-opacity="1" fill-rule="nonzero"/><path fill="#99b9ff" d="M 416.730469 438.441406 L 337.742188 438.441406 C 336.9375 438.441406 336.28125 437.789062 336.28125 436.976562 C 336.28125 436.171875 336.9375 435.515625 337.742188 435.515625 L 416.730469 435.515625 C 417.539062 435.515625 418.191406 436.171875 418.191406 436.976562 C 418.191406 437.789062 417.539062 438.441406 416.730469 438.441406 " fill-opacity="1" fill-rule="nonzero"/><path fill="#ffffff" d="M 333.039062 232.40625 C 333.039062 232.40625 344.851562 232.234375 351.023438 229.550781 C 357.195312 226.871094 357.101562 231.519531 355.355469 233.15625 C 353.941406 234.480469 345.410156 239.242188 337.765625 239.796875 L 333.039062 232.40625 " fill-opacity="1" fill-rule="nonzero"/><path fill="#000000" d="M 334.613281 233.234375 L 338.21875 238.878906 C 345.59375 238.160156 353.597656 233.597656 354.757812 232.515625 C 355.429688 231.886719 355.71875 230.644531 355.332031 230.054688 C 354.886719 229.375 353.371094 229.488281 351.375 230.355469 C 346.394531 232.519531 338.066406 233.085938 334.613281 233.234375 Z M 337.765625 240.675781 C 337.46875 240.675781 337.1875 240.523438 337.027344 240.269531 L 332.300781 232.878906 C 332.132812 232.609375 332.117188 232.273438 332.269531 231.992188 C 332.417969 231.710938 332.710938 231.535156 333.027344 231.527344 C 333.144531 231.527344 344.738281 231.324219 350.675781 228.746094 C 354.667969 227.011719 356.226562 228.21875 356.800781 229.09375 C 357.75 230.542969 357.128906 232.695312 355.953125 233.796875 C 354.300781 235.347656 345.5 240.117188 337.828125 240.671875 C 337.808594 240.671875 337.785156 240.675781 337.765625 240.675781 " fill-opacity="1" fill-rule="nonzero"/><path fill="#ffffff" d="M 315.8125 227.976562 L 321.671875 216.398438 L 327.105469 219.558594 C 327.40625 219.734375 327.660156 219.972656 327.847656 220.265625 L 328.1875 220.792969 C 328.621094 221.457031 329.375 221.84375 330.152344 221.792969 C 330.578125 221.765625 331 221.867188 331.371094 222.085938 L 371.785156 245.550781 C 372.121094 245.742188 372.425781 245.980469 372.699219 246.253906 L 381.046875 254.652344 L 369.90625 252.710938 C 369.300781 252.605469 368.710938 252.421875 368.148438 252.160156 L 325.871094 232.625 C 325.511719 232.460938 325.199219 232.195312 324.976562 231.867188 L 324.921875 231.785156 C 324.488281 231.152344 323.757812 230.792969 323.003906 230.832031 L 322.625 230.851562 C 322.273438 230.871094 321.925781 230.800781 321.605469 230.652344 L 315.8125 227.976562 " fill-opacity="1" fill-rule="nonzero"/><path fill="#000000" d="M 323.117188 229.949219 C 324.113281 229.949219 325.070312 230.453125 325.644531 231.292969 L 325.699219 231.375 C 325.835938 231.570312 326.023438 231.730469 326.238281 231.832031 L 368.515625 251.367188 C 369.007812 251.59375 369.527344 251.753906 370.058594 251.847656 L 378.476562 253.316406 L 372.074219 246.875 C 371.859375 246.652344 371.613281 246.464844 371.34375 246.308594 L 330.933594 222.84375 C 330.710938 222.714844 330.464844 222.65625 330.207031 222.667969 C 329.109375 222.738281 328.054688 222.203125 327.453125 221.273438 L 327.113281 220.742188 C 327 220.570312 326.84375 220.421875 326.664062 220.316406 L 322.035156 217.621094 L 317.003906 227.5625 L 321.972656 229.855469 C 322.164062 229.945312 322.375 229.988281 322.578125 229.972656 L 322.957031 229.957031 C 323.011719 229.953125 323.0625 229.949219 323.117188 229.949219 Z M 381.046875 255.53125 C 380.996094 255.53125 380.945312 255.527344 380.894531 255.519531 L 369.757812 253.578125 C 369.074219 253.457031 368.410156 253.25 367.78125 252.957031 L 325.503906 233.421875 C 325 233.191406 324.566406 232.824219 324.253906 232.363281 L 324.195312 232.28125 C 323.9375 231.902344 323.496094 231.683594 323.050781 231.707031 L 322.671875 231.726562 C 322.179688 231.753906 321.683594 231.660156 321.234375 231.449219 L 315.445312 228.773438 C 315.226562 228.675781 315.0625 228.492188 314.984375 228.269531 C 314.90625 228.042969 314.921875 227.792969 315.03125 227.582031 L 320.886719 216 C 320.996094 215.78125 321.191406 215.621094 321.421875 215.550781 C 321.652344 215.488281 321.902344 215.515625 322.109375 215.636719 L 327.542969 218.796875 C 327.964844 219.039062 328.320312 219.382812 328.585938 219.789062 L 328.925781 220.316406 C 329.183594 220.714844 329.628906 220.945312 330.097656 220.917969 C 330.695312 220.882812 331.289062 221.019531 331.8125 221.324219 L 372.226562 244.789062 C 372.625 245.023438 372.992188 245.304688 373.320312 245.636719 L 381.667969 254.035156 C 381.9375 254.308594 382 254.71875 381.824219 255.058594 C 381.667969 255.351562 381.367188 255.53125 381.046875 255.53125 " fill-opacity="1" fill-rule="nonzero"/><path fill="#000000" d="M 370.636719 250.3125 C 370.519531 250.3125 370.398438 250.289062 370.28125 250.238281 C 369.839844 250.042969 369.640625 249.527344 369.832031 249.082031 L 371.375 245.578125 C 371.570312 245.136719 372.085938 244.933594 372.53125 245.128906 C 372.972656 245.324219 373.175781 245.84375 372.980469 246.285156 L 371.441406 249.789062 C 371.292969 250.117188 370.972656 250.3125 370.636719 250.3125 " fill-opacity="1" fill-rule="nonzero"/><path fill="#99b9ff" d="M 312.273438 211.277344 L 321.070312 216.027344 C 321.519531 216.269531 321.695312 216.832031 321.457031 217.285156 L 316.292969 227.199219 C 316.054688 227.660156 315.480469 227.835938 315.023438 227.589844 L 306.246094 222.851562 C 304.484375 221.902344 303.789062 219.722656 304.691406 217.988281 L 307.449219 212.699219 C 308.351562 210.964844 310.511719 210.328125 312.273438 211.277344 " fill-opacity="1" fill-rule="nonzero"/><path fill="#000000" d="M 310.542969 211.714844 C 310.28125 211.714844 310.015625 211.753906 309.757812 211.832031 C 309.089844 212.035156 308.546875 212.488281 308.226562 213.101562 L 305.46875 218.398438 C 304.789062 219.703125 305.324219 221.355469 306.660156 222.078125 L 315.441406 226.816406 L 316.292969 227.199219 L 315.515625 226.789062 L 320.679688 216.878906 C 320.695312 216.851562 320.683594 216.8125 320.65625 216.800781 L 311.855469 212.050781 C 311.441406 211.828125 310.992188 211.714844 310.542969 211.714844 Z M 315.464844 228.578125 C 315.167969 228.578125 314.875 228.503906 314.605469 228.363281 L 305.828125 223.625 C 303.652344 222.449219 302.792969 219.738281 303.914062 217.585938 L 306.671875 212.292969 C 307.210938 211.257812 308.125 210.496094 309.242188 210.152344 C 310.390625 209.800781 311.617188 209.925781 312.6875 210.503906 L 321.488281 215.253906 C 322.355469 215.722656 322.691406 216.8125 322.234375 217.691406 L 317.070312 227.601562 C 316.84375 228.039062 316.464844 228.355469 315.996094 228.5 C 315.820312 228.554688 315.640625 228.578125 315.464844 228.578125 " fill-opacity="1" fill-rule="nonzero"/><path fill="#000000" d="M 325.121094 229.992188 C 324.980469 229.992188 324.839844 229.960938 324.707031 229.890625 C 324.28125 229.660156 324.121094 229.128906 324.347656 228.699219 L 327.261719 223.25 C 327.492188 222.824219 328.023438 222.664062 328.449219 222.894531 C 328.878906 223.121094 329.039062 223.652344 328.808594 224.082031 L 325.894531 229.53125 C 325.738281 229.824219 325.433594 229.992188 325.121094 229.992188 " fill-opacity="1" fill-rule="nonzero"/><path fill="#000000" d="M 344.082031 234.152344 C 343.9375 234.152344 343.789062 234.117188 343.652344 234.042969 L 331.605469 227.273438 C 331.183594 227.035156 331.03125 226.5 331.269531 226.078125 C 331.507812 225.65625 332.039062 225.503906 332.464844 225.742188 L 344.511719 232.511719 C 344.933594 232.75 345.082031 233.28125 344.847656 233.707031 C 344.6875 233.992188 344.386719 234.152344 344.082031 234.152344 " fill-opacity="1" fill-rule="nonzero"/><path fill="#000000" d="M 367.929688 248.082031 C 367.785156 248.082031 367.640625 248.046875 367.503906 247.96875 L 362.800781 245.351562 C 362.375 245.117188 362.226562 244.578125 362.460938 244.15625 C 362.695312 243.734375 363.230469 243.582031 363.652344 243.816406 L 368.359375 246.4375 C 368.78125 246.675781 368.933594 247.210938 368.695312 247.632812 C 368.539062 247.921875 368.238281 248.082031 367.929688 248.082031 " fill-opacity="1" fill-rule="nonzero"/><path fill="#ffffff" d="M 314.59375 224.449219 C 314.449219 224.449219 314.304688 224.414062 314.171875 224.339844 L 307.449219 220.652344 C 307.023438 220.421875 306.871094 219.886719 307.101562 219.460938 C 307.335938 219.039062 307.867188 218.882812 308.292969 219.113281 L 315.015625 222.800781 C 315.441406 223.035156 315.59375 223.570312 315.363281 223.996094 C 315.203125 224.285156 314.902344 224.449219 314.59375 224.449219 " fill-opacity="1" fill-rule="nonzero"/><path fill="#ffffff" d="M 311.738281 237.039062 C 311.738281 237.039062 322.191406 238.519531 329.238281 233.070312 C 335.234375 228.433594 347.378906 241.703125 348.421875 243.386719 C 349.902344 245.777344 346.648438 249.523438 342.890625 247.398438 C 342.890625 247.398438 341.894531 253.3125 333.789062 254.304688 C 325.679688 255.296875 322.222656 249.980469 320.046875 249.1875 C 317.871094 248.394531 311.640625 248.351562 311.640625 248.351562 L 311.738281 237.039062 " fill-opacity="1" fill-rule="nonzero"/><path fill="#000000" d="M 312.523438 247.488281 C 314.359375 247.535156 318.546875 247.707031 320.347656 248.363281 C 321.046875 248.621094 321.734375 249.160156 322.613281 249.847656 C 324.777344 251.550781 328.050781 254.125 333.683594 253.433594 C 340.996094 252.539062 341.988281 247.464844 342.027344 247.25 C 342.078125 246.96875 342.261719 246.726562 342.515625 246.609375 C 342.773438 246.488281 343.074219 246.496094 343.320312 246.636719 C 345.011719 247.589844 346.4375 247.070312 347.210938 246.261719 C 347.800781 245.644531 348.179688 244.660156 347.679688 243.851562 C 346.988281 242.742188 339.316406 234.15625 333.339844 233.078125 C 331.882812 232.8125 330.71875 233.035156 329.777344 233.765625 C 323.726562 238.441406 315.449219 238.242188 312.609375 238.011719 Z M 331.847656 255.304688 C 326.710938 255.304688 323.523438 252.796875 321.527344 251.230469 C 320.804688 250.660156 320.183594 250.171875 319.746094 250.015625 C 318.078125 249.40625 313.324219 249.242188 311.632812 249.230469 C 311.402344 249.226562 311.179688 249.132812 311.015625 248.96875 C 310.851562 248.800781 310.761719 248.578125 310.761719 248.34375 L 310.863281 237.027344 C 310.863281 236.773438 310.976562 236.535156 311.167969 236.371094 C 311.359375 236.207031 311.613281 236.132812 311.863281 236.167969 C 311.960938 236.179688 322.039062 237.527344 328.703125 232.375 C 330.042969 231.339844 331.707031 230.996094 333.652344 231.347656 C 340.21875 232.535156 348.328125 241.574219 349.167969 242.925781 C 350.03125 244.316406 349.753906 246.148438 348.476562 247.476562 C 347.457031 248.539062 345.601562 249.371094 343.445312 248.613281 C 342.730469 250.523438 340.488281 254.371094 333.894531 255.175781 C 333.179688 255.265625 332.496094 255.304688 331.847656 255.304688 " fill-opacity="1" fill-rule="nonzero"/><path fill="#5479f7" d="M 240.726562 152.914062 C 240.726562 152.914062 226.410156 158.941406 218.851562 183.484375 C 214.679688 197.03125 215.445312 216.34375 236.019531 242.019531 C 240.132812 247.152344 245.914062 252.265625 252.4375 253 L 314.96875 253.609375 L 314.6875 233.574219 C 314.6875 233.574219 266.199219 227.269531 258.910156 224.527344 C 252.453125 222.097656 243.105469 190.460938 242.132812 174.9375 L 240.726562 152.914062 " fill-opacity="1" fill-rule="nonzero"/><path fill="#000000" d="M 314.964844 254.488281 C 314.960938 254.488281 314.960938 254.488281 314.957031 254.488281 L 252.429688 253.878906 C 252.398438 253.878906 252.371094 253.878906 252.339844 253.875 C 245.117188 253.058594 239.105469 247.277344 235.335938 242.570312 C 233.113281 239.800781 230.972656 236.996094 228.972656 234.226562 C 228.6875 233.835938 228.773438 233.285156 229.167969 233.003906 C 229.558594 232.714844 230.109375 232.804688 230.390625 233.199219 C 232.378906 235.941406 234.5 238.726562 236.703125 241.472656 C 240.257812 245.910156 245.882812 251.355469 252.492188 252.125 L 314.078125 252.726562 L 313.820312 234.347656 C 307.421875 233.507812 265.484375 227.9375 258.601562 225.347656 C 252.691406 223.125 245.757812 201.054688 242.933594 186.839844 C 242.839844 186.363281 243.148438 185.902344 243.625 185.808594 C 244.101562 185.714844 244.558594 186.019531 244.65625 186.496094 C 247.875 202.714844 254.648438 221.988281 259.21875 223.707031 C 266.328125 226.378906 314.316406 232.644531 314.800781 232.707031 C 315.234375 232.761719 315.558594 233.125 315.566406 233.5625 L 315.84375 253.597656 C 315.847656 253.832031 315.753906 254.0625 315.585938 254.230469 C 315.421875 254.394531 315.199219 254.488281 314.964844 254.488281 " fill-opacity="1" fill-rule="nonzero"/><path fill="#ffffff" d="M 368.121094 73.277344 C 368.847656 75.175781 370.273438 80.28125 367.925781 83.703125 C 365.816406 86.773438 361.414062 86.898438 358.914062 84.140625 C 357.605469 82.695312 356.964844 80.332031 355.984375 77 C 355.503906 75.359375 354.785156 74.230469 353.996094 73.214844 C 353.476562 72.554688 352.683594 72.167969 351.84375 72.164062 L 344.40625 72.125 C 344.40625 72.125 344.464844 69.226562 346.628906 68.066406 C 348.523438 67.050781 353.425781 67.886719 353.808594 67.308594 C 358.09375 60.859375 365.195312 65.636719 368.121094 73.277344 " fill-opacity="1" fill-rule="nonzero"/><path fill="#000000" d="M 345.414062 71.253906 L 351.847656 71.285156 C 352.96875 71.289062 354 71.796875 354.6875 72.675781 C 355.4375 73.636719 356.273438 74.871094 356.828125 76.753906 L 357.003906 77.347656 C 357.851562 80.246094 358.46875 82.34375 359.566406 83.550781 C 360.621094 84.71875 362.117188 85.328125 363.65625 85.222656 C 365.097656 85.128906 366.390625 84.390625 367.199219 83.207031 C 369.5625 79.769531 367.539062 74.210938 367.300781 73.589844 C 365.535156 68.984375 362.1875 65.53125 359.15625 65.199219 C 357.371094 64.996094 355.8125 65.875 354.539062 67.796875 C 354.109375 68.4375 353.210938 68.429688 351.414062 68.40625 C 349.945312 68.386719 347.929688 68.363281 347.042969 68.839844 C 346.03125 69.382812 345.597656 70.472656 345.414062 71.253906 Z M 363.3125 86.992188 C 361.398438 86.992188 359.582031 86.179688 358.265625 84.730469 C 356.898438 83.226562 356.238281 80.964844 355.320312 77.84375 L 355.144531 77.246094 C 354.675781 75.652344 353.949219 74.585938 353.304688 73.757812 C 352.953125 73.304688 352.417969 73.042969 351.839844 73.039062 L 343.511719 73 L 343.527344 72.105469 C 343.53125 71.96875 343.628906 68.679688 346.214844 67.289062 C 347.5 66.605469 349.679688 66.628906 351.4375 66.652344 C 352.050781 66.65625 352.859375 66.667969 353.214844 66.621094 C 355.265625 63.675781 357.675781 63.265625 359.347656 63.449219 C 363.066406 63.863281 366.917969 67.683594 368.941406 72.960938 C 369.382812 74.121094 371.457031 80.109375 368.648438 84.199219 C 367.527344 85.828125 365.753906 86.839844 363.777344 86.976562 C 363.621094 86.984375 363.464844 86.992188 363.3125 86.992188 " fill-opacity="1" fill-rule="nonzero"/><path fill="#ffffff" d="M 246.410156 444.148438 L 241.851562 466.046875 L 253.785156 469.429688 L 260.382812 448.109375 L 246.410156 444.148438 " fill-opacity="1" fill-rule="nonzero"/><path fill="#000000" d="M 242.878906 465.425781 L 253.199219 468.347656 L 259.277344 448.707031 L 247.078125 445.25 Z M 253.785156 470.304688 C 253.707031 470.304688 253.625 470.296875 253.546875 470.273438 L 241.613281 466.890625 C 241.171875 466.765625 240.898438 466.320312 240.996094 465.867188 L 245.550781 443.96875 C 245.601562 443.734375 245.746094 443.527344 245.957031 443.398438 C 246.164062 443.273438 246.414062 443.238281 246.648438 443.304688 L 260.621094 447.261719 C 260.847656 447.328125 261.039062 447.484375 261.152344 447.6875 C 261.265625 447.898438 261.289062 448.140625 261.21875 448.371094 L 254.621094 469.6875 C 254.503906 470.0625 254.160156 470.304688 253.785156 470.304688 " fill-opacity="1" fill-rule="nonzero"/><path fill="#5479f7" d="M 237.90625 484.5 C 238.042969 486.609375 240.617188 488.296875 242.695312 488.613281 C 249.933594 489.707031 266.941406 489.246094 271.558594 489.566406 C 277.554688 489.980469 288.816406 489.535156 289.25 485.703125 C 289.785156 481.035156 284.757812 474.222656 272.726562 470.492188 C 266.507812 468.5625 259.925781 459 257.011719 458.832031 C 254.101562 458.660156 248.949219 466.210938 248.949219 466.210938 L 240.65625 463.390625 C 240.65625 463.390625 237.222656 473.8125 237.90625 484.5 " fill-opacity="1" fill-rule="nonzero"/><path fill="#000000" d="M 241.234375 464.511719 C 240.457031 467.1875 238.226562 475.785156 238.78125 484.445312 C 238.878906 485.996094 241 487.46875 242.828125 487.746094 C 247.5 488.453125 256.234375 488.5 263.253906 488.539062 C 266.871094 488.5625 269.996094 488.578125 271.621094 488.691406 C 279.484375 489.234375 288.09375 488.125 288.382812 485.605469 C 288.890625 481.121094 283.589844 474.78125 272.46875 471.332031 C 268.824219 470.203125 265.117188 466.644531 262.140625 463.789062 C 260.171875 461.902344 257.941406 459.765625 256.960938 459.707031 C 255.304688 459.613281 251.695312 463.742188 249.671875 466.707031 C 249.449219 467.03125 249.039062 467.167969 248.664062 467.042969 Z M 275.492188 490.558594 C 273.3125 490.558594 271.714844 490.453125 271.5 490.441406 C 269.933594 490.332031 266.832031 490.3125 263.246094 490.296875 C 256.167969 490.257812 247.363281 490.207031 242.566406 489.480469 C 240.03125 489.097656 237.195312 487.105469 237.03125 484.558594 C 236.34375 473.824219 239.683594 463.546875 239.824219 463.113281 C 239.898438 462.890625 240.058594 462.707031 240.265625 462.601562 C 240.476562 462.496094 240.71875 462.480469 240.941406 462.558594 L 248.605469 465.167969 C 250.058594 463.125 254.167969 457.792969 257.0625 457.953125 C 258.6875 458.050781 260.644531 459.925781 263.351562 462.523438 C 266.199219 465.25 269.738281 468.644531 272.988281 469.652344 C 285.578125 473.5625 290.699219 480.765625 290.125 485.804688 C 289.652344 489.929688 280.832031 490.558594 275.492188 490.558594 " fill-opacity="1" fill-rule="nonzero"/><path fill="#000000" d="M 278.457031 484.851562 C 276.863281 484.851562 275.125 484.761719 273.28125 484.667969 C 270.558594 484.523438 267.746094 484.375 264.980469 484.503906 C 258.664062 484.789062 253.261719 484.542969 249.839844 484.28125 C 243.367188 483.789062 243.128906 483.414062 242.941406 483.113281 C 242.773438 482.84375 242.761719 482.503906 242.914062 482.226562 C 243.136719 481.804688 243.648438 481.644531 244.070312 481.855469 C 245.203125 482.128906 253.921875 483.246094 264.902344 482.75 C 267.75 482.617188 270.609375 482.765625 273.371094 482.914062 C 277.515625 483.128906 281.425781 483.332031 283.644531 482.386719 C 284.089844 482.195312 284.605469 482.40625 284.792969 482.847656 C 284.984375 483.296875 284.777344 483.8125 284.332031 484.003906 C 282.792969 484.660156 280.785156 484.851562 278.457031 484.851562 " fill-opacity="1" fill-rule="nonzero"/><path fill="#000000" d="M 263.015625 477.339844 C 262.796875 477.339844 262.574219 477.257812 262.402344 477.09375 C 262.058594 476.753906 262.050781 476.199219 262.390625 475.851562 L 266.757812 471.378906 C 267.09375 471.03125 267.652344 471.023438 267.996094 471.363281 C 268.34375 471.699219 268.351562 472.257812 268.011719 472.601562 L 263.644531 477.078125 C 263.472656 477.253906 263.246094 477.339844 263.015625 477.339844 " fill-opacity="1" fill-rule="nonzero"/><path fill="#ffffff" d="M 181.695312 443.109375 L 181.089844 458.378906 L 191.738281 460.953125 L 193.636719 443.21875 L 181.695312 443.109375 " fill-opacity="1" fill-rule="nonzero"/><path fill="#000000" d="M 181.992188 457.699219 L 190.972656 459.867188 L 192.664062 444.082031 L 182.539062 443.992188 Z M 191.738281 461.832031 C 191.671875 461.832031 191.601562 461.824219 191.535156 461.808594 L 180.882812 459.234375 C 180.476562 459.132812 180.195312 458.765625 180.210938 458.347656 L 180.820312 443.074219 C 180.839844 442.601562 181.257812 442.230469 181.703125 442.230469 L 193.644531 442.339844 C 193.894531 442.339844 194.128906 442.445312 194.292969 442.632812 C 194.457031 442.816406 194.535156 443.0625 194.507812 443.308594 L 192.613281 461.050781 C 192.585938 461.300781 192.449219 461.527344 192.246094 461.675781 C 192.09375 461.777344 191.917969 461.832031 191.738281 461.832031 " fill-opacity="1" fill-rule="nonzero"/><path fill="#5479f7" d="M 193.363281 488.726562 C 189.097656 489.328125 182.128906 489.585938 173.878906 488.71875 C 170.179688 488.328125 168.738281 483.183594 169.386719 480.53125 C 171.199219 473.152344 174.34375 461.25 179.691406 454.765625 L 181.65625 458.722656 L 183.511719 454.863281 C 183.765625 454.40625 184.214844 454.101562 184.730469 454.035156 L 188.730469 454.074219 C 189.570312 453.96875 190.351562 454.527344 190.527344 455.355469 L 191.167969 458.410156 L 194.578125 454.46875 L 197.246094 483.582031 C 197.574219 486.074219 195.84375 488.375 193.363281 488.726562 " fill-opacity="1" fill-rule="nonzero"/><path fill="#000000" d="M 179.53125 456.410156 C 174.496094 463.378906 171.539062 475.4375 170.238281 480.742188 C 169.902344 482.121094 170.246094 484.535156 171.40625 486.191406 C 172.105469 487.183594 172.964844 487.738281 173.972656 487.84375 C 180.917969 488.574219 188.125 488.578125 193.242188 487.855469 C 195.234375 487.578125 196.640625 485.707031 196.375 483.695312 L 193.894531 456.601562 L 191.828125 458.984375 C 191.609375 459.238281 191.265625 459.34375 190.945312 459.257812 C 190.625 459.175781 190.375 458.917969 190.308594 458.589844 L 189.667969 455.535156 C 189.585938 455.15625 189.222656 454.894531 188.839844 454.945312 C 188.800781 454.949219 188.761719 454.953125 188.722656 454.953125 L 184.792969 454.914062 C 184.574219 454.957031 184.386719 455.089844 184.28125 455.289062 L 182.449219 459.105469 C 182.300781 459.40625 181.996094 459.601562 181.664062 459.601562 C 181.660156 459.601562 181.660156 459.601562 181.65625 459.601562 C 181.324219 459.601562 181.019531 459.414062 180.871094 459.117188 Z M 193.363281 488.726562 L 193.371094 488.726562 Z M 184.257812 490.160156 C 181.316406 490.160156 177.804688 490.011719 173.789062 489.589844 C 172.277344 489.429688 170.960938 488.605469 169.972656 487.199219 C 168.453125 485.035156 168.101562 482.101562 168.535156 480.324219 C 170.714844 471.4375 173.875 460.441406 179.015625 454.207031 C 179.207031 453.976562 179.5 453.855469 179.792969 453.890625 C 180.089844 453.925781 180.347656 454.109375 180.476562 454.371094 L 181.644531 456.722656 L 182.722656 454.480469 C 183.132812 453.738281 183.832031 453.265625 184.617188 453.167969 C 184.660156 453.160156 184.703125 453.160156 184.738281 453.160156 L 188.6875 453.195312 C 189.945312 453.070312 191.121094 453.929688 191.382812 455.175781 L 191.660156 456.5 L 193.917969 453.894531 C 194.148438 453.625 194.515625 453.527344 194.847656 453.632812 C 195.183594 453.738281 195.421875 454.039062 195.453125 454.386719 L 198.117188 483.5 C 198.503906 486.429688 196.429688 489.179688 193.488281 489.59375 C 191.957031 489.8125 188.789062 490.160156 184.257812 490.160156 " fill-opacity="1" fill-rule="nonzero"/><path fill="#000000" d="M 181.496094 485.378906 C 178.746094 485.378906 175.773438 485.132812 172.804688 484.453125 C 172.332031 484.347656 172.035156 483.875 172.144531 483.402344 C 172.253906 482.929688 172.722656 482.636719 173.195312 482.742188 C 183.164062 485.023438 193.59375 482.09375 193.695312 482.0625 C 194.160156 481.929688 194.648438 482.199219 194.78125 482.664062 C 194.914062 483.128906 194.644531 483.617188 194.179688 483.75 C 193.863281 483.839844 188.390625 485.378906 181.496094 485.378906 " fill-opacity="1" fill-rule="nonzero"/><path fill="#000000" d="M 179.054688 474.074219 C 178.582031 474.074219 178.195312 473.699219 178.179688 473.226562 C 178.164062 472.742188 178.542969 472.335938 179.027344 472.320312 L 188.625 472 C 189.117188 471.984375 189.515625 472.363281 189.53125 472.847656 C 189.546875 473.332031 189.167969 473.738281 188.683594 473.757812 L 179.085938 474.074219 C 179.074219 474.074219 179.066406 474.074219 179.054688 474.074219 " fill-opacity="1" fill-rule="nonzero"/><path fill="#000000" d="M 294.164062 260.175781 C 298.207031 283.847656 305.550781 342.011719 289.691406 385.519531 C 276.046875 422.964844 266.304688 441.613281 262.5625 448.382812 C 261.535156 450.234375 259.496094 451.265625 257.402344 450.996094 L 247.675781 449.742188 C 244.792969 449.371094 242.785156 446.683594 243.242188 443.804688 C 246.792969 421.527344 260.890625 313.085938 257.136719 303.0625 L 196.722656 445.207031 C 196.070312 446.710938 194.582031 447.683594 192.941406 447.664062 L 182.738281 447.550781 C 180.464844 447.523438 178.652344 445.628906 178.710938 443.347656 C 181.726562 328.300781 215.378906 309.789062 225.238281 254.78125 C 225.261719 254.652344 228.464844 258.523438 228.585938 258.589844 C 238.457031 264.316406 243.398438 263.867188 258.546875 264.695312 C 274.925781 265.59375 290.144531 259.40625 293.734375 259.570312 C 294.007812 259.585938 294.117188 259.90625 294.164062 260.175781 " fill-opacity="1" fill-rule="nonzero"/><path fill="#ffffff" d="M 276.117188 149.972656 L 278.910156 135.636719 C 279.109375 134.675781 279.902344 133.945312 280.878906 133.835938 L 286.492188 133.195312 C 287.691406 133.058594 288.648438 132.136719 288.839844 130.941406 L 290.109375 122.949219 C 290.109375 122.9375 290.117188 122.929688 290.128906 122.921875 L 292.796875 121.476562 C 293.328125 121.1875 293.53125 120.527344 293.257812 119.988281 L 290.449219 114.484375 C 289.898438 113.414062 289.148438 107.367188 287.949219 107.425781 C 287.949219 107.425781 267.746094 100.382812 261.804688 108.777344 C 260.230469 111 260.054688 113.933594 261.121094 116.445312 L 262.480469 119.648438 C 263.894531 122.976562 264.210938 126.714844 263.128906 130.167969 C 262.742188 131.398438 262.203125 132.585938 261.511719 133.699219 L 253.921875 145.554688 C 259.4375 148.324219 265.503906 149.8125 271.671875 149.902344 L 276.117188 149.972656 " fill-opacity="1" fill-rule="nonzero"/><path fill="#000000" d="M 255.191406 145.195312 C 260.328125 147.621094 266.011719 148.941406 271.683594 149.023438 L 275.398438 149.082031 L 278.050781 135.46875 C 278.328125 134.125 279.421875 133.121094 280.777344 132.964844 L 286.394531 132.324219 C 287.195312 132.234375 287.84375 131.609375 287.972656 130.808594 L 289.242188 122.8125 C 289.285156 122.542969 289.472656 122.277344 289.714844 122.148438 L 292.378906 120.703125 C 292.492188 120.644531 292.535156 120.5 292.476562 120.386719 L 289.664062 114.882812 C 289.445312 114.449219 289.265625 113.675781 288.964844 112.347656 C 288.703125 111.191406 288.175781 108.832031 287.75 108.28125 C 287.71875 108.269531 287.691406 108.265625 287.664062 108.253906 C 287.464844 108.1875 268.011719 101.523438 262.519531 109.289062 C 261.175781 111.183594 260.949219 113.796875 261.929688 116.101562 L 263.289062 119.304688 C 264.832031 122.945312 265.074219 126.894531 263.964844 130.429688 C 263.554688 131.742188 262.980469 132.996094 262.257812 134.167969 Z M 276.117188 150.851562 C 276.113281 150.851562 276.109375 150.851562 276.105469 150.851562 L 271.660156 150.78125 C 265.398438 150.691406 259.125 149.152344 253.527344 146.339844 C 253.304688 146.226562 253.140625 146.027344 253.074219 145.785156 C 253.007812 145.546875 253.046875 145.289062 253.183594 145.082031 L 260.773438 133.230469 C 261.414062 132.199219 261.925781 131.078125 262.292969 129.90625 C 263.273438 126.765625 263.054688 123.246094 261.675781 119.992188 L 260.3125 116.789062 C 259.097656 113.925781 259.394531 110.660156 261.089844 108.269531 C 267.15625 99.699219 286.210938 105.90625 288.113281 106.554688 C 289.421875 106.683594 289.949219 108.726562 290.675781 111.964844 C 290.863281 112.792969 291.097656 113.824219 291.226562 114.089844 L 294.039062 119.589844 C 294.523438 120.542969 294.15625 121.738281 293.214844 122.246094 L 290.910156 123.496094 L 289.703125 131.082031 C 289.453125 132.660156 288.175781 133.886719 286.59375 134.066406 L 280.976562 134.707031 C 280.378906 134.773438 279.890625 135.222656 279.769531 135.816406 L 276.980469 150.136719 C 276.898438 150.554688 276.535156 150.851562 276.117188 150.851562 " fill-opacity="1" fill-rule="nonzero"/><path fill="#000000" d="M 272.195312 116.34375 C 271.15625 113.761719 269.535156 112.796875 269.839844 111.328125 C 270.023438 110.445312 270.789062 109.890625 271.222656 109.574219 C 273.382812 108.003906 276.226562 108.960938 281.933594 110.039062 C 289.019531 111.375 289.828125 111.585938 291.167969 111.058594 C 294.566406 109.714844 296.496094 105.527344 296.648438 102.082031 C 296.6875 101.117188 296.773438 95.988281 292.425781 93.34375 C 289.285156 91.433594 285.082031 91.578125 281.683594 93.695312 C 281.386719 92.695312 280.769531 91.296875 279.417969 90.605469 C 276.21875 88.96875 271.445312 92.640625 269.773438 93.925781 C 268.226562 95.113281 265.476562 97.59375 263.5 101.957031 C 262.871094 101.605469 260.507812 100.375 257.925781 101.203125 C 254.09375 102.425781 253.152344 107.117188 253.070312 107.5625 C 252.109375 112.746094 256.367188 117.265625 259.578125 120.679688 C 261.351562 122.5625 262.28125 123.28125 263.320312 123.976562 C 263.933594 124.386719 264.730469 124.417969 265.375 124.058594 C 265.386719 124.050781 265.398438 124.046875 265.410156 124.039062 C 266.261719 123.570312 266.546875 122.480469 266.035156 121.652344 L 265.871094 121.390625 C 265.257812 120.398438 264.839844 119.289062 264.710938 118.132812 C 264.609375 117.207031 264.683594 116.238281 265.277344 115.738281 C 266.234375 114.933594 267.863281 115.460938 268.097656 115.539062 C 269.292969 115.929688 270.042969 116.816406 270.503906 117.660156 C 271 118.5625 272.65625 117.484375 272.195312 116.34375 " fill-opacity="1" fill-rule="nonzero"/><path fill="#000000" d="M 213.84375 91.273438 C 213.648438 93 214.914062 94.585938 216.664062 94.8125 C 217.515625 94.921875 218.351562 94.695312 219.011719 94.171875 C 219.660156 93.664062 220.070312 92.929688 220.160156 92.109375 C 220.355469 90.382812 219.089844 88.796875 217.339844 88.574219 C 216.488281 88.464844 215.652344 88.691406 214.988281 89.214844 C 214.339844 89.722656 213.933594 90.453125 213.84375 91.273438 Z M 217.085938 96.597656 C 216.871094 96.597656 216.65625 96.578125 216.441406 96.554688 C 213.746094 96.207031 211.796875 93.753906 212.097656 91.078125 C 212.246094 89.789062 212.886719 88.632812 213.90625 87.832031 C 214.941406 87.019531 216.238281 86.664062 217.5625 86.835938 C 220.257812 87.175781 222.203125 89.636719 221.90625 92.304688 C 221.757812 93.597656 221.117188 94.75 220.097656 95.550781 C 219.230469 96.234375 218.179688 96.597656 217.085938 96.597656 " fill-opacity="1" fill-rule="nonzero"/><path fill="#000000" d="M 199.441406 105.207031 C 199.289062 105.207031 199.132812 105.164062 198.992188 105.082031 L 195.09375 102.773438 C 194.679688 102.527344 194.539062 101.988281 194.789062 101.570312 C 195.035156 101.152344 195.574219 101.015625 195.988281 101.261719 L 199.886719 103.574219 C 200.304688 103.820312 200.441406 104.359375 200.195312 104.773438 C 200.03125 105.050781 199.738281 105.207031 199.441406 105.207031 " fill-opacity="1" fill-rule="nonzero"/><path fill="#000000" d="M 208.519531 110.585938 C 208.367188 110.585938 208.214844 110.546875 208.074219 110.464844 L 204.175781 108.15625 C 203.757812 107.90625 203.621094 107.367188 203.867188 106.953125 C 204.113281 106.535156 204.652344 106.398438 205.070312 106.644531 L 208.96875 108.953125 C 209.382812 109.199219 209.523438 109.738281 209.273438 110.15625 C 209.109375 110.433594 208.820312 110.585938 208.519531 110.585938 " fill-opacity="1" fill-rule="nonzero"/><path fill="#000000" d="M 198.191406 113.238281 C 198.039062 113.238281 197.886719 113.195312 197.746094 113.113281 C 197.328125 112.867188 197.191406 112.328125 197.4375 111.910156 L 199.742188 108.011719 C 199.992188 107.59375 200.527344 107.453125 200.945312 107.699219 C 201.359375 107.945312 201.5 108.484375 201.253906 108.902344 L 198.945312 112.804688 C 198.78125 113.082031 198.492188 113.238281 198.191406 113.238281 " fill-opacity="1" fill-rule="nonzero"/><path fill="#000000" d="M 203.5625 104.148438 C 203.410156 104.148438 203.257812 104.109375 203.117188 104.023438 C 202.703125 103.777344 202.5625 103.238281 202.808594 102.824219 L 205.117188 98.917969 C 205.363281 98.5 205.898438 98.363281 206.316406 98.609375 C 206.734375 98.859375 206.871094 99.394531 206.625 99.8125 L 204.320312 103.714844 C 204.15625 103.992188 203.863281 104.148438 203.5625 104.148438 " fill-opacity="1" fill-rule="nonzero"/><path fill="#99b9ff" d="M 608.496094 517.179688 L 404.085938 517.179688 C 391.816406 517.179688 382.636719 505.902344 385.105469 493.867188 L 416.121094 342.910156 C 418.726562 330.214844 429.886719 321.105469 442.828125 321.105469 L 618.164062 321.105469 L 608.496094 517.179688 " fill-opacity="1" fill-rule="nonzero"/><path fill="#000000" d="M 442.828125 321.984375 C 430.363281 321.984375 419.488281 330.855469 416.980469 343.085938 L 385.964844 494.046875 C 384.839844 499.523438 386.21875 505.148438 389.75 509.484375 C 393.277344 513.816406 398.503906 516.300781 404.085938 516.300781 L 607.660156 516.300781 L 617.242188 321.984375 Z M 608.5 518.054688 L 404.085938 518.054688 C 397.972656 518.054688 392.253906 515.335938 388.390625 510.59375 C 384.523438 505.847656 383.015625 499.6875 384.246094 493.691406 L 415.261719 342.734375 C 417.9375 329.695312 429.53125 320.226562 442.828125 320.226562 L 618.167969 320.226562 C 618.40625 320.226562 618.636719 320.324219 618.796875 320.5 C 618.96875 320.675781 619.054688 320.90625 619.039062 321.148438 L 609.375 517.222656 C 609.347656 517.691406 608.964844 518.054688 608.5 518.054688 " fill-opacity="1" fill-rule="nonzero"/><path fill="#5479f7" d="M 634.667969 517.179688 L 595 517.179688 C 582.730469 517.179688 573.546875 505.902344 576.019531 493.867188 L 610.179688 327.597656 C 610.953125 323.820312 614.28125 321.105469 618.132812 321.105469 L 628.332031 321.105469 C 632.5625 321.105469 636.085938 324.355469 636.429688 328.578125 L 650.402344 500.085938 C 651.152344 509.292969 643.890625 517.179688 634.667969 517.179688 " fill-opacity="1" fill-rule="nonzero"/><path fill="#000000" d="M 618.128906 321.984375 C 614.710938 321.984375 611.726562 324.417969 611.039062 327.777344 L 576.882812 494.046875 C 575.757812 499.523438 577.136719 505.152344 580.664062 509.488281 C 584.191406 513.816406 589.417969 516.300781 595 516.300781 L 634.671875 516.300781 C 638.878906 516.300781 642.769531 514.59375 645.628906 511.496094 C 648.484375 508.390625 649.867188 504.367188 649.527344 500.160156 L 635.554688 328.648438 C 635.25 324.910156 632.078125 321.984375 628.335938 321.984375 Z M 634.671875 518.054688 L 595 518.054688 C 588.890625 518.054688 583.167969 515.335938 579.304688 510.59375 C 575.441406 505.847656 573.929688 499.6875 575.164062 493.691406 L 609.320312 327.421875 C 610.175781 323.253906 613.882812 320.230469 618.128906 320.230469 L 628.335938 320.230469 C 632.984375 320.230469 636.921875 323.863281 637.300781 328.507812 L 651.277344 500.015625 C 651.652344 504.648438 650.066406 509.265625 646.917969 512.683594 C 643.773438 516.097656 639.308594 518.054688 634.671875 518.054688 " fill-opacity="1" fill-rule="nonzero"/><path fill="#000000" d="M 622.027344 512.15625 L 595 512.15625 C 590.667969 512.15625 586.613281 510.222656 583.871094 506.863281 C 581.132812 503.496094 580.0625 499.128906 580.9375 494.878906 L 592.148438 440.296875 C 592.246094 439.824219 592.710938 439.519531 593.1875 439.617188 C 593.660156 439.714844 593.964844 440.179688 593.867188 440.652344 L 582.65625 495.234375 C 581.886719 498.964844 582.824219 502.800781 585.234375 505.753906 C 587.636719 508.707031 591.195312 510.398438 595 510.398438 L 622.027344 510.398438 C 622.511719 510.398438 622.90625 510.792969 622.90625 511.277344 C 622.90625 511.761719 622.511719 512.15625 622.027344 512.15625 " fill-opacity="1" fill-rule="nonzero"/><path fill="#000000" d="M 634.671875 512.15625 C 634.183594 512.15625 633.792969 511.761719 633.792969 511.277344 C 633.792969 510.792969 634.183594 510.398438 634.671875 510.398438 C 637.214844 510.398438 639.570312 509.367188 641.296875 507.492188 C 643.023438 505.617188 643.859375 503.183594 643.652344 500.640625 L 640.46875 461.550781 C 640.429688 461.070312 640.785156 460.648438 641.273438 460.605469 C 641.757812 460.570312 642.179688 460.925781 642.21875 461.410156 L 645.398438 500.496094 C 645.648438 503.535156 644.648438 506.4375 642.585938 508.679688 C 640.523438 510.921875 637.714844 512.15625 634.671875 512.15625 " fill-opacity="1" fill-rule="nonzero"/><path fill="#000000" d="M 632.480469 353.585938 C 632.03125 353.585938 631.644531 353.238281 631.609375 352.777344 L 630.945312 344.632812 C 630.90625 344.152344 631.265625 343.726562 631.75 343.6875 C 632.230469 343.648438 632.652344 344.007812 632.691406 344.492188 L 633.355469 352.636719 C 633.394531 353.117188 633.035156 353.542969 632.554688 353.582031 C 632.53125 353.585938 632.507812 353.585938 632.480469 353.585938 " fill-opacity="1" fill-rule="nonzero"/><path fill="#000000" d="M 606.585938 375.261719 C 606.527344 375.261719 606.464844 375.257812 606.40625 375.246094 C 605.933594 375.148438 605.628906 374.683594 605.726562 374.207031 L 615.09375 328.613281 C 615.386719 327.171875 616.664062 326.128906 618.132812 326.128906 L 628.332031 326.128906 C 629.9375 326.128906 631.296875 327.382812 631.425781 328.984375 L 631.863281 334.320312 C 631.902344 334.804688 631.546875 335.226562 631.0625 335.265625 C 630.574219 335.304688 630.152344 334.945312 630.117188 334.464844 L 629.683594 329.128906 C 629.625 328.433594 629.035156 327.882812 628.332031 327.882812 L 618.132812 327.882812 C 617.496094 327.882812 616.941406 328.339844 616.8125 328.964844 L 607.445312 374.5625 C 607.355469 374.976562 606.988281 375.261719 606.585938 375.261719 " fill-opacity="1" fill-rule="nonzero"/><path fill="#000000" d="M 580.644531 401.222656 L 420.597656 401.222656 C 420.109375 401.222656 419.71875 400.832031 419.71875 400.347656 C 419.71875 399.863281 420.109375 399.46875 420.597656 399.46875 L 580.644531 399.46875 C 585.003906 399.46875 588.746094 396.503906 589.75 392.257812 L 603.859375 332.621094 C 603.96875 332.148438 604.441406 331.859375 604.910156 331.96875 C 605.386719 332.082031 605.675781 332.554688 605.566406 333.027344 L 591.457031 392.664062 C 590.261719 397.707031 585.820312 401.222656 580.644531 401.222656 " fill-opacity="1" fill-rule="nonzero"/><path fill="#caddff" d="M 518.875 400.347656 L 514.394531 418.457031 C 513.667969 421.519531 510.933594 423.679688 507.789062 423.679688 L 476.09375 423.679688 C 472.644531 423.679688 470.140625 420.386719 471.066406 417.058594 L 475.707031 400.347656 L 518.875 400.347656 " fill-opacity="1" fill-rule="nonzero"/><path fill="#000000" d="M 476.371094 401.222656 L 471.910156 417.292969 C 471.542969 418.617188 471.804688 420 472.636719 421.089844 C 473.464844 422.179688 474.722656 422.804688 476.09375 422.804688 L 507.789062 422.804688 C 510.542969 422.804688 512.90625 420.933594 513.539062 418.253906 L 517.753906 401.222656 Z M 507.789062 424.558594 L 476.09375 424.558594 C 474.167969 424.558594 472.402344 423.679688 471.238281 422.152344 C 470.074219 420.617188 469.707031 418.675781 470.21875 416.824219 L 474.863281 400.113281 C 474.96875 399.730469 475.3125 399.46875 475.707031 399.46875 L 518.875 399.46875 C 519.144531 399.46875 519.398438 399.59375 519.566406 399.804688 C 519.730469 400.015625 519.789062 400.296875 519.726562 400.558594 L 515.242188 418.667969 C 514.421875 422.132812 511.355469 424.558594 507.789062 424.558594 " fill-opacity="1" fill-rule="nonzero"/><path fill="#000000" d="M 566.042969 502.890625 L 396.011719 502.890625 C 395.527344 502.890625 395.136719 502.496094 395.136719 502.011719 C 395.136719 501.527344 395.527344 501.132812 396.011719 501.132812 L 566.042969 501.132812 C 566.527344 501.132812 566.917969 501.527344 566.917969 502.011719 C 566.917969 502.496094 566.527344 502.890625 566.042969 502.890625 " fill-opacity="1" fill-rule="nonzero"/><path fill="#5479f7" d="M 483.21875 314.253906 L 469.945312 314.253906 C 466.359375 314.253906 463.453125 317.164062 463.453125 320.753906 L 489.707031 320.753906 C 489.707031 317.164062 486.800781 314.253906 483.21875 314.253906 " fill-opacity="1" fill-rule="nonzero"/><path fill="#000000" d="M 464.398438 319.878906 L 488.765625 319.878906 C 488.34375 317.195312 486.015625 315.132812 483.21875 315.132812 L 469.945312 315.132812 C 467.148438 315.132812 464.820312 317.195312 464.398438 319.878906 Z M 489.707031 321.632812 L 463.453125 321.632812 C 462.96875 321.632812 462.578125 321.242188 462.578125 320.753906 C 462.578125 316.6875 465.878906 313.375 469.945312 313.375 L 483.21875 313.375 C 487.28125 313.375 490.585938 316.6875 490.585938 320.753906 C 490.585938 321.242188 490.191406 321.632812 489.707031 321.632812 " fill-opacity="1" fill-rule="nonzero"/><path fill="#5479f7" d="M 589.585938 314.253906 L 576.316406 314.253906 C 572.726562 314.253906 569.820312 317.164062 569.820312 320.753906 L 596.078125 320.753906 C 596.078125 317.164062 593.171875 314.253906 589.585938 314.253906 " fill-opacity="1" fill-rule="nonzero"/><path fill="#000000" d="M 570.765625 319.878906 L 595.132812 319.878906 C 594.710938 317.195312 592.386719 315.132812 589.589844 315.132812 L 576.316406 315.132812 C 573.515625 315.132812 571.191406 317.195312 570.765625 319.878906 Z M 596.078125 321.632812 L 569.820312 321.632812 C 569.339844 321.632812 568.945312 321.242188 568.945312 320.753906 C 568.945312 316.6875 572.25 313.375 576.316406 313.375 L 589.589844 313.375 C 593.648438 313.375 596.957031 316.6875 596.957031 320.753906 C 596.957031 321.242188 596.5625 321.632812 596.078125 321.632812 " fill-opacity="1" fill-rule="nonzero"/><path fill="#ffffff" d="M 586.121094 313.90625 L 588.257812 301.183594 C 589.777344 292.160156 583.707031 284.847656 574.691406 284.847656 L 495.109375 284.847656 C 486.097656 284.847656 477.570312 292.160156 476.050781 301.183594 L 473.914062 313.90625 L 480 313.90625 L 481.664062 304.003906 C 482.84375 296.980469 489.488281 291.289062 496.5 291.289062 L 571.136719 291.289062 C 578.148438 291.289062 582.875 296.980469 581.695312 304.003906 L 580.035156 313.90625 L 586.121094 313.90625 " fill-opacity="1" fill-rule="nonzero"/><path fill="#000000" d="M 581.066406 313.027344 L 585.378906 313.027344 L 587.394531 301.039062 C 588.089844 296.890625 587.128906 293.011719 584.683594 290.117188 C 582.289062 287.289062 578.742188 285.726562 574.691406 285.726562 L 495.105469 285.726562 C 486.519531 285.726562 478.359375 292.726562 476.910156 301.328125 L 474.945312 313.027344 L 479.257812 313.027344 L 480.800781 303.859375 C 482.046875 296.445312 489.085938 290.414062 496.496094 290.414062 L 571.136719 290.414062 C 574.753906 290.414062 577.941406 291.824219 580.101562 294.382812 C 582.304688 296.992188 583.179688 300.460938 582.554688 304.148438 Z M 586.121094 314.78125 L 580.027344 314.78125 C 579.773438 314.78125 579.523438 314.667969 579.359375 314.472656 C 579.191406 314.273438 579.121094 314.015625 579.164062 313.761719 L 580.828125 303.859375 C 581.363281 300.6875 580.625 297.726562 578.761719 295.519531 C 576.9375 293.359375 574.226562 292.167969 571.136719 292.167969 L 496.496094 292.167969 C 489.90625 292.167969 483.640625 297.542969 482.527344 304.148438 L 480.863281 314.050781 C 480.792969 314.472656 480.425781 314.78125 480 314.78125 L 473.910156 314.78125 C 473.652344 314.78125 473.40625 314.667969 473.238281 314.472656 C 473.074219 314.273438 473 314.015625 473.042969 313.761719 L 475.183594 301.039062 C 476.765625 291.628906 485.699219 283.972656 495.105469 283.972656 L 574.691406 283.972656 C 579.265625 283.972656 583.292969 285.753906 586.023438 288.984375 C 588.804688 292.277344 589.90625 296.664062 589.121094 301.328125 L 586.984375 314.050781 C 586.914062 314.472656 586.546875 314.78125 586.121094 314.78125 " fill-opacity="1" fill-rule="nonzero"/><path fill="#99b9ff" d="M 570.742188 279.582031 L 500.832031 279.582031 C 498.015625 279.582031 495.347656 281.867188 494.871094 284.691406 L 493.84375 290.804688 C 493.371094 293.625 495.269531 295.910156 498.085938 295.910156 L 567.992188 295.910156 C 570.816406 295.910156 573.484375 293.625 573.957031 290.804688 L 574.984375 284.691406 C 575.457031 281.867188 573.558594 279.582031 570.742188 279.582031 " fill-opacity="1" fill-rule="nonzero"/><path fill="#000000" d="M 527.914062 296.792969 L 498.085938 296.792969 C 496.476562 296.792969 495.054688 296.160156 494.082031 295.007812 C 493.097656 293.839844 492.703125 292.296875 492.980469 290.660156 L 494.003906 284.546875 C 494.550781 281.320312 497.609375 278.703125 500.832031 278.703125 L 524.152344 278.703125 C 524.632812 278.703125 525.023438 279.097656 525.023438 279.582031 C 525.023438 280.066406 524.632812 280.460938 524.152344 280.460938 L 500.832031 280.460938 C 498.425781 280.460938 496.140625 282.421875 495.738281 284.835938 L 494.707031 290.949219 C 494.523438 292.070312 494.773438 293.109375 495.421875 293.875 C 496.054688 294.625 497 295.035156 498.085938 295.035156 L 527.914062 295.035156 C 528.394531 295.035156 528.789062 295.429688 528.789062 295.910156 C 528.789062 296.398438 528.394531 296.792969 527.914062 296.792969 " fill-opacity="1" fill-rule="nonzero"/><path fill="#99b9ff" d="M 594.628906 502.890625 C 594.324219 502.890625 594.027344 502.734375 593.863281 502.445312 C 593.625 502.027344 593.773438 501.492188 594.195312 501.25 L 621.152344 485.871094 L 621.152344 332.824219 C 621.152344 332.339844 621.546875 331.945312 622.027344 331.945312 C 622.511719 331.945312 622.90625 332.339844 622.90625 332.824219 L 622.90625 486.378906 C 622.90625 486.695312 622.734375 486.984375 622.460938 487.140625 L 595.058594 502.773438 C 594.921875 502.855469 594.773438 502.890625 594.628906 502.890625 " fill-opacity="1" fill-rule="nonzero"/><path fill="#000000" d="M 593.5625 317.273438 C 593.5625 317.273438 605.757812 321.820312 610.539062 317.992188 C 615.324219 314.160156 603.128906 307.695312 600.257812 308.175781 C 597.386719 308.652344 593.5625 317.273438 593.5625 317.273438 " fill-opacity="1" fill-rule="nonzero"/><path fill="#ffffff" d="M 532.265625 414.910156 L 543.746094 435.023438 L 549.964844 426.402344 L 539.917969 406.765625 L 532.265625 414.910156 " fill-opacity="1" fill-rule="nonzero"/><path fill="#000000" d="M 533.351562 415.039062 L 543.832031 433.40625 L 548.941406 426.324219 L 539.707031 408.273438 Z M 543.746094 435.898438 C 543.730469 435.898438 543.714844 435.898438 543.699219 435.898438 C 543.402344 435.886719 543.128906 435.71875 542.984375 435.460938 L 531.507812 415.34375 C 531.316406 415.007812 531.363281 414.589844 531.628906 414.308594 L 539.28125 406.164062 C 539.476562 405.957031 539.757812 405.859375 540.042969 405.898438 C 540.324219 405.9375 540.570312 406.113281 540.703125 406.367188 L 550.746094 426.003906 C 550.894531 426.296875 550.867188 426.648438 550.671875 426.917969 L 544.457031 435.539062 C 544.292969 435.765625 544.023438 435.898438 543.746094 435.898438 " fill-opacity="1" fill-rule="nonzero"/><path fill="#000000" d="M 539.769531 431.957031 C 542.796875 438.207031 550.457031 453.363281 557.84375 460.625 C 559.640625 462.394531 562.683594 461.574219 563.332031 459.128906 C 565.640625 450.378906 567.179688 432.148438 558.570312 417.78125 C 558.570312 417.78125 554.476562 417.304688 546.824219 418.738281 L 548.527344 425.925781 L 547.589844 425.253906 C 546.171875 424.238281 544.253906 424.324219 542.933594 425.460938 L 540.726562 427.351562 C 539.398438 428.492188 539.003906 430.378906 539.769531 431.957031 " fill-opacity="1" fill-rule="nonzero"/><path fill="#ffffff" d="M 559.050781 458.890625 C 558.949219 458.890625 558.84375 458.871094 558.738281 458.835938 C 558.289062 458.664062 558.058594 458.15625 558.230469 457.703125 C 564.726562 440.515625 555.945312 420.253906 555.855469 420.050781 C 555.660156 419.609375 555.863281 419.089844 556.304688 418.894531 C 556.746094 418.699219 557.265625 418.902344 557.460938 419.34375 C 557.835938 420.195312 566.617188 440.472656 559.871094 458.324219 C 559.738281 458.671875 559.40625 458.890625 559.050781 458.890625 " fill-opacity="1" fill-rule="nonzero"/><path fill="#ffffff" d="M 544.222656 441.546875 C 543.933594 441.546875 543.652344 441.40625 543.488281 441.144531 C 543.21875 440.742188 543.335938 440.195312 543.742188 439.933594 L 549.484375 436.203125 C 549.890625 435.941406 550.429688 436.054688 550.695312 436.460938 C 550.960938 436.871094 550.84375 437.414062 550.4375 437.679688 L 544.699219 441.40625 C 544.550781 441.5 544.382812 441.546875 544.222656 441.546875 " fill-opacity="1" fill-rule="nonzero"/><path fill="#ffffff" d="M 547.089844 446.652344 C 546.828125 446.652344 546.566406 446.535156 546.394531 446.308594 C 546.101562 445.921875 546.171875 445.371094 546.558594 445.074219 L 551.816406 441.035156 C 552.199219 440.738281 552.753906 440.8125 553.046875 441.195312 C 553.34375 441.578125 553.269531 442.132812 552.886719 442.425781 L 547.625 446.472656 C 547.46875 446.59375 547.277344 446.652344 547.089844 446.652344 " fill-opacity="1" fill-rule="nonzero"/><path fill="#ffffff" d="M 495.914062 415.386719 C 495.914062 415.867188 485.394531 438.855469 485.394531 438.855469 L 497.351562 439.8125 L 505.480469 420.175781 L 495.914062 415.386719 " fill-opacity="1" fill-rule="nonzero"/><path fill="#000000" d="M 486.710938 438.082031 L 496.78125 438.886719 L 504.359375 420.597656 L 496.371094 416.597656 C 495.578125 418.515625 493.296875 423.683594 486.710938 438.082031 Z M 497.351562 440.691406 C 497.328125 440.691406 497.300781 440.691406 497.277344 440.691406 L 485.320312 439.730469 C 485.035156 439.707031 484.78125 439.546875 484.632812 439.300781 C 484.492188 439.050781 484.476562 438.75 484.59375 438.492188 C 488.617188 429.703125 494.6875 416.332031 495.054688 415.214844 C 495.101562 414.976562 495.246094 414.769531 495.453125 414.640625 C 495.710938 414.480469 496.035156 414.46875 496.304688 414.601562 L 505.871094 419.394531 C 506.285156 419.597656 506.46875 420.089844 506.289062 420.511719 L 498.160156 440.148438 C 498.023438 440.480469 497.703125 440.691406 497.351562 440.691406 " fill-opacity="1" fill-rule="nonzero"/><path fill="#000000" d="M 496.394531 434.066406 C 496.394531 434.066406 494 428.320312 487.78125 431.191406 C 487.78125 431.191406 476.367188 447.699219 472.125 461.332031 C 470.925781 465.1875 474.882812 468.660156 478.554688 467 C 487.15625 463.113281 500.636719 454.949219 508.347656 439.8125 C 508.347656 439.8125 505.957031 433.585938 502.132812 430.714844 L 496.394531 434.066406 " fill-opacity="1" fill-rule="nonzero"/><path fill="#ffffff" d="M 475.613281 463.71875 C 475.109375 463.71875 474.816406 463.683594 474.742188 463.671875 C 474.261719 463.601562 473.933594 463.152344 474 462.675781 C 474.074219 462.195312 474.515625 461.863281 474.992188 461.933594 C 475.132812 461.953125 487.691406 463.347656 504.769531 439.777344 C 505.054688 439.386719 505.601562 439.296875 505.992188 439.582031 C 506.386719 439.867188 506.476562 440.414062 506.1875 440.808594 C 490.765625 462.101562 478.871094 463.71875 475.613281 463.71875 " fill-opacity="1" fill-rule="nonzero"/><path fill="#ffffff" d="M 485.390625 450.75 C 485.238281 450.75 485.089844 450.710938 484.949219 450.628906 L 479.210938 447.277344 C 478.792969 447.035156 478.648438 446.492188 478.894531 446.078125 C 479.140625 445.65625 479.675781 445.515625 480.09375 445.761719 L 485.835938 449.113281 C 486.25 449.355469 486.390625 449.898438 486.148438 450.3125 C 485.984375 450.59375 485.691406 450.75 485.390625 450.75 " fill-opacity="1" fill-rule="nonzero"/><path fill="#ffffff" d="M 488.261719 446.4375 C 488.121094 446.4375 487.976562 446.402344 487.847656 446.332031 L 481.628906 442.980469 C 481.199219 442.75 481.042969 442.21875 481.273438 441.792969 C 481.503906 441.363281 482.03125 441.207031 482.457031 441.4375 L 488.679688 444.789062 C 489.105469 445.019531 489.261719 445.550781 489.03125 445.976562 C 488.875 446.273438 488.574219 446.4375 488.261719 446.4375 " fill-opacity="1" fill-rule="nonzero"/><path fill="#ffffff" d="M 557.136719 299.484375 C 557.136719 299.484375 525.960938 305.058594 503.496094 328.648438 C 497.828125 334.601562 495.820312 343.171875 498.253906 351.03125 C 503.242188 367.152344 514.109375 396.597656 532.265625 418.742188 L 546.132812 406.765625 C 546.132812 406.765625 542.785156 378.988281 533.699219 361.746094 C 524.613281 344.507812 577.703125 307.148438 577.703125 307.148438 L 557.136719 299.484375 " fill-opacity="1" fill-rule="nonzero"/><path fill="#000000" d="M 557.058594 300.394531 C 554.179688 300.964844 525.121094 307.210938 504.128906 329.25 C 498.6875 334.972656 496.753906 343.214844 499.09375 350.769531 C 503.894531 366.28125 514.566406 395.425781 532.375 417.484375 L 545.203125 406.410156 C 544.71875 402.71875 541.195312 377.847656 532.925781 362.15625 C 524.308594 345.8125 567.394531 313.519531 575.851562 307.394531 Z M 532.265625 419.617188 C 532.242188 419.617188 532.214844 419.617188 532.191406 419.613281 C 531.957031 419.59375 531.734375 419.480469 531.589844 419.296875 C 513.25 396.925781 502.308594 367.085938 497.417969 351.289062 C 494.890625 343.128906 496.976562 334.21875 502.863281 328.042969 C 525.265625 304.519531 556.667969 298.679688 556.980469 298.625 C 557.136719 298.59375 557.296875 298.609375 557.441406 298.664062 L 578.007812 306.324219 C 578.316406 306.441406 578.53125 306.710938 578.574219 307.039062 C 578.617188 307.359375 578.472656 307.679688 578.207031 307.863281 C 577.683594 308.234375 525.851562 344.972656 534.476562 361.335938 C 543.535156 378.523438 546.972656 406.382812 547.003906 406.664062 C 547.042969 406.953125 546.929688 407.238281 546.707031 407.433594 L 532.835938 419.40625 C 532.679688 419.542969 532.472656 419.617188 532.265625 419.617188 " fill-opacity="1" fill-rule="nonzero"/><path fill="#ffffff" d="M 492.085938 419.699219 L 508.347656 424.488281 C 508.347656 424.488281 538.003906 361.746094 546.617188 352.648438 C 555.222656 343.546875 571.964844 328.699219 589.660156 323.433594 C 607.355469 318.164062 607.355469 304.753906 607.355469 304.753906 L 577.226562 296.132812 C 577.226562 296.132812 535.136719 314.332031 521.261719 334.925781 C 507.394531 355.523438 492.085938 419.699219 492.085938 419.699219 " fill-opacity="1" fill-rule="nonzero"/><path fill="#000000" d="M 493.136719 419.089844 L 507.878906 423.433594 C 511.28125 416.261719 537.753906 360.734375 545.976562 352.042969 C 551.082031 346.648438 569.304688 328.578125 589.410156 322.589844 C 604.230469 318.179688 606.1875 308.09375 606.441406 305.40625 L 577.289062 297.0625 C 573.578125 298.707031 534.964844 316.152344 521.992188 335.414062 C 509.210938 354.398438 494.96875 411.589844 493.136719 419.089844 Z M 508.351562 425.367188 C 508.269531 425.367188 508.183594 425.351562 508.101562 425.328125 L 491.839844 420.539062 C 491.394531 420.410156 491.125 419.949219 491.238281 419.492188 C 491.863281 416.867188 506.738281 354.925781 520.539062 334.4375 C 534.394531 313.863281 575.148438 296.074219 576.875 295.328125 C 577.066406 295.246094 577.269531 295.234375 577.46875 295.289062 L 607.597656 303.910156 C 607.976562 304.015625 608.234375 304.363281 608.234375 304.753906 C 608.234375 304.894531 608.023438 318.882812 589.910156 324.273438 C 570.21875 330.136719 552.28125 347.933594 547.253906 353.25 C 538.835938 362.144531 509.441406 424.238281 509.140625 424.863281 C 508.996094 425.175781 508.683594 425.367188 508.351562 425.367188 " fill-opacity="1" fill-rule="nonzero"/><path fill="#5479f7" d="M 631.75 255.421875 C 623.617188 239.140625 610.226562 236.746094 610.226562 236.746094 L 587.269531 234.828125 C 580.089844 234.34375 572.457031 238.785156 569.625 245.40625 L 548.527344 294.695312 C 548.527344 294.695312 552.832031 306.191406 571.960938 308.105469 C 591.097656 310.023438 604.246094 308.824219 610.464844 316.488281 C 614.566406 321.539062 614.433594 287.847656 612.078125 261.199219 L 631.75 255.421875 " fill-opacity="1" fill-rule="nonzero"/><path fill="#ffffff" d="M 570.53125 298.527344 L 581.054688 293.738281 L 589.183594 297.089844 C 589.183594 297.089844 632.804688 291.554688 613.296875 260.304688 C 613.214844 260.171875 628.625 257.050781 628.625 257.050781 C 628.625 257.050781 646.402344 299.484375 590.140625 300.441406 C 590.140625 300.441406 587.273438 301.398438 583.441406 299.484375 C 579.617188 297.570312 572.917969 301.398438 570.53125 298.527344 " fill-opacity="1" fill-rule="nonzero"/><path fill="#000000" d="M 580.605469 298.042969 C 581.757812 298.042969 582.855469 298.210938 583.832031 298.703125 C 587.25 300.414062 589.761719 299.644531 589.867188 299.609375 C 589.949219 299.582031 590.039062 299.566406 590.121094 299.566406 C 608.378906 299.253906 620.613281 294.535156 626.488281 285.542969 C 633.453125 274.871094 629.199219 261.214844 628.070312 258.058594 C 623.527344 258.980469 617.15625 260.292969 614.65625 260.863281 C 619.464844 268.984375 620.453125 276.144531 617.609375 282.148438 C 611.511719 295.003906 590.195312 297.847656 589.289062 297.960938 C 589.140625 297.984375 588.984375 297.960938 588.847656 297.902344 L 581.066406 294.695312 L 572.390625 298.644531 C 573.535156 298.914062 575.132812 298.675781 576.800781 298.429688 C 578.074219 298.238281 579.367188 298.042969 580.605469 298.042969 Z M 588.21875 301.5625 C 586.910156 301.5625 585.101562 301.296875 583.046875 300.273438 C 581.507812 299.5 579.246094 299.835938 577.054688 300.164062 C 574.296875 300.574219 571.445312 301 569.855469 299.089844 C 569.679688 298.878906 569.613281 298.597656 569.671875 298.332031 C 569.730469 298.066406 569.914062 297.84375 570.164062 297.730469 L 580.683594 292.941406 C 580.90625 292.839844 581.160156 292.835938 581.382812 292.925781 L 589.296875 296.191406 C 591.585938 295.851562 610.660156 292.714844 616.023438 281.394531 C 618.714844 275.714844 617.546875 268.777344 612.554688 260.773438 C 612.402344 260.527344 612.378906 260.222656 612.492188 259.960938 C 612.738281 259.382812 612.742188 259.371094 628.453125 256.191406 C 628.859375 256.109375 629.269531 256.328125 629.429688 256.714844 C 629.71875 257.398438 636.355469 273.621094 627.964844 286.492188 C 621.765625 295.992188 609.085938 300.980469 590.269531 301.320312 C 589.972656 301.402344 589.246094 301.5625 588.21875 301.5625 " fill-opacity="1" fill-rule="nonzero"/><path fill="#5479f7" d="M 611.207031 263.332031 L 632.574219 257.28125 L 631.753906 255.421875 C 631.753906 255.421875 629.324219 253.566406 628.859375 253.566406 C 628.394531 253.566406 616.320312 253.097656 616.320312 253.097656 L 608.882812 255.421875 L 611.207031 263.332031 " fill-opacity="1" fill-rule="nonzero"/><path fill="#000000" d="M 530.242188 301.667969 L 571.726562 301.667969 L 540.972656 254.308594 C 540.011719 252.828125 538.339844 251.929688 536.539062 251.929688 L 502.867188 251.929688 C 500.730469 251.929688 499.429688 254.222656 500.574219 255.980469 L 530.242188 301.667969 " fill-opacity="1" fill-rule="nonzero"/><path fill="#ffffff" d="M 521.972656 268.535156 C 523.320312 270.613281 526.222656 272.296875 528.449219 272.296875 C 530.679688 272.296875 531.390625 270.613281 530.042969 268.535156 C 528.695312 266.460938 525.792969 264.777344 523.566406 264.777344 C 521.339844 264.777344 520.625 266.460938 521.972656 268.535156 " fill-opacity="1" fill-rule="nonzero"/><path fill="#000000" d="M 523.566406 265.65625 C 523.183594 265.65625 522.503906 265.722656 522.265625 266.164062 C 522.042969 266.574219 522.207031 267.28125 522.710938 268.058594 C 523.894531 269.878906 526.519531 271.414062 528.449219 271.414062 C 528.832031 271.414062 529.511719 271.351562 529.75 270.910156 C 529.972656 270.496094 529.808594 269.789062 529.308594 269.015625 C 528.125 267.195312 525.496094 265.65625 523.566406 265.65625 Z M 528.449219 273.175781 C 525.917969 273.175781 522.753906 271.347656 521.238281 269.015625 C 520.367188 267.675781 520.179688 266.332031 520.726562 265.324219 C 521.222656 264.40625 522.230469 263.902344 523.566406 263.902344 C 526.097656 263.902344 529.261719 265.726562 530.777344 268.058594 C 531.648438 269.402344 531.835938 270.742188 531.292969 271.75 C 530.792969 272.667969 529.785156 273.175781 528.449219 273.175781 " fill-opacity="1" fill-rule="nonzero"/><path fill="#000000" d="M 531.300781 305.234375 L 598.839844 305.234375 C 599.503906 305.234375 600.046875 304.695312 600.046875 304.03125 L 600.046875 301.367188 L 530.097656 301.367188 L 530.097656 304.03125 C 530.097656 304.695312 530.636719 305.234375 531.300781 305.234375 " fill-opacity="1" fill-rule="nonzero"/><path fill="#000000" d="M 614.53125 124.671875 C 632.09375 119.117188 654.808594 144.351562 650.234375 165.105469 C 648.972656 170.828125 650.371094 179.488281 644.101562 182.648438 C 632.988281 188.257812 625.996094 181.46875 623.144531 185.976562 C 620.667969 189.886719 629.460938 195.519531 628.402344 203.699219 C 626.832031 215.847656 605.050781 221.710938 602.574219 222.378906 C 600.730469 222.871094 574.734375 229.523438 562.398438 215.667969 C 559.425781 212.335938 555.53125 205.882812 557.617188 201.78125 C 559.601562 197.875 565.699219 198.710938 567.183594 194.597656 C 568.464844 191.035156 564.378906 189.039062 564.789062 185.019531 C 565.589844 177.269531 581.582031 176.863281 583.441406 168.734375 C 584.933594 162.234375 575.636719 158.414062 577.226562 151.972656 C 578.503906 146.777344 585.199219 146.640625 595.878906 139.996094 C 608.671875 132.046875 607.878906 126.777344 614.53125 124.671875 " fill-opacity="1" fill-rule="nonzero"/><path fill="#ffffff" d="M 594.921875 233.390625 C 594.492188 233.179688 588.742188 226.378906 585.371094 222.375 C 585.625 221.261719 585.589844 220.910156 585.496094 219.222656 C 585.496094 219.222656 587.242188 217.476562 586.542969 215.203125 C 585.726562 212.558594 583.222656 214.679688 583.222656 214.679688 C 583.222656 214.679688 582.0625 212.652344 577.703125 216.148438 C 573.34375 219.652344 568.734375 215.394531 568.734375 215.394531 C 568.734375 215.394531 568.734375 218.015625 571.039062 221.203125 C 572.3125 222.960938 572.527344 225.285156 572.585938 227.457031 L 575.027344 227.105469 C 576.375 228.699219 577.375 229.480469 579.222656 230.246094 C 579.222656 230.246094 580.683594 229.976562 582.199219 228.722656 L 584.875 234.828125 L 582.148438 236.265625 C 582.148438 236.265625 581.527344 240.097656 588.703125 241.054688 C 595.878906 242.015625 601.617188 236.265625 601.617188 236.265625 C 601.617188 236.265625 597.789062 234.828125 594.921875 233.390625 " fill-opacity="1" fill-rule="nonzero"/><path fill="#000000" d="M 583.035156 236.789062 C 583.167969 237.621094 584.007812 239.542969 588.824219 240.183594 C 593.75 240.84375 598.03125 238.058594 599.941406 236.554688 C 598.558594 236 596.367188 235.097656 594.53125 234.175781 C 594.269531 234.046875 593.875 233.847656 584.703125 222.9375 C 584.527344 222.726562 584.460938 222.445312 584.519531 222.179688 C 584.730469 221.246094 584.71875 220.984375 584.640625 219.539062 L 584.625 219.273438 C 584.609375 219.023438 584.703125 218.78125 584.878906 218.605469 C 584.929688 218.550781 586.238281 217.183594 585.703125 215.460938 C 585.621094 215.183594 585.46875 214.835938 585.238281 214.773438 C 584.839844 214.652344 584.089844 215.101562 583.792969 215.351562 C 583.578125 215.53125 583.316406 215.652344 583.042969 215.582031 C 582.769531 215.515625 582.574219 215.375 582.464844 215.121094 C 582.464844 215.128906 582.351562 215.011719 582.070312 214.980469 C 581.578125 214.921875 580.425781 215.085938 578.25 216.835938 C 575.355469 219.15625 572.191406 218.511719 570.015625 217.351562 C 570.320312 218.265625 570.839844 219.429688 571.75 220.6875 C 572.953125 222.347656 573.304688 224.398438 573.421875 226.445312 L 574.902344 226.230469 C 575.207031 226.191406 575.503906 226.300781 575.699219 226.535156 C 576.921875 227.980469 577.796875 228.667969 579.296875 229.320312 C 579.71875 229.199219 580.667969 228.851562 581.636719 228.042969 C 581.851562 227.867188 582.132812 227.800781 582.402344 227.867188 C 582.671875 227.929688 582.894531 228.117188 583.003906 228.367188 L 585.679688 234.476562 C 585.867188 234.898438 585.695312 235.390625 585.289062 235.605469 Z M 590.351562 242.039062 C 589.777344 242.039062 589.1875 242.003906 588.589844 241.925781 C 585.449219 241.507812 583.273438 240.5 582.113281 238.9375 C 581.085938 237.558594 581.261719 236.269531 581.277344 236.125 C 581.324219 235.851562 581.496094 235.617188 581.742188 235.488281 L 583.746094 234.433594 L 581.835938 230.070312 C 580.527344 230.886719 579.4375 231.097656 579.382812 231.105469 C 579.214844 231.136719 579.042969 231.117188 578.890625 231.054688 C 577.109375 230.320312 576 229.53125 574.679688 228.039062 L 572.710938 228.320312 C 572.460938 228.359375 572.210938 228.285156 572.023438 228.121094 C 571.828125 227.960938 571.71875 227.726562 571.710938 227.476562 C 571.648438 225.394531 571.445312 223.257812 570.332031 221.714844 C 567.886719 218.335938 567.859375 215.511719 567.859375 215.390625 C 567.855469 215.042969 568.0625 214.726562 568.382812 214.589844 C 568.703125 214.449219 569.074219 214.507812 569.328125 214.746094 C 569.496094 214.898438 573.449219 218.441406 577.152344 215.460938 C 579.300781 213.746094 581.089844 213.007812 582.476562 213.269531 C 582.808594 213.332031 583.078125 213.445312 583.289062 213.570312 C 583.886719 213.210938 584.820312 212.820312 585.734375 213.085938 C 586.273438 213.242188 586.996094 213.695312 587.382812 214.941406 C 588.046875 217.101562 586.9375 218.84375 586.394531 219.527344 C 586.464844 220.769531 586.488281 221.277344 586.320312 222.136719 C 593.671875 230.875 595.109375 232.386719 595.386719 232.640625 C 598.175781 234.03125 601.886719 235.429688 601.925781 235.445312 C 602.207031 235.546875 602.410156 235.789062 602.476562 236.078125 C 602.539062 236.371094 602.449219 236.675781 602.238281 236.882812 C 602.011719 237.113281 597.007812 242.039062 590.351562 242.039062 " fill-opacity="1" fill-rule="nonzero"/><path fill="#ffffff" d="M 582.199219 228.722656 L 582.988281 228.007812 L 582.199219 228.722656 " fill-opacity="1" fill-rule="nonzero"/><path fill="#000000" d="M 582.199219 229.597656 C 581.960938 229.597656 581.722656 229.5 581.550781 229.308594 C 581.222656 228.945312 581.253906 228.394531 581.613281 228.066406 L 582.398438 227.355469 C 582.761719 227.03125 583.316406 227.0625 583.640625 227.421875 C 583.964844 227.777344 583.9375 228.332031 583.578125 228.660156 L 582.789062 229.371094 C 582.621094 229.523438 582.410156 229.597656 582.199219 229.597656 " fill-opacity="1" fill-rule="nonzero"/><path fill="#99b9ff" d="M 351.34375 150.382812 L 325.671875 209.878906 L 348.367188 202.378906 L 360.894531 222.804688 L 376.296875 159.246094 L 351.34375 150.382812 " fill-opacity="1" fill-rule="nonzero"/><path fill="#99b9ff" d="M 373.957031 161.453125 L 391.519531 223.832031 L 404.402344 203.675781 L 426.988281 211.613281 L 398.898438 152.570312 L 373.957031 161.453125 " fill-opacity="1" fill-rule="nonzero"/><path fill="#5479f7" d="M 424.996094 135.167969 L 417.984375 143.683594 L 421.21875 154.230469 L 411.480469 159.394531 L 410.429688 170.378906 L 399.460938 171.4375 L 394.300781 181.1875 L 383.769531 177.949219 L 375.265625 184.96875 L 366.761719 177.949219 L 356.226562 181.1875 L 351.070312 171.433594 L 340.097656 170.378906 L 339.046875 159.394531 L 329.308594 154.230469 L 332.542969 143.683594 L 325.535156 135.167969 L 332.542969 126.65625 L 329.308594 116.105469 L 339.046875 110.941406 L 340.101562 99.957031 L 351.070312 98.902344 L 356.226562 89.152344 L 366.761719 92.386719 L 375.265625 85.371094 L 383.769531 92.386719 L 394.300781 89.152344 L 399.460938 98.902344 L 410.429688 99.957031 L 411.480469 110.941406 L 421.21875 116.105469 L 417.984375 126.65625 L 424.996094 135.167969 " fill-opacity="1" fill-rule="nonzero"/><path fill="#caddff" d="M 410.175781 135.46875 C 410.175781 154.945312 394.410156 170.734375 374.964844 170.734375 C 355.515625 170.734375 339.75 154.945312 339.75 135.46875 C 339.75 115.996094 355.515625 100.210938 374.964844 100.210938 C 394.410156 100.210938 410.175781 115.996094 410.175781 135.46875 " fill-opacity="1" fill-rule="nonzero"/><path fill="#000000" d="M 373.003906 158.050781 C 372.121094 158.050781 371.28125 157.648438 370.722656 156.957031 L 354.980469 137.300781 C 353.96875 136.039062 354.171875 134.199219 355.429688 133.1875 C 356.691406 132.175781 358.53125 132.378906 359.542969 133.640625 L 372.613281 149.953125 L 390.4375 119.03125 C 391.246094 117.632812 393.03125 117.152344 394.429688 117.960938 C 395.828125 118.765625 396.308594 120.554688 395.503906 121.953125 L 375.539062 156.585938 C 375.054688 157.421875 374.191406 157.96875 373.226562 158.042969 C 373.152344 158.046875 373.078125 158.050781 373.003906 158.050781 " fill-opacity="1" fill-rule="nonzero"/><path fill="#5479f7" d="M 514.242188 130.957031 L 507.816406 131.953125 L 503.65625 127.433594 C 502.761719 126.460938 501.039062 126.976562 500.738281 128.304688 L 499.351562 134.476562 L 493.371094 137.183594 C 492.085938 137.765625 491.957031 139.484375 493.152344 140.089844 L 498.722656 142.910156 L 499.183594 149.101562 C 499.285156 150.433594 500.929688 150.980469 501.964844 150.027344 L 506.796875 145.597656 L 513.0625 146.714844 C 514.410156 146.957031 515.554688 145.578125 515 144.386719 L 512.417969 138.824219 L 515.828125 133.324219 C 516.558594 132.144531 515.625 130.746094 514.242188 130.957031 " fill-opacity="1" fill-rule="nonzero"/><path fill="#5479f7" d="M 539.453125 117.1875 L 533.136719 118.4375 L 528.882812 114.03125 C 527.96875 113.085938 526.28125 113.671875 526.035156 115.027344 L 524.855469 121.320312 L 519.03125 124.285156 C 517.777344 124.925781 517.707031 126.664062 518.90625 127.234375 L 524.496094 129.871094 L 525.148438 136.113281 C 525.289062 137.453125 526.929688 137.945312 527.925781 136.941406 L 532.558594 132.277344 L 538.785156 133.164062 C 540.125 133.355469 541.210938 131.917969 540.621094 130.734375 L 537.898438 125.210938 L 541.09375 119.519531 C 541.78125 118.296875 540.8125 116.917969 539.453125 117.1875 " fill-opacity="1" fill-rule="nonzero"/><path fill="#5479f7" d="M 566.832031 105.6875 L 560.582031 106.652344 L 556.605469 101.964844 C 555.75 100.957031 554.066406 101.46875 553.761719 102.835938 L 552.332031 109.179688 L 546.484375 111.910156 C 545.226562 112.5 545.078125 114.265625 546.234375 114.902344 L 551.597656 117.859375 L 551.964844 124.238281 C 552.042969 125.613281 553.632812 126.1875 554.652344 125.21875 L 559.402344 120.703125 L 565.472656 121.910156 C 566.777344 122.167969 567.90625 120.757812 567.382812 119.523438 L 564.953125 113.773438 L 568.339844 108.140625 C 569.066406 106.933594 568.179688 105.480469 566.832031 105.6875 " fill-opacity="1" fill-rule="nonzero"/><path fill="#99b9ff" d="M 593.246094 94.46875 L 587.039062 95.695312 L 582.867188 91.175781 C 581.972656 90.207031 580.316406 90.789062 580.066406 92.164062 L 578.902344 98.5625 L 573.175781 101.542969 C 571.949219 102.179688 571.871094 103.953125 573.050781 104.539062 L 578.535156 107.269531 L 579.171875 113.625 C 579.304688 114.996094 580.917969 115.503906 581.894531 114.492188 L 586.453125 109.78125 L 592.566406 110.730469 C 593.882812 110.933594 594.953125 109.476562 594.375 108.265625 L 591.707031 102.625 L 594.851562 96.855469 C 595.53125 95.613281 594.578125 94.203125 593.246094 94.46875 " fill-opacity="1" fill-rule="nonzero"/></svg>