<svg xmlns="http://www.w3.org/2000/svg" xmlns:xlink="http://www.w3.org/1999/xlink" width="1080" zoomAndPan="magnify" viewBox="0 0 810 562.499983" height="750" preserveAspectRatio="xMidYMid meet" version="1.0"><path fill="#f5f5f5" d="M 610.304688 93.367188 L 632.050781 72.59375 L 695.398438 72.59375 L 695.398438 32.394531 L 598.914062 32.394531 L 598.914062 72.59375 L 610.304688 72.59375 Z M 666.230469 46.878906 C 668.917969 46.878906 671.097656 49.058594 671.097656 51.75 C 671.097656 54.4375 668.917969 56.617188 666.230469 56.617188 C 663.542969 56.617188 661.359375 54.4375 661.359375 51.75 C 661.359375 49.058594 663.539062 46.878906 666.230469 46.878906 Z M 648.359375 46.878906 C 651.046875 46.878906 653.226562 49.058594 653.226562 51.75 C 653.226562 54.4375 651.050781 56.617188 648.359375 56.617188 C 645.671875 56.617188 643.492188 54.4375 643.492188 51.75 C 643.492188 49.058594 645.671875 46.878906 648.359375 46.878906 Z M 630.488281 46.878906 C 633.175781 46.878906 635.359375 49.058594 635.359375 51.75 C 635.359375 54.4375 633.179688 56.617188 630.488281 56.617188 C 627.800781 56.617188 625.621094 54.4375 625.621094 51.75 C 625.621094 49.058594 627.800781 46.878906 630.488281 46.878906 Z M 630.488281 46.878906 " fill-opacity="1" fill-rule="nonzero"/><path fill="#f5f5f5" d="M 699.113281 321.671875 C 697.367188 320.023438 695.613281 318.371094 694.167969 317.011719 C 693.980469 317.710938 693.640625 318.378906 693.109375 318.941406 C 687.164062 325.253906 674.269531 338.945312 668.328125 345.253906 C 667.898438 345.707031 667.398438 346.054688 666.863281 346.292969 C 668.277344 347.625 669.972656 349.222656 671.664062 350.8125 C 676.03125 354.925781 682.910156 354.722656 687.023438 350.355469 C 690.921875 346.21875 695.679688 341.164062 699.574219 337.03125 C 703.6875 332.660156 703.480469 325.785156 699.113281 321.671875 Z M 699.113281 321.671875 " fill-opacity="1" fill-rule="nonzero"/><path fill="#f5f5f5" d="M 661.90625 345.445312 C 659.253906 342.949219 655.558594 339.464844 652.90625 336.96875 C 651.082031 335.25 650.996094 332.375 652.714844 330.550781 C 658.660156 324.238281 671.554688 310.546875 677.5 304.238281 C 677.730469 303.992188 677.980469 303.785156 678.246094 303.605469 C 678.300781 303.570312 678.355469 303.546875 678.40625 303.515625 C 678.636719 303.371094 678.871094 303.246094 679.113281 303.148438 C 679.148438 303.136719 679.183594 303.125 679.21875 303.113281 C 679.496094 303.011719 679.777344 302.9375 680.066406 302.886719 C 680.070312 302.886719 680.082031 302.886719 680.085938 302.886719 C 680.402344 302.835938 680.714844 302.820312 681.03125 302.835938 L 672.734375 295.019531 C 672.597656 287.8125 671.625 274.78125 671.175781 264.027344 C 670.578125 264.277344 669.96875 264.527344 669.3125 264.78125 C 675.800781 262.257812 679.378906 260.105469 681.125 258.09375 C 693.222656 247.8125 688.542969 226.359375 688.242188 225.039062 L 692.042969 224.886719 C 691.730469 219.765625 691.359375 214.652344 690.972656 209.539062 C 690.453125 203.503906 689.945312 197.46875 689.195312 191.449219 C 688.484375 185.777344 684.867188 181.191406 680.027344 178.964844 C 680.035156 178.921875 680.039062 178.894531 680.039062 178.894531 C 668.519531 173.917969 657.269531 170.675781 646.113281 169.167969 L 646.246094 169.964844 L 642.09375 144.457031 C 643.511719 143.375 644.488281 141.882812 644.789062 140.125 C 645.0625 138.507812 644.917969 136.945312 644.464844 135.601562 C 645.8125 132.003906 646.226562 128.183594 645.769531 124.480469 C 651.28125 123.503906 655.472656 118.703125 655.472656 112.910156 C 655.472656 106.414062 650.207031 101.144531 643.710938 101.144531 C 639.449219 101.144531 635.726562 103.421875 633.664062 106.816406 C 623.027344 101.351562 607.492188 105.117188 602.410156 118.898438 C 602.675781 119.035156 602.9375 119.125 603.203125 119.230469 C 603.203125 119.230469 603.199219 119.230469 603.199219 119.230469 C 602.628906 121.21875 602.347656 123.328125 602.425781 125.507812 L 603.195312 146.4375 C 603.457031 153.257812 607.957031 159.503906 614.851562 161.621094 C 615.226562 161.734375 615.601562 161.816406 615.980469 161.90625 L 616.550781 169.289062 C 606.824219 170.699219 597.058594 173.460938 587.140625 177.601562 C 587.121094 177.609375 587.105469 177.621094 587.089844 177.628906 C 585.835938 178.0625 584.648438 178.671875 583.542969 179.417969 L 583.542969 75.339844 C 583.542969 64.339844 574.625 55.421875 563.625 55.421875 L 496.09375 55.421875 C 496.09375 54.582031 496.09375 53.449219 496.09375 51.757812 C 496.09375 48.109375 494.648438 44.613281 492.070312 42.035156 C 489.488281 39.457031 485.996094 38.007812 482.347656 38.007812 L 434.796875 38.007812 C 434.796875 38.007812 430.667969 15.660156 410.125 15.207031 L 410.070312 15.160156 C 409.726562 15.160156 409.394531 15.195312 409.054688 15.207031 C 408.882812 15.210938 408.71875 15.199219 408.546875 15.207031 L 408.574219 15.230469 C 396.230469 15.96875 386.300781 25.726562 385.34375 38.007812 L 337.792969 38.007812 C 334.144531 38.007812 330.648438 39.457031 328.070312 42.035156 C 325.492188 44.613281 324.042969 48.109375 324.042969 51.757812 C 324.042969 53.449219 324.042969 54.582031 324.042969 55.421875 L 253.46875 55.421875 C 242.46875 55.421875 233.546875 64.339844 233.546875 75.339844 L 233.546875 219.585938 L 137.386719 219.585938 L 137.386719 268.296875 L 214.140625 268.296875 L 240.492188 293.460938 L 233.550781 286.832031 L 233.550781 352.367188 L 211.671875 347.332031 C 218.867188 347.273438 225.25 346.832031 228.929688 345.699219 C 228.738281 335.78125 226.734375 325.917969 223.398438 316.589844 C 221.742188 311.953125 219.746094 307.433594 217.433594 303.085938 C 216.308594 300.964844 215.234375 298.921875 213.925781 297.078125 C 213.1875 295.792969 212.320312 294.605469 211.3125 293.558594 C 207.367188 289.421875 201.582031 287.242188 195.605469 288.039062 C 194.574219 288.179688 193.5625 288.394531 192.589844 288.695312 C 192.589844 288.695312 168.6875 293.269531 155.851562 343.433594 L 168.574219 345.273438 L 171.953125 336.230469 L 170.984375 345.273438 C 170.984375 345.273438 177.15625 345.871094 185.578125 346.421875 L 184.746094 329.515625 L 185.621094 347.289062 L 185.707031 347.269531 L 153.265625 354.953125 C 151.75 355.203125 150.246094 355.613281 148.800781 356.214844 C 143.621094 358.375 139.582031 362.59375 137.648438 367.871094 C 130.996094 385.980469 122.324219 409.59375 122.324219 409.59375 L 124.753906 410.390625 C 124.28125 411.945312 123.8125 413.496094 123.335938 415.070312 C 120.054688 425.914062 116.71875 437.042969 113.636719 447.25 C 113.132812 448.886719 112.875 450.566406 112.804688 452.246094 C 112.355469 455.0625 112.550781 457.976562 113.460938 460.742188 C 115.175781 465.96875 118.785156 469.703125 123.253906 471.792969 C 123.253906 471.792969 123.25 471.792969 123.25 471.792969 C 119.824219 475.632812 117.554688 480.414062 116.816406 485.589844 C 114.914062 498.914062 123.335938 511.363281 136.105469 514.757812 C 136.101562 514.835938 136.097656 514.910156 136.09375 514.984375 C 136.085938 515.085938 136.082031 515.179688 136.078125 515.277344 C 136.078125 515.335938 136.074219 515.402344 136.070312 515.457031 C 136.070312 515.472656 136.070312 515.488281 136.070312 515.503906 C 136.0625 515.671875 136.058594 515.816406 136.054688 515.953125 C 136.054688 515.964844 136.050781 515.980469 136.050781 515.992188 C 136.050781 516.027344 136.050781 516.050781 136.046875 516.082031 C 136.039062 516.410156 136.039062 516.609375 136.039062 516.609375 C 136.039062 516.609375 133.839844 518.570312 131.113281 520.671875 C 128.875 522.402344 126.273438 524.226562 124.238281 525.136719 C 114.457031 529.546875 106.238281 536.007812 108.453125 541.023438 C 111.171875 547.1875 121.136719 547.398438 132.921875 542.890625 C 133.765625 542.566406 134.617188 542.21875 135.472656 541.851562 C 136.332031 541.480469 137.199219 541.089844 138.070312 540.671875 C 142.886719 538.371094 149.074219 537.191406 153.746094 536.445312 C 154.902344 536.261719 155.960938 536.101562 156.886719 535.960938 C 157.074219 535.933594 157.246094 535.90625 157.425781 535.878906 C 157.550781 535.859375 157.683594 535.835938 157.804688 535.820312 C 157.804688 535.820312 157.808594 535.820312 157.808594 535.816406 C 159.84375 535.5 166.492188 535.25 173.140625 535.066406 L 172.460938 532.03125 L 173.746094 537.785156 C 173.746094 537.785156 195.242188 534.070312 221.191406 529.585938 C 238.03125 532.496094 249.988281 534.5625 249.988281 534.5625 L 250.765625 531.078125 C 250.246094 531.027344 249.722656 530.984375 249.203125 530.9375 C 255.8125 531.519531 262.398438 532.171875 264.390625 532.609375 C 264.507812 532.636719 264.640625 532.664062 264.765625 532.691406 C 264.941406 532.730469 265.109375 532.769531 265.296875 532.808594 C 269.914062 533.804688 277.96875 535.421875 283.792969 538.652344 C 297.300781 546.148438 309.804688 547.640625 313.335938 540.800781 C 315.847656 535.929688 308.042969 528.980469 298.542969 523.984375 C 294.351562 521.796875 287.878906 515.355469 287.335938 514.8125 C 287.566406 515.042969 288.546875 516.015625 289.894531 517.261719 C 296.914062 514.699219 302.367188 509.308594 305.144531 502.648438 L 563.625 502.648438 C 573.203125 502.648438 581.195312 495.886719 583.105469 486.882812 L 583 489.390625 L 583.625 489.390625 C 583.164062 495.152344 582.316406 499.019531 581.027344 502.257812 C 581.03125 502.25 581.039062 502.242188 581.046875 502.234375 C 576.953125 507.347656 566.226562 513.863281 557.914062 517.902344 L 561.527344 523.539062 L 557.914062 517.902344 C 556.652344 518.515625 555.441406 519.070312 554.320312 519.558594 C 549.394531 521.695312 548.148438 524.15625 547.832031 526.527344 C 547.667969 527.777344 548.648438 528.886719 549.910156 528.886719 L 602.601562 528.886719 C 603.695312 528.886719 604.605469 528.046875 604.6875 526.957031 C 604.75 526.066406 604.816406 524.890625 604.847656 523.539062 C 604.953125 519.085938 604.695312 512.582031 602.851562 506.898438 C 602.820312 501.53125 603.570312 494.335938 604.183594 489.390625 L 606.550781 489.390625 C 611.675781 472.378906 623.578125 430.429688 617.769531 400.292969 L 630.492188 314.066406 L 633.757812 317.140625 L 639.015625 489.390625 L 640.335938 489.390625 C 640.328125 489.757812 640.308594 490.113281 640.308594 490.496094 C 640.308594 497.203125 639.914062 502.339844 639.589844 509.488281 C 639.5625 510.023438 639.539062 510.570312 639.515625 511.132812 C 639.507812 511.339844 639.5 511.558594 639.492188 511.769531 C 639.480469 512.089844 639.46875 512.402344 639.453125 512.730469 C 639.441406 513.074219 639.429688 513.429688 639.414062 513.785156 C 639.410156 513.992188 639.402344 514.195312 639.394531 514.40625 C 639.378906 514.828125 639.367188 515.261719 639.351562 515.703125 C 639.347656 515.828125 639.347656 515.957031 639.34375 516.082031 C 639.25 519.195312 639.183594 522.695312 639.167969 526.785156 C 639.160156 527.941406 640.097656 528.890625 641.257812 528.890625 L 677.949219 528.890625 C 679.226562 528.890625 680.226562 527.75 680.019531 526.488281 C 679.242188 521.738281 676.1875 518.394531 672.707031 515.222656 C 672.710938 515.222656 672.710938 515.222656 672.714844 515.222656 C 672.589844 515.109375 672.460938 514.996094 672.332031 514.882812 C 671.28125 513.9375 670.207031 513 669.140625 512.042969 C 668.894531 511.820312 668.644531 511.59375 668.402344 511.367188 C 668.136719 511.125 667.878906 510.882812 667.621094 510.636719 C 667.359375 510.390625 667.101562 510.136719 666.84375 509.882812 C 666.609375 509.648438 666.375 509.417969 666.148438 509.179688 C 665.886719 508.90625 665.632812 508.625 665.382812 508.34375 C 665.175781 508.113281 664.964844 507.878906 664.765625 507.640625 C 664.507812 507.335938 664.265625 507.019531 664.023438 506.699219 C 663.847656 506.46875 663.667969 506.246094 663.503906 506.007812 C 663.246094 505.644531 663.015625 505.261719 662.78125 504.878906 C 662.652344 504.671875 662.515625 504.472656 662.394531 504.257812 C 662.058594 503.660156 661.753906 503.042969 661.488281 502.394531 C 661.484375 502.382812 661.476562 502.375 661.476562 502.367188 C 661.363281 502.097656 661.273438 501.832031 661.175781 501.5625 C 659.691406 497.535156 659.453125 493.472656 659.597656 489.394531 L 662.519531 489.394531 C 664.484375 477.679688 668.195312 455.203125 669.976562 441.859375 C 672.460938 423.207031 668.78125 395.792969 668.78125 395.792969 L 669.699219 348.964844 C 668.695312 348.019531 667.726562 347.105469 666.863281 346.292969 C 665.242188 347.007812 663.277344 346.738281 661.90625 345.445312 Z M 641.183594 509.816406 C 641.296875 509.820312 641.410156 509.824219 641.523438 509.820312 C 641.410156 509.824219 641.296875 509.820312 641.183594 509.816406 Z M 645.070312 508.25 C 645.339844 508.019531 645.609375 507.769531 645.878906 507.476562 C 646.226562 507.105469 646.578125 506.753906 646.929688 506.410156 C 646.578125 506.753906 646.226562 507.105469 645.878906 507.476562 C 645.609375 507.769531 645.339844 508.019531 645.070312 508.25 Z M 641.851562 509.792969 C 641.980469 509.78125 642.113281 509.757812 642.246094 509.734375 C 642.113281 509.757812 641.980469 509.78125 641.851562 509.792969 Z M 642.542969 509.671875 C 642.773438 509.609375 643.003906 509.535156 643.238281 509.433594 C 643.003906 509.53125 642.769531 509.609375 642.542969 509.671875 Z M 643.414062 509.34375 C 643.609375 509.253906 643.804688 509.152344 644.003906 509.03125 C 643.804688 509.152344 643.609375 509.253906 643.414062 509.34375 Z M 644.269531 508.863281 C 644.453125 508.738281 644.636719 508.601562 644.824219 508.453125 C 644.636719 508.601562 644.449219 508.738281 644.269531 508.863281 Z M 660.464844 501.355469 C 659.402344 501.082031 658.34375 500.96875 657.285156 501.023438 C 656.632812 501.058594 655.980469 501.152344 655.328125 501.304688 C 654.957031 501.390625 654.589844 501.5 654.21875 501.625 C 656.285156 500.929688 658.375 500.816406 660.464844 501.355469 Z M 647.253906 506.101562 C 647.503906 505.867188 647.75 505.640625 648 505.421875 C 647.75 505.640625 647.503906 505.871094 647.253906 506.101562 Z M 648.371094 505.097656 C 648.617188 504.890625 648.867188 504.6875 649.117188 504.492188 C 648.867188 504.6875 648.617188 504.890625 648.371094 505.097656 Z M 649.453125 504.226562 C 649.808594 503.957031 650.164062 503.699219 650.523438 503.460938 C 650.167969 503.699219 649.808594 503.957031 649.453125 504.226562 Z M 650.542969 503.453125 C 650.898438 503.214844 651.257812 503 651.621094 502.796875 C 651.257812 503 650.898438 503.214844 650.542969 503.453125 Z M 651.957031 502.613281 C 652.214844 502.476562 652.46875 502.347656 652.726562 502.226562 C 652.46875 502.347656 652.214844 502.476562 651.957031 502.613281 Z M 653.105469 502.054688 C 653.363281 501.941406 653.625 501.839844 653.882812 501.742188 C 653.625 501.839844 653.363281 501.941406 653.105469 502.054688 Z M 381.800781 374.511719 L 381.800781 373.648438 C 381.800781 373.027344 381.988281 372.453125 382.3125 371.976562 C 381.988281 372.453125 381.800781 373.027344 381.800781 373.648438 L 381.800781 374.511719 C 381.800781 375.132812 381.988281 375.707031 382.3125 376.183594 C 381.988281 375.707031 381.800781 375.132812 381.800781 374.511719 Z M 381.800781 159 C 381.800781 158.382812 381.988281 157.808594 382.3125 157.328125 C 381.988281 157.804688 381.800781 158.382812 381.800781 159 L 381.800781 159.867188 C 381.800781 160.488281 381.988281 161.0625 382.3125 161.539062 C 381.988281 161.0625 381.800781 160.484375 381.800781 159.867188 Z M 382.675781 161.980469 C 383.21875 162.523438 383.964844 162.859375 384.789062 162.859375 L 496.378906 162.859375 C 497.035156 162.859375 497.636719 162.640625 498.128906 162.285156 C 497.636719 162.640625 497.035156 162.859375 496.378906 162.859375 L 384.789062 162.859375 C 383.964844 162.855469 383.21875 162.523438 382.675781 161.980469 Z M 496.378906 156.011719 C 496.585938 156.011719 496.789062 156.03125 496.980469 156.070312 C 496.789062 156.03125 496.585938 156.011719 496.378906 156.011719 Z M 382.3125 288.5625 C 381.988281 288.085938 381.800781 287.507812 381.800781 286.890625 L 381.800781 286.023438 C 381.800781 285.480469 381.960938 284.972656 382.214844 284.53125 C 381.957031 284.972656 381.800781 285.480469 381.800781 286.023438 L 381.800781 286.890625 C 381.800781 287.507812 381.988281 288.085938 382.3125 288.5625 Z M 383.027344 274.613281 C 383.503906 274.933594 384.078125 275.125 384.699219 275.125 L 501.839844 275.125 C 502.457031 275.125 503.03125 274.933594 503.511719 274.613281 C 503.03125 274.933594 502.457031 275.125 501.839844 275.125 L 384.699219 275.125 C 384.078125 275.125 383.503906 274.9375 383.027344 274.613281 Z M 501.839844 268.277344 C 502.457031 268.277344 503.03125 268.46875 503.511719 268.789062 C 503.035156 268.46875 502.457031 268.277344 501.839844 268.277344 Z M 384.097656 268.339844 C 384.289062 268.300781 384.492188 268.277344 384.699219 268.277344 C 384.492188 268.277344 384.292969 268.300781 384.097656 268.339844 Z M 382.3125 216.542969 C 381.988281 216.066406 381.800781 215.492188 381.800781 214.871094 L 381.800781 214.003906 C 381.800781 213.382812 381.988281 212.808594 382.3125 212.332031 C 381.988281 212.808594 381.800781 213.386719 381.800781 214.003906 L 381.800781 214.871094 C 381.800781 215.492188 381.988281 216.066406 382.3125 216.542969 Z M 382.3125 227.089844 C 381.988281 227.566406 381.800781 228.140625 381.800781 228.761719 L 381.800781 229.625 C 381.800781 230.246094 381.988281 230.820312 382.3125 231.296875 C 381.988281 230.820312 381.800781 230.246094 381.800781 229.625 L 381.800781 228.761719 C 381.800781 228.140625 381.988281 227.566406 382.3125 227.089844 Z M 381.800781 300.78125 C 381.800781 300.160156 381.988281 299.585938 382.3125 299.109375 C 381.988281 299.585938 381.800781 300.160156 381.800781 300.78125 L 381.800781 301.648438 C 381.800781 302.195312 381.960938 302.699219 382.214844 303.140625 C 381.957031 302.699219 381.800781 302.195312 381.800781 301.648438 Z M 523.097656 299.109375 C 523.421875 299.585938 523.609375 300.160156 523.609375 300.78125 C 523.609375 300.160156 523.421875 299.585938 523.097656 299.109375 Z M 523.550781 302.25 C 523.484375 302.570312 523.355469 302.863281 523.195312 303.140625 C 523.355469 302.863281 523.484375 302.570312 523.550781 302.25 Z M 382.675781 216.984375 C 383.21875 217.527344 383.964844 217.863281 384.789062 217.863281 L 496.378906 217.863281 C 497.035156 217.863281 497.636719 217.644531 498.128906 217.289062 C 497.636719 217.644531 497.035156 217.863281 496.378906 217.863281 L 384.789062 217.863281 C 383.964844 217.859375 383.21875 217.527344 382.675781 216.984375 Z M 515.578125 202.773438 C 515.464844 202.832031 515.347656 202.882812 515.226562 202.925781 C 515.347656 202.882812 515.464844 202.832031 515.578125 202.773438 Z M 517.046875 201.105469 C 517.003906 201.226562 516.953125 201.34375 516.894531 201.457031 C 516.953125 201.34375 517.003906 201.226562 517.046875 201.105469 Z M 521.433594 142.574219 C 521.757812 143.050781 521.945312 143.625 521.945312 144.242188 L 521.945312 145.109375 C 521.945312 145.933594 521.609375 146.683594 521.070312 147.222656 C 520.847656 147.445312 520.582031 147.621094 520.296875 147.765625 C 520.582031 147.621094 520.847656 147.445312 521.070312 147.222656 C 521.609375 146.683594 521.945312 145.933594 521.945312 145.109375 L 521.945312 144.242188 C 521.945312 143.625 521.757812 143.050781 521.433594 142.574219 Z M 382.675781 147.226562 C 382.898438 147.449219 383.164062 147.625 383.449219 147.769531 C 383.164062 147.625 382.898438 147.449219 382.675781 147.226562 C 382.136719 146.683594 381.800781 145.9375 381.800781 145.109375 L 381.800781 144.246094 C 381.800781 143.625 381.988281 143.050781 382.308594 142.574219 C 381.988281 143.050781 381.800781 143.625 381.800781 144.246094 L 381.800781 145.109375 C 381.800781 145.9375 382.136719 146.683594 382.675781 147.226562 Z M 382.039062 201.457031 C 381.835938 201.050781 381.707031 200.597656 381.707031 200.113281 C 381.707031 200.597656 381.835938 201.050781 382.039062 201.457031 Z M 381.941406 270.105469 C 381.792969 270.460938 381.707031 270.855469 381.707031 271.269531 C 381.707031 270.855469 381.792969 270.464844 381.941406 270.105469 Z M 383.027344 347.480469 C 382.792969 347.324219 382.597656 347.128906 382.417969 346.914062 C 382.597656 347.128906 382.796875 347.324219 383.027344 347.480469 Z M 384.792969 377.503906 L 496.382812 377.503906 C 496.890625 377.503906 497.359375 377.363281 497.777344 377.140625 C 497.359375 377.367188 496.890625 377.503906 496.382812 377.503906 L 384.792969 377.503906 C 384.171875 377.503906 383.597656 377.3125 383.121094 376.992188 C 383.597656 377.3125 384.171875 377.503906 384.792969 377.503906 Z M 518.953125 355.898438 L 384.792969 355.898438 C 383.140625 355.898438 381.800781 357.238281 381.800781 358.890625 L 381.800781 359.757812 C 381.800781 360.300781 381.960938 360.808594 382.214844 361.25 C 381.957031 360.808594 381.800781 360.300781 381.800781 359.757812 L 381.800781 358.890625 C 381.800781 357.238281 383.140625 355.898438 384.792969 355.898438 L 518.953125 355.898438 C 520.605469 355.898438 521.945312 357.238281 521.945312 358.890625 L 521.945312 359.757812 C 521.945312 360.300781 521.785156 360.808594 521.53125 361.25 C 521.789062 360.808594 521.945312 360.300781 521.945312 359.757812 L 521.945312 358.890625 C 521.945312 357.238281 520.605469 355.898438 518.953125 355.898438 Z M 384.699219 347.992188 C 384.492188 347.992188 384.292969 347.96875 384.097656 347.929688 C 384.292969 347.96875 384.492188 347.992188 384.699219 347.992188 Z M 535.699219 347.175781 C 535.726562 347.15625 535.753906 347.136719 535.777344 347.113281 C 535.753906 347.136719 535.726562 347.15625 535.699219 347.175781 Z M 533.664062 341.144531 L 384.699219 341.144531 C 384.082031 341.144531 383.503906 341.332031 383.027344 341.652344 C 383.503906 341.332031 384.082031 341.144531 384.699219 341.144531 L 533.664062 341.144531 C 534.210938 341.144531 534.71875 341.300781 535.160156 341.558594 C 534.714844 341.300781 534.210938 341.144531 533.664062 341.144531 Z M 384.699219 133.34375 C 384.492188 133.34375 384.292969 133.324219 384.097656 133.28125 C 384.292969 133.324219 384.492188 133.34375 384.699219 133.34375 Z M 384.699219 413.445312 L 514.238281 413.445312 C 515.15625 413.445312 515.96875 413.867188 516.515625 414.523438 C 515.964844 413.871094 515.15625 413.445312 514.238281 413.445312 L 384.699219 413.445312 C 383.78125 413.445312 382.96875 413.867188 382.421875 414.523438 C 382.96875 413.867188 383.78125 413.445312 384.699219 413.445312 Z M 517.046875 418.289062 C 517.003906 418.414062 516.953125 418.53125 516.894531 418.644531 C 516.953125 418.53125 517.003906 418.414062 517.046875 418.289062 Z M 515.578125 419.960938 C 515.464844 420.019531 515.347656 420.066406 515.226562 420.109375 C 515.347656 420.066406 515.464844 420.019531 515.578125 419.960938 Z M 382.214844 433.550781 C 381.957031 433.109375 381.800781 432.601562 381.800781 432.058594 L 381.800781 431.191406 C 381.800781 430.570312 381.988281 429.996094 382.3125 429.519531 C 381.988281 429.996094 381.800781 430.574219 381.800781 431.191406 L 381.800781 432.058594 C 381.800781 432.605469 381.957031 433.109375 382.214844 433.550781 Z M 583.546875 269.84375 L 588.449219 274.464844 L 600.269531 268.3125 L 584.515625 276.507812 C 584.140625 276.726562 583.8125 277.003906 583.542969 277.320312 L 583.542969 269.84375 Z M 600.011719 302.207031 C 599.546875 302.144531 599.082031 302.085938 598.617188 302.027344 C 599.082031 302.085938 599.546875 302.144531 600.011719 302.207031 Z M 612.878906 303.496094 C 612.84375 303.492188 612.804688 303.488281 612.769531 303.488281 C 612.804688 303.488281 612.84375 303.492188 612.878906 303.496094 Z M 606.039062 302.902344 C 605.957031 302.890625 605.875 302.882812 605.792969 302.875 C 605.875 302.882812 605.957031 302.890625 606.039062 302.902344 Z M 674.359375 225.648438 L 674.367188 225.601562 L 674.429688 225.597656 L 675.070312 225.167969 Z M 673.503906 226.222656 L 672.101562 227.167969 Z M 641.46875 131.9375 C 641.769531 132.085938 642.0625 132.261719 642.332031 132.46875 C 642.0625 132.261719 641.769531 132.085938 641.46875 131.9375 Z M 643.871094 134.285156 C 643.703125 133.988281 643.527344 133.707031 643.324219 133.453125 C 643.527344 133.707031 643.707031 133.988281 643.871094 134.285156 Z M 644.46875 135.601562 C 644.359375 135.273438 644.222656 134.964844 644.078125 134.667969 C 644.222656 134.964844 644.359375 135.273438 644.46875 135.601562 Z M 643.144531 133.25 C 642.953125 133.027344 642.75 132.824219 642.53125 132.640625 C 642.746094 132.828125 642.953125 133.027344 643.144531 133.25 Z M 641.257812 131.847656 C 640.925781 131.707031 640.585938 131.59375 640.226562 131.53125 C 640.585938 131.59375 640.925781 131.707031 641.257812 131.847656 Z M 635.09375 136.636719 C 635.03125 136.632812 634.964844 136.632812 634.898438 136.628906 C 634.964844 136.632812 635.027344 136.632812 635.09375 136.636719 Z M 634.449219 136.621094 C 634.308594 136.621094 634.175781 136.617188 634.054688 136.617188 C 634.179688 136.617188 634.308594 136.621094 634.449219 136.621094 Z M 633.871094 136.617188 C 633.773438 136.617188 633.683594 136.617188 633.601562 136.617188 C 633.683594 136.617188 633.769531 136.617188 633.871094 136.617188 Z M 633.46875 136.617188 C 633.421875 136.617188 633.371094 136.617188 633.332031 136.621094 C 633.335938 136.621094 633.339844 136.621094 633.34375 136.621094 C 633.375 136.617188 633.429688 136.617188 633.46875 136.617188 Z M 627.015625 117.652344 C 626.972656 117.648438 626.933594 117.648438 626.890625 117.644531 C 626.933594 117.648438 626.972656 117.648438 627.015625 117.652344 Z M 624.40625 117.554688 C 624.210938 117.550781 624.035156 117.5625 623.84375 117.5625 C 623.847656 117.5625 623.847656 117.5625 623.851562 117.5625 C 624.039062 117.5625 624.214844 117.550781 624.40625 117.554688 Z M 621.976562 117.613281 C 621.976562 117.613281 621.980469 117.613281 621.980469 117.613281 C 621.867188 117.617188 621.765625 117.628906 621.65625 117.636719 C 621.660156 117.636719 621.664062 117.636719 621.664062 117.636719 C 621.773438 117.628906 621.871094 117.621094 621.976562 117.613281 Z M 608.617188 119.847656 C 608.550781 119.855469 608.484375 119.863281 608.417969 119.871094 C 608.484375 119.863281 608.550781 119.855469 608.617188 119.847656 Z M 604.390625 119.621094 C 604.507812 119.648438 604.621094 119.671875 604.734375 119.699219 C 604.621094 119.671875 604.503906 119.648438 604.390625 119.621094 Z M 605.644531 119.859375 C 605.742188 119.871094 605.839844 119.886719 605.9375 119.894531 C 605.839844 119.886719 605.742188 119.871094 605.644531 119.859375 Z M 607.140625 119.945312 C 607.167969 119.945312 607.191406 119.945312 607.21875 119.945312 C 607.195312 119.945312 607.167969 119.945312 607.140625 119.945312 Z M 586.570312 213.855469 L 583.546875 211.003906 Z M 533.664062 126.5 C 534.210938 126.5 534.71875 126.65625 535.160156 126.910156 C 534.714844 126.65625 534.210938 126.5 533.664062 126.5 L 384.699219 126.5 C 384.082031 126.5 383.503906 126.6875 383.027344 127.007812 C 383.503906 126.6875 384.082031 126.5 384.699219 126.5 Z M 492.070312 73.382812 C 493.683594 71.769531 494.851562 69.800781 495.503906 67.660156 C 495.894531 66.375 496.097656 65.027344 496.097656 63.660156 C 496.097656 65.027344 495.894531 66.375 495.503906 67.660156 C 494.851562 69.800781 493.683594 71.769531 492.070312 73.382812 C 489.492188 75.960938 485.996094 77.410156 482.347656 77.410156 C 485.996094 77.410156 489.492188 75.960938 492.070312 73.382812 Z M 333.792969 76.816406 C 331.652344 76.164062 329.683594 74.992188 328.070312 73.382812 C 327 72.3125 326.136719 71.078125 325.480469 69.746094 C 326.136719 71.074219 327 72.3125 328.070312 73.382812 C 329.683594 74.992188 331.652344 76.164062 333.792969 76.816406 Z M 291.960938 195.308594 L 291.960938 236.824219 Z M 291.960938 339.015625 L 291.960938 380.53125 Z M 169.9375 521.96875 C 169.921875 521.890625 169.914062 521.808594 169.925781 521.722656 C 169.914062 521.808594 169.921875 521.890625 169.9375 521.96875 Z M 170.027344 522.171875 C 170.003906 522.140625 169.992188 522.105469 169.976562 522.070312 C 169.992188 522.105469 170.007812 522.140625 170.027344 522.171875 Z M 186.988281 523.457031 L 186.960938 523.316406 L 212.324219 526.9375 C 212.46875 526.960938 212.59375 527.035156 212.691406 527.128906 Z M 144.175781 475.589844 L 144.039062 471.082031 L 143.117188 440.53125 Z M 215.195312 437.300781 C 215.195312 437.863281 215.144531 438.410156 215.070312 438.953125 C 215.144531 438.414062 215.195312 437.863281 215.195312 437.300781 Z M 215.007812 439.367188 C 214.925781 439.855469 214.824219 440.332031 214.6875 440.796875 C 214.824219 440.332031 214.925781 439.855469 215.007812 439.367188 Z M 214.652344 440.941406 C 214.492188 441.464844 214.292969 441.96875 214.074219 442.457031 C 214.292969 441.96875 214.492188 441.464844 214.652344 440.941406 Z M 213.945312 442.722656 C 213.726562 443.179688 213.484375 443.621094 213.210938 444.042969 C 213.484375 443.621094 213.722656 443.179688 213.945312 442.722656 Z M 213.160156 444.128906 C 212.847656 444.601562 212.507812 445.054688 212.136719 445.480469 C 212.507812 445.054688 212.847656 444.601562 213.160156 444.128906 Z M 212.089844 445.535156 C 211.714844 445.960938 211.316406 446.359375 210.890625 446.734375 C 211.316406 446.359375 211.714844 445.957031 212.089844 445.535156 Z M 210.886719 446.734375 C 208.6875 448.648438 205.820312 449.816406 202.675781 449.816406 C 199.511719 449.816406 196.632812 448.632812 194.425781 446.699219 C 195.296875 447.460938 196.273438 448.101562 197.328125 448.605469 L 207.953125 448.636719 C 209.023438 448.140625 210.007812 447.496094 210.886719 446.734375 Z M 194.414062 446.6875 C 193.988281 446.308594 193.582031 445.90625 193.210938 445.472656 C 193.582031 445.90625 193.984375 446.3125 194.414062 446.6875 Z M 190.28125 438.945312 C 190.210938 438.40625 190.160156 437.859375 190.160156 437.300781 C 190.160156 437.859375 190.210938 438.40625 190.28125 438.945312 Z M 193.195312 445.460938 C 192.828125 445.03125 192.488281 444.578125 192.179688 444.101562 C 192.488281 444.578125 192.828125 445.03125 193.195312 445.460938 Z M 192.117188 444 C 191.851562 443.582031 191.609375 443.144531 191.394531 442.691406 C 191.609375 443.144531 191.851562 443.582031 192.117188 444 Z M 191.273438 442.441406 C 191.054688 441.953125 190.855469 441.449219 190.699219 440.929688 C 190.859375 441.449219 191.050781 441.953125 191.273438 442.441406 Z M 190.65625 440.761719 C 190.523438 440.304688 190.421875 439.835938 190.34375 439.359375 C 190.421875 439.835938 190.523438 440.308594 190.65625 440.761719 Z M 252.195312 504.449219 C 252.171875 504.445312 252.144531 504.4375 252.121094 504.433594 C 252.144531 504.4375 252.171875 504.445312 252.195312 504.449219 Z M 248.90625 503.703125 C 248.894531 503.703125 248.882812 503.699219 248.871094 503.695312 C 248.882812 503.699219 248.894531 503.703125 248.90625 503.703125 Z M 247.382812 503.292969 C 247.355469 503.289062 247.328125 503.28125 247.300781 503.273438 C 247.328125 503.28125 247.355469 503.289062 247.382812 503.292969 Z M 244.59375 502.453125 C 244.589844 502.453125 244.585938 502.453125 244.585938 502.453125 C 244.585938 502.453125 244.589844 502.453125 244.59375 502.453125 Z M 243.457031 502.078125 C 243.425781 502.066406 243.390625 502.054688 243.359375 502.046875 C 243.390625 502.054688 243.425781 502.066406 243.457031 502.078125 Z M 242.410156 501.714844 C 242.394531 501.710938 242.386719 501.707031 242.371094 501.699219 C 242.386719 501.707031 242.394531 501.710938 242.410156 501.714844 Z M 240.980469 501.1875 C 240.960938 501.179688 240.945312 501.175781 240.929688 501.167969 C 240.945312 501.175781 240.964844 501.179688 240.980469 501.1875 Z M 240.582031 501.03125 C 240.550781 501.019531 240.550781 501.019531 240.527344 501.011719 C 240.546875 501.019531 240.5625 501.023438 240.582031 501.03125 Z M 268.054688 502.648438 C 267.9375 502.703125 267.820312 502.761719 267.699219 502.816406 C 267.820312 502.761719 267.9375 502.703125 268.054688 502.648438 Z M 210.394531 347.039062 L 210.28125 342.972656 Z M 132.707031 473.707031 C 132.792969 473.703125 132.875 473.710938 132.957031 473.707031 C 132.875 473.710938 132.792969 473.703125 132.707031 473.707031 Z M 128.886719 473.480469 C 128.890625 473.480469 128.898438 473.480469 128.902344 473.484375 C 128.898438 473.480469 128.890625 473.480469 128.886719 473.480469 Z M 130.792969 473.675781 C 130.832031 473.679688 130.875 473.683594 130.917969 473.6875 C 130.875 473.683594 130.832031 473.679688 130.792969 473.675781 Z M 137.070312 473.179688 C 136.917969 473.210938 136.769531 473.230469 136.621094 473.257812 C 136.769531 473.226562 136.917969 473.210938 137.070312 473.179688 Z M 135.015625 473.535156 C 134.886719 473.550781 134.757812 473.554688 134.625 473.570312 C 134.757812 473.554688 134.886719 473.550781 135.015625 473.535156 Z M 138.386719 515.273438 C 147.578125 516.863281 158.535156 518.757812 169.9375 520.726562 C 167.703125 520.339844 165.496094 519.960938 163.304688 519.582031 C 154.320312 518.027344 145.78125 516.550781 138.386719 515.273438 Z M 170.121094 522.292969 C 170.132812 522.308594 170.148438 522.316406 170.160156 522.332031 C 170.148438 522.316406 170.136719 522.308594 170.121094 522.292969 Z M 170.316406 522.4375 Z M 172.351562 478.757812 L 235.414062 491.105469 Z M 234.117188 529.699219 C 236.429688 529.878906 242.777344 530.371094 249.132812 530.933594 C 242.789062 530.371094 236.441406 529.878906 234.117188 529.699219 Z M 233.425781 529.648438 C 233.460938 529.648438 233.492188 529.652344 233.535156 529.65625 C 233.492188 529.652344 233.460938 529.648438 233.425781 529.648438 Z M 233.742188 529.671875 C 233.820312 529.675781 233.90625 529.683594 234 529.691406 C 233.902344 529.683594 233.820312 529.679688 233.742188 529.671875 Z M 253.832031 504.742188 C 253.859375 504.746094 253.886719 504.75 253.914062 504.753906 C 253.886719 504.75 253.859375 504.746094 253.832031 504.742188 Z M 257.230469 505.132812 C 257.25 505.132812 257.273438 505.136719 257.292969 505.136719 C 257.273438 505.136719 257.25 505.132812 257.230469 505.132812 Z M 258.867188 505.191406 C 258.910156 505.191406 258.957031 505.191406 259 505.191406 C 258.957031 505.191406 258.910156 505.191406 258.867188 505.191406 Z M 260.535156 505.140625 Z M 261.546875 505.035156 C 261.621094 505.023438 261.699219 505.011719 261.773438 505 C 261.699219 505.011719 261.625 505.023438 261.546875 505.035156 Z M 262.535156 504.867188 C 262.628906 504.847656 262.722656 504.828125 262.816406 504.808594 C 262.722656 504.828125 262.628906 504.847656 262.535156 504.867188 Z M 263.5 504.628906 C 263.585938 504.601562 263.675781 504.578125 263.761719 504.554688 C 263.675781 504.578125 263.585938 504.601562 263.5 504.628906 Z M 287.316406 513.59375 C 287.320312 513.347656 287.324219 513.058594 287.324219 512.753906 C 287.324219 513.0625 287.320312 513.34375 287.316406 513.59375 Z M 285.992188 504.335938 C 285.761719 503.933594 285.523438 503.566406 285.28125 503.21875 C 285.523438 503.566406 285.761719 503.933594 285.992188 504.335938 C 286.136719 504.585938 286.261719 504.878906 286.378906 505.183594 C 286.261719 504.878906 286.136719 504.585938 285.992188 504.335938 Z M 286.460938 505.414062 C 286.566406 505.726562 286.664062 506.054688 286.746094 506.40625 C 286.664062 506.054688 286.566406 505.726562 286.460938 505.414062 Z M 286.757812 506.460938 C 286.839844 506.804688 286.902344 507.164062 286.960938 507.527344 C 286.902344 507.164062 286.839844 506.804688 286.757812 506.460938 Z M 287.007812 507.816406 C 287.0625 508.191406 287.113281 508.570312 287.152344 508.953125 C 287.113281 508.570312 287.0625 508.191406 287.007812 507.816406 Z M 287.160156 509.078125 C 287.195312 509.433594 287.222656 509.789062 287.246094 510.140625 C 287.222656 509.789062 287.195312 509.433594 287.160156 509.078125 Z M 287.261719 510.425781 C 287.285156 510.796875 287.296875 511.164062 287.308594 511.507812 C 287.296875 511.164062 287.28125 510.796875 287.261719 510.425781 Z M 287.289062 514.621094 C 287.285156 514.699219 287.28125 514.757812 287.28125 514.757812 C 287.28125 514.757812 287.285156 514.703125 287.289062 514.621094 Z M 287.308594 511.632812 C 287.316406 511.957031 287.320312 512.261719 287.324219 512.550781 C 287.320312 512.265625 287.316406 511.957031 287.308594 511.632812 Z M 287.316406 513.671875 C 287.3125 513.84375 287.308594 513.996094 287.304688 514.128906 C 287.308594 513.996094 287.3125 513.839844 287.316406 513.671875 Z M 287.300781 514.273438 C 287.296875 514.386719 287.292969 514.480469 287.289062 514.554688 C 287.292969 514.480469 287.296875 514.386719 287.300781 514.273438 Z M 285.105469 502.96875 C 285.019531 502.855469 284.933594 502.757812 284.847656 502.648438 L 284.867188 502.648438 C 284.949219 502.75 285.023438 502.859375 285.105469 502.96875 Z M 339.359375 410.867188 L 291.960938 410.867188 L 291.960938 452.382812 L 291.960938 410.867188 Z M 339.359375 267.625 L 291.960938 267.625 L 291.960938 309.140625 L 339.359375 309.140625 L 291.960938 309.140625 L 291.960938 267.625 Z M 339.359375 165.433594 L 291.960938 165.433594 L 291.960938 123.921875 L 338.410156 123.921875 L 291.960938 123.921875 L 291.960938 165.433594 Z M 381.707031 417.300781 C 381.707031 417.789062 381.835938 418.238281 382.039062 418.644531 C 381.835938 418.238281 381.707031 417.789062 381.707031 417.300781 Z M 381.800781 446.8125 L 381.800781 445.949219 C 381.800781 445.328125 381.988281 444.753906 382.3125 444.277344 C 381.988281 444.753906 381.800781 445.332031 381.800781 445.949219 L 381.800781 446.8125 C 381.800781 447.433594 381.988281 448.007812 382.3125 448.484375 C 381.988281 448.007812 381.800781 447.433594 381.800781 446.8125 Z M 533.757812 449.804688 L 384.792969 449.804688 C 384.171875 449.804688 383.597656 449.617188 383.121094 449.292969 C 383.597656 449.617188 384.171875 449.804688 384.792969 449.804688 L 533.757812 449.804688 C 534.375 449.804688 534.949219 449.617188 535.425781 449.292969 C 534.953125 449.617188 534.375 449.804688 533.757812 449.804688 Z M 536.746094 446.8125 C 536.746094 447.433594 536.558594 448.007812 536.234375 448.484375 C 536.558594 448.007812 536.746094 447.433594 536.746094 446.8125 L 536.746094 445.949219 C 536.746094 445.328125 536.558594 444.753906 536.234375 444.277344 C 536.558594 444.753906 536.746094 445.332031 536.746094 445.949219 Z M 536.746094 286.890625 C 536.746094 287.511719 536.558594 288.085938 536.234375 288.5625 C 536.558594 288.085938 536.746094 287.507812 536.746094 286.890625 L 536.746094 286.023438 C 536.746094 285.480469 536.589844 284.972656 536.332031 284.53125 C 536.589844 284.972656 536.746094 285.480469 536.746094 286.023438 Z M 536.746094 229.628906 C 536.746094 230.246094 536.558594 230.820312 536.234375 231.300781 C 536.558594 230.820312 536.746094 230.246094 536.746094 229.628906 L 536.746094 228.761719 C 536.746094 228.140625 536.558594 227.566406 536.234375 227.089844 C 536.558594 227.566406 536.746094 228.144531 536.746094 228.761719 Z M 583.546875 476.542969 L 583.546875 281.820312 C 584.015625 282.308594 584.699219 282.695312 585.667969 282.835938 C 585.660156 282.933594 585.667969 283.039062 585.707031 283.136719 C 585.765625 283.296875 585.882812 283.40625 586.015625 283.480469 C 585.210938 285.359375 586.761719 287.753906 588.375 288.269531 C 588.359375 288.386719 588.359375 288.503906 588.402344 288.625 C 588.488281 288.851562 588.691406 288.980469 588.917969 289.027344 C 588.773438 291.976562 588.679688 294.574219 588.679688 296.527344 C 588.679688 298.019531 589.390625 299.355469 590.503906 300.214844 L 587.023438 394.886719 Z M 591.585938 300.839844 C 591.523438 300.808594 591.460938 300.78125 591.398438 300.753906 C 591.460938 300.78125 591.523438 300.8125 591.585938 300.839844 Z M 591.585938 300.839844 " fill-opacity="1" fill-rule="nonzero"/><path fill="#e0e0e0" d="M 339.359375 123.921875 L 339.359375 165.433594 L 291.960938 165.433594 L 291.960938 123.921875 Z M 339.359375 195.308594 L 291.960938 195.308594 L 291.960938 236.824219 L 339.359375 236.824219 Z M 339.359375 339.015625 L 291.960938 339.015625 L 291.960938 380.53125 L 339.359375 380.53125 Z M 339.359375 410.867188 L 291.960938 410.867188 L 291.960938 452.382812 L 339.359375 452.382812 Z M 339.359375 267.625 L 291.960938 267.625 L 291.960938 309.140625 L 339.359375 309.140625 Z M 536.65625 130.351562 L 536.65625 129.488281 C 536.65625 127.835938 535.316406 126.496094 533.664062 126.496094 L 384.699219 126.496094 C 383.046875 126.496094 381.707031 127.835938 381.707031 129.488281 L 381.707031 130.351562 C 381.707031 132.003906 383.046875 133.34375 384.699219 133.34375 L 533.664062 133.34375 C 535.316406 133.34375 536.65625 132.003906 536.65625 130.351562 Z M 521.945312 145.109375 L 521.945312 144.242188 C 521.945312 142.589844 520.605469 141.253906 518.953125 141.253906 L 384.789062 141.253906 C 383.136719 141.253906 381.800781 142.589844 381.800781 144.242188 L 381.800781 145.109375 C 381.800781 146.761719 383.136719 148.101562 384.789062 148.101562 L 518.953125 148.101562 C 520.605469 148.101562 521.945312 146.761719 521.945312 145.109375 Z M 499.371094 159.867188 L 499.371094 159 C 499.371094 157.347656 498.03125 156.007812 496.378906 156.007812 L 384.789062 156.007812 C 383.136719 156.007812 381.800781 157.347656 381.800781 159 L 381.800781 159.867188 C 381.800781 161.515625 383.136719 162.855469 384.789062 162.855469 L 496.378906 162.855469 C 498.03125 162.855469 499.371094 161.515625 499.371094 159.867188 Z M 536.65625 345 L 536.65625 344.132812 C 536.65625 342.480469 535.316406 341.144531 533.664062 341.144531 L 384.699219 341.144531 C 383.046875 341.144531 381.707031 342.480469 381.707031 344.132812 L 381.707031 345 C 381.707031 346.652344 383.046875 347.992188 384.699219 347.992188 L 533.664062 347.992188 C 535.316406 347.992188 536.65625 346.652344 536.65625 345 Z M 521.945312 359.757812 L 521.945312 358.890625 C 521.945312 357.238281 520.605469 355.898438 518.953125 355.898438 L 384.789062 355.898438 C 383.136719 355.898438 381.800781 357.238281 381.800781 358.890625 L 381.800781 359.757812 C 381.800781 361.40625 383.136719 362.746094 384.789062 362.746094 L 518.953125 362.746094 C 520.605469 362.746094 521.945312 361.40625 521.945312 359.757812 Z M 499.371094 374.511719 L 499.371094 373.648438 C 499.371094 371.996094 498.03125 370.65625 496.378906 370.65625 L 384.789062 370.65625 C 383.136719 370.65625 381.800781 371.996094 381.800781 373.648438 L 381.800781 374.511719 C 381.800781 376.164062 383.136719 377.503906 384.789062 377.503906 L 496.378906 377.503906 C 498.03125 377.503906 499.371094 376.164062 499.371094 374.511719 Z M 517.226562 200.113281 L 517.226562 199.25 C 517.226562 197.597656 515.886719 196.257812 514.234375 196.257812 L 384.699219 196.257812 C 383.046875 196.257812 381.707031 197.597656 381.707031 199.25 L 381.707031 200.113281 C 381.707031 201.765625 383.046875 203.105469 384.699219 203.105469 L 514.234375 203.105469 C 515.886719 203.105469 517.226562 201.765625 517.226562 200.113281 Z M 499.371094 214.871094 L 499.371094 214.003906 C 499.371094 212.351562 498.03125 211.015625 496.378906 211.015625 L 384.789062 211.015625 C 383.136719 211.015625 381.800781 212.351562 381.800781 214.003906 L 381.800781 214.871094 C 381.800781 216.523438 383.136719 217.859375 384.789062 217.859375 L 496.378906 217.859375 C 498.03125 217.859375 499.371094 216.523438 499.371094 214.871094 Z M 536.746094 229.625 L 536.746094 228.761719 C 536.746094 227.109375 535.40625 225.769531 533.757812 225.769531 L 384.789062 225.769531 C 383.136719 225.769531 381.800781 227.109375 381.800781 228.761719 L 381.800781 229.625 C 381.800781 231.277344 383.136719 232.617188 384.789062 232.617188 L 533.757812 232.617188 C 535.40625 232.617188 536.746094 231.277344 536.746094 229.625 Z M 517.226562 417.300781 L 517.226562 416.4375 C 517.226562 414.785156 515.886719 413.445312 514.234375 413.445312 L 384.699219 413.445312 C 383.046875 413.445312 381.707031 414.785156 381.707031 416.4375 L 381.707031 417.300781 C 381.707031 418.953125 383.046875 420.292969 384.699219 420.292969 L 514.234375 420.292969 C 515.886719 420.292969 517.226562 418.953125 517.226562 417.300781 Z M 499.371094 432.058594 L 499.371094 431.191406 C 499.371094 429.539062 498.03125 428.203125 496.378906 428.203125 L 384.789062 428.203125 C 383.136719 428.203125 381.800781 429.539062 381.800781 431.191406 L 381.800781 432.058594 C 381.800781 433.710938 383.136719 435.046875 384.789062 435.046875 L 496.378906 435.046875 C 498.03125 435.046875 499.371094 433.707031 499.371094 432.058594 Z M 536.746094 446.8125 L 536.746094 445.949219 C 536.746094 444.296875 535.40625 442.957031 533.757812 442.957031 L 384.789062 442.957031 C 383.136719 442.957031 381.800781 444.296875 381.800781 445.949219 L 381.800781 446.8125 C 381.800781 448.464844 383.136719 449.804688 384.789062 449.804688 L 533.757812 449.804688 C 535.40625 449.804688 536.746094 448.464844 536.746094 446.8125 Z M 504.828125 272.132812 L 504.828125 271.269531 C 504.828125 269.617188 503.492188 268.277344 501.839844 268.277344 L 384.699219 268.277344 C 383.046875 268.277344 381.707031 269.617188 381.707031 271.269531 L 381.707031 272.132812 C 381.707031 273.785156 383.046875 275.125 384.699219 275.125 L 501.839844 275.125 C 503.492188 275.125 504.828125 273.785156 504.828125 272.132812 Z M 536.746094 286.890625 L 536.746094 286.023438 C 536.746094 284.371094 535.40625 283.03125 533.757812 283.03125 L 384.789062 283.03125 C 383.136719 283.03125 381.800781 284.371094 381.800781 286.023438 L 381.800781 286.890625 C 381.800781 288.542969 383.136719 289.878906 384.789062 289.878906 L 533.757812 289.878906 C 535.40625 289.878906 536.746094 288.542969 536.746094 286.890625 Z M 523.609375 301.644531 L 523.609375 300.78125 C 523.609375 299.128906 522.269531 297.789062 520.617188 297.789062 L 384.789062 297.789062 C 383.136719 297.789062 381.800781 299.128906 381.800781 300.78125 L 381.800781 301.644531 C 381.800781 303.296875 383.136719 304.636719 384.789062 304.636719 L 520.617188 304.636719 C 522.269531 304.636719 523.609375 303.296875 523.609375 301.644531 Z M 410.070312 15.160156 C 397.039062 15.160156 386.339844 25.230469 385.34375 38.011719 L 337.792969 38.011719 C 334.148438 38.011719 330.652344 39.457031 328.074219 42.035156 C 325.496094 44.617188 324.046875 48.113281 324.046875 51.757812 C 324.046875 59.75 324.046875 55.671875 324.046875 63.660156 C 324.046875 67.308594 325.496094 70.804688 328.074219 73.382812 C 330.652344 75.960938 334.148438 77.410156 337.792969 77.410156 C 370.019531 77.410156 450.125 77.410156 482.351562 77.410156 C 485.996094 77.410156 489.492188 75.960938 492.070312 73.382812 C 494.648438 70.804688 496.097656 67.308594 496.097656 63.660156 C 496.097656 55.667969 496.097656 59.746094 496.097656 51.757812 C 496.097656 48.109375 494.648438 44.613281 492.070312 42.035156 C 489.492188 39.460938 485.996094 38.011719 482.351562 38.011719 L 434.800781 38.011719 M 434.796875 38.011719 C 434.796875 38.011719 430.46875 14.503906 408.546875 15.207031 M 254.289062 219.585938 L 254.289062 268.296875 L 240.488281 268.296875 L 240.488281 293.464844 L 214.136719 268.296875 L 137.386719 268.296875 L 137.386719 219.585938 Z M 155.085938 239.242188 L 201.1875 239.242188 L 201.1875 236.152344 L 155.085938 236.152344 Z M 236.589844 248.5 L 155.085938 248.5 L 155.085938 251.589844 L 236.589844 251.589844 Z M 695.398438 32.394531 L 695.398438 72.59375 L 632.050781 72.59375 L 610.304688 93.367188 L 610.304688 72.59375 L 598.914062 72.59375 L 598.914062 32.394531 Z M 635.359375 51.75 C 635.359375 49.058594 633.179688 46.878906 630.488281 46.878906 C 627.800781 46.878906 625.621094 49.058594 625.621094 51.75 C 625.621094 54.4375 627.800781 56.617188 630.488281 56.617188 C 633.179688 56.617188 635.359375 54.4375 635.359375 51.75 Z M 653.226562 51.75 C 653.226562 49.058594 651.050781 46.878906 648.359375 46.878906 C 645.671875 46.878906 643.492188 49.058594 643.492188 51.75 C 643.492188 54.4375 645.671875 56.617188 648.359375 56.617188 C 651.050781 56.617188 653.226562 54.4375 653.226562 51.75 Z M 671.097656 51.75 C 671.097656 49.058594 668.917969 46.878906 666.226562 46.878906 C 663.539062 46.878906 661.359375 49.058594 661.359375 51.75 C 661.359375 54.4375 663.539062 56.617188 666.226562 56.617188 C 668.917969 56.617188 671.097656 54.4375 671.097656 51.75 Z M 671.097656 51.75 " fill-opacity="1" fill-rule="nonzero"/><path fill="#f5f5f5" d="M 233.546875 251.589844 L 155.085938 251.589844 L 155.085938 248.5 L 236.589844 248.5 L 236.589844 251.589844 Z M 583.546875 75.34375 L 583.546875 482.726562 C 583.546875 493.726562 574.625 502.648438 563.625 502.648438 L 253.46875 502.648438 C 245.464844 502.648438 238.582031 497.914062 235.414062 491.105469 L 172.347656 478.757812 C 172.238281 478.734375 172.144531 478.683594 172.058594 478.617188 L 144.265625 478.617188 L 144.175781 475.589844 L 141.773438 395.988281 L 233.550781 395.988281 L 233.550781 286.835938 L 240.492188 293.464844 L 240.492188 268.296875 L 254.292969 268.296875 L 254.292969 219.585938 L 233.546875 219.585938 L 233.546875 75.34375 C 233.546875 64.339844 242.46875 55.421875 253.46875 55.421875 L 324.042969 55.421875 C 324.042969 58.542969 324.042969 57.363281 324.042969 63.660156 C 324.042969 67.308594 325.492188 70.804688 328.070312 73.382812 C 330.648438 75.960938 334.144531 77.410156 337.792969 77.410156 C 370.015625 77.410156 450.125 77.410156 482.347656 77.410156 C 485.996094 77.410156 489.492188 75.960938 492.070312 73.382812 C 494.648438 70.804688 496.097656 67.308594 496.097656 63.660156 C 496.097656 57.363281 496.097656 58.542969 496.097656 55.421875 L 563.625 55.421875 C 574.628906 55.421875 583.546875 64.339844 583.546875 75.34375 Z M 190.160156 437.300781 C 190.160156 444.214844 195.765625 449.816406 202.675781 449.816406 C 209.589844 449.816406 215.191406 444.214844 215.191406 437.300781 C 215.191406 430.390625 209.589844 424.785156 202.675781 424.785156 C 195.765625 424.785156 190.160156 430.390625 190.160156 437.300781 Z M 234.78125 489.566406 C 233.996094 487.433594 233.546875 485.132812 233.546875 482.726562 L 233.546875 478.617188 L 178.84375 478.617188 Z M 381.707031 130.351562 C 381.707031 132.003906 383.046875 133.34375 384.699219 133.34375 L 533.664062 133.34375 C 535.316406 133.34375 536.65625 132.003906 536.65625 130.351562 L 536.65625 129.488281 C 536.65625 127.835938 535.316406 126.496094 533.664062 126.496094 L 384.699219 126.496094 C 383.046875 126.496094 381.707031 127.835938 381.707031 129.488281 Z M 518.953125 148.101562 C 520.605469 148.101562 521.945312 146.761719 521.945312 145.109375 L 521.945312 144.242188 C 521.945312 142.589844 520.605469 141.253906 518.953125 141.253906 L 384.792969 141.253906 C 383.140625 141.253906 381.800781 142.589844 381.800781 144.242188 L 381.800781 145.109375 C 381.800781 146.761719 383.140625 148.101562 384.792969 148.101562 Z M 496.378906 156.011719 L 384.789062 156.011719 C 383.136719 156.011719 381.800781 157.347656 381.800781 159 L 381.800781 159.867188 C 381.800781 161.519531 383.136719 162.859375 384.789062 162.859375 L 496.378906 162.859375 C 498.03125 162.859375 499.371094 161.519531 499.371094 159.867188 L 499.371094 159 C 499.371094 157.347656 498.03125 156.011719 496.378906 156.011719 Z M 381.707031 200.113281 C 381.707031 201.765625 383.046875 203.105469 384.699219 203.105469 L 514.238281 203.105469 C 515.886719 203.105469 517.226562 201.765625 517.226562 200.113281 L 517.226562 199.25 C 517.226562 197.597656 515.886719 196.257812 514.238281 196.257812 L 384.699219 196.257812 C 383.046875 196.257812 381.707031 197.597656 381.707031 199.25 Z M 496.378906 211.015625 L 384.789062 211.015625 C 383.136719 211.015625 381.800781 212.355469 381.800781 214.007812 L 381.800781 214.871094 C 381.800781 216.523438 383.136719 217.863281 384.789062 217.863281 L 496.378906 217.863281 C 498.03125 217.863281 499.371094 216.523438 499.371094 214.871094 L 499.371094 214.007812 C 499.371094 212.355469 498.03125 211.015625 496.378906 211.015625 Z M 381.707031 272.132812 C 381.707031 273.785156 383.046875 275.125 384.699219 275.125 L 501.839844 275.125 C 503.492188 275.125 504.832031 273.785156 504.832031 272.132812 L 504.832031 271.269531 C 504.832031 269.617188 503.492188 268.277344 501.839844 268.277344 L 384.699219 268.277344 C 383.046875 268.277344 381.707031 269.617188 381.707031 271.269531 Z M 381.800781 301.644531 C 381.800781 303.296875 383.140625 304.636719 384.792969 304.636719 L 520.621094 304.636719 C 522.273438 304.636719 523.609375 303.296875 523.609375 301.644531 L 523.609375 300.78125 C 523.609375 299.128906 522.273438 297.789062 520.621094 297.789062 L 384.792969 297.789062 C 383.140625 297.789062 381.800781 299.128906 381.800781 300.78125 Z M 381.707031 345 C 381.707031 346.652344 383.046875 347.992188 384.699219 347.992188 L 533.664062 347.992188 C 535.316406 347.992188 536.65625 346.652344 536.65625 345 L 536.65625 344.132812 C 536.65625 342.480469 535.316406 341.144531 533.664062 341.144531 L 384.699219 341.144531 C 383.046875 341.144531 381.707031 342.480469 381.707031 344.132812 Z M 518.953125 362.746094 C 520.605469 362.746094 521.945312 361.40625 521.945312 359.757812 L 521.945312 358.890625 C 521.945312 357.238281 520.605469 355.898438 518.953125 355.898438 L 384.792969 355.898438 C 383.140625 355.898438 381.800781 357.238281 381.800781 358.890625 L 381.800781 359.757812 C 381.800781 361.40625 383.140625 362.746094 384.792969 362.746094 Z M 496.378906 370.65625 L 384.789062 370.65625 C 383.136719 370.65625 381.800781 371.996094 381.800781 373.648438 L 381.800781 374.511719 C 381.800781 376.164062 383.136719 377.503906 384.789062 377.503906 L 496.378906 377.503906 C 498.03125 377.503906 499.371094 376.164062 499.371094 374.511719 L 499.371094 373.648438 C 499.371094 371.996094 498.03125 370.65625 496.378906 370.65625 Z M 339.359375 410.867188 L 291.960938 410.867188 L 291.960938 452.382812 L 339.359375 452.382812 Z M 339.359375 339.015625 L 291.960938 339.015625 L 291.960938 380.53125 L 339.359375 380.53125 Z M 339.359375 267.625 L 291.960938 267.625 L 291.960938 309.140625 L 339.359375 309.140625 Z M 339.359375 195.308594 L 291.960938 195.308594 L 291.960938 236.824219 L 339.359375 236.824219 Z M 339.359375 123.921875 L 291.960938 123.921875 L 291.960938 165.433594 L 339.359375 165.433594 Z M 381.707031 417.300781 C 381.707031 418.953125 383.046875 420.292969 384.699219 420.292969 L 514.238281 420.292969 C 515.886719 420.292969 517.226562 418.953125 517.226562 417.300781 L 517.226562 416.4375 C 517.226562 414.785156 515.886719 413.445312 514.238281 413.445312 L 384.699219 413.445312 C 383.046875 413.445312 381.707031 414.785156 381.707031 416.4375 Z M 496.378906 428.203125 L 384.789062 428.203125 C 383.136719 428.203125 381.800781 429.539062 381.800781 431.191406 L 381.800781 432.058594 C 381.800781 433.710938 383.136719 435.046875 384.789062 435.046875 L 496.378906 435.046875 C 498.03125 435.046875 499.371094 433.710938 499.371094 432.058594 L 499.371094 431.191406 C 499.371094 429.539062 498.03125 428.203125 496.378906 428.203125 Z M 536.746094 445.949219 C 536.746094 444.296875 535.40625 442.957031 533.757812 442.957031 L 384.792969 442.957031 C 383.140625 442.957031 381.800781 444.296875 381.800781 445.949219 L 381.800781 446.8125 C 381.800781 448.464844 383.140625 449.804688 384.792969 449.804688 L 533.757812 449.804688 C 535.410156 449.804688 536.746094 448.464844 536.746094 446.8125 Z M 536.746094 286.023438 C 536.746094 284.375 535.40625 283.035156 533.757812 283.035156 L 384.792969 283.035156 C 383.140625 283.035156 381.800781 284.375 381.800781 286.023438 L 381.800781 286.890625 C 381.800781 288.542969 383.140625 289.882812 384.792969 289.882812 L 533.757812 289.882812 C 535.410156 289.882812 536.746094 288.542969 536.746094 286.890625 Z M 536.746094 228.761719 C 536.746094 227.109375 535.40625 225.773438 533.757812 225.773438 L 384.792969 225.773438 C 383.140625 225.773438 381.800781 227.109375 381.800781 228.761719 L 381.800781 229.628906 C 381.800781 231.277344 383.140625 232.617188 384.792969 232.617188 L 533.757812 232.617188 C 535.410156 232.617188 536.746094 231.28125 536.746094 229.628906 Z M 214.0625 527.328125 L 170.707031 521.132812 C 170.335938 521.078125 169.980469 521.339844 169.925781 521.722656 C 169.871094 522.101562 170.132812 522.449219 170.515625 522.503906 L 213.871094 528.699219 C 213.902344 528.703125 213.9375 528.707031 213.96875 528.707031 C 214.308594 528.707031 214.605469 528.457031 214.652344 528.109375 C 214.707031 527.730469 214.441406 527.378906 214.0625 527.328125 Z M 201.1875 236.152344 L 155.085938 236.152344 L 155.085938 239.242188 L 201.1875 239.242188 Z M 214.0625 527.328125 L 170.707031 521.132812 C 170.335938 521.078125 169.980469 521.339844 169.925781 521.722656 C 169.871094 522.101562 170.132812 522.449219 170.515625 522.503906 L 213.871094 528.699219 C 213.902344 528.703125 213.9375 528.707031 213.96875 528.707031 C 214.308594 528.707031 214.605469 528.457031 214.652344 528.109375 C 214.707031 527.730469 214.441406 527.378906 214.0625 527.328125 Z M 214.0625 527.328125 " fill-opacity="1" fill-rule="nonzero"/><path fill="#4e8db9" d="M 518.253906 170.183594 C 516.394531 173.710938 512.734375 178.089844 509.007812 179.167969 L 504 165.863281 Z M 317.128906 156.714844 C 317.90625 156.679688 318.632812 156.316406 319.132812 155.71875 L 357.839844 109.265625 C 358.824219 108.089844 358.664062 106.339844 357.488281 105.359375 C 356.308594 104.378906 354.558594 104.539062 353.582031 105.714844 L 316.8125 149.832031 L 306.574219 139.59375 C 305.492188 138.511719 303.734375 138.511719 302.652344 139.59375 C 301.566406 140.679688 301.566406 142.433594 302.652344 143.519531 L 315.039062 155.90625 C 315.5625 156.425781 316.265625 156.71875 317 156.71875 C 317.042969 156.714844 317.085938 156.714844 317.128906 156.714844 Z M 692.046875 224.886719 L 688.246094 225.039062 C 688.238281 224.996094 688.230469 224.976562 688.230469 224.976562 L 675.070312 225.171875 L 674.429688 225.601562 L 673.664062 225.632812 C 673.640625 225.808594 673.621094 225.984375 673.597656 226.160156 L 672.101562 227.167969 L 672.101562 237.816406 L 661.914062 242.582031 C 656.921875 243.976562 651.78125 246.105469 648.101562 247.621094 L 630.964844 255.679688 L 588.113281 215.308594 L 586.757812 202.148438 C 586.71875 201.765625 586.351562 201.488281 586 201.53125 C 585.617188 201.570312 585.339844 201.910156 585.378906 202.292969 L 586.570312 213.859375 L 571.269531 199.445312 L 578.222656 185.671875 C 580.03125 181.730469 583.300781 178.945312 587.089844 177.632812 C 587.105469 177.625 587.121094 177.613281 587.140625 177.605469 C 597.058594 173.464844 606.824219 170.703125 616.550781 169.292969 L 616.785156 172.308594 C 617.433594 180.128906 624.046875 186.121094 632.363281 185.414062 C 640.683594 184.707031 646.898438 177.792969 646.25 169.96875 L 646.117188 169.171875 C 657.269531 170.679688 668.519531 173.925781 680.042969 178.898438 C 680.042969 178.898438 680.039062 178.925781 680.03125 178.96875 C 684.867188 181.195312 688.488281 185.78125 689.195312 191.453125 C 689.949219 197.472656 690.453125 203.507812 690.976562 209.542969 C 691.363281 214.652344 691.730469 219.769531 692.046875 224.886719 Z M 669.3125 264.78125 L 618.839844 284.109375 L 617.601562 285.105469 L 604.199219 291.304688 C 604.199219 291.304688 599.417969 293.300781 596.597656 293.566406 C 594.710938 293.746094 593.980469 292.339844 593.710938 291.445312 C 593.546875 291.488281 593.402344 291.519531 593.308594 291.527344 C 590.601562 291.734375 588.71875 289.382812 589.050781 288.375 C 589.015625 288.375 588.980469 288.367188 588.945312 288.367188 C 588.785156 291.597656 588.679688 294.421875 588.679688 296.523438 C 588.679688 298.832031 590.363281 300.78125 592.640625 301.152344 C 617.15625 305.121094 644.957031 305.238281 668.828125 301.183594 C 671.089844 300.800781 672.753906 298.855469 672.753906 296.558594 C 672.753906 289.804688 671.660156 275.59375 671.179688 264.03125 C 670.578125 264.277344 669.972656 264.527344 669.3125 264.78125 Z M 699.113281 321.671875 C 697.367188 320.023438 695.613281 318.371094 694.167969 317.011719 C 693.980469 317.710938 693.640625 318.378906 693.109375 318.941406 C 687.164062 325.253906 674.269531 338.945312 668.328125 345.253906 C 667.898438 345.707031 667.398438 346.054688 666.863281 346.292969 C 668.277344 347.625 669.972656 349.222656 671.664062 350.8125 C 676.03125 354.925781 682.910156 354.722656 687.023438 350.355469 C 690.921875 346.21875 695.679688 341.164062 699.574219 337.03125 C 703.6875 332.660156 703.480469 325.785156 699.113281 321.671875 Z M 138.386719 515.273438 C 137.609375 515.140625 136.851562 514.960938 136.101562 514.757812 C 136.097656 514.835938 136.09375 514.910156 136.089844 514.984375 C 136.082031 515.085938 136.078125 515.179688 136.074219 515.277344 C 136.070312 515.335938 136.066406 515.402344 136.066406 515.457031 C 136.066406 515.472656 136.066406 515.484375 136.066406 515.503906 C 136.058594 515.671875 136.054688 515.816406 136.046875 515.953125 C 136.046875 515.964844 136.046875 515.980469 136.046875 515.992188 C 136.046875 516.027344 136.046875 516.050781 136.042969 516.082031 C 136.035156 516.410156 136.035156 516.609375 136.035156 516.609375 C 136.035156 516.609375 133.835938 518.570312 131.109375 520.671875 C 128.867188 522.402344 126.269531 524.226562 124.234375 525.136719 C 114.453125 529.546875 106.234375 536.007812 108.449219 541.023438 C 111.167969 547.1875 121.132812 547.398438 132.917969 542.890625 C 133.761719 542.566406 134.613281 542.21875 135.46875 541.851562 C 136.328125 541.480469 137.195312 541.089844 138.066406 540.671875 C 142.882812 538.371094 149.070312 537.191406 153.742188 536.445312 C 154.898438 536.261719 155.957031 536.101562 156.882812 535.960938 C 157.070312 535.933594 157.242188 535.90625 157.421875 535.875 C 157.546875 535.859375 157.679688 535.835938 157.796875 535.820312 C 157.800781 535.820312 157.804688 535.820312 157.804688 535.816406 C 158.738281 535.671875 160.726562 535.421875 163.285156 535.113281 L 163.304688 519.582031 C 154.320312 518.027344 145.78125 516.550781 138.386719 515.273438 Z M 298.539062 523.984375 C 294.160156 521.695312 287.28125 514.757812 287.28125 514.757812 C 287.28125 514.757812 287.292969 514.523438 287.304688 514.140625 C 287.308594 513.984375 287.3125 513.808594 287.316406 513.601562 C 287.355469 511.390625 287.28125 506.5625 285.992188 504.335938 C 281.8125 497.085938 276.160156 498.867188 270.214844 501.621094 C 270.046875 501.699219 269.882812 501.777344 269.71875 501.855469 C 268.257812 502.542969 266.78125 503.273438 265.304688 503.933594 C 265.132812 504.011719 264.957031 504.085938 264.785156 504.164062 C 264.730469 504.183594 264.679688 504.207031 264.628906 504.234375 C 263.425781 504.75 262.03125 505.03125 260.523438 505.140625 L 258.953125 531.570312 C 261.492188 532.035156 263.46875 532.40625 264.386719 532.609375 C 264.503906 532.636719 264.636719 532.664062 264.757812 532.691406 C 264.933594 532.730469 265.105469 532.765625 265.289062 532.808594 C 269.90625 533.804688 277.964844 535.417969 283.789062 538.652344 C 297.292969 546.148438 309.800781 547.640625 313.328125 540.800781 C 315.847656 535.925781 308.039062 528.980469 298.539062 523.984375 Z M 141.773438 395.984375 L 263.582031 395.984375 L 262.835938 411.691406 L 275.652344 406.410156 C 275.652344 406.410156 265.273438 383.5 257.3125 365.921875 C 254.996094 360.804688 250.65625 356.890625 245.332031 355.117188 C 244.367188 354.796875 243.378906 354.578125 242.386719 354.40625 L 209.8125 346.90625 C 203.492188 351.695312 194.964844 352.3125 188.019531 348.554688 C 186.640625 347.726562 185.707031 347.269531 185.707031 347.269531 L 153.265625 354.957031 C 151.746094 355.207031 150.246094 355.617188 148.800781 356.21875 C 143.621094 358.378906 139.582031 362.597656 137.644531 367.871094 C 130.992188 385.984375 122.324219 409.59375 122.324219 409.59375 L 142.382812 416.183594 Z M 215.195312 437.300781 C 215.195312 430.390625 209.589844 424.785156 202.675781 424.785156 C 195.765625 424.785156 190.160156 430.390625 190.160156 437.300781 C 190.160156 442.296875 193.097656 446.597656 197.332031 448.605469 L 207.957031 448.636719 C 212.226562 446.644531 215.195312 442.324219 215.195312 437.300781 Z M 215.195312 437.300781 " fill-opacity="1" fill-rule="evenodd"/><path fill="#f5c0a2" d="M 213.046875 301.886719 C 213.007812 301.804688 212.921875 301.636719 212.816406 301.421875 C 211.957031 302.15625 211.105469 302.960938 210.292969 303.789062 C 204.769531 309.394531 198.40625 314.109375 191.375 317.648438 C 191.054688 317.808594 190.875 317.898438 190.871094 317.898438 C 189.464844 318.179688 188.25 318.246094 187.183594 318.164062 C 185.503906 317.34375 180.996094 315.429688 179.164062 317.664062 C 177.972656 319.113281 178.339844 321.359375 178.875 322.308594 C 179.765625 323.882812 181.375 327.835938 184.191406 328.328125 C 184.355469 328.730469 184.542969 329.125 184.746094 329.515625 L 185.621094 347.289062 L 185.707031 347.269531 C 185.707031 347.269531 186.640625 347.726562 188.019531 348.554688 C 194.964844 352.3125 203.492188 351.691406 209.8125 346.90625 L 210.394531 347.039062 L 210.28125 342.972656 L 210.246094 341.921875 L 210.148438 339.515625 C 212.050781 338.367188 213.601562 336.644531 214.648438 334.675781 C 217.84375 328.664062 216.4375 321.300781 215.964844 314.835938 C 215.640625 310.417969 214.988281 305.917969 213.046875 301.886719 Z M 260.527344 505.140625 C 260.53125 505.140625 260.535156 505.136719 260.539062 505.136719 C 252.171875 505.75 240.433594 500.972656 240.433594 500.972656 L 233.191406 529.628906 C 233.191406 529.628906 259.984375 531.644531 264.390625 532.609375 C 263.472656 532.410156 261.496094 532.035156 258.957031 531.574219 Z M 124.753906 410.390625 C 124.28125 411.945312 123.808594 413.5 123.335938 415.070312 C 120.054688 425.914062 116.71875 437.046875 113.636719 447.25 C 113.128906 448.886719 112.871094 450.566406 112.800781 452.25 C 112.355469 455.066406 112.546875 457.976562 113.457031 460.742188 C 116.984375 471.484375 128.476562 475.996094 139.101562 472.636719 C 140.761719 472.113281 142.402344 471.597656 144.035156 471.085938 L 142.382812 416.1875 Z M 273.289062 407.382812 L 262.835938 411.691406 L 259.9375 472.835938 C 265.394531 473.578125 270.796875 472.355469 274.972656 469.328125 C 274.976562 469.335938 274.976562 469.335938 274.976562 469.335938 C 280.097656 467.582031 284.292969 463.824219 286.574219 458.910156 C 288.863281 454.007812 289.046875 448.378906 287.074219 443.328125 C 282.703125 431.941406 277.910156 419.371094 273.289062 407.382812 Z M 614.855469 161.621094 C 615.230469 161.734375 615.605469 161.816406 615.980469 161.90625 L 616.785156 172.304688 C 617.433594 180.128906 624.050781 186.121094 632.367188 185.410156 C 640.683594 184.703125 646.898438 177.789062 646.25 169.964844 L 642.101562 144.460938 C 643.515625 143.375 644.492188 141.886719 644.792969 140.125 C 645.507812 135.929688 643.464844 132.082031 640.226562 131.53125 C 636.992188 130.980469 636.25 134.035156 635.890625 136.136719 L 635.804688 136.660156 C 634.347656 136.59375 633.121094 136.621094 633.121094 136.621094 C 631.496094 131.824219 633.722656 124.199219 632.871094 118.445312 C 616.335938 115.167969 610.289062 122.109375 603.203125 119.230469 C 602.632812 121.21875 602.347656 123.328125 602.429688 125.507812 L 603.195312 146.4375 C 603.457031 153.257812 607.960938 159.503906 614.855469 161.621094 Z M 688.230469 224.976562 L 675.070312 225.171875 L 672.101562 227.167969 L 672.101562 237.816406 L 661.914062 242.582031 C 656.921875 243.976562 651.785156 246.105469 648.101562 247.621094 L 608.042969 266.457031 L 607.070312 266.914062 L 600.269531 268.3125 L 584.515625 276.511719 C 583.003906 277.382812 582.257812 279.238281 582.910156 280.855469 C 583.332031 281.894531 584.359375 282.847656 586.355469 282.890625 C 584.679688 285.058594 587.070312 288.449219 589.050781 288.375 C 588.71875 289.382812 590.601562 291.734375 593.308594 291.527344 C 593.402344 291.523438 593.546875 291.488281 593.710938 291.449219 C 593.980469 292.339844 594.710938 293.75 596.597656 293.570312 C 599.417969 293.300781 604.199219 291.304688 604.199219 291.304688 L 617.601562 285.105469 L 618.839844 284.109375 L 669.3125 264.785156 C 675.804688 262.261719 679.382812 260.109375 681.125 258.097656 C 693.613281 247.488281 688.230469 224.976562 688.230469 224.976562 Z M 659.59375 489.390625 L 640.332031 489.390625 C 640.324219 489.757812 640.304688 490.109375 640.304688 490.492188 C 640.304688 497.203125 639.910156 502.335938 639.585938 509.484375 C 641.265625 510.148438 643.464844 510.058594 645.882812 507.476562 C 650.738281 502.289062 655.96875 499.828125 661.171875 501.558594 C 659.691406 497.53125 659.449219 493.46875 659.59375 489.390625 Z M 581.023438 502.257812 C 581.03125 502.246094 581.039062 502.242188 581.046875 502.230469 C 588.066406 511.5 597.523438 509.597656 602.84375 506.882812 C 602.84375 506.886719 602.847656 506.890625 602.847656 506.894531 C 602.820312 501.527344 603.566406 494.332031 604.179688 489.390625 L 583.621094 489.390625 C 583.164062 495.148438 582.3125 499.019531 581.023438 502.257812 Z M 551.046875 239.917969 L 556.707031 237.109375 C 559.679688 235.847656 558.300781 231.605469 554.496094 232.773438 C 554.496094 232.773438 550.132812 233.851562 548.839844 234.300781 C 547.226562 234.867188 546.289062 236.550781 546.835938 238.171875 C 547.425781 239.90625 549.40625 240.726562 551.046875 239.917969 Z M 561.460938 247.578125 L 562.699219 246.058594 C 564.761719 243.835938 562.199219 240.789062 559.398438 242.703125 L 560.289062 241.941406 C 562.824219 239.9375 560.367188 236.214844 557.007812 238.351562 C 557.007812 238.351562 552.050781 241.261719 550.925781 242.039062 C 549.519531 243.011719 549.0625 244.882812 550.019531 246.300781 C 550.941406 247.660156 552.742188 248.007812 554.089844 247.1875 C 553.1875 248.355469 553.152344 249.988281 554.183594 251.101562 C 555.09375 252.082031 556.488281 252.300781 557.617188 251.789062 C 557.238281 252.78125 557.417969 253.921875 558.230469 254.707031 C 559.410156 255.851562 561.324219 255.691406 562.296875 254.371094 L 564.867188 250.238281 C 566.6875 248.046875 563.972656 245.308594 561.460938 247.578125 Z M 169.925781 521.71875 C 169.980469 521.339844 170.335938 521.078125 170.707031 521.128906 L 186.988281 523.457031 L 186.960938 523.3125 L 169.972656 520.886719 L 169.9375 520.726562 C 167.703125 520.339844 165.496094 519.957031 163.304688 519.578125 L 163.285156 535.109375 C 160.726562 535.417969 158.738281 535.671875 157.808594 535.816406 C 159.839844 535.5 166.488281 535.25 173.136719 535.066406 L 170.320312 522.433594 C 170.050781 522.308594 169.878906 522.027344 169.925781 521.71875 Z M 169.925781 521.71875 " fill-opacity="1" fill-rule="evenodd"/><path fill="#293237" d="M 170.980469 345.277344 L 171.953125 336.230469 L 168.574219 345.277344 L 155.847656 343.4375 C 168.683594 293.273438 192.589844 288.699219 192.589844 288.699219 C 193.5625 288.398438 194.570312 288.183594 195.605469 288.042969 C 201.582031 287.242188 207.367188 289.421875 211.3125 293.5625 C 212.320312 294.609375 213.1875 295.796875 213.925781 297.082031 C 215.234375 298.925781 216.304688 300.964844 217.433594 303.089844 C 219.746094 307.4375 221.738281 311.953125 223.398438 316.589844 C 226.734375 325.921875 228.738281 335.78125 228.929688 345.703125 C 225.03125 346.902344 218.121094 347.328125 210.402344 347.34375 L 210.28125 342.972656 L 210.246094 341.921875 L 210.148438 339.515625 C 212.050781 338.367188 213.601562 336.644531 214.648438 334.675781 C 217.84375 328.664062 216.4375 321.300781 215.964844 314.835938 C 215.640625 310.417969 214.988281 305.917969 213.046875 301.890625 C 213.007812 301.804688 212.921875 301.636719 212.816406 301.421875 C 211.957031 302.160156 211.105469 302.964844 210.292969 303.789062 C 204.769531 309.398438 198.40625 314.109375 191.375 317.648438 C 191.054688 317.808594 190.875 317.898438 190.871094 317.898438 C 189.464844 318.183594 188.25 318.246094 187.183594 318.167969 C 185.503906 317.34375 180.996094 315.433594 179.164062 317.664062 C 177.972656 319.117188 178.339844 321.359375 178.875 322.3125 C 179.765625 323.882812 181.375 327.835938 184.191406 328.328125 C 184.355469 328.730469 184.542969 329.125 184.746094 329.519531 L 185.578125 346.425781 C 177.15625 345.875 170.980469 345.277344 170.980469 345.277344 Z M 164.824219 395.984375 L 166.332031 383.1875 C 166.378906 382.808594 166.105469 382.464844 165.726562 382.417969 C 165.351562 382.359375 165 382.644531 164.953125 383.023438 L 163.429688 395.984375 Z M 233.265625 395.984375 L 231.753906 381.488281 C 231.714844 381.105469 231.371094 380.824219 230.992188 380.871094 C 230.613281 380.90625 230.332031 381.25 230.375 381.628906 L 231.871094 395.988281 L 233.265625 395.988281 Z M 673.578125 226.25 C 673.609375 226.253906 673.640625 226.253906 673.671875 226.253906 C 674.015625 226.253906 674.3125 226.003906 674.359375 225.65625 L 677.628906 201.816406 C 677.679688 201.4375 677.414062 201.085938 677.035156 201.035156 C 676.660156 200.984375 676.304688 201.25 676.253906 201.628906 L 672.984375 225.46875 C 672.933594 225.847656 673.199219 226.199219 673.578125 226.25 Z M 550.457031 179.835938 L 521.511719 211.410156 L 520.832031 210.769531 L 520.882812 210.714844 L 509.007812 179.167969 C 512.734375 178.089844 516.394531 173.710938 518.253906 170.183594 L 550 179.804688 L 550.199219 179.59375 Z M 603.207031 119.234375 C 602.945312 119.125 602.683594 119.035156 602.414062 118.902344 C 607.496094 105.117188 623.03125 101.355469 633.667969 106.816406 C 635.730469 103.421875 639.453125 101.148438 643.714844 101.148438 C 650.210938 101.148438 655.476562 106.414062 655.476562 112.910156 C 655.476562 118.703125 651.285156 123.507812 645.773438 124.480469 C 646.230469 128.183594 645.816406 132.003906 644.46875 135.601562 C 643.742188 133.457031 642.214844 131.871094 640.226562 131.53125 C 636.992188 130.980469 636.246094 134.035156 635.890625 136.140625 L 635.800781 136.660156 C 635.800781 136.660156 635.796875 136.660156 635.796875 136.660156 C 634.695312 136.613281 633.746094 136.613281 633.339844 136.621094 C 633.335938 136.621094 633.332031 136.621094 633.324219 136.621094 C 633.207031 136.621094 633.121094 136.621094 633.121094 136.621094 C 631.496094 131.828125 633.722656 124.199219 632.871094 118.445312 C 631.8125 118.238281 630.804688 118.070312 629.828125 117.941406 C 629.5625 117.90625 629.316406 117.890625 629.054688 117.859375 C 628.363281 117.777344 627.667969 117.699219 627.015625 117.652344 C 626.761719 117.632812 626.535156 117.632812 626.289062 117.621094 C 625.648438 117.589844 625.011719 117.558594 624.40625 117.554688 C 624.214844 117.550781 624.039062 117.5625 623.851562 117.5625 C 623.210938 117.566406 622.578125 117.578125 621.976562 117.613281 C 621.871094 117.617188 621.773438 117.628906 621.667969 117.636719 C 613.050781 118.1875 608.398438 121.34375 603.207031 119.234375 Z M 602.84375 506.882812 C 604.691406 512.570312 604.949219 519.082031 604.847656 523.539062 C 604.8125 524.890625 604.75 526.0625 604.683594 526.953125 C 604.605469 528.046875 603.695312 528.886719 602.601562 528.886719 L 549.90625 528.886719 C 548.644531 528.886719 547.664062 527.777344 547.832031 526.523438 C 548.148438 524.15625 549.390625 521.691406 554.320312 519.558594 C 555.4375 519.070312 556.648438 518.515625 557.914062 517.898438 L 561.523438 523.539062 L 557.914062 517.898438 C 566.226562 513.863281 576.949219 507.347656 581.042969 502.230469 C 588.066406 511.5 597.523438 509.597656 602.84375 506.882812 Z M 680.015625 526.484375 C 680.222656 527.746094 679.222656 528.886719 677.945312 528.886719 L 641.253906 528.886719 C 640.097656 528.886719 639.160156 527.9375 639.164062 526.78125 C 639.179688 522.691406 639.246094 519.191406 639.339844 516.078125 C 639.34375 515.949219 639.347656 515.824219 639.351562 515.699219 C 639.363281 515.257812 639.378906 514.824219 639.390625 514.398438 C 639.398438 514.191406 639.40625 513.988281 639.414062 513.78125 C 639.425781 513.425781 639.4375 513.070312 639.453125 512.726562 C 639.464844 512.398438 639.476562 512.082031 639.488281 511.765625 C 639.496094 511.554688 639.503906 511.335938 639.515625 511.128906 C 639.539062 510.566406 639.5625 510.019531 639.585938 509.484375 C 639.984375 509.640625 640.414062 509.75 640.867188 509.800781 C 642.324219 509.960938 644.039062 509.445312 645.882812 507.476562 C 648.917969 504.234375 652.097656 502.054688 655.328125 501.300781 C 655.980469 501.148438 656.632812 501.054688 657.285156 501.023438 C 658.578125 500.957031 659.875 501.125 661.171875 501.558594 C 661.269531 501.824219 661.359375 502.09375 661.472656 502.363281 C 661.476562 502.371094 661.480469 502.378906 661.484375 502.390625 C 661.753906 503.035156 662.058594 503.65625 662.390625 504.253906 C 662.511719 504.46875 662.652344 504.667969 662.777344 504.875 C 663.011719 505.257812 663.242188 505.640625 663.5 506.003906 C 663.667969 506.242188 663.847656 506.46875 664.023438 506.695312 C 664.265625 507.015625 664.503906 507.332031 664.761719 507.636719 C 664.960938 507.875 665.171875 508.105469 665.378906 508.339844 C 665.632812 508.621094 665.882812 508.902344 666.144531 509.175781 C 666.371094 509.410156 666.605469 509.644531 666.839844 509.875 C 667.097656 510.132812 667.355469 510.386719 667.617188 510.632812 C 667.875 510.878906 668.136719 511.121094 668.398438 511.363281 C 668.644531 511.589844 668.890625 511.816406 669.136719 512.039062 C 670.207031 512.996094 671.28125 513.933594 672.332031 514.878906 C 672.457031 514.992188 672.585938 515.105469 672.710938 515.21875 C 672.710938 515.21875 672.707031 515.21875 672.703125 515.21875 C 676.1875 518.390625 679.238281 521.730469 680.015625 526.484375 Z M 681.035156 302.835938 C 680.71875 302.820312 680.402344 302.835938 680.089844 302.886719 C 680.082031 302.886719 680.074219 302.886719 680.066406 302.890625 C 679.777344 302.9375 679.496094 303.011719 679.222656 303.117188 C 679.1875 303.128906 679.152344 303.136719 679.117188 303.152344 C 678.871094 303.25 678.640625 303.375 678.410156 303.515625 C 678.355469 303.546875 678.300781 303.570312 678.25 303.605469 C 677.984375 303.789062 677.730469 303.996094 677.5 304.238281 C 671.558594 310.550781 658.660156 324.242188 652.71875 330.550781 C 651 332.375 651.085938 335.25 652.910156 336.96875 C 655.558594 339.464844 659.257812 342.949219 661.90625 345.445312 C 663.28125 346.738281 665.242188 347.011719 666.863281 346.292969 C 667.726562 347.101562 668.695312 348.015625 669.699219 348.960938 L 668.78125 395.792969 C 668.78125 395.792969 672.460938 423.207031 669.976562 441.855469 C 668.195312 455.199219 664.484375 477.675781 662.519531 489.390625 L 639.015625 489.390625 L 633.757812 317.140625 L 630.492188 314.066406 L 617.765625 400.292969 C 623.574219 430.429688 611.675781 472.378906 606.550781 489.390625 L 583 489.390625 L 587.027344 394.886719 L 590.503906 300.214844 C 591.113281 300.6875 591.835938 301.023438 592.640625 301.15625 C 601.355469 302.566406 610.484375 303.480469 619.703125 303.902344 L 605.628906 290.644531 L 617.601562 285.105469 L 618.839844 284.109375 L 648.925781 272.589844 Z M 597.894531 279.238281 L 586.601562 283.539062 C 586.519531 283.570312 586.4375 283.582031 586.355469 283.582031 C 586.074219 283.582031 585.808594 283.414062 585.707031 283.136719 C 585.570312 282.78125 585.75 282.378906 586.105469 282.242188 L 597.402344 277.941406 C 597.761719 277.804688 598.164062 277.980469 598.296875 278.34375 C 598.433594 278.699219 598.253906 279.101562 597.894531 279.238281 Z M 601.769531 284.269531 L 589.300781 289.023438 C 589.21875 289.054688 589.136719 289.070312 589.050781 289.070312 C 588.773438 289.070312 588.507812 288.898438 588.402344 288.621094 C 588.265625 288.265625 588.445312 287.863281 588.804688 287.726562 L 601.273438 282.972656 C 601.632812 282.835938 602.03125 283.015625 602.167969 283.375 C 602.304688 283.730469 602.128906 284.132812 601.769531 284.269531 Z M 601.578125 287.996094 C 601.726562 288.347656 601.5625 288.757812 601.210938 288.90625 L 593.578125 292.167969 C 593.492188 292.203125 593.398438 292.222656 593.308594 292.222656 C 593.039062 292.222656 592.78125 292.066406 592.667969 291.800781 C 592.519531 291.449219 592.683594 291.039062 593.035156 290.890625 L 600.667969 287.628906 C 601.015625 287.480469 601.429688 287.644531 601.578125 287.996094 Z M 306.910156 488.8125 C 305.894531 481.679688 301.996094 475.273438 296.121094 471.078125 C 291.585938 467.847656 286.171875 466.210938 280.679688 466.25 C 278.972656 467.566406 277.058594 468.625 274.980469 469.335938 C 274.980469 469.335938 274.980469 469.335938 274.976562 469.324219 C 270.796875 472.355469 265.398438 473.574219 259.9375 472.835938 L 259.808594 475.589844 L 259.664062 478.613281 L 178.84375 478.613281 L 258.292969 494.167969 C 258.667969 494.242188 258.914062 494.605469 258.84375 494.980469 C 258.777344 495.3125 258.488281 495.542969 258.164062 495.542969 C 258.121094 495.542969 258.074219 495.539062 258.027344 495.527344 L 172.351562 478.753906 C 172.238281 478.730469 172.144531 478.679688 172.0625 478.613281 L 144.265625 478.613281 L 144.175781 475.589844 L 144.039062 471.082031 C 142.40625 471.59375 140.761719 472.109375 139.105469 472.632812 C 133.648438 474.359375 127.96875 473.992188 123.25 471.789062 C 119.824219 475.632812 117.554688 480.410156 116.816406 485.585938 C 114.800781 499.691406 124.355469 512.835938 138.390625 515.269531 C 147.582031 516.859375 158.539062 518.753906 169.9375 520.722656 L 169.976562 520.886719 L 212.324219 526.933594 C 212.703125 526.988281 212.96875 527.339844 212.914062 527.71875 C 212.863281 528.066406 212.566406 528.316406 212.230469 528.316406 C 212.195312 528.316406 212.164062 528.3125 212.128906 528.308594 L 170.300781 522.332031 L 173.746094 537.785156 C 173.746094 537.785156 195.242188 534.066406 221.191406 529.582031 C 238.03125 532.492188 249.988281 534.558594 249.988281 534.558594 L 250.765625 531.074219 C 242.296875 530.308594 233.191406 529.625 233.191406 529.625 L 240.4375 500.96875 C 240.4375 500.96875 256.765625 507.621094 264.632812 504.230469 C 272.511719 500.835938 280.519531 494.832031 285.996094 504.332031 C 287.699219 507.277344 287.285156 514.753906 287.285156 514.753906 C 287.285156 514.753906 288.347656 515.824219 289.898438 517.257812 C 301.371094 513.066406 308.699219 501.328125 306.910156 488.8125 Z M 588.113281 215.308594 L 586.761719 202.148438 C 586.722656 201.765625 586.355469 201.488281 586 201.53125 C 585.621094 201.570312 585.34375 201.910156 585.382812 202.289062 L 586.570312 213.855469 L 551.464844 180.789062 L 522.523438 212.359375 L 547.191406 235.597656 C 547.570312 235.019531 548.132812 234.550781 548.84375 234.300781 C 550.136719 233.851562 554.496094 232.773438 554.496094 232.773438 C 558.300781 231.605469 559.683594 235.847656 556.707031 237.109375 L 551.523438 239.679688 L 552.789062 240.867188 C 554.625 239.75 557.007812 238.351562 557.007812 238.351562 C 560.367188 236.214844 562.824219 239.9375 560.289062 241.941406 L 559.398438 242.703125 C 562.199219 240.789062 564.761719 243.835938 562.699219 246.058594 L 561.460938 247.578125 C 563.972656 245.308594 566.6875 248.046875 564.867188 250.234375 L 564.078125 251.503906 L 588.453125 274.464844 L 600.269531 268.3125 L 607.070312 266.910156 L 608.042969 266.453125 L 630.96875 255.675781 Z M 588.113281 215.308594 " fill-opacity="1" fill-rule="nonzero"/></svg>