<svg xmlns="http://www.w3.org/2000/svg" xmlns:xlink="http://www.w3.org/1999/xlink" width="1080" zoomAndPan="magnify" viewBox="0 0 810 562.499983" height="750" preserveAspectRatio="xMidYMid meet" version="1.0"><path fill="#caddff" d="M 631.101562 135.941406 C 615.472656 104.394531 584.238281 87.34375 564.867188 76.773438 C 481.140625 31.078125 367.078125 43.242188 291.265625 85.851562 C 216.433594 127.910156 151.214844 227.488281 178.554688 335.683594 C 206 444.292969 312.808594 500.140625 393.59375 511.976562 C 521.875 530.78125 629.65625 445.242188 635.558594 415.558594 C 637.378906 406.402344 636.902344 398.289062 636.902344 398.289062 C 634.628906 376.859375 617 364.128906 612.898438 315.285156 C 605.339844 225.417969 658.515625 191.269531 631.101562 135.941406 " fill-opacity="1" fill-rule="nonzero"/><path fill="#000000" d="M 337.035156 399.3125 C 337.777344 398.902344 338.527344 398.503906 339.285156 398.125 C 345.976562 394.78125 353.199219 392.285156 360.222656 389.734375 C 386.242188 380.289062 413.058594 373.335938 439.566406 365.449219 C 448.949219 362.660156 458.332031 359.914062 467.769531 357.34375 C 504.109375 281.140625 569.464844 142.320312 563.367188 142.320312 L 209.804688 128.667969 C 201.398438 128.667969 194.554688 135.511719 194.554688 143.921875 L 194.554688 390.800781 C 194.554688 399.210938 201.398438 406.050781 209.804688 406.050781 L 337.558594 397.394531 L 337.035156 399.3125 " fill-opacity="1" fill-rule="nonzero"/><path fill="#ffffff" d="M 442.140625 374.492188 L 351.980469 374.492188 L 326.402344 467.867188 L 467.714844 467.867188 L 442.140625 374.492188 " fill-opacity="1" fill-rule="nonzero"/><path fill="#000000" d="M 327.507812 467.027344 L 466.609375 467.027344 L 441.496094 375.335938 L 352.625 375.335938 Z M 467.714844 468.710938 L 326.402344 468.710938 C 326.140625 468.710938 325.890625 468.589844 325.730469 468.378906 C 325.574219 468.171875 325.519531 467.902344 325.589844 467.644531 L 351.164062 374.265625 C 351.265625 373.902344 351.597656 373.648438 351.980469 373.648438 L 442.140625 373.648438 C 442.519531 373.648438 442.855469 373.902344 442.953125 374.265625 L 468.53125 467.644531 C 468.601562 467.902344 468.546875 468.171875 468.386719 468.378906 C 468.230469 468.589844 467.980469 468.710938 467.714844 468.710938 " fill-opacity="1" fill-rule="nonzero"/><path fill="#ffffff" d="M 577.058594 129.53125 L 217.058594 129.53125 C 209.113281 129.53125 202.671875 135.976562 202.671875 143.921875 L 202.671875 390.800781 C 202.671875 398.746094 209.113281 405.191406 217.058594 405.191406 L 577.058594 405.191406 C 585.003906 405.191406 591.449219 398.746094 591.449219 390.800781 L 591.449219 143.921875 C 591.449219 135.976562 585.003906 129.53125 577.058594 129.53125 " fill-opacity="1" fill-rule="nonzero"/><path fill="#000000" d="M 217.058594 130.378906 C 209.59375 130.378906 203.515625 136.453125 203.515625 143.921875 L 203.515625 390.800781 C 203.515625 398.269531 209.59375 404.347656 217.058594 404.347656 L 577.058594 404.347656 C 584.527344 404.347656 590.605469 398.269531 590.605469 390.800781 L 590.605469 143.921875 C 590.605469 136.453125 584.527344 130.378906 577.058594 130.378906 Z M 577.058594 406.035156 L 217.058594 406.035156 C 208.660156 406.035156 201.828125 399.199219 201.828125 390.800781 L 201.828125 143.921875 C 201.828125 135.523438 208.660156 128.6875 217.058594 128.6875 L 577.058594 128.6875 C 585.457031 128.6875 592.289062 135.523438 592.289062 143.921875 L 592.289062 390.800781 C 592.289062 399.199219 585.457031 406.035156 577.058594 406.035156 " fill-opacity="1" fill-rule="nonzero"/><path fill="#ffffff" d="M 483.0625 458.277344 L 311.054688 458.277344 C 306.113281 458.277344 302.105469 462.285156 302.105469 467.230469 C 302.105469 472.175781 306.113281 476.183594 311.054688 476.183594 L 483.0625 476.183594 C 488.007812 476.183594 492.015625 472.175781 492.015625 467.230469 C 492.015625 462.285156 488.007812 458.277344 483.0625 458.277344 " fill-opacity="1" fill-rule="nonzero"/><path fill="#000000" d="M 311.054688 459.121094 C 306.585938 459.121094 302.949219 462.757812 302.949219 467.230469 C 302.949219 471.699219 306.585938 475.339844 311.054688 475.339844 L 483.0625 475.339844 C 487.535156 475.339844 491.171875 471.699219 491.171875 467.230469 C 491.171875 462.757812 487.535156 459.121094 483.0625 459.121094 Z M 483.0625 477.027344 L 311.054688 477.027344 C 305.65625 477.027344 301.261719 472.628906 301.261719 467.230469 C 301.261719 461.828125 305.65625 457.429688 311.054688 457.429688 L 483.0625 457.429688 C 488.464844 457.429688 492.859375 461.828125 492.859375 467.230469 C 492.859375 472.628906 488.464844 477.027344 483.0625 477.027344 " fill-opacity="1" fill-rule="nonzero"/><path fill="#ffffff" d="M 571.503906 142.328125 L 222.613281 142.328125 C 218.664062 142.328125 215.460938 145.53125 215.460938 149.480469 L 215.460938 385.246094 C 215.460938 389.195312 218.664062 392.398438 222.613281 392.398438 L 571.503906 392.398438 C 575.453125 392.398438 578.65625 389.195312 578.65625 385.246094 L 578.65625 149.480469 C 578.65625 145.53125 575.453125 142.328125 571.503906 142.328125 " fill-opacity="1" fill-rule="nonzero"/><path fill="#000000" d="M 222.617188 143.164062 C 219.136719 143.164062 216.304688 146 216.304688 149.480469 L 216.304688 385.242188 C 216.304688 388.722656 219.136719 391.554688 222.617188 391.554688 L 571.507812 391.554688 C 574.984375 391.554688 577.820312 388.722656 577.820312 385.242188 L 577.820312 149.480469 C 577.820312 146 574.984375 143.164062 571.507812 143.164062 Z M 571.507812 393.242188 L 222.617188 393.242188 C 218.207031 393.242188 214.617188 389.652344 214.617188 385.242188 L 214.617188 149.480469 C 214.617188 145.066406 218.207031 141.480469 222.617188 141.480469 L 571.507812 141.480469 C 575.917969 141.480469 579.503906 145.066406 579.503906 149.480469 L 579.503906 385.242188 C 579.503906 389.652344 575.917969 393.242188 571.507812 393.242188 " fill-opacity="1" fill-rule="nonzero"/><path fill="#ffffff" d="M 528.5625 391.460938 L 259.359375 391.460938 L 259.359375 62.914062 L 528.5625 62.914062 L 528.5625 391.460938 " fill-opacity="1" fill-rule="nonzero"/><path fill="#000000" d="M 260.203125 390.617188 L 527.71875 390.617188 L 527.71875 63.753906 L 260.203125 63.753906 Z M 528.5625 392.304688 L 259.359375 392.304688 C 258.894531 392.304688 258.515625 391.925781 258.515625 391.460938 L 258.515625 62.914062 C 258.515625 62.445312 258.894531 62.070312 259.359375 62.070312 L 528.5625 62.070312 C 529.027344 62.070312 529.40625 62.445312 529.40625 62.914062 L 529.40625 391.460938 C 529.40625 391.925781 529.027344 392.304688 528.5625 392.304688 " fill-opacity="1" fill-rule="nonzero"/><path fill="#99b9ff" d="M 409.191406 90.75 L 279.238281 90.75 L 279.238281 82.546875 L 409.191406 82.546875 L 409.191406 90.75 " fill-opacity="1" fill-rule="nonzero"/><path fill="#caddff" d="M 474.855469 104.996094 L 322.953125 104.996094 L 322.953125 96.457031 L 474.855469 96.457031 L 474.855469 104.996094 " fill-opacity="1" fill-rule="nonzero"/><path fill="#caddff" d="M 508.683594 119.066406 L 356.78125 119.066406 L 356.78125 110.53125 L 508.683594 110.53125 L 508.683594 119.066406 " fill-opacity="1" fill-rule="nonzero"/><path fill="#caddff" d="M 490.367188 133.144531 L 411.851562 133.144531 L 411.851562 124.605469 L 490.367188 124.605469 L 490.367188 133.144531 " fill-opacity="1" fill-rule="nonzero"/><path fill="#99b9ff" d="M 409.191406 203.351562 L 279.238281 203.351562 L 279.238281 195.148438 L 409.191406 195.148438 L 409.191406 203.351562 " fill-opacity="1" fill-rule="nonzero"/><path fill="#caddff" d="M 474.855469 217.597656 L 322.953125 217.597656 L 322.953125 209.058594 L 474.855469 209.058594 L 474.855469 217.597656 " fill-opacity="1" fill-rule="nonzero"/><path fill="#caddff" d="M 508.683594 231.667969 L 356.78125 231.667969 L 356.78125 223.132812 L 508.683594 223.132812 L 508.683594 231.667969 " fill-opacity="1" fill-rule="nonzero"/><path fill="#caddff" d="M 508.683594 245.746094 L 411.851562 245.746094 L 411.851562 237.207031 L 508.683594 237.207031 L 508.683594 245.746094 " fill-opacity="1" fill-rule="nonzero"/><path fill="#caddff" d="M 474.855469 147.21875 L 322.953125 147.21875 L 322.953125 138.679688 L 474.855469 138.679688 L 474.855469 147.21875 " fill-opacity="1" fill-rule="nonzero"/><path fill="#caddff" d="M 508.683594 161.292969 L 356.78125 161.292969 L 356.78125 152.757812 L 508.683594 152.757812 L 508.683594 161.292969 " fill-opacity="1" fill-rule="nonzero"/><path fill="#caddff" d="M 472.050781 189.445312 L 411.851562 189.445312 L 411.851562 180.90625 L 472.050781 180.90625 L 472.050781 189.445312 " fill-opacity="1" fill-rule="nonzero"/><path fill="#caddff" d="M 508.6875 175.367188 L 411.851562 175.367188 L 411.851562 166.832031 L 508.6875 166.832031 L 508.6875 175.367188 " fill-opacity="1" fill-rule="nonzero"/><path fill="#99b9ff" d="M 409.191406 259.652344 L 279.238281 259.652344 L 279.238281 251.453125 L 409.191406 251.453125 L 409.191406 259.652344 " fill-opacity="1" fill-rule="nonzero"/><path fill="#caddff" d="M 474.855469 273.894531 L 322.953125 273.894531 L 322.953125 265.359375 L 474.855469 265.359375 L 474.855469 273.894531 " fill-opacity="1" fill-rule="nonzero"/><path fill="#caddff" d="M 503.800781 287.96875 L 356.785156 287.96875 L 356.785156 279.433594 L 503.800781 279.433594 L 503.800781 287.96875 " fill-opacity="1" fill-rule="nonzero"/><path fill="#99b9ff" d="M 508.683594 302.046875 L 411.851562 302.046875 L 411.851562 293.507812 L 508.683594 293.507812 L 508.683594 302.046875 " fill-opacity="1" fill-rule="nonzero"/><path fill="#99b9ff" d="M 438.863281 372.421875 L 356.78125 372.421875 L 356.78125 363.886719 L 438.863281 363.886719 L 438.863281 372.421875 " fill-opacity="1" fill-rule="nonzero"/><path fill="#caddff" d="M 474.855469 316.121094 L 322.953125 316.121094 L 322.953125 307.582031 L 474.855469 307.582031 L 474.855469 316.121094 " fill-opacity="1" fill-rule="nonzero"/><path fill="#caddff" d="M 508.683594 330.195312 L 356.78125 330.195312 L 356.78125 321.660156 L 508.683594 321.660156 L 508.683594 330.195312 " fill-opacity="1" fill-rule="nonzero"/><path fill="#caddff" d="M 508.683594 358.34375 L 411.851562 358.34375 L 411.851562 349.808594 L 508.683594 349.808594 L 508.683594 358.34375 " fill-opacity="1" fill-rule="nonzero"/><path fill="#caddff" d="M 467.289062 344.269531 L 411.851562 344.269531 L 411.851562 335.734375 L 467.289062 335.734375 L 467.289062 344.269531 " fill-opacity="1" fill-rule="nonzero"/><path fill="#5479f7" d="M 485.601562 129.03125 C 472.695312 136.5 456.179688 132.09375 448.710938 119.1875 C 441.242188 106.277344 445.648438 89.757812 458.550781 82.285156 C 471.457031 74.816406 487.972656 79.222656 495.441406 92.132812 C 502.914062 105.039062 498.507812 121.558594 485.601562 129.03125 Z M 521.660156 83.015625 L 516.40625 73.9375 L 505.476562 77.355469 C 503.882812 75.46875 502.15625 73.738281 500.3125 72.179688 L 503.699219 61.25 L 494.609375 56.019531 L 486.847656 64.445312 C 484.550781 63.625 482.195312 62.992188 479.792969 62.5625 L 477.261719 51.386719 L 466.773438 51.398438 L 464.269531 62.5625 C 461.894531 62.992188 459.539062 63.632812 457.214844 64.476562 L 449.441406 56.066406 L 440.359375 61.320312 L 443.777344 72.253906 C 441.894531 73.851562 440.160156 75.574219 438.609375 77.421875 L 427.679688 74.03125 L 422.445312 83.121094 L 430.875 90.882812 C 430.050781 93.179688 429.421875 95.539062 428.992188 97.9375 L 417.820312 100.472656 L 417.828125 110.960938 L 428.992188 113.46875 C 429.421875 115.84375 430.0625 118.203125 430.902344 120.523438 L 422.496094 128.300781 L 427.746094 137.382812 L 438.683594 133.964844 C 440.277344 135.851562 442 137.582031 443.847656 139.136719 L 440.457031 150.066406 L 449.546875 155.300781 L 457.308594 146.871094 C 459.601562 147.691406 461.960938 148.324219 464.359375 148.757812 L 466.890625 159.933594 L 477.378906 159.917969 L 479.886719 148.753906 C 482.261719 148.324219 484.621094 147.683594 486.9375 146.84375 L 494.714844 155.253906 L 503.792969 149.996094 L 500.378906 139.0625 C 502.261719 137.46875 503.992188 135.742188 505.550781 133.898438 L 516.472656 137.289062 L 521.710938 128.199219 L 513.285156 120.433594 C 514.105469 118.136719 514.734375 115.777344 515.164062 113.378906 L 526.339844 110.847656 L 526.324219 100.355469 L 515.164062 97.851562 C 514.734375 95.476562 514.09375 93.117188 513.25 90.792969 L 521.660156 83.015625 " fill-opacity="1" fill-rule="nonzero"/><path fill="#000000" d="M 467.046875 78.175781 C 462.601562 78.175781 458.101562 79.308594 453.988281 81.6875 C 441.507812 88.914062 437.230469 104.949219 444.457031 117.433594 C 447.957031 123.480469 453.601562 127.804688 460.351562 129.605469 C 467.101562 131.40625 474.148438 130.46875 480.195312 126.96875 C 486.242188 123.46875 490.558594 117.824219 492.363281 111.070312 C 494.164062 104.320312 493.230469 97.273438 489.730469 91.226562 C 484.886719 82.859375 476.082031 78.175781 467.046875 78.175781 Z M 467.136719 132.191406 C 464.730469 132.191406 462.304688 131.871094 459.914062 131.234375 C 452.730469 129.320312 446.722656 124.71875 442.996094 118.277344 C 435.304688 104.992188 439.859375 87.917969 453.144531 80.230469 C 466.433594 72.535156 483.5 77.089844 491.1875 90.378906 C 494.914062 96.816406 495.910156 104.320312 493.992188 111.507812 C 492.078125 118.695312 487.472656 124.703125 481.039062 128.429688 C 476.742188 130.917969 471.972656 132.191406 467.136719 132.191406 Z M 452.324219 144.699219 C 452.417969 144.699219 452.511719 144.714844 452.609375 144.75 C 454.851562 145.550781 457.179688 146.171875 459.523438 146.59375 C 459.855469 146.652344 460.121094 146.90625 460.199219 147.238281 L 462.582031 157.753906 L 471.71875 157.746094 L 474.078125 147.238281 C 474.152344 146.90625 474.417969 146.652344 474.75 146.59375 C 477.058594 146.175781 479.386719 145.546875 481.664062 144.71875 C 481.984375 144.601562 482.34375 144.691406 482.570312 144.941406 L 489.894531 152.855469 L 497.800781 148.277344 L 494.585938 137.984375 C 494.484375 137.660156 494.589844 137.304688 494.847656 137.089844 C 496.699219 135.527344 498.402344 133.820312 499.917969 132.027344 C 500.136719 131.765625 500.488281 131.660156 500.8125 131.761719 L 511.09375 134.949219 L 515.65625 127.03125 L 507.726562 119.722656 C 507.476562 119.496094 507.386719 119.136719 507.503906 118.816406 C 508.304688 116.574219 508.925781 114.246094 509.347656 111.898438 C 509.410156 111.566406 509.660156 111.300781 509.992188 111.226562 L 520.507812 108.84375 L 520.496094 99.703125 L 509.992188 97.34375 C 509.660156 97.269531 509.410156 97.003906 509.347656 96.667969 C 508.929688 94.359375 508.296875 92.03125 507.472656 89.753906 C 507.359375 89.433594 507.445312 89.078125 507.695312 88.847656 L 515.605469 81.523438 L 511.03125 73.613281 L 500.742188 76.828125 C 500.417969 76.929688 500.0625 76.828125 499.84375 76.566406 C 498.28125 74.71875 496.574219 73.011719 494.78125 71.496094 C 494.523438 71.277344 494.417969 70.925781 494.519531 70.605469 L 497.707031 60.316406 L 489.789062 55.753906 L 482.484375 63.6875 C 482.253906 63.9375 481.898438 64.023438 481.578125 63.910156 C 479.332031 63.105469 477.003906 62.484375 474.660156 62.066406 C 474.328125 62.003906 474.0625 61.753906 473.988281 61.421875 L 471.605469 50.902344 L 462.46875 50.914062 L 460.109375 61.421875 C 460.035156 61.746094 459.769531 62.003906 459.433594 62.066406 C 457.121094 62.484375 454.796875 63.113281 452.519531 63.9375 C 452.199219 64.054688 451.84375 63.96875 451.613281 63.71875 L 444.292969 55.800781 L 436.382812 60.382812 L 439.597656 70.675781 C 439.699219 71 439.597656 71.351562 439.335938 71.570312 C 437.488281 73.132812 435.785156 74.835938 434.265625 76.632812 C 434.046875 76.894531 433.695312 76.996094 433.371094 76.898438 L 423.089844 73.707031 L 418.53125 81.628906 L 426.457031 88.933594 C 426.707031 89.164062 426.796875 89.523438 426.683594 89.839844 C 425.878906 92.085938 425.257812 94.414062 424.835938 96.757812 C 424.773438 97.089844 424.523438 97.359375 424.191406 97.433594 L 413.675781 99.816406 L 413.6875 108.957031 L 424.191406 111.316406 C 424.523438 111.390625 424.773438 111.65625 424.835938 111.988281 C 425.253906 114.300781 425.886719 116.628906 426.710938 118.90625 C 426.824219 119.222656 426.738281 119.582031 426.492188 119.8125 L 418.578125 127.132812 L 423.15625 135.046875 L 433.445312 131.828125 C 433.769531 131.726562 434.121094 131.832031 434.339844 132.089844 C 435.90625 133.941406 437.605469 135.648438 439.402344 137.160156 C 439.664062 137.378906 439.765625 137.730469 439.667969 138.054688 L 436.476562 148.339844 L 444.394531 152.902344 L 451.703125 144.972656 C 451.863281 144.796875 452.089844 144.699219 452.324219 144.699219 Z M 461.90625 159.445312 C 461.511719 159.445312 461.171875 159.171875 461.085938 158.785156 L 458.675781 148.152344 C 456.605469 147.753906 454.558594 147.207031 452.566406 146.523438 L 445.179688 154.542969 C 444.914062 154.832031 444.480469 154.902344 444.140625 154.703125 L 435.054688 149.46875 C 434.710938 149.269531 434.550781 148.863281 434.667969 148.484375 L 437.890625 138.085938 C 436.316406 136.726562 434.8125 135.222656 433.417969 133.605469 L 423.015625 136.855469 C 422.640625 136.976562 422.230469 136.816406 422.03125 136.476562 L 416.777344 127.398438 C 416.582031 127.054688 416.644531 126.621094 416.9375 126.351562 L 424.9375 118.949219 C 424.234375 116.9375 423.679688 114.886719 423.277344 112.84375 L 412.660156 110.457031 C 412.273438 110.367188 412 110.027344 412 109.632812 L 411.988281 99.140625 C 411.988281 98.75 412.261719 98.410156 412.648438 98.320312 L 423.277344 95.910156 C 423.675781 93.84375 424.222656 91.792969 424.910156 89.800781 L 416.890625 82.410156 C 416.601562 82.144531 416.535156 81.710938 416.730469 81.371094 L 421.964844 72.277344 C 422.160156 71.9375 422.566406 71.777344 422.945312 71.898438 L 433.339844 75.121094 C 434.710938 73.546875 436.207031 72.042969 437.820312 70.648438 L 434.574219 60.242188 C 434.457031 59.867188 434.613281 59.457031 434.957031 59.257812 L 444.03125 54.003906 C 444.375 53.808594 444.804688 53.871094 445.070312 54.164062 L 452.472656 62.164062 C 454.484375 61.460938 456.539062 60.90625 458.582031 60.507812 L 460.96875 49.882812 C 461.054688 49.5 461.394531 49.222656 461.792969 49.222656 L 472.28125 49.214844 C 472.671875 49.214844 473.011719 49.488281 473.101562 49.871094 L 475.511719 60.503906 C 477.574219 60.902344 479.625 61.453125 481.617188 62.136719 L 489.003906 54.117188 C 489.269531 53.824219 489.707031 53.757812 490.046875 53.957031 L 499.132812 59.191406 C 499.476562 59.386719 499.636719 59.796875 499.519531 60.171875 L 496.296875 70.574219 C 497.867188 71.933594 499.371094 73.4375 500.769531 75.054688 L 511.167969 71.800781 C 511.546875 71.683594 511.953125 71.84375 512.152344 72.183594 L 517.402344 81.261719 C 517.601562 81.605469 517.539062 82.035156 517.25 82.304688 L 509.246094 89.710938 C 509.953125 91.722656 510.507812 93.773438 510.90625 95.816406 L 521.523438 98.203125 C 521.910156 98.289062 522.183594 98.632812 522.183594 99.023438 L 522.191406 109.515625 C 522.191406 109.910156 521.921875 110.25 521.539062 110.339844 L 510.90625 112.75 C 510.507812 114.816406 509.960938 116.867188 509.277344 118.859375 L 517.296875 126.246094 C 517.585938 126.515625 517.652344 126.949219 517.453125 127.289062 L 512.21875 136.378906 C 512.023438 136.722656 511.613281 136.878906 511.242188 136.761719 L 500.84375 133.539062 C 499.476562 135.113281 497.976562 136.613281 496.363281 138.011719 L 499.613281 148.417969 C 499.730469 148.792969 499.570312 149.203125 499.230469 149.398438 L 490.15625 154.65625 C 489.808594 154.851562 489.382812 154.785156 489.113281 154.496094 L 481.710938 146.496094 C 479.695312 147.199219 477.644531 147.753906 475.601562 148.152344 L 473.214844 158.773438 C 473.128906 159.15625 472.789062 159.433594 472.394531 159.433594 L 461.90625 159.445312 " fill-opacity="1" fill-rule="nonzero"/><path fill="#ffffff" d="M 544.191406 362.660156 L 543.792969 376.84375 L 537.085938 376.84375 L 534.832031 361.363281 L 544.191406 362.660156 " fill-opacity="1" fill-rule="nonzero"/><path fill="#000000" d="M 537.820312 376 L 542.976562 376 L 543.328125 363.394531 L 535.835938 362.351562 Z M 543.796875 377.683594 L 537.089844 377.683594 C 536.671875 377.683594 536.316406 377.378906 536.253906 376.964844 L 534 361.484375 C 533.964844 361.21875 534.050781 360.957031 534.238281 360.765625 C 534.425781 360.578125 534.691406 360.488281 534.949219 360.523438 L 544.308594 361.824219 C 544.734375 361.882812 545.050781 362.253906 545.035156 362.683594 L 544.640625 376.867188 C 544.625 377.324219 544.25 377.683594 543.796875 377.683594 " fill-opacity="1" fill-rule="nonzero"/><path fill="#000000" d="M 509.585938 388.679688 L 544.371094 388.679688 C 546.183594 388.679688 547.570312 387.074219 547.308594 385.28125 C 546.710938 381.214844 545.65625 374.613281 544.742188 371.921875 C 543.382812 367.902344 538.976562 374.308594 538.976562 374.308594 L 536.402344 372.140625 C 536.402344 372.140625 513.476562 378.855469 508.214844 385.925781 C 507.363281 387.0625 508.167969 388.679688 509.585938 388.679688 " fill-opacity="1" fill-rule="nonzero"/><path fill="#ffffff" d="M 544.191406 386.875 L 511.695312 386.875 C 511.230469 386.875 510.851562 386.5 510.851562 386.03125 C 510.851562 385.566406 511.230469 385.1875 511.695312 385.1875 L 544.191406 385.1875 C 544.65625 385.1875 545.035156 385.566406 545.035156 386.03125 C 545.035156 386.5 544.65625 386.875 544.191406 386.875 " fill-opacity="1" fill-rule="nonzero"/><path fill="#ffffff" d="M 593.894531 347.582031 L 606.640625 363.734375 L 613.390625 358.675781 L 602.476562 340.855469 L 593.894531 347.582031 " fill-opacity="1" fill-rule="nonzero"/><path fill="#000000" d="M 595.085938 347.722656 L 606.796875 362.566406 L 612.273438 358.460938 L 602.253906 342.105469 Z M 606.648438 364.578125 C 606.398438 364.578125 606.152344 364.464844 605.984375 364.253906 L 593.234375 348.105469 C 593.097656 347.929688 593.035156 347.703125 593.058594 347.480469 C 593.089844 347.257812 593.203125 347.054688 593.375 346.917969 L 601.960938 340.191406 C 602.152344 340.042969 602.394531 339.984375 602.628906 340.023438 C 602.867188 340.066406 603.074219 340.210938 603.199219 340.414062 L 614.113281 358.230469 C 614.34375 358.605469 614.25 359.085938 613.902344 359.347656 L 607.152344 364.410156 C 607.003906 364.519531 606.824219 364.578125 606.648438 364.578125 " fill-opacity="1" fill-rule="nonzero"/><path fill="#000000" d="M 593.171875 387.324219 C 599.015625 384.59375 614.046875 376.953125 622.542969 366.96875 C 623.308594 366.074219 623.328125 364.761719 622.617188 363.816406 C 620.808594 361.40625 617.136719 356.949219 613.394531 354.875 C 613.394531 354.875 605.777344 357.527344 607.824219 361.117188 L 605.042969 360.671875 C 605.042969 360.671875 592.773438 374.460938 590.972656 385.679688 C 590.773438 386.90625 592.046875 387.847656 593.171875 387.324219 " fill-opacity="1" fill-rule="nonzero"/><path fill="#ffffff" d="M 593.449219 385.265625 C 593.15625 385.265625 592.867188 385.109375 592.714844 384.832031 C 592.488281 384.425781 592.632812 383.914062 593.039062 383.6875 C 593.21875 383.585938 610.914062 373.683594 620.207031 363.789062 C 620.527344 363.449219 621.058594 363.433594 621.398438 363.75 C 621.738281 364.070312 621.753906 364.605469 621.4375 364.945312 C 611.960938 375.027344 594.042969 385.058594 593.859375 385.160156 C 593.734375 385.234375 593.59375 385.265625 593.449219 385.265625 " fill-opacity="1" fill-rule="nonzero"/><path fill="#5479f7" d="M 513.671875 242.9375 C 513.671875 242.9375 519.914062 285.195312 523.484375 307.414062 C 527.054688 329.636719 534.734375 365.4375 534.734375 365.4375 L 545.765625 365.4375 C 545.765625 365.4375 549.398438 341.125 550.273438 327.648438 C 551.144531 314.171875 546.699219 310.371094 545.816406 299.523438 C 544.933594 288.675781 550.449219 253.617188 550.449219 253.617188 L 534.097656 237.636719 L 513.671875 242.9375 " fill-opacity="1" fill-rule="nonzero"/><path fill="#5479f7" d="M 541.371094 252.285156 C 541.371094 252.285156 560.9375 308.597656 594.988281 352.207031 L 606.539062 343.085938 C 606.539062 343.085938 597.367188 313.375 595.097656 309.550781 C 592.828125 305.730469 586.746094 295.851562 584.921875 290.660156 C 579.007812 273.816406 572.734375 241.691406 572.734375 241.691406 L 541.371094 252.285156 " fill-opacity="1" fill-rule="nonzero"/><path fill="#ffffff" d="M 516.769531 168.316406 C 515.003906 166.546875 515.371094 165.433594 515.699219 165.355469 C 515.992188 165.28125 517.792969 164.398438 518.351562 163.90625 C 519.691406 162.730469 520.125 161.035156 519.320312 160.121094 C 518.890625 159.632812 518.191406 159.464844 517.433594 159.597656 C 517.640625 157.144531 516.9375 155.972656 516.347656 154.289062 C 514.324219 148.484375 509.257812 149.695312 507.425781 151.78125 C 505.824219 153.601562 505.941406 155.160156 502.472656 156.917969 C 502.144531 157.085938 502.148438 157.589844 502.328125 157.910156 L 503.238281 159.757812 C 503.441406 160.121094 503.363281 161.015625 503.238281 161.417969 C 502.835938 162.652344 501.890625 165.25 502.160156 165.753906 C 502.679688 166.730469 506.742188 168.191406 506.742188 168.191406 L 513.949219 179.070312 C 513.652344 181.359375 512.34375 182.644531 511.363281 183.304688 C 510.757812 183.710938 510.753906 184.601562 511.371094 184.988281 C 512.539062 185.71875 514.882812 186.851562 519.597656 188.519531 C 525.835938 190.71875 532.601562 182.539062 532.601562 182.539062 C 532.601562 182.539062 530.703125 182.261719 516.769531 168.316406 " fill-opacity="1" fill-rule="nonzero"/><path fill="#000000" d="M 502.957031 165.507812 Z M 515.90625 166.171875 C 515.90625 166.171875 515.902344 166.171875 515.902344 166.171875 C 515.902344 166.171875 515.90625 166.171875 515.90625 166.171875 Z M 515.902344 166.171875 C 515.898438 166.171875 515.898438 166.171875 515.898438 166.171875 C 515.898438 166.171875 515.898438 166.171875 515.902344 166.171875 Z M 532.722656 181.703125 C 532.726562 181.703125 532.726562 181.703125 532.726562 181.703125 C 532.726562 181.703125 532.726562 181.703125 532.722656 181.703125 Z M 532.726562 181.703125 Z M 532.726562 181.703125 Z M 532.84375 181.730469 Z M 502.957031 165.417969 C 503.359375 165.839844 505.191406 166.738281 507.03125 167.398438 C 507.199219 167.460938 507.347656 167.578125 507.449219 167.726562 L 514.65625 178.601562 C 514.765625 178.773438 514.816406 178.976562 514.789062 179.179688 C 514.453125 181.757812 513 183.226562 511.835938 184.003906 C 511.765625 184.054688 511.753906 184.117188 511.753906 184.152344 C 511.753906 184.230469 511.800781 184.261719 511.820312 184.273438 C 512.832031 184.90625 515.046875 186.015625 519.878906 187.722656 C 524.429688 189.328125 529.488281 184.628906 531.277344 182.742188 C 529.523438 181.558594 525.472656 178.214844 516.175781 168.910156 C 514.414062 167.148438 514.519531 165.890625 514.648438 165.433594 C 514.777344 164.96875 515.09375 164.636719 515.496094 164.535156 C 515.792969 164.441406 517.375 163.640625 517.800781 163.269531 C 518.851562 162.347656 519.109375 161.160156 518.6875 160.679688 C 518.472656 160.433594 518.066406 160.34375 517.574219 160.429688 C 517.316406 160.472656 517.054688 160.394531 516.863281 160.21875 C 516.671875 160.042969 516.570312 159.785156 516.59375 159.523438 C 516.746094 157.71875 516.371094 156.730469 515.890625 155.480469 C 515.777344 155.1875 515.664062 154.886719 515.554688 154.566406 C 514.835938 152.515625 513.648438 151.269531 512.117188 150.972656 C 510.515625 150.65625 508.863281 151.421875 508.058594 152.335938 C 507.609375 152.847656 507.3125 153.335938 506.992188 153.851562 C 506.261719 155.042969 505.507812 156.273438 503.09375 157.546875 L 503.996094 159.386719 C 504.363281 160.035156 504.179688 161.230469 504.042969 161.675781 C 503.976562 161.867188 503.902344 162.089844 503.820312 162.339844 C 503.5625 163.105469 502.984375 164.84375 502.957031 165.417969 Z M 521.839844 189.742188 C 521.003906 189.742188 520.160156 189.613281 519.316406 189.3125 C 515.320312 187.902344 512.5 186.6875 510.925781 185.703125 C 510.398438 185.371094 510.078125 184.804688 510.066406 184.183594 C 510.054688 183.546875 510.367188 182.960938 510.894531 182.605469 C 511.722656 182.046875 512.746094 181.023438 513.066406 179.261719 L 506.195312 168.890625 C 504.765625 168.363281 501.984375 167.21875 501.414062 166.144531 C 501.078125 165.507812 501.320312 164.503906 502.21875 161.804688 C 502.296875 161.566406 502.371094 161.34375 502.433594 161.15625 C 502.523438 160.871094 502.546875 160.296875 502.488281 160.140625 L 501.574219 158.285156 C 501.359375 157.90625 501.300781 157.398438 501.429688 156.96875 C 501.539062 156.609375 501.773438 156.324219 502.09375 156.164062 C 504.273438 155.058594 504.863281 154.089844 505.554688 152.972656 C 505.894531 152.414062 506.25 151.84375 506.789062 151.222656 C 507.878906 149.984375 510.113281 148.859375 512.441406 149.316406 C 513.941406 149.609375 515.980469 150.664062 517.144531 154.015625 C 517.25 154.3125 517.359375 154.597656 517.464844 154.878906 C 517.878906 155.960938 518.308594 157.078125 518.3125 158.734375 C 518.972656 158.8125 519.546875 159.097656 519.953125 159.5625 C 521.082031 160.847656 520.625 163.035156 518.910156 164.539062 C 518.386719 165 517.003906 165.726562 516.273438 166.035156 C 516.316406 166.316406 516.554688 166.902344 517.367188 167.71875 C 529.953125 180.316406 532.609375 181.632812 532.828125 181.726562 C 533.085938 181.796875 533.292969 181.984375 533.386719 182.234375 C 533.496094 182.519531 533.445312 182.839844 533.25 183.074219 C 532.996094 183.382812 527.667969 189.738281 521.839844 189.742188 " fill-opacity="1" fill-rule="nonzero"/><path fill="#000000" d="M 509.453125 153.398438 C 509.453125 153.398438 503.078125 148.324219 504.859375 144.242188 C 505.011719 143.882812 505.492188 142.757812 506.589844 142.261719 C 508.839844 141.246094 511.75 143.703125 512.402344 144.246094 C 518.054688 148.953125 521.824219 149.414062 524.222656 151.882812 C 525.09375 152.777344 526.0625 154.4375 525.945312 157.746094 C 525.484375 160.101562 524.511719 161.351562 523.707031 162.054688 C 522.058594 163.5 520.628906 163.082031 519.460938 164.601562 C 518.148438 166.308594 518.96875 168.105469 518.054688 168.640625 C 517.351562 169.054688 515.800781 168.597656 512.15625 164.984375 C 514.335938 162.550781 515.410156 160.152344 514.644531 158.945312 C 514.421875 158.605469 513.808594 158.023438 513.160156 158.03125 C 512.308594 158.035156 511.742188 158.945312 511.742188 158.945312 L 509.453125 153.398438 " fill-opacity="1" fill-rule="nonzero"/><path fill="#ffffff" d="M 440.257812 171.242188 L 432.320312 166.519531 C 431.578125 166.078125 430.972656 165.4375 430.578125 164.675781 L 428.59375 160.871094 C 428.300781 160.308594 428.984375 159.746094 429.480469 160.148438 L 433.894531 163.734375 C 434.515625 164.238281 435.242188 164.597656 436.023438 164.777344 L 442.402344 166.347656 L 443.863281 163.375 C 444.292969 162.5 445.203125 161.964844 446.179688 162.007812 L 444.523438 169.191406 L 446.46875 175.921875 L 441.542969 177.503906 L 440.257812 171.242188 " fill-opacity="1" fill-rule="nonzero"/><path fill="#000000" d="M 429.921875 161.597656 L 431.324219 164.285156 C 431.648438 164.910156 432.140625 165.433594 432.75 165.792969 L 440.6875 170.515625 C 440.890625 170.636719 441.035156 170.839844 441.082031 171.070312 L 442.179688 176.414062 L 445.429688 175.371094 L 443.714844 169.425781 C 443.671875 169.289062 443.667969 169.140625 443.703125 169 L 445.03125 163.226562 C 444.863281 163.367188 444.722656 163.542969 444.617188 163.75 L 443.160156 166.722656 C 442.980469 167.078125 442.585938 167.261719 442.199219 167.167969 L 435.824219 165.597656 C 434.933594 165.390625 434.082031 164.976562 433.363281 164.390625 Z M 441.542969 178.351562 C 441.394531 178.351562 441.246094 178.3125 441.117188 178.234375 C 440.910156 178.113281 440.765625 177.910156 440.714844 177.675781 L 439.503906 171.777344 L 431.886719 167.242188 C 431.007812 166.722656 430.296875 165.96875 429.824219 165.0625 L 427.84375 161.257812 C 427.527344 160.652344 427.675781 159.929688 428.207031 159.496094 C 428.738281 159.0625 429.480469 159.0625 430.007812 159.492188 L 434.425781 163.082031 C 434.941406 163.503906 435.5625 163.804688 436.214844 163.957031 L 441.945312 165.367188 L 443.105469 163.003906 C 443.683594 161.828125 444.914062 161.101562 446.214844 161.167969 C 446.46875 161.175781 446.699219 161.300781 446.847656 161.5 C 447.003906 161.699219 447.054688 161.953125 447 162.199219 L 445.394531 169.167969 L 447.277344 175.691406 C 447.402344 176.128906 447.160156 176.589844 446.726562 176.726562 L 441.800781 178.3125 C 441.714844 178.339844 441.628906 178.351562 441.542969 178.351562 " fill-opacity="1" fill-rule="nonzero"/><path fill="#ffffff" d="M 538.289062 98.035156 C 538.289062 98.035156 535.964844 95.261719 533.449219 95.507812 C 530.9375 95.757812 528.835938 95.628906 528.835938 95.628906 C 528.835938 95.628906 528.96875 93.589844 530.351562 93.664062 C 531.734375 93.742188 531.734375 93.742188 531.734375 93.742188 L 533.082031 93.246094 L 527.8125 82.546875 L 531.269531 83.132812 C 531.96875 83.25 532.59375 83.628906 533.027344 84.1875 L 541.773438 95.539062 L 538.289062 98.035156 " fill-opacity="1" fill-rule="nonzero"/><path fill="#000000" d="M 533.769531 94.652344 C 535.769531 94.652344 537.539062 96.09375 538.394531 96.921875 L 540.566406 95.363281 L 532.355469 84.707031 C 532.054688 84.3125 531.617188 84.050781 531.128906 83.96875 L 529.296875 83.660156 L 533.835938 92.878906 C 533.941406 93.09375 533.953125 93.34375 533.863281 93.566406 C 533.773438 93.789062 533.59375 93.960938 533.371094 94.042969 L 532.019531 94.535156 C 531.914062 94.578125 531.796875 94.59375 531.6875 94.585938 L 530.300781 94.511719 C 530.136719 94.503906 530.003906 94.636719 529.910156 94.820312 C 530.742188 94.824219 531.992188 94.808594 533.367188 94.671875 C 533.5 94.660156 533.632812 94.652344 533.769531 94.652344 Z M 538.289062 98.882812 C 538.050781 98.882812 537.808594 98.777344 537.640625 98.578125 C 537.074219 97.902344 535.214844 96.183594 533.53125 96.355469 C 530.976562 96.605469 528.871094 96.480469 528.785156 96.476562 C 528.5625 96.460938 528.351562 96.359375 528.203125 96.191406 C 528.050781 96.023438 527.980469 95.804688 527.992188 95.578125 C 528.082031 94.195312 528.871094 92.738281 530.394531 92.824219 L 531.601562 92.890625 L 531.90625 92.78125 L 527.054688 82.921875 C 526.914062 82.636719 526.941406 82.296875 527.136719 82.046875 C 527.324219 81.792969 527.640625 81.664062 527.949219 81.71875 L 531.410156 82.304688 C 532.316406 82.457031 533.128906 82.945312 533.691406 83.679688 L 542.4375 95.023438 C 542.574219 95.207031 542.636719 95.433594 542.601562 95.660156 C 542.570312 95.890625 542.445312 96.09375 542.261719 96.226562 L 538.78125 98.722656 C 538.632812 98.832031 538.460938 98.882812 538.289062 98.882812 " fill-opacity="1" fill-rule="nonzero"/><path fill="#ffffff" d="M 500.191406 210.3125 L 505.089844 247.441406 C 505.089844 247.441406 517.863281 249.414062 530.894531 248.328125 C 530.894531 248.328125 514.355469 209.210938 500.191406 210.3125 " fill-opacity="1" fill-rule="nonzero"/><path fill="#000000" d="M 505.84375 246.699219 C 508.460938 247.054688 518.886719 248.324219 529.640625 247.574219 C 526.929688 241.488281 513.078125 211.71875 501.152344 211.140625 Z M 522.65625 249.496094 C 512.988281 249.496094 505.058594 248.292969 504.960938 248.277344 C 504.589844 248.21875 504.300781 247.925781 504.253906 247.554688 L 499.355469 210.421875 C 499.324219 210.191406 499.390625 209.960938 499.535156 209.777344 C 499.683594 209.601562 499.894531 209.484375 500.125 209.46875 C 514.746094 208.347656 530.984375 246.378906 531.667969 248 C 531.773438 248.25 531.753906 248.53125 531.613281 248.765625 C 531.472656 248.996094 531.230469 249.148438 530.960938 249.167969 C 528.144531 249.402344 525.332031 249.496094 522.65625 249.496094 " fill-opacity="1" fill-rule="nonzero"/><path fill="#000000" d="M 446.878906 171.046875 C 444.148438 172.972656 441.414062 174.90625 438.679688 176.835938 C 448.972656 200.699219 461.203125 208.941406 470.308594 212.125 C 485.980469 217.597656 495.695312 209.21875 506.917969 217.027344 C 519.558594 225.835938 512.398438 240.101562 526.621094 253.925781 C 539.375 266.328125 556.777344 266.160156 560.269531 266.125 C 563.832031 266.09375 584.0625 265.898438 589.601562 253.925781 C 591.550781 249.710938 590.988281 245.539062 590.585938 242.542969 C 589.832031 236.96875 587.234375 232.863281 577.585938 220.871094 C 570.550781 212.125 569.582031 211.441406 567.429688 208.589844 C 562.761719 202.394531 557.425781 192.484375 555.527344 176.601562 C 558.695312 170.601562 565.003906 156.667969 563.703125 138.332031 C 561.925781 113.277344 547.175781 97.320312 542.90625 93 C 540.621094 94.679688 538.332031 96.359375 536.050781 98.039062 C 538.59375 102.371094 545.914062 116.09375 543.691406 134.40625 C 541.523438 152.226562 531.664062 163.386719 528.519531 166.839844 C 524.214844 171.574219 507.554688 188.355469 482.46875 186.882812 C 463.351562 185.757812 450.738281 174.710938 446.878906 171.046875 " fill-opacity="1" fill-rule="nonzero"/><path fill="#ffffff" d="M 501.929688 184.242188 C 501.929688 184.242188 500.074219 180.417969 501.929688 179.660156 C 503.785156 178.898438 524.363281 168.59375 527.679688 164.054688 C 530.996094 159.519531 546.542969 161.332031 549.757812 164.054688 C 552.96875 166.78125 548.476562 178.027344 541.304688 182.511719 C 534.132812 186.992188 518.890625 178.671875 501.929688 184.242188 " fill-opacity="1" fill-rule="nonzero"/><path fill="#000000" d="M 537.078125 162.136719 C 536 162.136719 534.933594 162.191406 533.925781 162.3125 C 531.148438 162.640625 529.175781 163.4375 528.359375 164.554688 C 524.757812 169.488281 503.355469 179.988281 502.25 180.445312 C 502.152344 180.480469 502.078125 180.539062 502.019531 180.683594 C 501.8125 181.230469 502.070312 182.324219 502.402344 183.210938 C 511.546875 180.40625 520.195312 181.484375 527.183594 182.355469 C 533.136719 183.09375 537.84375 183.679688 540.855469 181.796875 C 545.90625 178.640625 549.632812 171.890625 549.945312 167.566406 C 550.046875 166.207031 549.785156 165.191406 549.210938 164.703125 C 547.625 163.359375 542.1875 162.136719 537.078125 162.136719 Z M 501.925781 185.085938 C 501.609375 185.085938 501.3125 184.910156 501.167969 184.613281 C 501.023438 184.320312 499.8125 181.734375 500.445312 180.085938 C 500.65625 179.523438 501.058594 179.105469 501.605469 178.878906 C 503.382812 178.152344 523.835938 167.882812 526.996094 163.5625 C 528.125 162.019531 530.386719 161.03125 533.722656 160.636719 C 539.609375 159.9375 547.820312 161.3125 550.300781 163.414062 C 551.308594 164.273438 551.769531 165.75 551.628906 167.6875 C 551.285156 172.40625 547.414062 179.6875 541.75 183.230469 C 538.230469 185.429688 533.261719 184.8125 526.976562 184.027344 C 519.96875 183.160156 511.246094 182.070312 502.1875 185.046875 C 502.105469 185.074219 502.011719 185.085938 501.925781 185.085938 " fill-opacity="1" fill-rule="nonzero"/><path fill="#000000" d="M 422.089844 486.164062 L 340.628906 486.164062 C 340.164062 486.164062 339.785156 485.789062 339.785156 485.320312 C 339.785156 484.855469 340.164062 484.476562 340.628906 484.476562 L 421.242188 484.476562 L 421.242188 428.984375 C 421.242188 428.515625 421.621094 428.140625 422.089844 428.140625 L 489.523438 428.140625 L 489.523438 387.613281 C 489.523438 387.148438 489.898438 386.769531 490.367188 386.769531 L 623.132812 386.769531 C 623.597656 386.769531 623.976562 387.148438 623.976562 387.613281 C 623.976562 388.082031 623.597656 388.457031 623.132812 388.457031 L 491.210938 388.457031 L 491.210938 428.984375 C 491.210938 429.445312 490.832031 429.828125 490.367188 429.828125 L 422.933594 429.828125 L 422.933594 485.320312 C 422.933594 485.789062 422.554688 486.164062 422.089844 486.164062 " fill-opacity="1" fill-rule="nonzero"/><path fill="#000000" d="M 398.902344 135.941406 C 395.480469 135.941406 392.691406 133.15625 392.691406 129.734375 C 392.691406 126.3125 395.480469 123.53125 398.902344 123.53125 C 399.367188 123.53125 399.746094 123.90625 399.746094 124.375 C 399.746094 124.839844 399.367188 125.21875 398.902344 125.21875 C 396.40625 125.21875 394.378906 127.246094 394.378906 129.734375 C 394.378906 132.226562 396.40625 134.25 398.902344 134.25 C 401.398438 134.25 403.425781 132.226562 403.425781 129.734375 C 403.425781 129.269531 403.804688 128.890625 404.269531 128.890625 C 404.738281 128.890625 405.113281 129.269531 405.113281 129.734375 C 405.113281 133.15625 402.328125 135.941406 398.902344 135.941406 " fill-opacity="1" fill-rule="nonzero"/><path fill="#000000" d="M 248.28125 466.632812 C 248.109375 466.632812 247.941406 466.582031 247.792969 466.476562 C 220.128906 446.878906 196.796875 420.929688 180.316406 391.421875 C 180.089844 391.015625 180.234375 390.5 180.640625 390.273438 C 181.046875 390.046875 181.5625 390.191406 181.789062 390.601562 C 198.144531 419.886719 221.304688 445.644531 248.769531 465.097656 C 249.148438 465.367188 249.238281 465.894531 248.96875 466.277344 C 248.804688 466.507812 248.542969 466.632812 248.28125 466.632812 " fill-opacity="1" fill-rule="nonzero"/><path fill="#000000" d="M 220.355469 467.6875 C 220.164062 467.6875 219.972656 467.625 219.816406 467.496094 C 209.179688 458.707031 199.28125 448.902344 190.410156 438.355469 C 190.109375 438 190.15625 437.464844 190.511719 437.167969 C 190.867188 436.867188 191.402344 436.914062 191.699219 437.269531 C 200.507812 447.738281 210.328125 457.46875 220.890625 466.195312 C 221.25 466.492188 221.300781 467.023438 221.003906 467.382812 C 220.835938 467.585938 220.597656 467.6875 220.355469 467.6875 " fill-opacity="1" fill-rule="nonzero"/><path fill="#ffffff" d="M 249.839844 88.648438 L 214.667969 123.285156 L 249.839844 88.648438 " fill-opacity="1" fill-rule="nonzero"/><path fill="#000000" d="M 214.667969 124.132812 C 214.449219 124.132812 214.230469 124.046875 214.066406 123.875 C 213.738281 123.546875 213.742188 123.011719 214.074219 122.6875 L 249.246094 88.046875 C 249.578125 87.722656 250.113281 87.722656 250.441406 88.058594 C 250.765625 88.390625 250.761719 88.925781 250.429688 89.25 L 215.257812 123.886719 C 215.09375 124.050781 214.878906 124.132812 214.667969 124.132812 " fill-opacity="1" fill-rule="nonzero"/><path fill="#ffffff" d="M 249.601562 69.625 L 231.089844 87.855469 L 249.601562 69.625 " fill-opacity="1" fill-rule="nonzero"/><path fill="#000000" d="M 231.089844 88.699219 C 230.871094 88.699219 230.652344 88.617188 230.488281 88.449219 C 230.160156 88.117188 230.164062 87.582031 230.496094 87.253906 L 249.007812 69.023438 C 249.339844 68.699219 249.875 68.703125 250.199219 69.035156 C 250.527344 69.367188 250.523438 69.902344 250.191406 70.226562 L 231.679688 88.457031 C 231.515625 88.621094 231.300781 88.699219 231.089844 88.699219 " fill-opacity="1" fill-rule="nonzero"/><path fill="#000000" d="M 578.886719 441.863281 C 578.675781 441.863281 578.464844 441.785156 578.304688 441.628906 C 577.964844 441.304688 577.953125 440.773438 578.273438 440.433594 L 580.929688 437.660156 C 581.253906 437.324219 581.789062 437.3125 582.121094 437.632812 C 582.460938 437.957031 582.472656 438.488281 582.148438 438.824219 L 579.496094 441.601562 C 579.328125 441.777344 579.105469 441.863281 578.886719 441.863281 " fill-opacity="1" fill-rule="nonzero"/><path fill="#000000" d="M 569.589844 451.578125 C 569.382812 451.578125 569.171875 451.5 569.003906 451.34375 C 568.671875 451.023438 568.660156 450.484375 568.980469 450.148438 L 571.636719 447.375 C 571.960938 447.039062 572.492188 447.027344 572.832031 447.347656 C 573.167969 447.671875 573.175781 448.203125 572.855469 448.539062 L 570.199219 451.316406 C 570.035156 451.492188 569.8125 451.578125 569.589844 451.578125 " fill-opacity="1" fill-rule="nonzero"/><path fill="#000000" d="M 572.199219 442.011719 C 571.984375 442.011719 571.769531 441.929688 571.609375 441.765625 L 568.914062 439.109375 C 568.578125 438.785156 568.578125 438.25 568.902344 437.917969 C 569.230469 437.585938 569.765625 437.582031 570.09375 437.910156 L 572.789062 440.566406 C 573.125 440.894531 573.125 441.429688 572.800781 441.761719 C 572.636719 441.929688 572.417969 442.011719 572.199219 442.011719 " fill-opacity="1" fill-rule="nonzero"/><path fill="#000000" d="M 581.632812 451.308594 C 581.417969 451.308594 581.203125 451.226562 581.039062 451.066406 L 578.34375 448.410156 C 578.011719 448.082031 578.007812 447.546875 578.335938 447.21875 C 578.664062 446.886719 579.199219 446.878906 579.527344 447.210938 L 582.222656 449.863281 C 582.554688 450.191406 582.558594 450.726562 582.230469 451.058594 C 582.066406 451.226562 581.847656 451.308594 581.632812 451.308594 " fill-opacity="1" fill-rule="nonzero"/><path fill="#000000" d="M 600.730469 413.304688 C 598.539062 414.289062 597.542969 416.914062 598.507812 419.160156 C 598.980469 420.253906 599.839844 421.089844 600.933594 421.511719 C 601.996094 421.925781 603.15625 421.894531 604.199219 421.429688 C 606.386719 420.441406 607.382812 417.816406 606.414062 415.574219 C 605.945312 414.476562 605.085938 413.644531 603.996094 413.21875 C 602.929688 412.804688 601.769531 412.835938 600.730469 413.304688 Z M 602.464844 423.492188 C 601.742188 423.492188 601.015625 423.355469 600.320312 423.085938 C 598.804688 422.496094 597.609375 421.339844 596.960938 419.828125 C 595.632812 416.742188 597.015625 413.125 600.035156 411.765625 C 601.496094 411.109375 603.117188 411.066406 604.609375 411.644531 C 606.121094 412.234375 607.3125 413.394531 607.96875 414.90625 C 609.292969 417.992188 607.914062 421.605469 604.890625 422.96875 C 604.113281 423.316406 603.289062 423.492188 602.464844 423.492188 " fill-opacity="1" fill-rule="nonzero"/><path fill="#000000" d="M 541.128906 63.503906 C 540.910156 63.503906 540.695312 63.417969 540.53125 63.253906 L 538.078125 60.796875 C 537.753906 60.46875 537.753906 59.9375 538.082031 59.605469 C 538.410156 59.277344 538.945312 59.277344 539.277344 59.605469 L 541.722656 62.058594 C 542.054688 62.390625 542.054688 62.925781 541.722656 63.253906 C 541.558594 63.417969 541.34375 63.503906 541.128906 63.503906 " fill-opacity="1" fill-rule="nonzero"/><path fill="#000000" d="M 549.707031 72.085938 C 549.492188 72.085938 549.277344 72.003906 549.109375 71.839844 L 546.660156 69.386719 C 546.332031 69.054688 546.332031 68.523438 546.660156 68.191406 C 546.992188 67.863281 547.527344 67.863281 547.851562 68.191406 L 550.304688 70.648438 C 550.636719 70.976562 550.632812 71.511719 550.304688 71.839844 C 550.136719 72.003906 549.925781 72.085938 549.707031 72.085938 " fill-opacity="1" fill-rule="nonzero"/><path fill="#000000" d="M 538.679688 72.085938 C 538.464844 72.085938 538.246094 72.003906 538.085938 71.839844 C 537.753906 71.511719 537.753906 70.976562 538.082031 70.648438 L 540.53125 68.191406 C 540.863281 67.863281 541.398438 67.863281 541.726562 68.191406 C 542.058594 68.523438 542.058594 69.054688 541.726562 69.386719 L 539.28125 71.839844 C 539.113281 72.003906 538.894531 72.085938 538.679688 72.085938 " fill-opacity="1" fill-rule="nonzero"/><path fill="#000000" d="M 547.253906 63.503906 C 547.039062 63.503906 546.824219 63.417969 546.660156 63.253906 C 546.328125 62.925781 546.328125 62.390625 546.660156 62.058594 L 549.109375 59.605469 C 549.4375 59.277344 549.972656 59.277344 550.304688 59.605469 C 550.628906 59.9375 550.628906 60.46875 550.304688 60.796875 L 547.851562 63.253906 C 547.6875 63.417969 547.472656 63.503906 547.253906 63.503906 " fill-opacity="1" fill-rule="nonzero"/><path fill="#000000" d="M 605.5625 131.734375 L 605.566406 131.734375 Z M 607.042969 132.261719 C 606.65625 132.261719 606.269531 132.339844 605.90625 132.503906 C 604.464844 133.152344 603.8125 134.882812 604.449219 136.359375 C 604.757812 137.082031 605.324219 137.628906 606.039062 137.910156 C 606.734375 138.179688 607.496094 138.160156 608.183594 137.851562 C 609.621094 137.203125 610.273438 135.476562 609.636719 134 C 609.328125 133.277344 608.761719 132.726562 608.046875 132.449219 C 607.71875 132.320312 607.378906 132.261719 607.042969 132.261719 Z M 607.046875 139.785156 C 606.5 139.785156 605.953125 139.6875 605.425781 139.480469 C 604.285156 139.039062 603.390625 138.167969 602.898438 137.027344 C 601.898438 134.707031 602.9375 131.988281 605.214844 130.96875 C 606.3125 130.472656 607.535156 130.4375 608.65625 130.878906 C 609.796875 131.320312 610.695312 132.191406 611.1875 133.332031 C 612.1875 135.648438 611.148438 138.367188 608.871094 139.390625 C 608.285156 139.652344 607.667969 139.785156 607.046875 139.785156 " fill-opacity="1" fill-rule="nonzero"/><path fill="#ffffff" d="M 279.28125 472.476562 L 281.835938 490.425781 L 287.371094 490.425781 L 287.675781 472.773438 L 279.28125 472.476562 " fill-opacity="1" fill-rule="nonzero"/><path fill="#000000" d="M 282.570312 489.582031 L 286.539062 489.582031 L 286.820312 473.585938 L 280.257812 473.359375 Z M 287.371094 491.269531 L 281.835938 491.269531 C 281.417969 491.269531 281.058594 490.960938 281 490.546875 L 278.445312 472.59375 C 278.410156 472.351562 278.484375 472.097656 278.652344 471.914062 C 278.820312 471.726562 279.0625 471.628906 279.308594 471.632812 L 287.707031 471.929688 C 288.167969 471.949219 288.527344 472.328125 288.519531 472.789062 L 288.214844 490.441406 C 288.207031 490.902344 287.828125 491.269531 287.371094 491.269531 " fill-opacity="1" fill-rule="nonzero"/><path fill="#ffffff" d="M 281.617188 507.585938 C 284.261719 507.871094 288.59375 508.054688 293.644531 507.1875 C 295.300781 506.902344 296.347656 505.25 295.894531 503.632812 C 294.625 499.128906 291.898438 490.597656 288.460938 486.714844 L 287.710938 488.90625 L 286.511719 486.90625 C 286.347656 486.632812 286.0625 486.453125 285.746094 486.421875 L 283.253906 486.191406 C 282.730469 486.144531 282.261719 486.503906 282.167969 487.015625 L 281.835938 488.90625 L 280.890625 486.472656 L 279.117188 504.5 C 278.964844 506.042969 280.078125 507.421875 281.617188 507.585938 " fill-opacity="1" fill-rule="nonzero"/><path fill="#000000" d="M 281.707031 506.746094 C 284.378906 507.035156 288.59375 507.199219 293.5 506.355469 C 294.066406 506.253906 294.542969 505.9375 294.847656 505.453125 C 295.152344 504.972656 295.234375 504.410156 295.082031 503.863281 C 293.914062 499.707031 291.625 492.546875 288.757812 488.460938 L 288.511719 489.179688 C 288.40625 489.492188 288.128906 489.710938 287.800781 489.75 C 287.476562 489.78125 287.15625 489.621094 286.988281 489.34375 L 285.789062 487.339844 C 285.761719 487.296875 285.714844 487.265625 285.664062 487.265625 L 283.171875 487.03125 C 283.09375 487.023438 283.015625 487.082031 283 487.164062 L 282.667969 489.054688 C 282.601562 489.425781 282.296875 489.710938 281.917969 489.75 C 281.746094 489.765625 281.574219 489.726562 281.425781 489.644531 L 279.957031 504.582031 C 279.847656 505.660156 280.632812 506.632812 281.707031 506.746094 Z M 286.136719 508.667969 C 284.332031 508.667969 282.769531 508.558594 281.527344 508.425781 C 279.539062 508.214844 278.078125 506.414062 278.277344 504.417969 L 280.050781 486.386719 C 280.089844 486 280.386719 485.6875 280.777344 485.632812 C 281.144531 485.582031 281.503906 485.78125 281.65625 486.117188 C 282.03125 485.601562 282.65625 485.289062 283.332031 485.351562 L 285.824219 485.582031 C 286.40625 485.636719 286.933594 485.96875 287.234375 486.472656 L 287.5 486.914062 L 287.664062 486.445312 C 287.761719 486.15625 288.003906 485.945312 288.296875 485.886719 C 288.589844 485.828125 288.894531 485.929688 289.09375 486.15625 C 292.613281 490.136719 295.375 498.671875 296.703125 503.40625 C 296.984375 504.40625 296.828125 505.476562 296.277344 506.355469 C 295.71875 507.234375 294.8125 507.839844 293.785156 508.015625 C 290.96875 508.5 288.367188 508.667969 286.136719 508.667969 " fill-opacity="1" fill-rule="nonzero"/><path fill="#000000" d="M 287.902344 505.601562 C 284.070312 505.601562 281.125 504.882812 280.9375 504.835938 C 280.488281 504.722656 280.210938 504.265625 280.324219 503.8125 C 280.4375 503.359375 280.894531 503.082031 281.347656 503.199219 C 281.414062 503.214844 287.847656 504.785156 293.871094 503.199219 C 294.320312 503.082031 294.78125 503.355469 294.898438 503.800781 C 295.015625 504.253906 294.75 504.714844 294.296875 504.835938 C 292.101562 505.410156 289.882812 505.601562 287.902344 505.601562 " fill-opacity="1" fill-rule="nonzero"/><path fill="#000000" d="M 290.132812 498.585938 L 284.203125 498.585938 C 283.734375 498.585938 283.359375 498.207031 283.359375 497.742188 C 283.359375 497.273438 283.734375 496.898438 284.203125 496.898438 L 290.132812 496.898438 C 290.601562 496.898438 290.976562 497.273438 290.976562 497.742188 C 290.976562 498.207031 290.601562 498.585938 290.132812 498.585938 " fill-opacity="1" fill-rule="nonzero"/><path fill="#ffffff" d="M 232.339844 474.078125 L 230.039062 495 L 221.242188 496.84375 L 221.777344 472.3125 L 232.339844 474.078125 " fill-opacity="1" fill-rule="nonzero"/><path fill="#000000" d="M 222.597656 473.308594 L 222.105469 495.800781 L 229.265625 494.300781 L 231.414062 474.78125 Z M 221.242188 497.6875 C 221.046875 497.6875 220.855469 497.617188 220.703125 497.492188 C 220.503906 497.328125 220.390625 497.082031 220.398438 496.824219 L 220.933594 472.292969 C 220.9375 472.050781 221.050781 471.820312 221.238281 471.664062 C 221.425781 471.507812 221.671875 471.441406 221.917969 471.480469 L 232.480469 473.25 C 232.921875 473.320312 233.226562 473.726562 233.179688 474.171875 L 230.878906 495.09375 C 230.835938 495.453125 230.570312 495.75 230.210938 495.828125 L 221.414062 497.671875 C 221.355469 497.679688 221.296875 497.6875 221.242188 497.6875 " fill-opacity="1" fill-rule="nonzero"/><path fill="#ffffff" d="M 233.753906 505.96875 C 233.753906 505.96875 234.878906 495.902344 231.726562 491.304688 L 224.6875 493.8125 L 224.6875 492.308594 C 224.6875 491.824219 224.34375 491.421875 223.902344 491.398438 L 219.976562 491.171875 C 218.511719 491.089844 217.050781 491.394531 215.714844 492.050781 C 211.011719 494.363281 200.191406 500.320312 200.535156 506.035156 C 200.535156 506.035156 209.054688 508.148438 233.753906 505.96875 " fill-opacity="1" fill-rule="nonzero"/><path fill="#000000" d="M 233.753906 505.96875 L 233.757812 505.96875 Z M 201.394531 505.34375 C 203.789062 505.753906 212.953125 506.914062 232.976562 505.191406 C 233.144531 503 233.476562 496.105469 231.367188 492.328125 L 224.96875 494.605469 C 224.710938 494.699219 224.425781 494.660156 224.203125 494.5 C 223.976562 494.34375 223.84375 494.085938 223.84375 493.8125 L 223.84375 492.308594 C 223.84375 492.261719 223.824219 492.234375 223.820312 492.230469 L 219.925781 492.015625 C 218.621094 491.941406 217.292969 492.214844 216.085938 492.808594 C 207.207031 497.175781 201.808594 501.800781 201.394531 505.34375 Z M 213.789062 507.804688 C 204.324219 507.804688 200.5625 506.914062 200.332031 506.855469 C 199.972656 506.765625 199.714844 506.453125 199.691406 506.085938 C 199.332031 500.089844 209.34375 494.242188 215.339844 491.292969 C 216.808594 490.570312 218.425781 490.242188 220.023438 490.332031 L 223.949219 490.554688 C 224.835938 490.605469 225.53125 491.375 225.53125 492.308594 L 225.53125 492.617188 L 231.441406 490.511719 C 231.804688 490.382812 232.207031 490.511719 232.421875 490.828125 C 235.714844 495.628906 234.636719 505.640625 234.589844 506.0625 C 234.546875 506.460938 234.226562 506.773438 233.828125 506.808594 C 225.351562 507.554688 218.777344 507.804688 213.789062 507.804688 " fill-opacity="1" fill-rule="nonzero"/><path fill="#000000" d="M 221.765625 504.703125 C 211.25 504.703125 203.191406 503.105469 203.085938 503.082031 C 202.628906 502.988281 202.332031 502.542969 202.425781 502.085938 C 202.515625 501.628906 202.964844 501.332031 203.417969 501.425781 C 203.554688 501.453125 217.25 504.171875 232.15625 502.441406 C 232.617188 502.394531 233.039062 502.71875 233.089844 503.183594 C 233.144531 503.644531 232.8125 504.066406 232.351562 504.117188 C 228.691406 504.542969 225.105469 504.703125 221.765625 504.703125 " fill-opacity="1" fill-rule="nonzero"/><path fill="#000000" d="M 213.402344 499.390625 C 213.136719 499.390625 212.878906 499.269531 212.714844 499.039062 C 212.441406 498.660156 212.527344 498.132812 212.90625 497.863281 L 219.683594 492.988281 C 220.0625 492.714844 220.585938 492.804688 220.859375 493.179688 C 221.132812 493.558594 221.046875 494.085938 220.667969 494.359375 L 213.894531 499.230469 C 213.742188 499.339844 213.570312 499.390625 213.402344 499.390625 " fill-opacity="1" fill-rule="nonzero"/><path fill="#5479f7" d="M 229.59375 338.339844 C 229.59375 338.339844 216.972656 418.585938 219.660156 476.34375 L 233.691406 476.707031 C 233.691406 476.707031 248.746094 395.257812 256.253906 380.6875 C 256.253906 380.6875 276.652344 454.945312 277.4375 476.082031 C 277.4375 476.082031 286.515625 476.992188 290.132812 475.691406 C 292.078125 455.292969 292.664062 437.941406 292.761719 424.6875 C 293.039062 386.746094 289.414062 369.511719 287.425781 361.339844 C 285.601562 353.832031 283.644531 347.734375 282.214844 343.605469 L 277.4375 329.980469 L 229.59375 338.339844 " fill-opacity="1" fill-rule="nonzero"/><path fill="#000000" d="M 220.46875 475.519531 L 232.996094 475.84375 C 234.585938 467.285156 248.3125 394.253906 255.503906 380.300781 C 255.664062 379.992188 255.992188 379.808594 256.339844 379.847656 C 256.6875 379.882812 256.976562 380.128906 257.066406 380.460938 C 257.890625 383.464844 277.054688 453.421875 278.246094 475.304688 C 280.320312 475.472656 286.3125 475.867188 289.347656 475.054688 C 290.929688 458.269531 291.792969 441.320312 291.914062 424.679688 C 292.179688 388.75 289.011719 371.4375 286.605469 361.539062 C 285.160156 355.582031 283.414062 349.644531 281.417969 343.882812 L 276.878906 330.9375 L 230.335938 339.066406 C 229.203125 346.496094 218.078125 421.179688 220.46875 475.519531 Z M 233.695312 477.550781 C 233.6875 477.550781 233.679688 477.550781 233.671875 477.550781 L 219.636719 477.183594 C 219.195312 477.175781 218.839844 476.824219 218.816406 476.382812 C 216.15625 419.203125 228.636719 339.011719 228.761719 338.210938 C 228.816406 337.851562 229.09375 337.570312 229.449219 337.507812 L 277.292969 329.152344 C 277.703125 329.082031 278.097656 329.3125 278.234375 329.703125 L 283.011719 343.328125 C 285.023438 349.140625 286.785156 355.136719 288.246094 361.140625 C 290.671875 371.125 293.867188 388.574219 293.601562 424.691406 C 293.480469 441.570312 292.59375 458.753906 290.972656 475.773438 C 290.941406 476.097656 290.726562 476.375 290.421875 476.484375 C 286.664062 477.835938 277.734375 476.960938 277.355469 476.921875 C 276.933594 476.878906 276.609375 476.535156 276.59375 476.113281 C 275.898438 457.382812 259.464844 395.78125 256.054688 383.171875 C 248.425781 401.890625 234.667969 476.078125 234.523438 476.859375 C 234.449219 477.257812 234.101562 477.550781 233.695312 477.550781 " fill-opacity="1" fill-rule="nonzero"/><path fill="#000000" d="M 255.511719 379.851562 C 255.136719 379.851562 254.792969 379.597656 254.695312 379.21875 L 252.664062 371.363281 L 247.8125 370.363281 C 247.359375 370.269531 247.0625 369.820312 247.160156 369.367188 C 247.253906 368.910156 247.695312 368.613281 248.15625 368.710938 L 253.519531 369.816406 C 253.832031 369.882812 254.082031 370.121094 254.164062 370.429688 L 256.328125 378.796875 C 256.445312 379.246094 256.171875 379.707031 255.722656 379.820312 C 255.652344 379.84375 255.578125 379.851562 255.511719 379.851562 " fill-opacity="1" fill-rule="nonzero"/><path fill="#000000" d="M 230.828125 267.167969 C 239.039062 266.242188 256.414062 264.589844 268.636719 265.609375 C 272.394531 265.917969 275.957031 267.386719 278.835938 269.820312 C 287.515625 277.152344 306.324219 295.527344 306.570312 317.269531 L 287.304688 314.472656 C 287.304688 314.472656 294.105469 338.855469 293.644531 342.773438 C 293.179688 346.691406 281.253906 353.359375 266.339844 347.886719 C 251.425781 342.417969 229.960938 343.085938 223.011719 347.886719 L 222.34375 317.808594 L 193.03125 317.808594 C 193.03125 317.808594 202.726562 286.257812 221.53125 271.03125 C 224.191406 268.871094 227.425781 267.550781 230.828125 267.167969 " fill-opacity="1" fill-rule="nonzero"/><path fill="#ffffff" d="M 193.03125 317.808594 C 193.03125 317.808594 190.738281 328.296875 201.164062 331.445312 C 211.589844 334.597656 221.492188 315.617188 221.492188 315.617188 L 214.234375 311.410156 L 193.03125 317.808594 " fill-opacity="1" fill-rule="nonzero"/><path fill="#000000" d="M 193.773438 318.464844 C 193.484375 320.476562 192.980469 328.09375 201.410156 330.640625 C 209.953125 333.21875 218.457031 319.273438 220.355469 315.933594 L 214.125 312.320312 Z M 203.558594 332.648438 C 202.691406 332.648438 201.808594 332.523438 200.921875 332.257812 C 189.875 328.917969 192.183594 317.738281 192.207031 317.628906 C 192.273438 317.328125 192.496094 317.089844 192.789062 317 L 213.988281 310.601562 C 214.214844 310.53125 214.453125 310.558594 214.65625 310.675781 L 221.914062 314.882812 C 222.304688 315.109375 222.449219 315.605469 222.238281 316.007812 C 221.855469 316.738281 213.433594 332.648438 203.558594 332.648438 " fill-opacity="1" fill-rule="nonzero"/><path fill="#99b9ff" d="M 260.652344 341.714844 L 209.410156 341.714844 C 208.113281 341.714844 206.980469 340.828125 206.667969 339.566406 L 196.324219 297.851562 C 195.882812 296.070312 197.230469 294.34375 199.066406 294.34375 L 250.308594 294.34375 C 251.605469 294.34375 252.738281 295.230469 253.050781 296.488281 L 263.394531 338.207031 C 263.835938 339.988281 262.488281 341.714844 260.652344 341.714844 " fill-opacity="1" fill-rule="nonzero"/><path fill="#000000" d="M 199.070312 295.1875 C 198.453125 295.1875 197.886719 295.46875 197.507812 295.949219 C 197.128906 296.433594 196.996094 297.050781 197.144531 297.648438 L 207.488281 339.363281 C 207.707031 340.25 208.5 340.867188 209.410156 340.867188 L 260.652344 340.867188 C 261.265625 340.867188 261.835938 340.589844 262.214844 340.109375 C 262.589844 339.625 262.722656 339.003906 262.574219 338.410156 L 252.230469 296.691406 C 252.011719 295.804688 251.222656 295.1875 250.308594 295.1875 Z M 260.652344 342.558594 L 209.410156 342.558594 C 207.722656 342.558594 206.257812 341.410156 205.851562 339.769531 L 195.507812 298.054688 C 195.234375 296.949219 195.476562 295.804688 196.175781 294.90625 C 196.878906 294.015625 197.929688 293.5 199.070312 293.5 L 250.308594 293.5 C 252 293.5 253.464844 294.644531 253.871094 296.289062 L 264.214844 338.003906 C 264.488281 339.105469 264.242188 340.253906 263.542969 341.148438 C 262.84375 342.042969 261.789062 342.558594 260.652344 342.558594 " fill-opacity="1" fill-rule="nonzero"/><path fill="#ffffff" d="M 200.128906 315.082031 L 201.632812 319.257812 L 213.953125 313.386719 C 213.953125 313.386719 220.730469 319.257812 204.304688 326.773438 C 197.464844 329.90625 200.128906 315.082031 200.128906 315.082031 " fill-opacity="1" fill-rule="nonzero"/><path fill="#000000" d="M 200.535156 318.699219 C 200.316406 321.789062 200.507812 325.125 201.761719 326.09375 C 201.945312 326.238281 202.507812 326.671875 203.957031 326.007812 C 212.117188 322.269531 214.171875 319.109375 214.457031 317.113281 C 214.640625 315.851562 214.125 314.914062 213.75 314.417969 L 201.996094 320.015625 C 201.78125 320.117188 201.53125 320.125 201.3125 320.035156 C 201.09375 319.945312 200.917969 319.765625 200.839844 319.542969 Z M 202.59375 328.046875 C 201.757812 328.046875 201.148438 327.753906 200.726562 327.429688 C 197.589844 324.996094 199.113281 315.953125 199.296875 314.933594 C 199.363281 314.558594 199.675781 314.273438 200.058594 314.242188 C 200.4375 314.210938 200.792969 314.4375 200.921875 314.796875 L 202.109375 318.09375 L 213.589844 312.625 C 213.894531 312.480469 214.253906 312.53125 214.503906 312.75 C 214.589844 312.820312 216.53125 314.539062 216.128906 317.355469 C 215.625 320.859375 211.765625 324.289062 204.65625 327.539062 C 203.855469 327.910156 203.171875 328.046875 202.59375 328.046875 " fill-opacity="1" fill-rule="nonzero"/><path fill="#ffffff" d="M 272.601562 293.84375 C 272.601562 293.84375 295.632812 306.777344 300.382812 310.835938 C 305.136719 314.898438 310.289062 317.980469 303.589844 326.859375 C 296.894531 335.738281 268.339844 300.175781 268.339844 300.175781 C 268.339844 300.175781 262.851562 301.085938 260.9375 293.609375 C 260.9375 293.609375 251.675781 293.941406 251.339844 291.035156 L 264.402344 288.695312 C 266.089844 288.394531 267.820312 288.949219 269.019531 290.175781 L 272.601562 293.84375 " fill-opacity="1" fill-rule="nonzero"/><path fill="#000000" d="M 268.332031 299.332031 C 268.589844 299.332031 268.835938 299.445312 268.996094 299.644531 C 275.21875 307.390625 292.988281 327.4375 300.621094 327.4375 C 300.640625 327.4375 300.664062 327.4375 300.683594 327.4375 C 301.648438 327.421875 302.375 327.070312 302.917969 326.351562 C 308.613281 318.800781 305.398438 316.125 300.949219 312.414062 C 300.578125 312.109375 300.207031 311.796875 299.835938 311.480469 C 295.199219 307.519531 272.417969 294.710938 272.1875 294.578125 C 272.117188 294.542969 272.050781 294.492188 271.996094 294.433594 L 268.414062 290.765625 C 267.410156 289.738281 265.964844 289.273438 264.550781 289.527344 L 252.773438 291.632812 C 254.160156 292.449219 257.710938 292.882812 260.90625 292.765625 C 261.296875 292.757812 261.65625 293.015625 261.757812 293.402344 C 263.441406 299.988281 268.011719 299.371094 268.207031 299.339844 C 268.25 299.335938 268.289062 299.332031 268.332031 299.332031 Z M 300.628906 329.128906 C 291.097656 329.128906 270.691406 304.414062 267.953125 301.042969 C 266.460938 301.089844 262.148438 300.589844 260.300781 294.46875 C 257.421875 294.519531 250.867188 294.273438 250.503906 291.132812 C 250.453125 290.6875 250.753906 290.285156 251.191406 290.203125 L 264.253906 287.867188 C 266.21875 287.511719 268.226562 288.15625 269.621094 289.585938 L 273.117188 293.167969 C 275.027344 294.242188 296.289062 306.226562 300.933594 310.195312 C 301.296875 310.507812 301.664062 310.816406 302.027344 311.117188 C 306.402344 314.765625 310.929688 318.535156 304.265625 327.367188 C 303.402344 328.511719 302.207031 329.105469 300.710938 329.128906 C 300.683594 329.128906 300.65625 329.128906 300.628906 329.128906 " fill-opacity="1" fill-rule="nonzero"/><path fill="#000000" d="M 240.097656 252.125 C 239.679688 252.847656 240.542969 254.25 240.550781 254.246094 C 240.5625 254.242188 240.136719 250.144531 237.855469 249.109375 C 236.53125 248.507812 235.847656 249.507812 233.875 249.238281 C 231.78125 248.949219 229.476562 247.398438 228.609375 245.128906 C 227.566406 242.386719 229.070312 239.777344 230.019531 238.128906 C 230.964844 236.488281 232.164062 234.667969 234.25 233.878906 C 236.964844 232.851562 238.101562 234.425781 241.210938 233.460938 C 243.742188 232.671875 243.558594 231.453125 245.808594 230.8125 C 247.6875 230.277344 253.09375 230.582031 254.304688 233.460938 C 255.070312 235.28125 253.417969 236.394531 254.242188 239.097656 C 254.738281 240.722656 255.515625 240.921875 256.085938 242.175781 C 257.496094 245.285156 255.726562 250.746094 252.363281 252.574219 C 247.792969 255.058594 241.089844 250.417969 240.097656 252.125 " fill-opacity="1" fill-rule="nonzero"/><path fill="#ffffff" d="M 242.054688 254.324219 L 240.992188 263.046875 C 240.789062 264.710938 239.59375 266.082031 237.972656 266.5 L 233.488281 267.671875 L 247.316406 278.203125 L 262.851562 266.410156 L 257.28125 265.167969 C 255.679688 264.808594 254.449219 263.527344 254.15625 261.910156 L 251.839844 249.058594 L 242.054688 254.324219 " fill-opacity="1" fill-rule="nonzero"/><path fill="#000000" d="M 235.378906 268.046875 L 247.316406 277.140625 L 260.894531 266.839844 L 257.097656 265.992188 C 255.160156 265.558594 253.679688 264.015625 253.328125 262.0625 L 251.21875 250.355469 L 242.839844 254.859375 L 241.828125 263.152344 C 241.585938 265.167969 240.152344 266.804688 238.1875 267.316406 Z M 247.316406 279.046875 C 247.136719 279.046875 246.957031 278.988281 246.804688 278.875 L 232.976562 268.34375 C 232.71875 268.144531 232.597656 267.820312 232.660156 267.503906 C 232.726562 267.1875 232.964844 266.933594 233.277344 266.851562 L 237.761719 265.683594 C 239.054688 265.347656 239.992188 264.273438 240.15625 262.945312 L 241.21875 254.222656 C 241.25 253.949219 241.414062 253.714844 241.65625 253.582031 L 251.441406 248.316406 C 251.679688 248.191406 251.964844 248.183594 252.207031 248.300781 C 252.453125 248.417969 252.625 248.644531 252.671875 248.914062 L 254.988281 261.761719 C 255.21875 263.046875 256.191406 264.058594 257.464844 264.34375 L 263.035156 265.589844 C 263.355469 265.660156 263.605469 265.910156 263.679688 266.234375 C 263.746094 266.554688 263.625 266.886719 263.363281 267.085938 L 247.824219 278.875 C 247.675781 278.988281 247.496094 279.046875 247.316406 279.046875 " fill-opacity="1" fill-rule="nonzero"/><path fill="#ffffff" d="M 250.726562 250.832031 C 250.726562 250.832031 254.171875 249.535156 252.878906 246.6875 C 251.585938 243.84375 249.480469 245.945312 249.480469 245.945312 C 249.480469 245.945312 247.523438 238.933594 243.414062 241.699219 C 239.304688 244.464844 235.410156 245.46875 235.410156 245.46875 C 235.410156 245.46875 236.859375 252.523438 239.457031 257.214844 C 241.027344 260.050781 243.011719 262.019531 245.355469 261.070312 C 251.761719 258.464844 250.726562 250.832031 250.726562 250.832031 " fill-opacity="1" fill-rule="nonzero"/><path fill="#000000" d="M 236.40625 246.050781 C 236.855469 247.976562 238.179688 253.167969 240.195312 256.808594 C 241.828125 259.757812 243.457031 260.929688 245.035156 260.289062 C 250.773438 257.957031 249.902344 251.015625 249.894531 250.945312 C 249.839844 250.558594 250.0625 250.183594 250.425781 250.042969 C 250.808594 249.898438 251.871094 249.335938 252.210938 248.5 C 252.390625 248.058594 252.359375 247.585938 252.109375 247.039062 C 251.921875 246.628906 251.617188 246.121094 251.21875 246.050781 C 250.765625 245.96875 250.195312 246.421875 250.078125 246.542969 C 249.863281 246.753906 249.554688 246.835938 249.265625 246.761719 C 248.976562 246.683594 248.75 246.460938 248.667969 246.171875 C 248.394531 245.199219 247.355469 242.558594 245.839844 242 C 245.246094 241.785156 244.609375 241.914062 243.886719 242.398438 C 240.757812 244.503906 237.777344 245.609375 236.40625 246.050781 Z M 244.175781 262.15625 C 242.605469 262.15625 240.671875 261.152344 238.71875 257.628906 C 236.089844 252.875 234.644531 245.933594 234.585938 245.636719 C 234.492188 245.199219 234.765625 244.761719 235.199219 244.652344 C 235.238281 244.640625 239.015625 243.640625 242.945312 241 C 244.421875 240.003906 245.652344 240.132812 246.425781 240.417969 C 248.269531 241.097656 249.386719 243.277344 249.921875 244.632812 C 250.367188 244.425781 250.921875 244.277344 251.523438 244.390625 C 252.417969 244.554688 253.132812 245.210938 253.644531 246.339844 C 254.085938 247.308594 254.128906 248.28125 253.769531 249.148438 C 253.296875 250.292969 252.273438 250.996094 251.613281 251.351562 C 251.699219 253.339844 251.476562 259.492188 245.671875 261.851562 C 245.226562 262.03125 244.722656 262.15625 244.175781 262.15625 " fill-opacity="1" fill-rule="nonzero"/><path fill="#ffffff" d="M 336.800781 454.074219 C 336.496094 454.550781 324.855469 471.199219 324.855469 471.199219 C 324.855469 471.199219 325.148438 475.441406 328.164062 476.269531 L 342.007812 461.285156 L 336.800781 454.074219 " fill-opacity="1" fill-rule="nonzero"/><path fill="#000000" d="M 325.726562 471.421875 C 325.839844 472.21875 326.300781 474.492188 327.925781 475.28125 L 340.921875 461.21875 L 336.816406 455.535156 C 334.519531 458.847656 327.277344 469.203125 325.726562 471.421875 Z M 328.164062 477.113281 C 328.089844 477.113281 328.015625 477.105469 327.941406 477.082031 C 324.386719 476.109375 324.023438 471.457031 324.011719 471.257812 C 324 471.066406 324.050781 470.875 324.164062 470.714844 C 327.386719 466.105469 335.8125 454.046875 336.089844 453.621094 C 336.242188 453.382812 336.5 453.238281 336.777344 453.230469 C 337.054688 453.234375 337.320312 453.355469 337.484375 453.582031 L 342.691406 460.789062 C 342.929688 461.117188 342.902344 461.5625 342.628906 461.859375 L 328.785156 476.839844 C 328.621094 477.015625 328.398438 477.113281 328.164062 477.113281 " fill-opacity="1" fill-rule="nonzero"/><path fill="#ffffff" d="M 318.511719 474.128906 C 318.511719 474.128906 319.503906 487.273438 325.308594 494.191406 C 331.109375 501.109375 340.425781 498.898438 340.425781 498.898438 C 340.425781 498.898438 341.132812 493.046875 339.921875 491.523438 C 338.714844 490.003906 332.035156 481.871094 332.054688 474.5625 L 328.503906 469.726562 L 326.410156 472.4375 L 325.515625 468.007812 L 318.511719 474.128906 " fill-opacity="1" fill-rule="nonzero"/><path fill="#000000" d="M 319.390625 474.480469 C 319.617188 476.742188 320.960938 487.699219 325.953125 493.648438 C 330.554688 499.136719 337.601562 498.507812 339.652344 498.183594 C 339.863281 495.953125 339.878906 492.824219 339.261719 492.050781 L 339.136719 491.890625 C 332.75 483.886719 331.28125 478.238281 331.210938 474.839844 L 328.488281 471.128906 L 327.078125 472.953125 C 326.878906 473.214844 326.539062 473.335938 326.21875 473.261719 C 325.898438 473.1875 325.648438 472.929688 325.582031 472.605469 L 324.976562 469.601562 Z M 336.890625 500.09375 C 333.476562 500.09375 328.414062 499.210938 324.660156 494.730469 C 318.75 487.6875 317.710938 474.738281 317.671875 474.191406 C 317.648438 473.925781 317.753906 473.667969 317.957031 473.488281 L 324.960938 467.375 C 325.1875 467.175781 325.5 467.113281 325.785156 467.210938 C 326.070312 467.308594 326.28125 467.546875 326.339844 467.84375 L 326.871094 470.460938 L 327.839844 469.210938 C 328 469 328.257812 468.886719 328.515625 468.882812 C 328.78125 468.886719 329.027344 469.011719 329.183594 469.226562 L 332.734375 474.0625 C 332.839844 474.207031 332.898438 474.382812 332.898438 474.5625 C 332.890625 477.660156 334.195312 482.992188 340.453125 490.835938 L 340.582031 491 C 341.941406 492.710938 341.386719 497.964844 341.261719 499 C 341.21875 499.351562 340.964844 499.640625 340.621094 499.71875 C 340.464844 499.757812 338.992188 500.09375 336.890625 500.09375 " fill-opacity="1" fill-rule="nonzero"/><path fill="#ffffff" d="M 320.851562 474.632812 C 320.851562 474.632812 322.355469 496.472656 338.5625 496.003906 L 320.851562 474.632812 " fill-opacity="1" fill-rule="nonzero"/><path fill="#000000" d="M 338.050781 496.855469 C 321.726562 496.855469 320.027344 474.914062 320.011719 474.6875 C 319.976562 474.222656 320.328125 473.820312 320.792969 473.789062 C 321.261719 473.757812 321.660156 474.109375 321.695312 474.574219 C 321.753906 475.421875 323.304688 495.167969 338.050781 495.167969 C 338.210938 495.167969 338.375 495.164062 338.539062 495.160156 C 339 495.140625 339.394531 495.511719 339.40625 495.976562 C 339.421875 496.445312 339.054688 496.832031 338.585938 496.847656 C 338.40625 496.851562 338.226562 496.855469 338.050781 496.855469 " fill-opacity="1" fill-rule="nonzero"/><path fill="#000000" d="M 362.863281 337.851562 C 362.863281 337.851562 376.5625 378.167969 376.632812 404.71875 C 376.699219 431.269531 339.144531 466.476562 339.144531 466.476562 L 331.386719 459.75 C 331.386719 459.75 345.203125 445.101562 347.847656 425.277344 C 350.492188 405.457031 342.460938 368.03125 342.460938 368.03125 L 339.46875 341.597656 L 362.863281 337.851562 " fill-opacity="1" fill-rule="nonzero"/><path fill="#ffffff" d="M 342.671875 468.363281 C 342.601562 469.078125 343.339844 479.054688 346.433594 485.320312 C 346.433594 485.320312 345.003906 489.917969 340.628906 489.09375 C 340.628906 489.09375 333.910156 476.296875 332.5 468.007812 L 342.671875 468.363281 " fill-opacity="1" fill-rule="nonzero"/><path fill="#000000" d="M 341.183594 488.324219 C 343.949219 488.613281 345.167969 486.226562 345.519531 485.367188 C 342.945312 479.914062 342.007812 471.921875 341.851562 469.179688 L 333.527344 468.886719 C 335.066406 476.128906 340.121094 486.25 341.183594 488.324219 Z M 341.644531 490.035156 C 341.273438 490.035156 340.882812 490 340.472656 489.921875 C 340.222656 489.875 340.003906 489.710938 339.882812 489.484375 C 339.605469 488.957031 333.082031 476.472656 331.667969 468.152344 C 331.625 467.902344 331.695312 467.644531 331.863281 467.453125 C 332.03125 467.261719 332.273438 467.152344 332.527344 467.164062 L 342.699219 467.519531 C 342.929688 467.527344 343.152344 467.628906 343.304688 467.808594 C 343.457031 467.980469 343.53125 468.207031 343.511719 468.4375 C 343.472656 469.082031 344.140625 478.773438 347.191406 484.945312 C 347.285156 485.140625 347.304688 485.363281 347.238281 485.570312 C 346.722656 487.222656 344.9375 490.035156 341.644531 490.035156 " fill-opacity="1" fill-rule="nonzero"/><path fill="#ffffff" d="M 338.191406 484.308594 C 338.191406 484.308594 337.078125 497.394531 338.722656 501.101562 C 338.722656 501.101562 351.175781 507.511719 365.632812 507.492188 C 366.65625 507.488281 367.5 506.660156 367.492188 505.632812 C 367.46875 503.15625 366.816406 498.636719 362.863281 495.058594 C 357.113281 489.851562 344.773438 481.308594 344.773438 481.308594 L 342.28125 484.324219 L 343.328125 489.09375 L 338.191406 484.308594 " fill-opacity="1" fill-rule="nonzero"/><path fill="#000000" d="M 339.382812 500.488281 C 341.289062 501.410156 352.695312 506.648438 365.574219 506.648438 C 365.867188 506.648438 366.148438 506.554688 366.359375 506.34375 C 366.546875 506.152344 366.648438 505.902344 366.648438 505.640625 C 366.625 503.375 366.035156 499.066406 362.296875 495.683594 C 357.394531 491.246094 347.523438 484.261719 344.925781 482.445312 L 343.195312 484.542969 L 344.148438 488.910156 C 344.230469 489.273438 344.0625 489.644531 343.742188 489.824219 C 343.421875 490.007812 343.019531 489.960938 342.75 489.710938 L 338.902344 486.121094 C 338.632812 490.339844 338.402344 497.746094 339.382812 500.488281 Z M 365.570312 508.335938 C 351.101562 508.335938 338.851562 502.117188 338.335938 501.851562 C 338.164062 501.765625 338.027344 501.621094 337.949219 501.445312 C 336.238281 497.582031 337.304688 484.777344 337.351562 484.234375 C 337.378906 483.910156 337.585938 483.632812 337.886719 483.519531 C 338.191406 483.402344 338.53125 483.46875 338.765625 483.6875 L 341.925781 486.632812 L 341.457031 484.503906 C 341.402344 484.25 341.464844 483.984375 341.628906 483.785156 L 344.121094 480.769531 C 344.398438 480.433594 344.890625 480.363281 345.25 480.613281 C 345.375 480.703125 357.703125 489.25 363.429688 494.429688 C 367.644531 498.25 368.3125 503.082031 368.335938 505.625 C 368.339844 506.34375 368.0625 507.019531 367.558594 507.53125 C 367.042969 508.046875 366.363281 508.332031 365.632812 508.335938 C 365.613281 508.335938 365.589844 508.335938 365.570312 508.335938 " fill-opacity="1" fill-rule="nonzero"/><path fill="#ffffff" d="M 339.6875 497.230469 C 339.6875 497.230469 351.53125 504.710938 365.703125 503.855469 L 339.6875 497.230469 " fill-opacity="1" fill-rule="nonzero"/><path fill="#000000" d="M 363.394531 504.769531 C 350.203125 504.769531 339.703125 498.238281 339.238281 497.945312 C 338.84375 497.695312 338.726562 497.175781 338.976562 496.78125 C 339.222656 496.386719 339.742188 496.269531 340.140625 496.515625 C 340.253906 496.59375 351.925781 503.839844 365.652344 503.015625 C 366.113281 502.980469 366.515625 503.339844 366.542969 503.804688 C 366.574219 504.269531 366.21875 504.671875 365.753906 504.699219 C 364.957031 504.746094 364.171875 504.769531 363.394531 504.769531 " fill-opacity="1" fill-rule="nonzero"/><path fill="#000000" d="M 320.828125 337.851562 C 320.828125 337.851562 312.152344 396.039062 332.5 472.960938 L 344.773438 471.199219 C 344.773438 471.199219 338.152344 403.957031 354.011719 368.40625 L 357.539062 336.273438 L 320.828125 337.851562 " fill-opacity="1" fill-rule="nonzero"/><path fill="#000000" d="M 324.765625 248.566406 C 323.121094 251.867188 325.457031 253.03125 324.316406 259.441406 C 323.480469 264.152344 321.789062 265.957031 322.910156 268.296875 C 323.921875 270.410156 326.359375 271.167969 327.96875 271.671875 C 335.277344 273.949219 342.320312 270.242188 346.640625 267.96875 C 350.140625 266.128906 354.9375 263.605469 354.613281 261.046875 C 354.292969 258.519531 349.351562 258.871094 347.023438 254.636719 C 345.152344 251.230469 347.304688 249.09375 345.335938 246.210938 C 342.789062 242.480469 336.847656 242.636719 335.894531 242.664062 C 332.074219 242.761719 326.789062 244.5 324.765625 248.566406 " fill-opacity="1" fill-rule="nonzero"/><path fill="#ffffff" d="M 365.597656 268.082031 L 346.378906 272.894531 C 346.03125 272.972656 345.675781 272.773438 345.558594 272.4375 C 344.25 268.753906 346.289062 264.632812 346.875 263.5625 C 346.96875 263.394531 347.128906 263.277344 347.3125 263.226562 C 348.265625 262.96875 349.125 262.628906 349.898438 262.21875 C 350.851562 261.714844 351.242188 260.546875 350.804688 259.558594 C 350.105469 257.964844 349.339844 255.820312 348.910156 254.941406 C 348.800781 254.730469 348.808594 254.472656 348.941406 254.277344 C 349.265625 253.789062 349.777344 253.421875 349.714844 252.695312 C 349.691406 252.414062 349.5 252.171875 349.234375 252.09375 C 346.824219 251.382812 344.957031 247.757812 343.34375 246.65625 C 342.578125 246.128906 342.054688 245.992188 341.195312 245.519531 C 341.046875 245.441406 340.875 245.40625 340.714844 245.441406 C 336.613281 246.328125 342.898438 251.421875 337.523438 254.410156 C 337.257812 254.558594 337.097656 254.859375 337.160156 255.160156 C 337.25 255.605469 337.230469 256.203125 337.175781 256.753906 C 337.175781 256.757812 337.175781 256.761719 337.175781 256.769531 C 337.121094 257.324219 336.464844 257.59375 336.035156 257.242188 C 335.222656 256.578125 334.386719 256.386719 333.898438 256.675781 C 333.203125 257.082031 333.25 258.425781 333.496094 259.234375 C 333.984375 260.839844 335.660156 261.582031 336.613281 261.878906 C 336.976562 261.992188 337.183594 262.371094 337.078125 262.738281 C 336.441406 264.949219 334.519531 271.851562 334.371094 274.988281 C 334.355469 275.308594 334.132812 275.578125 333.816406 275.648438 L 330.148438 276.449219 C 324.628906 277.660156 318.074219 281 313.851562 284.757812 L 308.398438 289.332031 C 307.976562 289.710938 306.0625 290.839844 306.460938 291.246094 C 317.882812 302.859375 340.304688 295.59375 348.605469 291.910156 C 356.65625 288.339844 364.679688 271.671875 367.644531 275 C 369.589844 277.1875 366.140625 267.964844 365.597656 268.082031 " fill-opacity="1" fill-rule="nonzero"/><path fill="#000000" d="M 340.894531 246.265625 Z M 307.484375 291.070312 C 320.121094 303.105469 345.394531 292.410156 348.265625 291.140625 C 352.015625 289.476562 355.972656 284.5625 359.15625 280.613281 C 362.675781 276.242188 364.761719 273.765625 366.671875 273.71875 C 366.828125 273.714844 366.980469 273.730469 367.128906 273.761719 C 366.683594 272.238281 365.785156 269.917969 365.296875 269.027344 L 346.582031 273.714844 C 345.800781 273.886719 345.023438 273.457031 344.765625 272.71875 C 343.347656 268.738281 345.457031 264.394531 346.136719 263.15625 C 346.335938 262.792969 346.6875 262.519531 347.089844 262.410156 C 347.960938 262.175781 348.773438 261.863281 349.503906 261.476562 C 350.0625 261.179688 350.292969 260.488281 350.035156 259.898438 C 349.691406 259.121094 349.332031 258.207031 349.011719 257.398438 C 348.675781 256.546875 348.363281 255.742188 348.152344 255.316406 C 347.910156 254.824219 347.941406 254.246094 348.238281 253.804688 C 348.332031 253.664062 348.4375 253.535156 348.542969 253.402344 C 348.769531 253.125 348.859375 253.003906 348.875 252.863281 C 347.195312 252.3125 345.859375 250.691406 344.671875 249.261719 C 344.011719 248.460938 343.386719 247.707031 342.867188 247.351562 C 342.453125 247.070312 342.128906 246.914062 341.71875 246.722656 C 341.449219 246.597656 341.160156 246.460938 340.828125 246.28125 C 340.570312 246.34375 340.273438 246.449219 340.160156 246.625 C 339.957031 246.945312 340.140625 247.738281 340.316406 248.503906 C 340.75 250.367188 341.398438 253.175781 338.007812 255.105469 C 338.082031 255.558594 338.085938 256.128906 338.015625 256.835938 C 337.957031 257.417969 337.597656 257.90625 337.070312 258.125 C 336.542969 258.339844 335.945312 258.257812 335.5 257.898438 C 334.875 257.386719 334.414062 257.355469 334.324219 257.402344 C 334.183594 257.511719 334.078125 258.253906 334.300781 258.988281 C 334.679688 260.21875 336.070312 260.820312 336.863281 261.070312 C 337.671875 261.324219 338.121094 262.160156 337.886719 262.972656 C 337.296875 265.03125 335.355469 271.96875 335.214844 275.023438 C 335.179688 275.726562 334.679688 276.324219 333.996094 276.472656 L 330.332031 277.277344 C 324.9375 278.457031 318.539062 281.71875 314.414062 285.390625 L 308.941406 289.976562 C 308.820312 290.085938 308.613281 290.230469 308.351562 290.417969 C 308.148438 290.5625 307.761719 290.839844 307.484375 291.070312 Z M 324.03125 298.394531 C 317.382812 298.394531 310.71875 296.777344 305.859375 291.835938 C 305.644531 291.617188 305.539062 291.328125 305.566406 291.019531 C 305.628906 290.332031 306.289062 289.8125 307.375 289.042969 C 307.574219 288.902344 307.75 288.78125 307.839844 288.699219 L 313.308594 284.113281 C 317.613281 280.28125 324.316406 276.867188 329.96875 275.628906 L 333.535156 274.847656 C 333.710938 271.707031 335.441406 265.378906 336.230469 262.640625 C 335.097656 262.261719 333.265625 261.378906 332.6875 259.480469 C 332.367188 258.433594 332.3125 256.625 333.472656 255.949219 C 334.246094 255.492188 335.335938 255.679688 336.359375 256.425781 C 336.402344 255.839844 336.371094 255.511719 336.332031 255.332031 C 336.199219 254.683594 336.519531 254 337.117188 253.667969 C 339.476562 252.359375 339.105469 250.75 338.675781 248.882812 C 338.40625 247.726562 338.15625 246.636719 338.734375 245.722656 C 339.089844 245.164062 339.679688 244.800781 340.535156 244.617188 C 340.886719 244.539062 341.261719 244.59375 341.597656 244.777344 C 341.914062 244.949219 342.179688 245.078125 342.433594 245.195312 C 342.875 245.402344 343.292969 245.597656 343.820312 245.957031 C 344.535156 246.445312 345.234375 247.289062 345.972656 248.1875 C 347.03125 249.464844 348.234375 250.917969 349.476562 251.285156 C 350.070312 251.460938 350.503906 251.996094 350.554688 252.621094 C 350.632812 253.511719 350.164062 254.089844 349.855469 254.46875 C 349.804688 254.53125 349.753906 254.589844 349.703125 254.65625 C 349.9375 255.148438 350.238281 255.90625 350.585938 256.777344 C 350.894531 257.570312 351.25 258.472656 351.578125 259.21875 C 352.191406 260.613281 351.625 262.261719 350.292969 262.964844 C 349.464844 263.40625 348.554688 263.761719 347.582031 264.027344 C 347.109375 264.90625 345.214844 268.734375 346.3125 272.042969 L 365.390625 267.261719 C 365.402344 267.261719 365.40625 267.261719 365.414062 267.257812 C 366.1875 267.089844 366.640625 267.667969 367.613281 270.074219 C 369.75 275.316406 369.023438 275.765625 368.59375 276.039062 C 368.253906 276.25 367.703125 276.339844 367.015625 275.558594 C 366.882812 275.414062 366.792969 275.40625 366.714844 275.40625 C 365.488281 275.4375 362.824219 278.75 360.46875 281.671875 C 357 285.976562 353.074219 290.855469 348.949219 292.683594 C 347.039062 293.527344 335.558594 298.394531 324.03125 298.394531 " fill-opacity="1" fill-rule="nonzero"/><path fill="#ffffff" d="M 341.304688 263.429688 C 341.304688 263.429688 343.867188 264.46875 346.8125 263.363281 L 341.304688 263.429688 " fill-opacity="1" fill-rule="nonzero"/><path fill="#000000" d="M 343.972656 264.714844 C 342.261719 264.714844 341.0625 264.242188 340.988281 264.210938 C 340.554688 264.035156 340.347656 263.542969 340.523438 263.113281 C 340.699219 262.683594 341.1875 262.472656 341.617188 262.644531 C 341.644531 262.65625 343.9375 263.539062 346.511719 262.570312 C 346.949219 262.410156 347.433594 262.628906 347.597656 263.0625 C 347.765625 263.5 347.542969 263.988281 347.105469 264.152344 C 345.976562 264.578125 344.898438 264.714844 343.972656 264.714844 " fill-opacity="1" fill-rule="nonzero"/><path fill="#000000" d="M 327.597656 246.863281 C 327.597656 246.863281 326.363281 239.367188 320.421875 241.394531 C 314.476562 243.425781 320.242188 249.589844 324.730469 250.0625 C 329.222656 250.535156 327.597656 246.863281 327.597656 246.863281 " fill-opacity="1" fill-rule="nonzero"/><path fill="#ffffff" d="M 441.101562 218.519531 L 448.441406 211.414062 C 448.953125 210.921875 449.742188 210.863281 450.316406 211.273438 C 450.96875 211.746094 451.125 212.652344 450.660156 213.3125 L 448.332031 216.609375 L 450.207031 221.242188 C 450.78125 222.667969 450.40625 224.300781 449.265625 225.332031 L 446.253906 228.066406 C 444.746094 229.4375 442.550781 229.738281 440.726562 228.828125 L 439.5 228.21875 C 437.613281 227.277344 436.53125 225.242188 436.804688 223.148438 L 437.128906 220.683594 C 437.328125 219.136719 438.792969 218.078125 440.324219 218.371094 L 441.101562 218.519531 " fill-opacity="1" fill-rule="nonzero"/><path fill="#000000" d="M 439.808594 219.167969 C 439.421875 219.167969 439.042969 219.289062 438.722656 219.523438 C 438.300781 219.828125 438.03125 220.277344 437.964844 220.792969 L 437.640625 223.257812 C 437.414062 224.996094 438.3125 226.683594 439.878906 227.464844 L 441.105469 228.074219 C 442.625 228.832031 444.425781 228.585938 445.6875 227.441406 L 448.703125 224.710938 C 449.578125 223.917969 449.863281 222.652344 449.421875 221.558594 L 447.550781 216.925781 C 447.441406 216.660156 447.476562 216.355469 447.644531 216.121094 L 449.96875 212.824219 C 450.164062 212.546875 450.101562 212.160156 449.824219 211.960938 C 449.578125 211.785156 449.246094 211.808594 449.03125 212.019531 L 441.6875 219.128906 C 441.492188 219.320312 441.214844 219.402344 440.945312 219.351562 L 440.164062 219.203125 C 440.046875 219.179688 439.925781 219.167969 439.808594 219.167969 Z M 442.941406 230.199219 C 442.066406 230.199219 441.179688 229.996094 440.351562 229.585938 L 439.128906 228.976562 C 436.917969 227.875 435.648438 225.488281 435.96875 223.039062 L 436.289062 220.574219 C 436.417969 219.605469 436.941406 218.726562 437.730469 218.152344 C 438.523438 217.582031 439.527344 217.359375 440.484375 217.542969 L 440.832031 217.609375 L 447.855469 210.804688 C 448.65625 210.027344 449.898438 209.9375 450.808594 210.589844 C 451.835938 211.328125 452.078125 212.765625 451.347656 213.800781 L 449.285156 216.71875 L 450.984375 220.925781 C 451.695312 222.671875 451.230469 224.695312 449.835938 225.957031 L 446.820312 228.691406 C 445.722656 229.683594 444.34375 230.199219 442.941406 230.199219 " fill-opacity="1" fill-rule="nonzero"/><path fill="#ffffff" d="M 441.101562 218.519531 L 443.84375 220.550781 C 443.84375 220.550781 442.933594 223.199219 441.101562 222.113281 L 441.101562 218.519531 " fill-opacity="1" fill-rule="nonzero"/><path fill="#000000" d="M 441.957031 223.21875 C 441.585938 223.21875 441.152344 223.125 440.671875 222.839844 C 440.273438 222.601562 440.140625 222.082031 440.375 221.683594 C 440.613281 221.28125 441.132812 221.148438 441.53125 221.386719 C 441.875 221.589844 442.050781 221.527344 442.117188 221.503906 C 442.371094 221.40625 442.613281 221.113281 442.789062 220.816406 L 440.601562 219.199219 C 440.226562 218.921875 440.148438 218.394531 440.425781 218.019531 C 440.699219 217.644531 441.230469 217.566406 441.601562 217.84375 L 444.34375 219.871094 C 444.640625 220.09375 444.761719 220.476562 444.644531 220.824219 C 444.578125 221.003906 444 222.609375 442.699219 223.085938 C 442.5 223.160156 442.25 223.21875 441.957031 223.21875 " fill-opacity="1" fill-rule="nonzero"/><path fill="#ffffff" d="M 448.828125 217.855469 L 445.738281 221.6875 L 448.828125 217.855469 " fill-opacity="1" fill-rule="nonzero"/><path fill="#000000" d="M 445.738281 222.53125 C 445.554688 222.53125 445.363281 222.46875 445.210938 222.347656 C 444.847656 222.050781 444.789062 221.519531 445.082031 221.15625 L 448.175781 217.324219 C 448.464844 216.960938 448.996094 216.90625 449.359375 217.199219 C 449.722656 217.492188 449.777344 218.019531 449.488281 218.382812 L 446.394531 222.21875 C 446.230469 222.425781 445.984375 222.53125 445.738281 222.53125 " fill-opacity="1" fill-rule="nonzero"/><path fill="#ffffff" d="M 449.777344 220.863281 L 447.285156 223.886719 L 449.777344 220.863281 " fill-opacity="1" fill-rule="nonzero"/><path fill="#000000" d="M 447.285156 224.730469 C 447.097656 224.730469 446.90625 224.667969 446.75 224.539062 C 446.390625 224.242188 446.335938 223.710938 446.632812 223.351562 L 449.121094 220.324219 C 449.417969 219.964844 449.949219 219.914062 450.308594 220.210938 C 450.667969 220.507812 450.71875 221.039062 450.425781 221.398438 L 447.933594 224.421875 C 447.769531 224.628906 447.527344 224.730469 447.285156 224.730469 " fill-opacity="1" fill-rule="nonzero"/><path fill="#ffffff" d="M 317.8125 354.132812 C 317.8125 354.132812 324.359375 349.21875 328.117188 348.398438 C 331.878906 347.578125 335.582031 350.09375 335.582031 350.09375 C 335.582031 350.09375 331.542969 352.339844 329.582031 352.597656 C 327.621094 352.855469 322.523438 362.257812 316.429688 359.246094 L 317.8125 354.132812 " fill-opacity="1" fill-rule="nonzero"/><path fill="#000000" d="M 317.4375 358.753906 C 320.878906 359.90625 324.035156 356.617188 326.375 354.179688 C 327.703125 352.792969 328.582031 351.878906 329.472656 351.761719 C 330.519531 351.625 332.402344 350.777344 333.792969 350.078125 C 332.488281 349.472656 330.378906 348.769531 328.300781 349.222656 C 325.144531 349.914062 319.730469 353.777344 318.550781 354.636719 Z M 318.910156 360.695312 C 317.992188 360.695312 317.039062 360.492188 316.054688 360.003906 C 315.695312 359.824219 315.507812 359.414062 315.613281 359.027344 L 317 353.910156 C 317.046875 353.730469 317.15625 353.570312 317.304688 353.457031 C 317.578125 353.253906 324.042969 348.425781 327.9375 347.574219 C 332.007812 346.683594 335.894531 349.285156 336.054688 349.394531 C 336.300781 349.5625 336.4375 349.839844 336.425781 350.132812 C 336.410156 350.421875 336.25 350.6875 335.992188 350.832031 C 335.5625 351.066406 331.753906 353.164062 329.691406 353.433594 C 329.347656 353.519531 328.332031 354.578125 327.59375 355.347656 C 325.460938 357.570312 322.457031 360.695312 318.910156 360.695312 " fill-opacity="1" fill-rule="nonzero"/><path fill="#99b9ff" d="M 323.597656 277.535156 L 326.777344 276.3125 C 326.777344 276.3125 345.992188 288.613281 354.335938 269.984375 L 358.742188 268.714844 L 367.644531 293.953125 L 322.882812 305.882812 L 323.597656 277.535156 " fill-opacity="1" fill-rule="nonzero"/><path fill="#5479f7" d="M 441.4375 231.671875 C 438.332031 230.691406 435.222656 229.714844 432.117188 228.738281 C 419.035156 243.96875 406.230469 251.796875 396.515625 256.152344 C 384.554688 261.519531 363.96875 267.59375 363.96875 267.59375 C 363.96875 267.59375 364.003906 277.351562 347.886719 288.492188 C 331.769531 299.628906 307.09375 288.5625 307.09375 288.5625 C 307.09375 288.5625 279.75 311.914062 278.167969 325.941406 C 275.535156 349.25 316.105469 360.4375 316.105469 360.4375 L 317.8125 354.132812 C 317.8125 354.132812 301.488281 340.84375 305.027344 327.367188 C 308.570312 313.890625 317.691406 307.921875 317.691406 307.921875 C 320.410156 323.480469 319.242188 341.597656 319.242188 341.597656 C 346.046875 348.425781 369.175781 339.632812 379.386719 334.605469 C 382.863281 332.894531 384.808594 329.113281 384.210938 325.285156 C 381.960938 310.871094 376.3125 292.675781 376.3125 292.675781 C 382.503906 292.351562 389.183594 291.160156 395.964844 288.527344 C 429.085938 275.660156 439.707031 238.148438 441.4375 231.671875 " fill-opacity="1" fill-rule="nonzero"/><path fill="#99b9ff" d="M 349.648438 334.335938 C 349.316406 334.335938 349 334.136719 348.867188 333.8125 C 348.691406 333.378906 348.898438 332.886719 349.332031 332.710938 C 368.914062 324.679688 371.785156 302.523438 371.8125 302.300781 C 371.871094 301.839844 372.289062 301.507812 372.753906 301.566406 C 373.214844 301.621094 373.546875 302.039062 373.488281 302.5 C 373.460938 302.738281 370.460938 325.871094 349.96875 334.273438 C 349.863281 334.316406 349.753906 334.335938 349.648438 334.335938 " fill-opacity="1" fill-rule="nonzero"/><path fill="#ffffff" d="M 346.3125 404.1875 C 345.851562 404.1875 345.476562 403.8125 345.46875 403.351562 C 345.417969 394.53125 347.867188 377.503906 351.667969 371.945312 C 351.929688 371.5625 352.457031 371.460938 352.839844 371.722656 C 353.226562 371.988281 353.324219 372.511719 353.058594 372.898438 C 349.5625 378.007812 347.109375 394.628906 347.15625 403.339844 C 347.160156 403.804688 346.785156 404.183594 346.320312 404.1875 C 346.320312 404.1875 346.316406 404.1875 346.3125 404.1875 " fill-opacity="1" fill-rule="nonzero"/><path fill="#ffffff" d="M 343.902344 454.917969 C 343.460938 454.917969 343.085938 454.570312 343.0625 454.121094 C 342.601562 445.894531 343.921875 432.382812 343.933594 432.246094 C 343.980469 431.78125 344.390625 431.445312 344.855469 431.488281 C 345.320312 431.535156 345.660156 431.949219 345.613281 432.414062 C 345.601562 432.546875 344.296875 445.929688 344.746094 454.027344 C 344.773438 454.492188 344.414062 454.890625 343.949219 454.917969 C 343.9375 454.917969 343.917969 454.917969 343.902344 454.917969 " fill-opacity="1" fill-rule="nonzero"/></svg>