<svg xmlns="http://www.w3.org/2000/svg" xmlns:xlink="http://www.w3.org/1999/xlink" width="1080" zoomAndPan="magnify" viewBox="0 0 810 562.499983" height="750" preserveAspectRatio="xMidYMid meet" version="1.0"><defs><clipPath id="d4f8eb6137"><path d="M 117.203125 51 L 692.691406 51 L 692.691406 513.863281 L 117.203125 513.863281 Z M 117.203125 51 " clip-rule="nonzero"/></clipPath><clipPath id="de8c1f79bb"><path d="M 197 47.777344 L 580 47.777344 L 580 375 L 197 375 Z M 197 47.777344 " clip-rule="nonzero"/></clipPath></defs><path fill="#010101" d="M 240.316406 180.472656 C 209.28125 180.472656 184.125 205.632812 184.125 236.664062 L 184.125 335.671875 L 296.507812 335.671875 L 296.507812 236.664062 C 296.507812 205.632812 271.351562 180.472656 240.316406 180.472656 Z M 240.316406 180.472656 " fill-opacity="1" fill-rule="nonzero"/><path fill="#4e8db9" d="M 482.136719 225.722656 L 482.136719 284.902344 C 482.136719 292.550781 475.9375 298.746094 468.292969 298.746094 L 454.253906 298.746094 C 452.957031 301.78125 451.394531 304.914062 449.496094 308.09375 C 443.285156 318.503906 435.738281 325.703125 429.570312 330.429688 C 427.390625 332.101562 424.371094 329.914062 425.253906 327.316406 C 427.675781 320.167969 429.800781 310.257812 428.78125 298.75 L 375.410156 298.75 C 367.765625 298.75 361.566406 292.550781 361.566406 284.90625 L 361.566406 225.726562 C 361.566406 218.078125 367.765625 211.882812 375.410156 211.882812 L 468.292969 211.882812 C 475.9375 211.878906 482.136719 218.078125 482.136719 225.722656 Z M 610.738281 132.707031 L 529.0625 132.707031 C 522.332031 132.707031 516.886719 138.15625 516.886719 144.875 L 516.886719 196.914062 C 516.886719 203.644531 522.332031 209.09375 529.0625 209.09375 L 575.996094 209.09375 C 576.097656 210.28125 576.171875 211.453125 576.195312 212.597656 C 576.316406 216.789062 575.984375 220.707031 575.386719 224.257812 C 574.769531 228.007812 573.855469 231.363281 572.886719 234.214844 C 572.113281 236.5 574.769531 238.417969 576.683594 236.953125 C 580.613281 233.9375 585.175781 229.789062 589.460938 224.257812 C 591.101562 222.148438 592.707031 219.84375 594.210938 217.316406 C 595.160156 215.722656 596.007812 214.15625 596.773438 212.597656 C 597.363281 211.417969 597.898438 210.246094 598.394531 209.09375 L 610.738281 209.09375 C 617.457031 209.09375 622.90625 203.644531 622.90625 196.917969 L 622.90625 144.878906 C 622.90625 138.15625 617.460938 132.707031 610.738281 132.707031 Z M 593.464844 265.402344 L 518.597656 265.402344 C 512.429688 265.402344 507.433594 270.398438 507.433594 276.558594 L 507.433594 324.261719 C 507.433594 330.429688 512.429688 335.421875 518.597656 335.421875 L 561.617188 335.421875 C 561.710938 336.515625 561.777344 337.585938 561.804688 338.632812 C 561.914062 342.480469 561.609375 346.070312 561.058594 349.324219 C 560.492188 352.765625 559.65625 355.839844 558.769531 358.449219 C 558.058594 360.546875 560.492188 362.304688 562.25 360.960938 C 565.851562 358.195312 570.035156 354.394531 573.964844 349.324219 C 575.46875 347.390625 576.9375 345.277344 578.316406 342.960938 C 579.183594 341.5 579.960938 340.0625 580.664062 338.632812 C 581.203125 337.550781 581.695312 336.480469 582.152344 335.421875 L 593.464844 335.421875 C 599.625 335.421875 604.621094 330.429688 604.621094 324.261719 L 604.621094 276.558594 C 604.621094 270.398438 599.628906 265.402344 593.464844 265.402344 Z M 332.84375 483.753906 L 332.84375 498.460938 L 146.15625 498.460938 C 139.546875 498.460938 134.1875 492.636719 134.1875 485.453125 L 134.1875 400.769531 C 134.1875 359.527344 164.949219 326.09375 202.898438 326.09375 L 276.53125 326.09375 C 307.632812 326.09375 332.84375 353.492188 332.84375 387.289062 L 332.84375 433.101562 C 343.355469 440.460938 353.863281 447.820312 364.375 455.175781 Z M 332.84375 483.753906 " fill-opacity="1" fill-rule="nonzero"/><g clip-path="url(#d4f8eb6137)"><path fill="#caddff" d="M 458.371094 227.632812 C 458.488281 237.652344 454.6875 246.753906 448.464844 253.550781 C 442.707031 259.886719 439.25 267.949219 439.25 276.472656 L 439.25 289.375 L 423.425781 289.375 L 429.34375 254.585938 C 429.34375 249.519531 425.199219 245.371094 420.128906 245.371094 C 415.0625 245.371094 410.914062 249.519531 410.914062 254.585938 L 416.730469 289.375 L 400.894531 289.375 L 400.894531 276.472656 C 400.894531 268.179688 397.785156 260.117188 392.140625 254.011719 C 385.230469 246.753906 381.199219 236.734375 381.773438 225.789062 C 382.695312 206.4375 398.359375 190.542969 417.597656 189.390625 C 439.941406 188.007812 458.371094 205.632812 458.371094 227.632812 Z M 422.449219 161.445312 L 417.027344 161.445312 L 417.027344 177.707031 L 422.449219 177.707031 Z M 434.203125 183.902344 L 429.640625 180.972656 L 438.425781 167.285156 L 442.988281 170.214844 Z M 395.425781 170.214844 L 399.984375 167.285156 L 408.769531 180.972656 L 404.207031 183.902344 Z M 424.191406 61.941406 L 424.191406 107.089844 C 424.191406 112.929688 428.917969 117.65625 434.75 117.65625 L 445.457031 117.65625 C 445.890625 118.65625 446.355469 119.667969 446.867188 120.695312 C 447.53125 122.046875 448.265625 123.40625 449.089844 124.789062 C 450.394531 126.980469 451.785156 128.980469 453.207031 130.8125 C 456.925781 135.609375 460.886719 139.210938 464.292969 141.824219 C 465.957031 143.097656 468.261719 141.433594 467.589844 139.449219 C 466.75 136.976562 465.957031 134.066406 465.421875 130.8125 C 464.902344 127.730469 464.613281 124.332031 464.71875 120.695312 C 464.742188 119.703125 464.804688 118.6875 464.894531 117.65625 L 505.613281 117.65625 C 511.449219 117.65625 516.175781 112.929688 516.175781 107.089844 L 516.175781 61.941406 C 516.175781 56.113281 511.449219 51.386719 505.613281 51.386719 L 434.75 51.386719 C 428.917969 51.386719 424.191406 56.113281 424.191406 61.941406 Z M 279.921875 239.855469 C 270.097656 239.855469 262.132812 247.820312 262.132812 257.644531 C 262.132812 267.46875 270.097656 275.433594 279.921875 275.433594 C 289.746094 275.433594 297.707031 267.46875 297.707031 257.644531 C 297.707031 247.820312 289.746094 239.855469 279.921875 239.855469 Z M 692.550781 498.460938 L 117.441406 498.460938 L 117.441406 514.214844 L 692.550781 514.214844 Z M 692.550781 498.460938 " fill-opacity="1" fill-rule="nonzero"/></g><path fill="#f9b9ac" d="M 285.019531 226.253906 L 285.019531 267.609375 C 285.019531 268.1875 285.003906 268.757812 284.96875 269.320312 C 284.335938 281.1875 277.089844 291.292969 266.855469 296.035156 L 266.855469 328.238281 C 258.515625 336.476562 250.179688 344.714844 241.84375 352.953125 C 234.464844 344.714844 227.082031 336.476562 219.699219 328.238281 C 219.699219 294.242188 219.699219 260.242188 219.699219 226.246094 C 241.46875 226.246094 263.246094 226.246094 285.019531 226.253906 Z M 256.3125 465.820312 C 260.234375 466.710938 263.804688 467.289062 266.984375 467.667969 C 280.835938 469.316406 295.457031 470.832031 297.972656 478.445312 C 298.800781 480.949219 298.066406 483.457031 297.34375 485.152344 C 283.667969 485.234375 269.992188 485.320312 256.3125 485.398438 C 256.3125 478.875 256.3125 472.347656 256.3125 465.820312 Z M 256.3125 465.820312 " fill-opacity="1" fill-rule="nonzero"/><path fill="#010101" d="M 365.765625 388.226562 L 331.722656 484.773438 L 256.3125 484.773438 L 256.3125 498.460938 L 469.035156 498.460938 L 504.828125 388.226562 Z M 442.015625 303.3125 L 442.015625 284.882812 L 398.128906 284.882812 L 398.128906 303.3125 C 398.128906 307.917969 401.933594 311.71875 406.539062 311.71875 L 433.492188 311.71875 C 438.214844 311.71875 442.015625 307.917969 442.015625 303.3125 Z M 285.019531 226.253906 L 219.683594 250.515625 L 219.683594 214.742188 Z M 285.019531 226.253906 " fill-opacity="1" fill-rule="nonzero"/><path fill="#4e8db9" d="M 455.425781 84.933594 C 455.425781 88.910156 452.203125 92.132812 448.226562 92.132812 C 444.246094 92.132812 441.023438 88.910156 441.023438 84.933594 C 441.023438 80.957031 444.246094 77.734375 448.226562 77.734375 C 452.203125 77.734375 455.425781 80.957031 455.425781 84.933594 Z M 470.183594 77.734375 C 466.207031 77.734375 462.984375 80.957031 462.984375 84.933594 C 462.984375 88.910156 466.207031 92.136719 470.183594 92.136719 C 474.160156 92.136719 477.382812 88.910156 477.382812 84.933594 C 477.382812 80.957031 474.160156 77.734375 470.183594 77.734375 Z M 492.140625 77.734375 C 488.164062 77.734375 484.941406 80.957031 484.941406 84.933594 C 484.941406 88.910156 488.164062 92.136719 492.140625 92.136719 C 496.117188 92.136719 499.34375 88.910156 499.34375 84.933594 C 499.34375 80.957031 496.117188 77.734375 492.140625 77.734375 Z M 492.140625 77.734375 " fill-opacity="1" fill-rule="nonzero"/><path fill="#caddff" d="M 270.398438 283.796875 C 270.398438 287.558594 267.347656 290.613281 263.582031 290.613281 L 256.707031 290.613281 C 253.53125 290.613281 250.871094 288.4375 250.113281 285.496094 C 249.984375 285.5 249.863281 285.507812 249.734375 285.507812 C 244.761719 285.507812 238.910156 284.726562 232.714844 282.304688 C 226.144531 279.742188 221.09375 276.035156 217.394531 272.5 C 214.589844 274.351562 211.234375 275.433594 207.625 275.433594 C 197.800781 275.433594 189.835938 267.46875 189.835938 257.644531 C 189.835938 249.355469 195.511719 242.414062 203.183594 240.4375 C 207.285156 217.460938 219.898438 199.214844 237.527344 192.253906 C 242.445312 190.3125 251.347656 187.832031 263.730469 189.878906 C 256.992188 191.0625 244.796875 194.230469 233.460938 203.828125 C 220.316406 214.960938 214.714844 229.335938 212.347656 240.511719 C 219.875 242.582031 225.410156 249.460938 225.410156 257.644531 C 225.410156 262.1875 223.691406 266.320312 220.890625 269.464844 C 224.195312 272.5625 228.644531 275.773438 234.390625 278.015625 C 240.316406 280.328125 245.890625 280.976562 250.546875 280.886719 C 251.640625 278.582031 253.984375 276.980469 256.707031 276.980469 L 263.582031 276.980469 C 267.347656 276.980469 270.398438 280.03125 270.398438 283.796875 Z M 422.351562 429.835938 C 414.886719 429.835938 408.839844 435.882812 408.839844 443.347656 C 408.839844 450.808594 414.886719 456.855469 422.351562 456.855469 C 429.8125 456.855469 435.859375 450.808594 435.859375 443.347656 C 435.859375 435.882812 429.8125 429.835938 422.351562 429.835938 Z M 548.691406 165.136719 L 548.691406 209.09375 L 530.113281 209.09375 L 530.113281 165.136719 Z M 578.585938 118.898438 L 578.585938 209.09375 L 560.011719 209.09375 L 560.011719 118.898438 Z M 608.480469 101.6875 L 608.480469 209.09375 L 589.90625 209.09375 L 589.90625 101.6875 Z M 562.183594 284.339844 L 562.183594 282.632812 C 562.183594 280.625 560.558594 278.996094 558.550781 278.996094 L 531.335938 278.996094 C 529.328125 278.996094 527.699219 280.625 527.699219 282.632812 L 527.699219 284.339844 C 527.699219 286.347656 529.328125 287.976562 531.335938 287.976562 L 558.550781 287.976562 C 560.558594 287.976562 562.183594 286.347656 562.183594 284.339844 Z M 576.636719 301.757812 L 576.636719 300.050781 C 576.636719 298.042969 575.007812 296.414062 573 296.414062 L 531.335938 296.414062 C 529.324219 296.414062 527.699219 298.042969 527.699219 300.050781 L 527.699219 301.757812 C 527.699219 303.765625 529.324219 305.394531 531.335938 305.394531 L 573 305.394531 C 575.007812 305.394531 576.636719 303.765625 576.636719 301.757812 Z M 585.214844 319.175781 L 585.214844 317.46875 C 585.214844 315.460938 583.585938 313.832031 581.578125 313.832031 L 531.335938 313.832031 C 529.324219 313.832031 527.699219 315.460938 527.699219 317.46875 L 527.699219 319.175781 C 527.699219 321.183594 529.324219 322.8125 531.335938 322.8125 L 581.578125 322.8125 C 583.585938 322.8125 585.214844 321.183594 585.214844 319.175781 Z M 585.214844 319.175781 " fill-opacity="1" fill-rule="nonzero"/><g clip-path="url(#de8c1f79bb)"><path fill="#caddff" d="M 241.84375 352.953125 L 234.933594 374.835938 L 197.519531 326.09375 L 219.699219 313.710938 Z M 252.210938 374.835938 L 282.074219 326.386719 L 266.855469 313.714844 L 241.84375 352.953125 Z M 388.453125 131.070312 C 388.917969 129.941406 388.851562 129.941406 390.113281 129.808594 C 391.972656 129.609375 393.769531 129.410156 395.5625 129.210938 C 395.5625 126.289062 395.5625 123.363281 395.5625 120.441406 C 393.4375 120.242188 391.378906 119.976562 389.25 119.777344 C 388.917969 119.777344 388.851562 119.578125 388.71875 119.3125 C 388.320312 118.25 387.855469 117.117188 387.457031 116.054688 C 387.324219 115.59375 386.859375 115.191406 386.925781 114.792969 C 386.992188 114.394531 387.457031 114.0625 387.789062 113.664062 C 388.851562 112.335938 389.980469 110.941406 391.042969 109.613281 C 388.984375 107.484375 386.925781 105.425781 384.867188 103.367188 C 384.734375 103.5 384.601562 103.566406 384.46875 103.699219 C 382.9375 104.894531 381.410156 106.15625 379.882812 107.355469 C 379.75 107.417969 379.417969 107.484375 379.285156 107.417969 C 377.824219 106.886719 376.429688 106.222656 375.035156 105.691406 C 374.765625 105.625 374.636719 105.558594 374.636719 105.226562 C 374.570312 104.429688 374.433594 103.566406 374.367188 102.769531 C 374.238281 101.507812 374.101562 100.246094 373.96875 98.914062 C 371.046875 98.914062 368.125 98.914062 365.203125 98.914062 C 365.003906 101.042969 364.734375 103.167969 364.539062 105.292969 C 364.539062 105.558594 364.472656 105.691406 364.207031 105.757812 C 362.878906 106.222656 361.613281 106.753906 360.285156 107.351562 C 359.820312 107.550781 359.554688 107.683594 359.15625 107.21875 C 358.890625 106.953125 358.558594 106.753906 358.226562 106.488281 C 356.964844 105.492188 355.703125 104.496094 354.503906 103.5 C 352.378906 105.625 350.320312 107.683594 348.261719 109.746094 C 349.523438 111.339844 350.851562 113 352.179688 114.59375 C 352.378906 114.859375 352.378906 115.058594 352.246094 115.324219 C 351.714844 116.320312 351.316406 117.386719 350.851562 118.382812 C 350.652344 118.914062 350.585938 119.578125 350.253906 119.84375 C 349.855469 120.109375 349.191406 119.976562 348.660156 120.042969 C 347 120.242188 345.339844 120.375 343.675781 120.574219 C 343.675781 123.496094 343.675781 126.421875 343.675781 129.34375 C 343.878906 129.34375 344.007812 129.410156 344.210938 129.410156 C 346.136719 129.675781 348.128906 129.875 350.054688 130.074219 C 350.1875 130.074219 350.386719 130.273438 350.453125 130.40625 C 351.117188 131.800781 351.648438 133.195312 352.246094 134.65625 C 352.3125 134.859375 352.3125 135.121094 352.179688 135.253906 C 351.382812 136.320312 350.585938 137.316406 349.789062 138.3125 C 349.257812 138.976562 348.726562 139.640625 348.261719 140.238281 C 350.386719 142.363281 352.445312 144.421875 354.507812 146.484375 C 356.101562 145.222656 357.761719 143.890625 359.355469 142.5625 C 359.621094 142.296875 359.820312 142.363281 360.085938 142.496094 C 361.414062 143.027344 362.746094 143.625 364.140625 144.15625 C 364.472656 144.289062 364.605469 144.355469 364.605469 144.6875 C 364.804688 146.816406 365.003906 148.875 365.269531 151.066406 C 368.191406 151.066406 371.113281 151.066406 373.90625 150.800781 C 373.90625 150.667969 373.972656 150.46875 373.972656 150.335938 C 374.171875 148.410156 374.371094 146.414062 374.570312 144.421875 C 374.636719 144.15625 374.703125 144.023438 374.96875 143.957031 C 376.363281 143.425781 377.757812 142.828125 379.21875 142.230469 C 379.351562 142.164062 379.617188 142.230469 379.75 142.296875 C 380.148438 142.5625 380.550781 142.894531 380.949219 143.226562 C 382.277344 144.289062 383.539062 145.351562 384.734375 146.28125 C 386.859375 144.15625 388.917969 142.097656 390.980469 140.039062 C 389.714844 138.445312 388.386719 136.847656 387.058594 135.1875 C 386.859375 134.921875 386.859375 134.722656 386.992188 134.457031 C 387.457031 133.328125 387.988281 132.199219 388.453125 131.070312 Z M 369.253906 137.980469 C 362.480469 137.777344 356.566406 132.132812 356.699219 124.757812 C 356.832031 117.851562 362.613281 111.9375 369.917969 112.070312 C 376.894531 112.203125 382.675781 117.984375 382.609375 125.089844 C 382.605469 132.199219 376.695312 138.175781 369.253906 137.980469 Z M 574.152344 72.898438 C 574.515625 72.015625 574.464844 72.015625 575.449219 71.910156 C 576.902344 71.757812 578.304688 71.601562 579.707031 71.445312 C 579.707031 69.160156 579.707031 66.878906 579.707031 64.59375 C 578.046875 64.4375 576.4375 64.230469 574.777344 64.074219 C 574.515625 64.074219 574.464844 63.917969 574.359375 63.710938 C 574.046875 62.882812 573.6875 62 573.375 61.167969 C 573.269531 60.804688 572.90625 60.496094 572.960938 60.183594 C 573.011719 59.871094 573.375 59.613281 573.632812 59.300781 C 574.464844 58.261719 575.347656 57.171875 576.175781 56.132812 C 574.566406 54.472656 572.960938 52.863281 571.351562 51.253906 C 571.246094 51.359375 571.140625 51.410156 571.039062 51.515625 C 569.84375 52.449219 568.652344 53.433594 567.457031 54.371094 C 567.355469 54.421875 567.09375 54.472656 566.988281 54.421875 C 565.847656 54.007812 564.757812 53.488281 563.667969 53.070312 C 563.460938 53.019531 563.355469 52.96875 563.355469 52.707031 C 563.304688 52.085938 563.199219 51.410156 563.148438 50.789062 C 563.042969 49.800781 562.941406 48.816406 562.835938 47.777344 C 560.554688 47.777344 558.269531 47.777344 555.984375 47.777344 C 555.828125 49.4375 555.621094 51.097656 555.46875 52.761719 C 555.46875 52.96875 555.414062 53.070312 555.207031 53.121094 C 554.167969 53.484375 553.183594 53.902344 552.144531 54.367188 C 551.78125 54.523438 551.574219 54.628906 551.261719 54.265625 C 551.054688 54.058594 550.796875 53.902344 550.535156 53.695312 C 549.550781 52.914062 548.5625 52.136719 547.628906 51.359375 C 545.96875 53.019531 544.359375 54.628906 542.75 56.238281 C 543.734375 57.480469 544.773438 58.78125 545.8125 60.023438 C 545.96875 60.234375 545.96875 60.386719 545.863281 60.597656 C 545.449219 61.375 545.136719 62.207031 544.773438 62.984375 C 544.621094 63.398438 544.566406 63.917969 544.308594 64.125 C 543.996094 64.332031 543.476562 64.230469 543.0625 64.28125 C 541.765625 64.4375 540.46875 64.539062 539.167969 64.695312 C 539.167969 66.980469 539.167969 69.261719 539.167969 71.546875 C 539.324219 71.546875 539.429688 71.597656 539.585938 71.597656 C 541.089844 71.808594 542.648438 71.960938 544.152344 72.117188 C 544.253906 72.117188 544.410156 72.273438 544.464844 72.378906 C 544.980469 73.46875 545.398438 74.558594 545.863281 75.699219 C 545.917969 75.855469 545.917969 76.0625 545.8125 76.167969 C 545.1875 76.996094 544.566406 77.777344 543.945312 78.554688 C 543.527344 79.074219 543.113281 79.59375 542.75 80.058594 C 544.410156 81.71875 546.019531 83.328125 547.628906 84.9375 C 548.875 83.953125 550.171875 82.914062 551.417969 81.875 C 551.625 81.667969 551.78125 81.71875 551.988281 81.824219 C 553.027344 82.238281 554.0625 82.707031 555.15625 83.121094 C 555.414062 83.226562 555.515625 83.277344 555.515625 83.535156 C 555.671875 85.195312 555.828125 86.804688 556.035156 88.519531 C 558.320312 88.519531 560.601562 88.519531 562.785156 88.3125 C 562.785156 88.207031 562.835938 88.050781 562.835938 87.949219 C 562.992188 86.441406 563.148438 84.886719 563.304688 83.328125 C 563.355469 83.121094 563.40625 83.015625 563.613281 82.964844 C 564.703125 82.550781 565.792969 82.082031 566.9375 81.617188 C 567.039062 81.5625 567.25 81.617188 567.351562 81.667969 C 567.664062 81.875 567.976562 82.136719 568.285156 82.394531 C 569.324219 83.226562 570.308594 84.054688 571.242188 84.78125 C 572.902344 83.121094 574.511719 81.511719 576.121094 79.902344 C 575.136719 78.65625 574.097656 77.410156 573.058594 76.113281 C 572.902344 75.90625 572.902344 75.75 573.007812 75.542969 C 573.375 74.660156 573.789062 73.78125 574.152344 72.898438 Z M 559.152344 78.296875 C 553.859375 78.140625 549.238281 73.726562 549.34375 67.964844 C 549.445312 62.570312 553.964844 57.949219 559.671875 58.054688 C 565.121094 58.15625 569.636719 62.671875 569.585938 68.226562 C 569.585938 73.78125 564.964844 78.453125 559.152344 78.296875 Z M 488.394531 173.707031 C 488.664062 173.046875 488.628906 173.046875 489.363281 172.972656 C 490.453125 172.855469 491.5 172.738281 492.546875 172.621094 C 492.546875 170.914062 492.546875 169.207031 492.546875 167.5 C 491.304688 167.382812 490.101562 167.226562 488.859375 167.109375 C 488.664062 167.109375 488.625 166.992188 488.550781 166.839844 C 488.316406 166.21875 488.042969 165.558594 487.8125 164.9375 C 487.734375 164.664062 487.464844 164.433594 487.5 164.199219 C 487.539062 163.96875 487.8125 163.773438 488.007812 163.539062 C 488.628906 162.765625 489.285156 161.949219 489.910156 161.171875 C 488.703125 159.929688 487.503906 158.726562 486.300781 157.523438 C 486.222656 157.601562 486.144531 157.640625 486.066406 157.71875 C 485.171875 158.417969 484.28125 159.152344 483.386719 159.851562 C 483.308594 159.890625 483.117188 159.929688 483.039062 159.890625 C 482.183594 159.582031 481.371094 159.195312 480.554688 158.882812 C 480.398438 158.84375 480.320312 158.804688 480.320312 158.609375 C 480.28125 158.144531 480.203125 157.640625 480.167969 157.175781 C 480.089844 156.4375 480.011719 155.699219 479.933594 154.925781 C 478.226562 154.925781 476.519531 154.925781 474.808594 154.925781 C 474.691406 156.167969 474.539062 157.410156 474.421875 158.652344 C 474.421875 158.804688 474.382812 158.882812 474.226562 158.921875 C 473.453125 159.195312 472.714844 159.503906 471.9375 159.851562 C 471.664062 159.96875 471.511719 160.046875 471.277344 159.777344 C 471.121094 159.621094 470.929688 159.503906 470.734375 159.347656 C 469.996094 158.765625 469.261719 158.183594 468.5625 157.601562 C 467.320312 158.84375 466.117188 160.046875 464.914062 161.25 C 465.648438 162.179688 466.425781 163.152344 467.203125 164.082031 C 467.320312 164.238281 467.320312 164.355469 467.242188 164.511719 C 466.929688 165.09375 466.699219 165.714844 466.425781 166.296875 C 466.308594 166.605469 466.273438 166.996094 466.078125 167.148438 C 465.84375 167.304688 465.457031 167.226562 465.148438 167.265625 C 464.175781 167.382812 463.207031 167.460938 462.238281 167.578125 C 462.238281 169.285156 462.238281 170.992188 462.238281 172.699219 C 462.351562 172.699219 462.429688 172.738281 462.546875 172.738281 C 463.671875 172.894531 464.835938 173.011719 465.960938 173.128906 C 466.039062 173.128906 466.15625 173.246094 466.195312 173.320312 C 466.582031 174.136719 466.894531 174.953125 467.242188 175.804688 C 467.28125 175.921875 467.28125 176.078125 467.203125 176.15625 C 466.738281 176.777344 466.273438 177.359375 465.804688 177.941406 C 465.496094 178.328125 465.183594 178.714844 464.914062 179.066406 C 466.15625 180.308594 467.359375 181.511719 468.5625 182.714844 C 469.492188 181.976562 470.464844 181.199219 471.394531 180.421875 C 471.550781 180.269531 471.667969 180.308594 471.824219 180.382812 C 472.597656 180.695312 473.375 181.042969 474.191406 181.355469 C 474.382812 181.433594 474.460938 181.472656 474.460938 181.664062 C 474.578125 182.90625 474.695312 184.109375 474.851562 185.390625 C 476.558594 185.390625 478.265625 185.390625 479.894531 185.238281 C 479.894531 185.160156 479.933594 185.042969 479.933594 184.964844 C 480.050781 183.839844 480.167969 182.675781 480.28125 181.511719 C 480.320312 181.355469 480.359375 181.277344 480.515625 181.238281 C 481.332031 180.929688 482.144531 180.578125 483 180.230469 C 483.078125 180.191406 483.234375 180.230469 483.3125 180.269531 C 483.542969 180.421875 483.777344 180.617188 484.007812 180.8125 C 484.785156 181.433594 485.523438 182.054688 486.222656 182.597656 C 487.464844 181.355469 488.667969 180.152344 489.871094 178.949219 C 489.132812 178.019531 488.355469 177.085938 487.578125 176.117188 C 487.464844 175.960938 487.464844 175.84375 487.539062 175.6875 C 487.8125 175.027344 488.121094 174.367188 488.394531 173.707031 Z M 477.175781 177.746094 C 473.21875 177.628906 469.765625 174.328125 469.84375 170.019531 C 469.917969 165.984375 473.296875 162.53125 477.566406 162.609375 C 481.640625 162.6875 485.015625 166.0625 484.976562 170.214844 C 484.980469 174.367188 481.523438 177.859375 477.175781 177.746094 Z M 477.175781 177.746094 " fill-opacity="1" fill-rule="nonzero"/></g></svg>