<svg xmlns="http://www.w3.org/2000/svg" xmlns:xlink="http://www.w3.org/1999/xlink" width="802px" height="280px" viewBox="0 0 801.8219313562677 280">
    <g transform="matrix(1 0 0 1 -625.794369 12.720965)" id="73a5240f-3850-4501-9fab-d885433adf63">

</g>
<g id="147da0cc-9dbe-491a-81dd-079b0ca2c51d">
<g style="">
		<g id="1cce512e-9acb-4b51-b8bb-76a270147856">
<path style="stroke: rgb(136,136,136); stroke-width: 0; stroke-dasharray: none; stroke-linecap: butt; stroke-dashoffset: 0; stroke-linejoin: miter; stroke-miterlimit: 4; fill: rgb(60,60,60); fill-rule: nonzero; opacity: 1;" d="M299.47913,181.01204c-6.07,0 -10.67,-1.73 -13.78,-5.18c-3.11,-3.46 -4.67,-8.42 -4.67,-14.87v-4.56h11.84v5.47c0,5.17 2.17,7.75 6.5,7.75c2.13,0 3.74,-0.63 4.84,-1.88c1.1,-1.25 1.65,-3.29 1.65,-6.1c0,-3.34 -0.76,-6.28 -2.28,-8.83c-1.51,-2.55 -4.32,-5.6 -8.43,-9.17c-5.16,-4.56 -8.77,-8.68 -10.82,-12.36c-2.05,-3.69 -3.08,-7.85 -3.08,-12.48c0,-6.3 1.6,-11.18 4.79,-14.64c3.19,-3.45 7.82,-5.18 13.9,-5.18c6,0 10.54,1.73 13.61,5.18c3.08,3.46 4.62,8.42 4.62,14.87v3.3h-11.85v-4.1c0,-2.73 -0.53,-4.73 -1.6,-5.98c-1.06,-1.25 -2.62,-1.88 -4.67,-1.88c-4.17,0 -6.26,2.55 -6.26,7.64c0,2.88 0.78,5.57 2.33,8.08c1.56,2.51 4.39,5.55 8.49,9.12c5.24,4.55 8.85,8.69 10.82,12.42c1.97,3.72 2.96,8.09 2.96,13.1c0,6.53 -1.61,11.55 -4.84,15.04c-3.23,3.49 -7.92,5.24 -14.07,5.24zM336.39913,145.92204l-15.16,-45.8h13.33l8.55,29.28h0.23l8.54,-29.28h12.19l-15.15,45.8v33.95h-12.53zM384.24913,181.01204c-6.08,0 -10.68,-1.73 -13.79,-5.18c-3.11,-3.46 -4.67,-8.42 -4.67,-14.87v-4.56h11.85v5.47c0,5.17 2.16,7.75 6.49,7.75c2.13,0 3.74,-0.63 4.85,-1.88c1.1,-1.25 1.65,-3.29 1.65,-6.1c0,-3.34 -0.76,-6.28 -2.28,-8.83c-1.52,-2.55 -4.33,-5.6 -8.43,-9.17c-5.17,-4.56 -8.78,-8.68 -10.83,-12.36c-2.05,-3.69 -3.07,-7.85 -3.07,-12.48c0,-6.3 1.59,-11.18 4.78,-14.64c3.19,-3.45 7.83,-5.18 13.9,-5.18c6,0 10.54,1.73 13.62,5.18c3.07,3.46 4.61,8.42 4.61,14.87v3.3h-11.85v-4.1c0,-2.73 -0.53,-4.73 -1.59,-5.98c-1.07,-1.25 -2.62,-1.88 -4.67,-1.88c-4.18,0 -6.27,2.55 -6.27,7.64c0,2.88 0.78,5.57 2.34,8.08c1.55,2.51 4.38,5.55 8.48,9.12c5.25,4.55 8.86,8.69 10.83,12.42c1.97,3.72 2.96,8.09 2.96,13.1c0,6.53 -1.61,11.55 -4.84,15.04c-3.23,3.49 -7.92,5.24 -14.07,5.24zM408.05914,134.30204h25.06v11.39h-25.06zM458.29914,181.01204c-6,0 -10.58,-1.71 -13.73,-5.13c-3.15,-3.41 -4.72,-8.24 -4.72,-14.47v-42.84c0,-6.23 1.57,-11.05 4.72,-14.46c3.15,-3.42 7.73,-5.13 13.73,-5.13c6,0 10.58,1.71 13.73,5.13c3.15,3.41 4.73,8.23 4.73,14.46v8.44h-11.85v-9.23c0,-4.94 -2.09,-7.41 -6.27,-7.41c-4.17,0 -6.26,2.47 -6.26,7.41v44.54c0,4.87 2.09,7.3 6.26,7.3c4.18,0 6.27,-2.43 6.27,-7.3v-12.19h11.85v11.28c0,6.23 -1.58,11.06 -4.73,14.47c-3.15,3.42 -7.73,5.13 -13.73,5.13zM502.61913,181.01204c-6.15,0 -10.86,-1.75 -14.13,-5.24c-3.26,-3.49 -4.89,-8.43 -4.89,-14.81v-41.93c0,-6.38 1.63,-11.32 4.89,-14.81c3.27,-3.49 7.98,-5.24 14.13,-5.24c6.15,0 10.86,1.75 14.13,5.24c3.27,3.49 4.9,8.43 4.9,14.81v41.93c0,6.38 -1.63,11.32 -4.9,14.81c-3.27,3.49 -7.98,5.24 -14.13,5.24zM502.61913,169.62204c4.33,0 6.5,-2.62 6.5,-7.87v-43.52c0,-5.24 -2.17,-7.86 -6.5,-7.86c-4.33,0 -6.49,2.62 -6.49,7.86v43.52c0,5.25 2.16,7.87 6.49,7.87zM530.07913,100.12204h17.89l7.97,57.08h0.23l7.98,-57.08h17.88v79.75h-11.85v-60.38h-0.22l-9.12,60.38h-10.48l-9.11,-60.38h-0.23v60.38h-10.94zM591.37913,100.12204h18.45c6.23,0 10.9,1.67 14.02,5.01c3.11,3.34 4.67,8.24 4.67,14.7v7.86c0,6.45 -1.56,11.35 -4.67,14.7c-3.12,3.34 -7.79,5.01 -14.02,5.01h-5.92v32.47h-12.53zM609.82913,136.01204c2.05,0 3.59,-0.57 4.62,-1.71c1.02,-1.14 1.53,-3.08 1.53,-5.81v-9.46c0,-2.73 -0.51,-4.67 -1.53,-5.81c-1.03,-1.14 -2.57,-1.71 -4.62,-1.71h-5.92v24.5zM635.34913,100.12204h12.54v68.36h20.62v11.39h-33.16zM674.54914,100.12204h34.17v11.39h-21.64v21.08h17.2v11.39h-17.2v24.5h21.64v11.39h-34.17zM725.69914,111.51204h-13.1v-11.39h38.74v11.39h-13.11v68.36h-12.53z" stroke-linecap="round"/>
</g>
</g>
</g>
<g transform="matrix(1 0 0 1 -625.794369 12.720965)" id="16a0326b-a8f8-44b2-ac9f-a262ea7f9254">

</g>
<g transform="matrix(1 0 0 1 -625.794369 12.720965)" id="6ec7f7c8-0c75-48bc-a30d-3c57945ed34c">

</g>
<g id="d98c21fe-3270-4aca-b054-b365b31ede99">
<g style="">
		<g id="d98c21fe-3270-4aca-b054-b365b31ede99-child-0">
<path style="stroke: rgb(193,193,193); stroke-width: 0; stroke-dasharray: none; stroke-linecap: butt; stroke-dashoffset: 0; stroke-linejoin: miter; stroke-miterlimit: 4; fill: rgb(63,134,255); fill-opacity: 0.89; fill-rule: nonzero; opacity: 1;" transform="matrix(0.401621 0 0 0.401624 155.822299 139.996943) matrix(1 0 0 1 0 0)  translate(-277.112292, -266.952441)" d="M 245.50 530.43 C 188.93 522.74 138.48 499.06 96.79 460.64 C 85.21 449.97 57.02 417.42 57.00 414.71 C 57.00 414.28 83.66 414.05 116.25 414.21 L 175.50 414.50 L 181.25 416.82 C 187.98 419.54 197.24 427.59 200.11 433.21 C 201.21 435.36 202.99 439.99 204.07 443.49 C 207.10 453.30 213.42 457.63 220.69 454.87 C 226.46 452.67 228.52 449.02 228.40 441.17 C 228.16 425.46 214.85 406.42 197.88 397.51 C 181.65 388.98 188.05 389.60 110.50 389.02 L 41.50 388.50 L 35.50 376.43 C 19.67 344.56 10.99 305.52 11.01 266.20 C 11.03 230.30 16.94 198.48 29.56 166.30 C 51.51 110.37 98.43 59.31 153.00 31.97 C 166.25 25.33 187.59 16.73 199.77 13.11 C 212.45 9.35 236.31 4.42 249.00 2.95 C 261.12 1.54 294.95 1.56 306.41 2.99 C 359.51 9.59 411.64 32.06 451.50 65.54 C 490.68 98.44 517.60 139.11 532.13 187.32 C 536.16 200.71 539.46 215.46 540.60 225.25 L 541.28 231.00 L 518.03 231.00 L 494.79 231.00 L 491.85 228.53 C 488.32 225.55 481.72 223.61 478.12 224.49 C 466.32 227.35 461.04 241.24 468.06 250.93 C 472.94 257.66 480.65 259.73 488.75 256.48 C 491.86 255.24 497.12 255.01 518.02 255.23 L 543.50 255.50 L 543.83 261.00 C 544.26 268.18 542.31 291.70 540.18 304.99 L 538.50 315.47 L 517.50 315.78 C 505.95 315.95 494.13 316.55 491.24 317.12 C 481.99 318.93 472.27 324.56 463.97 332.92 C 451.28 345.68 446.00 359.13 446.00 378.66 L 446.00 389.00 L 410.75 389.02 C 371.48 389.04 367.20 389.52 354.84 395.28 C 335.10 404.48 320.92 422.26 316.58 443.25 C 315.30 449.48 315.00 458.24 315.00 489.91 L 315.00 528.91 L 311.75 529.46 C 301.39 531.20 295.01 531.99 291.25 531.99 L 287.00 532.00 L 287.00 502.11 C 287.00 474.46 287.15 471.89 288.98 467.86 C 293.74 457.36 288.79 446.11 277.96 442.87 C 272.63 441.27 267.51 442.54 263.06 446.57 C 256.94 452.09 255.76 461.54 260.37 468.12 C 261.79 470.15 262.00 474.40 262.00 501.22 L 262.00 532.00 L 258.75 531.90 C 256.96 531.84 251.00 531.18 245.50 530.43 Z M 184.65 478.49 C 193.23 472.87 192.77 460.59 183.76 454.94 C 172.47 447.85 158.65 462.83 166.18 474.00 C 170.66 480.65 178.47 482.54 184.65 478.49 Z M 299.50 369.53 C 320.25 366.17 342.92 357.13 361.03 345.01 C 379.38 332.72 399.51 309.89 409.46 290.06 C 414.24 280.54 419.60 265.63 421.35 257.00 C 430.21 213.38 419.76 167.97 393.19 134.62 C 369.09 104.37 334.92 84.32 297.50 78.46 C 283.45 76.26 259.73 76.92 247.00 79.87 C 202.94 90.05 163.41 121.95 143.55 163.35 C 138.19 174.52 132.69 192.40 130.90 204.50 C 129.23 215.79 129.25 238.97 130.93 249.50 C 133.96 268.48 144.82 293.60 157.10 310.04 C 181.61 342.87 215.28 363.23 255.50 369.55 C 266.62 371.29 288.70 371.28 299.50 369.53 Z M 98.82 353.97 C 103.22 351.29 106.42 344.16 105.69 338.69 C 104.74 331.68 98.67 325.84 91.03 324.62 C 87.86 324.11 86.51 323.25 84.98 320.73 C 83.12 317.69 83.01 315.61 83.04 285.00 C 83.06 257.80 83.31 252.18 84.55 250.53 C 92.93 239.45 82.74 222.43 68.85 224.29 C 64.26 224.91 58.63 228.88 56.50 233.00 C 54.68 236.53 54.54 244.33 56.25 247.32 C 57.16 248.91 57.64 259.63 58.00 287.00 L 58.50 324.50 L 61.59 331.00 C 65.32 338.84 74.75 350.13 80.39 353.52 C 85.73 356.72 93.98 356.92 98.82 353.97 Z M 450.70 138.28 C 454.09 136.06 456.00 131.84 456.00 126.58 C 456.00 118.07 447.11 111.45 438.95 113.90 C 434.40 115.26 430.32 119.79 429.45 124.43 C 428.76 128.10 431.41 135.46 434.27 137.82 C 438.34 141.17 445.96 141.39 450.70 138.28 Z M 171.02 82.17 C 175.28 79.92 178.00 74.91 178.00 69.28 C 178.00 61.60 169.43 54.88 161.75 56.55 C 154.30 58.16 149.39 64.44 150.30 71.20 C 151.68 81.52 161.94 86.95 171.02 82.17 Z M 88.51 522.83 C 78.23 514.74 83.64 498.99 96.70 499.00 C 102.27 499.01 106.45 501.99 108.53 507.45 C 110.75 513.25 109.45 518.60 104.91 522.43 C 100.81 525.87 92.63 526.07 88.51 522.83 Z M 450.73 523.01 C 443.72 517.47 443.11 508.04 449.39 502.28 C 452.43 499.49 453.72 499.00 457.95 499.00 C 470.10 499.00 475.79 513.08 467.03 521.47 C 462.88 525.45 454.78 526.21 450.73 523.01 Z M 339.65 523.32 C 338.34 522.01 339.01 457.82 340.42 449.95 C 342.87 436.18 349.79 426.59 361.91 420.13 C 373.36 414.03 373.67 414.00 437.71 414.00 C 469.77 414.00 496.00 414.30 496.00 414.66 C 496.00 415.38 487.28 427.19 480.25 436.00 C 473.13 444.92 453.25 464.58 442.90 472.95 C 417.09 493.81 389.73 508.56 357.90 518.78 C 343.14 523.52 340.51 524.17 339.65 523.32 Z M 13.49 485.14 C 9.19 483.18 3.45 477.32 1.93 473.32 C 0.42 469.33 0.90 460.81 2.89 456.50 C 9.13 442.99 28.15 440.88 37.84 452.62 C 43.55 459.54 44.41 466.78 40.47 474.69 C 35.35 484.95 23.33 489.61 13.49 485.14 Z M 525.05 485.70 C 519.81 484.03 514.37 477.99 512.54 471.81 C 508.46 458.09 518.19 445.04 532.50 445.04 C 544.15 445.04 553.29 454.02 553.29 465.46 C 553.29 479.80 538.89 490.11 525.05 485.70 Z M 471.38 387.54 C 471.07 386.73 470.97 381.45 471.16 375.79 C 471.58 363.31 474.24 356.61 481.59 349.57 C 489.17 342.31 494.46 340.77 513.83 340.22 C 522.81 339.97 530.55 340.15 531.03 340.63 C 532.49 342.09 523.70 365.68 515.98 381.03 L 511.98 389.00 L 491.96 389.00 C 475.32 389.00 471.84 388.75 471.38 387.54 Z M 14.52 81.40 C 9.70 79.64 4.26 74.65 2.38 70.28 C -0.51 63.54 1.04 54.03 6.08 47.62 C 10.81 41.61 23.22 39.05 30.30 42.61 C 47.96 51.51 46.25 75.97 27.57 81.53 C 21.60 83.31 19.68 83.29 14.52 81.40 Z M 526.63 82.01 C 521.81 80.50 516.47 76.19 514.02 71.81 C 508.99 62.87 511.98 49.69 520.30 44.18 C 523.81 41.86 525.38 41.50 532.00 41.50 C 538.50 41.50 540.20 41.87 543.34 44.00 C 556.84 53.14 556.35 71.94 542.41 79.67 C 537.81 82.21 530.68 83.27 526.63 82.01 Z M 74.50 31.01 C 65.89 25.34 66.16 12.48 74.98 7.83 C 82.21 4.03 90.19 6.65 93.46 13.92 C 98.75 25.65 85.08 37.97 74.50 31.01 Z M 465.30 31.10 C 456.33 25.47 457.19 11.33 466.74 7.34 C 478.02 2.62 489.63 14.02 484.35 24.64 C 481.92 29.54 478.23 32.12 472.86 32.66 C 469.65 32.99 467.66 32.58 465.30 31.10 Z" stroke-linecap="round"/>
</g>
</g>
</g>
<g transform="matrix(1 0 0 1 -625.794369 12.720965)" id="258e2a85-0e68-4d51-9e02-f05c55f7abb3">

</g>
<g id="15622309-d6db-4e53-b003-b1fb41fc894d">
<g style="">
		<g id="ead0e18c-b7be-4ad1-9b49-71371c0fe3b4">
<path style="stroke: rgb(136,136,136); stroke-width: 0; stroke-dasharray: none; stroke-linecap: butt; stroke-dashoffset: 0; stroke-linejoin: miter; stroke-miterlimit: 4; fill: rgb(113,113,113); fill-rule: nonzero; opacity: 1;" d="M290.89063,201.3029h-4.25v-3.7h12.58v3.7h-4.26v22.2h-4.07zM307.10063,197.6029h11.1v3.7h-7.03v6.85h5.59v3.7h-5.59v7.95h7.03v3.7h-11.1zM332.19063,223.8729c-1.95,0 -3.44,-0.55 -4.46,-1.66c-1.03,-1.11 -1.54,-2.68 -1.54,-4.7v-13.92c0,-2.02 0.51,-3.58 1.54,-4.69c1.02,-1.11 2.51,-1.67 4.46,-1.67c1.95,0 3.43,0.56 4.45,1.67c1.03,1.11 1.54,2.67 1.54,4.69v2.74h-3.85v-2.99c0,-1.61 -0.68,-2.41 -2.03,-2.41c-1.36,0 -2.04,0.8 -2.04,2.41v14.46c0,1.58 0.68,2.37 2.04,2.37c1.35,0 2.03,-0.79 2.03,-2.37v-3.96h3.85v3.67c0,2.02 -0.51,3.59 -1.54,4.7c-1.02,1.11 -2.5,1.66 -4.45,1.66zM346.54063,197.6029h4.07v10.55h4.37v-10.55h4.07v25.9h-4.07v-11.65h-4.37v11.65h-4.07zM384.10063,223.8729c-1.48,0 -2.6,-0.51 -3.37,-1.52c-0.77,-1.01 -1.15,-2.47 -1.15,-4.4v-2.7c0,-1.36 0.24,-2.49 0.71,-3.4c0.47,-0.91 1.23,-1.58 2.29,-2v-0.08c-0.96,-0.39 -1.67,-1.03 -2.13,-1.9c-0.45,-0.88 -0.68,-2.01 -0.68,-3.39v-0.48c0,-2.09 0.5,-3.68 1.51,-4.77c1.01,-1.09 2.53,-1.63 4.56,-1.63h4.66v3.7h-4.59c-0.67,0 -1.18,0.2 -1.54,0.59c-0.35,0.39 -0.53,1.04 -0.53,1.93v1.59c0,0.99 0.2,1.69 0.61,2.11c0.41,0.42 1.02,0.63 1.83,0.63h1.59v-2.89h4v2.89h1.14v3.7h-1.14v8.51c0,0.74 0.02,1.34 0.07,1.79c0.05,0.45 0.17,0.9 0.37,1.35h-4.07c-0.2,-0.54 -0.32,-1.22 -0.37,-2.03h-0.07c-0.45,0.81 -0.96,1.42 -1.54,1.81c-0.58,0.39 -1.3,0.59 -2.16,0.59zM385.61063,220.1729c1.29,0 2.04,-0.78 2.26,-2.33v-5.99h-1.55c-0.94,0 -1.62,0.25 -2.04,0.75c-0.42,0.51 -0.63,1.35 -0.63,2.54v2.63c0,0.86 0.17,1.48 0.52,1.85c0.35,0.37 0.83,0.55 1.44,0.55zM416.21063,201.3029h-4.25v-3.7h12.58v3.7h-4.26v22.2h-4.07zM432.42063,197.6029h11.1v3.7h-7.03v6.85h5.59v3.7h-5.59v7.95h7.03v3.7h-11.1zM457.50063,223.8729c-1.95,0 -3.43,-0.55 -4.45,-1.66c-1.03,-1.11 -1.54,-2.68 -1.54,-4.7v-13.92c0,-2.02 0.51,-3.58 1.54,-4.69c1.02,-1.11 2.5,-1.67 4.45,-1.67c1.95,0 3.44,0.56 4.46,1.67c1.03,1.11 1.54,2.67 1.54,4.69v2.74h-3.85v-2.99c0,-1.61 -0.68,-2.41 -2.03,-2.41c-1.36,0 -2.04,0.8 -2.04,2.41v14.46c0,1.58 0.68,2.37 2.04,2.37c1.35,0 2.03,-0.79 2.03,-2.37v-3.96h3.85v3.67c0,2.02 -0.51,3.59 -1.54,4.7c-1.02,1.11 -2.51,1.66 -4.46,1.66zM471.86063,197.6029h4.07v10.55h4.37v-10.55h4.07v25.9h-4.07v-11.65h-4.37v11.65h-4.07zM511.04063,223.8729c-1.99,0 -3.52,-0.57 -4.58,-1.7c-1.07,-1.13 -1.6,-2.74 -1.6,-4.81v-13.62c0,-2.07 0.53,-3.68 1.6,-4.81c1.06,-1.13 2.59,-1.7 4.58,-1.7c2,0 3.53,0.57 4.59,1.7c1.06,1.13 1.59,2.74 1.59,4.81v13.62c0,2.07 -0.53,3.68 -1.59,4.81c-1.06,1.13 -2.59,1.7 -4.59,1.7zM511.04063,220.1729c1.41,0 2.11,-0.85 2.11,-2.55v-14.14c0,-1.7 -0.7,-2.55 -2.11,-2.55c-1.41,0 -2.11,0.85 -2.11,2.55v14.14c0,1.7 0.7,2.55 2.11,2.55zM525.88063,197.6029h5.11l3.96,15.5h0.07v-15.5h3.63v25.9h-4.19l-4.88,-18.91h-0.07v18.91h-3.63zM547.60063,197.6029h4.07v22.2h6.7v3.7h-10.77zM566.73063,212.4729l-4.92,-14.87h4.33l2.77,9.51h0.08l2.77,-9.51h3.96l-4.92,14.87v11.03h-4.07z" stroke-linecap="round"/>
</g>
</g>
</g>
<g transform="matrix(1 0 0 1 -625.794369 12.720965)" id="54864faa-7c7a-4670-96cc-eb2a0b4710fe">

</g>
<g transform="matrix(1 0 0 1 -625.794369 12.720965)" id="0c591ca3-2ba8-4b4b-a3d3-d99b2e668256">

</g>

  </svg>