<svg xmlns="http://www.w3.org/2000/svg" width="90" viewBox="0 0 67.5 67.5" height="90" version="1.0"><defs><clipPath id="a"><path d="M1.207 10.191h64.77v46.903H1.207Zm0 0"/></clipPath></defs><g clip-path="url(#a)"><path fill="#c1272d" d="M58.762 10.191H8.422c-3.973 0-7.192 3.23-7.192 7.215V49.88c0 3.984 3.22 7.215 7.192 7.215h50.34c3.972 0 7.195-3.23 7.195-7.215V17.406c0-3.984-3.223-7.215-7.195-7.215Zm0 0"/></g><path fill="#006233" d="m28.285 41.156 2.027-6.261-5.308-3.872h6.558l2.032-6.265 2.027 6.265h6.563l-5.309 3.872 2.027 6.257-5.308-3.867Zm6.442-4.695 1.644 1.2-.629-1.942Zm-3.286-.742-.628 1.941 1.648-1.2Zm.434-1.336 1.719 1.25 1.715-1.25-.657-2.024h-2.125Zm-2.777-2.024 1.644 1.2.39-1.2Zm6.957 0 .386 1.2 1.645-1.2Zm-1.832-1.336-.63-1.945-.628 1.945Zm0 0"/></svg>