<svg width="1161" height="842" viewBox="0 0 1161 842" fill="none" xmlns="http://www.w3.org/2000/svg">
<g filter="url(#filter0_d_4_151)">
<path d="M619.686 623.573C616.574 641.21 600.19 654.714 580.5 654.714C560.81 654.714 544.408 641.21 541.314 623.573H441.038V827.133H719.962V623.573H619.686Z" fill="#DFDFDF"/>
<path d="M473.456 826.375H445.89V830.937H473.456V826.375Z" fill="#BCB9CB"/>
<path d="M717.518 827.133H689.953V831.695H717.518V827.133Z" fill="#BCB9CB"/>
<path d="M720.771 810.994H441.847V818.075H720.771V810.994Z" fill="#2F2E41"/>
<path d="M1141.44 628.892H19.5583C10.9792 628.892 4 622.355 4 614.318V14.5741C4 6.53775 10.9792 0 19.5583 0H1141.44C1150.02 0 1157 6.53775 1157 14.5741V614.335C1157 622.371 1150.02 628.909 1141.44 628.909V628.892Z" fill="#2F2E41"/>
<path d="M1130.23 25.8217H32.3741V606.101H1130.23V25.8217Z" fill="white"/>
<path d="M177 85H191.081V99.076H177V85Z" fill="#3884C3"/>
<path d="M177 134H191.081V148.076H177V134Z" fill="#3884C3"/>
<path d="M225 60H239.081V74.076H225V60Z" fill="#3884C3"/>
<path d="M225 109H239.081V123.076H225V109Z" fill="#3884C3"/>
<path d="M266 85H280.081V99.076H266V85Z" fill="#3884C3"/>
<path d="M266 134H280.081V148.076H266V134Z" fill="#3884C3"/>
<path d="M133 113H147.081V127.076H133V113Z" fill="#3884C3"/>
<mask id="mask0_4_151" style="mask-type:luminance" maskUnits="userSpaceOnUse" x="118" y="457" width="44" height="45">
<path d="M118.617 457.085H161.979V501.029H118.617V457.085Z" fill="white"/>
</mask>
<g mask="url(#mask0_4_151)">
<path d="M139.736 458.135C128.121 458.135 118.617 467.639 118.617 479.255C118.617 490.87 128.121 500.374 139.736 500.374C151.352 500.374 160.855 490.87 160.855 479.255C160.855 467.639 151.352 458.135 139.736 458.135ZM139.736 486.298C135.866 486.298 132.698 483.13 132.698 479.255C132.698 475.384 135.866 472.217 139.736 472.217C143.612 472.217 146.779 475.384 146.779 479.255C146.779 483.13 143.612 486.298 139.736 486.298Z" fill="#3884C3"/>
</g>
<mask id="mask1_4_151" style="mask-type:luminance" maskUnits="userSpaceOnUse" x="124" y="239" width="38" height="37">
<path d="M124.693 239.775H161.979V275.98H124.693V239.775Z" fill="white"/>
</mask>
<g mask="url(#mask1_4_151)">
<path d="M143.258 239.905C133.541 239.905 125.66 247.791 125.66 257.508C125.66 267.22 133.541 275.106 143.258 275.106C152.975 275.106 160.855 267.22 160.855 257.508C160.855 247.791 152.975 239.905 143.258 239.905ZM143.258 261.025C141.286 261.025 139.736 259.48 139.736 257.508C139.736 255.537 141.286 253.987 143.258 253.987C145.229 253.987 146.779 255.537 146.779 257.508C146.779 259.48 145.229 261.025 143.258 261.025Z" fill="#3884C3"/>
</g>
<path d="M153.817 521.493C149.947 521.493 146.779 524.661 146.779 528.536C146.779 532.406 149.947 535.574 153.817 535.574C157.688 535.574 160.855 532.406 160.855 528.536C160.855 524.661 157.688 521.493 153.817 521.493Z" fill="#3884C3"/>
<mask id="mask2_4_151" style="mask-type:luminance" maskUnits="userSpaceOnUse" x="118" y="379" width="17" height="17">
<path d="M118.617 379.849H134.014V395.829H118.617V379.849Z" fill="white"/>
</mask>
<g mask="url(#mask2_4_151)">
<path d="M125.66 394.783C129.53 394.783 132.698 391.615 132.698 387.74C132.698 383.87 129.53 380.702 125.66 380.702C121.785 380.702 118.617 383.87 118.617 387.74C118.617 391.615 121.785 394.783 125.66 394.783Z" fill="#3884C3"/>
</g>
<path d="M153.817 296.225C149.947 296.225 146.779 299.393 146.779 303.263C146.779 307.138 149.947 310.306 153.817 310.306C157.688 310.306 160.855 307.138 160.855 303.263C160.855 299.393 157.688 296.225 153.817 296.225Z" fill="#3884C3"/>
<path d="M191 426H205.081V440.076H191V426Z" fill="#3884C3"/>
<path d="M243 426H257.081V440.076H243V426Z" fill="#3884C3"/>
<path d="M218 426H232.081V440.076H218V426Z" fill="#3884C3"/>
<mask id="mask3_4_151" style="mask-type:luminance" maskUnits="userSpaceOnUse" x="734" y="274" width="44" height="45">
<path d="M734 274.309H777.362V318.254H734V274.309Z" fill="white"/>
</mask>
<g mask="url(#mask3_4_151)">
<path d="M755.119 275.36C743.504 275.36 734 284.864 734 296.479C734 308.095 743.504 317.598 755.119 317.598C766.735 317.598 776.238 308.095 776.238 296.479C776.238 284.864 766.735 275.36 755.119 275.36ZM755.119 303.522C751.249 303.522 748.081 300.355 748.081 296.479C748.081 292.609 751.249 289.441 755.119 289.441C758.995 289.441 762.162 292.609 762.162 296.479C762.162 300.355 758.995 303.522 755.119 303.522Z" fill="#3884C3"/>
</g>
<mask id="mask4_4_151" style="mask-type:luminance" maskUnits="userSpaceOnUse" x="693" y="42" width="38" height="37">
<path d="M693 42H730.286V78.2043H693V42Z" fill="white"/>
</mask>
<g mask="url(#mask4_4_151)">
<path d="M711.565 42.13C701.848 42.13 693.968 50.0159 693.968 59.7328C693.968 69.4445 701.848 77.3304 711.565 77.3304C721.282 77.3304 729.163 69.4445 729.163 59.7328C729.163 50.0159 721.282 42.13 711.565 42.13ZM711.565 63.2492C709.594 63.2492 708.044 61.7043 708.044 59.7328C708.044 57.7613 709.594 56.2112 711.565 56.2112C713.537 56.2112 715.087 57.7613 715.087 59.7328C715.087 61.7043 713.537 63.2492 711.565 63.2492Z" fill="#3884C3"/>
</g>
<mask id="mask5_4_151" style="mask-type:luminance" maskUnits="userSpaceOnUse" x="1030" y="272" width="50" height="51">
<path d="M1030 272H1079.24V322.603H1030V272Z" fill="white"/>
</mask>
<g mask="url(#mask5_4_151)">
<path d="M1055.07 273.035C1041.49 273.035 1030.43 284.084 1030.43 297.671C1030.43 311.258 1041.49 322.312 1055.07 322.312C1068.65 322.312 1079.71 311.258 1079.71 297.671C1079.71 284.084 1068.65 273.035 1055.07 273.035ZM1055.07 308.23C1049.23 308.23 1044.51 303.512 1044.51 297.671C1044.51 291.829 1049.23 287.111 1055.07 287.111C1060.91 287.111 1065.63 291.829 1065.63 297.671C1065.63 303.512 1060.91 308.23 1055.07 308.23Z" fill="#3884C3"/>
</g>
<path d="M1029.67 85.2924C1033.54 85.2924 1036.71 82.1246 1036.71 78.2492C1036.71 74.3791 1033.54 71.2112 1029.67 71.2112C1025.8 71.2112 1022.63 74.3791 1022.63 78.2492C1022.63 82.1246 1025.8 85.2924 1029.67 85.2924Z" fill="#3884C3"/>
<path d="M1069.04 443C1065.17 443 1062 446.168 1062 450.038C1062 453.913 1065.17 457.081 1069.04 457.081C1072.91 457.081 1076.08 453.913 1076.08 450.038C1076.08 446.168 1072.91 443 1069.04 443Z" fill="#3884C3"/>
<path d="M945.043 360C941.168 360 938 363.168 938 367.038C938 370.908 941.168 374.076 945.043 374.076C948.913 374.076 952.081 370.908 952.081 367.038C952.081 363.168 948.913 360 945.043 360Z" fill="#3884C3"/>
<path d="M866.038 472C862.168 472 859 475.168 859 479.043C859 482.913 862.168 486.081 866.038 486.081C869.908 486.081 873.076 482.913 873.076 479.043C873.076 475.168 869.908 472 866.038 472Z" fill="#3884C3"/>
<mask id="mask6_4_151" style="mask-type:luminance" maskUnits="userSpaceOnUse" x="734" y="197" width="16" height="17">
<path d="M734 197.073H749.397V213.053H734V197.073Z" fill="white"/>
</mask>
<g mask="url(#mask6_4_151)">
<path d="M741.043 212.008C744.913 212.008 748.081 208.84 748.081 204.964C748.081 201.094 744.913 197.926 741.043 197.926C737.168 197.926 734 201.094 734 204.964C734 208.84 737.168 212.008 741.043 212.008Z" fill="#3884C3"/>
</g>
<path d="M769.2 113.45C765.33 113.45 762.162 116.618 762.162 120.488C762.162 124.363 765.33 127.531 769.2 127.531C773.071 127.531 776.238 124.363 776.238 120.488C776.238 116.618 773.071 113.45 769.2 113.45Z" fill="#3884C3"/>
<path d="M881.834 127.531H895.916V141.607H881.834V127.531Z" fill="#3884C3"/>
<path d="M903 128H917.081V142.076H903V128Z" fill="#3884C3"/>
<path d="M133 60H147.081V74.076H133V60Z" fill="#3884C3"/>
<path d="M924.073 127.531H938.154V141.607H924.073V127.531Z" fill="#3884C3"/>
<path d="M581.942 213.375H514.417C493.198 213.375 475.934 197.203 475.934 177.326C475.934 157.45 493.198 141.278 514.417 141.278H581.942C603.161 141.278 620.424 157.45 620.424 177.326C620.424 197.203 603.161 213.375 581.942 213.375Z" fill="#DFDFDF"/>
<path d="M515.771 205.157C532.179 205.157 545.481 192.697 545.481 177.326C545.481 161.956 532.179 149.496 515.771 149.496C499.362 149.496 486.06 161.956 486.06 177.326C486.06 192.697 499.362 205.157 515.771 205.157Z" fill="white"/>
<path d="M581.942 461.826H514.417C493.198 461.826 475.934 445.654 475.934 425.777C475.934 405.901 493.198 389.729 514.417 389.729H581.942C603.161 389.729 620.424 405.901 620.424 425.777C620.424 445.654 603.161 461.826 581.942 461.826Z" fill="#DFDFDF"/>
<path d="M515.771 453.608C532.179 453.608 545.481 441.148 545.481 425.777C545.481 410.407 532.179 397.947 515.771 397.947C499.362 397.947 486.06 410.407 486.06 425.777C486.06 441.148 499.362 453.608 515.771 453.608Z" fill="white"/>
<path d="M581.942 337.361H514.417C493.198 337.361 475.934 321.19 475.934 301.313C475.934 281.436 493.198 265.265 514.417 265.265H581.942C603.161 265.265 620.424 281.436 620.424 301.313C620.424 321.19 603.161 337.361 581.942 337.361Z" fill="#DFDFDF"/>
<path d="M579.85 329.144C596.258 329.144 609.56 316.684 609.56 301.313C609.56 285.943 596.258 273.482 579.85 273.482C563.441 273.482 550.139 285.943 550.139 301.313C550.139 316.684 563.441 329.144 579.85 329.144Z" fill="#3884C3"/>
<path d="M265.942 832.501C265.942 833.325 266.645 834 267.541 834H893.441C894.32 834 895.041 833.341 895.041 832.501C895.041 831.662 894.338 831.003 893.441 831.003H267.541C266.662 831.003 265.942 831.662 265.942 832.501Z" fill="#2F2E43"/>
<path d="M705.335 326.427L675.555 335.599V295.434H702.575L705.335 326.427Z" fill="#F2A7AA"/>
<path d="M679.247 306.55C695.636 306.55 708.922 294.104 708.922 278.752C708.922 263.4 695.636 250.954 679.247 250.954C662.858 250.954 649.572 263.4 649.572 278.752C649.572 294.104 662.858 306.55 679.247 306.55Z" fill="#F2A7AA"/>
<path d="M687.386 276.002C682.411 275.854 679.159 271.16 677.225 266.862C675.291 262.564 673.305 257.64 668.699 255.862C664.937 254.412 658.291 264.211 655.303 261.593C652.209 258.875 655.232 244.911 658.52 242.391C661.807 239.871 666.308 239.394 670.545 239.213C680.882 238.768 691.289 239.542 701.433 241.535C707.709 242.753 714.161 244.598 718.679 248.846C724.41 254.231 725.869 262.366 726.291 269.958C726.713 277.731 726.238 285.866 722.195 292.667C718.151 299.469 709.713 304.491 701.626 302.746C700.817 298.629 701.626 294.397 701.96 290.214C702.276 286.031 701.96 281.519 699.218 278.176C696.475 274.833 690.674 273.532 687.492 276.479" fill="#36344E"/>
<path d="M723.9 285.636C726.871 283.594 730.422 281.897 734.079 282.309C738.034 282.754 741.357 285.8 742.376 289.407C743.396 293.013 742.253 296.982 739.81 299.93C737.366 302.877 733.745 304.821 729.895 305.792C727.68 306.352 725.236 306.583 723.126 305.743C719.997 304.491 718.327 300.753 719.54 297.772" fill="#36344E"/>
<path d="M695.508 773.299H667.609V810.369H695.508V773.299Z" fill="#F2A7AA"/>
<path d="M640.43 832.814C637.494 832.814 634.892 832.748 632.923 832.584C625.505 831.942 618.438 826.82 614.886 823.823C613.287 822.473 612.777 820.332 613.603 818.487C614.201 817.153 615.396 816.165 616.873 815.77L636.457 810.533L668.171 790.492L668.523 791.085C668.664 791.299 671.775 796.552 672.812 800.109C673.217 801.459 673.111 802.579 672.496 803.452C672.074 804.061 671.494 804.407 671.019 804.605C671.599 805.165 673.393 806.301 678.93 807.141C687.017 808.343 688.722 800.488 688.793 800.159L688.845 799.895L689.092 799.747C692.942 797.425 695.315 796.371 696.124 796.601C696.633 796.75 697.495 796.98 699.78 818.372C700.009 819.047 701.626 823.971 700.519 828.664C699.323 833.786 675.449 832.024 670.685 831.612C670.545 831.612 652.666 832.814 640.43 832.814Z" fill="#36344E"/>
<path d="M774.936 744.162L751.263 757.991L772.204 789.445L795.877 775.615L774.936 744.162Z" fill="#F2A7AA"/>
<path d="M743.502 827.726C740.232 827.726 737.225 827.363 735.081 827.001C732.971 826.655 731.319 825.091 730.985 823.098C730.738 821.682 731.196 820.249 732.215 819.179L745.875 805.033L761.451 772.311L762.084 772.641C762.33 772.756 767.938 775.671 770.821 778.174C771.928 779.129 772.473 780.134 772.456 781.171C772.456 781.896 772.157 782.472 771.858 782.884C772.667 783.081 774.829 783.147 779.998 781.105C787.539 778.124 784.551 770.615 784.41 770.302L784.305 770.055L784.428 769.808C786.379 765.922 787.785 763.863 788.612 763.649C789.122 763.517 789.983 763.303 804.012 780.298C804.592 780.743 808.741 784.135 810.464 788.664C812.345 793.604 791.091 803.93 786.819 805.955C786.696 806.054 764.439 821.204 755.315 825.503C751.694 827.215 747.404 827.742 743.502 827.742V827.726Z" fill="#36344E"/>
<path d="M716.042 463.258H637.934L630.849 531.32L661.86 782.801H701.732L685.786 637.554L750.463 768.688L785.904 745.452L735.397 623.03C735.397 623.03 753.434 516.384 739.265 489.821C725.095 463.258 716.042 463.258 716.042 463.258Z" fill="#36344E"/>
<path d="M754.893 467.408H630.849L668.066 317.172H722.107L754.893 467.408Z" fill="#3884C3"/>
<path d="M600.049 314.224C598.062 305.084 601.701 296.735 608.136 295.582C614.588 294.429 621.409 300.901 623.395 310.041C624.239 313.68 624.116 317.452 623.008 321.058L630.849 359.873L610.579 362.87L605.007 324.286C602.493 321.338 600.787 317.896 600.049 314.224Z" fill="#F2A7AA"/>
<path d="M720.788 317.172H673.129L640.993 377.362L628.88 332.256L602.246 334.908C602.246 334.908 608.54 423.044 636.088 420.063C663.636 417.082 727.855 337.674 720.788 317.172Z" fill="#3884C3"/>
<path d="M774.02 546.108C776.007 555.248 772.368 563.597 765.934 564.75C759.482 565.903 752.661 559.431 750.674 550.291C749.83 546.652 749.953 542.881 751.061 539.274L743.22 500.459L763.49 497.462L769.063 536.046C771.577 538.994 773.282 542.436 774.02 546.108Z" fill="#F2A7AA"/>
<path d="M693.627 317.172C693.627 317.172 720.718 316.101 722.124 317.172C729.508 322.837 772.878 526.874 772.878 526.874H745.418L693.645 317.172H693.627Z" fill="#3884C3"/>
<path d="M439.518 165.616L438.945 165.63C436.67 156.555 428.924 151.166 416.208 149.959C409.227 149.3 400.545 148.765 392.445 150.544C392.445 150.544 392.445 150.544 392.431 150.544C392.393 150.544 392.353 150.393 392.302 150.379C392.457 150.342 392.614 150.239 392.77 150.202C392.614 150.239 392.457 150.253 392.302 150.289C392.288 150.289 392.276 150.379 392.262 150.393C392.184 150.418 392.106 150.558 392.029 150.558H348.53C348.335 150.558 348.14 150.342 347.945 150.289C347.83 150.253 347.712 150.177 347.594 150.152C347.83 150.214 348.062 150.354 348.298 150.418C348.361 150.429 348.439 150.558 348.504 150.558H348.464C348.413 150.558 348.349 150.418 348.298 150.393C348.062 150.328 347.83 150.202 347.594 150.152C339.495 148.205 330.746 149.172 323.766 149.833C311.038 151.054 303.2 156.911 300.937 165.807H300.886L299.898 165.706C298.884 165.694 298 166.417 298 167.408V169.327C298 170.307 298.844 171.106 299.858 171.12H300.288L301.859 171.195C301.977 169.251 302.327 167.714 302.913 165.807C305.632 157.675 313.235 152.972 324.363 151.917C333.646 151.04 347.907 149.732 357.175 156.658C361.738 160.064 361.465 168.73 359.866 173.89C355.837 186.942 341.912 202.549 327.249 202.549C312.586 202.549 302.471 187.387 301.822 173.789C301.77 172.873 301.782 171.983 301.833 171.12L300.237 171.106C300.222 171.742 300.237 172.391 300.274 173.052C300.989 187.844 310.947 204.823 326.899 204.823C342.837 204.823 357.201 188.023 361.583 173.839C362.479 170.954 363.09 167.142 362.648 163.521L367.693 162.541C369.384 162.21 371.138 162.21 372.827 162.541L377.612 163.482C377.612 163.495 377.558 163.507 377.558 163.521V163.532V163.635H377.638L377.819 164.016H377.533C377.119 167.319 377.638 171.221 378.523 174.106C382.89 188.301 397.189 205 413.141 205C429.079 205 439.05 188.124 439.751 173.318C439.777 172.809 439.791 172.148 439.777 171.767H439.634C440.635 171.767 441 170.75 441 169.671V167.588C441 166.493 440.532 165.605 439.518 165.616ZM350.884 151.065C351.026 151.116 351.157 151.166 351.298 151.219C351.157 151.166 351 151.116 350.859 151.065C350.87 151.065 350.884 151.065 350.884 151.065ZM377.871 161.627L372.852 160.661C371.164 160.33 369.409 160.33 367.719 160.661L362.324 161.703C361.674 158.958 360.296 156.605 357.825 154.827C356.446 153.835 355.005 152.858 353.523 152.477H386.53C385.035 152.858 383.617 153.835 382.238 154.827C379.783 156.594 378.523 158.907 377.871 161.627ZM438.204 173.826C437.555 187.438 427.428 202.56 412.776 202.56C398.125 202.56 384.176 186.942 380.159 173.89C378.56 168.73 378.287 160.037 382.85 156.631C392.121 149.706 406.379 151.04 415.662 151.917C426.791 152.972 434.396 158.042 437.113 165.795H437.127L437.23 165.731V165.666C437.23 166.126 437.348 166.596 437.463 167.078C437.477 167.142 437.411 167.204 437.425 167.268C437.489 167.523 437.632 167.803 437.684 168.069C437.776 168.515 438.009 168.96 438.009 169.417C438.009 170.142 438.074 170.89 438.114 171.654H438.27C438.295 172.352 438.23 173.077 438.204 173.826Z" fill="black"/>
<mask id="mask7_4_151" style="mask-type:luminance" maskUnits="userSpaceOnUse" x="298" y="274" width="143" height="56">
<path d="M298 274H441V330H298V274Z" fill="white"/>
</mask>
<g mask="url(#mask7_4_151)">
<path d="M310.005 318.902C309.706 318.211 309.423 317.465 309.177 316.622C308.704 315.07 308.295 313.49 307.91 311.909C306.359 312.535 304.674 313.881 303.406 314.829C302.021 315.851 300.615 316.919 299.77 318.469C298.363 321.036 300.141 323.223 302.667 323.223C303.782 323.223 305.096 322.505 306.072 321.932C307.505 321.098 308.666 319.887 310.005 318.902ZM310.788 320.399C310.732 320.308 310.673 320.216 310.622 320.123C308.438 321.733 306.288 324.066 303.572 324.516C304.705 324.692 306.043 324.745 306.976 324.115C308.341 323.163 309.571 321.65 310.732 320.438C310.752 320.42 310.77 320.42 310.788 320.399ZM354.727 318.677C355.351 317.732 355.897 316.631 356.362 315.464C355.554 316.919 354.621 318.211 353.53 319.094C351.732 320.531 350.177 322.301 348.115 323.348C346.1 324.381 344.034 324.977 341.893 325.677C336.907 327.292 331.441 326.951 326.261 326.64C322.916 326.437 319.718 325.718 316.596 324.555C319.963 326.622 325.21 326.898 328.386 327.199C330.913 327.44 333.308 327.412 335.817 326.928C337.38 326.622 339.721 326.355 341.271 326.325C344.16 326.263 347.062 324.546 349.509 323.077C351.515 321.858 353.391 320.7 354.727 318.677ZM363.792 294.581C363.852 294.528 363.922 294.5 363.987 294.47C363.29 293.223 363.341 291.358 363.146 290.054C362.909 288.462 362.673 286.697 362.259 285.156C362.17 284.832 361.996 284.366 361.934 283.923C361.896 283.896 361.856 283.884 361.81 283.847C359.673 281.741 356.344 280.311 353.734 278.958C350.73 277.415 348.093 276.699 344.791 276.699C342.214 276.699 339.67 275.661 337.093 275.578C333.941 275.476 330.806 275.432 327.667 275.432C322.151 275.432 316.857 276.238 311.387 276.843C309.292 277.086 306.952 277.179 304.928 277.818C302.886 278.462 302.824 280.084 302.524 281.926C302.236 283.75 300.792 288.001 301.371 290.054C303.82 291.018 305.253 293.01 305.937 295.698C306.934 299.563 307.715 303.49 308.463 307.412C308.903 309.701 309.118 311.84 309.786 314.076C310.533 316.529 311.23 320.447 313.639 321.742C313.769 321.752 313.896 321.817 314.011 321.928C317.433 323.707 321.31 324.958 325.141 325.185C334.972 325.797 348.031 325.913 354.119 316.098C356.733 311.889 358.642 307.385 359.998 302.588C360.834 299.611 361.511 296.697 363.792 294.581ZM371.481 293.511C371.016 293.298 370.468 293.177 369.809 293.186C369.072 293.205 368.375 293.369 367.705 293.636C368.278 293.636 368.844 293.666 369.36 293.657C370.056 293.647 370.771 293.583 371.481 293.511ZM374.633 296.954C374.624 296.944 374.624 296.935 374.615 296.935C374.556 296.891 374.489 296.838 374.438 296.759C373.91 296.052 373.467 295.32 372.963 294.704C372.925 294.713 372.905 294.732 372.883 294.732C371.722 294.869 370.525 295.005 369.36 295.033C368.254 295.072 366.763 294.859 365.719 295.246C365.515 295.32 365.347 295.29 365.216 295.198C364.989 295.401 364.759 295.615 364.548 295.832C364.469 295.906 364.396 295.955 364.316 295.988C363.792 296.551 363.341 297.19 362.965 297.89C366.774 297.57 370.793 296.469 374.633 296.954ZM376.179 300.431C375.954 299.766 375.688 299.115 375.401 298.471C371.737 297.691 367.725 298.719 363.978 299.169C368.021 299.252 372.195 299.896 376.179 300.431ZM375.907 285.432C376.314 283.502 369.034 283.627 367.762 283.627C367.371 283.627 363.221 283.627 363.396 284.282C363.635 285.156 363.834 286.101 363.931 286.993C364.079 288.328 364.312 292.192 365.013 293.617C366.597 292.415 368.481 291.643 370.459 291.901C371.684 292.056 372.757 292.526 373.699 293.33C373.742 293.258 373.799 293.166 373.859 293.05C374.341 292.188 374.684 291.134 374.94 290.174C375.372 288.599 375.575 287.016 375.907 285.432ZM377.053 303.165C376.927 302.725 376.787 302.283 376.659 301.842C376.613 301.842 376.584 301.861 376.542 301.852C371.861 301.235 366.82 300.42 362.102 300.547C362.005 300.557 361.916 300.526 361.845 300.503C361.71 300.872 361.591 301.245 361.485 301.622C366.437 301.643 371.806 302.158 377.053 303.165ZM410.954 328.047C413.239 327.843 416.608 327.576 419.497 326.592C416.168 327.403 412.64 327.586 410.072 327.586C407.254 327.586 404.272 328.007 401.471 327.709C399.034 327.444 396.671 326.684 394.335 325.885C390.719 324.653 386.837 322.523 384.417 319.342C383.503 318.14 382.685 316.84 381.937 315.482C382.536 317.218 383.302 318.902 384.357 320.345C387.306 324.405 393.136 325.943 397.487 327.266C399.781 327.963 402.307 327.861 404.685 328.163C406.789 328.424 408.855 328.232 410.954 328.047ZM433.585 325.172C431.579 324.361 429.703 322.373 428.082 321.138C427.903 321.476 427.697 321.796 427.469 322.097C429.15 323.459 431.422 324.875 433.585 325.172ZM437.202 290.978C437.509 289.806 436.965 288.05 436.72 286.984C436.319 285.281 436.149 283.444 435.892 281.697C435.293 277.489 429.192 278.031 426.027 277.619C420.561 276.892 415.263 276.349 409.746 276.349C406.249 276.349 402.467 276.053 399.025 276.82C396.968 277.276 394.767 277.619 392.654 277.619C389.595 277.619 386.697 278.812 384.003 280.272C381.86 281.451 379.157 282.681 377.239 284.345C377.694 285.457 376.927 287.691 376.69 288.666C376.199 290.733 375.432 292.57 374.684 294.528C374.684 294.54 374.675 294.549 374.675 294.553C374.721 294.63 374.763 294.704 374.801 294.776C375.423 295.64 375.962 296.532 376.427 297.468C376.453 297.517 376.482 297.561 376.491 297.619C377.396 299.465 378.037 301.439 378.595 303.511C379.895 308.378 381.988 312.709 384.463 317.021C389.98 326.622 404.086 327.199 413.452 326.108C417.236 325.665 421.178 324.803 424.558 322.873C424.671 322.741 424.804 322.669 424.943 322.66C428.914 320.274 429.327 312.486 430.117 308.334C430.873 304.398 431.736 300.513 432.652 296.613C433.269 293.937 434.802 291.935 437.202 290.978ZM438.576 322.896C439.268 322.053 439.423 320.73 438.549 318.974C437.819 317.496 435.884 316.182 434.561 315.327C433.428 314.581 432.081 313.45 430.767 312.864C430.252 315.246 429.387 317.533 428.639 319.838C428.639 319.847 428.639 319.857 428.63 319.857C430.214 321.006 431.603 322.301 433.329 323.255C434.95 324.147 436.753 324.187 437.912 323.478C438.001 323.376 438.08 323.295 438.16 323.174C438.275 323.019 438.423 322.936 438.576 322.896ZM438.098 316.337C439.66 317.486 440.987 319.94 440.564 321.972C440.272 323.376 439.622 324.249 438.748 324.773C438.443 325.287 438.153 325.695 437.401 326.024C435.972 326.65 435.039 326.868 433.4 326.511C430.734 325.922 428.71 324.817 426.578 323.121C426.202 323.489 425.77 323.828 425.315 324.138C422.724 328.163 416.794 328.406 412.784 329.166C410.114 329.68 407.377 329.856 404.685 329.546C402.531 329.289 400.115 329.506 398.032 328.872C393.473 327.475 387.808 326.242 384.348 322.442C382.457 320.362 381.612 318.13 380.67 315.512C379.951 313.499 379.867 310.978 378.929 309.097C378.86 308.955 378.849 308.819 378.86 308.689C378.785 308.508 378.705 308.316 378.637 308.121C378.194 306.981 377.838 305.814 377.493 304.655C372.038 303.552 361.295 303.001 361.295 303.001C361.219 303.001 361.16 302.987 361.109 302.966C360.657 304.611 360.253 306.275 359.724 307.753C359.742 307.883 359.733 308.029 359.664 308.175C358.572 310.348 358.364 313.369 357.578 315.712C356.758 318.174 355.499 320.357 353.619 322.097C349.894 325.554 344.342 327.227 339.573 328.14C334.419 329.124 329.366 328.469 324.226 328.047C320.591 327.75 315.004 326.437 313.004 322.799C312.469 322.412 312.009 321.972 311.597 321.49C310.051 323.13 308.244 325.695 305.886 325.931C303.15 326.21 301.15 325.575 299.398 323.615C298.573 323.008 297.991 322.106 298 320.869C298 317.998 299.347 316.337 301.433 314.653C303.183 313.232 305.439 311.374 307.593 310.566C307.083 308.277 306.66 305.969 306.317 303.645C305.727 299.683 305.087 293.084 300.991 291.386C300.745 291.46 300.475 291.386 300.331 291.053C299.376 288.884 300.568 285.835 300.922 283.638C301.345 281.009 301.028 277.61 303.986 276.669C307.467 275.578 311.378 275.365 314.986 274.973C318.065 274.633 321.138 274.051 324.246 274.051C331.926 274.051 339.378 274.521 346.992 275.321C349.914 275.622 352.643 276.748 355.242 278.168C357.629 279.468 360.551 280.816 362.575 282.716C363.801 282.077 365.71 282.251 366.995 282.251C369.309 282.251 371.941 281.873 374.155 282.765C374.615 282.948 375.502 283.133 376.217 283.453C378.451 281.442 381.594 280.024 384.18 278.692C386.91 277.285 389.595 276.238 392.654 276.238C395.928 276.238 399.122 275.107 402.405 275.089C406.729 275.073 411.144 274.651 415.467 274.973C418.475 275.191 421.466 275.599 424.452 275.999C427.489 276.412 431.964 276.164 434.755 277.663C437.746 279.264 437.24 282.445 437.87 285.587C438.242 287.434 439.069 290.135 438.257 291.972C438.107 292.304 437.843 292.375 437.587 292.304C432.959 294.213 432.758 302.167 431.836 306.511C431.482 308.165 431.305 309.838 431.03 311.502C433.576 312.466 435.926 314.755 438.098 316.337Z" fill="black"/>
</g>
<path d="M425.191 287.028C425.08 286.843 424.962 286.666 424.852 286.492C424.834 286.478 424.814 286.478 424.796 286.457C420.452 281.234 411.965 281.574 405.99 281.574C400.224 281.574 394.216 281.066 388.645 282.814C387.417 283.203 386.274 283.774 385.231 284.487C387.112 283.681 389.059 283.101 390.497 282.842C395.904 281.842 402.154 282.213 407.636 282.609C410.129 282.784 412.659 283.091 415.155 283.341C416.863 283.516 419.254 283.506 420.857 284.32C422.495 285.159 424.019 285.706 425.191 287.028ZM426.921 303.401C427.441 300.749 427.689 297.846 427.475 295.016C427.466 295.007 427.45 294.998 427.45 294.979C426.701 293.168 426.232 291.262 425.246 289.544C423.596 286.687 420.554 285.282 417.439 285.077C413.445 284.818 409.367 283.907 405.352 283.886C400.182 283.867 394.779 283.373 389.748 284.55C387.324 285.117 383.567 286.398 381.507 288.321C379.912 290.789 379.099 293.802 379.433 296.939C379.75 299.924 381.795 303.124 382.708 305.976C383.614 308.815 384.354 312.045 386.064 314.504C390.011 320.162 396.146 321.502 402.457 321.565C405.804 321.6 409.535 322.043 412.816 321.287C415.04 320.77 417.085 319.892 419.242 319.204C422.136 318.302 423.604 314.152 424.442 311.6C425.335 308.908 426.382 306.191 426.921 303.401ZM425.722 285.385C429.335 290.54 429.814 298.992 427.88 304.981C426.657 308.782 425.809 312.746 423.959 316.298C423.248 317.664 421.657 319.892 420.151 320.372C417.085 321.332 414.087 322.849 410.827 322.93C406.85 323.045 402.86 323.005 398.875 322.907C393.569 322.774 387.798 319.975 384.925 315.196C382.827 311.707 382.052 307.671 380.592 303.888C379.391 300.791 378 298.377 378 294.988C378 292.686 378.642 290.526 379.708 288.594C379.699 288.433 379.735 288.277 379.848 288.13C379.992 287.946 380.149 287.759 380.317 287.585C381.972 285.086 384.371 283.082 387.032 281.896C393.166 279.16 400.711 280.19 407.204 280.19C413.102 280.19 421.024 280.272 425.432 285.145C425.536 285.189 425.643 285.261 425.722 285.385Z" fill="black"/>
<path d="M348.516 282.251C349.731 282.536 351.276 283.003 352.804 283.638C351.407 282.652 349.857 281.91 348.261 281.469C342.676 279.919 336.417 280.618 330.688 280.618C325.07 280.618 317.148 280.629 313.095 285.48C313.077 285.49 313.057 285.499 313.04 285.517C312.773 285.921 312.536 286.343 312.308 286.786C313.412 285.188 314.882 283.926 317.186 283.29C319.7 282.59 322.478 282.221 325.078 282.221C327.196 282.221 329.267 281.625 331.395 281.571C337.049 281.42 343.011 280.973 348.516 282.251ZM358.597 293.971C358.597 291.598 357.839 289.408 356.606 287.533C354.409 285.343 349.76 283.703 347.07 283.207C342.184 282.314 336.341 282.599 331.395 282.949C329.71 283.07 327.983 283.606 326.298 283.606C323.817 283.606 320.95 283.678 318.527 284.348C313.374 285.766 312.308 289.447 310.437 293.966C310.41 294.029 310.368 294.064 310.33 294.113C310.042 297.395 310.377 300.773 311.275 303.552C312.891 308.556 313.756 316.152 319.188 318.258C325.362 320.634 331.357 320.581 337.869 320.409C343.323 320.284 349.689 317.899 352.342 312.593C353.957 309.343 354.744 305.828 356.056 302.469C357.131 299.706 358.597 297.022 358.597 293.971ZM358.22 287.587C359.533 289.742 360.253 292.224 359.918 294.997C359.482 298.676 357.619 301.768 356.489 305.285C355.424 308.587 354.489 311.955 352.495 314.806C349.196 319.52 343.365 321.785 337.869 321.794C333.936 321.808 329.686 322.327 325.786 321.662C323.482 321.279 319.494 320.671 317.582 319.172C312.793 315.423 310.833 308.64 309.678 302.717C308.514 296.69 308.556 289.519 312.159 284.411C312.244 284.295 312.35 284.216 312.456 284.174C317.159 278.991 325.67 279.24 331.907 279.24C335.787 279.24 340.224 278.613 344.044 279.386C346.487 279.885 349.196 279.838 351.436 281.181C353.651 282.518 355.819 284.285 357.433 286.436C357.67 286.668 357.89 286.898 358.076 287.144C358.182 287.285 358.211 287.441 358.22 287.587Z" fill="black"/>
<mask id="mask8_4_151" style="mask-type:luminance" maskUnits="userSpaceOnUse" x="298" y="398" width="143" height="57">
<path d="M298 398H441V455H298V398Z" fill="white"/>
</mask>
<g mask="url(#mask8_4_151)">
<path d="M437.764 419.109H433.259C430.06 406.972 419.227 398 406.354 398C393.909 398 383.349 406.377 379.769 417.901C379.287 417.628 378.798 417.371 378.3 417.134C375.729 415.912 372.983 415.215 370.137 415.018C370.05 415.004 369.961 415.002 369.869 414.992C369.799 414.99 369.728 414.975 369.655 414.973C369.62 414.97 369.585 414.978 369.549 414.978C369.514 414.978 369.479 414.97 369.444 414.973C369.368 414.975 369.295 414.99 369.22 414.994C369.131 415.002 369.039 415.004 368.95 415.021C366.109 415.217 363.367 415.912 360.799 417.134C360.298 417.371 359.809 417.628 359.329 417.901C355.75 406.377 345.189 398 332.745 398C319.552 398 308.495 407.42 305.61 420.017H301.238C299.484 420.017 298.061 421.469 298.061 423.261C298.061 425.054 299.484 426.508 301.238 426.508H304.853C304.853 442.225 317.365 455.014 332.745 455.014C348.124 455.014 360.635 442.225 360.635 426.508C360.635 425.95 360.585 425.406 360.552 424.857C361.472 424.155 362.433 423.513 363.478 423.019C365.385 422.111 367.426 421.598 369.549 421.474C371.671 421.598 373.714 422.114 375.621 423.019C376.663 423.513 377.625 424.153 378.544 424.86C378.514 425.408 378.464 425.95 378.464 426.508C378.464 442.225 390.975 455.014 406.354 455.014C421.733 455.014 434.246 442.225 434.246 426.508C434.246 426.202 434.211 425.905 434.202 425.6H437.764C439.519 425.6 440.939 424.146 440.939 422.353C440.939 420.563 439.519 419.109 437.764 419.109ZM332.745 448.523C320.867 448.523 311.204 438.648 311.204 426.508C311.204 414.367 320.867 404.491 332.745 404.491C343.731 404.491 352.808 412.948 354.109 423.825C354.109 423.827 354.109 423.829 354.109 423.832C354.215 424.709 354.285 425.6 354.285 426.508C354.285 438.648 344.62 448.523 332.745 448.523ZM406.354 448.523C394.476 448.523 384.814 438.648 384.814 426.508C384.814 425.598 384.884 424.709 384.99 423.827V423.825C386.293 412.948 395.367 404.491 406.354 404.491C418.232 404.491 427.897 414.367 427.897 426.508C427.897 438.648 418.232 448.523 406.354 448.523Z" fill="black"/>
</g>
</g>
<defs>
<filter id="filter0_d_4_151" x="0" y="0" width="1161" height="842" filterUnits="userSpaceOnUse" color-interpolation-filters="sRGB">
<feFlood flood-opacity="0" result="BackgroundImageFix"/>
<feColorMatrix in="SourceAlpha" type="matrix" values="0 0 0 0 0 0 0 0 0 0 0 0 0 0 0 0 0 0 127 0" result="hardAlpha"/>
<feOffset dy="4"/>
<feGaussianBlur stdDeviation="2"/>
<feComposite in2="hardAlpha" operator="out"/>
<feColorMatrix type="matrix" values="0 0 0 0 0 0 0 0 0 0 0 0 0 0 0 0 0 0 0.25 0"/>
<feBlend mode="normal" in2="BackgroundImageFix" result="effect1_dropShadow_4_151"/>
<feBlend mode="normal" in="SourceGraphic" in2="effect1_dropShadow_4_151" result="shape"/>
</filter>
</defs>
</svg>
