<svg xmlns="http://www.w3.org/2000/svg" xmlns:xlink="http://www.w3.org/1999/xlink" width="90" zoomAndPan="magnify" viewBox="0 0 67.5 67.499996" height="90" preserveAspectRatio="xMidYMid meet" version="1.0"><defs><filter x="0%" y="0%" width="100%" height="100%" id="1dd9bb96c1"><feColorMatrix values="0 0 0 0 1 0 0 0 0 1 0 0 0 0 1 0 0 0 1 0" color-interpolation-filters="sRGB"/></filter><clipPath id="bda7559b8c"><path d="M 5.332031 8 L 61.914062 8 L 61.914062 61.382812 L 5.332031 61.382812 Z M 5.332031 8 " clip-rule="nonzero"/></clipPath><clipPath id="6f8ba3fa3e"><path d="M 5.332031 8 L 61.914062 8 L 61.914062 29 L 5.332031 29 Z M 5.332031 8 " clip-rule="nonzero"/></clipPath><clipPath id="0c4f6a6a9e"><path d="M 5.332031 7 L 61.914062 7 L 61.914062 25 L 5.332031 25 Z M 5.332031 7 " clip-rule="nonzero"/></clipPath><mask id="ee678179a7"><g filter="url(#1dd9bb96c1)"><rect x="-6.75" width="81" fill="#000000" y="-6.75" height="80.999995" fill-opacity="0.12"/></g></mask><clipPath id="147dd67cd4"><path d="M 0.332031 1 L 56.703125 1 L 56.703125 17 L 0.332031 17 Z M 0.332031 1 " clip-rule="nonzero"/></clipPath><clipPath id="a02e4ee1fa"><rect x="0" width="57" y="0" height="18"/></clipPath><clipPath id="4399c0ef53"><path d="M 9 5.542969 L 12 5.542969 L 12 14 L 9 14 Z M 9 5.542969 " clip-rule="nonzero"/></clipPath><clipPath id="6cc7ba47c4"><path d="M 16 5.542969 L 19 5.542969 L 19 14 L 16 14 Z M 16 5.542969 " clip-rule="nonzero"/></clipPath><clipPath id="e7267e432e"><path d="M 22 5.542969 L 25 5.542969 L 25 14 L 22 14 Z M 22 5.542969 " clip-rule="nonzero"/></clipPath><clipPath id="1505d59fd6"><path d="M 29 5.542969 L 32 5.542969 L 32 14 L 29 14 Z M 29 5.542969 " clip-rule="nonzero"/></clipPath><clipPath id="a3a4fbde63"><path d="M 35 5.542969 L 38 5.542969 L 38 14 L 35 14 Z M 35 5.542969 " clip-rule="nonzero"/></clipPath><clipPath id="44c712930b"><path d="M 42 5.542969 L 45 5.542969 L 45 14 L 42 14 Z M 42 5.542969 " clip-rule="nonzero"/></clipPath><clipPath id="91544c486c"><path d="M 48 5.542969 L 51 5.542969 L 51 14 L 48 14 Z M 48 5.542969 " clip-rule="nonzero"/></clipPath><clipPath id="ea49c56d97"><path d="M 55 5.542969 L 58 5.542969 L 58 14 L 55 14 Z M 55 5.542969 " clip-rule="nonzero"/></clipPath></defs><g clip-path="url(#bda7559b8c)"><path fill="#f0f2f8" d="M 59.316406 8.132812 L 7.683594 8.132812 C 6.394531 8.132812 5.351562 9.152344 5.351562 10.410156 L 5.351562 59.1875 C 5.351562 60.445312 6.394531 61.464844 7.683594 61.464844 L 59.316406 61.464844 C 60.605469 61.464844 61.648438 60.445312 61.648438 59.1875 L 61.648438 10.410156 C 61.652344 9.152344 60.605469 8.132812 59.316406 8.132812 Z M 59.316406 8.132812 " fill-opacity="1" fill-rule="nonzero"/></g><g clip-path="url(#6f8ba3fa3e)"><path fill="#3884c3" d="M 59.316406 8.132812 L 7.683594 8.132812 C 6.394531 8.132812 5.351562 9.152344 5.351562 10.410156 L 5.351562 28.640625 L 61.652344 28.640625 L 61.652344 10.410156 C 61.652344 9.152344 60.605469 8.132812 59.316406 8.132812 Z M 59.316406 8.132812 " fill-opacity="1" fill-rule="nonzero"/></g><g clip-path="url(#0c4f6a6a9e)"><g mask="url(#ee678179a7)"><g transform="matrix(1, 0, 0, 1, 5, 7)"><g clip-path="url(#a02e4ee1fa)"><g clip-path="url(#147dd67cd4)"><path fill="#ffffff" d="M 54.316406 1.132812 L 2.683594 1.132812 C 1.394531 1.132812 0.351562 2.152344 0.351562 3.410156 L 0.351562 16.609375 L 56.652344 16.609375 L 56.652344 3.410156 C 56.652344 2.152344 55.605469 1.132812 54.316406 1.132812 Z M 54.316406 1.132812 " fill-opacity="1" fill-rule="nonzero"/></g></g></g></g></g><path fill="#ffffff" d="M 12.167969 12.277344 C 12.167969 12.484375 12.128906 12.683594 12.046875 12.878906 C 11.964844 13.070312 11.851562 13.238281 11.699219 13.382812 C 11.550781 13.53125 11.375 13.644531 11.179688 13.722656 C 10.980469 13.804688 10.777344 13.84375 10.566406 13.84375 C 10.351562 13.84375 10.148438 13.804688 9.949219 13.722656 C 9.753906 13.644531 9.582031 13.53125 9.429688 13.382812 C 9.28125 13.238281 9.164062 13.070312 9.082031 12.878906 C 9 12.683594 8.960938 12.484375 8.960938 12.277344 C 8.960938 12.070312 9 11.871094 9.082031 11.679688 C 9.164062 11.488281 9.28125 11.316406 9.429688 11.171875 C 9.582031 11.023438 9.753906 10.910156 9.949219 10.832031 C 10.148438 10.753906 10.351562 10.710938 10.566406 10.710938 C 10.777344 10.710938 10.980469 10.753906 11.179688 10.832031 C 11.375 10.910156 11.550781 11.023438 11.699219 11.171875 C 11.851562 11.316406 11.964844 11.488281 12.046875 11.679688 C 12.128906 11.871094 12.167969 12.070312 12.167969 12.277344 Z M 12.167969 12.277344 " fill-opacity="1" fill-rule="nonzero"/><path fill="#ffffff" d="M 18.722656 12.277344 C 18.722656 12.484375 18.683594 12.683594 18.601562 12.878906 C 18.519531 13.070312 18.402344 13.238281 18.253906 13.382812 C 18.101562 13.53125 17.929688 13.644531 17.730469 13.722656 C 17.535156 13.804688 17.332031 13.84375 17.117188 13.84375 C 16.90625 13.84375 16.699219 13.804688 16.503906 13.722656 C 16.308594 13.644531 16.132812 13.53125 15.984375 13.382812 C 15.832031 13.238281 15.71875 13.070312 15.636719 12.878906 C 15.554688 12.683594 15.511719 12.484375 15.511719 12.277344 C 15.511719 12.070312 15.554688 11.871094 15.636719 11.679688 C 15.71875 11.488281 15.832031 11.316406 15.984375 11.171875 C 16.132812 11.023438 16.308594 10.910156 16.503906 10.832031 C 16.699219 10.753906 16.90625 10.710938 17.117188 10.710938 C 17.332031 10.710938 17.535156 10.753906 17.730469 10.832031 C 17.929688 10.910156 18.101562 11.023438 18.253906 11.171875 C 18.402344 11.316406 18.519531 11.488281 18.601562 11.679688 C 18.683594 11.871094 18.722656 12.070312 18.722656 12.277344 Z M 18.722656 12.277344 " fill-opacity="1" fill-rule="nonzero"/><path fill="#ffffff" d="M 25.277344 12.277344 C 25.277344 12.484375 25.234375 12.683594 25.152344 12.878906 C 25.074219 13.070312 24.957031 13.238281 24.804688 13.382812 C 24.65625 13.53125 24.480469 13.644531 24.285156 13.722656 C 24.089844 13.804688 23.882812 13.84375 23.671875 13.84375 C 23.457031 13.84375 23.253906 13.804688 23.058594 13.722656 C 22.859375 13.644531 22.6875 13.53125 22.535156 13.382812 C 22.386719 13.238281 22.269531 13.070312 22.1875 12.878906 C 22.109375 12.683594 22.066406 12.484375 22.066406 12.277344 C 22.066406 12.070312 22.109375 11.871094 22.1875 11.679688 C 22.269531 11.488281 22.386719 11.316406 22.535156 11.171875 C 22.6875 11.023438 22.859375 10.910156 23.058594 10.832031 C 23.253906 10.753906 23.457031 10.710938 23.671875 10.710938 C 23.882812 10.710938 24.089844 10.753906 24.285156 10.832031 C 24.480469 10.910156 24.65625 11.023438 24.804688 11.171875 C 24.957031 11.316406 25.074219 11.488281 25.152344 11.679688 C 25.234375 11.871094 25.277344 12.070312 25.277344 12.277344 Z M 25.277344 12.277344 " fill-opacity="1" fill-rule="nonzero"/><path fill="#ffffff" d="M 31.828125 12.277344 C 31.828125 12.484375 31.789062 12.683594 31.707031 12.878906 C 31.625 13.070312 31.511719 13.238281 31.359375 13.382812 C 31.210938 13.53125 31.035156 13.644531 30.839844 13.722656 C 30.640625 13.804688 30.4375 13.84375 30.226562 13.84375 C 30.011719 13.84375 29.808594 13.804688 29.609375 13.722656 C 29.414062 13.644531 29.242188 13.53125 29.089844 13.382812 C 28.941406 13.238281 28.824219 13.070312 28.742188 12.878906 C 28.660156 12.683594 28.621094 12.484375 28.621094 12.277344 C 28.621094 12.070312 28.660156 11.871094 28.742188 11.679688 C 28.824219 11.488281 28.941406 11.316406 29.089844 11.171875 C 29.242188 11.023438 29.414062 10.910156 29.609375 10.832031 C 29.808594 10.753906 30.011719 10.710938 30.226562 10.710938 C 30.4375 10.710938 30.640625 10.753906 30.839844 10.832031 C 31.035156 10.910156 31.210938 11.023438 31.359375 11.171875 C 31.511719 11.316406 31.625 11.488281 31.707031 11.679688 C 31.789062 11.871094 31.828125 12.070312 31.828125 12.277344 Z M 31.828125 12.277344 " fill-opacity="1" fill-rule="nonzero"/><path fill="#ffffff" d="M 38.382812 12.277344 C 38.382812 12.484375 38.34375 12.683594 38.261719 12.878906 C 38.179688 13.070312 38.0625 13.238281 37.914062 13.382812 C 37.761719 13.53125 37.589844 13.644531 37.390625 13.722656 C 37.195312 13.804688 36.992188 13.84375 36.777344 13.84375 C 36.566406 13.84375 36.359375 13.804688 36.164062 13.722656 C 35.96875 13.644531 35.792969 13.53125 35.644531 13.382812 C 35.492188 13.238281 35.378906 13.070312 35.296875 12.878906 C 35.214844 12.683594 35.171875 12.484375 35.171875 12.277344 C 35.171875 12.070312 35.214844 11.871094 35.296875 11.679688 C 35.378906 11.488281 35.492188 11.316406 35.644531 11.171875 C 35.792969 11.023438 35.96875 10.910156 36.164062 10.832031 C 36.359375 10.753906 36.566406 10.710938 36.777344 10.710938 C 36.992188 10.710938 37.195312 10.753906 37.390625 10.832031 C 37.589844 10.910156 37.761719 11.023438 37.914062 11.171875 C 38.0625 11.316406 38.179688 11.488281 38.261719 11.679688 C 38.34375 11.871094 38.382812 12.070312 38.382812 12.277344 Z M 38.382812 12.277344 " fill-opacity="1" fill-rule="nonzero"/><path fill="#ffffff" d="M 44.9375 12.277344 C 44.9375 12.484375 44.894531 12.683594 44.8125 12.878906 C 44.734375 13.070312 44.617188 13.238281 44.464844 13.382812 C 44.316406 13.53125 44.140625 13.644531 43.945312 13.722656 C 43.75 13.804688 43.542969 13.84375 43.332031 13.84375 C 43.117188 13.84375 42.914062 13.804688 42.71875 13.722656 C 42.519531 13.644531 42.347656 13.53125 42.195312 13.382812 C 42.046875 13.238281 41.929688 13.070312 41.847656 12.878906 C 41.769531 12.683594 41.726562 12.484375 41.726562 12.277344 C 41.726562 12.070312 41.769531 11.871094 41.847656 11.679688 C 41.929688 11.488281 42.046875 11.316406 42.195312 11.171875 C 42.347656 11.023438 42.519531 10.910156 42.71875 10.832031 C 42.914062 10.753906 43.117188 10.710938 43.332031 10.710938 C 43.542969 10.710938 43.75 10.753906 43.945312 10.832031 C 44.140625 10.910156 44.316406 11.023438 44.464844 11.171875 C 44.617188 11.316406 44.734375 11.488281 44.8125 11.679688 C 44.894531 11.871094 44.9375 12.070312 44.9375 12.277344 Z M 44.9375 12.277344 " fill-opacity="1" fill-rule="nonzero"/><path fill="#ffffff" d="M 51.488281 12.277344 C 51.488281 12.484375 51.449219 12.683594 51.367188 12.878906 C 51.285156 13.070312 51.171875 13.238281 51.019531 13.382812 C 50.867188 13.53125 50.695312 13.644531 50.5 13.722656 C 50.300781 13.804688 50.097656 13.84375 49.886719 13.84375 C 49.671875 13.84375 49.46875 13.804688 49.269531 13.722656 C 49.074219 13.644531 48.902344 13.53125 48.75 13.382812 C 48.601562 13.238281 48.484375 13.070312 48.402344 12.878906 C 48.320312 12.683594 48.28125 12.484375 48.28125 12.277344 C 48.28125 12.070312 48.320312 11.871094 48.402344 11.679688 C 48.484375 11.488281 48.601562 11.316406 48.75 11.171875 C 48.902344 11.023438 49.074219 10.910156 49.269531 10.832031 C 49.46875 10.753906 49.671875 10.710938 49.886719 10.710938 C 50.097656 10.710938 50.300781 10.753906 50.5 10.832031 C 50.695312 10.910156 50.867188 11.023438 51.019531 11.171875 C 51.171875 11.316406 51.285156 11.488281 51.367188 11.679688 C 51.449219 11.871094 51.488281 12.070312 51.488281 12.277344 Z M 51.488281 12.277344 " fill-opacity="1" fill-rule="nonzero"/><path fill="#ffffff" d="M 58.042969 12.277344 C 58.042969 12.484375 58.003906 12.683594 57.921875 12.878906 C 57.839844 13.070312 57.722656 13.238281 57.574219 13.382812 C 57.421875 13.53125 57.25 13.644531 57.050781 13.722656 C 56.855469 13.804688 56.652344 13.84375 56.4375 13.84375 C 56.226562 13.84375 56.019531 13.804688 55.824219 13.722656 C 55.628906 13.644531 55.453125 13.53125 55.304688 13.382812 C 55.152344 13.238281 55.039062 13.070312 54.957031 12.878906 C 54.875 12.683594 54.832031 12.484375 54.832031 12.277344 C 54.832031 12.070312 54.875 11.871094 54.957031 11.679688 C 55.039062 11.488281 55.152344 11.316406 55.304688 11.171875 C 55.453125 11.023438 55.628906 10.910156 55.824219 10.832031 C 56.019531 10.753906 56.226562 10.710938 56.4375 10.710938 C 56.652344 10.710938 56.855469 10.753906 57.050781 10.832031 C 57.25 10.910156 57.421875 11.023438 57.574219 11.171875 C 57.722656 11.316406 57.839844 11.488281 57.921875 11.679688 C 58.003906 11.871094 58.042969 12.070312 58.042969 12.277344 Z M 58.042969 12.277344 " fill-opacity="1" fill-rule="nonzero"/><g clip-path="url(#4399c0ef53)"><path fill="#435a7f" d="M 10.566406 5.542969 C 9.957031 5.542969 9.460938 6.027344 9.460938 6.621094 L 9.460938 12.160156 C 9.460938 12.753906 9.953125 13.234375 10.566406 13.234375 C 11.171875 13.234375 11.667969 12.753906 11.667969 12.160156 L 11.667969 6.621094 C 11.667969 6.027344 11.171875 5.542969 10.566406 5.542969 Z M 10.566406 5.542969 " fill-opacity="1" fill-rule="nonzero"/></g><g clip-path="url(#6cc7ba47c4)"><path fill="#435a7f" d="M 17.117188 5.542969 C 16.511719 5.542969 16.015625 6.027344 16.015625 6.621094 L 16.015625 12.160156 C 16.015625 12.753906 16.507812 13.234375 17.117188 13.234375 C 17.726562 13.234375 18.222656 12.753906 18.222656 12.160156 L 18.222656 6.621094 C 18.222656 6.027344 17.726562 5.542969 17.117188 5.542969 Z M 17.117188 5.542969 " fill-opacity="1" fill-rule="nonzero"/></g><g clip-path="url(#e7267e432e)"><path fill="#435a7f" d="M 23.671875 5.542969 C 23.0625 5.542969 22.566406 6.027344 22.566406 6.621094 L 22.566406 12.160156 C 22.566406 12.753906 23.0625 13.234375 23.671875 13.234375 C 24.28125 13.234375 24.773438 12.753906 24.773438 12.160156 L 24.773438 6.621094 C 24.773438 6.027344 24.28125 5.542969 23.671875 5.542969 Z M 23.671875 5.542969 " fill-opacity="1" fill-rule="nonzero"/></g><g clip-path="url(#1505d59fd6)"><path fill="#435a7f" d="M 30.226562 5.542969 C 29.617188 5.542969 29.121094 6.027344 29.121094 6.621094 L 29.121094 12.160156 C 29.121094 12.753906 29.613281 13.234375 30.226562 13.234375 C 30.832031 13.234375 31.328125 12.753906 31.328125 12.160156 L 31.328125 6.621094 C 31.328125 6.027344 30.832031 5.542969 30.226562 5.542969 Z M 30.226562 5.542969 " fill-opacity="1" fill-rule="nonzero"/></g><g clip-path="url(#a3a4fbde63)"><path fill="#435a7f" d="M 36.777344 5.542969 C 36.171875 5.542969 35.675781 6.027344 35.675781 6.621094 L 35.675781 12.160156 C 35.675781 12.753906 36.167969 13.234375 36.777344 13.234375 C 37.386719 13.234375 37.882812 12.753906 37.882812 12.160156 L 37.882812 6.621094 C 37.882812 6.027344 37.386719 5.542969 36.777344 5.542969 Z M 36.777344 5.542969 " fill-opacity="1" fill-rule="nonzero"/></g><g clip-path="url(#44c712930b)"><path fill="#435a7f" d="M 43.332031 5.542969 C 42.722656 5.542969 42.226562 6.027344 42.226562 6.621094 L 42.226562 12.160156 C 42.226562 12.753906 42.722656 13.234375 43.332031 13.234375 C 43.941406 13.234375 44.433594 12.753906 44.433594 12.160156 L 44.433594 6.621094 C 44.433594 6.027344 43.941406 5.542969 43.332031 5.542969 Z M 43.332031 5.542969 " fill-opacity="1" fill-rule="nonzero"/></g><g clip-path="url(#91544c486c)"><path fill="#435a7f" d="M 49.886719 5.542969 C 49.277344 5.542969 48.78125 6.027344 48.78125 6.621094 L 48.78125 12.160156 C 48.78125 12.753906 49.273438 13.234375 49.886719 13.234375 C 50.492188 13.234375 50.988281 12.753906 50.988281 12.160156 L 50.988281 6.621094 C 50.988281 6.027344 50.496094 5.542969 49.886719 5.542969 Z M 49.886719 5.542969 " fill-opacity="1" fill-rule="nonzero"/></g><g clip-path="url(#ea49c56d97)"><path fill="#435a7f" d="M 56.4375 5.542969 C 55.832031 5.542969 55.335938 6.027344 55.335938 6.621094 L 55.335938 12.160156 C 55.335938 12.753906 55.828125 13.234375 56.4375 13.234375 C 57.046875 13.234375 57.542969 12.753906 57.542969 12.160156 L 57.542969 6.621094 C 57.542969 6.027344 57.050781 5.542969 56.4375 5.542969 Z M 56.4375 5.542969 " fill-opacity="1" fill-rule="nonzero"/></g><path fill="#ffffff" d="M 10.496094 17 L 11.144531 17 L 11.144531 19.4375 C 11.144531 19.832031 11.105469 20.125 11.023438 20.316406 C 10.941406 20.507812 10.820312 20.660156 10.660156 20.761719 C 10.5 20.867188 10.304688 20.917969 10.066406 20.917969 C 9.757812 20.917969 9.511719 20.8125 9.335938 20.605469 C 9.164062 20.398438 9.074219 20.082031 9.070312 19.660156 L 9.6875 19.578125 C 9.695312 19.800781 9.722656 19.964844 9.777344 20.058594 C 9.847656 20.1875 9.949219 20.253906 10.09375 20.253906 C 10.230469 20.253906 10.328125 20.207031 10.394531 20.113281 C 10.457031 20.019531 10.492188 19.8125 10.492188 19.488281 L 10.492188 17 Z M 10.496094 17 " fill-opacity="1" fill-rule="nonzero"/><path fill="#ffffff" d="M 14.757812 20.851562 L 14.050781 20.851562 L 13.765625 19.980469 L 12.46875 19.980469 L 12.203125 20.851562 L 11.507812 20.851562 L 12.769531 17.003906 L 13.460938 17.003906 Z M 13.558594 19.328125 L 13.109375 17.902344 L 12.671875 19.328125 Z M 13.558594 19.328125 " fill-opacity="1" fill-rule="nonzero"/><path fill="#ffffff" d="M 15.109375 20.851562 L 15.109375 17 L 15.746094 17 L 17.066406 19.570312 L 17.066406 17 L 17.675781 17 L 17.675781 20.851562 L 17.019531 20.851562 L 15.714844 18.339844 L 15.714844 20.851562 Z M 15.109375 20.851562 " fill-opacity="1" fill-rule="nonzero"/><path fill="#ffffff" d="M 18.355469 17 L 19.007812 17 L 19.007812 19.085938 C 19.007812 19.410156 19.015625 19.621094 19.03125 19.722656 C 19.058594 19.890625 19.132812 20.023438 19.238281 20.113281 C 19.347656 20.207031 19.492188 20.253906 19.667969 20.253906 C 19.820312 20.253906 19.941406 20.21875 20.039062 20.15625 C 20.132812 20.089844 20.199219 19.996094 20.230469 19.882812 C 20.265625 19.765625 20.285156 19.515625 20.285156 19.132812 L 20.285156 17 L 20.933594 17 L 20.933594 19.023438 C 20.933594 19.539062 20.90625 19.914062 20.851562 20.144531 C 20.792969 20.375 20.667969 20.558594 20.46875 20.703125 C 20.269531 20.847656 20.007812 20.917969 19.683594 20.917969 C 19.34375 20.917969 19.082031 20.859375 18.890625 20.738281 C 18.703125 20.621094 18.566406 20.457031 18.480469 20.242188 C 18.394531 20.027344 18.355469 19.628906 18.355469 19.054688 Z M 18.355469 17 " fill-opacity="1" fill-rule="nonzero"/><path fill="#ffffff" d="M 24.542969 20.851562 L 23.835938 20.851562 L 23.550781 19.980469 L 22.253906 19.980469 L 21.988281 20.851562 L 21.292969 20.851562 L 22.554688 17.003906 L 23.246094 17.003906 Z M 23.34375 19.328125 L 22.894531 17.902344 L 22.457031 19.328125 Z M 23.34375 19.328125 " fill-opacity="1" fill-rule="nonzero"/><path fill="#ffffff" d="M 24.886719 20.851562 L 24.886719 17 L 26.265625 17 C 26.617188 17 26.867188 17.035156 27.019531 17.105469 C 27.171875 17.175781 27.292969 17.292969 27.390625 17.464844 C 27.484375 17.636719 27.535156 17.839844 27.535156 18.078125 C 27.535156 18.382812 27.464844 18.625 27.3125 18.804688 C 27.164062 18.988281 26.957031 19.105469 26.683594 19.152344 C 26.824219 19.25 26.941406 19.359375 27.03125 19.472656 C 27.121094 19.589844 27.246094 19.800781 27.402344 20.097656 L 27.796875 20.851562 L 27.019531 20.851562 L 26.546875 20.011719 C 26.375 19.707031 26.261719 19.519531 26.199219 19.441406 C 26.136719 19.367188 26.074219 19.3125 26.003906 19.285156 C 25.9375 19.257812 25.828125 19.242188 25.675781 19.242188 L 25.539062 19.242188 L 25.539062 20.851562 Z M 25.539062 18.632812 L 26.023438 18.632812 C 26.316406 18.632812 26.507812 18.617188 26.585938 18.59375 C 26.667969 18.566406 26.734375 18.515625 26.785156 18.4375 C 26.835938 18.359375 26.859375 18.257812 26.859375 18.128906 C 26.859375 18.007812 26.835938 17.910156 26.785156 17.835938 C 26.734375 17.761719 26.667969 17.707031 26.578125 17.679688 C 26.515625 17.660156 26.34375 17.652344 26.050781 17.652344 L 25.539062 17.652344 Z M 25.539062 18.632812 " fill-opacity="1" fill-rule="nonzero"/><path fill="#ffffff" d="M 28.835938 20.851562 L 28.835938 19.230469 L 27.648438 17 L 28.414062 17 L 29.175781 18.523438 L 29.921875 17 L 30.675781 17 L 29.484375 19.238281 L 29.484375 20.851562 Z M 28.835938 20.851562 " fill-opacity="1" fill-rule="nonzero"/><path fill="#ffffff" d="M 47.550781 20.886719 L 47.550781 20.847656 C 47.558594 20.1875 47.84375 19.726562 48.445312 19.066406 C 48.898438 18.5625 49.007812 18.417969 49.007812 18.027344 C 49.007812 17.738281 48.945312 17.535156 48.652344 17.535156 C 48.347656 17.535156 48.269531 17.78125 48.253906 18.167969 L 47.5625 18.167969 C 47.566406 17.558594 47.835938 16.976562 48.675781 16.976562 C 49.441406 16.976562 49.746094 17.414062 49.746094 18.050781 C 49.746094 18.507812 49.625 18.757812 49.117188 19.285156 C 48.746094 19.667969 48.464844 20.011719 48.382812 20.28125 L 49.847656 20.28125 L 49.753906 20.878906 L 47.550781 20.878906 Z M 47.550781 20.886719 " fill-opacity="1" fill-rule="nonzero"/><path fill="#ffffff" d="M 52.457031 18.921875 C 52.457031 20.40625 52.117188 20.941406 51.296875 20.941406 C 50.484375 20.941406 50.144531 20.378906 50.144531 18.921875 C 50.144531 17.359375 50.628906 16.980469 51.316406 16.980469 C 52.042969 16.980469 52.457031 17.410156 52.457031 18.921875 Z M 50.863281 18.894531 C 50.863281 19.863281 50.910156 20.359375 51.304688 20.359375 C 51.691406 20.359375 51.738281 19.882812 51.738281 18.90625 C 51.738281 17.898438 51.679688 17.566406 51.304688 17.566406 C 50.953125 17.566406 50.863281 17.945312 50.863281 18.894531 Z M 50.863281 18.894531 " fill-opacity="1" fill-rule="nonzero"/><path fill="#ffffff" d="M 52.84375 20.886719 L 52.84375 20.847656 C 52.847656 20.1875 53.136719 19.726562 53.734375 19.066406 C 54.191406 18.5625 54.300781 18.417969 54.300781 18.027344 C 54.300781 17.738281 54.238281 17.535156 53.945312 17.535156 C 53.640625 17.535156 53.5625 17.78125 53.546875 18.167969 L 52.855469 18.167969 C 52.859375 17.558594 53.128906 16.976562 53.964844 16.976562 C 54.730469 16.976562 55.035156 17.414062 55.035156 18.050781 C 55.035156 18.507812 54.917969 18.757812 54.410156 19.285156 C 54.039062 19.667969 53.757812 20.011719 53.675781 20.28125 L 55.140625 20.28125 L 55.042969 20.878906 L 52.84375 20.878906 Z M 52.84375 20.886719 " fill-opacity="1" fill-rule="nonzero"/><path fill="#ffffff" d="M 56.910156 20.886719 L 56.910156 19.96875 L 55.515625 19.96875 L 55.515625 19.394531 L 56.65625 17.027344 L 57.574219 17.027344 L 57.574219 19.398438 L 57.933594 19.398438 L 57.871094 19.972656 L 57.574219 19.972656 L 57.574219 20.890625 L 56.910156 20.890625 Z M 56.910156 18.605469 C 56.910156 18.191406 56.921875 17.882812 56.933594 17.558594 C 56.800781 17.972656 56.414062 18.851562 56.175781 19.398438 L 56.910156 19.398438 Z M 56.910156 18.605469 " fill-opacity="1" fill-rule="nonzero"/><path fill="#ffffff" d="M 9.664062 26.558594 L 9.992188 26.519531 C 10.03125 26.773438 10.152344 26.902344 10.359375 26.902344 C 10.460938 26.902344 10.542969 26.875 10.601562 26.824219 C 10.660156 26.769531 10.6875 26.703125 10.6875 26.628906 C 10.6875 26.582031 10.675781 26.542969 10.65625 26.511719 C 10.636719 26.484375 10.605469 26.453125 10.566406 26.433594 C 10.523438 26.414062 10.421875 26.382812 10.261719 26.332031 C 10.117188 26.292969 10.011719 26.242188 9.941406 26.195312 C 9.875 26.144531 9.820312 26.078125 9.78125 26 C 9.742188 25.917969 9.722656 25.828125 9.722656 25.738281 C 9.722656 25.625 9.75 25.53125 9.800781 25.445312 C 9.851562 25.355469 9.921875 25.292969 10.011719 25.246094 C 10.101562 25.203125 10.210938 25.179688 10.339844 25.179688 C 10.535156 25.179688 10.691406 25.234375 10.800781 25.335938 C 10.910156 25.441406 10.96875 25.589844 10.976562 25.785156 L 10.636719 25.800781 C 10.625 25.695312 10.589844 25.617188 10.542969 25.574219 C 10.492188 25.535156 10.425781 25.511719 10.332031 25.511719 C 10.238281 25.511719 10.171875 25.53125 10.121094 25.566406 C 10.070312 25.605469 10.046875 25.652344 10.046875 25.707031 C 10.046875 25.757812 10.070312 25.808594 10.113281 25.84375 C 10.160156 25.878906 10.261719 25.921875 10.425781 25.964844 C 10.59375 26.011719 10.71875 26.0625 10.792969 26.117188 C 10.867188 26.171875 10.925781 26.238281 10.96875 26.320312 C 11.007812 26.40625 11.027344 26.507812 11.027344 26.628906 C 11.027344 26.800781 10.972656 26.945312 10.863281 27.066406 C 10.753906 27.183594 10.582031 27.242188 10.351562 27.242188 C 9.941406 27.242188 9.710938 27.015625 9.664062 26.558594 Z M 9.664062 26.558594 " fill-opacity="1" fill-rule="nonzero"/><path fill="#ffffff" d="M 11.308594 25.214844 L 11.644531 25.214844 L 11.644531 26.292969 C 11.644531 26.460938 11.648438 26.570312 11.65625 26.625 C 11.671875 26.710938 11.707031 26.777344 11.765625 26.828125 C 11.820312 26.875 11.894531 26.902344 11.988281 26.902344 C 12.066406 26.902344 12.128906 26.886719 12.179688 26.851562 C 12.226562 26.816406 12.261719 26.769531 12.277344 26.710938 C 12.296875 26.652344 12.308594 26.523438 12.308594 26.320312 L 12.308594 25.21875 L 12.644531 25.21875 L 12.644531 26.265625 C 12.644531 26.535156 12.632812 26.726562 12.601562 26.847656 C 12.570312 26.964844 12.503906 27.0625 12.402344 27.136719 C 12.300781 27.207031 12.164062 27.246094 11.996094 27.246094 C 11.824219 27.246094 11.683594 27.214844 11.589844 27.152344 C 11.492188 27.089844 11.421875 27.007812 11.375 26.894531 C 11.332031 26.785156 11.308594 26.578125 11.308594 26.28125 Z M 11.308594 25.214844 " fill-opacity="1" fill-rule="nonzero"/><path fill="#ffffff" d="M 13.007812 27.207031 L 13.007812 25.214844 L 13.335938 25.214844 L 14.023438 26.542969 L 14.023438 25.214844 L 14.339844 25.214844 L 14.339844 27.207031 L 14 27.207031 L 13.324219 25.910156 L 13.324219 27.207031 Z M 13.007812 27.207031 " fill-opacity="1" fill-rule="nonzero"/><path fill="#ffffff" d="M 16.367188 27.207031 L 16.367188 25.214844 L 16.875 25.214844 L 17.175781 26.574219 L 17.476562 25.214844 L 17.988281 25.214844 L 17.988281 27.207031 L 17.671875 27.207031 L 17.671875 25.636719 L 17.335938 27.207031 L 17.011719 27.207031 L 16.679688 25.636719 L 16.679688 27.207031 Z M 16.367188 27.207031 " fill-opacity="1" fill-rule="nonzero"/><path fill="#ffffff" d="M 18.253906 26.222656 C 18.253906 25.988281 18.292969 25.789062 18.363281 25.636719 C 18.4375 25.480469 18.527344 25.367188 18.644531 25.292969 C 18.757812 25.214844 18.898438 25.179688 19.066406 25.179688 C 19.304688 25.179688 19.503906 25.269531 19.652344 25.445312 C 19.804688 25.625 19.878906 25.878906 19.878906 26.210938 C 19.878906 26.542969 19.800781 26.804688 19.640625 26.992188 C 19.5 27.15625 19.308594 27.238281 19.070312 27.238281 C 18.828125 27.238281 18.636719 27.15625 18.496094 26.992188 C 18.335938 26.808594 18.253906 26.550781 18.253906 26.222656 Z M 18.605469 26.210938 C 18.605469 26.441406 18.648438 26.613281 18.738281 26.726562 C 18.828125 26.84375 18.941406 26.898438 19.070312 26.898438 C 19.203125 26.898438 19.316406 26.84375 19.402344 26.726562 C 19.492188 26.613281 19.535156 26.4375 19.535156 26.203125 C 19.535156 25.972656 19.492188 25.800781 19.410156 25.691406 C 19.324219 25.582031 19.210938 25.527344 19.074219 25.527344 C 18.9375 25.527344 18.824219 25.582031 18.738281 25.691406 C 18.648438 25.804688 18.605469 25.976562 18.605469 26.210938 Z M 18.605469 26.210938 " fill-opacity="1" fill-rule="nonzero"/><path fill="#ffffff" d="M 20.148438 27.207031 L 20.148438 25.214844 L 20.480469 25.214844 L 21.167969 26.542969 L 21.167969 25.214844 L 21.480469 25.214844 L 21.480469 27.207031 L 21.140625 27.207031 L 20.464844 25.910156 L 20.464844 27.207031 Z M 20.148438 27.207031 " fill-opacity="1" fill-rule="nonzero"/><path fill="#ffffff" d="M 24.671875 27.207031 L 24.671875 25.550781 L 24.175781 25.550781 L 24.175781 25.214844 L 25.507812 25.214844 L 25.507812 25.550781 L 25.011719 25.550781 L 25.011719 27.207031 Z M 24.671875 27.207031 " fill-opacity="1" fill-rule="nonzero"/><path fill="#ffffff" d="M 25.726562 25.214844 L 26.0625 25.214844 L 26.0625 26.292969 C 26.0625 26.460938 26.066406 26.570312 26.074219 26.625 C 26.089844 26.710938 26.125 26.777344 26.183594 26.828125 C 26.238281 26.875 26.3125 26.902344 26.40625 26.902344 C 26.484375 26.902344 26.546875 26.886719 26.597656 26.851562 C 26.648438 26.816406 26.679688 26.769531 26.699219 26.710938 C 26.714844 26.652344 26.726562 26.523438 26.726562 26.320312 L 26.726562 25.21875 L 27.0625 25.21875 L 27.0625 26.265625 C 27.0625 26.535156 27.050781 26.726562 27.019531 26.847656 C 26.992188 26.964844 26.921875 27.0625 26.820312 27.136719 C 26.71875 27.207031 26.582031 27.246094 26.417969 27.246094 C 26.242188 27.246094 26.105469 27.214844 26.007812 27.152344 C 25.910156 27.089844 25.839844 27.007812 25.792969 26.894531 C 25.75 26.785156 25.726562 26.578125 25.726562 26.28125 Z M 25.726562 25.214844 " fill-opacity="1" fill-rule="nonzero"/><path fill="#ffffff" d="M 27.421875 27.207031 L 27.421875 25.214844 L 28.664062 25.214844 L 28.664062 25.550781 L 27.757812 25.550781 L 27.757812 25.992188 L 28.601562 25.992188 L 28.601562 26.328125 L 27.757812 26.328125 L 27.757812 26.867188 L 28.695312 26.867188 L 28.695312 27.207031 Z M 27.421875 27.207031 " fill-opacity="1" fill-rule="nonzero"/><path fill="#ffffff" d="M 30.902344 27.207031 L 30.496094 25.214844 L 30.84375 25.214844 L 31.09375 26.582031 L 31.402344 25.214844 L 31.804688 25.214844 L 32.101562 26.605469 L 32.359375 25.214844 L 32.699219 25.214844 L 32.292969 27.207031 L 31.929688 27.207031 L 31.597656 25.71875 L 31.261719 27.207031 Z M 30.902344 27.207031 " fill-opacity="1" fill-rule="nonzero"/><path fill="#ffffff" d="M 32.875 27.207031 L 32.875 25.214844 L 34.117188 25.214844 L 34.117188 25.550781 L 33.210938 25.550781 L 33.210938 25.992188 L 34.054688 25.992188 L 34.054688 26.328125 L 33.210938 26.328125 L 33.210938 26.867188 L 34.148438 26.867188 L 34.148438 27.207031 Z M 32.875 27.207031 " fill-opacity="1" fill-rule="nonzero"/><path fill="#ffffff" d="M 34.433594 25.214844 L 35.050781 25.214844 C 35.203125 25.214844 35.324219 25.230469 35.40625 25.265625 C 35.484375 25.296875 35.554688 25.355469 35.625 25.433594 C 35.691406 25.515625 35.742188 25.621094 35.78125 25.75 C 35.820312 25.878906 35.839844 26.039062 35.839844 26.230469 C 35.839844 26.402344 35.816406 26.554688 35.777344 26.683594 C 35.738281 26.808594 35.6875 26.910156 35.625 26.988281 C 35.566406 27.058594 35.492188 27.117188 35.40625 27.15625 C 35.316406 27.191406 35.203125 27.210938 35.070312 27.210938 L 34.433594 27.210938 Z M 34.769531 25.550781 L 34.769531 26.871094 L 35.023438 26.871094 C 35.132812 26.871094 35.214844 26.859375 35.261719 26.839844 C 35.308594 26.820312 35.351562 26.789062 35.382812 26.75 C 35.414062 26.710938 35.4375 26.644531 35.460938 26.558594 C 35.480469 26.472656 35.492188 26.355469 35.492188 26.214844 C 35.492188 26.070312 35.480469 25.949219 35.460938 25.867188 C 35.441406 25.78125 35.40625 25.714844 35.363281 25.667969 C 35.316406 25.617188 35.265625 25.585938 35.203125 25.570312 C 35.152344 25.558594 35.0625 25.554688 34.925781 25.554688 L 34.769531 25.554688 Z M 34.769531 25.550781 " fill-opacity="1" fill-rule="nonzero"/><path fill="#ffffff" d="M 38.832031 27.207031 L 38.832031 25.550781 L 38.335938 25.550781 L 38.335938 25.214844 L 39.667969 25.214844 L 39.667969 25.550781 L 39.171875 25.550781 L 39.171875 27.207031 Z M 38.832031 27.207031 " fill-opacity="1" fill-rule="nonzero"/><path fill="#ffffff" d="M 39.890625 27.207031 L 39.890625 25.214844 L 40.226562 25.214844 L 40.226562 26 L 40.890625 26 L 40.890625 25.214844 L 41.230469 25.214844 L 41.230469 27.207031 L 40.890625 27.207031 L 40.890625 26.335938 L 40.226562 26.335938 L 40.226562 27.207031 Z M 39.890625 27.207031 " fill-opacity="1" fill-rule="nonzero"/><path fill="#ffffff" d="M 41.574219 25.214844 L 41.914062 25.214844 L 41.914062 26.292969 C 41.914062 26.460938 41.914062 26.570312 41.925781 26.625 C 41.9375 26.710938 41.976562 26.777344 42.03125 26.828125 C 42.085938 26.875 42.160156 26.902344 42.253906 26.902344 C 42.332031 26.902344 42.398438 26.886719 42.445312 26.851562 C 42.496094 26.816406 42.527344 26.769531 42.546875 26.710938 C 42.5625 26.652344 42.574219 26.523438 42.574219 26.320312 L 42.574219 25.21875 L 42.914062 25.21875 L 42.914062 26.265625 C 42.914062 26.535156 42.898438 26.726562 42.867188 26.847656 C 42.839844 26.964844 42.769531 27.0625 42.671875 27.136719 C 42.566406 27.207031 42.429688 27.246094 42.265625 27.246094 C 42.089844 27.246094 41.953125 27.214844 41.855469 27.152344 C 41.757812 27.089844 41.6875 27.007812 41.640625 26.894531 C 41.597656 26.785156 41.574219 26.578125 41.574219 26.28125 Z M 41.574219 25.214844 " fill-opacity="1" fill-rule="nonzero"/><path fill="#ffffff" d="M 46.640625 27.207031 L 46.640625 25.214844 L 47.789062 25.214844 L 47.789062 25.550781 L 46.980469 25.550781 L 46.980469 26.023438 L 47.683594 26.023438 L 47.683594 26.363281 L 46.980469 26.363281 L 46.980469 27.207031 Z M 46.640625 27.207031 " fill-opacity="1" fill-rule="nonzero"/><path fill="#ffffff" d="M 48.070312 27.207031 L 48.070312 25.214844 L 48.785156 25.214844 C 48.96875 25.214844 49.097656 25.230469 49.175781 25.265625 C 49.253906 25.304688 49.320312 25.363281 49.367188 25.453125 C 49.417969 25.539062 49.441406 25.648438 49.441406 25.769531 C 49.441406 25.925781 49.402344 26.050781 49.328125 26.148438 C 49.25 26.242188 49.140625 26.300781 49 26.328125 C 49.074219 26.378906 49.132812 26.433594 49.179688 26.492188 C 49.230469 26.554688 49.292969 26.664062 49.375 26.816406 L 49.578125 27.207031 L 49.171875 27.207031 L 48.929688 26.773438 C 48.839844 26.613281 48.777344 26.515625 48.746094 26.476562 C 48.714844 26.4375 48.683594 26.410156 48.644531 26.394531 C 48.609375 26.382812 48.554688 26.371094 48.476562 26.371094 L 48.40625 26.371094 L 48.40625 27.207031 Z M 48.410156 26.058594 L 48.660156 26.058594 C 48.816406 26.058594 48.910156 26.050781 48.953125 26.039062 C 48.996094 26.023438 49.027344 26 49.054688 25.960938 C 49.078125 25.917969 49.09375 25.867188 49.09375 25.796875 C 49.09375 25.734375 49.078125 25.683594 49.054688 25.648438 C 49.027344 25.605469 48.992188 25.582031 48.949219 25.566406 C 48.917969 25.554688 48.824219 25.554688 48.671875 25.554688 L 48.40625 25.554688 L 48.40625 26.058594 Z M 48.410156 26.058594 " fill-opacity="1" fill-rule="nonzero"/><path fill="#ffffff" d="M 49.753906 27.207031 L 49.753906 25.214844 L 50.089844 25.214844 L 50.089844 27.207031 Z M 49.753906 27.207031 " fill-opacity="1" fill-rule="nonzero"/><path fill="#ffffff" d="M 52.957031 26.558594 L 53.289062 26.519531 C 53.324219 26.773438 53.449219 26.902344 53.652344 26.902344 C 53.753906 26.902344 53.835938 26.875 53.894531 26.824219 C 53.957031 26.769531 53.984375 26.703125 53.984375 26.628906 C 53.984375 26.582031 53.972656 26.542969 53.953125 26.511719 C 53.933594 26.484375 53.902344 26.453125 53.859375 26.433594 C 53.816406 26.414062 53.714844 26.382812 53.554688 26.332031 C 53.414062 26.292969 53.304688 26.242188 53.238281 26.195312 C 53.171875 26.144531 53.117188 26.078125 53.078125 26 C 53.039062 25.917969 53.019531 25.828125 53.019531 25.738281 C 53.019531 25.625 53.042969 25.53125 53.09375 25.445312 C 53.144531 25.355469 53.214844 25.292969 53.304688 25.246094 C 53.394531 25.203125 53.503906 25.179688 53.632812 25.179688 C 53.832031 25.179688 53.988281 25.234375 54.097656 25.335938 C 54.207031 25.441406 54.265625 25.589844 54.269531 25.785156 L 53.933594 25.800781 C 53.917969 25.695312 53.886719 25.617188 53.835938 25.574219 C 53.785156 25.535156 53.71875 25.511719 53.625 25.511719 C 53.53125 25.511719 53.464844 25.53125 53.414062 25.566406 C 53.363281 25.605469 53.339844 25.652344 53.339844 25.707031 C 53.339844 25.757812 53.363281 25.808594 53.410156 25.84375 C 53.453125 25.878906 53.554688 25.921875 53.71875 25.964844 C 53.886719 26.011719 54.011719 26.0625 54.085938 26.117188 C 54.164062 26.171875 54.21875 26.238281 54.261719 26.320312 C 54.300781 26.40625 54.320312 26.507812 54.320312 26.628906 C 54.320312 26.800781 54.269531 26.945312 54.15625 27.066406 C 54.046875 27.183594 53.875 27.242188 53.644531 27.242188 C 53.234375 27.242188 53.007812 27.015625 52.957031 26.558594 Z M 52.957031 26.558594 " fill-opacity="1" fill-rule="nonzero"/><path fill="#ffffff" d="M 56.121094 27.207031 L 55.753906 27.207031 L 55.609375 26.753906 L 54.9375 26.753906 L 54.800781 27.207031 L 54.441406 27.207031 L 55.09375 25.214844 L 55.449219 25.214844 Z M 55.5 26.421875 L 55.265625 25.679688 L 55.039062 26.421875 Z M 55.5 26.421875 " fill-opacity="1" fill-rule="nonzero"/><path fill="#ffffff" d="M 56.503906 27.207031 L 56.503906 25.550781 L 56.007812 25.550781 L 56.007812 25.214844 L 57.339844 25.214844 L 57.339844 25.550781 L 56.84375 25.550781 L 56.84375 27.207031 Z M 56.503906 27.207031 " fill-opacity="1" fill-rule="nonzero"/><path fill="#435a7f" d="M 20.117188 32.339844 L 19.746094 32.339844 L 19.925781 32.039062 L 20.4375 32.039062 L 20.4375 34.167969 L 20.117188 34.167969 Z M 20.117188 32.339844 " fill-opacity="1" fill-rule="nonzero"/><path fill="#435a7f" d="M 27.117188 33.871094 L 27.910156 33.871094 L 27.910156 34.171875 L 26.480469 34.171875 L 27.222656 33.273438 C 27.292969 33.183594 27.355469 33.109375 27.402344 33.042969 C 27.453125 32.980469 27.492188 32.921875 27.515625 32.882812 C 27.570312 32.792969 27.59375 32.71875 27.59375 32.648438 C 27.59375 32.550781 27.5625 32.464844 27.492188 32.398438 C 27.421875 32.328125 27.332031 32.296875 27.234375 32.296875 C 27.019531 32.296875 26.894531 32.421875 26.863281 32.679688 L 26.542969 32.679688 C 26.589844 32.230469 26.820312 32.003906 27.222656 32.003906 C 27.414062 32.003906 27.578125 32.066406 27.707031 32.191406 C 27.839844 32.316406 27.90625 32.46875 27.90625 32.648438 C 27.90625 32.765625 27.878906 32.878906 27.816406 32.992188 C 27.785156 33.050781 27.738281 33.117188 27.675781 33.195312 C 27.617188 33.273438 27.542969 33.371094 27.449219 33.476562 Z M 27.117188 33.871094 " fill-opacity="1" fill-rule="nonzero"/><path fill="#435a7f" d="M 34.203125 33.183594 L 34.203125 32.90625 C 34.335938 32.90625 34.429688 32.890625 34.476562 32.863281 C 34.558594 32.808594 34.601562 32.722656 34.601562 32.605469 C 34.601562 32.515625 34.570312 32.4375 34.511719 32.382812 C 34.453125 32.324219 34.375 32.296875 34.277344 32.296875 C 34.1875 32.296875 34.121094 32.316406 34.074219 32.359375 C 34.023438 32.40625 33.992188 32.480469 33.96875 32.582031 L 33.648438 32.582031 C 33.683594 32.382812 33.75 32.238281 33.851562 32.140625 C 33.957031 32.046875 34.101562 32 34.285156 32 C 34.46875 32 34.621094 32.054688 34.738281 32.167969 C 34.859375 32.277344 34.917969 32.417969 34.917969 32.589844 C 34.917969 32.78125 34.839844 32.933594 34.6875 33.042969 C 34.863281 33.148438 34.953125 33.316406 34.953125 33.550781 C 34.953125 33.742188 34.886719 33.898438 34.757812 34.019531 C 34.628906 34.140625 34.464844 34.203125 34.261719 34.203125 C 34.003906 34.203125 33.8125 34.109375 33.691406 33.921875 C 33.640625 33.84375 33.605469 33.734375 33.589844 33.59375 L 33.902344 33.59375 C 33.917969 33.699219 33.957031 33.777344 34.023438 33.828125 C 34.085938 33.882812 34.167969 33.910156 34.273438 33.910156 C 34.378906 33.910156 34.460938 33.878906 34.53125 33.808594 C 34.597656 33.738281 34.632812 33.648438 34.632812 33.535156 C 34.632812 33.394531 34.582031 33.292969 34.480469 33.230469 C 34.417969 33.199219 34.328125 33.183594 34.203125 33.183594 Z M 34.203125 33.183594 " fill-opacity="1" fill-rule="nonzero"/><path fill="#435a7f" d="M 41.925781 33.578125 L 42.148438 33.578125 L 42.148438 33.871094 L 41.925781 33.871094 L 41.925781 34.171875 L 41.601562 34.171875 L 41.601562 33.871094 L 40.558594 33.871094 L 41.925781 31.882812 Z M 41.601562 33.578125 L 41.601562 32.863281 L 41.113281 33.578125 Z M 41.601562 33.578125 " fill-opacity="1" fill-rule="nonzero"/><path fill="#435a7f" d="M 49.078125 32.339844 L 48.421875 32.339844 L 48.316406 32.691406 C 48.332031 32.691406 48.347656 32.691406 48.363281 32.691406 C 48.375 32.691406 48.390625 32.691406 48.402344 32.691406 C 48.605469 32.691406 48.777344 32.761719 48.910156 32.898438 C 49.042969 33.035156 49.109375 33.214844 49.109375 33.433594 C 49.109375 33.65625 49.035156 33.839844 48.886719 33.988281 C 48.734375 34.132812 48.546875 34.203125 48.316406 34.203125 C 48.035156 34.203125 47.8125 34.070312 47.648438 33.808594 L 47.890625 33.601562 C 47.960938 33.714844 48.027344 33.796875 48.09375 33.84375 C 48.164062 33.890625 48.246094 33.910156 48.34375 33.910156 C 48.472656 33.910156 48.582031 33.867188 48.667969 33.777344 C 48.757812 33.683594 48.800781 33.570312 48.800781 33.4375 C 48.800781 33.304688 48.757812 33.191406 48.671875 33.101562 C 48.585938 33.011719 48.476562 32.96875 48.347656 32.96875 C 48.203125 32.96875 48.078125 33.03125 47.972656 33.15625 L 47.867188 33.15625 L 48.203125 32.035156 L 49.082031 32.035156 L 49.082031 32.339844 Z M 49.078125 32.339844 " fill-opacity="1" fill-rule="nonzero"/><path fill="#435a7f" d="M 55.761719 31.964844 L 56 32.144531 L 55.488281 32.835938 C 55.519531 32.832031 55.539062 32.832031 55.558594 32.828125 C 55.578125 32.824219 55.59375 32.824219 55.605469 32.824219 C 55.777344 32.824219 55.925781 32.890625 56.050781 33.023438 C 56.175781 33.152344 56.242188 33.3125 56.242188 33.496094 C 56.242188 33.691406 56.171875 33.859375 56.03125 34 C 55.894531 34.136719 55.726562 34.207031 55.53125 34.207031 C 55.335938 34.207031 55.167969 34.140625 55.023438 34 C 54.882812 33.863281 54.8125 33.703125 54.8125 33.515625 C 54.8125 33.34375 54.882812 33.167969 55.019531 32.980469 Z M 55.925781 33.515625 C 55.925781 33.402344 55.886719 33.304688 55.808594 33.226562 C 55.730469 33.148438 55.632812 33.109375 55.523438 33.109375 C 55.410156 33.109375 55.316406 33.148438 55.238281 33.226562 C 55.160156 33.304688 55.121094 33.398438 55.121094 33.511719 C 55.121094 33.625 55.160156 33.71875 55.238281 33.796875 C 55.316406 33.875 55.414062 33.914062 55.527344 33.914062 C 55.636719 33.914062 55.730469 33.875 55.808594 33.796875 C 55.886719 33.71875 55.925781 33.621094 55.925781 33.515625 Z M 55.925781 33.515625 " fill-opacity="1" fill-rule="nonzero"/><path fill="#e7344c" d="M 13.488281 37.050781 L 12.4375 37.050781 L 12.4375 36.75 L 14.023438 36.75 L 12.683594 38.949219 L 12.425781 38.789062 Z M 13.488281 37.050781 " fill-opacity="1" fill-rule="nonzero"/><path fill="#435a7f" d="M 19.839844 37.769531 C 19.683594 37.660156 19.605469 37.507812 19.605469 37.320312 C 19.605469 37.148438 19.664062 37.003906 19.785156 36.886719 C 19.902344 36.769531 20.050781 36.710938 20.230469 36.710938 C 20.40625 36.710938 20.550781 36.769531 20.671875 36.886719 C 20.789062 37.003906 20.847656 37.144531 20.847656 37.320312 C 20.847656 37.503906 20.769531 37.652344 20.613281 37.769531 C 20.699219 37.8125 20.765625 37.878906 20.816406 37.96875 C 20.867188 38.058594 20.890625 38.160156 20.890625 38.269531 C 20.890625 38.457031 20.828125 38.613281 20.703125 38.734375 C 20.582031 38.855469 20.421875 38.914062 20.230469 38.914062 C 20.035156 38.914062 19.871094 38.851562 19.746094 38.730469 C 19.613281 38.609375 19.550781 38.457031 19.550781 38.273438 C 19.554688 38.03125 19.648438 37.867188 19.839844 37.769531 Z M 19.867188 38.261719 C 19.867188 38.359375 19.902344 38.445312 19.96875 38.515625 C 20.039062 38.585938 20.121094 38.617188 20.21875 38.617188 C 20.320312 38.617188 20.402344 38.585938 20.472656 38.515625 C 20.539062 38.445312 20.574219 38.359375 20.574219 38.261719 C 20.574219 38.164062 20.542969 38.082031 20.472656 38.011719 C 20.402344 37.945312 20.320312 37.910156 20.21875 37.910156 C 20.125 37.910156 20.039062 37.941406 19.96875 38.011719 C 19.902344 38.082031 19.867188 38.164062 19.867188 38.261719 Z M 19.90625 37.316406 C 19.90625 37.40625 19.9375 37.484375 20 37.546875 C 20.0625 37.609375 20.136719 37.636719 20.226562 37.636719 C 20.3125 37.636719 20.390625 37.609375 20.449219 37.546875 C 20.511719 37.484375 20.542969 37.40625 20.542969 37.320312 C 20.542969 37.234375 20.511719 37.15625 20.449219 37.09375 C 20.390625 37.035156 20.3125 37.003906 20.226562 37.003906 C 20.136719 37.003906 20.0625 37.035156 20 37.09375 C 19.9375 37.160156 19.90625 37.234375 19.90625 37.316406 Z M 19.90625 37.316406 " fill-opacity="1" fill-rule="nonzero"/><path fill="#435a7f" d="M 27.042969 38.949219 L 26.808594 38.777344 L 27.316406 38.082031 C 27.289062 38.085938 27.265625 38.089844 27.246094 38.089844 C 27.226562 38.09375 27.210938 38.09375 27.199219 38.09375 C 27.027344 38.09375 26.878906 38.03125 26.75 37.898438 C 26.628906 37.769531 26.5625 37.609375 26.5625 37.425781 C 26.5625 37.226562 26.632812 37.0625 26.769531 36.921875 C 26.910156 36.78125 27.078125 36.714844 27.273438 36.714844 C 27.464844 36.714844 27.636719 36.78125 27.777344 36.921875 C 27.921875 37.058594 27.992188 37.21875 27.992188 37.40625 C 27.992188 37.570312 27.921875 37.75 27.785156 37.941406 Z M 26.878906 37.398438 C 26.878906 37.515625 26.921875 37.609375 27 37.6875 C 27.078125 37.769531 27.171875 37.808594 27.28125 37.808594 C 27.394531 37.808594 27.488281 37.769531 27.566406 37.6875 C 27.644531 37.609375 27.6875 37.515625 27.6875 37.40625 C 27.6875 37.292969 27.644531 37.199219 27.566406 37.121094 C 27.488281 37.042969 27.394531 37.003906 27.28125 37.003906 C 27.171875 37.003906 27.078125 37.042969 27 37.121094 C 26.921875 37.199219 26.878906 37.292969 26.878906 37.398438 Z M 26.878906 37.398438 " fill-opacity="1" fill-rule="nonzero"/><path fill="#435a7f" d="M 32.664062 37.050781 L 32.292969 37.050781 L 32.472656 36.75 L 32.984375 36.75 L 32.984375 38.878906 L 32.664062 38.878906 Z M 32.664062 37.050781 " fill-opacity="1" fill-rule="nonzero"/><path fill="#435a7f" d="M 33.589844 37.800781 C 33.589844 37.457031 33.671875 37.1875 33.828125 36.984375 C 33.96875 36.800781 34.140625 36.710938 34.34375 36.710938 C 34.546875 36.710938 34.714844 36.800781 34.859375 36.984375 C 35.015625 37.1875 35.09375 37.464844 35.09375 37.808594 C 35.09375 38.15625 35.015625 38.433594 34.859375 38.636719 C 34.71875 38.816406 34.546875 38.90625 34.347656 38.90625 C 34.144531 38.90625 33.972656 38.816406 33.832031 38.636719 C 33.671875 38.433594 33.589844 38.15625 33.589844 37.800781 Z M 33.90625 37.800781 C 33.90625 38.035156 33.949219 38.234375 34.03125 38.386719 C 34.113281 38.542969 34.214844 38.617188 34.34375 38.617188 C 34.46875 38.617188 34.574219 38.542969 34.65625 38.386719 C 34.738281 38.234375 34.78125 38.042969 34.78125 37.808594 C 34.78125 37.578125 34.738281 37.386719 34.65625 37.230469 C 34.574219 37.078125 34.46875 37.003906 34.34375 37.003906 C 34.21875 37.003906 34.113281 37.078125 34.03125 37.230469 C 33.949219 37.386719 33.90625 37.574219 33.90625 37.800781 Z M 33.90625 37.800781 " fill-opacity="1" fill-rule="nonzero"/><path fill="#435a7f" d="M 39.96875 37.050781 L 39.597656 37.050781 L 39.777344 36.75 L 40.289062 36.75 L 40.289062 38.878906 L 39.96875 38.878906 Z M 39.96875 37.050781 " fill-opacity="1" fill-rule="nonzero"/><path fill="#435a7f" d="M 41.296875 37.050781 L 40.925781 37.050781 L 41.105469 36.75 L 41.617188 36.75 L 41.617188 38.878906 L 41.296875 38.878906 Z M 41.296875 37.050781 " fill-opacity="1" fill-rule="nonzero"/><path fill="#435a7f" d="M 46.839844 37.050781 L 46.46875 37.050781 L 46.648438 36.75 L 47.160156 36.75 L 47.160156 38.878906 L 46.839844 38.878906 Z M 46.839844 37.050781 " fill-opacity="1" fill-rule="nonzero"/><path fill="#435a7f" d="M 48.300781 38.574219 L 49.09375 38.574219 L 49.09375 38.878906 L 47.664062 38.878906 L 48.402344 37.980469 C 48.476562 37.890625 48.535156 37.816406 48.585938 37.75 C 48.636719 37.6875 48.675781 37.628906 48.699219 37.585938 C 48.753906 37.5 48.777344 37.425781 48.777344 37.355469 C 48.777344 37.253906 48.746094 37.171875 48.675781 37.105469 C 48.605469 37.035156 48.515625 37.003906 48.414062 37.003906 C 48.203125 37.003906 48.078125 37.128906 48.046875 37.386719 L 47.726562 37.386719 C 47.777344 36.9375 48.003906 36.710938 48.40625 36.710938 C 48.601562 36.710938 48.765625 36.773438 48.894531 36.898438 C 49.027344 37.023438 49.09375 37.175781 49.09375 37.355469 C 49.09375 37.472656 49.0625 37.585938 49 37.699219 C 48.96875 37.757812 48.925781 37.824219 48.863281 37.902344 C 48.804688 37.980469 48.726562 38.078125 48.636719 38.183594 Z M 48.300781 38.574219 " fill-opacity="1" fill-rule="nonzero"/><path fill="#435a7f" d="M 53.875 37.050781 L 53.507812 37.050781 L 53.683594 36.75 L 54.199219 36.75 L 54.199219 38.878906 L 53.875 38.878906 Z M 53.875 37.050781 " fill-opacity="1" fill-rule="nonzero"/><path fill="#435a7f" d="M 55.382812 37.890625 L 55.382812 37.617188 C 55.519531 37.617188 55.609375 37.601562 55.65625 37.570312 C 55.738281 37.515625 55.78125 37.433594 55.78125 37.316406 C 55.78125 37.226562 55.75 37.148438 55.691406 37.09375 C 55.632812 37.035156 55.554688 37.003906 55.457031 37.003906 C 55.367188 37.003906 55.300781 37.027344 55.253906 37.070312 C 55.207031 37.113281 55.171875 37.1875 55.148438 37.292969 L 54.828125 37.292969 C 54.863281 37.09375 54.929688 36.945312 55.035156 36.851562 C 55.136719 36.757812 55.28125 36.710938 55.464844 36.710938 C 55.648438 36.710938 55.800781 36.765625 55.921875 36.875 C 56.039062 36.984375 56.097656 37.125 56.097656 37.296875 C 56.097656 37.492188 56.023438 37.644531 55.867188 37.753906 C 56.042969 37.859375 56.132812 38.027344 56.132812 38.261719 C 56.132812 38.453125 56.066406 38.605469 55.9375 38.730469 C 55.808594 38.851562 55.644531 38.914062 55.441406 38.914062 C 55.1875 38.914062 54.996094 38.820312 54.871094 38.632812 C 54.820312 38.554688 54.785156 38.445312 54.773438 38.304688 L 55.082031 38.304688 C 55.097656 38.40625 55.136719 38.484375 55.203125 38.539062 C 55.265625 38.59375 55.347656 38.621094 55.453125 38.621094 C 55.558594 38.621094 55.640625 38.585938 55.710938 38.515625 C 55.78125 38.445312 55.8125 38.355469 55.8125 38.246094 C 55.8125 38.101562 55.761719 38 55.660156 37.941406 C 55.601562 37.90625 55.507812 37.890625 55.382812 37.890625 Z M 55.382812 37.890625 " fill-opacity="1" fill-rule="nonzero"/><path fill="#e7344c" d="M 11.535156 41.757812 L 11.167969 41.757812 L 11.34375 41.457031 L 11.855469 41.457031 L 11.855469 43.582031 L 11.535156 43.582031 Z M 11.535156 41.757812 " fill-opacity="1" fill-rule="nonzero"/><path fill="#e7344c" d="M 13.683594 42.988281 L 13.910156 42.988281 L 13.910156 43.28125 L 13.683594 43.28125 L 13.683594 43.582031 L 13.363281 43.582031 L 13.363281 43.28125 L 12.320312 43.28125 L 13.683594 41.296875 Z M 13.359375 42.988281 L 13.359375 42.277344 L 12.871094 42.988281 Z M 13.359375 42.988281 " fill-opacity="1" fill-rule="nonzero"/><path fill="#435a7f" d="M 18.597656 41.757812 L 18.226562 41.757812 L 18.40625 41.457031 L 18.917969 41.457031 L 18.917969 43.582031 L 18.597656 43.582031 Z M 18.597656 41.757812 " fill-opacity="1" fill-rule="nonzero"/><path fill="#435a7f" d="M 20.832031 41.757812 L 20.179688 41.757812 L 20.074219 42.109375 C 20.089844 42.105469 20.105469 42.105469 20.117188 42.105469 C 20.132812 42.105469 20.148438 42.105469 20.160156 42.105469 C 20.363281 42.105469 20.535156 42.175781 20.667969 42.3125 C 20.800781 42.453125 20.867188 42.632812 20.867188 42.847656 C 20.867188 43.074219 20.792969 43.257812 20.640625 43.402344 C 20.492188 43.550781 20.300781 43.621094 20.074219 43.621094 C 19.792969 43.621094 19.570312 43.488281 19.40625 43.222656 L 19.648438 43.019531 C 19.714844 43.128906 19.785156 43.210938 19.851562 43.261719 C 19.917969 43.304688 20.003906 43.328125 20.101562 43.328125 C 20.230469 43.328125 20.339844 43.28125 20.425781 43.191406 C 20.511719 43.101562 20.558594 42.988281 20.558594 42.855469 C 20.558594 42.71875 20.515625 42.605469 20.429688 42.519531 C 20.339844 42.429688 20.234375 42.382812 20.105469 42.382812 C 19.960938 42.382812 19.835938 42.445312 19.730469 42.574219 L 19.625 42.574219 L 19.957031 41.453125 L 20.832031 41.453125 Z M 20.832031 41.757812 " fill-opacity="1" fill-rule="nonzero"/><path fill="#435a7f" d="M 25.679688 41.757812 L 25.3125 41.757812 L 25.488281 41.457031 L 26.003906 41.457031 L 26.003906 43.582031 L 25.679688 43.582031 Z M 25.679688 41.757812 " fill-opacity="1" fill-rule="nonzero"/><path fill="#435a7f" d="M 27.519531 41.378906 L 27.757812 41.558594 L 27.246094 42.25 C 27.273438 42.246094 27.296875 42.242188 27.316406 42.242188 C 27.335938 42.238281 27.351562 42.238281 27.363281 42.238281 C 27.535156 42.238281 27.683594 42.304688 27.808594 42.4375 C 27.933594 42.566406 28 42.726562 28 42.910156 C 28 43.105469 27.929688 43.273438 27.789062 43.410156 C 27.652344 43.550781 27.484375 43.621094 27.289062 43.621094 C 27.09375 43.621094 26.925781 43.554688 26.78125 43.414062 C 26.636719 43.277344 26.566406 43.117188 26.566406 42.929688 C 26.566406 42.757812 26.636719 42.582031 26.777344 42.394531 Z M 27.6875 42.929688 C 27.6875 42.816406 27.644531 42.722656 27.566406 42.644531 C 27.488281 42.566406 27.394531 42.523438 27.28125 42.523438 C 27.171875 42.523438 27.074219 42.566406 27 42.644531 C 26.921875 42.722656 26.878906 42.816406 26.878906 42.929688 C 26.878906 43.039062 26.921875 43.132812 27 43.210938 C 27.078125 43.292969 27.171875 43.332031 27.285156 43.332031 C 27.394531 43.332031 27.492188 43.292969 27.566406 43.210938 C 27.644531 43.128906 27.6875 43.039062 27.6875 42.929688 Z M 27.6875 42.929688 " fill-opacity="1" fill-rule="nonzero"/><path fill="#435a7f" d="M 32.753906 41.757812 L 32.386719 41.757812 L 32.5625 41.457031 L 33.078125 41.457031 L 33.078125 43.582031 L 32.753906 43.582031 Z M 32.753906 41.757812 " fill-opacity="1" fill-rule="nonzero"/><path fill="#435a7f" d="M 34.667969 41.757812 L 33.617188 41.757812 L 33.617188 41.457031 L 35.203125 41.457031 L 33.863281 43.65625 L 33.605469 43.496094 Z M 34.667969 41.757812 " fill-opacity="1" fill-rule="nonzero"/><path fill="#435a7f" d="M 39.769531 41.757812 L 39.398438 41.757812 L 39.578125 41.457031 L 40.089844 41.457031 L 40.089844 43.582031 L 39.769531 43.582031 Z M 39.769531 41.757812 " fill-opacity="1" fill-rule="nonzero"/><path fill="#435a7f" d="M 41.023438 42.476562 C 40.867188 42.367188 40.789062 42.214844 40.789062 42.027344 C 40.789062 41.855469 40.847656 41.710938 40.96875 41.59375 C 41.085938 41.476562 41.234375 41.417969 41.410156 41.417969 C 41.589844 41.417969 41.734375 41.476562 41.855469 41.59375 C 41.972656 41.710938 42.03125 41.851562 42.03125 42.027344 C 42.03125 42.210938 41.953125 42.359375 41.796875 42.476562 C 41.882812 42.519531 41.949219 42.585938 42 42.675781 C 42.050781 42.765625 42.074219 42.867188 42.074219 42.976562 C 42.074219 43.164062 42.011719 43.320312 41.886719 43.441406 C 41.761719 43.5625 41.605469 43.621094 41.414062 43.621094 C 41.21875 43.621094 41.054688 43.558594 40.925781 43.4375 C 40.796875 43.316406 40.734375 43.164062 40.734375 42.980469 C 40.734375 42.738281 40.832031 42.574219 41.023438 42.476562 Z M 41.050781 42.96875 C 41.050781 43.066406 41.085938 43.148438 41.152344 43.21875 C 41.21875 43.292969 41.304688 43.324219 41.402344 43.324219 C 41.5 43.324219 41.582031 43.292969 41.652344 43.21875 C 41.722656 43.148438 41.757812 43.066406 41.757812 42.96875 C 41.757812 42.871094 41.722656 42.789062 41.652344 42.71875 C 41.585938 42.652344 41.5 42.617188 41.402344 42.617188 C 41.308594 42.617188 41.222656 42.648438 41.152344 42.71875 C 41.085938 42.789062 41.050781 42.871094 41.050781 42.96875 Z M 41.089844 42.023438 C 41.089844 42.113281 41.121094 42.191406 41.183594 42.253906 C 41.246094 42.3125 41.320312 42.34375 41.410156 42.34375 C 41.496094 42.34375 41.570312 42.3125 41.632812 42.253906 C 41.695312 42.191406 41.726562 42.113281 41.726562 42.027344 C 41.726562 41.941406 41.695312 41.863281 41.632812 41.800781 C 41.570312 41.738281 41.496094 41.710938 41.410156 41.710938 C 41.320312 41.710938 41.246094 41.738281 41.183594 41.800781 C 41.121094 41.867188 41.089844 41.941406 41.089844 42.023438 Z M 41.089844 42.023438 " fill-opacity="1" fill-rule="nonzero"/><path fill="#435a7f" d="M 46.84375 41.757812 L 46.476562 41.757812 L 46.652344 41.457031 L 47.164062 41.457031 L 47.164062 43.582031 L 46.84375 43.582031 Z M 46.84375 41.757812 " fill-opacity="1" fill-rule="nonzero"/><path fill="#435a7f" d="M 48.226562 43.65625 L 47.992188 43.484375 L 48.5 42.789062 C 48.472656 42.792969 48.449219 42.796875 48.429688 42.796875 C 48.410156 42.800781 48.394531 42.800781 48.382812 42.800781 C 48.210938 42.800781 48.0625 42.738281 47.933594 42.605469 C 47.808594 42.476562 47.746094 42.316406 47.746094 42.132812 C 47.746094 41.933594 47.816406 41.769531 47.953125 41.628906 C 48.09375 41.488281 48.261719 41.421875 48.453125 41.421875 C 48.648438 41.421875 48.816406 41.488281 48.960938 41.628906 C 49.105469 41.765625 49.175781 41.925781 49.175781 42.113281 C 49.175781 42.277344 49.105469 42.453125 48.96875 42.648438 Z M 48.0625 42.109375 C 48.0625 42.222656 48.101562 42.320312 48.179688 42.398438 C 48.257812 42.476562 48.355469 42.515625 48.464844 42.515625 C 48.574219 42.515625 48.667969 42.476562 48.746094 42.398438 C 48.828125 42.320312 48.867188 42.222656 48.867188 42.113281 C 48.867188 42 48.828125 41.910156 48.746094 41.828125 C 48.667969 41.75 48.574219 41.710938 48.464844 41.710938 C 48.355469 41.710938 48.257812 41.75 48.183594 41.828125 C 48.101562 41.90625 48.0625 42 48.0625 42.109375 Z M 48.0625 42.109375 " fill-opacity="1" fill-rule="nonzero"/><path fill="#435a7f" d="M 53.617188 43.28125 L 54.410156 43.28125 L 54.410156 43.582031 L 52.980469 43.582031 L 53.722656 42.6875 C 53.796875 42.597656 53.855469 42.523438 53.90625 42.457031 C 53.953125 42.394531 53.992188 42.335938 54.015625 42.292969 C 54.070312 42.207031 54.097656 42.132812 54.097656 42.0625 C 54.097656 41.960938 54.0625 41.878906 53.992188 41.808594 C 53.921875 41.742188 53.835938 41.710938 53.734375 41.710938 C 53.519531 41.710938 53.394531 41.835938 53.363281 42.09375 L 53.042969 42.09375 C 53.09375 41.644531 53.320312 41.417969 53.722656 41.417969 C 53.917969 41.417969 54.082031 41.480469 54.210938 41.605469 C 54.34375 41.730469 54.410156 41.878906 54.410156 42.0625 C 54.410156 42.179688 54.378906 42.292969 54.320312 42.40625 C 54.289062 42.464844 54.242188 42.53125 54.179688 42.609375 C 54.121094 42.6875 54.046875 42.785156 53.953125 42.890625 Z M 53.617188 43.28125 " fill-opacity="1" fill-rule="nonzero"/><path fill="#435a7f" d="M 54.773438 42.503906 C 54.773438 42.164062 54.851562 41.894531 55.007812 41.691406 C 55.148438 41.507812 55.320312 41.417969 55.523438 41.417969 C 55.726562 41.417969 55.894531 41.507812 56.039062 41.691406 C 56.195312 41.894531 56.273438 42.171875 56.273438 42.515625 C 56.273438 42.863281 56.195312 43.140625 56.039062 43.339844 C 55.898438 43.523438 55.726562 43.613281 55.527344 43.613281 C 55.328125 43.613281 55.15625 43.523438 55.011719 43.339844 C 54.851562 43.140625 54.773438 42.863281 54.773438 42.503906 Z M 55.089844 42.507812 C 55.089844 42.746094 55.132812 42.941406 55.214844 43.097656 C 55.296875 43.25 55.398438 43.328125 55.527344 43.328125 C 55.652344 43.328125 55.757812 43.25 55.839844 43.097656 C 55.921875 42.945312 55.960938 42.75 55.960938 42.519531 C 55.960938 42.285156 55.921875 42.09375 55.839844 41.941406 C 55.757812 41.789062 55.652344 41.710938 55.527344 41.710938 C 55.402344 41.710938 55.296875 41.789062 55.214844 41.941406 C 55.128906 42.09375 55.089844 42.28125 55.089844 42.507812 Z M 55.089844 42.507812 " fill-opacity="1" fill-rule="nonzero"/><path fill="#e7344c" d="M 11.492188 47.988281 L 12.285156 47.988281 L 12.285156 48.289062 L 10.855469 48.289062 L 11.59375 47.394531 C 11.667969 47.304688 11.726562 47.230469 11.777344 47.164062 C 11.824219 47.101562 11.867188 47.042969 11.890625 47 C 11.945312 46.914062 11.96875 46.839844 11.96875 46.765625 C 11.96875 46.667969 11.9375 46.585938 11.867188 46.515625 C 11.796875 46.449219 11.707031 46.414062 11.605469 46.414062 C 11.390625 46.414062 11.269531 46.542969 11.238281 46.796875 L 10.917969 46.796875 C 10.96875 46.351562 11.195312 46.125 11.597656 46.125 C 11.792969 46.125 11.957031 46.1875 12.085938 46.3125 C 12.21875 46.433594 12.285156 46.585938 12.285156 46.769531 C 12.285156 46.886719 12.253906 47 12.191406 47.109375 C 12.160156 47.171875 12.117188 47.238281 12.054688 47.316406 C 11.996094 47.394531 11.917969 47.492188 11.824219 47.597656 Z M 11.492188 47.988281 " fill-opacity="1" fill-rule="nonzero"/><path fill="#e7344c" d="M 13.054688 46.464844 L 12.6875 46.464844 L 12.863281 46.164062 L 13.378906 46.164062 L 13.378906 48.289062 L 13.054688 48.289062 Z M 13.054688 46.464844 " fill-opacity="1" fill-rule="nonzero"/><path fill="#435a7f" d="M 18.316406 47.988281 L 19.109375 47.988281 L 19.109375 48.289062 L 17.679688 48.289062 L 18.417969 47.394531 C 18.492188 47.304688 18.550781 47.230469 18.601562 47.164062 C 18.648438 47.101562 18.6875 47.042969 18.714844 47 C 18.769531 46.914062 18.792969 46.839844 18.792969 46.765625 C 18.792969 46.667969 18.757812 46.585938 18.6875 46.515625 C 18.617188 46.449219 18.53125 46.414062 18.429688 46.414062 C 18.214844 46.414062 18.09375 46.542969 18.0625 46.796875 L 17.738281 46.796875 C 17.789062 46.351562 18.015625 46.125 18.417969 46.125 C 18.613281 46.125 18.777344 46.1875 18.90625 46.3125 C 19.039062 46.433594 19.105469 46.585938 19.105469 46.769531 C 19.105469 46.886719 19.074219 47 19.011719 47.109375 C 18.980469 47.171875 18.9375 47.238281 18.875 47.316406 C 18.816406 47.394531 18.738281 47.492188 18.648438 47.597656 Z M 18.316406 47.988281 " fill-opacity="1" fill-rule="nonzero"/><path fill="#435a7f" d="M 20.058594 47.988281 L 20.851562 47.988281 L 20.851562 48.289062 L 19.421875 48.289062 L 20.160156 47.394531 C 20.234375 47.304688 20.292969 47.230469 20.34375 47.164062 C 20.390625 47.101562 20.429688 47.042969 20.457031 47 C 20.511719 46.914062 20.535156 46.839844 20.535156 46.765625 C 20.535156 46.667969 20.5 46.585938 20.429688 46.515625 C 20.359375 46.449219 20.273438 46.414062 20.171875 46.414062 C 19.957031 46.414062 19.835938 46.542969 19.804688 46.796875 L 19.484375 46.796875 C 19.535156 46.351562 19.761719 46.125 20.164062 46.125 C 20.359375 46.125 20.523438 46.1875 20.652344 46.3125 C 20.785156 46.433594 20.851562 46.585938 20.851562 46.769531 C 20.851562 46.886719 20.820312 47 20.757812 47.109375 C 20.726562 47.171875 20.683594 47.238281 20.621094 47.316406 C 20.5625 47.394531 20.484375 47.492188 20.390625 47.597656 Z M 20.058594 47.988281 " fill-opacity="1" fill-rule="nonzero"/><path fill="#435a7f" d="M 25.375 47.988281 L 26.167969 47.988281 L 26.167969 48.289062 L 24.738281 48.289062 L 25.480469 47.394531 C 25.550781 47.304688 25.609375 47.230469 25.660156 47.164062 C 25.710938 47.101562 25.75 47.042969 25.773438 47 C 25.828125 46.914062 25.851562 46.839844 25.851562 46.765625 C 25.851562 46.667969 25.820312 46.585938 25.75 46.515625 C 25.679688 46.449219 25.589844 46.414062 25.488281 46.414062 C 25.277344 46.414062 25.152344 46.542969 25.121094 46.796875 L 24.800781 46.796875 C 24.851562 46.351562 25.078125 46.125 25.480469 46.125 C 25.675781 46.125 25.839844 46.1875 25.96875 46.3125 C 26.101562 46.433594 26.167969 46.585938 26.167969 46.769531 C 26.167969 46.886719 26.136719 47 26.074219 47.109375 C 26.042969 47.171875 26 47.238281 25.9375 47.316406 C 25.878906 47.394531 25.800781 47.492188 25.710938 47.597656 Z M 25.375 47.988281 " fill-opacity="1" fill-rule="nonzero"/><path fill="#435a7f" d="M 27.140625 47.300781 L 27.140625 47.03125 C 27.277344 47.03125 27.371094 47.015625 27.414062 46.984375 C 27.5 46.929688 27.542969 46.847656 27.542969 46.726562 C 27.542969 46.636719 27.511719 46.5625 27.453125 46.503906 C 27.394531 46.445312 27.3125 46.417969 27.21875 46.417969 C 27.128906 46.417969 27.0625 46.441406 27.011719 46.484375 C 26.964844 46.527344 26.929688 46.601562 26.910156 46.707031 L 26.585938 46.707031 C 26.621094 46.503906 26.6875 46.359375 26.792969 46.265625 C 26.898438 46.171875 27.042969 46.121094 27.222656 46.121094 C 27.410156 46.121094 27.5625 46.179688 27.679688 46.289062 C 27.796875 46.398438 27.859375 46.539062 27.859375 46.710938 C 27.859375 46.90625 27.78125 47.058594 27.625 47.167969 C 27.804688 47.269531 27.890625 47.441406 27.890625 47.675781 C 27.890625 47.867188 27.828125 48.019531 27.695312 48.144531 C 27.566406 48.265625 27.402344 48.328125 27.203125 48.328125 C 26.945312 48.328125 26.753906 48.234375 26.628906 48.046875 C 26.578125 47.964844 26.546875 47.855469 26.53125 47.714844 L 26.839844 47.714844 C 26.859375 47.820312 26.898438 47.898438 26.960938 47.953125 C 27.027344 48.007812 27.109375 48.035156 27.210938 48.035156 C 27.316406 48.035156 27.402344 48 27.472656 47.929688 C 27.539062 47.859375 27.574219 47.769531 27.574219 47.660156 C 27.574219 47.515625 27.523438 47.414062 27.421875 47.351562 C 27.359375 47.320312 27.265625 47.300781 27.140625 47.300781 Z M 27.140625 47.300781 " fill-opacity="1" fill-rule="nonzero"/><path fill="#435a7f" d="M 32.453125 47.988281 L 33.25 47.988281 L 33.25 48.289062 L 31.816406 48.289062 L 32.558594 47.394531 C 32.632812 47.304688 32.691406 47.230469 32.742188 47.164062 C 32.792969 47.101562 32.828125 47.042969 32.855469 47 C 32.90625 46.914062 32.933594 46.839844 32.933594 46.765625 C 32.933594 46.667969 32.898438 46.585938 32.828125 46.515625 C 32.757812 46.449219 32.671875 46.414062 32.570312 46.414062 C 32.355469 46.414062 32.230469 46.542969 32.199219 46.796875 L 31.878906 46.796875 C 31.929688 46.351562 32.160156 46.125 32.5625 46.125 C 32.753906 46.125 32.917969 46.1875 33.046875 46.3125 C 33.179688 46.433594 33.25 46.585938 33.25 46.769531 C 33.25 46.886719 33.21875 47 33.15625 47.109375 C 33.125 47.171875 33.078125 47.238281 33.015625 47.316406 C 32.957031 47.394531 32.882812 47.492188 32.789062 47.597656 Z M 32.453125 47.988281 " fill-opacity="1" fill-rule="nonzero"/><path fill="#435a7f" d="M 34.863281 47.695312 L 35.089844 47.695312 L 35.089844 47.988281 L 34.863281 47.988281 L 34.863281 48.289062 L 34.542969 48.289062 L 34.542969 47.988281 L 33.5 47.988281 L 34.863281 46.003906 Z M 34.542969 47.695312 L 34.542969 46.984375 L 34.054688 47.695312 Z M 34.542969 47.695312 " fill-opacity="1" fill-rule="nonzero"/><path fill="#435a7f" d="M 39.496094 47.988281 L 40.289062 47.988281 L 40.289062 48.289062 L 38.859375 48.289062 L 39.597656 47.394531 C 39.671875 47.304688 39.730469 47.230469 39.78125 47.164062 C 39.828125 47.101562 39.867188 47.042969 39.894531 47 C 39.949219 46.914062 39.972656 46.839844 39.972656 46.765625 C 39.972656 46.667969 39.941406 46.585938 39.867188 46.515625 C 39.796875 46.449219 39.710938 46.414062 39.609375 46.414062 C 39.394531 46.414062 39.273438 46.542969 39.242188 46.796875 L 38.921875 46.796875 C 38.972656 46.351562 39.199219 46.125 39.601562 46.125 C 39.796875 46.125 39.960938 46.1875 40.089844 46.3125 C 40.222656 46.433594 40.289062 46.585938 40.289062 46.769531 C 40.289062 46.886719 40.257812 47 40.195312 47.109375 C 40.164062 47.171875 40.121094 47.238281 40.058594 47.316406 C 40 47.394531 39.921875 47.492188 39.828125 47.597656 Z M 39.496094 47.988281 " fill-opacity="1" fill-rule="nonzero"/><path fill="#435a7f" d="M 42.015625 46.464844 L 41.359375 46.464844 L 41.257812 46.816406 C 41.273438 46.8125 41.289062 46.8125 41.300781 46.8125 C 41.316406 46.8125 41.332031 46.8125 41.339844 46.8125 C 41.546875 46.8125 41.71875 46.882812 41.851562 47.019531 C 41.984375 47.160156 42.050781 47.339844 42.050781 47.554688 C 42.050781 47.78125 41.976562 47.964844 41.824219 48.109375 C 41.675781 48.257812 41.484375 48.328125 41.257812 48.328125 C 40.976562 48.328125 40.753906 48.195312 40.589844 47.929688 L 40.832031 47.726562 C 40.898438 47.835938 40.96875 47.917969 41.035156 47.964844 C 41.101562 48.011719 41.1875 48.035156 41.285156 48.035156 C 41.414062 48.035156 41.523438 47.988281 41.609375 47.898438 C 41.695312 47.804688 41.742188 47.695312 41.742188 47.5625 C 41.742188 47.425781 41.699219 47.3125 41.613281 47.226562 C 41.523438 47.136719 41.417969 47.089844 41.289062 47.089844 C 41.144531 47.089844 41.019531 47.152344 40.914062 47.28125 L 40.804688 47.28125 L 41.140625 46.160156 L 42.023438 46.160156 L 42.023438 46.464844 Z M 42.015625 46.464844 " fill-opacity="1" fill-rule="nonzero"/><path fill="#435a7f" d="M 46.558594 47.988281 L 47.351562 47.988281 L 47.351562 48.289062 L 45.921875 48.289062 L 46.660156 47.394531 C 46.734375 47.304688 46.792969 47.230469 46.84375 47.164062 C 46.890625 47.101562 46.933594 47.042969 46.957031 47 C 47.011719 46.914062 47.035156 46.839844 47.035156 46.765625 C 47.035156 46.667969 47.003906 46.585938 46.933594 46.515625 C 46.863281 46.449219 46.773438 46.414062 46.671875 46.414062 C 46.460938 46.414062 46.335938 46.542969 46.304688 46.796875 L 45.984375 46.796875 C 46.035156 46.351562 46.261719 46.125 46.664062 46.125 C 46.859375 46.125 47.023438 46.1875 47.152344 46.3125 C 47.285156 46.433594 47.351562 46.585938 47.351562 46.769531 C 47.351562 46.886719 47.320312 47 47.257812 47.109375 C 47.226562 47.171875 47.183594 47.238281 47.121094 47.316406 C 47.0625 47.394531 46.984375 47.492188 46.890625 47.597656 Z M 46.558594 47.988281 " fill-opacity="1" fill-rule="nonzero"/><path fill="#435a7f" d="M 48.699219 46.085938 L 48.9375 46.265625 L 48.425781 46.957031 C 48.453125 46.953125 48.476562 46.949219 48.496094 46.949219 C 48.515625 46.945312 48.53125 46.945312 48.542969 46.945312 C 48.714844 46.945312 48.863281 47.011719 48.988281 47.144531 C 49.113281 47.273438 49.179688 47.433594 49.179688 47.617188 C 49.179688 47.8125 49.109375 47.980469 48.96875 48.117188 C 48.832031 48.257812 48.664062 48.328125 48.46875 48.328125 C 48.273438 48.328125 48.105469 48.257812 47.960938 48.121094 C 47.820312 47.984375 47.75 47.824219 47.75 47.632812 C 47.75 47.464844 47.820312 47.289062 47.957031 47.101562 Z M 48.867188 47.636719 C 48.867188 47.523438 48.828125 47.429688 48.746094 47.351562 C 48.667969 47.269531 48.574219 47.230469 48.464844 47.230469 C 48.351562 47.230469 48.253906 47.269531 48.179688 47.351562 C 48.101562 47.429688 48.0625 47.523438 48.0625 47.632812 C 48.0625 47.746094 48.101562 47.839844 48.179688 47.917969 C 48.257812 47.996094 48.355469 48.039062 48.464844 48.039062 C 48.574219 48.039062 48.671875 47.996094 48.746094 47.917969 C 48.828125 47.835938 48.867188 47.746094 48.867188 47.636719 Z M 48.867188 47.636719 " fill-opacity="1" fill-rule="nonzero"/><path fill="#435a7f" d="M 53.691406 47.988281 L 54.484375 47.988281 L 54.484375 48.289062 L 53.054688 48.289062 L 53.796875 47.394531 C 53.867188 47.304688 53.925781 47.230469 53.976562 47.164062 C 54.027344 47.101562 54.066406 47.042969 54.089844 47 C 54.144531 46.914062 54.167969 46.839844 54.167969 46.765625 C 54.167969 46.667969 54.136719 46.585938 54.066406 46.515625 C 53.996094 46.449219 53.90625 46.414062 53.804688 46.414062 C 53.59375 46.414062 53.46875 46.542969 53.4375 46.796875 L 53.117188 46.796875 C 53.167969 46.351562 53.394531 46.125 53.796875 46.125 C 53.992188 46.125 54.15625 46.1875 54.285156 46.3125 C 54.417969 46.433594 54.484375 46.585938 54.484375 46.769531 C 54.484375 46.886719 54.453125 47 54.390625 47.109375 C 54.359375 47.171875 54.316406 47.238281 54.253906 47.316406 C 54.195312 47.394531 54.117188 47.492188 54.027344 47.597656 Z M 53.691406 47.988281 " fill-opacity="1" fill-rule="nonzero"/><path fill="#435a7f" d="M 55.851562 46.464844 L 54.800781 46.464844 L 54.800781 46.164062 L 56.386719 46.164062 L 55.042969 48.363281 L 54.789062 48.203125 Z M 55.851562 46.464844 " fill-opacity="1" fill-rule="nonzero"/><path fill="#e7344c" d="M 11.253906 52.695312 L 12.046875 52.695312 L 12.046875 52.996094 L 10.617188 52.996094 L 11.359375 52.101562 C 11.433594 52.011719 11.492188 51.9375 11.542969 51.871094 C 11.589844 51.804688 11.628906 51.75 11.652344 51.707031 C 11.707031 51.621094 11.734375 51.542969 11.734375 51.472656 C 11.734375 51.375 11.699219 51.292969 11.628906 51.222656 C 11.558594 51.15625 11.472656 51.121094 11.371094 51.121094 C 11.15625 51.121094 11.03125 51.25 11 51.503906 L 10.679688 51.503906 C 10.730469 51.058594 10.957031 50.832031 11.363281 50.832031 C 11.554688 50.832031 11.71875 50.894531 11.847656 51.019531 C 11.980469 51.140625 12.046875 51.292969 12.046875 51.476562 C 12.046875 51.59375 12.015625 51.707031 11.957031 51.816406 C 11.925781 51.875 11.878906 51.945312 11.816406 52.023438 C 11.757812 52.101562 11.683594 52.199219 11.589844 52.304688 Z M 11.253906 52.695312 " fill-opacity="1" fill-rule="nonzero"/><path fill="#e7344c" d="M 12.78125 51.890625 C 12.621094 51.78125 12.546875 51.628906 12.546875 51.441406 C 12.546875 51.269531 12.605469 51.121094 12.722656 51.007812 C 12.84375 50.890625 12.992188 50.832031 13.167969 50.832031 C 13.347656 50.832031 13.492188 50.890625 13.609375 51.007812 C 13.730469 51.121094 13.789062 51.265625 13.789062 51.441406 C 13.789062 51.625 13.710938 51.773438 13.554688 51.886719 C 13.640625 51.933594 13.707031 52 13.757812 52.089844 C 13.808594 52.179688 13.832031 52.28125 13.832031 52.390625 C 13.832031 52.578125 13.769531 52.734375 13.644531 52.855469 C 13.519531 52.976562 13.363281 53.035156 13.171875 53.035156 C 12.972656 53.035156 12.8125 52.972656 12.683594 52.851562 C 12.554688 52.730469 12.492188 52.578125 12.492188 52.390625 C 12.492188 52.152344 12.589844 51.988281 12.78125 51.890625 Z M 12.808594 52.378906 C 12.808594 52.480469 12.84375 52.5625 12.910156 52.632812 C 12.976562 52.703125 13.0625 52.738281 13.160156 52.738281 C 13.257812 52.738281 13.339844 52.703125 13.410156 52.632812 C 13.476562 52.5625 13.515625 52.480469 13.515625 52.382812 C 13.515625 52.285156 13.480469 52.199219 13.410156 52.132812 C 13.34375 52.066406 13.257812 52.027344 13.160156 52.027344 C 13.066406 52.027344 12.980469 52.0625 12.910156 52.132812 C 12.84375 52.203125 12.808594 52.285156 12.808594 52.378906 Z M 12.847656 51.4375 C 12.847656 51.527344 12.878906 51.605469 12.941406 51.664062 C 13.003906 51.726562 13.078125 51.757812 13.164062 51.757812 C 13.253906 51.757812 13.328125 51.726562 13.390625 51.664062 C 13.453125 51.605469 13.484375 51.527344 13.484375 51.441406 C 13.484375 51.351562 13.453125 51.277344 13.390625 51.214844 C 13.328125 51.152344 13.253906 51.121094 13.164062 51.121094 C 13.078125 51.121094 13.003906 51.152344 12.941406 51.214844 C 12.878906 51.277344 12.847656 51.351562 12.847656 51.4375 Z M 12.847656 51.4375 " fill-opacity="1" fill-rule="nonzero"/><path fill="#435a7f" d="M 18.316406 52.695312 L 19.109375 52.695312 L 19.109375 52.996094 L 17.679688 52.996094 L 18.417969 52.101562 C 18.492188 52.011719 18.550781 51.9375 18.601562 51.871094 C 18.648438 51.804688 18.6875 51.75 18.714844 51.707031 C 18.769531 51.621094 18.792969 51.542969 18.792969 51.472656 C 18.792969 51.375 18.757812 51.292969 18.6875 51.222656 C 18.617188 51.15625 18.53125 51.121094 18.429688 51.121094 C 18.214844 51.121094 18.09375 51.25 18.0625 51.503906 L 17.738281 51.503906 C 17.789062 51.058594 18.015625 50.832031 18.417969 50.832031 C 18.613281 50.832031 18.777344 50.894531 18.90625 51.019531 C 19.039062 51.140625 19.105469 51.292969 19.105469 51.476562 C 19.105469 51.59375 19.074219 51.707031 19.011719 51.816406 C 18.980469 51.875 18.9375 51.945312 18.875 52.023438 C 18.816406 52.101562 18.738281 52.199219 18.648438 52.304688 Z M 18.316406 52.695312 " fill-opacity="1" fill-rule="nonzero"/><path fill="#435a7f" d="M 19.984375 53.070312 L 19.746094 52.894531 L 20.257812 52.203125 C 20.230469 52.207031 20.207031 52.210938 20.1875 52.210938 C 20.167969 52.214844 20.152344 52.214844 20.136719 52.214844 C 19.96875 52.214844 19.816406 52.148438 19.691406 52.015625 C 19.566406 51.886719 19.503906 51.730469 19.503906 51.542969 C 19.503906 51.347656 19.574219 51.179688 19.710938 51.042969 C 19.851562 50.902344 20.019531 50.835938 20.210938 50.835938 C 20.40625 50.835938 20.574219 50.902344 20.71875 51.039062 C 20.863281 51.179688 20.933594 51.339844 20.933594 51.523438 C 20.933594 51.691406 20.863281 51.867188 20.722656 52.0625 Z M 19.816406 51.523438 C 19.816406 51.636719 19.855469 51.734375 19.9375 51.8125 C 20.015625 51.890625 20.109375 51.929688 20.21875 51.929688 C 20.332031 51.929688 20.425781 51.890625 20.503906 51.8125 C 20.582031 51.734375 20.621094 51.636719 20.621094 51.527344 C 20.621094 51.414062 20.582031 51.324219 20.503906 51.242188 C 20.425781 51.164062 20.332031 51.125 20.21875 51.125 C 20.109375 51.125 20.015625 51.164062 19.9375 51.242188 C 19.855469 51.320312 19.816406 51.414062 19.816406 51.523438 Z M 19.816406 51.523438 " fill-opacity="1" fill-rule="nonzero"/><path fill="#435a7f" d="M 25.398438 52.007812 L 25.398438 51.734375 C 25.53125 51.734375 25.625 51.722656 25.671875 51.691406 C 25.753906 51.636719 25.796875 51.554688 25.796875 51.433594 C 25.796875 51.34375 25.765625 51.269531 25.707031 51.210938 C 25.648438 51.152344 25.570312 51.125 25.472656 51.125 C 25.382812 51.125 25.316406 51.148438 25.269531 51.191406 C 25.21875 51.234375 25.1875 51.308594 25.164062 51.414062 L 24.84375 51.414062 C 24.875 51.210938 24.945312 51.066406 25.046875 50.96875 C 25.152344 50.878906 25.296875 50.828125 25.480469 50.828125 C 25.664062 50.828125 25.816406 50.886719 25.933594 50.996094 C 26.054688 51.105469 26.113281 51.246094 26.113281 51.417969 C 26.113281 51.613281 26.035156 51.765625 25.882812 51.875 C 26.058594 51.976562 26.144531 52.148438 26.144531 52.378906 C 26.144531 52.570312 26.082031 52.726562 25.953125 52.851562 C 25.820312 52.972656 25.660156 53.035156 25.457031 53.035156 C 25.199219 53.035156 25.007812 52.941406 24.886719 52.753906 C 24.835938 52.671875 24.800781 52.5625 24.785156 52.421875 L 25.097656 52.421875 C 25.113281 52.527344 25.152344 52.605469 25.21875 52.660156 C 25.28125 52.710938 25.363281 52.742188 25.46875 52.742188 C 25.570312 52.742188 25.65625 52.707031 25.726562 52.636719 C 25.792969 52.566406 25.828125 52.476562 25.828125 52.367188 C 25.828125 52.222656 25.777344 52.121094 25.675781 52.058594 C 25.617188 52.027344 25.523438 52.007812 25.398438 52.007812 Z M 25.398438 52.007812 " fill-opacity="1" fill-rule="nonzero"/><path fill="#435a7f" d="M 26.53125 51.917969 C 26.53125 51.578125 26.609375 51.308594 26.769531 51.105469 C 26.910156 50.921875 27.082031 50.832031 27.28125 50.832031 C 27.484375 50.832031 27.65625 50.921875 27.796875 51.105469 C 27.957031 51.308594 28.035156 51.585938 28.035156 51.929688 C 28.035156 52.277344 27.957031 52.550781 27.796875 52.753906 C 27.65625 52.9375 27.484375 53.027344 27.285156 53.027344 C 27.085938 53.027344 26.914062 52.9375 26.769531 52.753906 C 26.609375 52.554688 26.53125 52.277344 26.53125 51.917969 Z M 26.847656 51.921875 C 26.847656 52.160156 26.890625 52.355469 26.96875 52.511719 C 27.050781 52.664062 27.15625 52.742188 27.28125 52.742188 C 27.410156 52.742188 27.515625 52.664062 27.59375 52.511719 C 27.675781 52.359375 27.71875 52.164062 27.71875 51.933594 C 27.71875 51.699219 27.675781 51.507812 27.59375 51.351562 C 27.515625 51.203125 27.410156 51.125 27.28125 51.125 C 27.160156 51.125 27.054688 51.203125 26.96875 51.351562 C 26.890625 51.503906 26.847656 51.695312 26.847656 51.921875 Z M 26.847656 51.921875 " fill-opacity="1" fill-rule="nonzero"/><path fill="#435a7f" d="M 32.707031 52.007812 L 32.707031 51.734375 C 32.84375 51.734375 32.9375 51.722656 32.980469 51.691406 C 33.066406 51.636719 33.109375 51.554688 33.109375 51.433594 C 33.109375 51.34375 33.078125 51.269531 33.015625 51.210938 C 32.957031 51.152344 32.878906 51.125 32.785156 51.125 C 32.695312 51.125 32.625 51.148438 32.578125 51.191406 C 32.53125 51.234375 32.496094 51.308594 32.472656 51.414062 L 32.148438 51.414062 C 32.183594 51.210938 32.25 51.066406 32.355469 50.96875 C 32.460938 50.878906 32.605469 50.828125 32.785156 50.828125 C 32.972656 50.828125 33.125 50.886719 33.242188 50.996094 C 33.359375 51.105469 33.417969 51.246094 33.417969 51.417969 C 33.417969 51.613281 33.34375 51.765625 33.1875 51.875 C 33.367188 51.976562 33.453125 52.148438 33.453125 52.378906 C 33.453125 52.570312 33.390625 52.726562 33.257812 52.851562 C 33.128906 52.972656 32.964844 53.035156 32.765625 53.035156 C 32.507812 53.035156 32.316406 52.941406 32.191406 52.753906 C 32.140625 52.671875 32.109375 52.5625 32.09375 52.421875 L 32.402344 52.421875 C 32.421875 52.527344 32.460938 52.605469 32.523438 52.660156 C 32.589844 52.710938 32.671875 52.742188 32.773438 52.742188 C 32.878906 52.742188 32.964844 52.707031 33.035156 52.636719 C 33.101562 52.566406 33.136719 52.476562 33.136719 52.367188 C 33.136719 52.222656 33.085938 52.121094 32.984375 52.058594 C 32.925781 52.027344 32.832031 52.007812 32.707031 52.007812 Z M 32.707031 52.007812 " fill-opacity="1" fill-rule="nonzero"/><path fill="#435a7f" d="M 34.234375 51.171875 L 33.867188 51.171875 L 34.042969 50.867188 L 34.558594 50.867188 L 34.558594 52.996094 L 34.234375 52.996094 Z M 34.234375 51.171875 " fill-opacity="1" fill-rule="nonzero"/></svg>