<svg xmlns="http://www.w3.org/2000/svg" xmlns:xlink="http://www.w3.org/1999/xlink" width="90" zoomAndPan="magnify" viewBox="0 0 67.5 67.499996" height="90" preserveAspectRatio="xMidYMid meet" version="1.0"><path stroke-linecap="round" transform="matrix(0.0447962, 0, 0, 0.0447962, 34.140208, 34.6485)" fill-opacity="1" fill="#ffffff" fill-rule="nonzero" stroke-linejoin="round" d="M 186.4439 44.296439 C 186.4439 44.296439 186.4439 -44.299227 186.4439 -44.299227 C 186.4439 -44.299227 139.355652 -44.299227 139.355652 -44.299227 C 136.826839 -52.234469 133.687622 -59.90811 129.938002 -67.232948 C 129.938002 -67.232948 163.161377 -100.456323 163.161377 -100.456323 C 163.161377 -100.456323 100.464247 -163.153453 100.464247 -163.153453 C 100.464247 -163.153453 67.240872 -129.930078 67.240872 -129.930078 C 59.916034 -133.679698 52.242394 -136.906115 44.307152 -139.434928 C 44.307152 -139.434928 44.307152 -186.435975 44.307152 -186.435975 C 44.307152 -186.435975 -44.288514 -186.435975 -44.288514 -186.435975 C -44.288514 -186.435975 -44.288514 -139.434928 -44.288514 -139.434928 C -52.310957 -136.906115 -59.897396 -133.679698 -67.222235 -129.930078 C -67.222235 -129.930078 -100.53281 -163.153453 -100.53281 -163.153453 C -100.53281 -163.153453 -163.22994 -100.456323 -163.22994 -100.456323 C -163.22994 -100.456323 -129.919365 -67.232948 -129.919365 -67.232948 C -133.668985 -59.90811 -136.895402 -52.234469 -139.424215 -44.299227 C -139.424215 -44.299227 -186.425262 -44.299227 -186.425262 -44.299227 C -186.425262 -44.299227 -186.425262 44.296439 -186.425262 44.296439 C -186.425262 44.296439 -139.424215 44.296439 -139.424215 44.296439 C -136.895402 52.23168 -133.668985 59.905321 -129.919365 67.230159 C -129.919365 67.230159 -163.22994 100.453534 -163.22994 100.453534 C -163.22994 100.453534 -100.53281 163.150664 -100.53281 163.150664 C -100.53281 163.150664 -67.222235 129.927289 -67.222235 129.927289 C -59.897396 133.676909 -52.310957 136.903326 -44.288514 139.432139 C -44.288514 139.432139 -44.288514 186.433187 -44.288514 186.433187 C -44.288514 186.433187 44.307152 186.433187 44.307152 186.433187 C 44.307152 186.433187 44.307152 139.432139 44.307152 139.432139 C 52.242394 136.903326 59.916034 133.676909 67.240872 129.927289 C 67.240872 129.927289 100.464247 163.150664 100.464247 163.150664 C 100.464247 163.150664 163.161377 100.453534 163.161377 100.453534 C 163.161377 100.453534 129.938002 67.230159 129.938002 67.230159 C 133.687622 59.905321 136.826839 52.23168 139.355652 44.296439 C 139.355652 44.296439 186.4439 44.296439 186.4439 44.296439 Z M 66.194467 3.486624 C 65.409663 19.182707 59.13123 33.396381 49.277578 44.296439 C 47.70797 46.040448 46.051161 47.697257 44.307152 49.266865 C 33.407094 59.120517 19.19342 65.39895 3.497337 66.183754 C 2.363731 66.270954 1.142925 66.270954 0.00931871 66.270954 C -1.211488 66.270954 -2.345094 66.270954 -3.4787 66.183754 C -19.174782 65.39895 -33.388457 59.120517 -44.288514 49.266865 C -46.032524 47.697257 -47.689332 46.040448 -49.258941 44.296439 C -59.112592 33.396381 -65.391025 19.182707 -66.17583 3.486624 C -66.26303 2.353018 -66.26303 1.219412 -66.26303 -0.00139436 C -66.26303 -1.135 -66.26303 -2.355807 -66.17583 -3.489413 C -65.391025 -19.185495 -59.112592 -33.39917 -49.258941 -44.299227 C -47.689332 -46.043237 -46.032524 -47.700045 -44.288514 -49.269654 C -33.388457 -59.123305 -19.174782 -65.401738 -3.4787 -66.186543 C -2.345094 -66.273743 -1.211488 -66.273743 0.00931871 -66.273743 C 1.142925 -66.273743 2.363731 -66.273743 3.497337 -66.186543 C 19.19342 -65.401738 33.407094 -59.123305 44.307152 -49.269654 C 46.051161 -47.700045 47.70797 -46.043237 49.277578 -44.299227 C 59.13123 -33.39917 65.409663 -19.185495 66.194467 -3.489413 C 66.281667 -2.355807 66.281667 -1.135 66.281667 -0.00139436 C 66.281667 1.219412 66.281667 2.353018 66.194467 3.486624 Z M 66.194467 3.486624 " stroke="#253237" stroke-width="2" stroke-opacity="1" stroke-miterlimit="4"/><path stroke-linecap="round" transform="matrix(0.0447962, 0, 0, 0.0447962, 14.269596, 26.921601)" fill-opacity="1" fill="#ffffff" fill-rule="nonzero" stroke-linejoin="round" d="M 186.433132 44.303944 C 186.433132 44.303944 186.433132 -44.378923 186.433132 -44.378923 C 186.433132 -44.378923 139.344884 -44.378923 139.344884 -44.378923 C 136.903271 -52.226964 133.676854 -59.900605 129.927234 -67.225443 C 129.927234 -67.225443 163.23781 -100.536018 163.23781 -100.536018 C 163.23781 -100.536018 100.54068 -163.233148 100.54068 -163.233148 C 100.54068 -163.233148 67.230104 -129.922573 67.230104 -129.922573 C 59.905266 -133.672193 52.318826 -136.89861 44.296384 -139.427423 C 44.296384 -139.427423 44.296384 -186.42847 44.296384 -186.42847 C 44.296384 -186.42847 -44.299282 -186.42847 -44.299282 -186.42847 C -44.299282 -186.42847 -44.299282 -139.427423 -44.299282 -139.427423 C -52.234524 -136.89861 -59.908164 -133.672193 -67.233003 -129.922573 C -67.233003 -129.922573 -100.543578 -163.233148 -100.543578 -163.233148 C -100.543578 -163.233148 -163.240708 -100.536018 -163.240708 -100.536018 C -163.240708 -100.536018 -129.930133 -67.225443 -129.930133 -67.225443 C -133.679753 -59.900605 -136.90617 -52.226964 -139.347782 -44.378923 C -139.347782 -44.378923 -186.43603 -44.378923 -186.43603 -44.378923 C -186.43603 -44.378923 -186.43603 44.303944 -186.43603 44.303944 C -186.43603 44.303944 -139.347782 44.303944 -139.347782 44.303944 C -136.90617 52.239185 -133.679753 59.912826 -129.930133 67.237664 C -129.930133 67.237664 -163.240708 100.461039 -163.240708 100.461039 C -163.240708 100.461039 -100.543578 163.158169 -100.543578 163.158169 C -100.543578 163.158169 -67.233003 129.934794 -67.233003 129.934794 C -59.908164 133.684414 -52.234524 136.910831 -44.299282 139.352444 C -44.299282 139.352444 -44.299282 186.440691 -44.299282 186.440691 C -44.299282 186.440691 44.296384 186.440691 44.296384 186.440691 C 44.296384 186.440691 44.296384 139.352444 44.296384 139.352444 C 52.318826 136.910831 59.905266 133.684414 67.230104 129.934794 C 67.230104 129.934794 100.54068 163.158169 100.54068 163.158169 C 100.54068 163.158169 163.23781 100.461039 163.23781 100.461039 C 163.23781 100.461039 129.927234 67.237664 129.927234 67.237664 C 133.676854 59.912826 136.903271 52.239185 139.344884 44.303944 C 139.344884 44.303944 186.433132 44.303944 186.433132 44.303944 Z M 66.183699 3.494129 C 65.398895 19.190211 59.120462 33.403886 49.26681 44.303944 C 47.697202 46.047953 46.040393 47.704761 44.296384 49.27437 C 33.396326 59.128022 19.182652 65.406455 3.486569 66.191259 C 2.352963 66.278459 1.219357 66.278459 -0.00144927 66.278459 C -1.135055 66.278459 -2.355862 66.278459 -3.489468 66.191259 C -19.18555 65.406455 -33.399225 59.128022 -44.299282 49.27437 C -46.043291 47.704761 -47.7001 46.047953 -49.269708 44.303944 C -59.12336 33.403886 -65.401793 19.190211 -66.186597 3.494129 C -66.273798 2.360523 -66.273798 1.139716 -66.273798 0.00611047 C -66.273798 -1.127495 -66.273798 -2.348302 -66.186597 -3.481908 C -65.401793 -19.17799 -59.12336 -33.391665 -49.269708 -44.378923 C -47.7001 -46.035732 -46.043291 -47.69254 -44.299282 -49.262149 C -33.399225 -59.115801 -19.18555 -65.394234 -3.489468 -66.179038 C -2.355862 -66.266238 -1.135055 -66.266238 -0.00144927 -66.266238 C 1.219357 -66.266238 2.352963 -66.266238 3.486569 -66.179038 C 19.182652 -65.394234 33.396326 -59.115801 44.296384 -49.262149 C 46.040393 -47.69254 47.697202 -46.035732 49.26681 -44.378923 C 59.120462 -33.391665 65.398895 -19.17799 66.183699 -3.481908 C 66.270899 -2.348302 66.270899 -1.127495 66.270899 0.00611047 C 66.270899 1.139716 66.270899 2.360523 66.183699 3.494129 Z M 66.183699 3.494129 " stroke="#253237" stroke-width="2" stroke-opacity="1" stroke-miterlimit="4"/><path stroke-linecap="butt" transform="matrix(0.0447962, 0, 0, 0.0447962, 31.436981, 16.921162)" fill-opacity="1" fill="#253237" fill-rule="nonzero" stroke-linejoin="miter" d="M 69.161549 63.933854 C 69.161549 63.933854 -69.138378 63.933854 -69.138378 63.933854 C -78.643228 63.933854 -86.316869 56.260214 -86.316869 46.842564 C -86.316869 46.842564 -86.316869 -46.897929 -86.316869 -46.897929 C -86.316869 -56.315578 -78.643228 -63.989219 -69.138378 -63.989219 C -69.138378 -63.989219 69.161549 -63.989219 69.161549 -63.989219 C 78.666399 -63.989219 86.252839 -56.315578 86.252839 -46.897929 C 86.252839 -46.897929 86.252839 46.842564 86.252839 46.842564 C 86.252839 56.260214 78.666399 63.933854 69.161549 63.933854 Z M 69.161549 63.933854 " stroke="#253237" stroke-width="2" stroke-opacity="1" stroke-miterlimit="10"/><path stroke-linecap="butt" transform="matrix(0.0447962, 0, 0, 0.0447962, 30.852476, 16.336661)" fill-opacity="1" fill="#ffffff" fill-rule="nonzero" stroke-linejoin="miter" d="M 69.216761 63.988986 C 69.216761 63.988986 -69.170367 63.988986 -69.170367 63.988986 C -78.588017 63.988986 -86.261657 56.315346 -86.261657 46.897696 C -86.261657 46.897696 -86.261657 -46.842797 -86.261657 -46.842797 C -86.261657 -56.260447 -78.588017 -63.934087 -69.170367 -63.934087 C -69.170367 -63.934087 69.216761 -63.934087 69.216761 -63.934087 C 78.63441 -63.934087 86.308051 -56.260447 86.308051 -46.842797 C 86.308051 -46.842797 86.308051 46.897696 86.308051 46.897696 C 86.308051 56.315346 78.63441 63.988986 69.216761 63.988986 Z M 69.216761 63.988986 " stroke="#253237" stroke-width="2" stroke-opacity="1" stroke-miterlimit="10"/><path stroke-linecap="round" transform="matrix(0.0447962, 0, 0, 0.0447962, 30.852524, 16.336661)" fill="none" stroke-linejoin="round" d="M 52.822022 35.997639 C 52.822022 35.997639 -53.91134 33.992028 -53.91134 33.992028 C -53.91134 33.992028 -52.864934 -36.02994 -52.864934 -36.02994 C -52.864934 -36.02994 53.955628 -34.02433 53.955628 -34.02433 C 53.955628 -34.02433 52.822022 35.997639 52.822022 35.997639 Z M 52.822022 35.997639 " stroke="#253237" stroke-width="2" stroke-opacity="1" stroke-miterlimit="4"/><path stroke-linecap="round" transform="matrix(0.0447962, 0, 0, 0.0447962, 30.876981, 15.529925)" fill="none" stroke-linejoin="round" d="M -53.410906 -18.02092 C -53.410906 -18.02092 -0.567428 17.99287 -0.567428 17.99287 C -0.567428 17.99287 53.409656 -16.015309 53.409656 -16.015309 " stroke="#253237" stroke-width="2" stroke-opacity="1" stroke-miterlimit="4"/><path stroke-linecap="round" transform="matrix(0.0447962, 0, 0, 0.0447962, 29.389254, 16.92367)" fill="none" stroke-linejoin="round" d="M -21.246308 20.888038 C -21.246308 20.888038 21.220316 -20.880982 21.220316 -20.880982 " stroke="#253237" stroke-width="2" stroke-opacity="1" stroke-miterlimit="4"/><path stroke-linecap="round" transform="matrix(0.0447962, 0, 0, 0.0447962, 32.296531, 16.979038)" fill="none" stroke-linejoin="round" d="M 20.586998 21.657661 C 20.586998 21.657661 -20.571619 -21.680967 -20.571619 -21.680967 " stroke="#253237" stroke-width="2" stroke-opacity="1" stroke-miterlimit="4"/><path stroke-linecap="butt" transform="matrix(0.0447962, 0, 0, 0.0447962, 44.561507, 21.724547)" fill-opacity="1" fill="#253237" fill-rule="nonzero" stroke-linejoin="miter" d="M 69.172139 63.962919 C 69.172139 63.962919 -69.214989 63.962919 -69.214989 63.962919 C -78.632639 63.962919 -86.306279 56.289278 -86.306279 46.871629 C -86.306279 46.871629 -86.306279 -46.868864 -86.306279 -46.868864 C -86.306279 -56.286514 -78.632639 -63.960154 -69.214989 -63.960154 C -69.214989 -63.960154 69.172139 -63.960154 69.172139 -63.960154 C 78.589788 -63.960154 86.263429 -56.286514 86.263429 -46.868864 C 86.263429 -46.868864 86.263429 46.871629 86.263429 46.871629 C 86.263429 56.289278 78.589788 63.962919 69.172139 63.962919 Z M 69.172139 63.962919 " stroke="#253237" stroke-width="2" stroke-opacity="1" stroke-miterlimit="10"/><path stroke-linecap="butt" transform="matrix(0.0447962, 0, 0, 0.0447962, 43.977006, 21.198506)" fill-opacity="1" fill="#ffffff" fill-rule="nonzero" stroke-linejoin="miter" d="M 69.140065 63.93385 C 69.140065 63.93385 -69.159863 63.93385 -69.159863 63.93385 C -78.664713 63.93385 -86.251153 56.26021 -86.251153 46.84256 C -86.251153 46.84256 -86.251153 -46.897933 -86.251153 -46.897933 C -86.251153 -56.315583 -78.664713 -63.989223 -69.159863 -63.989223 C -69.159863 -63.989223 69.140065 -63.989223 69.140065 -63.989223 C 78.644915 -63.989223 86.318555 -56.315583 86.318555 -46.897933 C 86.318555 -46.897933 86.318555 46.84256 86.318555 46.84256 C 86.318555 56.26021 78.644915 63.93385 69.140065 63.93385 Z M 69.140065 63.93385 " stroke="#253237" stroke-width="2" stroke-opacity="1" stroke-miterlimit="10"/><path fill="#253237" d="M 45.621094 21.609375 C 45.621094 21.609375 43.113281 21.609375 43.113281 21.609375 C 43.078125 21.609375 43.050781 21.582031 43.050781 21.546875 C 43.050781 21.507812 43.078125 21.480469 43.113281 21.480469 C 43.113281 21.480469 45.566406 21.480469 45.566406 21.480469 C 45.566406 21.480469 45.839844 19.933594 45.839844 19.933594 C 45.839844 19.933594 42.878906 19.933594 42.878906 19.933594 C 42.84375 19.933594 42.8125 19.90625 42.8125 19.871094 C 42.8125 19.835938 42.84375 19.808594 42.878906 19.808594 C 42.878906 19.808594 45.917969 19.808594 45.917969 19.808594 C 45.9375 19.808594 45.957031 19.816406 45.96875 19.828125 C 45.980469 19.84375 45.984375 19.863281 45.980469 19.882812 C 45.980469 19.882812 45.683594 21.554688 45.683594 21.554688 C 45.675781 21.585938 45.652344 21.609375 45.621094 21.609375 Z M 45.621094 21.609375 " fill-opacity="1" fill-rule="nonzero"/><path fill="#253237" d="M 45.535156 22.195312 C 45.535156 22.195312 43.152344 22.1875 43.152344 22.1875 C 43.117188 22.1875 43.089844 22.164062 43.085938 22.128906 C 43.085938 22.128906 42.746094 19.488281 42.746094 19.488281 C 42.746094 19.488281 42.035156 19.488281 42.035156 19.488281 C 42 19.488281 41.972656 19.460938 41.972656 19.425781 C 41.972656 19.390625 42 19.363281 42.035156 19.363281 C 42.035156 19.363281 42.800781 19.363281 42.800781 19.363281 C 42.835938 19.363281 42.863281 19.386719 42.867188 19.417969 C 42.867188 19.417969 43.207031 22.058594 43.207031 22.058594 C 43.207031 22.058594 45.535156 22.066406 45.535156 22.066406 C 45.574219 22.066406 45.601562 22.09375 45.601562 22.128906 C 45.601562 22.167969 45.570312 22.195312 45.535156 22.195312 Z M 45.535156 22.195312 " fill-opacity="1" fill-rule="nonzero"/><path fill="#253237" d="M 43.539062 23.035156 C 43.339844 23.035156 43.179688 22.875 43.179688 22.675781 C 43.179688 22.480469 43.339844 22.320312 43.539062 22.320312 C 43.738281 22.320312 43.902344 22.480469 43.902344 22.675781 C 43.902344 22.875 43.738281 23.035156 43.539062 23.035156 Z M 43.539062 22.445312 C 43.410156 22.445312 43.308594 22.550781 43.308594 22.675781 C 43.308594 22.804688 43.410156 22.90625 43.539062 22.90625 C 43.667969 22.90625 43.773438 22.804688 43.773438 22.675781 C 43.773438 22.550781 43.667969 22.445312 43.539062 22.445312 Z M 43.539062 22.445312 " fill-opacity="1" fill-rule="nonzero"/><path fill="#253237" d="M 45.1875 23.035156 C 44.988281 23.035156 44.824219 22.875 44.824219 22.675781 C 44.824219 22.480469 44.988281 22.320312 45.1875 22.320312 C 45.386719 22.320312 45.546875 22.480469 45.546875 22.675781 C 45.546875 22.875 45.386719 23.035156 45.1875 23.035156 Z M 45.1875 22.445312 C 45.058594 22.445312 44.953125 22.550781 44.953125 22.675781 C 44.953125 22.804688 45.058594 22.90625 45.1875 22.90625 C 45.316406 22.90625 45.417969 22.804688 45.417969 22.675781 C 45.417969 22.550781 45.316406 22.445312 45.1875 22.445312 Z M 45.1875 22.445312 " fill-opacity="1" fill-rule="nonzero"/><path fill="#253237" d="M 43.886719 21.609375 C 43.855469 21.609375 43.824219 21.582031 43.824219 21.550781 C 43.824219 21.550781 43.722656 19.929688 43.722656 19.929688 C 43.71875 19.894531 43.746094 19.863281 43.78125 19.859375 C 43.820312 19.859375 43.847656 19.886719 43.851562 19.921875 C 43.851562 19.921875 43.953125 21.542969 43.953125 21.542969 C 43.953125 21.578125 43.925781 21.605469 43.890625 21.609375 C 43.890625 21.609375 43.890625 21.609375 43.886719 21.609375 Z M 43.886719 21.609375 " fill-opacity="1" fill-rule="nonzero"/><path fill="#253237" d="M 44.804688 21.609375 C 44.800781 21.609375 44.800781 21.609375 44.800781 21.609375 C 44.765625 21.605469 44.738281 21.578125 44.738281 21.542969 C 44.738281 21.542969 44.832031 19.921875 44.832031 19.921875 C 44.832031 19.886719 44.859375 19.859375 44.898438 19.859375 C 44.933594 19.863281 44.960938 19.894531 44.960938 19.929688 C 44.960938 19.929688 44.867188 21.546875 44.867188 21.546875 C 44.867188 21.582031 44.835938 21.609375 44.804688 21.609375 Z M 44.804688 21.609375 " fill-opacity="1" fill-rule="nonzero"/><path fill="#253237" d="M 42.972656 20.800781 C 42.9375 20.800781 42.90625 20.769531 42.90625 20.734375 C 42.90625 20.699219 42.933594 20.671875 42.972656 20.671875 C 42.972656 20.671875 45.769531 20.644531 45.769531 20.644531 C 45.808594 20.644531 45.832031 20.671875 45.832031 20.707031 C 45.832031 20.742188 45.804688 20.773438 45.769531 20.773438 C 45.769531 20.773438 42.972656 20.800781 42.972656 20.800781 Z M 42.972656 20.800781 " fill-opacity="1" fill-rule="nonzero"/><path stroke-linecap="butt" transform="matrix(0.0447962, 0, 0, 0.0447962, 53.833785, 31.549875)" fill-opacity="1" fill="#253237" fill-rule="nonzero" stroke-linejoin="miter" d="M 69.198007 63.938171 C 69.198007 63.938171 -69.189121 63.938171 -69.189121 63.938171 C -78.606771 63.938171 -86.280411 56.264531 -86.280411 46.846881 C -86.280411 46.846881 -86.280411 -46.893612 -86.280411 -46.893612 C -86.280411 -56.311262 -78.606771 -63.984902 -69.189121 -63.984902 C -69.189121 -63.984902 69.198007 -63.984902 69.198007 -63.984902 C 78.615656 -63.984902 86.289297 -56.311262 86.289297 -46.893612 C 86.289297 -46.893612 86.289297 46.846881 86.289297 46.846881 C 86.289297 56.264531 78.615656 63.938171 69.198007 63.938171 Z M 69.198007 63.938171 " stroke="#253237" stroke-width="2" stroke-opacity="1" stroke-miterlimit="10"/><path stroke-linecap="butt" transform="matrix(0.0447962, 0, 0, 0.0447962, 53.249285, 30.965374)" fill-opacity="1" fill="#ffffff" fill-rule="nonzero" stroke-linejoin="miter" d="M 69.165933 63.993303 C 69.165933 63.993303 -69.133995 63.993303 -69.133995 63.993303 C -78.638845 63.993303 -86.312485 56.319662 -86.312485 46.814812 C -86.312485 46.814812 -86.312485 -46.83848 -86.312485 -46.83848 C -86.312485 -56.34333 -78.638845 -63.92977 -69.133995 -63.92977 C -69.133995 -63.92977 69.165933 -63.92977 69.165933 -63.92977 C 78.583582 -63.92977 86.257223 -56.34333 86.257223 -46.83848 C 86.257223 -46.83848 86.257223 46.814812 86.257223 46.814812 C 86.257223 56.319662 78.583582 63.993303 69.165933 63.993303 Z M 69.165933 63.993303 " stroke="#253237" stroke-width="2" stroke-opacity="1" stroke-miterlimit="10"/><path stroke-linecap="round" transform="matrix(0.0447962, 0, 0, 0.0447962, 53.249285, 30.965374)" fill="none" stroke-linejoin="round" d="M 41.348986 -0.0118341 C 41.348986 22.834686 22.775289 41.321183 0.0159689 41.321183 C -22.830551 41.321183 -41.317049 22.834686 -41.317049 -0.0118341 C -41.317049 -22.771154 -22.830551 -41.344852 0.0159689 -41.344852 C 22.775289 -41.344852 41.348986 -22.771154 41.348986 -0.0118341 Z M 41.348986 -0.0118341 " stroke="#253237" stroke-width="2" stroke-opacity="1" stroke-miterlimit="4"/><path stroke-linecap="round" transform="matrix(0.0447962, 0, 0, 0.0447962, 53.243953, 30.965374)" fill="none" stroke-linejoin="round" d="M 0.483792 -41.344852 C 29.347144 -41.344852 29.347144 41.321183 0.483792 41.321183 C -29.338765 41.321183 -29.338765 -41.344852 0.483792 -41.344852 Z M 0.483792 -41.344852 " stroke="#253237" stroke-width="2" stroke-opacity="1" stroke-miterlimit="4"/><path stroke-linecap="round" transform="matrix(0.0447962, 0, 0, 0.0447962, 49.160198, 27.876138)" fill="none" stroke-linejoin="round" d="M 91.646755 27.617135 C 91.646755 27.617135 91.646755 110.28317 91.646755 110.28317 " stroke="#253237" stroke-width="2" stroke-opacity="1" stroke-miterlimit="4"/><path stroke-linecap="round" transform="matrix(0.0447962, 0, 0, 0.0447962, 49.160198, 27.876138)" fill="none" stroke-linejoin="round" d="M 49.964935 68.950152 C 49.964935 68.950152 132.63097 68.950152 132.63097 68.950152 " stroke="#253237" stroke-width="2" stroke-opacity="1" stroke-miterlimit="4"/><path stroke-linecap="round" transform="matrix(0.0447962, 0, 0, 0.0447962, 19.275706, 44.66565)" fill-opacity="1" fill="#3884c3" fill-rule="nonzero" stroke-linejoin="round" d="M 214.811293 -41.019645 C 214.811293 -41.019645 208.009658 176.719901 208.009658 176.719901 C 208.009658 176.719901 206.352849 220.756132 206.352849 220.756132 C 206.352849 220.756132 206.352849 221.540937 206.352849 221.540937 C 206.352849 221.540937 206.178448 220.756132 206.178448 220.756132 C 206.178448 220.756132 -158.755472 196.776006 -158.755472 196.776006 C -158.755472 196.776006 -175.41076 176.719901 -175.41076 176.719901 C -175.41076 176.719901 -205.582118 -64.127766 -205.582118 -64.127766 C -216.046173 -147.927407 -145.501002 -221.524595 -54.725325 -221.524595 C -54.725325 -221.524595 26.109501 -221.524595 26.109501 -221.524595 C 89.591435 -221.524595 145.66133 -192.399641 179.843909 -147.927407 C 202.864831 -117.930449 216.0321 -80.870255 214.811293 -41.019645 Z M 214.811293 -41.019645 " stroke="#253237" stroke-width="2" stroke-opacity="1" stroke-miterlimit="4"/><path stroke-linecap="round" transform="matrix(0.0447962, 0, 0, 0.0447962, 28.677983, 45.866189)" fill-opacity="1" fill="#d4d4d4" fill-rule="nonzero" stroke-linejoin="round" d="M 61.165564 193.956119 C 61.165564 193.956119 -3.537177 193.956119 -3.537177 193.956119 C -3.537177 193.956119 -3.537177 194.740923 -3.537177 194.740923 C -3.537177 194.740923 -3.711578 193.956119 -3.711578 193.956119 C -3.711578 193.956119 -14.960437 149.919888 -14.960437 149.919888 C -14.960437 149.919888 -59.25827 -59.797216 -59.25827 -59.797216 C -61.17668 -101.566236 -50.015021 -147.782479 -30.046116 -174.72742 C -23.24448 -183.970669 -15.483639 -190.946706 -6.850794 -194.696325 C 13.205311 -134.78961 33.523018 1.330306 53.927926 149.919888 C 56.369539 167.44718 58.811151 176.167226 61.165564 193.956119 Z M 61.165564 193.956119 " stroke="#253237" stroke-width="2" stroke-opacity="1" stroke-miterlimit="4"/><path stroke-linecap="round" transform="matrix(0.0447962, 0, 0, 0.0447962, 21.20481, 44.398886)" fill-opacity="1" fill="#d4d4d4" fill-rule="nonzero" stroke-linejoin="round" d="M 161.196044 -162.028457 C 130.327082 -179.381348 100.242924 -194.379827 71.553973 -204.669481 C 71.553973 -204.669481 -61.513927 -210.337511 -61.513927 -210.337511 C -96.13251 -195.600633 -129.704686 -178.073341 -161.184052 -155.401222 C -161.184052 -155.401222 -79.477222 201.946258 -79.477222 201.946258 C 9.903248 210.317502 81.146023 208.399092 125.618257 191.046201 C 125.618257 191.046201 161.196044 -162.028457 161.196044 -162.028457 Z M 161.196044 -162.028457 " stroke="#253237" stroke-width="2" stroke-opacity="1" stroke-miterlimit="4"/><path stroke-linecap="butt" transform="matrix(0.0447962, 0, 0, 0.0447962, 21.149264, 34.384248)" fill-opacity="1" fill="#ffffff" fill-rule="nonzero" stroke-linejoin="miter" d="M -46.409095 -66.827591 C -46.409095 -66.827591 -39.78186 -5.438468 -39.78186 -5.438468 C -39.78186 -5.438468 24.310478 66.850713 24.310478 66.850713 C 24.310478 66.850713 46.459394 21.419274 46.459394 21.419274 C 46.459394 21.419274 44.104982 -37.964239 44.104982 -37.964239 C 44.104982 -37.964239 -46.409095 -66.827591 -46.409095 -66.827591 Z M -46.409095 -66.827591 " stroke="#253237" stroke-width="2" stroke-opacity="1" stroke-miterlimit="10"/><path stroke-linecap="round" transform="matrix(0.0447962, 0, 0, 0.0447962, 19.951904, 35.709006)" fill-opacity="1" fill="#d4d4d4" fill-rule="nonzero" stroke-linejoin="round" d="M 51.039519 37.27771 C 51.039519 37.27771 18.688149 20.971224 18.688149 20.971224 C 18.688149 20.971224 1.945661 46.86976 1.945661 46.86976 C 1.945661 46.86976 -51.072218 -18.704985 -51.072218 -18.704985 C -51.072218 -18.704985 -27.179292 -46.34753 -27.179292 -46.34753 C -27.179292 -46.34753 -14.360825 -46.870733 -14.360825 -46.870733 C -14.360825 -46.870733 -13.052818 -35.011471 -13.052818 -35.011471 C -13.052818 -35.011471 51.039519 37.27771 51.039519 37.27771 Z M 51.039519 37.27771 " stroke="#253237" stroke-width="2" stroke-opacity="1" stroke-miterlimit="4"/><path stroke-linecap="round" transform="matrix(0.0447962, 0, 0, 0.0447962, 23.323535, 36.075887)" fill-opacity="1" fill="#d4d4d4" fill-rule="nonzero" stroke-linejoin="round" d="M -24.226467 29.087716 C -24.226467 29.087716 -2.775154 14.263638 -2.775154 14.263638 C -2.775154 14.263638 22.512979 37.982163 22.512979 37.982163 C 22.512979 37.982163 24.256989 -18.872536 24.256989 -18.872536 C 24.256989 -18.872536 -2.949555 -37.969436 -2.949555 -37.969436 C -2.949555 -37.969436 -2.07755 -16.343723 -2.07755 -16.343723 C -2.07755 -16.343723 -24.226467 29.087716 -24.226467 29.087716 Z M -24.226467 29.087716 " stroke="#253237" stroke-width="2" stroke-opacity="1" stroke-miterlimit="4"/><path stroke-linecap="round" transform="matrix(0.0447962, 0, 0, 0.0447962, 22.044424, 37.789297)" fill-opacity="1" fill="#3884c3" fill-rule="nonzero" stroke-linejoin="round" d="M 20.546828 -20.322943 C 23.075641 -3.754855 21.767634 10.371619 16.535607 21.96928 C 16.535607 21.96928 -9.973333 22.928485 -9.973333 22.928485 C -18.082975 11.505225 -21.570994 -4.71406 -23.053401 -22.938956 C -23.053401 -22.938956 4.327543 -9.161284 4.327543 -9.161284 C 4.327543 -9.161284 20.546828 -20.322943 20.546828 -20.322943 Z M 20.546828 -20.322943 " stroke="#253237" stroke-width="2" stroke-opacity="1" stroke-miterlimit="4"/><path stroke-linecap="round" transform="matrix(0.0447962, 0, 0, 0.0447962, 22.521865, 45.601666)" fill-opacity="1" fill="#3884c3" fill-rule="nonzero" stroke-linejoin="round" d="M 5.877537 -152.428722 C 5.877537 -152.428722 30.729668 -28.168069 30.729668 -28.168069 C 27.416051 28.337829 19.044807 89.726952 9.365556 152.424082 C -6.592128 96.266986 -21.503407 37.406676 -30.746655 -34.359301 C -30.746655 -34.359301 -20.631402 -151.469517 -20.631402 -151.469517 C -20.631402 -151.469517 5.877537 -152.428722 5.877537 -152.428722 Z M 5.877537 -152.428722 " stroke="#253237" stroke-width="2" stroke-opacity="1" stroke-miterlimit="4"/><path stroke-linecap="round" transform="matrix(0.0447962, 0, 0, 0.0447962, 13.242015, 45.76952)" fill-opacity="1" fill="#d4d4d4" fill-rule="nonzero" stroke-linejoin="round" d="M 66.799407 -29.473501 C 66.799407 -29.473501 20.408763 136.992175 20.408763 136.992175 C 5.846286 185.388429 -72.895728 161.757105 -58.333251 113.27365 C -37.14354 1.831464 -11.506605 -96.530654 17.356747 -185.387921 C 55.724949 -154.170157 72.903439 -102.896287 66.799407 -29.473501 Z M 66.799407 -29.473501 " stroke="#253237" stroke-width="2" stroke-opacity="1" stroke-miterlimit="4"/><path stroke-linecap="round" transform="matrix(0.0447962, 0, 0, 0.0447962, 21.131121, 32.955919)" fill-opacity="1" fill="#253237" fill-rule="nonzero" stroke-linejoin="round" d="M 42.940392 0.984026 C 42.940392 0.984026 43.812396 22.086537 43.812396 22.086537 C -1.880644 24.702551 -25.424768 6.128853 -43.736864 -24.740109 C -14.001508 -5.294407 12.769033 2.640835 42.940392 0.984026 Z M 42.940392 0.984026 " stroke="#253237" stroke-width="2" stroke-opacity="1" stroke-miterlimit="4"/><path stroke-linecap="butt" transform="matrix(0.0447962, 0, 0, 0.0447962, 22.972871, 44.305531)" fill-opacity="1" fill="#ffffff" fill-rule="nonzero" stroke-linejoin="miter" d="M -57.6443 2.684389 C -46.744243 -13.360495 -32.356167 -27.66137 -16.311283 -41.090241 C -14.044071 -42.83425 -11.515258 -44.229457 -8.637643 -44.66546 C -4.103219 -45.363063 -0.876802 -43.531854 1.128809 -39.607833 C 4.180825 -33.939803 2.785618 -26.789366 -1.748806 -22.254942 C -1.748806 -22.254942 -17.793691 -5.861256 -17.793691 -5.861256 C -9.073645 -7.518064 -0.964002 -10.48288 6.709638 -14.3197 C 16.65049 -19.290126 24.062529 -28.097372 27.89935 -38.474227 C 27.89935 -38.561428 27.98655 -38.648628 27.98655 -38.735828 C 31.561769 -48.50228 44.99064 -49.461485 49.873865 -40.305437 C 50.397068 -39.259031 50.920271 -38.125425 51.443474 -36.991819 C 57.721907 -22.167741 54.669891 -5.163652 44.641838 7.306014 C 36.357794 17.595668 25.283336 26.577315 9.936055 33.466151 C 9.936055 33.466151 -37.064992 49.423835 -37.064992 49.423835 C -37.064992 49.423835 -57.6443 2.684389 -57.6443 2.684389 Z M -57.6443 2.684389 " stroke="#253237" stroke-width="2" stroke-opacity="1" stroke-miterlimit="10"/><path fill="#d4d4d4" d="M 13.410156 52.902344 C 11.667969 54.269531 9.394531 51.375 11.132812 50.007812 C 11.132812 50.007812 20.480469 43.964844 20.480469 43.964844 C 20.480469 43.964844 21.835938 46.550781 21.835938 46.550781 C 21.835938 46.550781 13.410156 52.902344 13.410156 52.902344 Z M 13.410156 52.902344 " fill-opacity="1" fill-rule="nonzero"/><path stroke-linecap="butt" transform="matrix(0.0447962, 0, 0, 0.0447962, 17.622952, 48.433371)" fill="none" stroke-linejoin="miter" d="M 63.789248 -99.75236 C 63.789248 -99.75236 94.047807 -42.025657 94.047807 -42.025657 C 94.047807 -42.025657 -94.043582 99.762289 -94.043582 99.762289 " stroke="#253237" stroke-width="2" stroke-opacity="1" stroke-miterlimit="10"/><path stroke-linecap="round" transform="matrix(0.0447962, 0, 0, 0.0447962, 11.692201, 52.158487)" fill="none" stroke-linejoin="round" d="M -21.469064 -41.382958 C -38.298753 3.089276 0.679852 41.370278 38.35045 16.605347 " stroke="#253237" stroke-width="2" stroke-opacity="1" stroke-miterlimit="4"/><path stroke-linecap="round" transform="matrix(0.0447962, 0, 0, 0.0447962, 16.751708, 46.374135)" fill="none" stroke-linejoin="round" d="M -83.227371 53.821998 C -83.227371 53.821998 83.238305 -53.783368 83.238305 -53.783368 " stroke="#253237" stroke-width="2" stroke-opacity="1" stroke-miterlimit="4"/><path stroke-linecap="round" transform="matrix(0.0447962, 0, 0, 0.0447962, 25.476261, 25.993918)" fill-opacity="1" fill="#253237" fill-rule="nonzero" stroke-linejoin="round" d="M 7.593177 -36.488415 C 16.138822 -12.944291 12.214801 11.471838 -1.737272 36.498369 C -1.737272 36.498369 -16.125348 -31.86679 -16.125348 -31.86679 C -16.125348 -31.86679 7.593177 -36.488415 7.593177 -36.488415 Z M 7.593177 -36.488415 " stroke="#253237" stroke-width="2" stroke-opacity="1" stroke-miterlimit="4"/><path stroke-linecap="butt" transform="matrix(0.0447962, 0, 0, 0.0447962, 22.04586, 27.949049)" fill-opacity="1" fill="#ffffff" fill-rule="nonzero" stroke-linejoin="miter" d="M -73.748921 -12.20428 C -73.748921 -12.20428 -71.307308 32.529555 -71.307308 32.529555 C -71.307308 32.529555 -65.377677 86.157837 -65.377677 86.157837 C -28.927885 109.701961 9.178715 120.95082 50.162931 109.614761 C 58.882977 107.173148 65.771813 100.284312 68.213426 91.564266 C 79.026283 52.934462 78.328679 0.00378394 66.556617 -66.791767 C 32.722839 -120.943252 -37.386329 -114.83922 -78.980948 -67.489371 C -78.980948 -67.489371 -73.748921 -12.20428 -73.748921 -12.20428 Z M -73.748921 -12.20428 " stroke="#253237" stroke-width="2" stroke-opacity="1" stroke-miterlimit="10"/><path stroke-linecap="butt" transform="matrix(0.0447962, 0, 0, 0.0447962, 18.061235, 28.126486)" fill-opacity="1" fill="#ffffff" fill-rule="nonzero" stroke-linejoin="miter" d="M 15.201111 -16.165256 C 5.957863 -30.29173 -17.847862 -19.914875 -9.563819 3.97805 C -0.930973 23.859755 8.399476 28.65578 17.817125 30.312589 C 17.817125 30.312589 15.201111 -16.165256 15.201111 -16.165256 Z M 15.201111 -16.165256 " stroke="#253237" stroke-width="2" stroke-opacity="1" stroke-miterlimit="10"/><path stroke-linecap="round" transform="matrix(0.0447962, 0, 0, 0.0447962, 18.610213, 25.955439)" fill-opacity="1" fill="#253237" fill-rule="nonzero" stroke-linejoin="round" d="M 20.560601 -43.128685 C 39.134299 -16.706946 27.013435 37.182938 4.515717 52.007016 C 4.515717 52.007016 2.946108 32.299712 2.946108 32.299712 C -3.070723 26.370081 -9.523557 22.969263 -17.371599 29.160496 C -35.858096 -3.278075 -39.171713 -30.74622 -23.562831 -52.023132 C -23.562831 -52.023132 20.560601 -43.128685 20.560601 -43.128685 Z M 20.560601 -43.128685 " stroke="#253237" stroke-width="2" stroke-opacity="1" stroke-miterlimit="4"/><path stroke-linecap="round" transform="matrix(0.0447962, 0, 0, 0.0447962, 22.16264, 23.054928)" fill-opacity="1" fill="#253237" fill-rule="nonzero" stroke-linejoin="round" d="M 74.936951 -46.744804 C 102.841098 -8.027801 90.371432 22.841162 65.519302 51.442912 C 42.585581 28.770793 3.606976 27.375586 -49.934106 45.25168 C -49.934106 45.25168 -102.864784 12.725909 -102.864784 12.725909 C -100.074369 -34.100738 -49.149302 -51.366429 -8.601088 -29.740715 C 34.911941 -13.60863 63.33929 -18.404655 74.936951 -46.744804 Z M 74.936951 -46.744804 " stroke="#253237" stroke-width="2" stroke-opacity="1" stroke-miterlimit="4"/><path stroke-linecap="butt" transform="matrix(0.0447962, 0, 0, 0.0447962, 19.73697, 29.786812)" fill="none" stroke-linejoin="miter" d="M -25.258868 -24.889084 C -14.969214 -1.170559 -0.581139 18.013542 25.230197 24.902378 " stroke="#253237" stroke-width="4" stroke-opacity="1" stroke-miterlimit="10"/><path stroke-linecap="butt" transform="matrix(0.0447962, 0, 0, 0.0447962, 20.947679, 30.914201)" fill-opacity="1" fill="#253237" fill-rule="nonzero" stroke-linejoin="miter" d="M 2.301593 7.234537 C 2.301593 7.234537 -6.418453 5.054526 -6.418453 5.054526 C -9.121667 4.444122 -10.691276 2.00251 -9.906471 -0.351903 C -9.906471 -0.351903 -8.598465 -4.188723 -8.598465 -4.188723 C -7.900861 -6.543135 -5.023246 -7.938343 -2.320031 -7.240739 C -2.320031 -7.240739 6.400014 -5.060728 6.400014 -5.060728 C 9.103229 -4.450324 10.672837 -2.008712 9.888033 0.345701 C 9.888033 0.345701 8.667226 4.182521 8.667226 4.182521 C 7.882422 6.536933 5.004807 7.932141 2.301593 7.234537 Z M 2.301593 7.234537 " stroke="#253237" stroke-width="2" stroke-opacity="1" stroke-miterlimit="10"/><path stroke-linecap="butt" transform="matrix(0.0447962, 0, 0, 0.0447962, 18.564922, 28.298819)" fill-opacity="1" fill="#3884c3" fill-rule="nonzero" stroke-linejoin="miter" d="M 29.942883 -0.0433992 C 29.942883 16.524688 16.601213 29.953559 0.0331257 29.953559 C -16.534961 29.953559 -29.963832 16.524688 -29.963832 -0.0433992 C -29.963832 -16.524286 -16.534961 -29.953157 0.0331257 -29.953157 C 16.601213 -29.953157 29.942883 -16.524286 29.942883 -0.0433992 Z M 29.942883 -0.0433992 " stroke="#253237" stroke-width="2" stroke-opacity="1" stroke-miterlimit="10"/><path stroke-linecap="butt" transform="matrix(0.0447962, 0, 0, 0.0447962, 20.267761, 25.085137)" fill-opacity="1" fill="#3884c3" fill-rule="nonzero" stroke-linejoin="miter" d="M -50.711157 68.034237 C -44.083922 13.53395 -28.56224 -38.437523 24.71724 -79.160137 C 40.500523 -81.60175 43.639739 -78.985737 52.534186 -69.132085 C -7.285328 -44.977558 -22.894211 8.389123 -32.486261 71.435055 C -34.317471 81.550308 -52.542367 78.14949 -50.711157 68.034237 Z M -50.711157 68.034237 " stroke="#253237" stroke-width="2" stroke-opacity="1" stroke-miterlimit="10"/><path stroke-linecap="round" transform="matrix(0.0447962, 0, 0, 0.0447962, 23.978591, 28.527995)" fill="none" stroke-linejoin="round" d="M -5.887721 -33.935528 C -3.70771 -8.996196 2.483523 12.019114 12.773177 29.110404 C 3.617129 32.772823 -4.841316 33.99363 -12.776557 33.208826 " stroke="#253237" stroke-width="2" stroke-opacity="1" stroke-miterlimit="4"/><path stroke-linecap="round" transform="matrix(0.0447962, 0, 0, 0.0447962, 21.576976, 26.608569)" fill="none" stroke-linejoin="round" d="M 12.146516 -5.039627 C 1.159258 -6.260434 -6.950385 -2.510814 -12.182412 6.296432 " stroke="#253237" stroke-width="2" stroke-opacity="1" stroke-miterlimit="4"/><path stroke-linecap="round" transform="matrix(0.0447962, 0, 0, 0.0447962, 24.606591, 26.830086)" fill="none" stroke-linejoin="round" d="M 9.828606 3.09545 C 4.770979 -1.002972 -1.420253 -3.095783 -9.878698 -0.479769 " stroke="#253237" stroke-width="2" stroke-opacity="1" stroke-miterlimit="4"/><path stroke-linecap="round" transform="matrix(0.0447962, 0, 0, 0.0447962, 21.975799, 28.066818)" fill-opacity="1" fill="#253237" fill-rule="nonzero" stroke-linejoin="round" d="M -5.04058 0.165204 C -4.778979 5.746034 -2.424566 10.106056 0.365848 9.931656 C 3.156263 9.844455 5.249074 5.310031 4.987473 -0.183598 C 4.813072 -5.677227 2.371459 -10.12445 -0.418956 -9.950049 C -3.12217 -9.862849 -5.214981 -5.328425 -5.04058 0.165204 Z M -5.04058 0.165204 " stroke="#253237" stroke-width="2" stroke-opacity="1" stroke-miterlimit="4"/><path stroke-linecap="round" transform="matrix(0.0447962, 0, 0, 0.0447962, 24.637857, 27.697833)" fill-opacity="1" fill="#253237" fill-rule="nonzero" stroke-linejoin="round" d="M -3.949429 0.118145 C -3.775028 4.652569 -1.856618 8.227788 0.323394 8.140588 C 2.503405 8.053387 4.160214 4.303767 3.985813 -0.143456 C 3.811412 -4.590679 1.893002 -8.165898 -0.28701 -8.078698 C -2.467021 -7.991497 -4.12383 -4.329078 -3.949429 0.118145 Z M -3.949429 0.118145 " stroke="#253237" stroke-width="2" stroke-opacity="1" stroke-miterlimit="4"/><path stroke-linecap="round" transform="matrix(0.0447962, 0, 0, 0.0447962, 22.531451, 31.37596)" fill="none" stroke-linejoin="round" d="M 14.819592 4.338583 C 3.919534 3.81538 -6.195719 1.460967 -14.828564 -4.381463 " stroke="#253237" stroke-width="2" stroke-opacity="1" stroke-miterlimit="4"/><path stroke-linecap="round" transform="matrix(0.0447962, 0, 0, 0.0447962, 55.617708, 47.805369)" fill-opacity="1" fill="#ffffff" fill-rule="nonzero" stroke-linejoin="round" d="M 7.749227 -86.518066 C 8.18523 -89.570082 10.626842 -91.924495 13.678859 -92.186096 C 17.951681 -92.534898 21.439699 -88.785278 20.829296 -84.599656 C 20.829296 -84.599656 -8.208457 92.504476 -8.208457 92.504476 C -8.208457 92.504476 -21.462926 92.504476 -21.462926 92.504476 C -21.462926 92.504476 7.749227 -86.518066 7.749227 -86.518066 Z M 7.749227 -86.518066 " stroke="#253237" stroke-width="2" stroke-opacity="1" stroke-miterlimit="4"/><path stroke-linecap="round" transform="matrix(0.0447962, 0, 0, 0.0447962, 53.649811, 41.35391)" fill-opacity="1" fill="#ffffff" fill-rule="nonzero" stroke-linejoin="round" d="M 61.968875 59.679907 C 61.968875 59.679907 -57.582954 -71.731184 -57.582954 -71.731184 C -57.582954 -71.731184 -58.454959 -70.335977 -58.454959 -70.335977 C -58.454959 -70.335977 -64.297389 -60.743926 -64.297389 -60.743926 C -64.297389 -60.743926 52.202424 68.574354 52.202424 68.574354 C 55.080039 71.713571 60.137665 71.364769 62.579278 67.87675 C 64.323287 65.347937 64.061686 61.947119 61.968875 59.679907 Z M 61.968875 59.679907 " stroke="#253237" stroke-width="2" stroke-opacity="1" stroke-miterlimit="4"/><path stroke-linecap="round" transform="matrix(0.0447962, 0, 0, 0.0447962, 54.743735, 52.262634)" fill-opacity="1" fill="#d4d4d4" fill-rule="nonzero" stroke-linejoin="round" d="M -54.447621 8.699613 C -54.447621 8.699613 54.465752 8.699613 54.465752 8.699613 C 54.465752 8.699613 40.513679 -8.653278 4.325489 -8.653278 C -29.508289 -8.653278 -49.564395 1.287574 -54.447621 8.699613 Z M -54.447621 8.699613 " stroke="#253237" stroke-width="2" stroke-opacity="1" stroke-miterlimit="4"/><path stroke-linecap="round" transform="matrix(0.0447962, 0, 0, 0.0447962, 51.062514, 36.903181)" fill-opacity="1" fill="#d4d4d4" fill-rule="nonzero" stroke-linejoin="round" d="M 0.784501 6.782936 C 0.784501 6.782936 6.36533 -1.501108 6.36533 -1.501108 C 6.36533 -1.501108 -0.523506 -6.733135 -0.523506 -6.733135 C -0.523506 -6.733135 -6.365937 1.550908 -6.365937 1.550908 C -6.365937 1.550908 0.784501 6.782936 0.784501 6.782936 Z M 0.784501 6.782936 " stroke="#253237" stroke-width="2" stroke-opacity="1" stroke-miterlimit="4"/><path stroke-linecap="round" transform="matrix(0.0447962, 0, 0, 0.0447962, 49.225377, 39.194644)" fill-opacity="1" fill="#ffffff" fill-rule="nonzero" stroke-linejoin="round" d="M 51.213143 -39.39968 C 51.213143 -39.39968 27.407417 -56.665371 27.407417 -56.665371 C 27.407417 -56.665371 4.473697 -29.110026 4.473697 -29.110026 C -35.202512 -22.744392 -51.247396 2.28214 -51.247396 2.28214 C -51.247396 2.28214 19.820978 56.608025 19.820978 56.608025 C 44.149906 29.750284 32.639445 -8.617918 32.639445 -8.617918 C 32.639445 -8.617918 51.213143 -39.39968 51.213143 -39.39968 Z M 51.213143 -39.39968 " stroke="#253237" stroke-width="2" stroke-opacity="1" stroke-miterlimit="4"/><path stroke-linecap="round" transform="matrix(0.0447962, 0, 0, 0.0447962, 50.056884, 38.348708)" fill="none" stroke-linejoin="round" d="M -14.088316 -10.225932 C -14.088316 -10.225932 14.077432 10.266176 14.077432 10.266176 " stroke="#253237" stroke-width="2" stroke-opacity="1" stroke-miterlimit="4"/><path stroke-linecap="round" transform="matrix(0.0447962, 0, 0, 0.0447962, 26.952479, 52.251482)" fill-opacity="1" fill="#ffffff" fill-rule="nonzero" stroke-linejoin="round" d="M 110.323004 11.041369 C 110.323004 11.041369 -110.294157 11.041369 -110.294157 11.041369 C -110.294157 11.041369 -110.294157 -11.020347 -110.294157 -11.020347 C -110.294157 -11.020347 110.323004 -11.020347 110.323004 -11.020347 C 110.323004 -11.020347 110.323004 11.041369 110.323004 11.041369 Z M 110.323004 11.041369 " stroke="#253237" stroke-width="2" stroke-opacity="1" stroke-miterlimit="4"/><path stroke-linecap="round" transform="matrix(0.0447962, 0, 0, 0.0447962, 35.255143, 41.821895)" fill-opacity="1" fill="#ffffff" fill-rule="nonzero" stroke-linejoin="round" d="M -245.060901 160.936726 C -245.060901 160.936726 245.092878 160.936726 245.092878 160.936726 C 245.092878 160.936726 245.092878 -160.920167 245.092878 -160.920167 C 245.092878 -160.920167 -245.060901 -160.920167 -245.060901 -160.920167 C -245.060901 -160.920167 -245.060901 160.936726 -245.060901 160.936726 Z M -245.060901 160.936726 " stroke="#253237" stroke-width="2" stroke-opacity="1" stroke-miterlimit="4"/><path stroke-linecap="round" transform="matrix(0.0447962, 0, 0, 0.0447962, 23.883717, 41.821942)" fill-opacity="1" fill="#ffffff" fill-rule="nonzero" stroke-linejoin="round" d="M 8.78706 -160.921231 C 8.78706 -160.921231 -8.740232 -160.921231 -8.740232 -160.921231 C -8.740232 -160.921231 -8.740232 160.935663 -8.740232 160.935663 C -8.740232 160.935663 8.78706 160.935663 8.78706 160.935663 C 8.78706 160.935663 8.78706 -160.921231 8.78706 -160.921231 Z M 8.78706 -160.921231 " stroke="#253237" stroke-width="2" stroke-opacity="1" stroke-miterlimit="4"/><path stroke-linecap="round" transform="matrix(0.0447962, 0, 0, 0.0447962, 36.978812, 48.741834)" fill-opacity="1" fill="#ffffff" fill-rule="nonzero" stroke-linejoin="round" d="M -86.814668 -83.791741 C -86.814668 -83.791741 30.55715 -83.791741 30.55715 -83.791741 C 30.55715 -83.791741 86.888646 83.807541 86.888646 83.807541 C 86.888646 83.807541 -56.643309 83.807541 -56.643309 83.807541 C -56.643309 83.807541 -86.814668 -83.791741 -86.814668 -83.791741 Z M -86.814668 -83.791741 " stroke="#253237" stroke-width="2" stroke-opacity="1" stroke-miterlimit="4"/><path stroke-linecap="round" transform="matrix(0.0447962, 0, 0, 0.0447962, 33.342034, 48.741834)" fill-opacity="1" fill="#ffffff" fill-rule="nonzero" stroke-linejoin="round" d="M -5.629731 -83.791741 C -5.629731 -83.791741 -24.55223 -83.791741 -24.55223 -83.791741 C -24.55223 -83.791741 2.21831 83.807541 2.21831 83.807541 C 2.21831 83.807541 24.541628 83.807541 24.541628 83.807541 C 24.541628 83.807541 -5.629731 -83.791741 -5.629731 -83.791741 Z M -5.629731 -83.791741 " stroke="#253237" stroke-width="2" stroke-opacity="1" stroke-miterlimit="4"/><path stroke-linecap="round" transform="matrix(0.0447962, 0, 0, 0.0447962, 34.516947, 53.768862)" fill-opacity="1" fill="#253237" fill-rule="nonzero" stroke-linejoin="round" d="M -609.647916 26.523873 C -609.647916 26.523873 609.588899 26.523873 609.588899 26.523873 C 609.588899 26.523873 609.588899 -26.494005 609.588899 -26.494005 C 609.588899 -26.494005 -609.647916 -26.494005 -609.647916 -26.494005 C -609.647916 -26.494005 -609.647916 26.523873 -609.647916 26.523873 Z M -609.647916 26.523873 " stroke="#253237" stroke-width="2" stroke-opacity="1" stroke-miterlimit="4"/><path stroke-linecap="round" transform="matrix(0.0447962, 0, 0, 0.0447962, 58.362998, 53.768731)" fill-opacity="1" fill="#253237" fill-rule="nonzero" stroke-linejoin="round" d="M 77.265939 26.526798 C 77.265939 26.526798 -77.253274 26.526798 -77.253274 26.526798 C -77.253274 26.526798 -77.253274 -26.49108 -77.253274 -26.49108 C -77.253274 -26.49108 77.265939 -26.49108 77.265939 -26.49108 C 77.265939 -26.49108 77.265939 26.526798 77.265939 26.526798 Z M 77.265939 26.526798 " stroke="#253237" stroke-width="2" stroke-opacity="1" stroke-miterlimit="4"/></svg>