<svg xmlns="http://www.w3.org/2000/svg" xmlns:xlink="http://www.w3.org/1999/xlink" width="90" zoomAndPan="magnify" viewBox="0 0 67.5 67.499996" height="90" preserveAspectRatio="xMidYMid meet" version="1.0"><defs><clipPath id="5110f5af1f"><path d="M 1.894531 18.171875 L 65.175781 18.171875 L 65.175781 48.695312 L 1.894531 48.695312 Z M 1.894531 18.171875 " clip-rule="nonzero"/></clipPath><clipPath id="e2b2e6a54e"><path d="M 2 18.171875 L 63 18.171875 L 63 46 L 2 46 Z M 2 18.171875 " clip-rule="nonzero"/></clipPath><clipPath id="1a72f641ad"><path d="M 2 18.171875 L 65 18.171875 L 65 48.695312 L 2 48.695312 Z M 2 18.171875 " clip-rule="nonzero"/></clipPath></defs><g clip-path="url(#5110f5af1f)"><path fill="#000000" d="M 65.046875 25.464844 C 65.039062 26.007812 64.921875 26.515625 64.40625 26.824219 C 64 27.0625 63.566406 27.214844 63.09375 27.046875 C 62.910156 26.984375 62.722656 26.890625 62.574219 26.769531 C 62.246094 26.496094 61.875 26.421875 61.464844 26.496094 C 61.371094 26.515625 61.269531 26.53125 61.171875 26.535156 C 61.03125 26.539062 60.917969 26.585938 60.816406 26.679688 C 60.382812 27.0625 59.886719 27.359375 59.398438 27.667969 C 56.695312 29.398438 53.984375 31.109375 51.296875 32.867188 C 49.34375 34.148438 47.429688 35.484375 45.496094 36.804688 C 44.980469 37.15625 44.480469 37.523438 43.914062 37.804688 C 43.613281 37.960938 43.285156 37.976562 42.960938 38.011719 C 42.78125 38.027344 42.601562 38.027344 42.425781 38.035156 C 42.390625 38.125 42.355469 38.183594 42.347656 38.246094 C 42.214844 39.230469 41.910156 40.167969 41.539062 41.085938 C 40.96875 42.492188 40.273438 43.835938 39.351562 45.046875 C 38.777344 45.796875 38.136719 46.476562 37.375 47.039062 C 36.214844 47.90625 34.910156 48.40625 33.480469 48.601562 C 31.976562 48.804688 30.496094 48.707031 29.027344 48.3125 C 26.449219 47.617188 24.6875 46 23.644531 43.566406 C 23.226562 42.585938 22.996094 41.5625 22.960938 40.5 C 22.9375 39.761719 22.933594 39.019531 22.9375 38.277344 C 22.9375 37.390625 22.960938 36.5 22.972656 35.613281 C 22.972656 35.515625 22.980469 35.414062 22.972656 35.316406 C 22.960938 35.082031 22.894531 35.007812 22.652344 34.957031 C 22.183594 34.863281 21.71875 34.769531 21.246094 34.683594 C 21.125 34.660156 20.992188 34.664062 20.878906 34.65625 C 20.855469 34.714844 20.828125 34.742188 20.832031 34.769531 C 20.933594 35.417969 20.8125 36.050781 20.679688 36.675781 C 20.320312 38.40625 19.640625 39.996094 18.613281 41.441406 C 17.339844 43.226562 15.601562 44.296875 13.503906 44.832031 C 12.800781 45.011719 12.082031 45.113281 11.355469 45.109375 C 9.625 45.089844 8.007812 44.632812 6.539062 43.703125 C 5.582031 43.101562 4.855469 42.289062 4.320312 41.296875 C 3.867188 40.453125 3.558594 39.550781 3.316406 38.625 C 2.875 36.925781 2.691406 35.195312 2.820312 33.4375 C 2.863281 32.78125 2.972656 32.132812 3.054688 31.480469 C 3.082031 31.265625 3.121094 31.058594 3.132812 30.84375 C 3.140625 30.738281 3.089844 30.628906 3.066406 30.515625 C 2.890625 30.515625 2.746094 30.519531 2.597656 30.515625 C 2.320312 30.507812 2.132812 30.363281 2.03125 30.113281 C 1.980469 29.980469 1.929688 29.828125 1.933594 29.6875 C 1.945312 28.949219 2.207031 28.332031 2.90625 27.984375 C 3.085938 27.894531 3.246094 27.804688 3.398438 27.671875 C 3.542969 27.542969 3.726562 27.457031 3.902344 27.363281 C 5.347656 26.582031 6.835938 25.882812 8.328125 25.1875 C 12.15625 23.398438 16.070312 21.804688 20 20.257812 C 21.453125 19.6875 22.914062 19.132812 24.382812 18.609375 C 25.15625 18.335938 25.964844 18.15625 26.800781 18.265625 C 27.46875 18.355469 28.078125 18.578125 28.605469 19.003906 C 28.9375 19.273438 29.144531 19.617188 29.257812 20.027344 C 29.332031 20.285156 29.285156 20.503906 29.105469 20.714844 C 28.640625 21.261719 28.035156 21.386719 27.363281 21.285156 C 27.050781 21.238281 26.757812 21.113281 26.527344 20.894531 C 26.167969 20.550781 25.738281 20.625 25.3125 20.644531 C 25.269531 20.648438 25.226562 20.683594 25.179688 20.703125 C 24.257812 21.105469 23.347656 21.519531 22.425781 21.910156 C 19.945312 22.972656 17.453125 24.003906 14.984375 25.085938 C 12.769531 26.050781 10.574219 27.070312 8.375 28.066406 C 8.273438 28.109375 8.183594 28.167969 8.09375 28.214844 C 8.117188 28.335938 8.195312 28.328125 8.253906 28.339844 C 10.582031 28.671875 12.894531 29.097656 15.179688 29.652344 C 16.472656 29.964844 17.738281 30.375 18.996094 30.820312 C 19.273438 30.917969 19.546875 31.039062 19.8125 31.164062 C 19.910156 31.210938 20 31.296875 20.066406 31.390625 C 20.097656 31.4375 20.109375 31.492188 20.097656 31.546875 C 20.195312 31.625 20.289062 31.714844 20.386719 31.804688 C 20.46875 31.796875 20.542969 31.789062 20.625 31.792969 C 21.273438 31.808594 21.898438 31.960938 22.515625 32.128906 C 22.863281 32.226562 23.203125 32.355469 23.578125 32.480469 C 24.273438 32.191406 25.039062 32.128906 25.816406 32.101562 C 27.183594 32.058594 28.550781 32.042969 29.914062 32.113281 C 30.617188 32.144531 31.324219 32.210938 32.027344 32.277344 C 32.667969 32.335938 33.304688 32.421875 33.941406 32.484375 C 34.824219 32.570312 35.699219 32.738281 36.566406 32.917969 C 37.371094 33.082031 38.167969 33.285156 38.96875 33.472656 C 39.464844 33.585938 39.949219 33.753906 40.40625 33.980469 C 41.152344 34.339844 41.941406 34.558594 42.777344 34.730469 C 42.882812 34.667969 43.007812 34.59375 43.128906 34.511719 C 48.378906 31.050781 53.71875 27.738281 59.207031 24.667969 C 59.605469 24.445312 60.035156 24.269531 60.449219 24.074219 C 60.585938 24.011719 60.730469 23.96875 60.859375 23.898438 C 61.59375 23.515625 62.347656 23.53125 63.109375 23.800781 C 63.609375 23.976562 64.074219 24.226562 64.460938 24.59375 C 64.613281 24.738281 64.761719 24.894531 64.886719 25.070312 C 64.96875 25.175781 65.050781 25.332031 65.046875 25.464844 Z M 65.046875 25.464844 " fill-opacity="1" fill-rule="nonzero"/></g><g clip-path="url(#e2b2e6a54e)"><path fill="#3884c3" d="M 3.304688 28.734375 C 3.078125 28.726562 2.851562 28.726562 2.628906 28.699219 C 2.777344 28.460938 3.007812 28.351562 3.3125 28.351562 C 3.523438 28.351562 3.742188 28.351562 3.949219 28.367188 C 4.457031 28.414062 4.96875 28.460938 5.472656 28.523438 C 6.5625 28.660156 7.664062 28.785156 8.75 28.957031 C 10.46875 29.230469 12.183594 29.542969 13.882812 29.929688 C 15.808594 30.359375 17.707031 30.894531 19.53125 31.660156 C 19.636719 31.703125 19.75 31.730469 19.859375 31.738281 C 19.980469 31.742188 20.070312 31.648438 20.089844 31.539062 C 20.1875 31.621094 20.277344 31.710938 20.378906 31.800781 C 20.328125 31.804688 20.277344 31.816406 20.226562 31.824219 C 20.179688 31.835938 20.125 31.917969 20.121094 31.96875 C 20.121094 32.023438 20.171875 32.09375 20.21875 32.121094 C 20.285156 32.160156 20.371094 32.171875 20.453125 32.1875 C 20.773438 32.246094 21.101562 32.292969 21.421875 32.367188 C 21.964844 32.496094 22.503906 32.640625 23.039062 32.789062 C 23.265625 32.851562 23.496094 32.890625 23.722656 32.824219 C 24.347656 32.640625 24.988281 32.632812 25.628906 32.609375 C 27.246094 32.542969 28.855469 32.601562 30.46875 32.699219 C 30.550781 32.707031 30.632812 32.714844 30.710938 32.722656 C 31.546875 32.808594 32.382812 32.886719 33.214844 32.976562 C 33.800781 33.042969 34.390625 33.109375 34.972656 33.214844 C 36.039062 33.417969 37.097656 33.652344 38.160156 33.871094 C 39.160156 34.082031 40.105469 34.460938 41.019531 34.914062 C 41.023438 34.917969 41.027344 34.929688 41.03125 34.945312 C 41.023438 34.945312 41.019531 34.945312 41.015625 34.945312 C 41.019531 34.949219 41.027344 34.953125 41.03125 34.960938 C 40.875 34.921875 40.710938 34.898438 40.5625 34.839844 C 38.585938 34.074219 36.519531 33.691406 34.4375 33.390625 C 33.542969 33.261719 32.648438 33.152344 31.746094 33.0625 C 30.78125 32.960938 29.816406 32.878906 28.847656 32.820312 C 27.578125 32.738281 26.3125 32.855469 25.046875 32.914062 C 24.75 32.929688 24.457031 32.960938 24.164062 32.988281 C 24.035156 33.003906 23.90625 33.035156 23.78125 33.070312 C 23.71875 33.085938 23.664062 33.125 23.679688 33.234375 C 23.523438 33.265625 23.371094 33.285156 23.21875 33.285156 C 23.1875 33.242188 23.164062 33.203125 23.128906 33.1875 C 22.953125 33.109375 22.769531 33.035156 22.582031 32.988281 C 21.992188 32.847656 21.402344 32.71875 20.808594 32.59375 C 20.515625 32.53125 20.238281 32.460938 19.996094 32.277344 C 19.890625 32.203125 19.769531 32.15625 19.667969 32.097656 C 19.628906 32.125 19.601562 32.148438 19.585938 32.171875 C 19.457031 32.070312 19.332031 31.964844 19.191406 31.886719 C 19.21875 31.878906 19.25 31.871094 19.28125 31.855469 C 19.191406 31.789062 19.148438 31.742188 19.089844 31.71875 C 18.910156 31.640625 18.726562 31.570312 18.539062 31.503906 C 16.753906 30.894531 14.933594 30.390625 13.074219 30.03125 C 12.042969 29.828125 11.011719 29.632812 9.976562 29.453125 C 9.121094 29.304688 8.257812 29.167969 7.394531 29.046875 C 6.453125 28.914062 5.507812 28.800781 4.558594 28.695312 C 4.203125 28.652344 3.839844 28.652344 3.476562 28.640625 C 3.394531 28.640625 3.320312 28.6875 3.304688 28.734375 Z M 41.40625 38.402344 C 41.175781 39.738281 40.726562 41.003906 40.097656 42.203125 C 40.066406 42.265625 40.042969 42.347656 39.933594 42.363281 C 39.445312 43.496094 38.867188 44.589844 38.140625 45.589844 C 38.316406 45.398438 38.492188 45.199219 38.65625 44.988281 C 39.09375 44.429688 39.5 43.851562 39.84375 43.230469 C 40.574219 41.902344 41.199219 40.523438 41.558594 39.042969 C 41.632812 38.738281 41.679688 38.429688 41.742188 38.125 C 41.765625 37.996094 41.789062 37.863281 41.820312 37.730469 C 41.679688 37.734375 41.546875 37.765625 41.429688 37.828125 C 41.460938 38.027344 41.4375 38.21875 41.40625 38.402344 Z M 43.695312 36.4375 C 43.671875 36.125 43.625 35.820312 43.589844 35.511719 C 42.984375 35.382812 42.410156 35.261719 41.835938 35.136719 C 41.566406 35.082031 41.316406 34.949219 41.035156 34.949219 C 41.035156 34.957031 41.039062 34.964844 41.039062 34.964844 C 41.082031 35 41.121094 35.042969 41.167969 35.0625 C 41.714844 35.300781 42.292969 35.425781 42.875 35.542969 C 43.257812 35.617188 43.378906 35.746094 43.417969 36.125 C 43.441406 36.367188 43.492188 36.613281 43.398438 36.855469 C 43.386719 36.882812 43.347656 36.910156 43.304688 36.925781 C 43.300781 37.09375 43.289062 37.269531 43.253906 37.4375 C 43.261719 37.4375 43.273438 37.433594 43.28125 37.433594 C 43.570312 37.402344 43.652344 37.316406 43.683594 37.03125 C 43.707031 36.832031 43.710938 36.628906 43.695312 36.4375 Z M 19.917969 34.691406 C 19.941406 34.851562 19.972656 35.015625 19.957031 35.175781 C 19.871094 36.09375 19.742188 37.003906 19.476562 37.886719 C 19.304688 38.464844 19.074219 39.03125 18.867188 39.601562 C 18.84375 39.65625 18.796875 39.703125 18.730469 39.800781 C 18.707031 39.765625 18.691406 39.726562 18.683594 39.695312 C 18.160156 40.765625 17.578125 41.828125 16.753906 42.675781 C 17.5 42.0625 18.089844 41.300781 18.59375 40.464844 C 19.445312 39.054688 19.996094 37.535156 20.214844 35.894531 C 20.269531 35.46875 20.335938 35.050781 20.398438 34.597656 C 20.308594 34.554688 20.222656 34.515625 20.140625 34.476562 C 20.0625 34.441406 20.011719 34.386719 19.996094 34.3125 C 19.921875 34.394531 19.875 34.5 19.855469 34.621094 C 19.886719 34.625 19.910156 34.652344 19.917969 34.691406 Z M 60.921875 24.9375 C 60.9375 24.890625 60.941406 24.835938 60.96875 24.808594 C 61.207031 24.59375 61.496094 24.492188 61.800781 24.429688 C 61.835938 24.421875 61.882812 24.476562 61.925781 24.519531 C 62.214844 24.375 62.5 24.269531 62.800781 24.242188 C 62.621094 24.1875 62.425781 24.148438 62.230469 24.121094 C 61.640625 24.035156 61.058594 24.140625 60.542969 24.515625 C 60.183594 24.773438 59.800781 25 59.414062 25.222656 C 58.089844 25.988281 56.75 26.730469 55.433594 27.507812 C 51.476562 29.832031 47.578125 32.253906 43.671875 34.664062 C 43.589844 34.714844 43.515625 34.769531 43.363281 34.875 C 43.617188 34.949219 43.761719 35.085938 43.929688 35.101562 C 44.480469 34.742188 44.996094 34.386719 45.519531 34.058594 C 50.035156 31.222656 54.617188 28.5 59.210938 25.796875 C 59.523438 25.613281 59.839844 25.441406 60.160156 25.265625 C 60.230469 25.230469 60.308594 25.203125 60.386719 25.179688 C 60.410156 25.175781 60.449219 25.195312 60.464844 25.21875 C 60.472656 25.226562 60.476562 25.238281 60.480469 25.25 C 60.71875 25.171875 60.945312 25.054688 61.175781 24.925781 C 61.089844 24.945312 61 24.949219 60.921875 24.9375 Z M 5.105469 27.714844 C 5.191406 27.535156 5.34375 27.5 5.472656 27.433594 C 8.125 26.125 10.800781 24.863281 13.5625 23.78125 C 14.25 23.511719 14.9375 23.242188 15.628906 22.980469 C 15.714844 22.949219 15.808594 22.945312 15.90625 22.929688 C 15.90625 22.929688 15.90625 22.933594 15.90625 22.9375 L 16.261719 22.773438 C 16.253906 22.773438 16.25 22.773438 16.242188 22.769531 C 16.277344 22.703125 16.285156 22.644531 16.320312 22.628906 C 16.464844 22.550781 16.617188 22.484375 16.765625 22.421875 C 18.953125 21.4375 21.191406 20.570312 23.453125 19.765625 C 23.976562 19.574219 24.503906 19.386719 25.03125 19.207031 C 25.265625 19.128906 25.507812 19.070312 25.746094 19.011719 C 25.773438 19.007812 25.8125 19.035156 25.90625 19.082031 C 26.257812 18.976562 26.605469 18.875 26.964844 18.816406 C 26.546875 18.730469 26.121094 18.726562 25.6875 18.746094 C 25.453125 18.757812 25.238281 18.789062 25.039062 18.933594 C 24.894531 19.035156 24.714844 19.089844 24.546875 19.15625 C 23.070312 19.71875 21.59375 20.265625 20.125 20.839844 C 16.601562 22.21875 13.09375 23.628906 9.652344 25.195312 C 7.902344 25.992188 6.167969 26.828125 4.425781 27.648438 C 4.332031 27.691406 4.246094 27.753906 4.082031 27.847656 C 4.261719 27.878906 4.355469 27.894531 4.453125 27.910156 C 4.554688 27.917969 4.652344 27.929688 4.753906 27.9375 C 4.882812 27.878906 5.011719 27.8125 5.148438 27.75 C 5.136719 27.730469 5.121094 27.722656 5.105469 27.714844 Z M 5.105469 27.714844 " fill-opacity="1" fill-rule="nonzero"/></g><g clip-path="url(#1a72f641ad)"><path fill="#9bc3eb" d="M 42.15625 37.535156 C 42.523438 37.503906 42.890625 37.476562 43.257812 37.433594 C 43.289062 37.269531 43.304688 37.089844 43.304688 36.921875 C 43.285156 36.925781 43.265625 36.933594 43.246094 36.933594 C 43.214844 36.9375 43.15625 36.886719 43.140625 36.847656 C 43.121094 36.789062 43.125 36.71875 43.125 36.652344 C 43.128906 36.503906 43.140625 36.355469 43.132812 36.207031 C 43.128906 36.109375 43.109375 36.015625 43.09375 35.902344 C 42.871094 35.867188 42.664062 35.84375 42.457031 35.800781 C 41.953125 35.703125 41.472656 35.535156 41 35.351562 C 39.652344 34.824219 38.269531 34.386719 36.847656 34.117188 C 35.992188 33.957031 35.132812 33.808594 34.273438 33.671875 C 33.398438 33.539062 32.519531 33.425781 31.636719 33.3125 C 31.277344 33.265625 30.914062 33.234375 30.558594 33.203125 C 28.964844 33.066406 27.371094 33.015625 25.773438 33.148438 C 25.152344 33.199219 24.527344 33.230469 23.902344 33.269531 C 23.828125 33.273438 23.753906 33.253906 23.6875 33.242188 C 23.6875 33.242188 23.6875 33.242188 23.6875 33.238281 C 23.53125 33.269531 23.382812 33.285156 23.226562 33.285156 C 23.234375 33.300781 23.246094 33.316406 23.253906 33.324219 C 23.113281 33.4375 22.980469 33.390625 22.855469 33.363281 C 22.042969 33.179688 21.230469 32.984375 20.417969 32.796875 C 20.082031 32.71875 19.855469 32.480469 19.609375 32.269531 C 19.578125 32.238281 19.578125 32.207031 19.59375 32.171875 C 19.464844 32.070312 19.339844 31.964844 19.199219 31.886719 C 19.050781 31.921875 18.949219 31.871094 18.84375 31.839844 C 17.613281 31.484375 16.386719 31.113281 15.152344 30.777344 C 13.707031 30.390625 12.238281 30.097656 10.769531 29.824219 C 9.933594 29.671875 9.089844 29.523438 8.246094 29.390625 C 7.582031 29.285156 6.910156 29.210938 6.242188 29.125 C 5.785156 29.070312 5.332031 29.015625 4.871094 28.972656 C 4.542969 28.941406 4.21875 28.929688 3.890625 28.910156 C 3.757812 28.902344 3.625 28.902344 3.496094 28.890625 C 3.414062 28.878906 3.335938 28.855469 3.308594 28.761719 C 3.304688 28.753906 3.308594 28.742188 3.3125 28.730469 C 3.085938 28.726562 2.859375 28.726562 2.632812 28.695312 C 2.601562 28.742188 2.574219 28.796875 2.554688 28.855469 C 2.445312 29.117188 2.375 29.382812 2.394531 29.671875 C 2.40625 29.871094 2.480469 30.019531 2.699219 30.0625 C 2.792969 30.082031 2.890625 30.113281 2.984375 30.136719 C 3.398438 30.253906 3.597656 30.492188 3.578125 30.925781 C 3.558594 31.316406 3.5 31.710938 3.453125 32.101562 C 3.28125 33.597656 3.242188 35.085938 3.464844 36.582031 C 3.648438 37.804688 3.925781 39.003906 4.382812 40.15625 C 4.640625 40.804688 4.960938 41.410156 5.390625 41.960938 C 5.832031 42.527344 6.367188 42.988281 6.980469 43.351562 C 7.933594 43.925781 8.960938 44.296875 10.066406 44.464844 C 12.246094 44.796875 14.25 44.3125 16.097656 43.148438 C 16.328125 43.003906 16.546875 42.839844 16.757812 42.667969 C 17.582031 41.816406 18.164062 40.757812 18.6875 39.6875 C 18.648438 39.550781 18.714844 39.453125 18.738281 39.363281 C 18.894531 38.792969 19.066406 38.226562 19.230469 37.660156 C 19.441406 36.933594 19.570312 36.191406 19.683594 35.445312 C 19.710938 35.269531 19.707031 35.085938 19.71875 34.90625 C 19.726562 34.808594 19.742188 34.714844 19.75 34.628906 C 19.792969 34.609375 19.828125 34.605469 19.855469 34.609375 C 19.875 34.488281 19.921875 34.382812 19.996094 34.300781 C 19.996094 34.28125 19.996094 34.257812 19.996094 34.234375 C 20.007812 34.136719 20.085938 34.074219 20.203125 34.066406 C 20.253906 34.0625 20.304688 34.0625 20.351562 34.066406 C 21.074219 34.132812 21.792969 34.226562 22.480469 34.457031 C 22.683594 34.523438 22.867188 34.632812 23.0625 34.71875 C 23.351562 34.851562 23.472656 35.085938 23.457031 35.394531 C 23.457031 35.507812 23.464844 35.621094 23.464844 35.738281 C 23.464844 36.894531 23.46875 38.042969 23.464844 39.199219 C 23.464844 40.003906 23.5 40.816406 23.652344 41.605469 C 24.164062 44.28125 25.878906 46.941406 29.304688 47.804688 C 30.546875 48.117188 31.8125 48.207031 33.078125 48.082031 C 35.105469 47.875 36.792969 47.03125 38.140625 45.585938 C 38.867188 44.589844 39.445312 43.492188 39.933594 42.363281 C 39.925781 42.363281 39.914062 42.363281 39.902344 42.367188 C 39.902344 42.3125 39.886719 42.25 39.902344 42.203125 C 40.054688 41.804688 40.210938 41.40625 40.367188 41.011719 C 40.773438 40.003906 41.070312 38.960938 41.234375 37.886719 C 41.242188 37.839844 41.246094 37.785156 41.273438 37.75 C 41.296875 37.722656 41.351562 37.722656 41.414062 37.699219 C 41.421875 37.742188 41.429688 37.78125 41.433594 37.820312 C 41.550781 37.757812 41.6875 37.730469 41.824219 37.726562 C 41.835938 37.675781 41.84375 37.628906 41.851562 37.578125 C 41.964844 37.566406 42.058594 37.546875 42.15625 37.535156 Z M 17.984375 38.355469 C 17.71875 39.277344 17.3125 40.144531 16.769531 40.9375 C 15.648438 42.558594 14.117188 43.5625 12.1875 43.941406 C 11.71875 44.035156 11.246094 44.070312 10.945312 44.105469 C 9.195312 44.113281 7.828125 43.613281 6.699219 42.511719 C 6.015625 41.84375 5.507812 41.058594 5.121094 40.195312 C 4.589844 39.019531 4.242188 37.789062 4.078125 36.507812 C 3.972656 35.691406 3.875 34.871094 3.910156 34.046875 C 3.953125 32.992188 4.039062 31.945312 4.289062 30.917969 C 4.367188 30.59375 4.507812 30.300781 4.675781 30.015625 C 4.738281 29.902344 4.824219 29.839844 4.949219 29.839844 C 5.082031 29.839844 5.210938 29.839844 5.347656 29.851562 C 5.6875 29.882812 6.035156 29.910156 6.375 29.953125 C 7.335938 30.074219 8.304688 30.175781 9.261719 30.335938 C 12.160156 30.824219 14.957031 31.652344 17.621094 32.910156 C 18.210938 33.1875 18.484375 33.628906 18.511719 34.265625 C 18.578125 35.660156 18.371094 37.023438 17.984375 38.355469 Z M 39.824219 38.597656 C 39.53125 40.160156 39.007812 41.644531 38.242188 43.042969 C 37.644531 44.136719 36.910156 45.117188 35.90625 45.882812 C 35.085938 46.507812 34.183594 46.976562 33.160156 47.164062 C 32.527344 47.28125 31.894531 47.328125 31.246094 47.261719 C 30.523438 47.1875 29.8125 47.070312 29.125 46.832031 C 26.617188 45.957031 25.015625 44.246094 24.363281 41.664062 C 24.1875 40.957031 24.085938 40.242188 24.046875 39.519531 C 24.011719 38.914062 23.976562 38.304688 23.960938 37.695312 C 23.945312 36.703125 24.0625 35.722656 24.257812 34.753906 C 24.332031 34.386719 24.433594 34.273438 24.792969 34.210938 C 25.085938 34.164062 25.382812 34.117188 25.675781 34.105469 C 26.613281 34.054688 27.550781 34.015625 28.21875 33.984375 C 29.375 34.03125 30.265625 34.042969 31.152344 34.105469 C 32.316406 34.191406 33.476562 34.339844 34.628906 34.542969 C 35.613281 34.714844 36.601562 34.898438 37.566406 35.171875 C 38.007812 35.296875 38.449219 35.441406 38.882812 35.582031 C 39.054688 35.636719 39.21875 35.714844 39.386719 35.78125 C 39.742188 35.917969 39.902344 36.152344 39.960938 36.550781 C 40.066406 37.246094 39.949219 37.921875 39.824219 38.597656 Z M 64.683594 25.777344 C 64.445312 26.066406 64.171875 26.339844 63.792969 26.496094 C 63.511719 26.609375 63.25 26.601562 62.996094 26.433594 C 62.886719 26.363281 62.785156 26.269531 62.667969 26.210938 C 62.492188 26.125 62.308594 26.011719 62.125 26 C 61.664062 25.96875 61.214844 26.03125 60.789062 26.238281 C 59.527344 26.855469 58.371094 27.644531 57.195312 28.394531 C 55.066406 29.738281 52.957031 31.113281 50.84375 32.480469 C 48.976562 33.6875 47.199219 35.019531 45.394531 36.3125 C 45.128906 36.503906 44.863281 36.703125 44.597656 36.890625 C 44.519531 36.945312 44.433594 36.984375 44.304688 37.054688 C 44.292969 36.453125 44.332031 35.886719 44.136719 35.339844 C 44.285156 35.136719 44.496094 35.011719 44.703125 34.878906 C 45.835938 34.175781 46.964844 33.46875 48.101562 32.769531 C 51.703125 30.554688 55.347656 28.414062 58.996094 26.273438 C 59.421875 26.023438 59.832031 25.75 60.246094 25.488281 C 60.328125 25.433594 60.402344 25.367188 60.472656 25.300781 C 60.480469 25.292969 60.484375 25.273438 60.480469 25.25 C 60.71875 25.171875 60.949219 25.054688 61.179688 24.925781 C 61.417969 24.886719 61.675781 24.753906 61.945312 24.527344 C 61.9375 24.523438 61.9375 24.519531 61.929688 24.515625 C 62.21875 24.371094 62.503906 24.265625 62.804688 24.238281 C 63.585938 24.472656 64.222656 24.945312 64.671875 25.695312 C 64.675781 25.710938 64.675781 25.730469 64.683594 25.777344 Z M 28.863281 20.3125 C 28.417969 20.640625 27.953125 20.882812 27.363281 20.757812 C 27.183594 20.71875 27.023438 20.640625 26.875 20.539062 C 26.765625 20.464844 26.660156 20.382812 26.546875 20.316406 C 26.332031 20.183594 26.09375 20.121094 25.839844 20.15625 C 25.417969 20.214844 25 20.285156 24.601562 20.449219 C 23.585938 20.882812 22.566406 21.300781 21.554688 21.726562 C 19.597656 22.546875 17.632812 23.347656 15.691406 24.199219 C 14.050781 24.921875 12.4375 25.699219 10.8125 26.457031 C 9.832031 26.914062 8.851562 27.382812 7.871094 27.84375 C 7.753906 27.898438 7.617188 27.9375 7.515625 28.019531 C 7.347656 28.160156 7.164062 28.175781 6.960938 28.152344 C 6.226562 28.078125 5.496094 28.003906 4.761719 27.933594 C 4.886719 27.871094 5.019531 27.804688 5.152344 27.746094 C 5.195312 27.769531 5.230469 27.796875 5.261719 27.789062 C 5.386719 27.75 5.507812 27.691406 5.625 27.632812 C 6.4375 27.238281 7.25 26.839844 8.066406 26.453125 C 10.242188 25.433594 12.464844 24.527344 14.675781 23.59375 C 15.042969 23.4375 15.402344 23.28125 15.761719 23.125 C 15.835938 23.09375 15.910156 23.066406 15.910156 22.9375 L 16.265625 22.773438 C 16.339844 22.78125 16.402344 22.796875 16.453125 22.785156 C 16.5625 22.753906 16.667969 22.707031 16.773438 22.660156 C 19.601562 21.40625 22.492188 20.324219 25.417969 19.320312 C 25.574219 19.269531 25.722656 19.203125 25.960938 19.105469 C 25.941406 19.097656 25.925781 19.089844 25.910156 19.082031 C 26.265625 18.972656 26.613281 18.875 26.972656 18.816406 C 27.097656 18.839844 27.226562 18.875 27.351562 18.917969 C 28.058594 19.15625 28.582031 19.582031 28.863281 20.3125 Z M 28.863281 20.3125 " fill-opacity="1" fill-rule="nonzero"/></g><path fill="#c6e8e9" d="M 24.710938 34.582031 C 24.773438 34.578125 24.867188 34.5625 24.960938 34.5625 C 26.230469 34.5625 27.496094 34.550781 28.761719 34.558594 C 30.128906 34.5625 31.492188 34.667969 32.847656 34.84375 C 34.296875 35.03125 35.742188 35.269531 37.15625 35.648438 C 37.867188 35.84375 38.566406 36.085938 39.273438 36.308594 C 39.332031 36.328125 39.390625 36.355469 39.460938 36.382812 C 39.460938 36.515625 39.46875 36.628906 39.460938 36.742188 C 39.324219 38.800781 38.796875 40.757812 37.859375 42.601562 C 37.347656 43.609375 36.710938 44.527344 35.847656 45.261719 C 35.019531 45.96875 34.09375 46.484375 33.011719 46.679688 C 32.65625 46.746094 32.292969 46.789062 31.933594 46.785156 C 30.738281 46.777344 29.578125 46.570312 28.492188 46.046875 C 26.558594 45.117188 25.347656 43.601562 24.839844 41.523438 C 24.667969 40.820312 24.585938 40.101562 24.523438 39.378906 C 24.460938 38.691406 24.441406 38 24.441406 37.308594 C 24.441406 36.417969 24.535156 35.535156 24.648438 34.652344 C 24.652344 34.636719 24.671875 34.625 24.710938 34.582031 Z M 26.316406 38.882812 C 26.355469 39.171875 26.382812 39.515625 26.457031 39.851562 C 26.527344 40.191406 26.753906 40.300781 27.082031 40.195312 C 27.320312 40.117188 27.480469 39.957031 27.515625 39.707031 C 27.542969 39.515625 27.542969 39.316406 27.527344 39.125 C 27.507812 38.859375 27.523438 38.601562 27.601562 38.34375 C 27.679688 38.078125 27.839844 37.878906 28.101562 37.773438 C 28.238281 37.71875 28.378906 37.675781 28.515625 37.625 C 28.609375 37.589844 28.703125 37.554688 28.785156 37.507812 C 28.921875 37.425781 29 37.304688 28.976562 37.136719 C 28.953125 36.972656 28.855469 36.882812 28.699219 36.832031 C 28.269531 36.699219 27.855469 36.75 27.441406 36.882812 C 26.875 37.066406 26.550781 37.476562 26.429688 38.046875 C 26.367188 38.304688 26.355469 38.566406 26.316406 38.882812 Z M 30.335938 37.847656 C 30.675781 37.855469 30.960938 37.609375 30.972656 37.296875 C 30.988281 36.941406 30.742188 36.679688 30.371094 36.664062 C 30.03125 36.652344 29.785156 36.886719 29.769531 37.242188 C 29.75 37.582031 29.988281 37.835938 30.335938 37.847656 Z M 4.925781 30.324219 C 5.09375 30.324219 5.210938 30.3125 5.320312 30.328125 C 6.367188 30.460938 7.414062 30.5625 8.449219 30.738281 C 10.933594 31.164062 13.371094 31.773438 15.714844 32.722656 C 16.355469 32.984375 17.003906 33.214844 17.648438 33.464844 C 17.710938 33.484375 17.769531 33.511719 17.851562 33.546875 C 17.871094 33.652344 17.898438 33.761719 17.90625 33.875 C 18.003906 35.234375 17.871094 36.570312 17.519531 37.886719 C 17.148438 39.273438 16.535156 40.535156 15.523438 41.578125 C 14.632812 42.492188 13.5625 43.066406 12.335938 43.359375 C 11.757812 43.5 11.171875 43.582031 10.574219 43.570312 C 9.046875 43.539062 7.769531 42.953125 6.757812 41.800781 C 6.082031 41.039062 5.628906 40.144531 5.285156 39.195312 C 4.921875 38.203125 4.691406 37.179688 4.558594 36.128906 C 4.421875 35.027344 4.425781 33.925781 4.492188 32.824219 C 4.53125 32.15625 4.609375 31.480469 4.773438 30.824219 C 4.8125 30.664062 4.867188 30.507812 4.925781 30.324219 Z M 5.65625 34.476562 C 5.664062 34.476562 5.671875 34.476562 5.675781 34.476562 C 5.675781 34.652344 5.660156 34.839844 5.679688 35.015625 C 5.699219 35.175781 5.734375 35.34375 5.800781 35.492188 C 5.929688 35.792969 6.253906 35.847656 6.488281 35.621094 C 6.566406 35.539062 6.636719 35.441406 6.691406 35.34375 C 6.734375 35.257812 6.761719 35.160156 6.773438 35.0625 C 6.800781 34.851562 6.816406 34.636719 6.820312 34.425781 C 6.839844 33.929688 6.898438 33.851562 7.378906 33.679688 C 7.457031 33.652344 7.53125 33.628906 7.609375 33.597656 C 7.671875 33.578125 7.734375 33.554688 7.792969 33.527344 C 8.128906 33.363281 8.101562 32.988281 7.902344 32.78125 C 7.796875 32.671875 7.664062 32.613281 7.511719 32.59375 C 7.230469 32.5625 6.953125 32.589844 6.683594 32.675781 C 6.082031 32.871094 5.695312 33.355469 5.660156 33.984375 C 5.652344 34.144531 5.65625 34.3125 5.65625 34.476562 Z M 9.566406 33.796875 C 9.730469 33.800781 9.890625 33.730469 9.984375 33.554688 C 10.082031 33.378906 10.035156 33.210938 9.921875 33.054688 C 9.875 32.988281 9.816406 32.929688 9.757812 32.875 C 9.566406 32.71875 9.222656 32.742188 9.101562 32.929688 C 8.972656 33.117188 8.953125 33.324219 9.054688 33.527344 C 9.148438 33.726562 9.328125 33.796875 9.566406 33.796875 Z M 9.566406 33.796875 " fill-opacity="1" fill-rule="nonzero"/><path fill="#ffffff" d="M 28.664062 37.082031 C 28.589844 37.15625 28.554688 37.214844 28.503906 37.238281 C 28.324219 37.3125 28.136719 37.375 27.953125 37.449219 C 27.542969 37.621094 27.292969 37.9375 27.214844 38.367188 C 27.171875 38.589844 27.175781 38.820312 27.171875 39.050781 C 27.171875 39.230469 27.195312 39.40625 27.199219 39.589844 C 27.199219 39.730469 27.140625 39.839844 27.019531 39.921875 C 26.882812 40.011719 26.742188 39.96875 26.726562 39.808594 C 26.664062 39.269531 26.652344 38.726562 26.75 38.191406 C 26.847656 37.636719 27.179688 37.277344 27.742188 37.171875 C 28.03125 37.117188 28.320312 37.027344 28.664062 37.082031 Z M 30.28125 37.039062 C 30.179688 37.058594 30.109375 37.191406 30.125 37.296875 C 30.140625 37.40625 30.210938 37.46875 30.316406 37.488281 C 30.421875 37.507812 30.515625 37.460938 30.554688 37.367188 C 30.589844 37.285156 30.59375 37.183594 30.621094 37.03125 C 30.46875 37.035156 30.371094 37.023438 30.28125 37.039062 Z M 6.296875 35.386719 C 6.414062 35.261719 6.460938 35.101562 6.460938 34.933594 C 6.460938 34.734375 6.464844 34.535156 6.464844 34.339844 C 6.46875 33.871094 6.683594 33.554688 7.128906 33.40625 C 7.234375 33.367188 7.347656 33.332031 7.453125 33.289062 C 7.511719 33.265625 7.578125 33.242188 7.621094 33.199219 C 7.664062 33.15625 7.6875 33.085938 7.6875 33.03125 C 7.6875 33 7.628906 32.945312 7.585938 32.9375 C 7.125 32.8125 6.441406 33.0625 6.183594 33.457031 C 6.148438 33.511719 6.117188 33.570312 6.089844 33.628906 C 5.910156 34.039062 5.925781 35 6.132812 35.480469 C 6.195312 35.449219 6.261719 35.429688 6.296875 35.386719 Z M 9.476562 33.101562 C 9.386719 33.117188 9.316406 33.226562 9.332031 33.320312 C 9.351562 33.417969 9.449219 33.507812 9.535156 33.480469 C 9.597656 33.460938 9.644531 33.390625 9.683594 33.359375 C 9.667969 33.191406 9.566406 33.082031 9.476562 33.101562 Z M 9.476562 33.101562 " fill-opacity="1" fill-rule="nonzero"/></svg>