<svg xmlns="http://www.w3.org/2000/svg" xmlns:xlink="http://www.w3.org/1999/xlink" width="90" zoomAndPan="magnify" viewBox="0 0 67.5 67.499996" height="90" preserveAspectRatio="xMidYMid meet" version="1.0"><defs><clipPath id="0ea35d0a57"><path d="M 10 8 L 56.855469 8 L 56.855469 65.039062 L 10 65.039062 Z M 10 8 " clip-rule="nonzero"/></clipPath><clipPath id="fed4c38c46"><path d="M 9.953125 2 L 56.855469 2 L 56.855469 65.039062 L 9.953125 65.039062 Z M 9.953125 2 " clip-rule="nonzero"/></clipPath></defs><path fill="#ffffff" d="M 13.261719 10.570312 L 53.738281 10.570312 L 53.738281 60.773438 L 18.796875 60.773438 L 13.261719 55.238281 Z M 13.261719 10.570312 " fill-opacity="1" fill-rule="nonzero"/><path fill="#e25720" d="M 13.261719 55.238281 L 18.796875 55.238281 L 18.796875 60.773438 Z M 20.398438 43.273438 L 22.25 43.273438 L 22.25 36.578125 L 20.398438 36.578125 Z M 32.726562 23.640625 L 34.621094 23.640625 L 34.621094 21.65625 L 32.726562 21.65625 Z M 43.171875 16.070312 C 42.742188 16.070312 42.3125 16.113281 41.890625 16.195312 C 41.464844 16.28125 41.054688 16.40625 40.65625 16.570312 C 40.253906 16.734375 39.875 16.9375 39.515625 17.179688 C 39.15625 17.417969 38.824219 17.691406 38.519531 17.996094 C 38.214844 18.300781 37.941406 18.636719 37.703125 18.996094 C 37.460938 19.355469 37.257812 19.734375 37.09375 20.132812 C 36.929688 20.53125 36.804688 20.941406 36.71875 21.367188 C 36.632812 21.789062 36.59375 22.21875 36.59375 22.648438 C 36.59375 23.082031 36.632812 23.511719 36.71875 23.933594 C 36.804688 24.359375 36.929688 24.769531 37.09375 25.167969 C 37.257812 25.566406 37.460938 25.945312 37.703125 26.304688 C 37.941406 26.664062 38.214844 26.996094 38.519531 27.304688 C 38.824219 27.609375 39.15625 27.882812 39.515625 28.121094 C 39.875 28.363281 40.253906 28.5625 40.65625 28.730469 C 41.054688 28.894531 41.464844 29.019531 41.890625 29.105469 C 42.3125 29.1875 42.742188 29.230469 43.171875 29.230469 C 43.605469 29.230469 44.03125 29.1875 44.457031 29.105469 C 44.878906 29.019531 45.292969 28.894531 45.691406 28.730469 C 46.089844 28.5625 46.46875 28.363281 46.828125 28.121094 C 47.1875 27.882812 47.519531 27.609375 47.824219 27.304688 C 48.132812 26.996094 48.402344 26.664062 48.644531 26.304688 C 48.882812 25.945312 49.085938 25.566406 49.253906 25.167969 C 49.417969 24.769531 49.542969 24.359375 49.625 23.933594 C 49.710938 23.511719 49.753906 23.082031 49.753906 22.648438 C 49.753906 22.21875 49.710938 21.789062 49.625 21.367188 C 49.542969 20.941406 49.417969 20.53125 49.253906 20.132812 C 49.085938 19.734375 48.882812 19.355469 48.644531 18.996094 C 48.402344 18.636719 48.132812 18.300781 47.824219 17.996094 C 47.519531 17.691406 47.1875 17.417969 46.828125 17.179688 C 46.46875 16.9375 46.089844 16.734375 45.691406 16.570312 C 45.292969 16.40625 44.878906 16.28125 44.457031 16.195312 C 44.03125 16.113281 43.605469 16.070312 43.171875 16.070312 Z M 43.171875 16.070312 " fill-opacity="1" fill-rule="nonzero"/><g clip-path="url(#0ea35d0a57)"><path fill="#3884c3" d="M 55.039062 8.652344 L 11.964844 8.652344 C 11.726562 8.652344 11.492188 8.695312 11.273438 8.789062 C 11.050781 8.878906 10.855469 9.011719 10.683594 9.179688 C 10.515625 9.351562 10.382812 9.546875 10.292969 9.769531 C 10.199219 9.988281 10.15625 10.21875 10.15625 10.460938 L 10.15625 63.242188 C 10.15625 63.484375 10.199219 63.714844 10.292969 63.933594 C 10.382812 64.15625 10.515625 64.351562 10.683594 64.523438 C 10.855469 64.691406 11.050781 64.824219 11.273438 64.914062 C 11.492188 65.007812 11.726562 65.054688 11.964844 65.054688 L 55.039062 65.054688 C 55.277344 65.054688 55.507812 65.007812 55.730469 64.914062 C 55.953125 64.824219 56.148438 64.691406 56.316406 64.523438 C 56.488281 64.351562 56.617188 64.15625 56.710938 63.933594 C 56.800781 63.714844 56.847656 63.484375 56.847656 63.242188 L 56.847656 10.460938 C 56.847656 10.21875 56.800781 9.988281 56.710938 9.769531 C 56.617188 9.546875 56.488281 9.351562 56.316406 9.179688 C 56.148438 9.011719 55.953125 8.878906 55.730469 8.789062 C 55.507812 8.695312 55.277344 8.652344 55.039062 8.652344 Z M 53.738281 60.773438 L 18.796875 60.773438 L 13.261719 55.238281 L 13.261719 10.570312 L 53.738281 10.570312 Z M 25.195312 43.273438 L 23.34375 43.273438 L 23.34375 39.136719 L 25.195312 39.136719 Z M 31.007812 43.273438 L 29.15625 43.273438 L 29.15625 35.003906 L 31.007812 35.003906 Z M 34.621094 20.613281 L 32.726562 20.613281 L 32.726562 18.628906 L 34.621094 18.628906 Z M 37.292969 19.792969 C 37.285156 19.769531 37.28125 19.746094 37.289062 19.722656 C 37.289062 19.695312 37.296875 19.675781 37.308594 19.652344 C 37.3125 19.652344 37.3125 19.648438 37.3125 19.644531 C 37.320312 19.617188 37.332031 19.589844 37.355469 19.570312 C 37.394531 19.492188 37.445312 19.421875 37.5 19.351562 C 37.507812 19.34375 37.519531 19.335938 37.53125 19.332031 C 37.511719 19.28125 37.511719 19.230469 37.535156 19.183594 C 37.566406 19.121094 37.601562 19.066406 37.648438 19.015625 C 37.882812 18.652344 38.128906 18.300781 38.398438 17.960938 C 38.457031 17.902344 38.523438 17.890625 38.601562 17.925781 C 38.613281 17.914062 38.621094 17.902344 38.632812 17.890625 C 38.769531 17.734375 38.917969 17.59375 39.089844 17.476562 C 39.207031 17.398438 39.332031 17.324219 39.457031 17.257812 C 39.570312 17.191406 39.695312 17.136719 39.816406 17.21875 C 39.839844 17.234375 39.859375 17.253906 39.875 17.277344 C 39.90625 17.292969 39.925781 17.3125 39.945312 17.339844 C 40.253906 17.84375 40.53125 18.367188 40.816406 18.886719 C 40.917969 19.042969 41.023438 19.199219 41.121094 19.355469 C 41.300781 19.640625 41.488281 19.933594 41.652344 20.238281 C 41.851562 20.457031 42.023438 20.691406 42.167969 20.949219 C 42.273438 21.125 42.363281 21.308594 42.453125 21.492188 C 42.59375 21.671875 42.714844 21.863281 42.816406 22.070312 C 42.890625 22.121094 42.914062 22.1875 42.886719 22.269531 C 42.863281 22.355469 42.804688 22.398438 42.71875 22.402344 C 42.421875 22.398438 42.148438 22.222656 41.890625 22.09375 C 41.609375 21.957031 41.332031 21.820312 41.050781 21.683594 C 40.667969 21.496094 40.277344 21.3125 39.902344 21.105469 C 39.707031 21.019531 39.507812 20.9375 39.316406 20.847656 C 39.183594 20.78125 39.050781 20.714844 38.917969 20.648438 C 38.851562 20.617188 38.789062 20.582031 38.730469 20.542969 C 38.6875 20.523438 38.644531 20.503906 38.601562 20.488281 C 38.34375 20.371094 38.085938 20.257812 37.828125 20.140625 C 37.671875 20.089844 37.53125 20.015625 37.40625 19.914062 C 37.402344 19.914062 37.398438 19.914062 37.398438 19.910156 C 37.382812 19.90625 37.367188 19.898438 37.355469 19.886719 C 37.335938 19.875 37.320312 19.859375 37.308594 19.835938 C 37.304688 19.824219 37.296875 19.808594 37.292969 19.792969 Z M 37.292969 19.792969 " fill-opacity="1" fill-rule="nonzero"/></g><path fill="#435a7f" d="M 42.398438 8.261719 C 42.398438 7.90625 42.332031 7.566406 42.195312 7.242188 C 42.0625 6.917969 41.867188 6.628906 41.617188 6.378906 C 41.371094 6.128906 41.082031 5.9375 40.753906 5.800781 C 40.429688 5.667969 40.089844 5.597656 39.738281 5.597656 L 38.804688 5.597656 C 38.53125 5.59375 38.28125 5.511719 38.058594 5.355469 C 37.835938 5.199219 37.671875 4.996094 37.574219 4.742188 C 36.316406 1.761719 30.679688 1.785156 29.425781 4.742188 C 29.328125 4.996094 29.167969 5.199219 28.945312 5.355469 C 28.71875 5.511719 28.472656 5.59375 28.199219 5.597656 L 27.265625 5.597656 C 26.910156 5.597656 26.574219 5.667969 26.246094 5.800781 C 25.921875 5.9375 25.632812 6.128906 25.382812 6.378906 C 25.132812 6.628906 24.941406 6.917969 24.804688 7.242188 C 24.671875 7.566406 24.605469 7.90625 24.605469 8.261719 L 24.605469 12.460938 L 42.398438 12.460938 Z M 33.5 7.5 C 33.3125 7.5 33.128906 7.464844 32.957031 7.394531 C 32.78125 7.320312 32.628906 7.21875 32.496094 7.085938 C 32.359375 6.953125 32.257812 6.796875 32.1875 6.625 C 32.113281 6.449219 32.078125 6.265625 32.078125 6.078125 C 32.078125 5.890625 32.113281 5.707031 32.1875 5.535156 C 32.257812 5.359375 32.359375 5.207031 32.496094 5.070312 C 32.628906 4.9375 32.78125 4.835938 32.957031 4.761719 C 33.128906 4.691406 33.3125 4.65625 33.5 4.65625 C 33.691406 4.65625 33.871094 4.691406 34.046875 4.761719 C 34.21875 4.835938 34.375 4.9375 34.507812 5.070312 C 34.640625 5.207031 34.742188 5.359375 34.816406 5.535156 C 34.886719 5.707031 34.925781 5.890625 34.925781 6.078125 C 34.925781 6.265625 34.886719 6.449219 34.816406 6.625 C 34.742188 6.796875 34.640625 6.953125 34.507812 7.085938 C 34.375 7.21875 34.21875 7.320312 34.046875 7.394531 C 33.871094 7.464844 33.691406 7.5 33.5 7.5 Z M 17.597656 38.398438 L 19.449219 38.398438 L 19.449219 43.273438 L 17.597656 43.273438 Z M 31.972656 36.578125 L 33.824219 36.578125 L 33.824219 43.273438 L 31.972656 43.273438 Z M 26.289062 37.828125 L 28.140625 37.828125 L 28.140625 43.273438 L 26.289062 43.273438 Z M 32.726562 24.6875 L 34.621094 24.6875 L 34.621094 26.671875 L 32.726562 26.671875 Z M 49.664062 23.511719 C 49.679688 23.585938 49.675781 23.660156 49.65625 23.734375 C 49.652344 23.742188 49.648438 23.753906 49.644531 23.761719 C 49.609375 23.921875 49.566406 24.078125 49.511719 24.230469 C 49.34375 24.921875 49.082031 25.570312 48.71875 26.183594 C 48.464844 26.640625 48.148438 27.050781 47.769531 27.410156 C 47.367188 27.773438 46.882812 28.046875 46.425781 28.339844 C 46.382812 28.367188 46.335938 28.386719 46.28125 28.398438 C 46.207031 28.441406 46.125 28.484375 46.042969 28.515625 C 45.109375 29.019531 44.082031 29.324219 43.054688 29.214844 C 42.15625 29.238281 41.308594 29.042969 40.511719 28.636719 C 40.105469 28.574219 39.695312 28.269531 39.371094 28.0625 C 38.972656 27.824219 38.613281 27.53125 38.292969 27.191406 C 38.132812 27.007812 37.992188 26.808594 37.871094 26.59375 C 37.589844 26.207031 37.355469 25.792969 37.171875 25.351562 C 37.140625 25.308594 37.117188 25.261719 37.09375 25.210938 C 36.839844 24.5625 36.597656 23.867188 36.5625 23.164062 C 36.558594 23.046875 36.558594 22.925781 36.570312 22.804688 C 36.546875 22.589844 36.546875 22.375 36.566406 22.160156 C 36.628906 21.664062 36.730469 21.175781 36.878906 20.695312 C 36.894531 20.648438 36.917969 20.601562 36.949219 20.558594 C 36.964844 20.460938 36.984375 20.359375 37 20.257812 C 37.015625 20.210938 37.042969 20.171875 37.085938 20.148438 C 37.085938 20.148438 37.089844 20.148438 37.089844 20.148438 C 37.097656 20.082031 37.128906 20.039062 37.183594 20.011719 C 37.242188 19.980469 37.296875 19.984375 37.347656 20.019531 C 37.636719 20.195312 37.941406 20.335938 38.265625 20.4375 C 38.582031 20.53125 38.882812 20.667969 39.160156 20.851562 C 39.175781 20.863281 39.1875 20.875 39.199219 20.890625 L 40.972656 21.703125 C 40.980469 21.703125 40.984375 21.707031 40.992188 21.710938 C 41.007812 21.714844 41.019531 21.722656 41.03125 21.730469 L 41.089844 21.757812 C 41.089844 21.757812 41.09375 21.761719 41.097656 21.761719 C 41.410156 21.894531 41.714844 22.0625 42.019531 22.21875 C 42.253906 22.335938 42.488281 22.453125 42.722656 22.574219 C 42.847656 22.609375 42.96875 22.648438 43.09375 22.691406 C 43.105469 22.6875 43.121094 22.683594 43.132812 22.683594 C 43.253906 22.691406 43.375 22.699219 43.496094 22.707031 C 43.714844 22.699219 43.9375 22.703125 44.152344 22.703125 C 44.453125 22.703125 44.753906 22.707031 45.054688 22.714844 C 45.058594 22.714844 45.058594 22.714844 45.058594 22.714844 C 45.21875 22.707031 45.378906 22.699219 45.535156 22.691406 C 45.558594 22.683594 45.578125 22.679688 45.601562 22.675781 C 46.765625 22.667969 47.925781 22.652344 49.089844 22.640625 C 49.105469 22.640625 49.117188 22.644531 49.132812 22.648438 C 49.230469 22.648438 49.324219 22.652344 49.421875 22.660156 C 49.441406 22.652344 49.460938 22.648438 49.480469 22.648438 C 49.539062 22.644531 49.585938 22.667969 49.617188 22.722656 C 49.65625 22.757812 49.671875 22.800781 49.675781 22.851562 C 49.675781 22.933594 49.675781 23.011719 49.675781 23.09375 C 49.71875 23.203125 49.722656 23.3125 49.691406 23.425781 Z M 49.664062 23.511719 " fill-opacity="1" fill-rule="nonzero"/><g clip-path="url(#fed4c38c46)"><path fill="#000000" d="M 24.269531 36.214844 L 30.070312 32.164062 L 32.988281 33.785156 C 33.09375 33.84375 33.117188 33.925781 33.058594 34.03125 C 33 34.136719 32.917969 34.164062 32.8125 34.101562 L 30.089844 32.59375 L 24.269531 36.65625 L 21.328125 34.628906 L 18.632812 36.582031 C 18.535156 36.652344 18.449219 36.640625 18.378906 36.542969 C 18.304688 36.445312 18.320312 36.359375 18.417969 36.289062 L 21.324219 34.183594 Z M 17.617188 44.421875 L 33.886719 44.421875 L 33.886719 44.058594 L 17.617188 44.058594 Z M 35.105469 6.078125 C 35.105469 6.292969 35.066406 6.496094 34.984375 6.691406 C 34.902344 6.890625 34.785156 7.0625 34.636719 7.214844 C 34.484375 7.363281 34.3125 7.480469 34.117188 7.5625 C 33.917969 7.644531 33.714844 7.683594 33.5 7.683594 C 33.289062 7.683594 33.082031 7.644531 32.886719 7.5625 C 32.691406 7.480469 32.515625 7.363281 32.367188 7.214844 C 32.214844 7.0625 32.097656 6.890625 32.019531 6.691406 C 31.9375 6.496094 31.894531 6.292969 31.894531 6.078125 C 31.894531 5.867188 31.9375 5.660156 32.019531 5.464844 C 32.097656 5.265625 32.214844 5.09375 32.367188 4.941406 C 32.515625 4.792969 32.691406 4.675781 32.886719 4.59375 C 33.082031 4.511719 33.289062 4.472656 33.5 4.472656 C 33.714844 4.472656 33.917969 4.515625 34.117188 4.59375 C 34.3125 4.675781 34.484375 4.792969 34.636719 4.945312 C 34.785156 5.09375 34.902344 5.269531 34.984375 5.464844 C 35.066406 5.660156 35.105469 5.867188 35.105469 6.078125 Z M 34.742188 6.078125 C 34.742188 5.914062 34.710938 5.753906 34.648438 5.601562 C 34.585938 5.449219 34.496094 5.316406 34.378906 5.199219 C 34.261719 5.082031 34.128906 4.996094 33.976562 4.929688 C 33.824219 4.867188 33.664062 4.835938 33.5 4.835938 C 33.335938 4.835938 33.179688 4.867188 33.027344 4.929688 C 32.875 4.996094 32.738281 5.082031 32.625 5.199219 C 32.507812 5.316406 32.417969 5.449219 32.355469 5.601562 C 32.292969 5.753906 32.257812 5.914062 32.257812 6.078125 C 32.257812 6.242188 32.292969 6.402344 32.355469 6.554688 C 32.417969 6.707031 32.507812 6.839844 32.625 6.957031 C 32.738281 7.074219 32.875 7.164062 33.027344 7.226562 C 33.179688 7.289062 33.335938 7.320312 33.5 7.320312 C 33.664062 7.320312 33.824219 7.289062 33.976562 7.226562 C 34.128906 7.160156 34.261719 7.074219 34.378906 6.957031 C 34.496094 6.839844 34.585938 6.707031 34.648438 6.554688 C 34.710938 6.402344 34.742188 6.242188 34.742188 6.078125 Z M 17.335938 19.21875 L 17.335938 19.582031 L 23.898438 19.582031 L 23.898438 19.21875 Z M 27.347656 28.398438 L 27.347656 28.035156 L 22.097656 28.035156 L 22.097656 28.398438 Z M 25.824219 23.550781 L 17.25 23.550781 L 17.25 23.914062 L 25.824219 23.914062 Z M 17.25 17.484375 L 29.050781 17.484375 L 29.050781 17.121094 L 17.25 17.121094 Z M 29.050781 21.453125 L 17.25 21.453125 L 17.25 21.816406 L 29.050781 21.816406 Z M 21.175781 28.03125 L 17.25 28.03125 L 17.25 28.394531 L 21.175781 28.394531 Z M 29.050781 25.785156 L 17.25 25.785156 L 17.25 26.148438 L 29.050781 26.148438 Z M 25.269531 19.285156 L 25.269531 19.648438 L 28.996094 19.648438 L 28.996094 19.285156 Z M 28.320312 51.136719 L 38.015625 51.136719 L 38.015625 50.773438 L 28.320312 50.773438 Z M 33.167969 53.371094 L 47.480469 53.371094 L 47.480469 53.007812 L 33.167969 53.007812 Z M 21.535156 49.039062 L 30.453125 49.039062 L 30.453125 48.675781 L 21.535156 48.675781 Z M 21.535156 53.371094 L 31.671875 53.371094 L 31.671875 53.007812 L 21.535156 53.007812 Z M 39.539062 51.136719 L 49.671875 51.136719 L 49.671875 50.773438 L 39.539062 50.773438 Z M 21.535156 55.453125 L 44.605469 55.453125 L 44.605469 55.089844 L 21.535156 55.089844 Z M 26.515625 51.203125 L 26.515625 50.839844 L 21.605469 50.839844 L 21.605469 51.203125 Z M 48.003906 48.640625 L 39.359375 48.640625 L 39.359375 49.003906 L 48.003906 49.003906 Z M 32.644531 49.074219 L 37.554688 49.074219 L 37.554688 48.710938 L 32.644531 48.710938 Z M 42.414062 35.570312 L 48.980469 35.570312 L 48.980469 35.207031 L 42.414062 35.207031 Z M 37.25 39.902344 L 48.113281 39.902344 L 48.113281 39.539062 L 37.25 39.539062 Z M 37.265625 33.472656 L 44.035156 33.472656 L 44.035156 33.109375 L 37.265625 33.109375 Z M 37.265625 44.371094 L 44.035156 44.371094 L 44.035156 44.003906 L 37.265625 44.003906 Z M 37.265625 37.804688 L 44.960938 37.804688 L 44.960938 37.441406 L 37.265625 37.441406 Z M 46.953125 41.773438 L 37.265625 41.773438 L 37.265625 42.136719 L 46.953125 42.136719 Z M 41.046875 35.636719 L 41.046875 35.273438 L 37.316406 35.273438 L 37.316406 35.636719 Z M 36.410156 22.648438 C 36.410156 21.648438 36.621094 20.699219 37.046875 19.792969 C 37.046875 19.785156 37.050781 19.773438 37.054688 19.765625 C 37.058594 19.761719 37.0625 19.753906 37.066406 19.75 C 37.636719 18.550781 38.488281 17.601562 39.617188 16.902344 C 39.625 16.894531 39.632812 16.890625 39.640625 16.882812 C 39.648438 16.878906 39.652344 16.878906 39.660156 16.875 C 40.082031 16.617188 40.53125 16.410156 41 16.25 C 41.46875 16.089844 41.949219 15.984375 42.441406 15.929688 C 42.9375 15.875 43.429688 15.878906 43.921875 15.933594 C 44.414062 15.988281 44.894531 16.09375 45.363281 16.257812 C 45.832031 16.417969 46.277344 16.625 46.703125 16.886719 C 47.125 17.144531 47.515625 17.445312 47.871094 17.789062 C 48.226562 18.136719 48.542969 18.515625 48.816406 18.929688 C 49.085938 19.34375 49.3125 19.78125 49.488281 20.242188 C 49.664062 20.707031 49.789062 21.183594 49.859375 21.675781 C 49.933594 22.164062 49.949219 22.65625 49.914062 23.152344 C 49.878906 23.648438 49.785156 24.132812 49.644531 24.605469 C 49.5 25.082031 49.308594 25.535156 49.0625 25.964844 C 48.820312 26.398438 48.535156 26.796875 48.203125 27.167969 C 47.871094 27.535156 47.503906 27.863281 47.101562 28.152344 C 46.699219 28.441406 46.265625 28.683594 45.8125 28.875 C 45.355469 29.070312 44.882812 29.210938 44.394531 29.300781 C 43.90625 29.390625 43.414062 29.425781 42.921875 29.40625 C 42.425781 29.390625 41.9375 29.316406 41.457031 29.191406 C 40.976562 29.066406 40.519531 28.890625 40.078125 28.664062 C 39.636719 28.433594 39.226562 28.164062 38.84375 27.847656 C 38.464844 27.527344 38.121094 27.175781 37.820312 26.78125 C 37.515625 26.390625 37.257812 25.96875 37.050781 25.519531 C 36.839844 25.070312 36.679688 24.605469 36.570312 24.121094 C 36.464844 23.636719 36.410156 23.144531 36.410156 22.648438 Z M 39.988281 17.105469 L 43.273438 22.46875 L 49.566406 22.46875 C 49.558594 22.191406 49.535156 21.917969 49.492188 21.648438 C 49.449219 21.375 49.386719 21.105469 49.308594 20.84375 C 49.234375 20.578125 49.136719 20.320312 49.027344 20.066406 C 48.917969 19.816406 48.789062 19.570312 48.648438 19.335938 C 48.503906 19.101562 48.347656 18.875 48.175781 18.660156 C 48.003906 18.445312 47.820312 18.242188 47.621094 18.050781 C 47.421875 17.859375 47.214844 17.679688 46.992188 17.515625 C 46.773438 17.351562 46.542969 17.203125 46.300781 17.066406 C 46.058594 16.933594 45.8125 16.8125 45.558594 16.710938 C 45.300781 16.609375 45.039062 16.523438 44.773438 16.453125 C 44.507812 16.386719 44.238281 16.335938 43.964844 16.300781 C 43.691406 16.265625 43.414062 16.25 43.140625 16.25 C 42.863281 16.253906 42.589844 16.273438 42.316406 16.308594 C 42.042969 16.347656 41.773438 16.402344 41.507812 16.472656 C 41.242188 16.546875 40.984375 16.632812 40.730469 16.738281 C 40.472656 16.84375 40.226562 16.964844 39.988281 17.105469 Z M 37.46875 19.757812 L 42.699219 22.226562 L 39.679688 17.292969 C 38.722656 17.917969 37.984375 18.742188 37.46875 19.761719 Z M 36.773438 22.648438 C 36.773438 23.066406 36.816406 23.480469 36.894531 23.886719 C 36.976562 24.296875 37.09375 24.691406 37.253906 25.078125 C 37.410156 25.460938 37.605469 25.828125 37.832031 26.175781 C 38.0625 26.523438 38.324219 26.84375 38.617188 27.140625 C 38.90625 27.4375 39.226562 27.703125 39.570312 27.9375 C 39.914062 28.171875 40.277344 28.371094 40.660156 28.535156 C 41.042969 28.699219 41.4375 28.824219 41.84375 28.910156 C 42.253906 28.996094 42.664062 29.042969 43.082031 29.046875 C 43.496094 29.054688 43.910156 29.019531 44.320312 28.945312 C 44.730469 28.871094 45.128906 28.757812 45.515625 28.605469 C 45.902344 28.453125 46.269531 28.261719 46.621094 28.039062 C 46.972656 27.8125 47.296875 27.558594 47.597656 27.269531 C 47.898438 26.980469 48.167969 26.667969 48.40625 26.328125 C 48.648438 25.984375 48.851562 25.625 49.019531 25.246094 C 49.1875 24.863281 49.320312 24.472656 49.410156 24.066406 C 49.503906 23.660156 49.554688 23.25 49.566406 22.832031 L 43.171875 22.832031 C 43.160156 22.832031 43.148438 22.832031 43.132812 22.828125 C 43.132812 22.828125 43.132812 22.828125 43.128906 22.828125 C 43.128906 22.824219 43.125 22.824219 43.121094 22.824219 C 43.113281 22.820312 43.105469 22.820312 43.097656 22.816406 L 43.09375 22.816406 L 37.3125 20.089844 C 36.953125 20.90625 36.773438 21.757812 36.773438 22.648438 Z M 57.03125 10.324219 L 57.03125 63.378906 C 57.027344 63.625 56.980469 63.863281 56.886719 64.089844 C 56.792969 64.316406 56.660156 64.515625 56.484375 64.691406 C 56.3125 64.863281 56.113281 65 55.882812 65.09375 C 55.65625 65.1875 55.421875 65.234375 55.175781 65.234375 L 11.828125 65.234375 C 11.582031 65.234375 11.34375 65.1875 11.117188 65.09375 C 10.890625 65 10.691406 64.863281 10.515625 64.691406 C 10.34375 64.515625 10.207031 64.316406 10.113281 64.089844 C 10.019531 63.863281 9.972656 63.625 9.972656 63.378906 L 9.972656 10.324219 C 9.972656 10.078125 10.019531 9.839844 10.113281 9.613281 C 10.207031 9.386719 10.34375 9.1875 10.515625 9.011719 C 10.691406 8.839844 10.890625 8.703125 11.117188 8.609375 C 11.34375 8.515625 11.582031 8.46875 11.828125 8.46875 L 24.421875 8.46875 L 24.421875 8.261719 C 24.421875 7.882812 24.496094 7.519531 24.640625 7.171875 C 24.785156 6.824219 24.988281 6.515625 25.253906 6.25 C 25.523438 5.984375 25.828125 5.777344 26.175781 5.632812 C 26.527344 5.492188 26.886719 5.417969 27.265625 5.417969 L 28.199219 5.417969 C 28.433594 5.414062 28.648438 5.34375 28.84375 5.207031 C 29.039062 5.070312 29.175781 4.890625 29.261719 4.667969 C 29.859375 3.25 31.527344 2.332031 33.507812 2.332031 C 35.480469 2.332031 37.140625 3.25 37.742188 4.667969 C 37.828125 4.890625 37.964844 5.070312 38.160156 5.207031 C 38.351562 5.34375 38.566406 5.414062 38.804688 5.417969 L 39.738281 5.417969 C 40.113281 5.417969 40.476562 5.492188 40.824219 5.636719 C 41.171875 5.777344 41.480469 5.984375 41.746094 6.25 C 42.011719 6.519531 42.21875 6.824219 42.363281 7.171875 C 42.507812 7.519531 42.578125 7.882812 42.582031 8.261719 L 42.582031 8.46875 L 55.175781 8.46875 C 55.421875 8.46875 55.65625 8.515625 55.882812 8.609375 C 56.113281 8.703125 56.3125 8.839844 56.484375 9.011719 C 56.660156 9.1875 56.792969 9.386719 56.886719 9.613281 C 56.980469 9.839844 57.027344 10.078125 57.027344 10.324219 Z M 24.785156 9.320312 L 42.214844 9.320312 L 42.214844 8.261719 C 42.214844 7.933594 42.152344 7.617188 42.027344 7.3125 C 41.902344 7.007812 41.722656 6.742188 41.488281 6.507812 C 41.257812 6.277344 40.988281 6.097656 40.6875 5.972656 C 40.382812 5.84375 40.066406 5.78125 39.738281 5.78125 L 38.804688 5.78125 C 38.496094 5.773438 38.214844 5.683594 37.960938 5.507812 C 37.707031 5.332031 37.519531 5.097656 37.40625 4.8125 C 36.863281 3.527344 35.332031 2.695312 33.507812 2.695312 C 31.675781 2.695312 30.140625 3.527344 29.59375 4.8125 C 29.480469 5.097656 29.296875 5.332031 29.042969 5.507812 C 28.789062 5.683594 28.507812 5.773438 28.199219 5.78125 L 27.265625 5.78125 C 26.9375 5.78125 26.621094 5.84375 26.316406 5.972656 C 26.011719 6.097656 25.746094 6.277344 25.511719 6.507812 C 25.28125 6.742188 25.101562 7.007812 24.976562 7.3125 C 24.847656 7.617188 24.785156 7.933594 24.785156 8.261719 Z M 24.785156 12.277344 L 42.214844 12.277344 L 42.214844 11.3125 L 24.785156 11.3125 Z M 24.421875 12.644531 L 24.421875 10.75 L 13.445312 10.75 L 13.445312 55.054688 L 18.796875 55.054688 C 18.917969 55.054688 18.980469 55.117188 18.980469 55.238281 L 18.980469 60.589844 L 53.558594 60.589844 L 53.558594 10.75 L 42.582031 10.75 L 42.582031 12.644531 Z M 13.703125 55.417969 L 18.617188 60.332031 L 18.617188 55.417969 Z M 56.664062 10.324219 C 56.664062 10.125 56.628906 9.933594 56.550781 9.753906 C 56.476562 9.570312 56.367188 9.410156 56.230469 9.269531 C 56.089844 9.128906 55.929688 9.023438 55.746094 8.945312 C 55.5625 8.871094 55.371094 8.832031 55.175781 8.832031 L 42.582031 8.832031 L 42.582031 10.386719 L 53.738281 10.386719 C 53.859375 10.386719 53.921875 10.445312 53.921875 10.570312 L 53.921875 60.773438 C 53.921875 60.894531 53.859375 60.953125 53.738281 60.953125 L 18.796875 60.953125 C 18.75 60.953125 18.707031 60.9375 18.671875 60.902344 L 13.132812 55.363281 C 13.121094 55.347656 13.109375 55.332031 13.097656 55.3125 C 13.097656 55.304688 13.09375 55.300781 13.09375 55.296875 C 13.085938 55.28125 13.085938 55.265625 13.082031 55.246094 C 13.082031 55.242188 13.082031 55.242188 13.082031 55.238281 L 13.082031 10.570312 C 13.082031 10.445312 13.140625 10.386719 13.261719 10.386719 L 24.421875 10.386719 L 24.421875 8.832031 L 11.828125 8.832031 C 11.628906 8.832031 11.441406 8.871094 11.257812 8.945312 C 11.074219 9.023438 10.914062 9.128906 10.773438 9.269531 C 10.632812 9.410156 10.527344 9.570312 10.449219 9.753906 C 10.375 9.933594 10.335938 10.125 10.335938 10.324219 L 10.335938 63.378906 C 10.335938 63.578125 10.375 63.769531 10.449219 63.949219 C 10.527344 64.132812 10.632812 64.292969 10.773438 64.433594 C 10.914062 64.574219 11.074219 64.679688 11.257812 64.757812 C 11.441406 64.832031 11.628906 64.871094 11.828125 64.871094 L 55.175781 64.871094 C 55.371094 64.871094 55.5625 64.832031 55.746094 64.757812 C 55.925781 64.679688 56.089844 64.574219 56.226562 64.433594 C 56.367188 64.292969 56.476562 64.132812 56.550781 63.949219 C 56.628906 63.769531 56.664062 63.578125 56.664062 63.378906 Z M 56.664062 10.324219 " fill-opacity="1" fill-rule="nonzero"/></g></svg>