<svg xmlns="http://www.w3.org/2000/svg" xmlns:xlink="http://www.w3.org/1999/xlink" width="90" zoomAndPan="magnify" viewBox="0 0 67.5 67.499996" height="90" preserveAspectRatio="xMidYMid meet" version="1.0"><defs><clipPath id="fba9690936"><path d="M 8.292969 7 L 35 7 L 35 55 L 8.292969 55 Z M 8.292969 7 " clip-rule="nonzero"/></clipPath><clipPath id="1eefc0c3c4"><path d="M 47 59 L 54 59 L 54 62.140625 L 47 62.140625 Z M 47 59 " clip-rule="nonzero"/></clipPath><clipPath id="0c6e2207d4"><path d="M 57 31 L 58.917969 31 L 58.917969 35 L 57 35 Z M 57 31 " clip-rule="nonzero"/></clipPath><clipPath id="6afd48677b"><path d="M 48 26 L 58.917969 26 L 58.917969 39 L 48 39 Z M 48 26 " clip-rule="nonzero"/></clipPath><clipPath id="662319afe1"><path d="M 47 26 L 58.917969 26 L 58.917969 34 L 47 34 Z M 47 26 " clip-rule="nonzero"/></clipPath><clipPath id="5fc7e99ad5"><path d="M 47 60 L 54 60 L 54 62.140625 L 47 62.140625 Z M 47 60 " clip-rule="nonzero"/></clipPath><clipPath id="a8dc32acee"><path d="M 57 31 L 58.917969 31 L 58.917969 35 L 57 35 Z M 57 31 " clip-rule="nonzero"/></clipPath><clipPath id="0a766b6554"><path d="M 53 61 L 58 61 L 58 62.140625 L 53 62.140625 Z M 53 61 " clip-rule="nonzero"/></clipPath><clipPath id="0fbaa72939"><path d="M 16 4.816406 L 28 4.816406 L 28 14 L 16 14 Z M 16 4.816406 " clip-rule="nonzero"/></clipPath></defs><path fill="#ffffff" d="M 44.054688 26.605469 L 47.175781 31.269531 L 51.441406 29.886719 L 47.945312 25.105469 C 47.839844 25.042969 47.726562 25.03125 47.609375 25.070312 L 44.15625 26.335938 C 44.09375 26.347656 44.050781 26.382812 44.03125 26.441406 C 44.007812 26.5 44.015625 26.554688 44.054688 26.605469 Z M 44.054688 26.605469 " fill-opacity="1" fill-rule="nonzero"/><path fill="#333333" d="M 54.898438 20.558594 C 54.339844 20.152344 53.714844 19.976562 53.027344 20.023438 C 52.78125 20.042969 52.539062 20.082031 52.304688 20.152344 C 51.3125 20.4375 51.269531 21.046875 51.429688 21.410156 C 51.652344 21.914062 52.390625 22.015625 52.449219 22.125 C 52.507812 22.234375 52.355469 23.332031 52.507812 23.347656 C 52.660156 23.367188 52.558594 24.210938 52.753906 24.582031 C 52.949219 24.953125 53.152344 25.054688 53.1875 25.347656 C 53.21875 25.644531 53.261719 25.738281 53.628906 25.769531 C 53.992188 25.804688 54.527344 25.820312 54.628906 25.703125 C 54.730469 25.585938 55.136719 25.289062 55.457031 24.96875 C 55.78125 24.648438 56.332031 23.789062 56.238281 22.777344 C 56.144531 21.761719 55.875 21.0625 54.90625 20.566406 Z M 54.898438 20.558594 " fill-opacity="1" fill-rule="nonzero"/><path fill="#ae7046" d="M 48.675781 26.066406 C 48.675781 26.066406 50.074219 28.148438 50.09375 28.125 C 50.109375 28.097656 51.40625 27.558594 51.421875 27.535156 C 51.441406 27.507812 50.871094 26.683594 50.558594 26.453125 C 50.246094 26.226562 49.550781 25.644531 48.675781 26.066406 Z M 48.675781 26.066406 " fill-opacity="1" fill-rule="nonzero"/><g clip-path="url(#fba9690936)"><path fill="#000000" d="M 9.371094 54.515625 L 33.863281 50.609375 C 34.089844 50.570312 34.277344 50.464844 34.425781 50.292969 C 34.578125 50.117188 34.652344 49.917969 34.652344 49.6875 L 34.652344 8.59375 C 34.652344 8.457031 34.625 8.328125 34.566406 8.203125 C 34.511719 8.082031 34.429688 7.976562 34.328125 7.886719 C 34.222656 7.796875 34.105469 7.734375 33.976562 7.699219 C 33.84375 7.660156 33.710938 7.652344 33.574219 7.675781 L 9.074219 11.589844 C 8.847656 11.625 8.660156 11.726562 8.511719 11.902344 C 8.367188 12.074219 8.292969 12.273438 8.292969 12.5 L 8.292969 53.601562 C 8.292969 53.738281 8.320312 53.867188 8.378906 53.992188 C 8.433594 54.113281 8.515625 54.21875 8.617188 54.308594 C 8.722656 54.394531 8.839844 54.457031 8.972656 54.492188 C 9.101562 54.53125 9.234375 54.535156 9.371094 54.515625 Z M 9.371094 54.515625 " fill-opacity="1" fill-rule="nonzero"/></g><path fill="#ffffff" d="M 10.335938 54.515625 L 34.832031 50.609375 C 35.058594 50.570312 35.246094 50.464844 35.394531 50.292969 C 35.542969 50.117188 35.617188 49.917969 35.617188 49.6875 L 35.617188 8.59375 C 35.621094 8.457031 35.589844 8.328125 35.535156 8.203125 C 35.476562 8.078125 35.394531 7.972656 35.292969 7.882812 C 35.1875 7.792969 35.066406 7.730469 34.9375 7.695312 C 34.804688 7.660156 34.667969 7.652344 34.535156 7.675781 L 10.039062 11.589844 C 9.8125 11.625 9.628906 11.726562 9.480469 11.902344 C 9.332031 12.074219 9.257812 12.273438 9.257812 12.5 L 9.257812 53.601562 C 9.257812 53.738281 9.285156 53.867188 9.34375 53.992188 C 9.402344 54.113281 9.480469 54.21875 9.585938 54.308594 C 9.6875 54.394531 9.804688 54.457031 9.9375 54.492188 C 10.070312 54.53125 10.203125 54.535156 10.335938 54.515625 Z M 10.335938 54.515625 " fill-opacity="1" fill-rule="nonzero"/><path fill="#000000" d="M 10.191406 54.589844 C 9.949219 54.589844 9.734375 54.511719 9.546875 54.355469 C 9.308594 54.160156 9.191406 53.910156 9.191406 53.601562 L 9.191406 12.5 C 9.191406 12.257812 9.269531 12.042969 9.429688 11.855469 C 9.589844 11.671875 9.789062 11.558594 10.03125 11.519531 L 34.523438 7.613281 C 34.828125 7.5625 35.097656 7.636719 35.332031 7.835938 C 35.5625 8.035156 35.679688 8.289062 35.679688 8.59375 L 35.679688 49.6875 C 35.679688 49.933594 35.601562 50.148438 35.441406 50.335938 C 35.285156 50.519531 35.082031 50.632812 34.839844 50.667969 L 10.34375 54.574219 Z M 10.328125 54.453125 L 34.820312 50.539062 C 35.035156 50.507812 35.207031 50.410156 35.347656 50.25 C 35.484375 50.089844 35.554688 49.902344 35.550781 49.6875 L 35.550781 8.59375 C 35.554688 8.328125 35.453125 8.105469 35.246094 7.9375 C 35.046875 7.761719 34.8125 7.695312 34.550781 7.742188 L 10.054688 11.648438 C 9.84375 11.679688 9.667969 11.777344 9.527344 11.9375 C 9.386719 12.097656 9.320312 12.285156 9.320312 12.5 L 9.320312 53.601562 C 9.320312 53.863281 9.421875 54.082031 9.625 54.253906 C 9.828125 54.425781 10.0625 54.492188 10.328125 54.453125 Z M 10.328125 54.453125 " fill-opacity="1" fill-rule="nonzero"/><path fill="#ffffff" d="M 55.59375 59.425781 C 55.59375 59.425781 55.296875 59.464844 55.171875 59.636719 C 55.042969 59.804688 54.855469 60.082031 54.8125 60.082031 C 54.773438 60.082031 54.253906 60.175781 54.144531 60.234375 C 54.035156 60.292969 53.753906 60.5625 53.832031 61.0625 C 53.90625 61.558594 54.015625 61.726562 54.222656 61.820312 C 54.425781 61.914062 55.078125 61.886719 55.628906 61.921875 C 56.179688 61.953125 56.949219 62.082031 57.273438 61.785156 C 57.59375 61.492188 57.570312 61 57.570312 60.890625 C 57.570312 60.78125 57.554688 59.945312 57.492188 59.796875 C 57.433594 59.644531 57.207031 59.382812 56.585938 59.382812 C 56.253906 59.378906 55.925781 59.394531 55.59375 59.425781 Z M 55.59375 59.425781 " fill-opacity="1" fill-rule="nonzero"/><g clip-path="url(#1eefc0c3c4)"><path fill="#ffffff" d="M 52.210938 59.375 C 52.210938 59.375 52.789062 59.441406 52.957031 59.894531 C 53.128906 60.351562 53.042969 61.273438 52.957031 61.515625 C 52.871094 61.761719 52.769531 61.953125 52.210938 61.996094 C 51.652344 62.039062 50.347656 62.089844 49.695312 61.980469 C 49.675781 61.988281 48.988281 61.929688 48.855469 61.929688 C 48.296875 61.847656 47.816406 61.605469 47.421875 61.203125 C 47.421875 61.203125 47.132812 60.46875 47.609375 60.125 C 47.800781 59.996094 48.011719 59.9375 48.242188 59.9375 C 48.632812 59.9375 49.039062 60.023438 49.40625 59.894531 C 49.769531 59.769531 50.253906 59.40625 50.523438 59.40625 Z M 52.210938 59.375 " fill-opacity="1" fill-rule="nonzero"/></g><path fill="#ae7046" d="M 50.683594 58.335938 C 50.683594 58.335938 50.734375 59.492188 50.71875 59.550781 C 50.703125 59.609375 50.566406 59.523438 50.441406 59.769531 C 50.3125 60.015625 50.71875 60.292969 51.414062 60.335938 C 52.109375 60.378906 52.730469 60.082031 52.660156 59.828125 C 52.59375 59.574219 52.574219 59.515625 52.574219 59.398438 C 52.574219 59.28125 52.667969 58.402344 52.652344 58.335938 C 52.636719 58.269531 50.683594 58.335938 50.683594 58.335938 Z M 50.683594 58.335938 " fill-opacity="1" fill-rule="nonzero"/><path fill="#ae7046" d="M 55.332031 58.257812 C 55.332031 58.257812 55.417969 59.203125 55.417969 59.363281 C 55.417969 59.523438 55.324219 59.695312 55.316406 59.796875 C 55.304688 59.894531 55.476562 60.039062 55.703125 60.117188 C 55.933594 60.191406 56.601562 60.183594 56.898438 60.015625 C 57.195312 59.847656 57.1875 59.667969 57.136719 59.609375 C 57.089844 59.535156 57.050781 59.457031 57.019531 59.375 C 57.019531 59.347656 57.070312 58.082031 57.070312 58.082031 Z M 55.332031 58.257812 " fill-opacity="1" fill-rule="nonzero"/><g clip-path="url(#0c6e2207d4)"><path fill="#ae7046" d="M 57.257812 34.082031 C 57.28125 34.0625 57.542969 34.476562 58.128906 34.242188 C 58.714844 34.003906 58.664062 33.304688 58.648438 33.21875 C 58.628906 33.136719 58.503906 31.742188 58.503906 31.742188 L 57.289062 32.164062 Z M 57.257812 34.082031 " fill-opacity="1" fill-rule="nonzero"/></g><path fill="#ae7046" d="M 45.011719 27.886719 C 45.011719 27.886719 44.84375 28.175781 44.816406 28.800781 C 44.792969 29.421875 45.125 30.46875 45.242188 30.867188 C 45.359375 31.261719 46.683594 34.148438 47.097656 34.636719 C 47.515625 35.125 47.996094 35.742188 48.675781 35.539062 C 49.355469 35.335938 50.285156 33.390625 50.285156 33.390625 L 48.394531 32.25 L 48.140625 32.714844 C 48.140625 32.714844 46.761719 30.539062 46.707031 30.089844 C 46.65625 29.644531 46.800781 29.195312 46.707031 28.839844 C 46.617188 28.488281 46.429688 28.445312 46.335938 28.722656 C 46.335938 28.722656 46.300781 29 46.285156 29.121094 C 46.265625 29.230469 46.226562 29.332031 46.167969 29.421875 C 46.140625 29.433594 45.582031 28.679688 45.488281 28.546875 Z M 45.011719 27.886719 " fill-opacity="1" fill-rule="nonzero"/><path fill="#ae7046" d="M 52.152344 26.757812 C 52.152344 26.757812 52.296875 26.167969 52.238281 25.667969 C 52.238281 25.667969 51.398438 26.007812 50.847656 25.617188 C 50.847656 25.617188 50.644531 25.550781 50.683594 25.0625 C 50.726562 24.574219 50.863281 24.234375 50.777344 24.167969 C 50.695312 24.101562 50.464844 24 50.515625 23.855469 C 50.566406 23.710938 50.898438 23.433594 50.921875 23.375 C 50.949219 23.316406 51.1875 21.804688 51.457031 21.542969 C 51.457031 21.542969 51.710938 21.890625 52.085938 21.957031 C 52.457031 22.023438 52.535156 22.152344 52.5 22.40625 C 52.464844 22.65625 52.363281 23.296875 52.507812 23.347656 C 52.632812 23.214844 52.769531 23.207031 52.914062 23.316406 C 53.152344 23.476562 53.152344 23.839844 52.890625 24.203125 C 52.625 24.5625 52.730469 24.453125 52.730469 24.453125 C 52.730469 24.453125 53.042969 24.953125 53.109375 25.09375 C 53.179688 25.238281 53.203125 25.710938 53.414062 25.761719 C 53.628906 25.8125 54.628906 25.703125 54.621094 25.753906 C 54.609375 25.804688 54.5 26.53125 54.542969 26.671875 C 54.585938 26.816406 52.8125 27.382812 52.152344 26.757812 Z M 52.152344 26.757812 " fill-opacity="1" fill-rule="nonzero"/><path fill="#9ba6e1" d="M 50.949219 38.15625 C 50.648438 38.882812 50.445312 39.636719 50.335938 40.417969 C 50.203125 41.582031 49.914062 44.878906 49.914062 44.878906 C 49.914062 44.878906 49.640625 46.835938 49.652344 47.402344 C 49.660156 47.96875 50.175781 57.949219 50.175781 58.097656 C 50.175781 58.25 50.429688 58.34375 50.457031 58.359375 C 50.480469 58.378906 52.472656 58.539062 52.921875 58.480469 C 53.371094 58.421875 53.339844 58.160156 53.332031 58.03125 C 53.320312 57.90625 53.652344 47.628906 53.679688 47.476562 C 53.703125 47.324219 54.066406 45.75 54.066406 45.75 C 54.066406 45.75 54.152344 48.035156 54.144531 48.230469 C 54.136719 48.421875 54.59375 57.957031 54.59375 57.957031 C 54.59375 57.957031 54.550781 58.234375 54.78125 58.320312 C 55.007812 58.402344 57.359375 58.445312 57.722656 57.972656 C 57.714844 57.957031 57.46875 49.605469 57.46875 49.605469 C 57.46875 49.605469 57.347656 48.027344 57.449219 47.585938 C 57.554688 47.148438 57.789062 41.976562 57.796875 41.523438 C 57.808594 40.890625 57.425781 39.109375 56.898438 37.96875 C 56.898438 37.96875 51.328125 37.4375 50.949219 38.15625 Z M 50.949219 38.15625 " fill-opacity="1" fill-rule="nonzero"/><g clip-path="url(#6afd48677b)"><path fill="#ffd6ac" d="M 51.796875 27.304688 C 51.796875 27.304688 49.90625 28.132812 49.71875 28.328125 C 49.53125 28.519531 49.320312 28.824219 48.828125 30.039062 C 48.335938 31.253906 48.015625 31.964844 48.015625 31.964844 C 48.015625 31.964844 48.109375 32.519531 49.203125 33.210938 C 50.296875 33.902344 50.753906 33.808594 50.753906 33.808594 C 50.753906 33.808594 50.632812 36.441406 50.625 36.6875 C 50.617188 36.933594 50.53125 37.800781 50.542969 37.945312 C 50.550781 38.085938 50.90625 38.230469 51.363281 38.296875 C 51.820312 38.367188 55.679688 38.417969 56.746094 37.988281 C 56.746094 37.988281 57.136719 37.925781 57.144531 37.617188 C 57.15625 37.304688 57.289062 33.269531 57.289062 33.269531 L 57.347656 32.359375 C 57.347656 32.359375 58.730469 32.175781 58.839844 31.640625 C 58.839844 31.640625 58.222656 29.273438 58.105469 29.019531 C 57.984375 28.765625 57.503906 27.703125 56.238281 27.476562 C 56.238281 27.476562 55.179688 27.164062 55.058594 27.027344 C 54.941406 26.890625 54.8125 26.570312 54.660156 26.445312 C 54.507812 26.320312 52.59375 26.429688 52.382812 26.511719 C 52.167969 26.597656 51.820312 26.808594 51.796875 27.304688 Z M 51.796875 27.304688 " fill-opacity="1" fill-rule="nonzero"/></g><path fill="#000000" d="M 51.421875 25.863281 C 51.125 25.863281 50.914062 25.796875 50.777344 25.660156 C 50.644531 25.527344 50.59375 25.316406 50.625 25.054688 C 50.625 25.027344 50.703125 24.4375 50.734375 24.261719 C 50.746094 24.226562 50.710938 24.191406 50.625 24.132812 C 50.542969 24.074219 50.441406 23.992188 50.457031 23.847656 C 50.472656 23.703125 50.558594 23.652344 50.652344 23.585938 C 50.746094 23.523438 50.820312 23.441406 50.871094 23.339844 C 50.917969 23.195312 50.953125 23.042969 50.980469 22.894531 C 51.066406 22.488281 51.1875 21.941406 51.398438 21.519531 C 51.414062 21.472656 51.441406 21.460938 51.480469 21.484375 C 51.523438 21.503906 51.53125 21.53125 51.507812 21.570312 C 51.304688 21.984375 51.195312 22.523438 51.109375 22.917969 C 51.082031 23.082031 51.039062 23.242188 50.980469 23.398438 C 50.925781 23.519531 50.839844 23.613281 50.726562 23.6875 C 50.644531 23.753906 50.59375 23.789062 50.582031 23.863281 C 50.574219 23.941406 50.625 23.964844 50.703125 24.03125 C 50.777344 24.101562 50.890625 24.167969 50.863281 24.292969 C 50.839844 24.421875 50.753906 25.0625 50.753906 25.070312 C 50.71875 25.289062 50.761719 25.457031 50.871094 25.566406 C 50.980469 25.675781 51.289062 25.769531 51.6875 25.71875 C 52.011719 25.679688 52.328125 25.597656 52.636719 25.476562 C 52.675781 25.453125 52.707031 25.464844 52.71875 25.507812 C 52.730469 25.546875 52.71875 25.574219 52.6875 25.59375 C 52.371094 25.71875 52.042969 25.804688 51.703125 25.847656 C 51.609375 25.859375 51.515625 25.867188 51.421875 25.863281 Z M 51.421875 25.863281 " fill-opacity="1" fill-rule="nonzero"/><path fill="#000000" d="M 53.824219 25.863281 C 53.679688 25.871094 53.539062 25.859375 53.398438 25.820312 C 53.230469 25.761719 53.195312 25.609375 53.144531 25.425781 C 53.125 25.339844 53.097656 25.253906 53.066406 25.171875 C 53.023438 25.054688 52.960938 24.945312 52.882812 24.851562 C 52.757812 24.726562 52.6875 24.578125 52.667969 24.402344 C 52.679688 24.375 52.699219 24.355469 52.730469 24.355469 C 52.761719 24.351562 52.785156 24.367188 52.796875 24.394531 C 52.804688 24.554688 52.890625 24.65625 52.972656 24.773438 C 53.066406 24.878906 53.136719 24.996094 53.1875 25.128906 L 53.269531 25.390625 C 53.3125 25.585938 53.339844 25.667969 53.441406 25.703125 C 53.542969 25.738281 54.210938 25.726562 54.59375 25.703125 C 54.632812 25.703125 54.65625 25.722656 54.660156 25.761719 C 54.667969 25.808594 54.648438 25.828125 54.601562 25.828125 C 54.542969 25.828125 54.152344 25.863281 53.824219 25.863281 Z M 53.824219 25.863281 " fill-opacity="1" fill-rule="nonzero"/><path fill="#000000" d="M 52.382812 24.625 C 52.324219 24.625 52.269531 24.617188 52.21875 24.589844 C 52.179688 24.570312 52.171875 24.542969 52.195312 24.503906 C 52.214844 24.472656 52.242188 24.464844 52.28125 24.480469 C 52.289062 24.480469 52.523438 24.589844 52.796875 24.234375 C 53.066406 23.878906 53.167969 23.628906 52.871094 23.359375 C 52.703125 23.214844 52.433594 23.441406 52.433594 23.449219 C 52.398438 23.496094 52.363281 23.496094 52.324219 23.453125 C 52.289062 23.410156 52.296875 23.375 52.347656 23.347656 C 52.363281 23.339844 52.703125 23.046875 52.957031 23.265625 C 53.210938 23.484375 53.230469 23.898438 52.898438 24.320312 C 52.703125 24.574219 52.507812 24.625 52.382812 24.625 Z M 52.382812 24.625 " fill-opacity="1" fill-rule="nonzero"/><path fill="#000000" d="M 52.398438 24.058594 C 52.363281 24.054688 52.34375 24.035156 52.339844 24 C 52.3125 23.855469 52.347656 23.730469 52.441406 23.621094 C 52.503906 23.554688 52.578125 23.527344 52.667969 23.535156 C 52.855469 23.558594 52.882812 23.738281 52.871094 23.839844 C 52.875 23.890625 52.851562 23.90625 52.804688 23.890625 C 52.765625 23.882812 52.746094 23.863281 52.746094 23.820312 C 52.753906 23.804688 52.761719 23.679688 52.652344 23.660156 C 52.605469 23.660156 52.566406 23.671875 52.535156 23.703125 C 52.464844 23.785156 52.441406 23.878906 52.464844 23.980469 C 52.464844 24.019531 52.445312 24.046875 52.40625 24.058594 Z M 52.398438 24.058594 " fill-opacity="1" fill-rule="nonzero"/><path fill="#000000" d="M 52.304688 24.269531 C 52.269531 24.269531 52.246094 24.25 52.246094 24.226562 C 52.230469 24.1875 52.246094 24.160156 52.289062 24.152344 C 52.386719 24.125 52.457031 24.066406 52.5 23.972656 C 52.535156 23.890625 52.535156 23.847656 52.515625 23.832031 L 52.449219 23.832031 C 52.421875 23.839844 52.382812 23.820312 52.382812 23.789062 C 52.367188 23.746094 52.382812 23.722656 52.421875 23.710938 C 52.492188 23.691406 52.554688 23.707031 52.609375 23.753906 C 52.660156 23.8125 52.667969 23.90625 52.617188 24.023438 C 52.5625 24.15625 52.460938 24.242188 52.320312 24.277344 Z M 52.304688 24.269531 " fill-opacity="1" fill-rule="nonzero"/><path fill="#000000" d="M 51.769531 22.742188 C 51.75 22.742188 51.730469 22.734375 51.71875 22.714844 C 51.636719 22.601562 51.523438 22.546875 51.378906 22.546875 C 51.335938 22.554688 51.3125 22.535156 51.3125 22.488281 C 51.3125 22.445312 51.335938 22.421875 51.378906 22.421875 C 51.574219 22.410156 51.71875 22.484375 51.820312 22.648438 C 51.863281 22.6875 51.855469 22.714844 51.804688 22.734375 Z M 51.769531 22.742188 " fill-opacity="1" fill-rule="nonzero"/><path fill="#000000" d="M 51.398438 23.113281 C 51.429688 23.121094 51.4375 23.164062 51.417969 23.246094 C 51.398438 23.328125 51.371094 23.367188 51.335938 23.359375 C 51.304688 23.351562 51.296875 23.304688 51.316406 23.222656 C 51.339844 23.140625 51.367188 23.105469 51.398438 23.113281 Z M 51.398438 23.113281 " fill-opacity="1" fill-rule="nonzero"/><path fill="#000000" d="M 51.03125 24.882812 C 50.960938 24.886719 50.886719 24.871094 50.820312 24.84375 C 50.777344 24.828125 50.765625 24.800781 50.785156 24.757812 C 50.800781 24.714844 50.828125 24.703125 50.871094 24.722656 C 51.007812 24.777344 51.136719 24.769531 51.261719 24.699219 C 51.289062 24.679688 51.316406 24.675781 51.347656 24.683594 C 51.386719 24.691406 51.402344 24.71875 51.390625 24.757812 C 51.378906 24.785156 51.359375 24.796875 51.328125 24.800781 L 51.3125 24.816406 C 51.222656 24.855469 51.128906 24.878906 51.03125 24.882812 Z M 51.03125 24.882812 " fill-opacity="1" fill-rule="nonzero"/><path fill="#000000" d="M 54.59375 26.511719 C 54.558594 26.511719 54.539062 26.496094 54.535156 26.460938 C 54.484375 26.300781 54.542969 25.855469 54.550781 25.789062 C 54.550781 25.707031 54.582031 25.636719 54.636719 25.578125 C 54.636719 25.570312 54.640625 25.566406 54.644531 25.566406 C 54.660156 25.558594 55.765625 24.859375 56.011719 23.921875 C 56.304688 22.824219 56.339844 21.359375 54.882812 20.617188 L 54.773438 20.546875 C 54.558594 20.402344 54.328125 20.289062 54.085938 20.203125 C 53.78125 20.109375 53.644531 20.058594 52.789062 20.125 C 52.769531 20.125 51.738281 20.203125 51.457031 20.894531 C 51.355469 21.15625 51.523438 21.460938 51.523438 21.46875 C 51.675781 21.722656 51.992188 21.847656 52.226562 21.941406 C 52.464844 22.03125 52.457031 22.03125 52.5 22.09375 C 52.542969 22.152344 52.535156 22.835938 52.515625 22.886719 C 52.480469 23.03125 52.476562 23.175781 52.507812 23.324219 C 52.515625 23.363281 52.503906 23.390625 52.464844 23.410156 C 52.425781 23.414062 52.398438 23.398438 52.390625 23.359375 C 52.34375 23.1875 52.347656 23.019531 52.398438 22.851562 C 52.421875 22.734375 52.464844 22.253906 52.398438 22.167969 C 52.328125 22.121094 52.253906 22.085938 52.175781 22.058594 C 51.941406 21.964844 51.59375 21.820312 51.414062 21.527344 C 51.40625 21.511719 51.210938 21.164062 51.339844 20.851562 C 51.652344 20.085938 52.730469 20.007812 52.78125 20 C 53.652344 19.933594 53.804688 19.984375 54.128906 20.085938 C 54.382812 20.167969 54.621094 20.289062 54.839844 20.445312 L 54.941406 20.507812 C 56.476562 21.28125 56.433594 22.808594 56.136719 23.957031 C 55.882812 24.910156 54.824219 25.601562 54.722656 25.667969 C 54.695312 25.703125 54.679688 25.742188 54.679688 25.789062 C 54.660156 25.921875 54.621094 26.292969 54.652344 26.421875 C 54.667969 26.460938 54.652344 26.484375 54.609375 26.496094 Z M 54.59375 26.511719 " fill-opacity="1" fill-rule="nonzero"/><path fill="#000000" d="M 52.1875 26.613281 L 52.175781 26.613281 C 52.136719 26.605469 52.121094 26.578125 52.125 26.539062 C 52.175781 26.253906 52.1875 25.964844 52.167969 25.675781 C 52.152344 25.628906 52.167969 25.605469 52.21875 25.609375 C 52.261719 25.609375 52.285156 25.628906 52.296875 25.667969 C 52.316406 25.96875 52.300781 26.269531 52.246094 26.5625 C 52.246094 26.597656 52.21875 26.613281 52.1875 26.613281 Z M 52.1875 26.613281 " fill-opacity="1" fill-rule="nonzero"/><path fill="#000000" d="M 52.246094 26.03125 C 52.246094 26.03125 52.761719 25.527344 52.6875 25.507812 C 52.609375 25.492188 52.261719 25.667969 52.238281 25.667969 C 52.230469 25.789062 52.234375 25.910156 52.246094 26.03125 Z M 52.246094 26.03125 " fill-opacity="1" fill-rule="nonzero"/><g clip-path="url(#662319afe1)"><path fill="#000000" d="M 50.625 33.820312 L 50.582031 33.820312 C 50.203125 33.742188 49.84375 33.613281 49.5 33.4375 C 49.03125 33.195312 47.84375 32.222656 47.957031 31.953125 C 47.996094 31.851562 48.039062 31.75 48.089844 31.652344 C 48.351562 31.125 48.578125 30.585938 48.769531 30.03125 C 49.152344 28.890625 49.507812 28.308594 49.957031 28.089844 C 50.40625 27.871094 51.523438 27.363281 51.738281 27.273438 C 51.746094 27.085938 51.800781 26.917969 51.90625 26.765625 C 51.921875 26.75 52.1875 26.4375 52.535156 26.402344 C 52.882812 26.371094 53.875 26.292969 54.441406 26.351562 C 54.65625 26.359375 54.816406 26.457031 54.917969 26.648438 C 54.9375 26.6875 54.953125 26.730469 54.957031 26.773438 C 54.996094 26.902344 55.078125 26.992188 55.195312 27.054688 C 55.363281 27.117188 55.539062 27.171875 55.714844 27.214844 C 56.273438 27.375 57.042969 27.59375 57.257812 27.804688 C 57.347656 27.855469 57.976562 28.234375 58.332031 29.652344 C 58.519531 30.359375 58.65625 30.824219 58.765625 31.160156 C 58.824219 31.355469 58.867188 31.507812 58.902344 31.632812 C 58.917969 31.710938 58.902344 31.777344 58.851562 31.835938 C 58.621094 32.140625 57.605469 32.417969 57.347656 32.425781 C 57.289062 32.453125 57.257812 32.433594 57.253906 32.371094 C 57.25 32.304688 57.277344 32.28125 57.339844 32.300781 C 57.585938 32.292969 58.554688 32.023438 58.75 31.761719 C 58.78125 31.710938 58.78125 31.675781 58.773438 31.667969 C 58.765625 31.660156 58.699219 31.390625 58.636719 31.203125 C 58.535156 30.859375 58.390625 30.394531 58.214844 29.675781 C 57.851562 28.242188 57.195312 27.914062 57.1875 27.914062 C 57.175781 27.914062 57.171875 27.90625 57.171875 27.898438 C 56.992188 27.710938 56.203125 27.484375 55.679688 27.339844 C 55.496094 27.292969 55.320312 27.238281 55.144531 27.171875 C 54.984375 27.09375 54.878906 26.96875 54.832031 26.800781 L 54.832031 26.78125 C 54.824219 26.722656 54.738281 26.503906 54.425781 26.480469 C 53.875 26.421875 52.839844 26.496094 52.542969 26.53125 C 52.246094 26.5625 52.007812 26.84375 52.007812 26.84375 C 51.914062 26.984375 51.867188 27.144531 51.863281 27.3125 C 51.863281 27.34375 51.847656 27.363281 51.820312 27.375 C 51.8125 27.375 50.492188 27.964844 50.015625 28.199219 C 49.539062 28.4375 49.132812 29.339844 48.886719 30.074219 C 48.699219 30.636719 48.46875 31.179688 48.199219 31.710938 C 48.140625 31.835938 48.089844 31.945312 48.074219 31.996094 C 48.058594 32.046875 48.988281 33.027344 49.558594 33.328125 C 49.890625 33.5 50.242188 33.621094 50.609375 33.699219 C 50.660156 33.707031 50.691406 33.6875 50.710938 33.640625 L 51.480469 31.246094 C 51.492188 31.207031 51.519531 31.191406 51.558594 31.203125 C 51.597656 31.214844 51.613281 31.238281 51.601562 31.28125 L 50.828125 33.675781 C 50.796875 33.773438 50.730469 33.820312 50.625 33.820312 Z M 50.625 33.820312 " fill-opacity="1" fill-rule="nonzero"/></g><path fill="#000000" d="M 52.160156 27.355469 C 52.125 27.355469 52.105469 27.339844 52.101562 27.304688 C 52.085938 27.265625 52.101562 27.238281 52.144531 27.230469 C 52.210938 27.214844 53.796875 26.808594 54.628906 26.984375 C 54.667969 26.996094 54.683594 27.019531 54.679688 27.0625 C 54.667969 27.101562 54.644531 27.117188 54.601562 27.101562 C 53.796875 26.933594 52.195312 27.347656 52.175781 27.347656 Z M 52.160156 27.355469 " fill-opacity="1" fill-rule="nonzero"/><path fill="#000000" d="M 53.179688 38.410156 C 52.710938 38.410156 52.269531 38.398438 51.90625 38.375 C 50.660156 38.28125 50.5 38.085938 50.480469 37.953125 C 50.464844 37.816406 50.480469 37.496094 50.507812 37.167969 C 50.550781 36.785156 50.574219 36.40625 50.574219 36.019531 C 50.566406 35.757812 50.59375 35.4375 50.617188 35.101562 C 50.652344 34.605469 50.695312 34.089844 50.644531 33.761719 C 50.613281 33.707031 50.628906 33.671875 50.6875 33.660156 C 50.75 33.648438 50.777344 33.675781 50.769531 33.734375 C 50.820312 34.082031 50.777344 34.605469 50.746094 35.109375 C 50.714844 35.410156 50.703125 35.710938 50.703125 36.011719 C 50.699219 36.402344 50.679688 36.789062 50.632812 37.175781 C 50.609375 37.496094 50.582031 37.75 50.609375 37.9375 C 50.632812 38.121094 52.382812 38.347656 54.40625 38.257812 C 55.882812 38.179688 56.867188 38.011719 57.042969 37.792969 C 57.0625 37.777344 57.070312 37.757812 57.070312 37.734375 C 57.042969 37.574219 57.078125 36.855469 57.128906 35.9375 C 57.179688 35.015625 57.238281 33.609375 57.230469 32.804688 C 57.214844 31.167969 57.390625 30.597656 57.398438 30.578125 C 57.410156 30.539062 57.4375 30.523438 57.476562 30.539062 C 57.519531 30.546875 57.53125 30.574219 57.519531 30.613281 C 57.519531 30.621094 57.339844 31.195312 57.359375 32.804688 C 57.367188 33.617188 57.308594 34.90625 57.257812 35.945312 C 57.214844 36.8125 57.171875 37.574219 57.195312 37.707031 C 57.207031 37.773438 57.1875 37.828125 57.144531 37.878906 C 56.867188 38.214844 55.316406 38.339844 54.414062 38.382812 C 54.007812 38.398438 53.585938 38.410156 53.179688 38.410156 Z M 53.179688 38.410156 " fill-opacity="1" fill-rule="nonzero"/><path fill="#000000" d="M 50.71875 34.933594 C 50.71875 34.933594 50.761719 33.871094 50.753906 33.8125 C 50.703125 33.589844 51.480469 31.429688 51.480469 31.429688 C 51.480469 31.429688 51.125 34.082031 50.71875 34.933594 Z M 50.71875 34.933594 " fill-opacity="1" fill-rule="nonzero"/><path fill="#000000" d="M 47.800781 33.414062 C 47.785156 33.414062 47.769531 33.414062 47.761719 33.398438 C 47.730469 33.367188 47.730469 33.335938 47.761719 33.304688 C 47.84375 33.21875 48.074219 32.707031 48.199219 32.386719 C 48.222656 32.355469 48.25 32.34375 48.285156 32.351562 C 48.324219 32.367188 48.335938 32.398438 48.320312 32.433594 C 48.285156 32.519531 47.980469 33.261719 47.84375 33.398438 C 47.835938 33.414062 47.820312 33.414062 47.800781 33.414062 Z M 47.800781 33.414062 " fill-opacity="1" fill-rule="nonzero"/><path fill="#000000" d="M 48.132812 32.714844 L 48.089844 32.695312 C 47.972656 32.585938 46.75 30.425781 46.648438 30.199219 C 46.632812 30.164062 46.640625 30.136719 46.675781 30.117188 C 46.71875 30.09375 46.746094 30.105469 46.761719 30.148438 C 46.902344 30.46875 48.082031 32.511719 48.175781 32.605469 C 48.203125 32.632812 48.203125 32.660156 48.175781 32.6875 C 48.167969 32.707031 48.152344 32.714844 48.132812 32.714844 Z M 48.132812 32.714844 " fill-opacity="1" fill-rule="nonzero"/><path fill="#000000" d="M 51.992188 58.546875 C 51.347656 58.546875 50.660156 58.488281 50.335938 58.359375 C 50.175781 58.292969 50.101562 58.199219 50.117188 58.089844 C 50.132812 57.980469 50.03125 55.949219 49.90625 53.898438 C 49.734375 50.988281 49.539062 47.679688 49.617188 47.082031 C 49.695312 46.480469 49.847656 44.804688 49.988281 43.292969 C 50.050781 42.609375 50.109375 41.933594 50.167969 41.335938 C 50.347656 39.414062 50.839844 38.238281 50.839844 38.230469 C 50.851562 38.1875 50.882812 38.175781 50.921875 38.199219 C 50.96875 38.207031 50.980469 38.230469 50.957031 38.273438 C 50.949219 38.289062 50.472656 39.445312 50.296875 41.34375 C 50.234375 41.945312 50.175781 42.625 50.109375 43.300781 C 49.972656 44.8125 49.828125 46.371094 49.746094 47.097656 C 49.667969 47.6875 49.871094 51.128906 50.03125 53.890625 C 50.167969 56.125 50.277344 57.886719 50.234375 58.109375 C 50.234375 58.140625 50.261719 58.175781 50.320312 58.210938 C 50.855469 58.511719 53.050781 58.429688 53.246094 58.300781 C 53.320312 57.957031 53.484375 52.328125 53.550781 49.605469 C 53.585938 48.5 53.601562 47.707031 53.609375 47.578125 C 53.636719 47.105469 54.710938 42.59375 55.101562 41.074219 C 55.117188 41.03125 55.144531 41.019531 55.1875 41.03125 C 55.230469 41.042969 55.242188 41.066406 55.230469 41.109375 C 54.847656 42.585938 53.761719 47.125 53.738281 47.585938 C 53.730469 47.707031 53.710938 48.507812 53.679688 49.613281 C 53.5 56.066406 53.425781 58.285156 53.355469 58.378906 C 53.289062 58.46875 52.660156 58.546875 51.992188 58.546875 Z M 51.992188 58.546875 " fill-opacity="1" fill-rule="nonzero"/><path fill="#000000" d="M 55.449219 58.460938 C 54.898438 58.460938 54.601562 58.378906 54.558594 58.199219 C 54.484375 57.863281 54.3125 53.652344 54.203125 50.871094 C 54.160156 49.773438 54.128906 48.980469 54.117188 48.835938 C 54.085938 48.363281 54.066406 45.96875 54.078125 45.511719 C 54.082031 45.472656 54.105469 45.453125 54.144531 45.453125 C 54.191406 45.453125 54.210938 45.476562 54.203125 45.519531 C 54.195312 45.96875 54.210938 48.355469 54.246094 48.828125 C 54.253906 48.980469 54.289062 49.773438 54.332031 50.871094 C 54.433594 53.476562 54.609375 57.847656 54.679688 58.167969 C 54.6875 58.191406 54.730469 58.277344 55.078125 58.320312 C 56 58.421875 57.585938 58.109375 57.65625 57.957031 C 57.722656 57.804688 57.382812 49.121094 57.339844 48.515625 C 57.316406 48.167969 57.449219 46.195312 57.578125 44.457031 C 57.644531 43.460938 57.714844 42.535156 57.730469 42.09375 C 57.839844 39.816406 56.882812 38.113281 56.832031 38.027344 C 56.804688 38 56.804688 37.972656 56.832031 37.945312 C 56.855469 37.921875 56.878906 37.914062 56.910156 37.925781 C 57 37.96875 57.96875 39.835938 57.859375 42.09375 C 57.839844 42.542969 57.773438 43.46875 57.707031 44.464844 C 57.578125 46.203125 57.441406 48.179688 57.46875 48.507812 C 57.503906 49.011719 57.824219 57.667969 57.78125 57.972656 C 57.738281 58.277344 56.289062 58.429688 55.789062 58.453125 Z M 55.449219 58.460938 " fill-opacity="1" fill-rule="nonzero"/><path fill="#000000" d="M 50.652344 59.886719 L 50.632812 59.886719 C 50.597656 59.871094 50.582031 59.84375 50.59375 59.804688 C 50.726562 59.414062 50.617188 58.46875 50.617188 58.460938 C 50.621094 58.421875 50.640625 58.398438 50.675781 58.386719 C 50.71875 58.386719 50.738281 58.40625 50.746094 58.445312 C 50.753906 58.488281 50.855469 59.433594 50.71875 59.847656 C 50.707031 59.875 50.683594 59.890625 50.652344 59.886719 Z M 50.652344 59.886719 " fill-opacity="1" fill-rule="nonzero"/><path fill="#000000" d="M 55.382812 59.8125 C 55.34375 59.808594 55.324219 59.785156 55.324219 59.746094 C 55.332031 59.441406 55.355469 58.699219 55.273438 58.429688 C 55.257812 58.386719 55.273438 58.363281 55.316406 58.351562 C 55.355469 58.339844 55.378906 58.351562 55.390625 58.394531 C 55.484375 58.664062 55.46875 59.363281 55.449219 59.753906 C 55.445312 59.792969 55.421875 59.8125 55.382812 59.8125 Z M 55.382812 59.8125 " fill-opacity="1" fill-rule="nonzero"/><path fill="#000000" d="M 57.070312 59.972656 C 57.035156 59.972656 57.011719 59.957031 57.011719 59.921875 C 56.925781 59.566406 56.960938 58.867188 56.976562 58.488281 C 56.976562 58.386719 56.984375 58.292969 56.984375 58.277344 C 56.96875 58.230469 56.984375 58.207031 57.035156 58.210938 C 57.082031 58.203125 57.105469 58.222656 57.105469 58.269531 C 57.109375 58.34375 57.109375 58.421875 57.105469 58.496094 C 57.085938 58.832031 57.050781 59.550781 57.128906 59.894531 C 57.140625 59.9375 57.128906 59.960938 57.085938 59.972656 Z M 57.070312 59.972656 " fill-opacity="1" fill-rule="nonzero"/><path fill="#000000" d="M 51.390625 60.386719 C 51.058594 60.386719 50.746094 60.328125 50.542969 60.167969 C 50.335938 60.007812 50.320312 59.921875 50.335938 59.796875 C 50.355469 59.667969 50.617188 59.484375 50.632812 59.484375 C 50.675781 59.457031 50.703125 59.46875 50.710938 59.515625 C 50.734375 59.558594 50.722656 59.585938 50.675781 59.601562 C 50.625 59.617188 50.472656 59.703125 50.464844 59.8125 C 50.457031 59.921875 50.507812 59.980469 50.617188 60.066406 C 51 60.367188 51.890625 60.269531 52.371094 60.097656 C 52.472656 60.082031 52.546875 60.027344 52.59375 59.9375 C 52.621094 59.871094 52.621094 59.804688 52.59375 59.734375 C 52.578125 59.703125 52.5625 59.667969 52.542969 59.636719 C 52.507812 59.566406 52.507812 59.542969 52.507812 59.398438 C 52.515625 58.890625 52.558594 58.46875 52.558594 58.46875 C 52.5625 58.429688 52.585938 58.410156 52.625 58.410156 C 52.660156 58.421875 52.6875 58.445312 52.679688 58.480469 C 52.667969 58.511719 52.636719 58.890625 52.636719 59.398438 C 52.636719 59.523438 52.636719 59.523438 52.660156 59.585938 L 52.710938 59.695312 C 52.753906 59.792969 52.753906 59.890625 52.710938 59.988281 C 52.644531 60.105469 52.546875 60.183594 52.414062 60.21875 C 52.082031 60.332031 51.742188 60.386719 51.390625 60.386719 Z M 51.390625 60.386719 " fill-opacity="1" fill-rule="nonzero"/><path fill="#000000" d="M 50.761719 61.660156 C 50.023438 61.667969 49.292969 61.605469 48.566406 61.464844 C 47.675781 61.273438 47.429688 60.78125 47.414062 60.730469 C 47.394531 60.679688 47.191406 60.308594 47.625 60.046875 C 47.863281 59.90625 48.191406 59.90625 48.546875 59.90625 C 48.90625 59.90625 49.132812 59.90625 49.386719 59.820312 C 49.574219 59.757812 49.75 59.679688 49.921875 59.585938 C 50.183594 59.449219 50.40625 59.339844 50.746094 59.347656 C 50.785156 59.347656 50.804688 59.367188 50.804688 59.40625 C 50.804688 59.445312 50.785156 59.46875 50.746094 59.472656 C 50.441406 59.464844 50.226562 59.574219 49.980469 59.703125 C 49.800781 59.796875 49.613281 59.878906 49.421875 59.945312 C 49.152344 60.03125 48.84375 60.03125 48.546875 60.03125 C 48.253906 60.03125 47.90625 60.03125 47.691406 60.15625 C 47.480469 60.285156 47.496094 60.640625 47.523438 60.671875 C 47.523438 60.679688 47.742188 61.152344 48.589844 61.332031 C 49.292969 61.484375 50.183594 61.542969 51.253906 61.515625 C 52.320312 61.492188 52.6875 61.433594 52.890625 61.152344 C 53.09375 60.875 52.972656 60.074219 52.863281 59.855469 C 52.753906 59.636719 52.558594 59.558594 52.550781 59.558594 C 52.503906 59.558594 52.484375 59.535156 52.492188 59.492188 C 52.492188 59.453125 52.511719 59.433594 52.550781 59.433594 C 52.558594 59.433594 52.8125 59.441406 52.984375 59.796875 C 53.085938 60.015625 53.230469 60.890625 52.992188 61.230469 C 52.753906 61.566406 52.371094 61.609375 51.253906 61.644531 Z M 50.761719 61.660156 " fill-opacity="1" fill-rule="nonzero"/><g clip-path="url(#5fc7e99ad5)"><path fill="#000000" d="M 51.523438 62.125 C 51.160156 62.121094 50.792969 62.097656 50.429688 62.054688 C 50.058594 62.023438 49.632812 61.988281 49.109375 61.972656 C 48.183594 61.953125 47.480469 61.5 47.378906 61.179688 C 47.308594 60.917969 47.304688 60.65625 47.363281 60.394531 C 47.367188 60.347656 47.390625 60.328125 47.4375 60.34375 C 47.480469 60.355469 47.492188 60.378906 47.480469 60.417969 C 47.433594 60.664062 47.441406 60.90625 47.507812 61.144531 C 47.574219 61.371094 48.210938 61.828125 49.117188 61.84375 C 49.640625 61.863281 50.066406 61.894531 50.441406 61.929688 C 50.894531 61.984375 51.347656 62.007812 51.804688 61.996094 C 52.6875 61.953125 52.730469 61.878906 52.839844 61.695312 C 52.949219 61.507812 52.957031 60.976562 52.957031 60.976562 C 52.957031 60.929688 52.980469 60.910156 53.027344 60.910156 C 53.066406 60.914062 53.085938 60.9375 53.085938 60.976562 C 53.085938 60.992188 53.085938 61.515625 52.949219 61.753906 C 52.8125 61.988281 52.679688 62.082031 51.8125 62.125 Z M 51.523438 62.125 " fill-opacity="1" fill-rule="nonzero"/></g><g clip-path="url(#a8dc32acee)"><path fill="#000000" d="M 57.765625 34.382812 C 57.390625 34.382812 57.28125 34.183594 57.273438 34.171875 C 57.257812 34.136719 57.265625 34.109375 57.296875 34.089844 C 57.335938 34.066406 57.363281 34.074219 57.382812 34.113281 C 57.390625 34.113281 57.484375 34.273438 57.808594 34.257812 C 58.046875 34.238281 58.246094 34.136719 58.402344 33.953125 C 58.558594 33.761719 58.625 33.542969 58.597656 33.296875 L 58.542969 32.847656 C 58.503906 32.433594 58.460938 32.113281 58.441406 32.011719 C 58.441406 31.976562 58.457031 31.949219 58.492188 31.9375 C 58.539062 31.929688 58.566406 31.953125 58.570312 31.996094 C 58.585938 32.097656 58.621094 32.425781 58.671875 32.832031 L 58.722656 33.277344 C 58.757812 33.566406 58.683594 33.820312 58.492188 34.039062 C 58.316406 34.25 58.089844 34.367188 57.816406 34.382812 Z M 57.765625 34.382812 " fill-opacity="1" fill-rule="nonzero"/></g><path fill="#000000" d="M 46.683594 30.25 L 46.675781 30.25 C 46.636719 30.238281 46.617188 30.214844 46.617188 30.175781 C 46.617188 30.175781 46.675781 29.632812 46.675781 29.433594 L 46.675781 29.160156 C 46.6875 29.007812 46.671875 28.859375 46.625 28.714844 C 46.589844 28.640625 46.546875 28.589844 46.496094 28.597656 C 46.445312 28.605469 46.414062 28.65625 46.394531 28.738281 C 46.378906 28.824219 46.378906 28.917969 46.371094 28.992188 C 46.359375 29.070312 46.34375 29.253906 46.292969 29.332031 C 46.242188 29.40625 46.175781 29.550781 46.175781 29.550781 C 46.15625 29.585938 46.128906 29.597656 46.089844 29.582031 C 46.042969 29.570312 46.035156 29.542969 46.054688 29.5 C 46.09375 29.417969 46.140625 29.339844 46.191406 29.261719 C 46.226562 29.175781 46.246094 29.082031 46.242188 28.984375 L 46.269531 28.714844 C 46.300781 28.546875 46.402344 28.480469 46.488281 28.46875 C 46.574219 28.460938 46.691406 28.539062 46.742188 28.671875 C 46.792969 28.832031 46.8125 28.996094 46.800781 29.160156 L 46.800781 29.433594 C 46.800781 29.644531 46.742188 30.164062 46.742188 30.191406 C 46.738281 30.226562 46.71875 30.246094 46.683594 30.25 Z M 46.683594 30.25 " fill-opacity="1" fill-rule="nonzero"/><path fill="#000000" d="M 46.140625 29.515625 C 46.117188 29.511719 46.101562 29.503906 46.089844 29.484375 L 44.0625 26.671875 C 44.054688 26.652344 44.042969 26.632812 44.03125 26.613281 C 43.980469 26.5625 43.960938 26.503906 43.96875 26.4375 C 44.003906 26.367188 44.054688 26.3125 44.121094 26.277344 C 44.351562 26.148438 47.429688 25.054688 47.589844 25.003906 L 47.597656 25.003906 C 47.761719 24.960938 47.863281 24.925781 47.996094 25.0625 C 48.097656 25.171875 48.191406 25.285156 48.277344 25.40625 L 49.050781 26.488281 C 49.074219 26.523438 49.066406 26.550781 49.03125 26.570312 C 48.996094 26.613281 48.964844 26.605469 48.945312 26.554688 L 48.175781 25.484375 C 48.089844 25.367188 48 25.253906 47.90625 25.144531 C 47.828125 25.070312 47.792969 25.078125 47.632812 25.121094 L 47.625 25.121094 C 47.464844 25.164062 44.410156 26.25 44.191406 26.378906 C 44.105469 26.429688 44.097656 26.453125 44.097656 26.460938 C 44.097656 26.472656 44.113281 26.503906 44.132812 26.539062 L 44.175781 26.597656 L 46.191406 29.40625 C 46.214844 29.441406 46.210938 29.46875 46.175781 29.492188 Z M 46.140625 29.515625 " fill-opacity="1" fill-rule="nonzero"/><path fill="#000000" d="M 47.371094 31.378906 C 47.332031 31.375 47.3125 31.351562 47.3125 31.3125 C 47.3125 30.941406 48.371094 30.6875 48.582031 30.636719 C 48.636719 30.609375 48.667969 30.625 48.679688 30.683594 C 48.695312 30.746094 48.667969 30.769531 48.609375 30.765625 C 48.125 30.875 47.4375 31.109375 47.4375 31.3125 C 47.433594 31.355469 47.410156 31.375 47.371094 31.378906 Z M 47.371094 31.378906 " fill-opacity="1" fill-rule="nonzero"/><path fill="#000000" d="M 56.898438 37.96875 C 56.859375 37.996094 55.382812 38.382812 53.289062 38.347656 C 53.289062 38.347656 53.457031 38.476562 54.847656 38.558594 C 56.238281 38.644531 57.035156 38.324219 57.035156 38.324219 Z M 56.898438 37.96875 " fill-opacity="1" fill-rule="nonzero"/><path fill="#000000" d="M 48.84375 60.554688 C 48.804688 60.554688 48.785156 60.535156 48.785156 60.496094 C 48.769531 60.351562 48.800781 60.214844 48.871094 60.089844 C 48.894531 60.058594 48.921875 60.050781 48.957031 60.074219 C 48.988281 60.097656 48.996094 60.125 48.972656 60.15625 C 48.921875 60.265625 48.902344 60.378906 48.914062 60.496094 C 48.914062 60.535156 48.894531 60.554688 48.855469 60.554688 Z M 48.84375 60.554688 " fill-opacity="1" fill-rule="nonzero"/><path fill="#000000" d="M 49.183594 60.546875 C 49.148438 60.546875 49.128906 60.53125 49.125 60.496094 C 49.089844 60.34375 49.121094 60.203125 49.210938 60.074219 C 49.238281 60.03125 49.269531 60.027344 49.304688 60.066406 C 49.335938 60.089844 49.339844 60.117188 49.3125 60.148438 C 49.246094 60.246094 49.226562 60.355469 49.242188 60.46875 C 49.257812 60.511719 49.242188 60.535156 49.203125 60.546875 Z M 49.183594 60.546875 " fill-opacity="1" fill-rule="nonzero"/><path fill="#000000" d="M 56.121094 60.226562 C 55.839844 60.226562 55.570312 60.175781 55.398438 60.066406 C 55.296875 60.011719 55.242188 59.925781 55.230469 59.8125 C 55.230469 59.71875 55.265625 59.648438 55.339844 59.59375 C 55.371094 59.566406 55.398438 59.570312 55.425781 59.601562 C 55.453125 59.632812 55.449219 59.664062 55.417969 59.695312 C 55.378906 59.726562 55.359375 59.765625 55.355469 59.8125 C 55.355469 59.871094 55.417969 59.921875 55.46875 59.957031 C 55.816406 60.191406 56.703125 60.117188 57 59.886719 C 57.070312 59.835938 57.105469 59.796875 57.105469 59.753906 C 57.105469 59.691406 57.082031 59.640625 57.035156 59.601562 C 57.007812 59.566406 57.011719 59.535156 57.042969 59.507812 C 57.078125 59.488281 57.109375 59.488281 57.136719 59.515625 C 57.203125 59.589844 57.234375 59.671875 57.230469 59.769531 C 57.214844 59.863281 57.164062 59.9375 57.085938 59.988281 C 56.882812 60.132812 56.492188 60.226562 56.121094 60.226562 Z M 56.121094 60.226562 " fill-opacity="1" fill-rule="nonzero"/><path fill="#000000" d="M 56.628906 61.710938 C 56.296875 61.699219 55.964844 61.667969 55.636719 61.609375 C 55.4375 61.59375 55.234375 61.589844 55.035156 61.601562 C 54.703125 61.609375 54.363281 61.609375 54.203125 61.558594 L 54.160156 61.542969 C 53.90625 61.457031 53.695312 61.390625 53.761719 60.78125 C 53.832031 60.175781 54.195312 60.132812 54.464844 60.089844 C 54.558594 60.074219 54.644531 60.046875 54.730469 60.015625 L 54.824219 59.945312 C 54.992188 59.835938 54.992188 59.835938 55.035156 59.761719 C 55.097656 59.625 55.191406 59.523438 55.324219 59.449219 C 55.359375 59.429688 55.386719 59.4375 55.40625 59.476562 C 55.425781 59.511719 55.417969 59.539062 55.382812 59.558594 C 55.277344 59.617188 55.199219 59.699219 55.152344 59.8125 L 55.152344 59.828125 C 55.101562 59.929688 55.070312 59.957031 54.898438 60.066406 L 54.804688 60.125 C 54.707031 60.179688 54.605469 60.210938 54.492188 60.21875 C 54.230469 60.269531 53.949219 60.316406 53.890625 60.808594 C 53.832031 61.296875 53.976562 61.355469 54.210938 61.433594 L 54.253906 61.449219 C 54.390625 61.492188 54.738281 61.484375 55.035156 61.484375 C 55.242188 61.472656 55.453125 61.472656 55.664062 61.492188 C 56.652344 61.644531 57.085938 61.617188 57.316406 61.398438 C 57.542969 61.179688 57.503906 60.707031 57.449219 60.023438 L 57.449219 59.820312 C 57.367188 59.65625 57.234375 59.558594 57.050781 59.523438 C 57.011719 59.515625 56.996094 59.488281 57 59.449219 C 57 59.398438 57.019531 59.382812 57.070312 59.398438 C 57.304688 59.4375 57.472656 59.5625 57.570312 59.777344 C 57.578125 59.785156 57.578125 59.792969 57.578125 59.804688 L 57.578125 60.015625 C 57.628906 60.757812 57.664062 61.238281 57.410156 61.492188 C 57.15625 61.742188 56.976562 61.710938 56.628906 61.710938 Z M 56.628906 61.710938 " fill-opacity="1" fill-rule="nonzero"/><g clip-path="url(#0a766b6554)"><path fill="#000000" d="M 56.527344 62.054688 C 56.324219 62.054688 56.070312 62.03125 55.804688 62.003906 L 55.296875 61.953125 L 54.824219 61.929688 C 54.449219 61.914062 54.230469 61.90625 54.085938 61.820312 C 53.828125 61.679688 53.71875 61.46875 53.761719 61.179688 C 53.773438 61.140625 53.796875 61.121094 53.839844 61.128906 C 53.890625 61.125 53.90625 61.148438 53.890625 61.195312 C 53.851562 61.425781 53.9375 61.597656 54.144531 61.710938 C 54.273438 61.777344 54.492188 61.785156 54.824219 61.804688 L 55.304688 61.828125 L 55.816406 61.878906 C 56.089844 61.910156 56.363281 61.925781 56.636719 61.921875 C 57.339844 61.886719 57.460938 61.660156 57.460938 61.144531 C 57.460938 61.105469 57.480469 61.082031 57.519531 61.078125 C 57.5625 61.078125 57.585938 61.101562 57.585938 61.144531 C 57.585938 61.695312 57.433594 62.003906 56.644531 62.046875 Z M 56.527344 62.054688 " fill-opacity="1" fill-rule="nonzero"/></g><path fill="#000000" d="M 54.722656 60.4375 C 54.679688 60.4375 54.660156 60.417969 54.660156 60.378906 C 54.660156 60.359375 54.679688 60.089844 54.976562 59.828125 C 55.007812 59.8125 55.035156 59.816406 55.058594 59.84375 C 55.082031 59.875 55.082031 59.902344 55.058594 59.929688 C 54.804688 60.148438 54.789062 60.378906 54.789062 60.386719 C 54.789062 60.394531 54.753906 60.4375 54.722656 60.4375 Z M 54.722656 60.4375 " fill-opacity="1" fill-rule="nonzero"/><path fill="#000000" d="M 54.96875 41.96875 C 54.96875 41.96875 54.035156 45.539062 54.035156 45.648438 C 54.035156 45.757812 54.152344 47.265625 54.128906 47.527344 C 54.078125 48.019531 54.375 46.363281 54.585938 44.59375 C 54.722656 43.480469 54.96875 41.96875 54.96875 41.96875 Z M 54.96875 41.96875 " fill-opacity="1" fill-rule="nonzero"/><path fill="#000000" d="M 48.414062 35.617188 C 47.871094 35.617188 47.421875 35.152344 47.046875 34.679688 C 46.675781 34.207031 46.132812 33.050781 45.828125 32.386719 C 45.632812 31.972656 45.445312 31.542969 45.300781 31.195312 C 45.15625 30.847656 45.089844 30.671875 45.097656 30.621094 C 45.105469 30.570312 44.878906 29.683594 44.785156 29.273438 C 44.632812 28.589844 44.9375 27.898438 44.945312 27.871094 C 44.953125 27.808594 44.984375 27.792969 45.039062 27.816406 C 45.097656 27.839844 45.105469 27.875 45.0625 27.921875 C 45.0625 27.929688 44.765625 28.597656 44.910156 29.246094 C 45.011719 29.703125 45.226562 30.613281 45.226562 30.621094 C 45.234375 30.628906 45.234375 30.636719 45.226562 30.648438 C 45.292969 30.925781 46.554688 33.835938 47.148438 34.59375 C 47.625 35.203125 48.167969 35.726562 48.871094 35.371094 C 49.304688 35.152344 49.667969 34.402344 49.886719 33.953125 C 50.007812 33.710938 50.058594 33.625 50.101562 33.601562 C 50.136719 33.578125 50.167969 33.585938 50.183594 33.625 C 50.203125 33.65625 50.195312 33.6875 50.167969 33.710938 C 50.105469 33.804688 50.050781 33.90625 50.007812 34.011719 C 49.777344 34.476562 49.398438 35.246094 48.921875 35.480469 C 48.761719 35.566406 48.59375 35.613281 48.414062 35.617188 Z M 48.414062 35.617188 " fill-opacity="1" fill-rule="nonzero"/><path fill="#f4d9b3" d="M 48.539062 27.914062 L 50.363281 25.726562 C 50.421875 25.652344 50.445312 25.570312 50.429688 25.476562 C 50.378906 25.230469 50.125 25.257812 49.957031 25.425781 L 48.109375 27.625 C 48.046875 27.8125 47.996094 28 47.957031 28.191406 C 47.957031 28.226562 48.539062 27.914062 48.539062 27.914062 Z M 48.539062 27.914062 " fill-opacity="1" fill-rule="nonzero"/><path fill="#000000" d="M 47.957031 28.257812 C 47.941406 28.257812 47.929688 28.253906 47.921875 28.242188 C 47.898438 28.230469 47.886719 28.210938 47.894531 28.183594 C 47.933594 27.980469 47.988281 27.785156 48.058594 27.59375 C 48.125 27.5 49.8125 25.492188 49.914062 25.382812 C 50.015625 25.257812 50.144531 25.210938 50.304688 25.246094 C 50.414062 25.28125 50.472656 25.355469 50.492188 25.464844 C 50.503906 25.578125 50.480469 25.679688 50.414062 25.769531 L 48.589844 27.957031 L 48.574219 27.972656 C 48.125 28.207031 47.996094 28.257812 47.957031 28.257812 Z M 48.160156 27.660156 C 48.140625 27.710938 48.074219 27.945312 48.039062 28.089844 C 48.199219 28.023438 48.355469 27.949219 48.507812 27.863281 L 50.3125 25.6875 C 50.359375 25.628906 50.375 25.5625 50.363281 25.492188 C 50.359375 25.429688 50.328125 25.386719 50.269531 25.367188 C 50.195312 25.339844 50.082031 25.390625 50.007812 25.476562 C 49.929688 25.558594 48.285156 27.507812 48.160156 27.660156 Z M 48.539062 27.914062 Z M 48.539062 27.914062 " fill-opacity="1" fill-rule="nonzero"/><path fill="#ae7046" d="M 49.921875 27.28125 C 49.765625 27.183594 49.597656 27.109375 49.421875 27.054688 C 49.257812 27.003906 49.09375 26.972656 48.921875 26.960938 C 48.632812 26.941406 48.558594 27.246094 48.894531 27.347656 C 49.101562 27.40625 49.464844 27.652344 49.617188 27.746094 C 49.761719 27.855469 49.902344 27.972656 50.03125 28.097656 " fill-opacity="1" fill-rule="nonzero"/><path fill="#000000" d="M 50.03125 28.167969 L 49.988281 28.148438 L 49.90625 28.066406 C 49.804688 27.96875 49.699219 27.882812 49.582031 27.804688 L 49.480469 27.734375 C 49.320312 27.636719 49.039062 27.457031 48.878906 27.40625 C 48.71875 27.355469 48.589844 27.195312 48.609375 27.09375 C 48.625 26.992188 48.734375 26.882812 48.929688 26.902344 C 49.105469 26.90625 49.273438 26.9375 49.4375 26.992188 C 49.625 27.046875 49.800781 27.128906 49.964844 27.230469 C 49.996094 27.257812 50 27.289062 49.980469 27.324219 C 49.953125 27.355469 49.921875 27.359375 49.886719 27.332031 C 49.734375 27.234375 49.570312 27.164062 49.398438 27.113281 C 49.242188 27.0625 49.085938 27.03125 48.921875 27.027344 C 48.804688 27.019531 48.742188 27.070312 48.734375 27.121094 C 48.726562 27.171875 48.777344 27.246094 48.914062 27.289062 C 49.050781 27.332031 49.371094 27.515625 49.550781 27.636719 L 49.652344 27.695312 C 49.769531 27.777344 49.882812 27.871094 49.988281 27.972656 L 50.074219 28.058594 C 50.105469 28.082031 50.109375 28.109375 50.082031 28.140625 C 50.070312 28.15625 50.054688 28.164062 50.03125 28.167969 Z M 50.03125 28.167969 " fill-opacity="1" fill-rule="nonzero"/><path fill="#000000" d="M 48.269531 28.097656 C 48.230469 28.097656 48.207031 28.078125 48.199219 28.039062 C 48.203125 28.003906 48.1875 27.972656 48.160156 27.945312 C 48.125 27.929688 48.085938 27.925781 48.046875 27.929688 C 48.015625 27.925781 47.996094 27.910156 47.988281 27.875 C 47.980469 27.84375 47.992188 27.820312 48.023438 27.804688 C 48.097656 27.792969 48.164062 27.808594 48.226562 27.847656 C 48.289062 27.890625 48.324219 27.949219 48.328125 28.023438 C 48.34375 28.070312 48.328125 28.09375 48.277344 28.089844 Z M 48.269531 28.097656 " fill-opacity="1" fill-rule="nonzero"/><path fill="#000000" d="M 51.390625 27.535156 C 51.367188 27.53125 51.351562 27.523438 51.339844 27.507812 C 51.246094 27.375 51.175781 27.273438 51.109375 27.1875 C 50.988281 27.003906 50.855469 26.832031 50.710938 26.664062 C 50.464844 26.378906 50.152344 26.21875 50.09375 26.210938 C 50.054688 26.210938 50.03125 26.195312 50.023438 26.160156 C 50.011719 26.117188 50.023438 26.09375 50.066406 26.082031 C 50.144531 26.058594 50.53125 26.269531 50.8125 26.582031 C 51.09375 26.890625 51.09375 26.933594 51.21875 27.113281 C 51.347656 27.289062 51.347656 27.304688 51.441406 27.433594 C 51.464844 27.464844 51.464844 27.492188 51.429688 27.515625 Z M 50.082031 26.199219 Z M 50.101562 26.199219 Z M 50.101562 26.199219 " fill-opacity="1" fill-rule="nonzero"/><path fill="#000000" d="M 48.683594 26.097656 C 48.65625 26.101562 48.636719 26.089844 48.625 26.066406 C 48.609375 26.03125 48.617188 26.003906 48.652344 25.980469 C 48.90625 25.863281 49.523438 25.839844 49.550781 25.839844 C 49.589844 25.839844 49.609375 25.859375 49.609375 25.898438 C 49.613281 25.941406 49.59375 25.964844 49.550781 25.964844 C 49.550781 25.964844 48.9375 25.988281 48.710938 26.089844 Z M 48.683594 26.097656 " fill-opacity="1" fill-rule="nonzero"/><path fill="#000000" d="M 45.285156 26.984375 C 45.253906 26.984375 45.234375 26.96875 45.226562 26.941406 C 45.203125 26.902344 45.214844 26.875 45.257812 26.859375 C 46.105469 26.546875 47.394531 26.058594 47.453125 26.023438 C 47.488281 26.007812 47.515625 26.011719 47.539062 26.039062 C 47.574219 26.078125 47.570312 26.109375 47.523438 26.132812 C 47.480469 26.160156 45.953125 26.730469 45.308594 26.976562 Z M 45.285156 26.984375 " fill-opacity="1" fill-rule="nonzero"/><path fill="#000000" d="M 45.699219 27.398438 C 45.671875 27.402344 45.652344 27.390625 45.640625 27.363281 C 45.628906 27.324219 45.640625 27.296875 45.683594 27.28125 L 47.878906 26.4375 C 47.910156 26.417969 47.941406 26.425781 47.964844 26.453125 C 47.984375 26.488281 47.976562 26.519531 47.945312 26.546875 C 47.894531 26.582031 46.378906 27.152344 45.726562 27.398438 Z M 45.699219 27.398438 " fill-opacity="1" fill-rule="nonzero"/><path fill="#000000" d="M 46.015625 27.871094 C 45.984375 27.871094 45.964844 27.855469 45.953125 27.828125 C 45.929688 27.789062 45.941406 27.757812 45.988281 27.746094 L 47.335938 27.203125 C 47.371094 27.195312 47.414062 27.203125 47.421875 27.238281 C 47.4375 27.273438 47.429688 27.300781 47.394531 27.324219 L 46.03125 27.863281 C 46.03125 27.871094 46.023438 27.871094 46.015625 27.871094 Z M 46.015625 27.871094 " fill-opacity="1" fill-rule="nonzero"/><path fill="#ffffff" d="M 31.550781 56.816406 L 25.257812 55.8125 L 25.257812 46.964844 L 31.550781 47.96875 Z M 31.550781 56.816406 " fill-opacity="1" fill-rule="nonzero"/><path fill="#000000" d="M 31.550781 56.875 L 31.539062 56.875 L 25.242188 55.871094 C 25.210938 55.863281 25.195312 55.84375 25.191406 55.8125 L 25.191406 46.964844 C 25.1875 46.941406 25.199219 46.929688 25.214844 46.921875 C 25.226562 46.902344 25.246094 46.894531 25.265625 46.902344 L 31.566406 47.90625 C 31.59375 47.917969 31.613281 47.9375 31.617188 47.96875 L 31.617188 56.816406 C 31.617188 56.835938 31.605469 56.855469 31.59375 56.867188 Z M 25.316406 55.753906 L 31.488281 56.742188 L 31.488281 48.027344 L 25.316406 47.039062 Z M 25.316406 55.753906 " fill-opacity="1" fill-rule="nonzero"/><path fill="#f5f5fc" d="M 31.550781 56.816406 L 37.847656 55.8125 L 37.847656 46.964844 L 31.550781 47.96875 Z M 31.550781 56.816406 " fill-opacity="1" fill-rule="nonzero"/><path fill="#000000" d="M 31.550781 56.875 L 31.507812 56.875 C 31.492188 56.863281 31.484375 56.847656 31.480469 56.824219 L 31.480469 47.96875 C 31.484375 47.933594 31.503906 47.914062 31.539062 47.90625 L 37.839844 46.902344 C 37.855469 46.894531 37.875 46.902344 37.890625 46.921875 C 37.902344 46.933594 37.90625 46.945312 37.910156 46.964844 L 37.910156 55.8125 C 37.910156 55.847656 37.890625 55.867188 37.855469 55.871094 L 31.558594 56.875 Z M 31.609375 48.027344 L 31.609375 56.742188 L 37.78125 55.753906 L 37.78125 47.039062 Z M 31.609375 48.027344 " fill-opacity="1" fill-rule="nonzero"/><path fill="#ffffff" d="M 31.550781 45.933594 L 25.257812 46.964844 L 31.550781 47.96875 L 37.847656 46.964844 Z M 31.550781 45.933594 " fill-opacity="1" fill-rule="nonzero"/><path fill="#000000" d="M 31.550781 48.035156 L 31.539062 48.035156 L 25.242188 47.03125 C 25.210938 47.019531 25.191406 46.996094 25.191406 46.964844 C 25.191406 46.9375 25.214844 46.902344 25.242188 46.902344 L 31.539062 45.867188 L 31.558594 45.867188 L 37.855469 46.902344 C 37.890625 46.910156 37.910156 46.929688 37.910156 46.964844 C 37.910156 47 37.890625 47.023438 37.855469 47.03125 L 31.558594 48.035156 Z M 25.648438 46.964844 L 31.550781 47.90625 L 37.449219 46.964844 L 31.550781 45.992188 Z M 25.648438 46.964844 " fill-opacity="1" fill-rule="nonzero"/><path fill="#d9d9e6" d="M 25.265625 57.820312 L 18.96875 56.816406 L 18.96875 47.96875 L 25.265625 48.972656 Z M 25.265625 57.820312 " fill-opacity="1" fill-rule="nonzero"/><path fill="#000000" d="M 25.265625 57.878906 L 25.25 57.878906 L 18.957031 56.875 C 18.921875 56.871094 18.902344 56.851562 18.898438 56.816406 L 18.898438 47.96875 C 18.902344 47.945312 18.910156 47.929688 18.925781 47.917969 C 18.941406 47.90625 18.957031 47.902344 18.976562 47.90625 L 25.273438 48.910156 C 25.304688 48.921875 25.320312 48.941406 25.328125 48.972656 L 25.328125 57.820312 C 25.324219 57.839844 25.316406 57.859375 25.300781 57.871094 Z M 19.027344 56.757812 L 25.199219 57.746094 L 25.199219 49.03125 L 19.027344 48.042969 Z M 19.027344 56.757812 " fill-opacity="1" fill-rule="nonzero"/><path fill="#f5f5fc" d="M 25.257812 57.820312 L 31.558594 56.816406 L 31.558594 47.96875 L 25.257812 48.972656 Z M 25.257812 57.820312 " fill-opacity="1" fill-rule="nonzero"/><path fill="#000000" d="M 25.257812 57.878906 L 25.214844 57.878906 C 25.199219 57.867188 25.191406 57.851562 25.191406 57.828125 L 25.191406 48.972656 C 25.195312 48.9375 25.214844 48.917969 25.25 48.910156 L 31.550781 47.90625 C 31.566406 47.902344 31.585938 47.90625 31.601562 47.917969 C 31.609375 47.933594 31.617188 47.949219 31.617188 47.96875 L 31.617188 56.816406 C 31.617188 56.851562 31.601562 56.871094 31.566406 56.875 L 25.265625 57.878906 Z M 25.316406 49.03125 L 25.316406 57.746094 L 31.488281 56.757812 L 31.488281 48.042969 Z M 25.316406 49.03125 " fill-opacity="1" fill-rule="nonzero"/><path fill="#ffffff" d="M 25.257812 46.9375 L 18.96875 47.96875 L 25.257812 48.972656 L 31.558594 47.96875 Z M 25.257812 46.9375 " fill-opacity="1" fill-rule="nonzero"/><path fill="#000000" d="M 25.257812 49.039062 L 25.25 49.039062 L 18.957031 48.035156 C 18.917969 48.03125 18.898438 48.007812 18.898438 47.96875 C 18.902344 47.933594 18.921875 47.914062 18.957031 47.90625 L 25.25 46.871094 L 25.265625 46.871094 L 31.566406 47.90625 C 31.601562 47.914062 31.617188 47.933594 31.617188 47.96875 C 31.617188 48.003906 31.601562 48.027344 31.566406 48.035156 L 25.265625 49.039062 Z M 19.355469 47.96875 L 25.257812 48.910156 L 31.160156 47.96875 L 25.257812 46.996094 Z M 19.355469 47.96875 " fill-opacity="1" fill-rule="nonzero"/><path fill="#d9d9e6" d="M 29.269531 48.347656 L 22.96875 47.34375 L 22.96875 38.5 L 29.269531 39.503906 Z M 29.269531 48.347656 " fill-opacity="1" fill-rule="nonzero"/><path fill="#000000" d="M 29.269531 48.414062 L 29.261719 48.414062 L 22.960938 47.402344 C 22.921875 47.402344 22.902344 47.382812 22.902344 47.34375 L 22.902344 38.5 C 22.898438 38.480469 22.90625 38.460938 22.925781 38.449219 C 22.941406 38.4375 22.957031 38.429688 22.976562 38.433594 L 29.277344 39.4375 C 29.3125 39.445312 29.328125 39.46875 29.328125 39.503906 L 29.328125 48.347656 C 29.328125 48.367188 29.320312 48.382812 29.3125 48.398438 Z M 23.027344 47.292969 L 29.199219 48.269531 L 29.199219 39.554688 L 23.027344 38.570312 Z M 23.027344 47.292969 " fill-opacity="1" fill-rule="nonzero"/><path fill="#f5f5fc" d="M 29.261719 48.347656 L 35.558594 47.34375 L 35.558594 38.5 L 29.261719 39.503906 Z M 29.261719 48.347656 " fill-opacity="1" fill-rule="nonzero"/><path fill="#000000" d="M 29.261719 48.414062 L 29.21875 48.398438 C 29.207031 48.382812 29.203125 48.367188 29.199219 48.347656 L 29.199219 39.503906 C 29.199219 39.46875 29.214844 39.445312 29.25 39.4375 L 35.550781 38.433594 C 35.570312 38.429688 35.589844 38.4375 35.601562 38.449219 C 35.621094 38.460938 35.628906 38.480469 35.628906 38.5 L 35.628906 47.34375 C 35.628906 47.382812 35.609375 47.402344 35.566406 47.402344 L 29.269531 48.414062 Z M 29.328125 39.554688 L 29.328125 48.269531 L 35.5 47.292969 L 35.5 38.570312 Z M 29.328125 39.554688 " fill-opacity="1" fill-rule="nonzero"/><path fill="#ffffff" d="M 29.261719 37.464844 L 22.96875 38.5 L 29.261719 39.503906 L 35.558594 38.5 Z M 29.261719 37.464844 " fill-opacity="1" fill-rule="nonzero"/><path fill="#000000" d="M 29.261719 39.5625 L 29.25 39.5625 L 22.960938 38.558594 C 22.929688 38.550781 22.917969 38.527344 22.917969 38.496094 C 22.917969 38.464844 22.929688 38.445312 22.960938 38.433594 L 29.25 37.40625 L 29.269531 37.40625 L 35.566406 38.433594 C 35.597656 38.445312 35.613281 38.464844 35.613281 38.496094 C 35.613281 38.527344 35.597656 38.550781 35.566406 38.558594 L 29.269531 39.5625 Z M 23.367188 38.5 L 29.261719 39.4375 L 35.160156 38.5 L 29.261719 37.53125 Z M 23.367188 38.5 " fill-opacity="1" fill-rule="nonzero"/><path fill="#f5f5fc" d="M 29.269531 39.496094 L 22.96875 38.492188 L 20.15625 35.253906 L 26.445312 36.257812 Z M 29.269531 39.496094 " fill-opacity="1" fill-rule="nonzero"/><path fill="#000000" d="M 29.269531 39.5625 L 29.261719 39.5625 L 22.960938 38.550781 L 22.917969 38.535156 L 20.101562 35.296875 C 20.082031 35.277344 20.078125 35.253906 20.09375 35.226562 C 20.109375 35.199219 20.128906 35.1875 20.164062 35.195312 L 26.460938 36.199219 C 26.480469 36.199219 26.488281 36.207031 26.496094 36.222656 L 29.3125 39.453125 C 29.34375 39.476562 29.347656 39.503906 29.320312 39.53125 C 29.308594 39.550781 29.292969 39.5625 29.269531 39.5625 Z M 23.003906 38.433594 L 29.109375 39.414062 L 26.421875 36.316406 L 20.316406 35.347656 Z M 23.003906 38.433594 " fill-opacity="1" fill-rule="nonzero"/><path fill="#f5f5fc" d="M 35.550781 38.5 L 29.269531 37.457031 L 30.835938 34.257812 L 37.136719 35.269531 Z M 35.550781 38.5 " fill-opacity="1" fill-rule="nonzero"/><path fill="#000000" d="M 35.550781 38.570312 L 35.535156 38.570312 L 29.25 37.523438 C 29.230469 37.519531 29.21875 37.507812 29.210938 37.488281 C 29.199219 37.46875 29.199219 37.449219 29.210938 37.429688 L 30.777344 34.242188 C 30.792969 34.210938 30.8125 34.199219 30.84375 34.207031 L 37.144531 35.210938 C 37.164062 35.210938 37.179688 35.226562 37.195312 35.246094 C 37.203125 35.265625 37.203125 35.285156 37.195312 35.304688 L 35.601562 38.535156 C 35.59375 38.554688 35.574219 38.566406 35.550781 38.570312 Z M 29.363281 37.40625 L 35.507812 38.433594 L 37.042969 35.3125 L 30.871094 34.332031 Z M 29.363281 37.40625 " fill-opacity="1" fill-rule="nonzero"/><path fill="#000000" d="M 29.269531 37.457031 L 32.058594 39.074219 L 35.550781 38.5 Z M 29.269531 37.457031 " fill-opacity="1" fill-rule="nonzero"/><path fill="#d9d9e6" d="M 39.738281 60.097656 L 33.441406 59.09375 L 33.441406 50.253906 L 39.738281 51.257812 Z M 39.738281 60.097656 " fill-opacity="1" fill-rule="nonzero"/><path fill="#000000" d="M 39.738281 60.167969 L 39.730469 60.167969 L 33.429688 59.164062 C 33.398438 59.152344 33.378906 59.132812 33.378906 59.09375 L 33.378906 50.253906 C 33.378906 50.234375 33.386719 50.21875 33.398438 50.203125 L 33.449219 50.1875 L 39.75 51.191406 C 39.789062 51.195312 39.808594 51.21875 39.808594 51.257812 L 39.808594 60.097656 C 39.808594 60.121094 39.800781 60.136719 39.78125 60.148438 Z M 33.507812 59.042969 L 39.679688 60.03125 L 39.679688 51.308594 L 33.507812 50.320312 Z M 33.507812 59.042969 " fill-opacity="1" fill-rule="nonzero"/><path fill="#f5f5fc" d="M 39.730469 60.097656 L 46.03125 59.09375 L 46.03125 50.253906 L 39.730469 51.257812 Z M 39.730469 60.097656 " fill-opacity="1" fill-rule="nonzero"/><path fill="#000000" d="M 39.730469 60.167969 L 39.695312 60.148438 C 39.675781 60.136719 39.667969 60.121094 39.671875 60.097656 L 39.671875 51.257812 C 39.671875 51.222656 39.691406 51.199219 39.722656 51.191406 L 46.023438 50.1875 L 46.074219 50.203125 C 46.09375 50.214844 46.101562 50.230469 46.097656 50.253906 L 46.097656 59.09375 C 46.097656 59.128906 46.078125 59.152344 46.046875 59.164062 L 39.75 60.167969 Z M 39.800781 51.308594 L 39.800781 60.03125 L 45.972656 59.042969 L 45.972656 50.320312 Z M 39.800781 51.308594 " fill-opacity="1" fill-rule="nonzero"/><path fill="#f5f5fc" d="M 40.671875 53.046875 L 42.292969 52.792969 L 42.292969 52.058594 L 40.671875 52.320312 Z M 40.671875 53.046875 " fill-opacity="1" fill-rule="nonzero"/><path fill="#000000" d="M 40.671875 53.113281 L 40.628906 53.097656 C 40.609375 53.085938 40.601562 53.070312 40.605469 53.046875 L 40.605469 52.320312 C 40.605469 52.28125 40.625 52.257812 40.664062 52.253906 L 42.28125 52 C 42.304688 51.996094 42.320312 52.003906 42.335938 52.015625 C 42.351562 52.023438 42.359375 52.039062 42.359375 52.058594 L 42.359375 52.792969 C 42.359375 52.832031 42.339844 52.851562 42.300781 52.851562 L 40.679688 53.113281 Z M 40.730469 52.371094 L 40.730469 52.976562 L 42.230469 52.742188 L 42.230469 52.136719 Z M 40.730469 52.371094 " fill-opacity="1" fill-rule="nonzero"/><path fill="#ffffff" d="M 39.730469 49.214844 L 33.441406 50.253906 L 39.730469 51.257812 L 46.03125 50.253906 Z M 39.730469 49.214844 " fill-opacity="1" fill-rule="nonzero"/><path fill="#000000" d="M 39.730469 51.316406 L 39.722656 51.316406 L 33.429688 50.3125 C 33.398438 50.308594 33.378906 50.289062 33.378906 50.253906 C 33.378906 50.21875 33.398438 50.195312 33.429688 50.1875 L 39.722656 49.15625 L 39.75 49.15625 L 46.046875 50.1875 C 46.078125 50.195312 46.097656 50.21875 46.097656 50.253906 C 46.09375 50.28125 46.078125 50.304688 46.046875 50.3125 L 39.75 51.316406 Z M 33.839844 50.253906 L 39.730469 51.191406 L 45.640625 50.253906 L 39.730469 49.285156 Z M 33.839844 50.253906 " fill-opacity="1" fill-rule="nonzero"/><path fill="#ffd6ac" d="M 27.074219 7.582031 L 24.671875 7.976562 L 24.671875 7.285156 C 24.671875 5.816406 23.488281 4.832031 22.019531 5.074219 C 20.554688 5.320312 19.375 6.703125 19.375 8.164062 L 19.375 8.863281 L 16.8125 9.285156 C 16.699219 9.304688 16.609375 9.359375 16.535156 9.445312 C 16.460938 9.535156 16.425781 9.636719 16.421875 9.75 L 16.421875 12.84375 C 16.425781 12.992188 16.480469 13.109375 16.59375 13.203125 C 16.703125 13.292969 16.832031 13.328125 16.976562 13.300781 L 27.234375 11.597656 C 27.347656 11.578125 27.4375 11.527344 27.511719 11.441406 C 27.585938 11.355469 27.625 11.253906 27.625 11.140625 L 27.625 8.046875 C 27.625 7.898438 27.570312 7.777344 27.457031 7.683594 C 27.347656 7.589844 27.21875 7.554688 27.074219 7.582031 Z M 22.433594 8.367188 C 22.175781 8.402344 21.9375 8.347656 21.722656 8.199219 C 21.507812 8.046875 21.371094 7.847656 21.316406 7.589844 C 21.261719 7.335938 21.300781 7.097656 21.433594 6.871094 C 21.566406 6.648438 21.757812 6.5 22.011719 6.425781 C 22.269531 6.390625 22.507812 6.445312 22.722656 6.59375 C 22.9375 6.742188 23.074219 6.945312 23.128906 7.199219 C 23.183594 7.453125 23.144531 7.695312 23.011719 7.917969 C 22.878906 8.144531 22.6875 8.292969 22.433594 8.367188 Z M 22.433594 8.367188 " fill-opacity="1" fill-rule="nonzero"/><g clip-path="url(#0fbaa72939)"><path fill="#000000" d="M 16.898438 13.378906 C 16.765625 13.378906 16.652344 13.335938 16.550781 13.25 C 16.425781 13.144531 16.363281 13.007812 16.363281 12.84375 L 16.363281 9.75 C 16.363281 9.621094 16.402344 9.503906 16.488281 9.40625 C 16.570312 9.308594 16.675781 9.246094 16.804688 9.226562 L 19.304688 8.804688 L 19.304688 8.164062 C 19.304688 6.679688 20.519531 5.261719 22.011719 5.015625 C 22.75 4.890625 23.433594 5.066406 23.953125 5.496094 C 24.46875 5.925781 24.742188 6.558594 24.742188 7.285156 L 24.742188 7.902344 L 27.0625 7.515625 C 27.226562 7.492188 27.371094 7.53125 27.496094 7.632812 C 27.621094 7.742188 27.683594 7.878906 27.683594 8.046875 L 27.683594 11.140625 C 27.683594 11.269531 27.644531 11.386719 27.558594 11.484375 C 27.476562 11.582031 27.371094 11.644531 27.242188 11.664062 L 16.984375 13.367188 Z M 22.46875 5.101562 C 22.324219 5.101562 22.179688 5.117188 22.035156 5.144531 C 20.605469 5.378906 19.433594 6.738281 19.433594 8.164062 L 19.433594 8.863281 C 19.433594 8.898438 19.417969 8.917969 19.382812 8.921875 L 16.832031 9.34375 C 16.730469 9.359375 16.648438 9.40625 16.585938 9.484375 C 16.523438 9.5625 16.488281 9.648438 16.492188 9.75 L 16.492188 12.84375 C 16.492188 12.96875 16.539062 13.070312 16.636719 13.148438 C 16.726562 13.234375 16.835938 13.261719 16.957031 13.242188 L 27.21875 11.539062 C 27.441406 11.5 27.554688 11.367188 27.554688 11.140625 L 27.554688 8.046875 C 27.558594 7.917969 27.511719 7.8125 27.410156 7.734375 C 27.316406 7.652344 27.207031 7.621094 27.082031 7.640625 L 24.683594 8.046875 L 24.632812 8.027344 C 24.621094 8.011719 24.617188 7.996094 24.613281 7.976562 L 24.613281 7.285156 C 24.628906 6.609375 24.378906 6.046875 23.867188 5.597656 C 23.464844 5.261719 22.996094 5.09375 22.46875 5.101562 Z M 27.074219 7.582031 Z M 22.230469 8.449219 C 21.8125 8.449219 21.5 8.265625 21.300781 7.898438 C 21.097656 7.53125 21.113281 7.171875 21.339844 6.820312 C 21.492188 6.574219 21.710938 6.417969 21.996094 6.359375 C 22.132812 6.328125 22.269531 6.324219 22.410156 6.347656 C 22.546875 6.375 22.675781 6.425781 22.796875 6.5 C 22.914062 6.574219 23.015625 6.671875 23.09375 6.785156 C 23.175781 6.902344 23.230469 7.027344 23.261719 7.164062 C 23.292969 7.300781 23.292969 7.4375 23.269531 7.578125 C 23.246094 7.714844 23.195312 7.84375 23.121094 7.960938 C 23.042969 8.078125 22.949219 8.179688 22.832031 8.257812 C 22.714844 8.339844 22.589844 8.394531 22.453125 8.425781 Z M 22.433594 8.367188 Z M 22.214844 6.46875 C 22.148438 6.464844 22.082031 6.472656 22.019531 6.484375 C 21.769531 6.539062 21.578125 6.671875 21.441406 6.890625 C 21.3125 7.105469 21.273438 7.339844 21.324219 7.589844 C 21.378906 7.839844 21.511719 8.03125 21.722656 8.171875 C 21.9375 8.3125 22.167969 8.355469 22.417969 8.308594 C 22.65625 8.261719 22.847656 8.140625 22.992188 7.945312 C 23.136719 7.753906 23.195312 7.535156 23.171875 7.292969 C 23.144531 7.054688 23.039062 6.851562 22.855469 6.695312 C 22.671875 6.535156 22.457031 6.460938 22.214844 6.46875 Z M 22.214844 6.46875 " fill-opacity="1" fill-rule="nonzero"/></g><path fill="#000000" d="M 24.613281 7.984375 L 24.613281 8.390625 C 24.613281 8.441406 24.65625 8.449219 24.699219 8.425781 C 24.9375 8.308594 25.726562 7.886719 25.726562 7.824219 C 25.726562 7.765625 24.613281 7.984375 24.613281 7.984375 Z M 24.613281 7.984375 " fill-opacity="1" fill-rule="nonzero"/><path fill="#000000" d="M 13.21875 40.617188 C 13.179688 40.621094 13.15625 40.597656 13.152344 40.558594 C 13.144531 40.527344 13.167969 40.5 13.203125 40.492188 L 19.339844 39.453125 C 19.375 39.457031 19.394531 39.476562 19.398438 39.507812 C 19.40625 39.542969 19.394531 39.566406 19.367188 39.582031 L 13.226562 40.617188 Z M 13.21875 40.617188 " fill-opacity="1" fill-rule="nonzero"/><path fill="#000000" d="M 13.21875 42.003906 C 13.183594 42.003906 13.160156 41.988281 13.152344 41.953125 C 13.132812 41.902344 13.152344 41.882812 13.203125 41.882812 L 19.339844 40.847656 C 19.382812 40.839844 19.40625 40.855469 19.417969 40.898438 C 19.433594 40.945312 19.417969 40.96875 19.367188 40.964844 L 13.226562 42.003906 Z M 13.21875 42.003906 " fill-opacity="1" fill-rule="nonzero"/><path fill="#000000" d="M 13.21875 43.453125 C 13.183594 43.453125 13.160156 43.4375 13.152344 43.402344 C 13.148438 43.363281 13.164062 43.339844 13.203125 43.328125 L 16.492188 42.785156 C 16.53125 42.78125 16.558594 42.796875 16.566406 42.835938 C 16.566406 42.871094 16.550781 42.90625 16.515625 42.90625 L 13.226562 43.453125 Z M 13.21875 43.453125 " fill-opacity="1" fill-rule="nonzero"/><path fill="#9aa0cb" d="M 13.21875 22.445312 L 31.296875 19.265625 L 31.296875 17.15625 L 13.21875 20.335938 Z M 13.21875 22.445312 " fill-opacity="1" fill-rule="nonzero"/><path fill="#000000" d="M 13.21875 22.503906 L 13.175781 22.503906 C 13.160156 22.492188 13.152344 22.476562 13.152344 22.453125 L 13.152344 20.347656 C 13.152344 20.3125 13.167969 20.292969 13.203125 20.285156 L 31.285156 17.105469 C 31.304688 17.101562 31.324219 17.109375 31.335938 17.121094 C 31.355469 17.132812 31.363281 17.144531 31.363281 17.164062 C 31.363281 17.882812 31.355469 19.230469 31.363281 19.273438 L 31.363281 19.292969 C 31.355469 19.316406 31.339844 19.335938 31.3125 19.34375 L 13.226562 22.503906 Z M 13.277344 20.386719 L 13.277344 22.371094 L 31.234375 19.214844 L 31.234375 17.234375 Z M 13.277344 20.386719 " fill-opacity="1" fill-rule="nonzero"/><path fill="#d9d9e6" d="M 22.15625 25.15625 L 32.40625 23.324219 L 32.40625 21.214844 L 22.15625 23.046875 Z M 22.15625 25.15625 " fill-opacity="1" fill-rule="nonzero"/><path fill="#000000" d="M 22.15625 25.222656 L 22.121094 25.207031 C 22.105469 25.191406 22.09375 25.175781 22.097656 25.15625 L 22.097656 23.046875 C 22.101562 23.015625 22.117188 22.996094 22.148438 22.988281 L 32.398438 21.15625 C 32.414062 21.148438 32.433594 21.152344 32.449219 21.164062 C 32.464844 21.175781 32.472656 21.195312 32.472656 21.214844 L 32.472656 23.316406 C 32.472656 23.324219 32.464844 23.332031 32.464844 23.339844 C 32.460938 23.371094 32.441406 23.382812 32.414062 23.382812 L 22.171875 25.222656 Z M 22.222656 23.105469 L 22.222656 25.078125 L 32.347656 23.265625 L 32.347656 21.289062 Z M 22.222656 23.105469 " fill-opacity="1" fill-rule="nonzero"/><path fill="#d9d9e6" d="M 19.042969 29.9375 L 31.371094 27.734375 L 31.371094 25.636719 L 19.042969 27.835938 Z M 19.042969 29.9375 " fill-opacity="1" fill-rule="nonzero"/><path fill="#000000" d="M 19.042969 30.003906 L 19 29.988281 C 18.988281 29.972656 18.984375 29.957031 18.984375 29.9375 L 18.984375 27.835938 C 18.984375 27.800781 19 27.777344 19.035156 27.769531 L 31.363281 25.566406 C 31.382812 25.566406 31.398438 25.570312 31.414062 25.585938 C 31.433594 25.597656 31.441406 25.613281 31.4375 25.636719 L 31.4375 27.734375 C 31.441406 27.746094 31.4375 27.753906 31.429688 27.761719 C 31.429688 27.777344 31.40625 27.796875 31.386719 27.804688 L 19.050781 30.003906 Z M 19.113281 27.886719 L 19.113281 29.863281 L 31.3125 27.6875 L 31.3125 25.710938 Z M 19.113281 27.886719 " fill-opacity="1" fill-rule="nonzero"/><path fill="#9aa0cb" d="M 13.21875 30.984375 L 17.476562 30.226562 L 17.476562 28.125 L 13.21875 28.875 Z M 13.21875 30.984375 " fill-opacity="1" fill-rule="nonzero"/><path fill="#000000" d="M 13.21875 31.050781 L 13.175781 31.035156 C 13.160156 31.019531 13.152344 31.003906 13.152344 30.984375 L 13.152344 28.875 C 13.15625 28.84375 13.171875 28.824219 13.203125 28.816406 L 17.464844 28.058594 C 17.488281 28.054688 17.503906 28.058594 17.515625 28.074219 C 17.539062 28.085938 17.546875 28.101562 17.542969 28.125 L 17.542969 30.25 C 17.53125 30.269531 17.511719 30.28125 17.492188 30.292969 L 13.226562 31.042969 Z M 13.277344 28.933594 L 13.277344 30.910156 L 17.414062 30.175781 L 17.414062 28.199219 Z M 13.277344 28.933594 " fill-opacity="1" fill-rule="nonzero"/><path fill="#d9d9e6" d="M 13.21875 26.699219 L 20.417969 25.476562 L 20.417969 23.367188 L 13.21875 24.589844 Z M 13.21875 26.699219 " fill-opacity="1" fill-rule="nonzero"/><path fill="#000000" d="M 13.21875 26.765625 L 13.175781 26.75 C 13.15625 26.738281 13.148438 26.722656 13.152344 26.699219 L 13.152344 24.589844 C 13.15625 24.558594 13.171875 24.539062 13.203125 24.53125 L 20.410156 23.308594 C 20.425781 23.300781 20.445312 23.304688 20.460938 23.316406 C 20.476562 23.328125 20.484375 23.347656 20.484375 23.367188 C 20.484375 24.082031 20.476562 25.433594 20.484375 25.476562 L 20.484375 25.492188 C 20.480469 25.519531 20.464844 25.535156 20.433594 25.535156 L 13.226562 26.765625 Z M 13.277344 24.648438 L 13.277344 26.621094 L 20.359375 25.425781 C 20.347656 25.257812 20.347656 24.792969 20.359375 23.441406 Z M 13.277344 24.648438 " fill-opacity="1" fill-rule="nonzero"/><path fill="#000000" d="M 39.808594 21.105469 C 39.636719 21.105469 39.46875 21.074219 39.3125 21.007812 C 39.152344 20.941406 39.011719 20.847656 38.890625 20.726562 C 38.769531 20.605469 38.675781 20.464844 38.609375 20.308594 C 38.542969 20.148438 38.511719 19.984375 38.511719 19.8125 C 38.511719 19.644531 38.542969 19.476562 38.609375 19.320312 C 38.675781 19.164062 38.769531 19.023438 38.890625 18.902344 C 39.011719 18.78125 39.152344 18.6875 39.3125 18.621094 C 39.46875 18.554688 39.636719 18.523438 39.808594 18.523438 C 39.980469 18.523438 40.144531 18.554688 40.304688 18.621094 C 40.460938 18.6875 40.601562 18.78125 40.726562 18.902344 C 40.847656 19.023438 40.941406 19.164062 41.007812 19.320312 C 41.070312 19.476562 41.105469 19.644531 41.105469 19.8125 C 41.105469 19.984375 41.074219 20.152344 41.007812 20.308594 C 40.941406 20.46875 40.847656 20.609375 40.726562 20.730469 C 40.605469 20.851562 40.464844 20.945312 40.304688 21.007812 C 40.144531 21.074219 39.980469 21.105469 39.808594 21.105469 Z M 39.808594 18.660156 C 39.652344 18.660156 39.503906 18.6875 39.359375 18.746094 C 39.214844 18.808594 39.089844 18.890625 38.980469 19 C 38.871094 19.109375 38.785156 19.234375 38.726562 19.378906 C 38.667969 19.523438 38.636719 19.671875 38.636719 19.824219 C 38.636719 19.980469 38.667969 20.128906 38.726562 20.273438 C 38.789062 20.414062 38.871094 20.539062 38.984375 20.648438 C 39.09375 20.757812 39.21875 20.839844 39.363281 20.898438 C 39.507812 20.957031 39.65625 20.988281 39.8125 20.988281 C 39.96875 20.984375 40.117188 20.957031 40.261719 20.894531 C 40.40625 20.835938 40.53125 20.75 40.640625 20.640625 C 40.75 20.53125 40.832031 20.40625 40.890625 20.261719 C 40.949219 20.117188 40.980469 19.96875 40.976562 19.8125 C 40.976562 19.660156 40.949219 19.511719 40.886719 19.371094 C 40.828125 19.226562 40.742188 19.101562 40.632812 18.992188 C 40.523438 18.886719 40.398438 18.800781 40.253906 18.742188 C 40.109375 18.6875 39.960938 18.65625 39.808594 18.660156 Z M 39.808594 18.660156 " fill-opacity="1" fill-rule="nonzero"/><path fill="#000000" d="M 39.832031 20.285156 L 39.789062 20.269531 L 39.214844 19.695312 C 39.164062 19.667969 39.160156 19.632812 39.203125 19.589844 C 39.242188 19.550781 39.277344 19.554688 39.308594 19.601562 L 39.832031 20.136719 L 41.332031 18.566406 C 41.363281 18.535156 41.390625 18.535156 41.417969 18.566406 C 41.445312 18.589844 41.445312 18.621094 41.425781 18.648438 L 39.882812 20.269531 Z M 39.832031 20.285156 " fill-opacity="1" fill-rule="nonzero"/><path fill="#000000" d="M 39.808594 25.5 C 39.636719 25.5 39.46875 25.46875 39.308594 25.402344 C 39.152344 25.335938 39.011719 25.242188 38.890625 25.121094 C 38.765625 25 38.675781 24.859375 38.609375 24.703125 C 38.542969 24.542969 38.511719 24.378906 38.511719 24.207031 C 38.511719 24.035156 38.542969 23.871094 38.609375 23.710938 C 38.675781 23.554688 38.769531 23.414062 38.894531 23.292969 C 39.015625 23.171875 39.15625 23.082031 39.316406 23.015625 C 39.476562 22.949219 39.640625 22.917969 39.8125 22.917969 C 39.984375 22.917969 40.152344 22.953125 40.308594 23.019531 C 40.46875 23.085938 40.609375 23.179688 40.730469 23.300781 C 40.851562 23.425781 40.945312 23.5625 41.007812 23.722656 C 41.074219 23.882812 41.105469 24.046875 41.105469 24.21875 C 41.105469 24.390625 41.070312 24.554688 41.003906 24.710938 C 40.941406 24.867188 40.847656 25.007812 40.722656 25.128906 C 40.601562 25.25 40.460938 25.339844 40.304688 25.40625 C 40.144531 25.46875 39.980469 25.5 39.808594 25.5 Z M 39.808594 23.054688 C 39.652344 23.054688 39.503906 23.082031 39.359375 23.140625 C 39.214844 23.203125 39.089844 23.285156 38.980469 23.394531 C 38.871094 23.503906 38.785156 23.628906 38.726562 23.773438 C 38.667969 23.914062 38.636719 24.0625 38.636719 24.21875 C 38.636719 24.371094 38.667969 24.519531 38.726562 24.664062 C 38.785156 24.804688 38.871094 24.933594 38.980469 25.042969 C 39.089844 25.152344 39.214844 25.234375 39.359375 25.292969 C 39.503906 25.351562 39.652344 25.382812 39.808594 25.382812 C 39.960938 25.382812 40.113281 25.351562 40.253906 25.292969 C 40.398438 25.234375 40.523438 25.152344 40.636719 25.042969 C 40.746094 24.933594 40.828125 24.804688 40.886719 24.664062 C 40.949219 24.519531 40.976562 24.371094 40.976562 24.21875 C 40.976562 24.0625 40.949219 23.914062 40.886719 23.773438 C 40.828125 23.628906 40.746094 23.503906 40.636719 23.394531 C 40.523438 23.285156 40.398438 23.203125 40.253906 23.140625 C 40.113281 23.082031 39.960938 23.054688 39.808594 23.054688 Z M 39.808594 23.054688 " fill-opacity="1" fill-rule="nonzero"/><path fill="#000000" d="M 39.832031 24.683594 L 39.789062 24.664062 L 39.214844 24.089844 C 39.164062 24.0625 39.160156 24.027344 39.203125 23.988281 C 39.242188 23.945312 39.277344 23.949219 39.308594 24 L 39.832031 24.53125 L 41.332031 22.960938 C 41.363281 22.933594 41.390625 22.933594 41.417969 22.960938 C 41.445312 22.988281 41.449219 23.019531 41.425781 23.054688 L 39.882812 24.664062 Z M 39.832031 24.683594 " fill-opacity="1" fill-rule="nonzero"/><path fill="#000000" d="M 39.808594 29.90625 C 39.636719 29.90625 39.46875 29.871094 39.3125 29.804688 C 39.152344 29.742188 39.011719 29.648438 38.890625 29.527344 C 38.769531 29.40625 38.675781 29.265625 38.609375 29.109375 C 38.542969 28.949219 38.511719 28.785156 38.511719 28.613281 C 38.511719 28.441406 38.542969 28.277344 38.609375 28.121094 C 38.675781 27.960938 38.769531 27.820312 38.890625 27.699219 C 39.011719 27.578125 39.152344 27.488281 39.3125 27.421875 C 39.46875 27.355469 39.636719 27.324219 39.808594 27.324219 C 39.980469 27.324219 40.144531 27.355469 40.304688 27.421875 C 40.460938 27.488281 40.601562 27.578125 40.726562 27.699219 C 40.847656 27.820312 40.941406 27.960938 41.007812 28.121094 C 41.070312 28.277344 41.105469 28.441406 41.105469 28.613281 C 41.105469 28.785156 41.070312 28.949219 41.007812 29.109375 C 40.941406 29.265625 40.847656 29.40625 40.726562 29.527344 C 40.601562 29.648438 40.460938 29.742188 40.304688 29.804688 C 40.144531 29.871094 39.980469 29.90625 39.808594 29.90625 Z M 39.808594 27.449219 C 39.652344 27.449219 39.503906 27.480469 39.359375 27.539062 C 39.214844 27.597656 39.089844 27.679688 38.980469 27.789062 C 38.871094 27.898438 38.785156 28.027344 38.726562 28.167969 C 38.667969 28.3125 38.636719 28.460938 38.636719 28.613281 C 38.636719 28.769531 38.667969 28.917969 38.726562 29.058594 C 38.785156 29.203125 38.871094 29.328125 38.980469 29.4375 C 39.089844 29.546875 39.214844 29.628906 39.359375 29.6875 C 39.503906 29.75 39.652344 29.777344 39.808594 29.777344 C 39.960938 29.777344 40.113281 29.75 40.253906 29.6875 C 40.398438 29.628906 40.523438 29.546875 40.636719 29.4375 C 40.746094 29.328125 40.828125 29.203125 40.886719 29.058594 C 40.949219 28.917969 40.976562 28.769531 40.976562 28.613281 C 40.976562 28.460938 40.949219 28.3125 40.886719 28.167969 C 40.828125 28.027344 40.746094 27.898438 40.636719 27.789062 C 40.523438 27.679688 40.398438 27.597656 40.253906 27.539062 C 40.113281 27.480469 39.960938 27.449219 39.808594 27.449219 Z M 39.808594 27.449219 " fill-opacity="1" fill-rule="nonzero"/><path fill="#000000" d="M 39.832031 29.078125 L 39.789062 29.0625 L 39.214844 28.488281 C 39.183594 28.457031 39.183594 28.425781 39.214844 28.394531 C 39.246094 28.375 39.277344 28.375 39.308594 28.394531 L 39.832031 28.925781 L 41.332031 27.355469 C 41.363281 27.328125 41.390625 27.328125 41.417969 27.355469 C 41.445312 27.386719 41.449219 27.417969 41.425781 27.449219 L 39.882812 29.0625 Z M 39.832031 29.078125 " fill-opacity="1" fill-rule="nonzero"/><path fill="#000000" d="M 17.839844 53.390625 L 18.976562 48.71875 L 18.957031 53.230469 Z M 17.839844 53.390625 " fill-opacity="1" fill-rule="nonzero"/></svg>