<svg xmlns="http://www.w3.org/2000/svg" xmlns:xlink="http://www.w3.org/1999/xlink" width="90" zoomAndPan="magnify" viewBox="0 0 67.5 67.499996" height="90" preserveAspectRatio="xMidYMid meet" version="1.0"><defs><clipPath id="7ee23862a2"><path d="M 8 39 L 59 39 L 59 62.667969 L 8 62.667969 Z M 8 39 " clip-rule="nonzero"/></clipPath><clipPath id="41117b6594"><path d="M 34 4.597656 L 62.101562 4.597656 L 62.101562 40 L 34 40 Z M 34 4.597656 " clip-rule="nonzero"/></clipPath><clipPath id="a5e47b74ab"><path d="M 4.777344 5 L 34 5 L 34 39 L 4.777344 39 Z M 4.777344 5 " clip-rule="nonzero"/></clipPath></defs><g clip-path="url(#7ee23862a2)"><path fill="#f0f0f0" d="M 54.425781 44.257812 C 53.75 44.257812 53.097656 44.414062 52.488281 44.714844 L 52.453125 44.730469 L 52.371094 44.773438 L 43.191406 49.480469 C 42.78125 47.570312 41.101562 46.113281 39.078125 46.066406 L 33.003906 45.960938 C 32.058594 45.941406 27.625 45.449219 26.46875 44.875 C 24.511719 43.90625 22.320312 43.386719 20.128906 43.378906 L 19.480469 43.378906 L 19.480469 39.40625 L 8.855469 39.40625 L 8.855469 62.667969 L 19.480469 62.667969 L 19.480469 58.789062 C 21.667969 58.976562 22.175781 59.160156 22.199219 59.167969 C 23.894531 59.84375 27.28125 61.0625 30.882812 61.65625 C 32.3125 61.890625 33.667969 62.007812 34.90625 62.007812 C 37.558594 62.007812 39.792969 61.460938 41.535156 60.382812 C 42.261719 59.976562 51.742188 55.078125 54.867188 53.460938 L 56.136719 52.808594 L 56.375 52.691406 C 58.558594 51.613281 59.460938 48.945312 58.390625 46.746094 C 57.640625 45.210938 56.125 44.257812 54.425781 44.257812 Z M 54.425781 44.257812 " fill-opacity="1" fill-rule="nonzero"/></g><g clip-path="url(#41117b6594)"><path fill="#f0f0f0" d="M 53.777344 14.402344 L 48.140625 4.601562 L 42.519531 14.40625 L 34.1875 12.164062 L 37.378906 24.0625 L 39.320312 22.101562 L 44.785156 27.601562 L 44.785156 39.425781 L 51.507812 39.425781 L 51.507812 27.59375 L 56.972656 22.097656 L 58.921875 24.0625 L 62.089844 12.164062 Z M 53.777344 14.402344 " fill-opacity="1" fill-rule="nonzero"/></g><g clip-path="url(#a5e47b74ab)"><path fill="#f0f0f0" d="M 9.160156 13.273438 L 10.558594 13.273438 L 10.558594 28.617188 L 14.25 28.617188 C 12.257812 29.261719 10.808594 31.140625 10.808594 33.359375 C 10.808594 36.105469 13.027344 38.335938 15.753906 38.335938 C 18.480469 38.335938 20.695312 36.105469 20.695312 33.359375 C 20.695312 31.140625 19.25 29.261719 17.253906 28.617188 L 26.710938 28.617188 C 25.964844 28.855469 25.28125 29.273438 24.714844 29.84375 C 23.78125 30.785156 23.265625 32.035156 23.265625 33.367188 C 23.269531 36.109375 25.484375 38.339844 28.210938 38.339844 L 28.214844 38.339844 C 30.941406 38.339844 33.160156 36.105469 33.15625 33.359375 C 33.15625 31.140625 31.699219 29.257812 29.699219 28.617188 L 33.414062 28.617188 L 33.398438 11.164062 L 14.746094 11.164062 L 14.746094 8.507812 C 14.746094 6.957031 13.492188 5.695312 11.953125 5.695312 L 7.574219 5.695312 C 6.035156 5.695312 4.785156 6.957031 4.785156 8.507812 C 4.785156 10.054688 6.035156 11.316406 7.574219 11.316406 L 9.160156 11.316406 Z M 9.160156 13.273438 " fill-opacity="1" fill-rule="nonzero"/></g><path fill="#ffffff" d="M 54.425781 44.960938 C 53.859375 44.960938 53.308594 45.089844 52.792969 45.34375 L 52.769531 45.355469 L 52.695312 45.394531 L 42.589844 50.578125 L 42.589844 50.441406 C 42.617188 48.460938 41.042969 46.8125 39.066406 46.769531 L 32.992188 46.664062 C 32.054688 46.644531 27.480469 46.160156 26.160156 45.507812 C 24.296875 44.582031 22.214844 44.089844 20.128906 44.082031 L 18.78125 44.082031 L 18.78125 40.113281 L 9.554688 40.113281 L 9.554688 61.964844 L 18.78125 61.964844 L 18.78125 58.03125 C 21.640625 58.234375 22.339844 58.46875 22.457031 58.515625 C 24.125 59.179688 27.457031 60.382812 30.992188 60.960938 C 32.390625 61.191406 33.703125 61.304688 34.902344 61.304688 C 37.4375 61.304688 39.546875 60.789062 41.183594 59.773438 C 41.816406 59.417969 51.417969 54.453125 54.585938 52.816406 C 55.113281 52.542969 55.539062 52.324219 55.820312 52.175781 L 56.066406 52.058594 C 57.902344 51.148438 58.664062 48.902344 57.761719 47.054688 C 57.132812 45.765625 55.855469 44.960938 54.425781 44.960938 Z M 54.425781 44.960938 " fill-opacity="1" fill-rule="nonzero"/><path fill="#ffffff" d="M 51.621094 15.710938 L 53.207031 17.3125 L 50.8125 19.726562 L 50.8125 14.628906 L 53.101562 14.628906 L 48.140625 6.003906 L 43.195312 14.628906 L 45.484375 14.628906 L 45.484375 19.734375 L 43.078125 17.3125 L 44.664062 15.710938 L 35.175781 13.15625 L 37.738281 22.707031 L 39.320312 21.109375 L 45.484375 27.3125 L 45.484375 38.722656 L 50.808594 38.722656 L 50.808594 27.300781 L 56.972656 21.101562 L 58.5625 22.703125 L 61.101562 13.160156 Z M 51.621094 15.710938 " fill-opacity="1" fill-rule="nonzero"/><path fill="#ffffff" d="M 9.859375 12.570312 L 11.253906 12.570312 L 11.253906 27.914062 L 32.714844 27.914062 L 32.703125 11.867188 L 14.046875 11.867188 L 14.046875 8.507812 C 14.046875 7.34375 13.109375 6.398438 11.953125 6.398438 L 7.574219 6.398438 C 6.421875 6.398438 5.480469 7.34375 5.480469 8.507812 C 5.480469 9.667969 6.421875 10.613281 7.574219 10.613281 L 9.859375 10.613281 Z M 9.859375 12.570312 " fill-opacity="1" fill-rule="nonzero"/><path fill="#ffffff" d="M 20 33.359375 C 20 33.640625 19.972656 33.917969 19.917969 34.195312 C 19.863281 34.46875 19.78125 34.734375 19.675781 34.996094 C 19.570312 35.253906 19.4375 35.5 19.285156 35.734375 C 19.128906 35.96875 18.953125 36.183594 18.753906 36.382812 C 18.558594 36.582031 18.34375 36.757812 18.113281 36.914062 C 17.878906 37.070312 17.636719 37.203125 17.378906 37.308594 C 17.121094 37.417969 16.855469 37.496094 16.582031 37.550781 C 16.308594 37.605469 16.03125 37.632812 15.753906 37.632812 C 15.472656 37.632812 15.199219 37.605469 14.925781 37.550781 C 14.652344 37.496094 14.386719 37.417969 14.128906 37.308594 C 13.871094 37.203125 13.625 37.070312 13.394531 36.914062 C 13.160156 36.757812 12.949219 36.582031 12.75 36.382812 C 12.554688 36.183594 12.378906 35.96875 12.222656 35.734375 C 12.066406 35.5 11.9375 35.253906 11.828125 34.996094 C 11.722656 34.734375 11.644531 34.46875 11.589844 34.195312 C 11.535156 33.917969 11.507812 33.640625 11.507812 33.359375 C 11.507812 33.078125 11.535156 32.800781 11.589844 32.527344 C 11.644531 32.25 11.722656 31.984375 11.828125 31.722656 C 11.9375 31.464844 12.066406 31.21875 12.222656 30.984375 C 12.378906 30.75 12.554688 30.535156 12.75 30.335938 C 12.949219 30.140625 13.160156 29.960938 13.394531 29.804688 C 13.625 29.648438 13.871094 29.519531 14.128906 29.410156 C 14.386719 29.304688 14.652344 29.222656 14.925781 29.167969 C 15.199219 29.113281 15.472656 29.085938 15.753906 29.085938 C 16.03125 29.085938 16.308594 29.113281 16.582031 29.167969 C 16.855469 29.222656 17.121094 29.304688 17.378906 29.410156 C 17.636719 29.519531 17.878906 29.648438 18.113281 29.804688 C 18.34375 29.960938 18.558594 30.140625 18.753906 30.335938 C 18.953125 30.535156 19.128906 30.75 19.285156 30.984375 C 19.4375 31.21875 19.570312 31.464844 19.675781 31.722656 C 19.78125 31.984375 19.863281 32.25 19.917969 32.527344 C 19.972656 32.800781 20 33.078125 20 33.359375 Z M 20 33.359375 " fill-opacity="1" fill-rule="nonzero"/><path fill="#ffffff" d="M 25.207031 30.339844 C 24.40625 31.148438 23.964844 32.222656 23.964844 33.367188 C 23.964844 35.722656 25.871094 37.640625 28.210938 37.640625 C 30.554688 37.640625 32.457031 35.71875 32.457031 33.363281 C 32.453125 31.007812 30.550781 29.09375 28.207031 29.089844 C 27.074219 29.085938 26.007812 29.535156 25.207031 30.339844 Z M 25.207031 30.339844 " fill-opacity="1" fill-rule="nonzero"/><path fill="#3d8cf0" d="M 55.449219 50.796875 L 55.4375 50.796875 C 53.949219 51.566406 40.914062 58.300781 40.46875 58.566406 C 38.347656 59.894531 35.234375 60.234375 31.21875 59.574219 C 27.800781 59.011719 24.582031 57.851562 22.96875 57.207031 C 22.171875 56.886719 19.964844 56.707031 18.78125 56.621094 L 18.78125 45.484375 L 20.128906 45.484375 C 22.007812 45.492188 23.859375 45.929688 25.542969 46.765625 C 27.25 47.613281 32.28125 48.054688 32.964844 48.066406 L 39.042969 48.175781 C 40.253906 48.203125 41.21875 49.210938 41.195312 50.429688 L 41.195312 50.671875 C 41.191406 50.964844 41.128906 51.25 41.011719 51.515625 C 40.992188 51.546875 40.976562 51.582031 40.964844 51.613281 C 40.585938 52.371094 39.808594 52.847656 38.964844 52.832031 L 31.132812 52.699219 L 31.121094 52.699219 C 30.734375 52.699219 30.417969 53.011719 30.417969 53.398438 C 30.414062 53.785156 30.722656 54.101562 31.109375 54.105469 L 38.941406 54.238281 L 39 54.238281 C 40.300781 54.238281 41.5 53.53125 42.132812 52.386719 L 53.339844 46.640625 L 53.40625 46.605469 C 54.554688 46.039062 55.945312 46.515625 56.511719 47.671875 C 57.074219 48.828125 56.597656 50.226562 55.449219 50.796875 Z M 55.449219 50.796875 " fill-opacity="1" fill-rule="nonzero"/><path fill="#3d8cf0" d="M 10.949219 41.515625 L 17.386719 41.515625 L 17.386719 60.558594 L 10.949219 60.558594 Z M 10.949219 41.515625 " fill-opacity="1" fill-rule="nonzero"/><path fill="#3d8cf0" d="M 59.128906 15.144531 L 57.839844 19.984375 L 57.46875 19.613281 C 57.195312 19.335938 56.753906 19.335938 56.480469 19.613281 L 49.613281 26.519531 C 49.597656 26.535156 49.582031 26.554688 49.566406 26.570312 C 49.550781 26.589844 49.539062 26.609375 49.527344 26.625 C 49.5 26.667969 49.476562 26.714844 49.460938 26.761719 C 49.449219 26.777344 49.445312 26.792969 49.441406 26.8125 C 49.429688 26.855469 49.417969 26.898438 49.414062 26.945312 C 49.414062 26.96875 49.414062 26.992188 49.414062 27.015625 L 49.414062 37.316406 L 46.878906 37.316406 L 46.878906 28.367188 C 46.878906 28.363281 46.878906 28.355469 46.878906 28.347656 L 46.878906 27.019531 C 46.878906 26.882812 46.839844 26.746094 46.761719 26.632812 C 46.75 26.613281 46.738281 26.59375 46.722656 26.578125 C 46.707031 26.558594 46.691406 26.542969 46.675781 26.523438 L 39.8125 19.617188 C 39.539062 19.34375 39.097656 19.34375 38.824219 19.617188 L 38.453125 19.992188 L 37.15625 15.144531 L 41.96875 16.441406 L 41.597656 16.816406 C 41.324219 17.089844 41.324219 17.535156 41.597656 17.808594 L 47.648438 23.902344 C 47.921875 24.175781 48.363281 24.175781 48.636719 23.902344 L 50.601562 21.921875 L 54.6875 17.808594 C 54.960938 17.535156 54.960938 17.089844 54.6875 16.816406 L 54.316406 16.441406 Z M 59.128906 15.144531 " fill-opacity="1" fill-rule="nonzero"/><path fill="#3d8cf0" d="M 50.679688 13.226562 L 50.113281 13.226562 C 49.726562 13.226562 49.414062 13.539062 49.414062 13.925781 L 49.414062 21.128906 L 48.148438 22.40625 L 46.878906 21.132812 L 46.878906 13.925781 C 46.878906 13.539062 46.566406 13.226562 46.183594 13.226562 L 45.613281 13.226562 L 48.144531 8.8125 Z M 50.679688 13.226562 " fill-opacity="1" fill-rule="nonzero"/><path fill="#3d8cf0" d="M 12.652344 8.507812 L 12.652344 11.867188 L 11.953125 11.867188 C 11.566406 11.867188 11.253906 12.183594 11.253906 12.570312 L 11.253906 9.210938 L 7.574219 9.210938 C 7.191406 9.210938 6.878906 8.894531 6.878906 8.507812 C 6.878906 8.121094 7.191406 7.804688 7.574219 7.804688 L 11.953125 7.804688 C 12.339844 7.804688 12.652344 8.121094 12.652344 8.507812 Z M 12.652344 8.507812 " fill-opacity="1" fill-rule="nonzero"/><path fill="#3d8cf0" d="M 31.308594 13.273438 L 12.652344 13.273438 L 12.652344 26.511719 L 31.316406 26.511719 Z M 21.980469 19.195312 C 23.332031 19.183594 24.433594 20.273438 24.445312 21.632812 C 24.457031 22.734375 23.734375 23.710938 22.679688 24.015625 L 22.679688 24.964844 C 22.679688 25.355469 22.367188 25.667969 21.980469 25.667969 C 21.597656 25.667969 21.285156 25.355469 21.285156 24.964844 L 21.285156 24.015625 C 20.25 23.703125 19.539062 22.746094 19.539062 21.65625 C 19.539062 21.269531 19.851562 20.953125 20.238281 20.953125 C 20.621094 20.953125 20.933594 21.269531 20.933594 21.65625 C 20.933594 22.238281 21.402344 22.710938 21.980469 22.710938 C 22.558594 22.710938 23.027344 22.238281 23.027344 21.65625 C 23.027344 21.074219 22.558594 20.601562 21.980469 20.601562 C 20.632812 20.617188 19.527344 19.523438 19.515625 18.167969 C 19.507812 17.0625 20.230469 16.085938 21.285156 15.78125 L 21.285156 14.824219 C 21.285156 14.4375 21.597656 14.121094 21.980469 14.121094 C 22.367188 14.121094 22.679688 14.4375 22.679688 14.824219 L 22.679688 15.773438 C 23.714844 16.085938 24.425781 17.046875 24.425781 18.132812 C 24.425781 18.523438 24.113281 18.835938 23.726562 18.835938 C 23.339844 18.835938 23.027344 18.523438 23.027344 18.132812 C 23.027344 17.550781 22.558594 17.082031 21.980469 17.082031 C 21.402344 17.082031 20.933594 17.550781 20.933594 18.132812 C 20.933594 18.714844 21.402344 19.1875 21.980469 19.1875 Z M 21.980469 19.195312 " fill-opacity="1" fill-rule="nonzero"/><path fill="#3d8cf0" d="M 18.601562 33.359375 C 18.601562 33.742188 18.53125 34.105469 18.386719 34.457031 C 18.242188 34.808594 18.035156 35.121094 17.769531 35.390625 C 17.5 35.65625 17.191406 35.867188 16.84375 36.011719 C 16.496094 36.15625 16.128906 36.230469 15.753906 36.230469 C 15.375 36.230469 15.011719 36.15625 14.660156 36.011719 C 14.3125 35.867188 14.003906 35.65625 13.738281 35.390625 C 13.46875 35.121094 13.265625 34.808594 13.121094 34.457031 C 12.972656 34.105469 12.902344 33.742188 12.902344 33.359375 C 12.902344 32.980469 12.972656 32.613281 13.121094 32.261719 C 13.265625 31.910156 13.46875 31.601562 13.738281 31.332031 C 14.003906 31.0625 14.3125 30.855469 14.660156 30.707031 C 15.011719 30.5625 15.375 30.492188 15.753906 30.492188 C 16.128906 30.492188 16.496094 30.5625 16.84375 30.707031 C 17.191406 30.855469 17.5 31.0625 17.769531 31.332031 C 18.035156 31.601562 18.242188 31.910156 18.386719 32.261719 C 18.53125 32.613281 18.601562 32.980469 18.601562 33.359375 Z M 18.601562 33.359375 " fill-opacity="1" fill-rule="nonzero"/><path fill="#3d8cf0" d="M 31.0625 33.363281 C 31.0625 34.949219 29.785156 36.234375 28.210938 36.234375 C 26.636719 36.234375 25.359375 34.949219 25.359375 33.363281 C 25.359375 31.777344 26.636719 30.492188 28.210938 30.492188 C 29.785156 30.496094 31.058594 31.777344 31.0625 33.363281 Z M 31.0625 33.363281 " fill-opacity="1" fill-rule="nonzero"/></svg>