<svg xmlns="http://www.w3.org/2000/svg" xmlns:xlink="http://www.w3.org/1999/xlink" width="1080" zoomAndPan="magnify" viewBox="0 0 810 562.499983" height="750" preserveAspectRatio="xMidYMid meet" version="1.0"><path fill="#caddff" d="M 409.617188 38.558594 C 376.972656 44.035156 252.800781 62.996094 197.054688 175.542969 C 143.253906 284.15625 175.886719 435.710938 267.402344 495.761719 C 414.273438 592.132812 666.753906 410.554688 655.832031 333.191406 C 651.742188 304.226562 596.507812 291.929688 590.203125 252.371094 C 580.242188 189.832031 666.179688 156.125 658.210938 109.601562 C 649.011719 55.917969 518.417969 20.296875 409.617188 38.558594 " fill-opacity="1" fill-rule="nonzero"/><path fill="#ffffff" d="M 649.085938 297.519531 C 649.085938 254.445312 632.847656 190.300781 554.613281 194.199219 C 559.019531 139.648438 516.207031 64.679688 422.9375 71.53125 C 377.914062 74.839844 368.683594 113.199219 363.800781 111.28125 C 301.007812 86.609375 217.835938 142.09375 234.90625 229.808594 C 200.015625 233.988281 177.660156 267.980469 178.472656 310.46875 C 179.003906 338.070312 193.445312 359.300781 216.867188 359.300781 L 596.4375 359.300781 C 624.738281 359.300781 648.339844 332.945312 649.066406 299.589844 C 649.085938 298.902344 649.085938 298.210938 649.085938 297.519531 " fill-opacity="1" fill-rule="nonzero"/><path fill="#ffffff" d="M 256.945312 360.1875 L 216.867188 360.1875 C 205.34375 360.1875 195.492188 355.203125 188.378906 345.769531 C 181.6875 336.894531 177.855469 324.363281 177.589844 310.488281 C 177.199219 290.203125 183.703125 271.019531 195.902344 256.472656 C 207.667969 242.449219 223.808594 233.574219 241.363281 231.46875 C 241.84375 231.40625 242.289062 231.757812 242.347656 232.242188 C 242.40625 232.730469 242.058594 233.167969 241.574219 233.226562 C 205.347656 237.566406 178.601562 270.765625 179.359375 310.453125 C 179.90625 339.140625 194.980469 358.414062 216.867188 358.414062 L 256.945312 358.414062 C 257.433594 358.414062 257.832031 358.8125 257.832031 359.300781 C 257.832031 359.792969 257.433594 360.1875 256.945312 360.1875 " fill-opacity="1" fill-rule="nonzero"/><path fill="#4e8db9" d="M 660.101562 305.023438 C 660.101562 263.050781 637.195312 180.703125 560.601562 184.5 C 543.964844 101.75 508.8125 77.546875 446.242188 76.933594 C 385.136719 76.332031 373.890625 124.945312 369.1875 122.84375 C 303.445312 93.464844 233.949219 158.875 247.304688 236.011719 C 213.144531 240.082031 195.023438 274.988281 195.023438 316.132812 C 195.023438 316.316406 195.023438 316.5 195.023438 316.6875 C 195.179688 343.585938 213.972656 365.214844 236.90625 365.214844 L 608.550781 365.214844 C 636.261719 365.214844 659.375 339.535156 660.082031 307.035156 C 660.097656 306.367188 660.101562 305.695312 660.101562 305.023438 " fill-opacity="1" fill-rule="nonzero"/><path fill="#000000" d="M 340.503906 504.535156 C 340.40625 504.535156 340.308594 504.519531 340.214844 504.488281 C 290.34375 487.261719 261.347656 461.902344 245.804688 443.664062 C 228.929688 423.855469 223.796875 407.867188 223.746094 407.707031 C 223.601562 407.242188 223.859375 406.746094 224.328125 406.597656 C 224.792969 406.453125 225.292969 406.710938 225.4375 407.179688 C 225.488281 407.332031 230.546875 423.050781 247.226562 442.597656 C 262.621094 460.640625 291.351562 485.738281 340.792969 502.808594 C 341.253906 502.972656 341.5 503.472656 341.339844 503.9375 C 341.214844 504.304688 340.871094 504.535156 340.503906 504.535156 " fill-opacity="1" fill-rule="nonzero"/><path fill="#000000" d="M 314.980469 506.441406 C 314.859375 506.441406 314.734375 506.414062 314.617188 506.359375 C 266.6875 484.574219 240.371094 457.097656 226.734375 437.882812 C 211.921875 417.015625 208.425781 401.042969 208.390625 400.886719 C 208.289062 400.40625 208.59375 399.9375 209.074219 399.835938 C 209.550781 399.734375 210.023438 400.039062 210.125 400.515625 C 210.15625 400.675781 213.609375 416.363281 228.246094 436.953125 C 241.757812 455.960938 267.835938 483.152344 315.347656 504.75 C 315.792969 504.953125 315.992188 505.476562 315.789062 505.921875 C 315.640625 506.246094 315.320312 506.441406 314.980469 506.441406 " fill-opacity="1" fill-rule="nonzero"/><path fill="#000000" d="M 379.128906 64.160156 C 378.789062 64.160156 378.46875 63.964844 378.320312 63.640625 C 378.121094 63.191406 378.320312 62.667969 378.761719 62.46875 C 419.511719 44.128906 478.953125 50.433594 479.554688 50.496094 C 480.039062 50.550781 480.390625 50.988281 480.335938 51.472656 C 480.285156 51.960938 479.851562 52.308594 479.355469 52.257812 C 478.769531 52.191406 419.792969 45.941406 379.492188 64.082031 C 379.375 64.136719 379.25 64.160156 379.128906 64.160156 " fill-opacity="1" fill-rule="nonzero"/><path fill="#000000" d="M 371.800781 59.421875 C 371.488281 59.421875 371.183594 59.253906 371.023438 58.960938 C 370.789062 58.53125 370.945312 57.992188 371.375 57.757812 C 401.859375 41.058594 454.78125 41.605469 455.316406 41.613281 C 455.804688 41.617188 456.199219 42.023438 456.1875 42.511719 C 456.179688 42.996094 455.785156 43.382812 455.300781 43.382812 C 455.296875 43.382812 455.292969 43.382812 455.289062 43.382812 C 454.757812 43.378906 402.300781 42.839844 372.226562 59.3125 C 372.09375 59.386719 371.945312 59.421875 371.800781 59.421875 " fill-opacity="1" fill-rule="nonzero"/><path fill="#000000" d="M 368.652344 64.964844 L 368.65625 64.964844 Z M 371.640625 63.523438 C 371.25 63.523438 370.867188 63.628906 370.519531 63.832031 C 370.015625 64.132812 369.65625 64.613281 369.507812 65.183594 C 369.363281 65.757812 369.449219 66.347656 369.75 66.855469 C 370.050781 67.363281 370.53125 67.71875 371.105469 67.863281 C 372.285156 68.167969 373.484375 67.449219 373.785156 66.269531 C 374.085938 65.089844 373.367188 63.890625 372.191406 63.589844 C 372.007812 63.542969 371.824219 63.523438 371.640625 63.523438 Z M 371.648438 69.703125 C 371.324219 69.703125 370.996094 69.664062 370.667969 69.582031 C 369.636719 69.316406 368.773438 68.671875 368.230469 67.757812 C 367.683594 66.847656 367.53125 65.777344 367.792969 64.746094 C 368.054688 63.71875 368.703125 62.851562 369.617188 62.308594 C 370.527344 61.765625 371.597656 61.609375 372.628906 61.871094 C 374.753906 62.414062 376.042969 64.582031 375.5 66.707031 C 375.046875 68.503906 373.421875 69.703125 371.648438 69.703125 " fill-opacity="1" fill-rule="nonzero"/><path fill="#000000" d="M 494.71875 54.289062 L 495.34375 61.316406 L 502.265625 57.90625 Z M 494.578125 63.566406 C 494.429688 63.566406 494.277344 63.53125 494.148438 63.453125 C 493.890625 63.308594 493.722656 63.050781 493.695312 62.761719 L 492.8125 52.898438 C 492.785156 52.578125 492.929688 52.273438 493.1875 52.089844 C 493.453125 51.910156 493.792969 51.882812 494.078125 52.019531 L 504.675781 57.09375 C 504.976562 57.238281 505.175781 57.550781 505.175781 57.886719 C 505.183594 58.226562 504.988281 58.539062 504.679688 58.6875 L 494.972656 63.476562 C 494.847656 63.539062 494.710938 63.566406 494.578125 63.566406 " fill-opacity="1" fill-rule="nonzero"/><path fill="#caddff" d="M 518.574219 215.753906 L 480.71875 197.175781 C 449.917969 182.054688 421.171875 163.058594 395.1875 140.648438 L 393.332031 129.140625 C 393.332031 129.140625 380.5 129.277344 377.75 129.121094 C 374.242188 128.921875 370.675781 130.152344 367.988281 132.78125 C 339.789062 160.378906 307.679688 183.679688 272.695312 201.933594 L 247.945312 214.847656 C 242.195312 217.847656 240.078125 223.140625 241.808594 230.738281 L 274.15625 367.382812 C 288.238281 405.613281 344.941406 456.765625 376.859375 483.394531 C 382.664062 488.238281 389.761719 490.605469 396.824219 490.5625 C 399.957031 490.542969 412.929688 490.953125 412.929688 490.953125 C 412.929688 490.953125 415.675781 485.488281 419.3125 481.796875 C 447.992188 452.652344 498.320312 396.550781 508.523438 352.375 L 525.457031 230.234375 C 526.804688 224.394531 523.957031 218.398438 518.574219 215.753906 " fill-opacity="1" fill-rule="nonzero"/><path fill="#ffffff" d="M 532.910156 216.492188 L 495.351562 198.054688 C 464.785156 183.054688 436.265625 164.203125 410.484375 141.96875 L 400.804688 133.617188 C 395.773438 129.273438 388.25 129.511719 383.496094 134.164062 C 355.515625 161.546875 323.65625 184.664062 288.945312 202.777344 L 264.386719 215.589844 C 258.683594 218.566406 256.074219 225.320312 258.300781 231.359375 L 290.394531 366.941406 C 304.367188 404.871094 361.234375 456.105469 392.902344 482.523438 C 405.167969 492.753906 423.21875 491.84375 434.417969 480.460938 C 462.878906 451.542969 512.816406 395.878906 522.9375 352.046875 L 539.742188 230.855469 C 541.082031 225.0625 538.246094 219.113281 532.910156 216.492188 " fill-opacity="1" fill-rule="nonzero"/><path fill="#caddff" d="M 509.835938 232.589844 L 478.738281 217.324219 C 453.433594 204.90625 429.816406 189.300781 408.472656 170.886719 L 400.460938 163.976562 C 396.292969 160.378906 390.0625 160.574219 386.128906 164.425781 C 362.957031 187.097656 336.582031 206.238281 307.84375 221.234375 L 287.507812 231.84375 C 282.785156 234.3125 280.625 239.898438 282.46875 244.902344 L 309.042969 357.15625 C 320.609375 388.5625 367.691406 430.984375 393.917969 452.859375 C 404.070312 461.328125 419.015625 460.574219 428.289062 451.148438 C 451.851562 427.207031 493.199219 381.117188 501.578125 344.824219 L 515.492188 244.488281 C 516.597656 239.6875 514.257812 234.757812 509.835938 232.589844 " fill-opacity="1" fill-rule="nonzero"/><path fill="#000000" d="M 412.515625 490.523438 C 405.140625 490.523438 398.027344 487.953125 392.339844 483.203125 C 359.953125 456.191406 303.542969 405.207031 289.5625 367.246094 C 289.550781 367.214844 289.542969 367.179688 289.53125 367.144531 L 257.449219 231.617188 C 255.113281 225.191406 257.914062 217.972656 263.976562 214.804688 L 288.535156 201.992188 C 323.195312 183.90625 354.9375 160.875 382.878906 133.53125 C 388 128.519531 395.957031 128.269531 401.386719 132.949219 L 411.0625 141.296875 C 436.773438 163.472656 465.261719 182.304688 495.738281 197.261719 L 533.300781 215.695312 C 539.023438 218.503906 542.027344 224.800781 540.613281 231.019531 L 533.40625 282.984375 C 533.339844 283.46875 532.894531 283.804688 532.40625 283.738281 C 531.925781 283.671875 531.582031 283.226562 531.652344 282.738281 L 538.863281 230.738281 C 538.863281 230.710938 538.871094 230.6875 538.878906 230.664062 C 540.125 225.238281 537.515625 219.738281 532.515625 217.289062 L 494.957031 198.851562 C 464.347656 183.828125 435.726562 164.914062 409.90625 142.640625 L 400.226562 134.289062 C 395.5 130.214844 388.574219 130.433594 384.121094 134.796875 C 356.050781 162.261719 324.167969 185.398438 289.355469 203.5625 L 264.796875 216.378906 C 259.503906 219.136719 257.066406 225.449219 259.128906 231.054688 C 259.140625 231.085938 259.152344 231.121094 259.160156 231.15625 L 291.246094 366.683594 C 305.113281 404.253906 361.242188 454.957031 393.46875 481.847656 C 405.277344 491.695312 422.988281 490.8125 433.785156 479.839844 C 462.4375 450.730469 511.988281 395.40625 522.066406 351.882812 L 526.402344 320.597656 C 526.46875 320.109375 526.910156 319.777344 527.402344 319.84375 C 527.886719 319.90625 528.222656 320.359375 528.15625 320.839844 L 523.8125 352.167969 C 523.8125 352.195312 523.804688 352.21875 523.796875 352.246094 C 513.648438 396.195312 463.835938 451.832031 435.050781 481.082031 C 429.472656 486.746094 422.03125 490.085938 414.101562 490.480469 C 413.570312 490.507812 413.039062 490.523438 412.515625 490.523438 " fill-opacity="1" fill-rule="nonzero"/><path fill="#ffffff" d="M 377.300781 265.328125 L 377.871094 229.371094 C 378.136719 217.753906 387.347656 208.242188 398.957031 207.707031 C 411.753906 207.121094 422.371094 217.582031 422.074219 230.390625 L 421.820312 241.546875 C 421.730469 245.4375 424.945312 248.59375 428.835938 248.4375 C 432.414062 248.292969 435.25 245.378906 435.304688 241.796875 L 435.457031 231.203125 C 435.941406 210.632812 419.472656 193.746094 398.238281 194.609375 L 398.238281 194.628906 C 380.695312 195.339844 364.648438 210.773438 364.210938 229.566406 L 363.757812 265.878906 L 377.300781 265.328125 " fill-opacity="1" fill-rule="nonzero"/><path fill="#000000" d="M 398.445312 195.488281 C 398.390625 195.5 398.332031 195.511719 398.273438 195.511719 C 380.703125 196.226562 365.511719 211.828125 365.097656 229.585938 L 364.65625 264.957031 L 376.429688 264.476562 L 376.988281 229.355469 C 377.261719 217.269531 386.894531 207.375 398.914062 206.824219 C 405.328125 206.53125 411.394531 208.847656 416.003906 213.351562 C 420.570312 217.820312 423.105469 224.035156 422.960938 230.40625 L 422.707031 241.566406 C 422.667969 243.199219 423.289062 244.730469 424.457031 245.878906 C 425.625 247.023438 427.160156 247.625 428.796875 247.550781 C 431.90625 247.425781 434.371094 244.894531 434.417969 241.785156 L 434.570312 231.191406 C 434.804688 221.3125 431.121094 212.132812 424.203125 205.332031 C 417.375 198.628906 408.234375 195.140625 398.445312 195.488281 Z M 377.300781 265.328125 L 377.304688 265.328125 Z M 363.757812 266.761719 C 363.527344 266.761719 363.304688 266.675781 363.140625 266.511719 C 362.964844 266.34375 362.867188 266.109375 362.871094 265.867188 L 363.324219 229.554688 C 363.757812 210.945312 379.632812 194.597656 398.027344 193.75 C 398.085938 193.738281 398.144531 193.726562 398.203125 193.722656 C 408.546875 193.300781 418.226562 196.980469 425.441406 204.070312 C 432.714844 211.21875 436.585938 220.859375 436.34375 231.226562 L 436.191406 241.8125 C 436.132812 245.859375 432.917969 249.15625 428.871094 249.324219 C 426.746094 249.402344 424.734375 248.636719 423.214844 247.140625 C 421.695312 245.648438 420.882812 243.65625 420.933594 241.523438 L 421.1875 230.367188 C 421.324219 224.484375 418.984375 218.742188 414.765625 214.621094 C 410.511719 210.460938 404.910156 208.324219 398.996094 208.589844 C 387.902344 209.101562 379.011719 218.238281 378.757812 229.386719 L 378.1875 265.34375 C 378.175781 265.8125 377.804688 266.195312 377.335938 266.210938 L 363.792969 266.761719 C 363.78125 266.761719 363.769531 266.761719 363.757812 266.761719 " fill-opacity="1" fill-rule="nonzero"/><path fill="#4e8db9" d="M 392.328125 364.195312 L 407.5 364.792969 C 428.503906 364.269531 447.070312 339.164062 445.082031 309.660156 L 441.890625 262.464844 L 352.617188 261.746094 C 344.695312 261.71875 338.054688 268.78125 338.601562 276.683594 L 341.355469 316.546875 C 343.167969 343.367188 365.449219 364.195312 392.328125 364.195312 " fill-opacity="1" fill-rule="nonzero"/><path fill="#ffffff" d="M 406.953125 363.457031 L 406.957031 363.457031 C 436.527344 363.457031 459.921875 338.425781 457.929688 308.921875 L 454.835938 263.164062 L 360.449219 263.164062 C 356.105469 263.164062 352.671875 266.839844 352.964844 271.171875 L 355.984375 315.808594 C 357.796875 342.628906 380.074219 363.457031 406.953125 363.457031 " fill-opacity="1" fill-rule="nonzero"/><path fill="#000000" d="M 406.957031 364.339844 C 379.714844 364.339844 356.9375 343.050781 355.097656 315.871094 L 352.066406 270.996094 C 351.910156 268.714844 352.683594 266.539062 354.246094 264.867188 C 355.808594 263.199219 357.925781 262.277344 360.214844 262.277344 L 447.445312 262.277344 C 452.054688 262.277344 455.910156 265.882812 456.21875 270.480469 L 456.640625 276.730469 C 456.675781 277.222656 456.304688 277.640625 455.820312 277.675781 C 455.316406 277.714844 454.90625 277.339844 454.875 276.851562 L 454.453125 270.597656 C 454.203125 266.929688 451.125 264.050781 447.445312 264.050781 L 360.214844 264.050781 C 358.421875 264.050781 356.765625 264.769531 355.539062 266.078125 C 354.316406 267.386719 353.710938 269.089844 353.832031 270.875 L 356.867188 315.75 C 358.636719 342.003906 380.640625 362.570312 406.953125 362.570312 C 431.71875 362.570312 453.078125 344.125 456.640625 319.664062 C 456.710938 319.179688 457.164062 318.847656 457.644531 318.917969 C 458.128906 318.984375 458.464844 319.433594 458.394531 319.921875 C 456.617188 332.109375 450.503906 343.316406 441.175781 351.488281 C 431.714844 359.777344 419.5625 364.339844 406.957031 364.339844 " fill-opacity="1" fill-rule="nonzero"/><path fill="#000000" d="M 408.132812 334.511719 C 410.539062 334.511719 412.449219 332.476562 412.296875 330.074219 L 410.027344 294.5 C 409.890625 292.304688 408.066406 290.59375 405.863281 290.59375 C 403.453125 290.59375 401.546875 292.628906 401.699219 295.035156 L 403.964844 330.601562 C 404.105469 332.800781 405.929688 334.511719 408.132812 334.511719 " fill-opacity="1" fill-rule="nonzero"/><path fill="#000000" d="M 391.300781 297.734375 C 391.300781 306.222656 398.179688 313.101562 406.667969 313.101562 C 415.15625 313.101562 422.03125 306.222656 422.03125 297.734375 C 422.03125 289.25 415.15625 282.371094 406.667969 282.371094 C 398.179688 282.371094 391.300781 289.25 391.300781 297.734375 " fill-opacity="1" fill-rule="nonzero"/><path fill="#000000" d="M 518.023438 299.605469 C 518.023438 299.605469 515.019531 309.898438 559.8125 312.40625 C 604.605469 314.910156 597.113281 302.183594 597.113281 302.183594 L 550.085938 288.484375 L 518.023438 299.605469 " fill-opacity="1" fill-rule="nonzero"/><path fill="#ffffff" d="M 569.066406 460.175781 C 567.863281 460.121094 573.160156 486.789062 573.160156 486.789062 L 561.816406 488.140625 L 555.648438 458.128906 L 569.066406 460.175781 " fill-opacity="1" fill-rule="nonzero"/><path fill="#000000" d="M 569.023438 461.0625 Z M 556.773438 459.195312 L 562.523438 487.160156 L 572.109375 486.019531 C 571.714844 484.003906 570.753906 479.042969 569.867188 474.046875 C 568.398438 465.761719 568.003906 462.390625 568.011719 460.914062 Z M 561.816406 489.023438 C 561.402344 489.023438 561.039062 488.734375 560.949219 488.316406 L 554.78125 458.308594 C 554.722656 458.023438 554.804688 457.730469 555.007812 457.519531 C 555.207031 457.3125 555.496094 457.210938 555.78125 457.253906 L 569.199219 459.300781 C 569.667969 459.375 569.992188 459.796875 569.949219 460.265625 C 569.929688 460.429688 569.867188 460.582031 569.777344 460.707031 C 569.59375 462.710938 571.796875 475.367188 574.03125 486.617188 C 574.078125 486.855469 574.019531 487.109375 573.878906 487.308594 C 573.730469 487.507812 573.507812 487.636719 573.265625 487.667969 L 561.921875 489.015625 C 561.886719 489.023438 561.851562 489.023438 561.816406 489.023438 " fill-opacity="1" fill-rule="nonzero"/><path fill="#4e8db9" d="M 578.210938 496.195312 C 577.246094 490.457031 575.761719 482.742188 574.515625 481.179688 C 572.484375 478.621094 566.964844 484.191406 566.964844 484.191406 C 566.964844 484.191406 564.441406 475.953125 558.984375 477.042969 C 554.878906 477.859375 541.074219 487.882812 533.800781 495.855469 C 531.421875 498.460938 533.304688 502.660156 536.835938 502.660156 L 572.738281 502.660156 C 576.167969 502.660156 578.777344 499.578125 578.210938 496.195312 " fill-opacity="1" fill-rule="nonzero"/><path fill="#000000" d="M 559.945312 477.832031 C 559.695312 477.832031 559.429688 477.855469 559.160156 477.910156 C 555.3125 478.675781 541.640625 488.578125 534.457031 496.453125 C 533.59375 497.402344 533.382812 498.675781 533.90625 499.859375 C 534.3125 500.785156 535.296875 501.773438 536.835938 501.773438 L 572.738281 501.773438 C 574.117188 501.773438 575.410156 501.167969 576.300781 500.121094 C 577.1875 499.074219 577.5625 497.695312 577.335938 496.339844 C 575.378906 484.675781 574.226562 482.238281 573.824219 481.730469 C 573.652344 481.515625 573.449219 481.410156 573.15625 481.394531 C 573.128906 481.394531 573.097656 481.390625 573.070312 481.390625 C 571.558594 481.390625 568.921875 483.476562 567.589844 484.820312 C 567.371094 485.039062 567.054688 485.132812 566.75 485.050781 C 566.449219 484.980469 566.207031 484.75 566.117188 484.453125 C 566.09375 484.382812 564.03125 477.832031 559.945312 477.832031 Z M 572.738281 503.542969 L 536.835938 503.542969 C 534.839844 503.542969 533.097656 502.40625 532.285156 500.574219 C 531.484375 498.757812 531.816406 496.722656 533.148438 495.257812 C 540.132812 487.601562 554.285156 477.074219 558.8125 476.171875 C 563.59375 475.21875 566.304688 480.1875 567.328125 482.640625 C 568.71875 481.425781 571.21875 479.5 573.253906 479.628906 C 574.050781 479.667969 574.726562 480.015625 575.210938 480.625 C 575.613281 481.132812 576.835938 482.671875 579.085938 496.046875 C 579.398438 497.914062 578.875 499.820312 577.652344 501.265625 C 576.425781 502.714844 574.636719 503.542969 572.738281 503.542969 " fill-opacity="1" fill-rule="nonzero"/><path fill="#ffffff" d="M 574.519531 497.355469 L 538.859375 497.355469 C 538.371094 497.355469 537.972656 496.957031 537.972656 496.46875 C 537.972656 495.980469 538.371094 495.582031 538.859375 495.582031 L 574.519531 495.582031 C 575.007812 495.582031 575.40625 495.980469 575.40625 496.46875 C 575.40625 496.957031 575.007812 497.355469 574.519531 497.355469 " fill-opacity="1" fill-rule="nonzero"/><path fill="#ffffff" d="M 616.402344 462.027344 L 629.378906 487.746094 L 636.636719 487 L 630.183594 459.445312 L 616.402344 462.027344 " fill-opacity="1" fill-rule="nonzero"/><path fill="#000000" d="M 617.726562 462.679688 L 629.898438 486.800781 L 635.546875 486.222656 L 629.519531 460.46875 Z M 629.382812 488.628906 C 629.050781 488.628906 628.746094 488.445312 628.59375 488.144531 L 615.617188 462.425781 C 615.492188 462.175781 615.492188 461.882812 615.613281 461.632812 C 615.738281 461.382812 615.96875 461.207031 616.246094 461.15625 L 630.023438 458.574219 C 630.5 458.484375 630.945312 458.78125 631.050781 459.242188 L 637.503906 486.800781 C 637.5625 487.046875 637.507812 487.308594 637.359375 487.515625 C 637.214844 487.722656 636.984375 487.855469 636.734375 487.878906 L 629.476562 488.625 C 629.445312 488.628906 629.414062 488.628906 629.382812 488.628906 " fill-opacity="1" fill-rule="nonzero"/><path fill="#4e8db9" d="M 630.410156 483.933594 C 630.410156 483.933594 634.097656 478.308594 640.136719 482.601562 C 640.136719 482.601562 648.972656 502.40625 650.761719 517.722656 C 651.269531 522.054688 646.375 524.953125 642.796875 522.457031 C 634.433594 516.609375 621.734375 505.253906 616.554688 487.644531 C 616.554688 487.644531 620.335938 481.515625 624.976562 479.226562 L 630.410156 483.933594 " fill-opacity="1" fill-rule="nonzero"/><path fill="#000000" d="M 617.515625 487.785156 C 622.550781 504.453125 634.300781 515.441406 643.304688 521.730469 C 644.675781 522.6875 646.421875 522.746094 647.871094 521.882812 C 649.304688 521.027344 650.074219 519.472656 649.878906 517.828125 C 648.230469 503.6875 640.394531 485.414062 639.425781 483.1875 C 637.816406 482.097656 636.265625 481.683594 634.8125 481.957031 C 632.5 482.390625 631.164062 484.398438 631.148438 484.421875 C 631.007812 484.632812 630.78125 484.777344 630.53125 484.8125 C 630.273438 484.847656 630.023438 484.769531 629.828125 484.605469 L 624.855469 480.292969 C 621.308594 482.292969 618.320312 486.570312 617.515625 487.785156 Z M 645.699219 524.265625 C 644.507812 524.265625 643.324219 523.902344 642.289062 523.183594 C 632.980469 516.679688 620.816406 505.28125 615.699219 487.894531 C 615.632812 487.652344 615.664062 487.394531 615.800781 487.179688 C 615.960938 486.921875 619.769531 480.804688 624.585938 478.433594 C 624.902344 478.277344 625.285156 478.324219 625.558594 478.558594 L 630.292969 482.664062 C 631.054688 481.832031 632.476562 480.59375 634.488281 480.214844 C 636.488281 479.835938 638.5625 480.398438 640.644531 481.882812 C 640.777344 481.972656 640.878906 482.097656 640.941406 482.242188 C 641.027344 482.441406 649.855469 502.347656 651.640625 517.621094 C 651.914062 519.96875 650.820312 522.183594 648.777344 523.40625 C 647.8125 523.980469 646.753906 524.265625 645.699219 524.265625 " fill-opacity="1" fill-rule="nonzero"/><path fill="#ffffff" d="M 647.554688 519.621094 C 647.542969 519.621094 647.53125 519.621094 647.519531 519.621094 C 646.921875 519.601562 632.714844 518.714844 618.707031 489.109375 C 618.496094 488.664062 618.6875 488.136719 619.128906 487.925781 C 619.570312 487.71875 620.101562 487.90625 620.308594 488.351562 C 633.859375 516.996094 647.453125 517.847656 647.589844 517.851562 C 648.074219 517.871094 648.457031 518.285156 648.441406 518.769531 C 648.421875 519.25 648.027344 519.621094 647.554688 519.621094 " fill-opacity="1" fill-rule="nonzero"/><path fill="#000000" d="M 614.050781 466.320312 L 635.820312 465.597656 L 606.128906 348.246094 C 601.375 329.453125 593.660156 311.539062 583.273438 295.167969 L 537.78125 295.140625 C 537.78125 295.140625 520.996094 359.199219 551.765625 464.625 L 574.519531 464.625 C 574.519531 464.625 565.65625 368.441406 566.390625 340.804688 C 566.390625 340.804688 587.777344 419.808594 614.050781 466.320312 " fill-opacity="1" fill-rule="nonzero"/><path fill="#caddff" d="M 568.882812 354.53125 C 568.496094 354.53125 568.136719 354.277344 568.03125 353.886719 L 560.136719 325.8125 L 554.449219 324.078125 C 553.984375 323.933594 553.714844 323.4375 553.859375 322.972656 C 554.003906 322.503906 554.5 322.238281 554.964844 322.382812 L 561.113281 324.261719 C 561.402344 324.347656 561.625 324.574219 561.707031 324.867188 L 569.734375 353.402344 C 569.867188 353.875 569.59375 354.363281 569.121094 354.5 C 569.042969 354.519531 568.960938 354.53125 568.882812 354.53125 " fill-opacity="1" fill-rule="nonzero"/><path fill="#ffffff" d="M 451.941406 219.421875 L 468.75 228.5 C 468.75 228.5 479.058594 255.375 493.808594 256.996094 C 508.5625 258.613281 523.15625 238.207031 523.15625 238.207031 L 532.945312 259.164062 C 532.945312 259.164062 518.570312 281.394531 495.765625 277.8125 C 472.960938 274.226562 466.746094 239.972656 466.746094 239.972656 C 466.757812 240 461.351562 240.507812 459.3125 235.242188 C 457.578125 230.761719 458.304688 228.121094 458.304688 228.121094 C 458.304688 228.121094 450.203125 223.796875 451.941406 219.421875 " fill-opacity="1" fill-rule="nonzero"/><path fill="#000000" d="M 466.746094 239.089844 C 466.792969 239.089844 466.839844 239.097656 466.886719 239.101562 C 467.257812 239.160156 467.550781 239.449219 467.617188 239.816406 C 467.679688 240.152344 473.988281 273.496094 495.898438 276.9375 C 516.214844 280.132812 529.859375 262.023438 531.929688 259.082031 L 522.972656 239.921875 C 519.523438 244.367188 506.84375 259.316406 493.710938 257.878906 C 479.289062 256.296875 469.300781 232.296875 468.042969 229.125 L 452.585938 220.785156 C 452.691406 223.496094 456.894531 226.363281 458.71875 227.339844 C 459.085938 227.535156 459.261719 227.960938 459.15625 228.355469 C 459.152344 228.375 458.546875 230.820312 460.136719 234.925781 C 461.859375 239.378906 466.296875 239.125 466.59375 239.101562 C 466.644531 239.097656 466.695312 239.089844 466.746094 239.089844 Z M 500.667969 279.085938 C 499.035156 279.085938 497.355469 278.960938 495.625 278.6875 C 474.097656 275.304688 467.105469 246.121094 466.023438 240.886719 C 465.792969 240.875 465.523438 240.855469 465.207031 240.8125 C 463.363281 240.578125 460.039062 239.585938 458.484375 235.5625 C 457.167969 232.152344 457.199219 229.714844 457.324219 228.585938 C 455.40625 227.449219 449.382812 223.453125 451.113281 219.101562 C 451.207031 218.863281 451.398438 218.679688 451.636719 218.59375 C 451.871094 218.507812 452.136719 218.527344 452.359375 218.648438 L 469.167969 227.722656 C 469.359375 227.824219 469.503906 227.984375 469.578125 228.1875 C 469.675781 228.449219 479.859375 254.578125 493.90625 256.117188 C 507.949219 257.660156 522.289062 237.898438 522.433594 237.699219 C 522.617188 237.4375 522.925781 237.292969 523.234375 237.332031 C 523.546875 237.359375 523.820312 237.554688 523.953125 237.839844 L 533.746094 258.789062 C 533.875 259.0625 533.851562 259.390625 533.6875 259.640625 C 533.550781 259.855469 520.863281 279.082031 500.667969 279.085938 " fill-opacity="1" fill-rule="nonzero"/><path fill="#000000" d="M 467.226562 238 C 467.140625 238 467.050781 237.988281 466.964844 237.960938 C 466.816406 237.914062 463.28125 236.792969 462.847656 233.648438 C 462.6875 232.476562 461.980469 231.5625 461.414062 231 C 460.480469 230.070312 459.96875 228.835938 459.96875 227.511719 L 459.96875 226.859375 C 459.96875 226.566406 460.117188 226.289062 460.355469 226.128906 C 460.601562 225.960938 460.90625 225.929688 461.183594 226.035156 L 466.851562 228.296875 C 467.308594 228.476562 467.527344 228.996094 467.347656 229.449219 C 467.164062 229.90625 466.652344 230.121094 466.195312 229.941406 L 461.8125 228.195312 C 461.941406 228.78125 462.234375 229.3125 462.664062 229.742188 C 463.421875 230.496094 464.371094 231.746094 464.601562 233.40625 C 464.882812 235.445312 467.460938 236.257812 467.488281 236.265625 C 467.953125 236.410156 468.21875 236.90625 468.074219 237.375 C 467.953125 237.753906 467.605469 238 467.226562 238 " fill-opacity="1" fill-rule="nonzero"/><path fill="#ffffff" d="M 580.683594 260.402344 C 580.683594 260.402344 591.046875 283.722656 607.953125 288.488281 C 624.855469 293.25 636.632812 278.855469 636.558594 263.996094 L 630.808594 262.089844 C 630.808594 262.089844 624.914062 277.320312 611.761719 273.355469 C 598.605469 269.394531 592.503906 238.414062 592.503906 238.414062 L 580.683594 260.402344 " fill-opacity="1" fill-rule="nonzero"/><path fill="#000000" d="M 581.671875 260.429688 C 583.117188 263.472656 593.070312 283.371094 608.195312 287.632812 C 616.585938 289.996094 622.585938 287.265625 626.144531 284.5625 C 631.910156 280.171875 635.519531 272.582031 635.667969 264.632812 L 631.292969 263.179688 C 629.820312 266.332031 623.496094 277.816406 611.507812 274.203125 C 600.027344 270.746094 593.894531 248.375 592.152344 240.941406 Z M 614.449219 290.3125 C 612.386719 290.3125 610.140625 290.023438 607.710938 289.335938 C 590.605469 284.519531 580.300781 261.726562 579.871094 260.761719 C 579.761719 260.507812 579.773438 260.222656 579.902344 259.980469 L 591.722656 237.996094 C 591.898438 237.664062 592.265625 237.484375 592.636719 237.539062 C 593.007812 237.59375 593.300781 237.875 593.371094 238.242188 C 593.433594 238.546875 599.523438 268.742188 612.015625 272.507812 C 624.226562 276.1875 629.753906 262.355469 629.984375 261.769531 C 630.15625 261.328125 630.640625 261.097656 631.089844 261.25 L 636.835938 263.152344 C 637.199219 263.273438 637.445312 263.609375 637.445312 263.988281 C 637.488281 272.714844 633.570312 281.136719 627.214844 285.96875 C 624.375 288.132812 620.109375 290.3125 614.449219 290.3125 " fill-opacity="1" fill-rule="nonzero"/><path fill="#caddff" d="M 518.015625 237.894531 C 518.015625 237.894531 528.414062 224.328125 557.78125 226.867188 C 592.847656 229.890625 595.523438 236.820312 595.523438 236.820312 L 586.371094 255.367188 L 597.109375 302.183594 C 597.109375 302.183594 589.773438 308.265625 572.574219 304.851562 C 555.382812 301.4375 525.835938 297.25 518.023438 299.605469 L 528.914062 254.933594 L 518.015625 237.894531 " fill-opacity="1" fill-rule="nonzero"/><path fill="#000000" d="M 525.183594 298.046875 C 537.289062 298.046875 558.429688 301.140625 572.75 303.984375 C 587.070312 306.828125 594.347656 302.957031 596.113281 301.808594 L 585.503906 255.570312 C 585.457031 255.371094 585.484375 255.160156 585.574219 254.980469 L 594.507812 236.882812 C 593.445312 235.652344 587.230469 230.296875 557.703125 227.75 C 532.226562 225.550781 521.261719 235.675781 519.117188 237.980469 L 529.660156 254.457031 C 529.792969 254.660156 529.832031 254.910156 529.769531 255.144531 L 519.21875 298.433594 C 520.777344 298.167969 522.808594 298.046875 525.183594 298.046875 Z M 582.535156 306.785156 C 579.621094 306.785156 576.253906 306.484375 572.402344 305.71875 C 554.992188 302.261719 525.75 298.203125 518.277344 300.457031 C 517.972656 300.550781 517.644531 300.46875 517.410156 300.25 C 517.179688 300.03125 517.085938 299.707031 517.160156 299.398438 L 527.964844 255.09375 L 517.273438 238.375 C 517.070312 238.058594 517.085938 237.65625 517.3125 237.359375 C 517.75 236.789062 528.339844 223.429688 557.855469 225.984375 C 592.476562 228.96875 596.054688 235.738281 596.347656 236.5 C 596.4375 236.738281 596.429688 236.992188 596.316406 237.214844 L 587.300781 255.480469 L 597.972656 301.988281 C 598.050781 302.3125 597.933594 302.65625 597.675781 302.867188 C 597.429688 303.070312 592.792969 306.78125 582.535156 306.785156 " fill-opacity="1" fill-rule="nonzero"/><path fill="#caddff" d="M 627.785156 280.070312 L 585.929688 281.761719 C 584.515625 281.761719 583.644531 280.207031 584.382812 279.003906 L 611.492188 229.472656 C 612.011719 228.625 612.925781 228.113281 613.921875 228.113281 L 656.230469 229.078125 L 627.785156 280.070312 " fill-opacity="1" fill-rule="nonzero"/><path fill="#caddff" d="M 630.800781 281.757812 L 585.621094 281.757812 L 615.253906 228.109375 L 660.433594 228.109375 L 630.800781 281.757812 " fill-opacity="1" fill-rule="nonzero"/><path fill="#000000" d="M 587.121094 280.871094 L 630.277344 280.871094 L 658.933594 229 L 615.773438 229 Z M 630.796875 282.644531 L 585.621094 282.644531 C 585.308594 282.644531 585.015625 282.480469 584.859375 282.210938 C 584.695312 281.9375 584.695312 281.605469 584.84375 281.332031 L 614.476562 227.679688 C 614.636719 227.402344 614.929688 227.222656 615.25 227.222656 L 660.433594 227.222656 C 660.746094 227.222656 661.039062 227.390625 661.195312 227.660156 C 661.355469 227.929688 661.359375 228.265625 661.210938 228.539062 L 631.574219 282.1875 C 631.417969 282.472656 631.121094 282.644531 630.796875 282.644531 " fill-opacity="1" fill-rule="nonzero"/><path fill="#ffffff" d="M 631.835938 280.070312 C 631.835938 280.070312 630.988281 275.621094 631.835938 272.652344 C 632.6875 269.6875 637.949219 260.859375 639.453125 259.011719 C 640.957031 257.164062 642.234375 276.886719 631.835938 280.070312 " fill-opacity="1" fill-rule="nonzero"/><path fill="#000000" d="M 639.410156 260.574219 C 637.402344 263.523438 633.390625 270.464844 632.691406 272.894531 C 632.152344 274.792969 632.367188 277.417969 632.554688 278.855469 C 634.964844 277.769531 636.816406 275.519531 638.0625 272.15625 C 639.738281 267.628906 639.722656 262.71875 639.410156 260.574219 Z M 631.839844 280.953125 C 631.683594 280.953125 631.527344 280.910156 631.382812 280.828125 C 631.167969 280.695312 631.015625 280.480469 630.96875 280.234375 C 630.933594 280.042969 630.089844 275.542969 630.988281 272.40625 C 631.851562 269.390625 637.164062 260.421875 638.769531 258.449219 C 639.164062 257.972656 639.675781 257.9375 640.023438 258.066406 C 641.242188 258.519531 641.410156 261.554688 641.335938 264.023438 C 641.132812 270.882812 638.597656 278.925781 632.101562 280.914062 C 632.015625 280.941406 631.925781 280.953125 631.839844 280.953125 " fill-opacity="1" fill-rule="nonzero"/><path fill="#000000" d="M 473.28125 184.890625 C 467.582031 188.359375 466.6875 194.984375 466.621094 195.535156 C 465.730469 203.054688 471.078125 210.828125 476.917969 211.992188 C 481.914062 212.984375 483.644531 208.417969 489.921875 208.714844 C 496.917969 209.042969 497.605469 214.859375 504.273438 216.324219 C 514.105469 218.488281 518.121094 207.050781 529.414062 207.847656 C 538.109375 208.464844 539.246094 215.484375 548.71875 215.574219 C 549.792969 215.582031 558.28125 215.527344 563.9375 208.945312 C 569.609375 202.355469 569.742188 192.351562 565.535156 185.6875 C 565.101562 185.003906 560.484375 177.882812 554.359375 178.058594 C 550.527344 178.164062 549.757812 181.042969 546.105469 180.976562 C 540.480469 180.878906 539.355469 174.023438 534.429688 173.734375 C 528.742188 173.402344 527.476562 182.398438 519.816406 183.671875 C 514.035156 184.628906 512.398438 179.902344 506.191406 180.992188 C 499.757812 182.125 499.441406 187.570312 493.984375 187.742188 C 488.757812 187.90625 487.320312 182.96875 480.550781 182.929688 C 479.121094 182.921875 476.191406 183.121094 473.28125 184.890625 " fill-opacity="1" fill-rule="nonzero"/><path fill="#ffffff" d="M 576.429688 211.765625 C 576.824219 211.148438 574.96875 207.804688 574.90625 206.582031 C 574.84375 205.367188 575.792969 204.34375 576.191406 203.0625 C 576.589844 201.785156 576.144531 199.507812 576.144531 199.507812 C 575.601562 184.242188 558.972656 187.867188 558.972656 187.867188 C 555.15625 189.023438 552.90625 193.308594 552.171875 196.164062 C 550.746094 201.683594 553.367188 208.363281 553.367188 208.363281 C 553.261719 208.613281 550.53125 226.488281 550.414062 226.71875 C 548.683594 230.035156 560.261719 232.210938 563.90625 228.867188 C 565.136719 227.738281 563.558594 219.433594 563.90625 219.425781 C 565.269531 219.390625 566.945312 220.851562 568.664062 220.394531 C 571.195312 219.722656 573.101562 213.378906 573.464844 212.910156 C 573.636719 212.683594 574.226562 212.554688 574.839844 212.414062 C 575.519531 212.257812 576.226562 212.089844 576.429688 211.765625 " fill-opacity="1" fill-rule="nonzero"/><path fill="#000000" d="M 576.433594 211.765625 L 576.4375 211.765625 Z M 554.21875 208.609375 C 554.121094 209.074219 553.441406 213.390625 552.84375 217.199219 C 551.324219 226.878906 551.3125 226.910156 551.199219 227.128906 C 551.113281 227.28125 550.960938 227.574219 551.644531 228.097656 C 553.875 229.808594 560.84375 230.476562 563.308594 228.214844 C 563.769531 227.53125 563.316406 223.332031 563.148438 221.75 C 562.917969 219.578125 562.878906 219.242188 563.222656 218.851562 C 563.382812 218.664062 563.632812 218.546875 563.882812 218.542969 C 564.625 218.5 565.363281 218.808594 566.070312 219.089844 C 566.914062 219.421875 567.714844 219.734375 568.433594 219.539062 C 569.988281 219.128906 571.589844 215.113281 572.195312 213.601562 C 572.511719 212.816406 572.617188 212.558594 572.761719 212.371094 C 573.125 211.898438 573.769531 211.75 574.59375 211.5625 C 574.863281 211.5 575.308594 211.398438 575.566406 211.300781 C 575.460938 210.84375 575.109375 209.960938 574.882812 209.394531 C 574.457031 208.328125 574.054688 207.324219 574.019531 206.632812 C 573.964844 205.636719 574.386719 204.820312 574.796875 204.03125 C 575.011719 203.613281 575.214844 203.214844 575.347656 202.800781 C 575.617188 201.933594 575.378906 200.210938 575.277344 199.679688 C 575.269531 199.632812 575.261719 199.585938 575.261719 199.542969 C 575.117188 195.597656 573.835938 192.65625 571.445312 190.796875 C 566.910156 187.265625 559.730469 188.617188 559.191406 188.726562 C 555.597656 189.835938 553.625 194.058594 553.027344 196.386719 C 551.691406 201.554688 554.167969 207.976562 554.195312 208.039062 C 554.265625 208.222656 554.277344 208.421875 554.21875 208.609375 Z M 558.042969 231.429688 C 555.085938 231.429688 552.074219 230.660156 550.566406 229.503906 C 549.421875 228.625 549.0625 227.503906 549.574219 226.417969 C 549.71875 225.695312 550.476562 220.847656 551.09375 216.929688 C 552.015625 211.050781 552.324219 209.128906 552.453125 208.4375 C 551.976562 207.132812 549.972656 201.132812 551.3125 195.941406 C 552.003906 193.25 554.34375 188.34375 558.714844 187.019531 C 558.734375 187.011719 558.761719 187.007812 558.78125 187 C 559.121094 186.929688 567.175781 185.238281 572.527344 189.394531 C 575.335938 191.578125 576.855469 194.949219 577.027344 199.410156 C 577.113281 199.875 577.460938 201.96875 577.035156 203.328125 C 576.863281 203.886719 576.597656 204.398438 576.371094 204.84375 C 576.042969 205.476562 575.761719 206.023438 575.789062 206.535156 C 575.808594 206.9375 576.207031 207.9375 576.527344 208.742188 C 577.277344 210.617188 577.617188 211.550781 577.179688 212.242188 C 576.773438 212.878906 575.890625 213.078125 575.039062 213.277344 C 574.726562 213.347656 574.339844 213.4375 574.148438 213.511719 C 574.074219 213.679688 573.949219 213.980469 573.839844 214.257812 C 572.953125 216.476562 571.300781 220.613281 568.886719 221.257812 C 567.601562 221.589844 566.394531 221.117188 565.425781 220.738281 C 565.207031 220.652344 565 220.570312 564.796875 220.5 C 564.832031 220.828125 564.871094 221.203125 564.910156 221.558594 C 565.410156 226.242188 565.480469 228.625 564.503906 229.519531 C 563.03125 230.871094 560.554688 231.425781 558.042969 231.429688 " fill-opacity="1" fill-rule="nonzero"/><path fill="#000000" d="M 583.097656 188.863281 C 581.425781 187.171875 579.726562 188.863281 573.082031 187.933594 C 567.558594 187.152344 565.964844 185.59375 561.785156 186.285156 C 560.605469 186.480469 558.503906 186.828125 556.433594 188.34375 C 553.363281 190.589844 552.21875 193.746094 551.613281 196.097656 C 550.429688 200.695312 551.910156 206.046875 552.578125 208.074219 C 552.742188 208.574219 553.230469 208.890625 553.75 208.84375 C 555.144531 208.730469 556.378906 208.542969 557.480469 208.308594 C 558.003906 208.195312 558.300781 207.644531 558.097656 207.152344 C 558.046875 207.015625 557.996094 206.875 557.953125 206.730469 C 557.402344 204.792969 558.332031 202.832031 560.027344 202.347656 C 561.722656 201.863281 563.542969 203.042969 564.097656 204.980469 C 564.132812 205.113281 564.164062 205.25 564.1875 205.382812 C 566.625 203.539062 567.878906 201.445312 570.136719 200.320312 C 570.40625 200.1875 571.597656 199.644531 573.398438 199.578125 C 577.320312 199.441406 578.625 201.765625 580.480469 201.316406 C 583.71875 200.53125 586.101562 191.910156 583.097656 188.863281 " fill-opacity="1" fill-rule="nonzero"/><path fill="#000000" d="M 564.304688 220.308594 C 564.21875 220.308594 564.125 220.296875 564.039062 220.269531 C 557.886719 218.332031 556.933594 214.222656 556.894531 214.050781 C 556.792969 213.574219 557.09375 213.101562 557.574219 213 C 558.050781 212.894531 558.519531 213.195312 558.625 213.671875 C 558.660156 213.820312 559.472656 216.976562 564.570312 218.582031 C 565.039062 218.726562 565.296875 219.226562 565.148438 219.6875 C 565.03125 220.070312 564.683594 220.308594 564.304688 220.308594 " fill-opacity="1" fill-rule="nonzero"/><path fill="#caddff" d="M 209.570312 142.523438 C 199.144531 128.757812 201.855469 109.144531 215.621094 98.722656 C 229.386719 88.300781 248.996094 91.007812 259.417969 104.777344 C 269.839844 118.539062 267.132812 138.148438 253.367188 148.574219 C 239.601562 158.996094 219.992188 156.285156 209.570312 142.523438 Z M 267.578125 177.402344 L 277.261719 170.070312 L 271.777344 157.988281 C 273.714844 155.890625 275.457031 153.664062 276.984375 151.320312 L 290.023438 153.65625 L 294.742188 142.464844 L 283.953125 134.746094 C 284.566406 131.988281 284.953125 129.191406 285.109375 126.375 L 297.585938 121.871094 L 296.078125 109.816406 L 282.894531 108.53125 C 282.0625 105.863281 280.988281 103.242188 279.691406 100.699219 L 288.246094 90.558594 L 280.914062 80.878906 L 268.835938 86.363281 C 266.738281 84.425781 264.507812 82.683594 262.164062 81.160156 L 264.503906 68.117188 L 253.3125 63.398438 L 245.59375 74.1875 C 242.839844 73.574219 240.039062 73.1875 237.21875 73.035156 L 232.714844 60.554688 L 220.667969 62.0625 L 219.378906 75.246094 C 216.710938 76.082031 214.089844 77.152344 211.546875 78.449219 L 201.40625 69.894531 L 191.726562 77.226562 L 197.210938 89.304688 C 195.273438 91.402344 193.53125 93.632812 192.003906 95.976562 L 178.964844 93.640625 L 174.246094 104.828125 L 185.035156 112.550781 C 184.417969 115.300781 184.03125 118.105469 183.878906 120.917969 L 171.398438 125.425781 L 172.910156 137.472656 L 186.09375 138.761719 C 186.925781 141.429688 188 144.050781 189.296875 146.597656 L 180.742188 156.734375 L 188.074219 166.414062 L 200.152344 160.929688 C 202.25 162.871094 204.480469 164.613281 206.820312 166.136719 L 204.488281 179.175781 L 215.675781 183.898438 L 223.394531 173.105469 C 226.148438 173.722656 228.949219 174.109375 231.765625 174.261719 L 236.273438 186.742188 L 248.320312 185.230469 L 249.609375 172.050781 C 252.277344 171.214844 254.894531 170.144531 257.441406 168.847656 L 267.578125 177.402344 " fill-opacity="1" fill-rule="nonzero"/><path fill="#000000" d="M 211.09375 136.070312 C 215.992188 142.539062 223.117188 146.710938 231.152344 147.824219 C 239.191406 148.933594 247.179688 146.847656 253.648438 141.949219 C 260.117188 137.050781 264.292969 129.925781 265.402344 121.886719 C 266.511719 113.851562 264.425781 105.863281 259.527344 99.394531 C 254.628906 92.921875 247.507812 88.75 239.46875 87.640625 C 231.429688 86.527344 223.441406 88.617188 216.972656 93.515625 C 203.617188 103.625 200.980469 122.714844 211.09375 136.070312 Z M 235.378906 149.886719 C 233.898438 149.886719 232.402344 149.78125 230.910156 149.582031 C 222.40625 148.40625 214.867188 143.988281 209.679688 137.140625 C 198.980469 123.007812 201.769531 102.804688 215.902344 92.101562 C 222.75 86.917969 231.203125 84.710938 239.710938 85.886719 C 248.21875 87.0625 255.757812 91.480469 260.941406 98.324219 C 266.125 105.167969 268.332031 113.625 267.15625 122.132812 C 265.980469 130.636719 261.5625 138.175781 254.71875 143.359375 C 249.074219 147.632812 242.335938 149.886719 235.378906 149.886719 Z M 224.210938 166.300781 C 224.277344 166.300781 224.339844 166.308594 224.40625 166.324219 C 227.101562 166.925781 229.867188 167.308594 232.632812 167.460938 C 232.988281 167.480469 233.296875 167.710938 233.417969 168.046875 L 237.679688 179.855469 L 248.324219 178.523438 L 249.542969 166.042969 C 249.578125 165.691406 249.824219 165.390625 250.164062 165.285156 C 252.765625 164.472656 255.355469 163.414062 257.855469 162.140625 C 258.175781 161.976562 258.558594 162.019531 258.828125 162.253906 L 268.425781 170.347656 L 276.980469 163.875 L 271.789062 152.441406 C 271.640625 152.117188 271.703125 151.734375 271.941406 151.472656 C 273.847656 149.410156 275.570312 147.203125 277.058594 144.921875 C 277.25 144.621094 277.605469 144.472656 277.957031 144.53125 L 290.296875 146.742188 L 294.46875 136.855469 L 284.253906 129.550781 C 283.964844 129.339844 283.824219 128.984375 283.902344 128.636719 C 284.507812 125.9375 284.890625 123.171875 285.039062 120.410156 C 285.058594 120.054688 285.289062 119.746094 285.621094 119.625 L 297.4375 115.363281 L 296.105469 104.714844 L 283.625 103.5 C 283.269531 103.464844 282.96875 103.21875 282.863281 102.878906 C 282.050781 100.273438 280.992188 97.683594 279.71875 95.1875 C 279.558594 94.867188 279.601562 94.484375 279.832031 94.210938 L 287.929688 84.617188 L 281.453125 76.0625 L 270.019531 81.253906 C 269.695312 81.402344 269.3125 81.339844 269.050781 81.101562 C 266.992188 79.195312 264.785156 77.472656 262.5 75.984375 C 262.199219 75.792969 262.046875 75.4375 262.109375 75.085938 L 264.320312 62.746094 L 254.4375 58.574219 L 247.128906 68.789062 C 246.921875 69.078125 246.5625 69.214844 246.214844 69.140625 C 243.515625 68.535156 240.75 68.152344 237.988281 68.003906 C 237.632812 67.980469 237.324219 67.753906 237.203125 67.417969 L 232.941406 55.605469 L 222.296875 56.9375 L 221.078125 69.417969 C 221.042969 69.773438 220.800781 70.070312 220.460938 70.175781 C 217.855469 70.988281 215.265625 72.046875 212.765625 73.324219 C 212.449219 73.484375 212.0625 73.441406 211.792969 73.210938 L 202.195312 65.113281 L 193.640625 71.589844 L 198.832031 83.023438 C 198.980469 83.34375 198.917969 83.726562 198.679688 83.988281 C 196.773438 86.054688 195.050781 88.257812 193.566406 90.542969 C 193.371094 90.839844 193.015625 90.992188 192.667969 90.933594 L 180.320312 88.722656 L 176.152344 98.605469 L 186.367188 105.910156 C 186.65625 106.121094 186.792969 106.480469 186.71875 106.824219 C 186.113281 109.527344 185.730469 112.292969 185.582031 115.050781 C 185.5625 115.40625 185.332031 115.71875 184.996094 115.835938 L 173.183594 120.101562 L 174.515625 130.746094 L 186.996094 131.964844 C 187.351562 132 187.652344 132.242188 187.757812 132.582031 C 188.570312 135.1875 189.628906 137.773438 190.902344 140.277344 C 191.0625 140.59375 191.019531 140.976562 190.789062 141.25 L 182.691406 150.847656 L 189.167969 159.402344 L 200.601562 154.207031 C 200.925781 154.058594 201.308594 154.121094 201.570312 154.363281 C 203.632812 156.269531 205.839844 157.992188 208.121094 159.476562 C 208.421875 159.671875 208.574219 160.023438 208.511719 160.378906 L 206.300781 172.71875 L 216.183594 176.886719 L 223.492188 166.671875 C 223.660156 166.4375 223.929688 166.300781 224.210938 166.300781 Z M 237.085938 181.710938 C 236.71875 181.710938 236.382812 181.480469 236.253906 181.125 L 231.949219 169.195312 C 229.480469 169.03125 227.007812 168.691406 224.59375 168.179688 L 217.214844 178.496094 C 216.972656 178.832031 216.53125 178.957031 216.148438 178.796875 L 204.960938 174.074219 C 204.578125 173.917969 204.359375 173.511719 204.433594 173.105469 L 206.664062 160.640625 C 204.632812 159.28125 202.664062 157.746094 200.800781 156.0625 L 189.257812 161.308594 C 188.878906 161.476562 188.433594 161.367188 188.183594 161.035156 L 180.851562 151.355469 C 180.601562 151.023438 180.613281 150.5625 180.882812 150.246094 L 189.058594 140.554688 C 187.945312 138.308594 187.003906 136 186.246094 133.671875 L 173.640625 132.441406 C 173.226562 132.402344 172.898438 132.082031 172.847656 131.667969 L 171.339844 119.617188 C 171.289062 119.210938 171.527344 118.816406 171.917969 118.675781 L 183.847656 114.367188 C 184.011719 111.902344 184.351562 109.433594 184.863281 107.015625 L 174.546875 99.632812 C 174.210938 99.394531 174.085938 98.953125 174.246094 98.570312 L 178.964844 87.382812 C 179.125 87 179.53125 86.78125 179.9375 86.851562 L 192.402344 89.085938 C 193.761719 87.050781 195.296875 85.085938 196.980469 83.222656 L 191.738281 71.675781 C 191.566406 71.300781 191.679688 70.855469 192.007812 70.605469 L 201.691406 63.273438 C 202.019531 63.023438 202.480469 63.035156 202.796875 63.300781 L 212.488281 71.480469 C 214.734375 70.367188 217.042969 69.421875 219.371094 68.664062 L 220.601562 56.0625 C 220.640625 55.648438 220.960938 55.320312 221.371094 55.269531 L 233.421875 53.757812 C 233.832031 53.707031 234.226562 53.949219 234.367188 54.335938 L 238.671875 66.269531 C 241.140625 66.429688 243.609375 66.769531 246.027344 67.28125 L 253.40625 56.96875 C 253.648438 56.632812 254.089844 56.503906 254.472656 56.667969 L 265.664062 61.386719 C 266.042969 61.546875 266.261719 61.949219 266.191406 62.359375 L 263.957031 74.828125 C 265.992188 76.1875 267.960938 77.71875 269.820312 79.402344 L 281.363281 74.15625 C 281.742188 73.988281 282.1875 74.097656 282.4375 74.429688 L 289.769531 84.113281 C 290.019531 84.441406 290.007812 84.898438 289.738281 85.21875 L 281.5625 94.90625 C 282.675781 97.152344 283.617188 99.460938 284.378906 101.789062 L 296.980469 103.019531 C 297.394531 103.0625 297.722656 103.382812 297.773438 103.792969 L 299.28125 115.84375 C 299.335938 116.257812 299.09375 116.644531 298.703125 116.785156 L 286.773438 121.09375 C 286.609375 123.558594 286.269531 126.03125 285.757812 128.445312 L 296.074219 135.828125 C 296.410156 136.070312 296.535156 136.511719 296.375 136.894531 L 291.65625 148.085938 C 291.496094 148.464844 291.09375 148.683594 290.683594 148.609375 L 278.21875 146.378906 C 276.859375 148.410156 275.324219 150.378906 273.644531 152.242188 L 278.886719 163.785156 C 279.054688 164.164062 278.941406 164.605469 278.613281 164.859375 L 268.929688 172.191406 C 268.601562 172.4375 268.144531 172.429688 267.824219 172.160156 L 258.132812 163.984375 C 255.886719 165.09375 253.578125 166.039062 251.25 166.796875 L 250.019531 179.40625 C 249.980469 179.816406 249.660156 180.144531 249.25 180.195312 L 237.199219 181.703125 C 237.160156 181.707031 237.125 181.710938 237.085938 181.710938 " fill-opacity="1" fill-rule="nonzero"/><path fill="#ffffff" d="M 308.933594 77.964844 C 304.28125 71.816406 305.488281 63.0625 311.636719 58.40625 C 317.785156 53.75 326.542969 54.957031 331.199219 61.105469 C 335.855469 67.253906 334.644531 76.011719 328.496094 80.667969 C 322.347656 85.324219 313.589844 84.113281 308.933594 77.964844 Z M 334.84375 93.542969 L 339.167969 90.265625 L 336.71875 84.875 C 337.582031 83.9375 338.359375 82.941406 339.042969 81.894531 L 344.867188 82.9375 L 346.972656 77.9375 L 342.15625 74.492188 C 342.429688 73.261719 342.601562 72.011719 342.671875 70.75 L 348.246094 68.742188 L 347.570312 63.359375 L 341.683594 62.78125 C 341.308594 61.59375 340.832031 60.421875 340.253906 59.289062 L 344.074219 54.757812 L 340.796875 50.4375 L 335.40625 52.882812 C 334.464844 52.015625 333.472656 51.242188 332.425781 50.558594 L 333.46875 44.734375 L 328.46875 42.628906 L 325.023438 47.445312 C 323.792969 47.171875 322.542969 47 321.285156 46.929688 L 319.273438 41.355469 L 313.890625 42.03125 L 313.316406 47.921875 C 312.125 48.292969 310.953125 48.769531 309.816406 49.351562 L 305.289062 45.527344 L 300.964844 48.800781 L 303.414062 54.195312 C 302.550781 55.132812 301.773438 56.132812 301.089844 57.175781 L 295.265625 56.136719 L 293.15625 61.132812 L 297.976562 64.578125 C 297.703125 65.808594 297.53125 67.058594 297.460938 68.316406 L 291.886719 70.332031 L 292.5625 75.710938 L 298.449219 76.285156 C 298.824219 77.476562 299.300781 78.648438 299.878906 79.78125 L 296.058594 84.3125 L 299.335938 88.636719 L 304.726562 86.1875 C 305.664062 87.050781 306.660156 87.828125 307.707031 88.511719 L 306.664062 94.335938 L 311.664062 96.445312 L 315.109375 91.625 C 316.339844 91.898438 317.589844 92.074219 318.847656 92.140625 L 320.859375 97.710938 L 326.242188 97.042969 L 326.816406 91.152344 C 328.007812 90.78125 329.179688 90.296875 330.316406 89.722656 L 334.84375 93.542969 " fill-opacity="1" fill-rule="nonzero"/><path fill="#caddff" d="M 309.300781 75.320312 C 304.644531 69.171875 305.855469 60.414062 312.003906 55.757812 C 318.152344 51.105469 326.910156 52.3125 331.5625 58.460938 C 336.21875 64.609375 335.007812 73.367188 328.859375 78.023438 C 322.714844 82.675781 313.957031 81.464844 309.300781 75.320312 Z M 335.210938 90.898438 L 339.53125 87.621094 L 337.082031 82.230469 C 337.949219 81.289062 338.726562 80.292969 339.410156 79.25 L 345.234375 80.289062 L 347.339844 75.296875 L 342.519531 71.847656 C 342.796875 70.617188 342.96875 69.367188 343.039062 68.109375 L 348.609375 66.097656 L 347.9375 60.714844 L 342.046875 60.136719 C 341.675781 58.949219 341.199219 57.777344 340.617188 56.640625 L 344.4375 52.113281 L 341.164062 47.789062 L 335.769531 50.242188 C 334.832031 49.371094 333.835938 48.597656 332.792969 47.914062 L 333.835938 42.089844 L 328.835938 39.984375 L 325.390625 44.800781 C 324.160156 44.523438 322.90625 44.351562 321.648438 44.285156 L 319.636719 38.710938 L 314.253906 39.386719 L 313.683594 45.273438 C 312.488281 45.648438 311.320312 46.125 310.183594 46.703125 L 305.65625 42.882812 L 301.332031 46.160156 L 303.78125 51.554688 C 302.914062 52.488281 302.136719 53.484375 301.457031 54.53125 L 295.632812 53.488281 L 293.523438 58.484375 L 298.34375 61.933594 C 298.066406 63.164062 297.894531 64.414062 297.828125 65.671875 L 292.253906 67.683594 L 292.925781 73.066406 L 298.816406 73.640625 C 299.1875 74.832031 299.667969 76.003906 300.246094 77.140625 L 296.425781 81.667969 L 299.699219 85.992188 L 305.09375 83.542969 C 306.03125 84.40625 307.027344 85.1875 308.074219 85.867188 L 307.03125 91.691406 L 312.027344 93.800781 L 315.476562 88.976562 C 316.707031 89.253906 317.957031 89.425781 319.214844 89.496094 L 321.226562 95.070312 L 326.609375 94.394531 L 327.183594 88.507812 C 328.375 88.132812 329.542969 87.652344 330.679688 87.074219 L 335.210938 90.898438 " fill-opacity="1" fill-rule="nonzero"/><path fill="#000000" d="M 310.007812 74.78125 C 312.117188 77.566406 315.183594 79.363281 318.644531 79.839844 C 322.105469 80.320312 325.542969 79.421875 328.328125 77.3125 C 331.113281 75.207031 332.910156 72.136719 333.386719 68.675781 C 333.867188 65.21875 332.96875 61.777344 330.859375 58.992188 C 326.503906 53.246094 318.289062 52.109375 312.539062 56.464844 C 309.753906 58.570312 307.957031 61.636719 307.480469 65.097656 C 307 68.558594 307.898438 72 310.007812 74.78125 Z M 320.464844 81.742188 C 319.78125 81.742188 319.089844 81.691406 318.402344 81.59375 C 314.472656 81.054688 310.988281 79.015625 308.597656 75.851562 C 306.203125 72.6875 305.179688 68.785156 305.726562 64.859375 C 306.269531 60.925781 308.308594 57.445312 311.46875 55.050781 C 317.996094 50.105469 327.328125 51.398438 332.273438 57.925781 C 334.664062 61.085938 335.683594 64.992188 335.140625 68.917969 C 334.597656 72.847656 332.558594 76.332031 329.398438 78.722656 C 326.789062 80.699219 323.679688 81.742188 320.464844 81.742188 Z M 315.476562 88.089844 C 315.539062 88.089844 315.605469 88.097656 315.667969 88.113281 C 316.851562 88.375 318.058594 88.542969 319.261719 88.609375 C 319.617188 88.628906 319.925781 88.859375 320.046875 89.191406 L 321.820312 94.101562 L 325.796875 93.601562 L 326.304688 88.417969 C 326.335938 88.0625 326.578125 87.765625 326.921875 87.660156 C 328.058594 87.304688 329.1875 86.84375 330.28125 86.285156 C 330.597656 86.125 330.980469 86.167969 331.253906 86.398438 L 335.242188 89.757812 L 338.433594 87.339844 L 336.277344 82.59375 C 336.132812 82.265625 336.191406 81.890625 336.433594 81.625 C 337.265625 80.722656 338.015625 79.757812 338.667969 78.761719 C 338.863281 78.464844 339.214844 78.3125 339.566406 78.375 L 344.691406 79.292969 L 346.25 75.597656 L 342.007812 72.566406 C 341.71875 72.355469 341.578125 72 341.65625 71.648438 C 341.921875 70.472656 342.089844 69.261719 342.152344 68.058594 C 342.171875 67.703125 342.402344 67.394531 342.738281 67.273438 L 347.644531 65.5 L 347.148438 61.523438 L 341.964844 61.019531 C 341.609375 60.984375 341.3125 60.742188 341.203125 60.402344 C 340.847656 59.265625 340.386719 58.132812 339.828125 57.039062 C 339.667969 56.722656 339.710938 56.339844 339.941406 56.066406 L 343.304688 52.078125 L 340.886719 48.886719 L 336.136719 51.042969 C 335.8125 51.1875 335.433594 51.128906 335.171875 50.886719 C 334.269531 50.054688 333.308594 49.304688 332.308594 48.652344 C 332.011719 48.460938 331.859375 48.105469 331.921875 47.757812 L 332.839844 42.628906 L 329.144531 41.070312 L 326.109375 45.316406 C 325.902344 45.601562 325.542969 45.742188 325.195312 45.664062 C 324.019531 45.402344 322.808594 45.230469 321.601562 45.167969 C 321.25 45.148438 320.9375 44.917969 320.820312 44.582031 L 319.046875 39.675781 L 315.070312 40.175781 L 314.5625 45.359375 C 314.53125 45.710938 314.285156 46.011719 313.945312 46.121094 C 312.808594 46.472656 311.679688 46.933594 310.585938 47.492188 C 310.269531 47.652344 309.882812 47.605469 309.613281 47.378906 L 305.625 44.015625 L 302.429688 46.433594 L 304.589844 51.183594 C 304.734375 51.507812 304.675781 51.890625 304.433594 52.152344 C 303.601562 53.050781 302.847656 54.015625 302.199219 55.011719 C 302.003906 55.3125 301.652344 55.464844 301.300781 55.398438 L 296.175781 54.480469 L 294.617188 58.175781 L 298.859375 61.210938 C 299.148438 61.417969 299.285156 61.777344 299.210938 62.125 C 298.945312 63.304688 298.777344 64.515625 298.710938 65.71875 C 298.691406 66.074219 298.464844 66.382812 298.128906 66.5 L 293.222656 68.273438 L 293.71875 72.25 L 298.902344 72.753906 C 299.257812 72.792969 299.554688 73.035156 299.664062 73.375 C 300.015625 74.507812 300.480469 75.640625 301.035156 76.734375 C 301.199219 77.050781 301.152344 77.433594 300.925781 77.707031 L 297.5625 81.695312 L 299.980469 84.890625 L 304.730469 82.734375 C 305.054688 82.585938 305.433594 82.644531 305.695312 82.890625 C 306.597656 83.71875 307.558594 84.472656 308.558594 85.121094 C 308.855469 85.316406 309.007812 85.667969 308.945312 86.023438 L 308.027344 91.148438 L 311.722656 92.703125 L 314.753906 88.460938 C 314.925781 88.226562 315.195312 88.089844 315.476562 88.089844 Z M 321.226562 95.953125 C 320.855469 95.953125 320.523438 95.71875 320.394531 95.367188 L 318.578125 90.339844 C 317.667969 90.265625 316.757812 90.140625 315.859375 89.964844 L 312.75 94.3125 C 312.507812 94.648438 312.066406 94.777344 311.683594 94.609375 L 306.6875 92.503906 C 306.304688 92.34375 306.085938 91.941406 306.160156 91.53125 L 307.101562 86.277344 C 306.351562 85.765625 305.628906 85.195312 304.933594 84.585938 L 300.066406 86.796875 C 299.691406 86.964844 299.246094 86.851562 298.996094 86.523438 L 295.71875 82.199219 C 295.472656 81.867188 295.484375 81.410156 295.75 81.09375 L 299.195312 77.007812 C 298.796875 76.175781 298.449219 75.324219 298.15625 74.464844 L 292.84375 73.945312 C 292.429688 73.90625 292.101562 73.582031 292.050781 73.171875 L 291.375 67.792969 C 291.324219 67.382812 291.5625 66.988281 291.953125 66.847656 L 296.984375 65.035156 C 297.054688 64.121094 297.179688 63.214844 297.359375 62.316406 L 293.011719 59.203125 C 292.671875 58.964844 292.546875 58.523438 292.710938 58.140625 L 294.816406 53.140625 C 294.976562 52.761719 295.378906 52.542969 295.789062 52.613281 L 301.042969 53.554688 C 301.558594 52.808594 302.125 52.082031 302.734375 51.386719 L 300.527344 46.523438 C 300.355469 46.144531 300.46875 45.699219 300.796875 45.449219 L 305.121094 42.175781 C 305.453125 41.925781 305.910156 41.9375 306.226562 42.203125 L 310.3125 45.652344 C 311.148438 45.253906 312 44.902344 312.859375 44.609375 L 313.375 39.296875 C 313.417969 38.886719 313.734375 38.554688 314.148438 38.503906 L 319.527344 37.832031 C 319.941406 37.777344 320.332031 38.019531 320.472656 38.40625 L 322.289062 43.4375 C 323.199219 43.511719 324.109375 43.636719 325.007812 43.8125 L 328.117188 39.464844 C 328.359375 39.128906 328.800781 39 329.179688 39.164062 L 334.179688 41.273438 C 334.5625 41.433594 334.78125 41.835938 334.707031 42.242188 L 333.765625 47.496094 C 334.511719 48.015625 335.238281 48.578125 335.933594 49.191406 L 340.800781 46.980469 C 341.175781 46.8125 341.621094 46.921875 341.871094 47.253906 L 345.144531 51.578125 C 345.394531 51.90625 345.382812 52.367188 345.117188 52.679688 L 341.671875 56.769531 C 342.070312 57.597656 342.417969 58.449219 342.710938 59.308594 L 348.023438 59.832031 C 348.4375 59.867188 348.765625 60.191406 348.816406 60.601562 L 349.492188 65.980469 C 349.542969 66.394531 349.304688 66.789062 348.914062 66.925781 L 343.882812 68.742188 C 343.8125 69.652344 343.683594 70.5625 343.507812 71.460938 L 347.855469 74.570312 C 348.195312 74.8125 348.320312 75.257812 348.15625 75.636719 L 346.050781 80.632812 C 345.886719 81.015625 345.484375 81.230469 345.078125 81.160156 L 339.824219 80.21875 C 339.308594 80.964844 338.742188 81.695312 338.132812 82.386719 L 340.339844 87.253906 C 340.511719 87.628906 340.398438 88.078125 340.070312 88.328125 L 335.746094 91.601562 C 335.414062 91.851562 334.957031 91.839844 334.640625 91.574219 L 330.554688 88.125 C 329.71875 88.523438 328.867188 88.871094 328.007812 89.164062 L 327.492188 94.480469 C 327.449219 94.890625 327.128906 95.222656 326.71875 95.269531 L 321.335938 95.945312 C 321.300781 95.949219 321.261719 95.953125 321.226562 95.953125 " fill-opacity="1" fill-rule="nonzero"/><path fill="#4e8db9" d="M 609.347656 163.117188 C 607.664062 149.148438 617.621094 136.398438 631.582031 134.644531 C 645.542969 132.882812 658.222656 142.78125 659.898438 156.75 C 661.578125 170.714844 651.621094 183.464844 637.660156 185.226562 C 623.703125 186.984375 611.023438 177.085938 609.347656 163.117188 " fill-opacity="1" fill-rule="nonzero"/><path fill="#ffffff" d="M 648.9375 169.582031 L 624.429688 172.671875 C 623.128906 172.835938 621.953125 171.914062 621.796875 170.617188 L 619.761719 153.679688 C 619.605469 152.378906 620.53125 151.195312 621.828125 151.03125 L 646.335938 147.945312 C 647.632812 147.78125 648.8125 148.703125 648.96875 150 L 651.007812 166.9375 C 651.160156 168.234375 650.234375 169.417969 648.9375 169.582031 " fill-opacity="1" fill-rule="nonzero"/><path fill="#4e8db9" d="M 635.613281 162.136719 C 635.480469 162.136719 635.34375 162.109375 635.21875 162.046875 L 625.105469 157.078125 C 624.664062 156.859375 624.484375 156.332031 624.699219 155.890625 C 624.914062 155.453125 625.445312 155.273438 625.882812 155.484375 L 636.003906 160.457031 C 636.441406 160.675781 636.625 161.203125 636.40625 161.644531 C 636.257812 161.957031 635.9375 162.136719 635.613281 162.136719 " fill-opacity="1" fill-rule="nonzero"/><path fill="#4e8db9" d="M 635.679688 162.132812 C 635.425781 162.132812 635.175781 162.027344 635 161.820312 C 634.683594 161.445312 634.730469 160.886719 635.101562 160.570312 L 643.742188 153.238281 C 644.117188 152.917969 644.679688 152.964844 644.992188 153.335938 C 645.308594 153.710938 645.265625 154.273438 644.890625 154.585938 L 636.25 161.921875 C 636.082031 162.0625 635.878906 162.132812 635.679688 162.132812 " fill-opacity="1" fill-rule="nonzero"/><path fill="#4e8db9" d="M 586.09375 112.328125 C 577.1875 101.4375 578.757812 85.335938 589.601562 76.367188 C 600.441406 67.402344 616.449219 68.960938 625.355469 79.851562 C 634.257812 90.746094 632.691406 106.84375 621.847656 115.8125 C 611.003906 124.78125 595 123.222656 586.09375 112.328125 " fill-opacity="1" fill-rule="nonzero"/><path fill="#ffffff" d="M 592.617188 103.582031 L 597.90625 94.636719 C 598.140625 94.238281 598.683594 94.15625 599.027344 94.46875 L 604.128906 99.097656 C 604.464844 99.398438 604.992188 99.332031 605.234375 98.953125 L 612.90625 87.140625 C 613.21875 86.664062 613.933594 86.707031 614.183594 87.21875 L 621.796875 102.859375 C 622.03125 103.335938 621.691406 103.894531 621.15625 103.910156 L 593.269531 104.683594 C 592.691406 104.699219 592.324219 104.074219 592.617188 103.582031 " fill-opacity="1" fill-rule="nonzero"/><path fill="#ffffff" d="M 606.863281 86.972656 C 606.398438 88.5625 604.726562 89.472656 603.140625 89.011719 C 601.550781 88.542969 600.636719 86.878906 601.105469 85.289062 C 601.570312 83.699219 603.234375 82.785156 604.828125 83.25 C 606.417969 83.71875 607.332031 85.382812 606.863281 86.972656 " fill-opacity="1" fill-rule="nonzero"/><path fill="#4e8db9" d="M 523.90625 80.101562 C 514.816406 69.363281 516.113281 53.238281 526.800781 44.085938 C 537.488281 34.9375 553.523438 36.226562 562.613281 46.964844 C 571.699219 57.703125 570.402344 73.828125 559.714844 82.976562 C 549.027344 92.132812 532.992188 90.839844 523.90625 80.101562 " fill-opacity="1" fill-rule="nonzero"/><path fill="#ffffff" d="M 535.945312 74.195312 L 535.488281 55.144531 C 535.464844 54.175781 536.472656 53.515625 537.355469 53.925781 L 556.644531 62.863281 C 557.625 63.316406 557.660156 64.695312 556.707031 65.207031 L 537.878906 75.320312 C 537.015625 75.785156 535.972656 75.175781 535.945312 74.195312 " fill-opacity="1" fill-rule="nonzero"/></svg>